<?xml version="1.0" encoding="UTF-8"?><svg id="Layer_2" xmlns="http://www.w3.org/2000/svg" viewBox="0 0 221.29 512.82"><defs><style>.cls-1{fill:#e94e1b;}.cls-2{fill:none;stroke:#000;stroke-miterlimit:10;}</style></defs><g id="Layer_2-2"><g><g><path class="cls-2" d="m135.73,270.98c7.39,21.54,21.31,61.76,12.56,101.39-8.79,39.84,3.89,119.32-.32,140.36"/><g><path class="cls-1" d="m133.66,273.49c-1.91,0-3.1-.7-3.38-1.97-.32-1.52,1.51-4.68,2.47-6.21-.18,0-.36,0-.54,0-36.87,0-105.85-77.2-120.29-106.33C1.37,137.72-1.96,114.1,2.3,90.7,11.8,38.43,57.27.5,110.43.5c6.62,0,13.3.6,19.87,1.8,28.94,5.26,54.1,21.45,70.86,45.58,16.75,24.14,23.09,53.33,17.84,82.2-5.61,30.88-17.04,63-31.34,88.11-20.11,35.31-38.79,45.06-51.32,46.8,1.81,1.28,4.33,3.31,4.54,4.79.06.41-.09.83-.45,1.24-1.11,1.29-4.34,2.46-6.77,2.46h0Z"/><path d="m110.43,1c6.52,0,13.13.58,19.78,1.79,59.57,10.83,99.1,67.78,88.3,127.21-10.69,58.79-44.89,130.86-83.55,134.67.96.63,5.18,3.5,5.43,5.2.2,1.38-3.81,3.13-6.72,3.13-1.46,0-2.64-.44-2.89-1.57-.38-1.77,2.93-6.64,2.93-6.64-.49.03-.98.04-1.49.04-36.42,0-105.19-76.5-119.85-106.05C2.28,138.43-1.58,114.81,2.79,90.79,12.39,37.99,58.49,1,110.43,1m0-1c-25.55,0-50.53,8.99-70.33,25.32C20.05,41.85,6.46,65.03,1.81,90.61c-4.27,23.51-.93,47.24,9.67,68.6,7.79,15.7,29.64,42.78,51.96,64.38,16.2,15.68,46.56,41.93,68.41,42.22-1.07,1.78-2.37,4.34-2.06,5.81.15.71.83,2.37,3.86,2.37,2.6,0,5.94-1.23,7.15-2.63.57-.66.62-1.25.56-1.64-.2-1.35-1.89-2.98-3.77-4.41,12.62-2.21,30.9-12.49,50.48-46.86,14.33-25.16,25.78-57.34,31.4-88.27,5.27-29-1.09-58.33-17.92-82.58C184.73,23.35,159.46,7.09,130.38,1.81c-6.6-1.2-13.31-1.81-19.96-1.81h0Z"/></g></g><path d="m172.28,126c-1.39.24-2.77.47-4.16.7.39,3.75.72,7.48,1.01,11.2-24.02,5.01-47.84,9.22-71.35,11.28,52.34-44.16,68.38-63.01,63.04-84.65-5.51-22.65-25.38-40.2-58.53-33.34-16.19,3.5-31.37,13.78-45.62,25.4,5.3,13.02,12.3,27.74,19.99,43.39.07-.01.14-.02.21-.03,4.97-20.19,10.71-41,16.27-62.09,1.12-.69,2.44-1.21,3.77-1.52,9.01-2.15,15.13,8.57,17.89,30.63,4.54,28.31-8.14,59.62-34.18,106.53-2.33,4.35-4.51,8.55-6.51,12.58.02.07.03.13.05.2,31.97,3.4,65.4-3.64,99.92-16.4.44-14.25-.24-28.89-1.78-43.87Z"/></g></g></svg>