<?xml version="1.0" encoding="utf-8"?>
<!-- Generator: Adobe Illustrator 28.1.0, SVG Export Plug-In . SVG Version: 6.00 Build 0)  -->
<svg version="1.1" xmlns="http://www.w3.org/2000/svg" xmlns:xlink="http://www.w3.org/1999/xlink" x="0px" y="0px"
	 viewBox="0 0 392.79 531.75" style="enable-background:new 0 0 392.79 531.75;" xml:space="preserve">
<style type="text/css">
	.st0{fill:#F15A24;}
	.st1{fill:none;stroke:#000000;stroke-miterlimit:10;}
	.st2{fill:#FCEE21;}
	.st3{fill:#2FAC66;}
	.st4{fill:#009FE3;}
	.st5{fill:#E94E1B;}
	.st6{fill:#FFF800;}
	.st7{clip-path:url(#SVGID_00000148658731969625597750000018175186042991750551_);}
	.st8{clip-path:url(#SVGID_00000030452208073356144380000012482647867358705833_);}
</style>
<g id="Layer_2">
	<g>
		<path class="st1" d="M133.26,270.2c7.2,21.61,83.94,159.21,78.96,178.06c-9.77,36.99,2.74,41.86-1.66,62.87"/>
		<g>
			<path class="st3" d="M131.24,272.69c-1.95,0-3.17-0.71-3.43-2c-0.31-1.52,1.55-4.67,2.53-6.19c-0.1,0-0.2,0-0.3,0
				c-36.84,0-105.3-77.99-119.57-107.41C0.12,135.73-3,112.09,1.47,88.72C11.35,37.02,56.75-0.5,109.42-0.5
				c6.95,0,13.96,0.67,20.84,1.98c59.64,11.4,98.91,69.08,87.54,128.58c-5.89,30.83-17.61,62.84-32.14,87.83
				c-20.43,35.13-39.19,44.71-51.74,46.34c1.79,1.3,4.3,3.35,4.5,4.83c0.06,0.41-0.09,0.82-0.45,1.23
				C136.85,271.57,133.71,272.69,131.24,272.69z"/>
			<path d="M109.42,0c6.84,0,13.78,0.64,20.75,1.97c59.47,11.37,98.48,68.67,87.14,128c-11.22,58.7-46.08,130.45-84.77,133.91
				c0.95,0.64,5.15,3.55,5.39,5.25c0.19,1.38-3.78,3.07-6.68,3.07c-1.49,0-2.7-0.44-2.94-1.6c-0.36-1.78,2.99-6.62,2.99-6.62
				c-0.42,0.02-0.83,0.03-1.25,0.03c-36.36,0-104.7-77.39-119.12-107.13c-9.9-20.42-13.55-44.08-8.96-68.06
				C11.97,36.44,57.88,0,109.42,0 M109.42-1C56.51-1,10.9,36.69,0.98,88.63c-4.49,23.48-1.36,47.23,9.05,68.69
				C24.25,186.65,92.29,264.16,129.43,265c-1.08,1.77-2.41,4.32-2.11,5.79c0.15,0.72,0.82,2.4,3.92,2.4c2.59,0,5.91-1.2,7.11-2.58
				c0.56-0.65,0.62-1.24,0.57-1.62c-0.19-1.35-1.86-3-3.73-4.44c12.64-2.1,31.01-12.21,50.9-46.4c14.56-25.03,26.3-57.1,32.2-87.98
				c5.53-28.96-0.57-58.34-17.17-82.73c-16.61-24.4-41.74-40.89-70.76-46.43C123.44-0.33,116.39-1,109.42-1L109.42-1z"/>
		</g>
	</g>
	<g>
		<path class="st1" d="M276.88,282.71c-9.88,107.96-67.15,130.19-64.07,170.65c2.91,38.14,8.26,33.11,14.66,68.13"/>
		<g>
			<path class="st4" d="M276.31,284.95c-3.03,0-4.85-1.03-4.88-2.76c-0.03-1.55,2.38-4.3,3.62-5.62
				c-21.08-3.68-45.82-34.95-58.8-53.45c-18.07-25.75-34.6-56.93-39.31-74.14c-6.26-22.9-4.98-46.72,3.7-68.87
				c8.21-20.96,22.42-38.64,41.08-51.11c18.23-12.19,39.43-18.64,61.31-18.64c13.76,0,27.3,2.57,40.23,7.64
				c56.54,22.15,84.55,86.07,62.45,142.47c-22.45,57.29-67.91,116.54-105.13,116.54c0,0,0,0-0.01,0c-0.65,0-1.3-0.02-1.95-0.05
				c1.53,1.6,3.61,4.08,3.54,5.57C282.08,284.2,278.69,284.95,276.31,284.95z"/>
			<path d="M283.03,10.87c13.33,0,26.88,2.44,40.05,7.6c56.37,22.09,84.2,85.58,62.17,141.82c-21.2,54.1-66.62,116.22-104.67,116.22
				c-1.08,0-2.17-0.05-3.24-0.15c0.82,0.8,4.41,4.43,4.33,6.15c-0.05,1.12-2.79,1.94-5.35,1.94c-2.24,0-4.35-0.64-4.38-2.27
				c-0.03-1.81,4.15-5.95,4.15-5.95c-35.74-4.81-89.85-95.12-98.66-127.38c-5.98-21.89-5.23-45.82,3.68-68.55
				C198,37.2,239.28,10.87,283.03,10.87 M283.03,9.87c-21.97,0-43.27,6.47-61.59,18.72c-18.74,12.53-33.01,30.29-41.26,51.35
				c-8.72,22.25-10,46.18-3.72,69.18c4.72,17.25,21.28,48.5,39.38,74.29c12.85,18.31,37.17,49.07,58.23,53.49
				c-1.39,1.54-3.16,3.81-3.14,5.31c0.03,2.03,2.05,3.25,5.38,3.25c2.5,0,6.25-0.77,6.35-2.89c0.07-1.36-1.28-3.29-2.85-5.05
				c0.25,0.01,0.51,0.01,0.76,0.01c12.45,0,32.86-6.62,59.42-38.18c18.26-21.7,35.09-50.37,46.18-78.68
				c10.76-27.45,10.15-57.45-1.7-84.48c-11.85-27.03-33.52-47.85-61.04-58.63C310.45,12.45,296.85,9.87,283.03,9.87L283.03,9.87z"/>
		</g>
	</g>
	<g>
	</g>
	<g>
		<g>
			<path class="st1" d="M202.89,290c7.39,21.54,21.31,61.76,12.56,101.39c-8.79,39.84,3.89,119.32-0.32,140.36"/>
			<g>
				<path class="st6" d="M200.82,292.51c-1.9,0-3.1-0.7-3.38-1.97c-0.32-1.52,1.5-4.68,2.47-6.21c-0.18,0-0.36,0.01-0.54,0.01
					c-36.87,0-105.85-77.2-120.29-106.33c-10.55-21.27-13.88-44.88-9.62-68.29c9.5-52.26,54.98-90.2,108.13-90.2
					c6.62,0,13.3,0.61,19.87,1.8c28.94,5.26,54.1,21.45,70.86,45.59s23.09,53.33,17.84,82.2c-5.61,30.88-17.04,63-31.34,88.11
					c-20.11,35.31-38.79,45.06-51.32,46.8c1.81,1.28,4.33,3.31,4.55,4.79c0.06,0.41-0.09,0.83-0.45,1.24
					C206.48,291.34,203.25,292.51,200.82,292.51L200.82,292.51z"/>
				<path d="M177.59,20.02c6.52,0,13.13,0.58,19.78,1.79c59.57,10.83,99.1,67.78,88.3,127.21
					c-10.69,58.79-44.89,130.86-83.55,134.67c0.96,0.63,5.18,3.5,5.43,5.2c0.2,1.38-3.81,3.13-6.72,3.13
					c-1.46,0-2.64-0.44-2.89-1.57c-0.38-1.77,2.93-6.64,2.93-6.64c-0.49,0.03-0.98,0.04-1.49,0.04
					c-36.42,0-105.19-76.5-119.85-106.05c-10.09-20.33-13.95-43.95-9.58-67.98C79.55,57.01,125.65,20.02,177.59,20.02 M177.59,19.02
					c-25.55,0-50.53,8.99-70.33,25.32c-20.04,16.53-33.64,39.71-38.29,65.29c-4.27,23.51-0.93,47.24,9.67,68.6
					c7.79,15.7,29.64,42.78,51.96,64.38c16.2,15.68,46.56,41.93,68.41,42.22c-1.07,1.78-2.37,4.34-2.06,5.81
					c0.15,0.71,0.83,2.36,3.86,2.36c2.6,0,5.94-1.23,7.15-2.63c0.57-0.66,0.62-1.25,0.56-1.64c-0.2-1.35-1.89-2.98-3.77-4.41
					c12.62-2.21,30.9-12.49,50.48-46.86c14.33-25.16,25.78-57.34,31.4-88.27c5.27-29-1.09-58.33-17.92-82.58
					c-16.83-24.25-42.11-40.51-71.18-45.79C190.95,19.63,184.24,19.02,177.59,19.02L177.59,19.02z"/>
			</g>
		</g>
		<g>
			<path d="M246.69,152.24c3.97,28.03-18.2,49.4-62.43,55.66c-15.77,2.23-30.93,1.41-45.52-2.88l2.5-51.18l0.2-0.03l35.73,50.42
				c1.51,0.22,2.79,0.24,4.65-0.02c12.05-1.71,21.12-16.96,17.68-41.26c-3.09-21.81-19.87-37.01-44.36-33.54l-0.29-2.08
				c22.22-3.15,29.18-16.84,25.35-43.83c-2.77-19.53-10.26-30.54-19.81-29.19c-1.66,0.23-3.5,0.72-4.68,1.3l-13.99,56.84l-0.2,0.03
				l-24.83-42.24c15.11-11.45,31.11-18.17,50.21-20.87c35.08-4.97,58.15,6.8,61.06,27.36c2.73,19.31-13.82,37.1-39.78,45.23
				C220.02,119.38,243.78,131.69,246.69,152.24z"/>
		</g>
	</g>
</g>
<g id="Layer_1">
</g>
</svg>
