<?xml version="1.0" encoding="UTF-8"?><svg id="Layer_2" xmlns="http://www.w3.org/2000/svg" viewBox="0 0 221.3 486.81"><defs><style>.cls-1{fill:#009fe3;}.cls-2{fill:none;stroke:#000;stroke-miterlimit:10;}</style></defs><g id="Layer_2-2"><g><g><path class="cls-2" d="m128.84,271.91c6.47,21.84-.91,62.3,8.21,101.83,8.6,37.27-.22,92.1-5.32,112.94"/><g><path class="cls-1" d="m127.02,274.34c-2.12,0-3.41-.75-3.64-2.12-.26-1.53,1.7-4.61,2.73-6.1-21.49-.47-50.79-27.88-66.43-44.28-21.63-22.68-42.55-50.9-49.74-67.11C.31,133.03-2.01,109.29,3.25,86.09c5.53-24.44,19.41-46.43,39.07-61.92C61.69,8.91,85.88.5,110.44.5c8.18,0,16.41.92,24.47,2.75,28.69,6.49,53.14,23.75,68.84,48.58,15.71,24.83,20.79,54.27,14.31,82.89-6.93,30.61-19.72,62.21-35.09,86.69-21.6,34.42-40.68,43.36-53.27,44.56,1.75,1.36,4.18,3.49,4.34,4.98.04.4-.11.8-.46,1.18-1.08,1.2-4.09,2.22-6.56,2.22h0Z"/><path d="m110.44,1c8.03,0,16.19.89,24.36,2.74,59.05,13.37,96.11,71.96,82.77,130.87-13.19,58.28-50.45,128.82-89.24,130.97.93.67,5.03,3.72,5.21,5.43.14,1.34-3.64,2.84-6.52,2.84-1.61,0-2.94-.47-3.15-1.7-.3-1.79,3.21-6.51,3.21-6.51-.14,0-.27,0-.41,0-36.16,0-102.76-80.66-116.27-111.1C1.19,133.78-1.66,110.02,3.73,86.2,15.22,35.43,60.38,1,110.44,1m0-1c-24.67,0-48.97,8.44-68.43,23.78C22.25,39.34,8.32,61.43,2.76,85.98c-5.28,23.31-2.95,47.15,6.72,68.95,13.4,30.19,78.53,109.56,115.71,111.66-1.14,1.73-2.55,4.24-2.3,5.72.13.76.79,2.54,4.13,2.54,2.31,0,5.64-.96,6.93-2.38.55-.61.62-1.19.58-1.56-.14-1.36-1.76-3.06-3.58-4.57,12.7-1.67,31.41-11.16,52.44-44.66,15.4-24.53,28.21-56.18,35.15-86.85,6.51-28.75,1.4-58.32-14.37-83.27-15.78-24.94-40.34-42.27-69.16-48.8-8.09-1.83-16.36-2.76-24.58-2.76h0Z"/></g></g><path d="m169.08,128.48c-1.39.21-2.78.42-4.16.63.25,3.75.44,7.49.59,11.21-24,4.63-47.83,8.11-71.42,9.32,53.48-42.44,70.34-61.03,65.65-82.35-4.81-22.32-24.76-40.9-57.92-35.56-16.19,2.82-31.4,12.75-45.82,24.23,4.77,13.24,11.24,28.16,18.42,43.99.07,0,.14-.02.21-.02,5.6-20.04,11.94-40.81,17.95-61.84,1.13-.65,2.45-1.13,3.78-1.39,9-1.8,14.92,9.22,17.1,31.35,3.78,28.27-9.91,59.73-37.21,104.96-2.45,4.16-4.74,8.15-6.85,11.95.02.07.03.13.05.2,32.2,5.3,65.51-.19,99.73-12.63.97-14.39.87-29.08-.09-44.05Z"/></g></g></svg>