<?xml version="1.0" encoding="utf-8"?>
<!-- Generator: Adobe Illustrator 28.1.0, SVG Export Plug-In . SVG Version: 6.00 Build 0)  -->
<svg version="1.1" id="Layer_2_00000056425504467951918160000000163997024205355928_"
	 xmlns="http://www.w3.org/2000/svg" xmlns:xlink="http://www.w3.org/1999/xlink" x="0px" y="0px" viewBox="0 0 221.3 486.8"
	 style="enable-background:new 0 0 221.3 486.8;" xml:space="preserve">
<style type="text/css">
	.st0{fill:#08c900;}
</style>
<g id="Layer_2-2">
	<g>
		<g>
			<g>
				<path class="st0" d="M127,274.3c-2.1,0-3.4-0.8-3.6-2.1c-0.3-1.5,1.7-4.6,2.7-6.1c-21.5-0.5-50.8-27.9-66.4-44.3
					c-21.6-22.7-42.5-50.9-49.7-67.1C0.3,133-2,109.3,3.2,86.1c5.5-24.4,19.4-46.4,39.1-61.9C61.7,8.9,85.9,0.5,110.4,0.5
					c8.2,0,16.4,0.9,24.5,2.8c28.7,6.5,53.1,23.8,68.8,48.6c15.7,24.8,20.8,54.3,14.3,82.9c-6.9,30.6-19.7,62.2-35.1,86.7
					c-21.6,34.4-40.7,43.4-53.3,44.6c1.8,1.4,4.2,3.5,4.3,5c0,0.4-0.1,0.8-0.5,1.2C132.5,273.3,129.5,274.4,127,274.3L127,274.3
					L127,274.3z"/>
				<path d="M110.4,1c8,0,16.2,0.9,24.4,2.7c59.1,13.4,96.1,72,82.8,130.9c-13.2,58.3-50.4,128.8-89.2,131c0.9,0.7,5,3.7,5.2,5.4
					c0.1,1.3-3.6,2.8-6.5,2.8c-1.6,0-2.9-0.5-3.2-1.7c-0.3-1.8,3.2-6.5,3.2-6.5c-0.1,0-0.3,0-0.4,0c-36.2,0-102.8-80.7-116.3-111.1
					C1.2,133.8-1.7,110,3.7,86.2C15.2,35.4,60.4,1,110.4,1 M110.4,0C85.8,0,61.5,8.4,42,23.8C22.2,39.3,8.3,61.4,2.8,86
					c-5.3,23.3-3,47.2,6.7,68.9C22.9,185.1,88,264.5,125.2,266.6c-1.1,1.7-2.6,4.2-2.3,5.7c0.1,0.8,0.8,2.5,4.1,2.5
					c2.3,0,5.6-1,6.9-2.4c0.6-0.6,0.6-1.2,0.6-1.6c-0.1-1.4-1.8-3.1-3.6-4.6c12.7-1.7,31.4-11.2,52.4-44.7
					c15.4-24.5,28.2-56.2,35.2-86.9c6.5-28.8,1.4-58.3-14.4-83.3C188.4,26.6,163.8,9.3,135,2.8C126.9,0.9,118.7,0,110.4,0L110.4,0
					L110.4,0z"/>
			</g>
		</g>
	</g>
</g>
</svg>
