<?xml version="1.0" encoding="UTF-8"?><svg id="Layer_2" xmlns="http://www.w3.org/2000/svg" xmlns:xlink="http://www.w3.org/1999/xlink" viewBox="0 0 444.66 504.4"><defs><style>.cls-1,.cls-2{fill:none;}.cls-3{clip-path:url(#clippath);}.cls-4{fill:#009fe3;}.cls-5{fill:#f15a24;}.cls-6{fill:#fcee21;}.cls-7{fill:#2fac66;}.cls-2{stroke:#000;stroke-miterlimit:10;}</style><clipPath id="clippath"><rect class="cls-1" x="80.61" y="22.82" width="363.05" height="219.25"/></clipPath></defs><g id="Layer_2-2"><path class="cls-5" d="m299.86,132.7c0,60.4-21.21,138.45-59.33,147.77-35.03,8.56-118.36-55.78-138.33-82.6-13.56-18.2-21.58-40.75-21.58-65.17,0-60.4,49.08-109.36,109.62-109.36s109.62,48.96,109.62,109.36Z"/><path class="cls-5" d="m240.53,280.47s-2.38,5.38-1.69,7.06c1.33,3.22,9.85-1.26,9.18-3.25-.62-1.84-6.49-4.24-6.49-4.24"/><path class="cls-2" d="m243.64,286.21c.75,21.46,3.87,66.88,30.49,97.51,32.56,37.46,24.09,92.99,23.72,114.45"/><path class="cls-2" d="m314.79,286.59c-1.88,35.76-3.95,62.12-18.64,125.74-14.68,63.62,2.45,62.87,16.38,91.86"/><path class="cls-6" d="m443.66,132.7c0,22.16-6.61,42.78-17.96,60.01-19.6,29.73-71.46,95.11-108.08,88.54-33.04-5.93-93.2-88.15-93.2-148.55s49.08-109.36,109.62-109.36,109.62,48.96,109.62,109.36Z"/><g><path class="cls-2" d="m134.28,271.2c7.2,21.61,1.19,62.29,11.65,101.5,9.86,36.96,2.89,92.05-1.51,113.06"/><g><path class="cls-7" d="m132.25,273.69c-1.95,0-3.16-.71-3.43-2-.31-1.52,1.55-4.67,2.53-6.19-.1,0-.2,0-.3,0-36.84,0-105.3-77.99-119.56-107.41C1.13,136.73-1.98,113.09,2.48,89.72,12.36,38.02,57.76.5,110.43.5c6.95,0,13.96.67,20.84,1.98,28.89,5.52,53.91,21.94,70.44,46.22s22.61,53.54,17.1,82.36c-5.89,30.83-17.61,62.84-32.14,87.83-20.43,35.13-39.19,44.71-51.74,46.34,1.79,1.3,4.3,3.35,4.5,4.83.06.41-.09.82-.45,1.23-1.12,1.28-4.26,2.41-6.73,2.41Z"/><path d="m110.43,1c6.84,0,13.78.64,20.75,1.97,59.47,11.37,98.48,68.67,87.14,128-11.22,58.7-46.08,130.45-84.77,133.91.95.64,5.15,3.55,5.39,5.25.19,1.38-3.78,3.07-6.68,3.07-1.49,0-2.7-.44-2.94-1.6-.36-1.78,2.99-6.62,2.99-6.62-.42.02-.83.03-1.25.03-36.36,0-104.7-77.39-119.12-107.13C2.04,137.45-1.61,113.8,2.97,89.81,12.98,37.44,58.89,1,110.43,1m0-1C57.52,0,11.92,37.69,1.99,89.63c-4.49,23.48-1.36,47.23,9.05,68.69,14.22,29.34,82.26,106.85,119.41,107.69-1.08,1.77-2.41,4.32-2.11,5.79.15.72.82,2.4,3.92,2.4,2.59,0,5.91-1.21,7.11-2.58.56-.65.62-1.24.57-1.62-.19-1.35-1.86-3-3.73-4.44,12.64-2.1,31.01-12.21,50.9-46.4,14.56-25.03,26.3-57.1,32.2-87.98,5.53-28.96-.57-58.34-17.17-82.73C185.52,24.03,160.39,7.54,131.37,1.99c-6.91-1.32-13.96-1.99-20.94-1.99h0Z"/></g></g><g><path class="cls-2" d="m282.32,281.29c6.47,21.84-.91,62.3,8.21,101.83,8.6,37.27-.22,92.1-5.32,112.94"/><g><path class="cls-4" d="m280.5,283.72c-2.12,0-3.41-.75-3.64-2.12-.26-1.53,1.7-4.61,2.73-6.1-21.49-.47-50.79-27.88-66.43-44.28-21.63-22.68-42.55-50.9-49.74-67.11-9.63-21.7-11.94-45.44-6.69-68.64,5.53-24.44,19.41-46.43,39.07-61.92,19.38-15.26,43.57-23.67,68.12-23.67,8.18,0,16.41.92,24.47,2.75,59.22,13.41,96.52,72.38,83.15,131.47-6.93,30.61-19.72,62.21-35.09,86.69-21.6,34.42-40.68,43.36-53.27,44.56,1.75,1.36,4.18,3.49,4.33,4.98.04.4-.11.8-.46,1.18-1.08,1.2-4.09,2.22-6.56,2.22h0Z"/><path d="m263.92,10.38c8.03,0,16.19.89,24.36,2.74,59.05,13.37,96.11,71.96,82.77,130.87-13.19,58.28-50.45,128.82-89.24,130.97.93.67,5.03,3.72,5.21,5.43.14,1.34-3.64,2.84-6.52,2.84-1.61,0-2.94-.47-3.15-1.7-.3-1.79,3.21-6.51,3.21-6.51-.14,0-.27,0-.41,0-36.16,0-102.76-80.66-116.27-111.1-9.21-20.75-12.05-44.51-6.66-68.33,11.49-50.77,56.65-85.2,106.71-85.2m0-1c-24.67,0-48.97,8.44-68.43,23.78-19.75,15.56-33.69,37.65-39.25,62.2-5.28,23.31-2.95,47.15,6.72,68.95,13.4,30.19,78.53,109.56,115.71,111.66-1.14,1.73-2.55,4.24-2.3,5.72.13.76.79,2.54,4.13,2.54,2.31,0,5.64-.96,6.93-2.38.55-.61.62-1.19.58-1.56-.14-1.36-1.76-3.06-3.58-4.57,12.7-1.67,31.41-11.16,52.44-44.66,15.4-24.53,28.21-56.18,35.15-86.85,6.51-28.75,1.4-58.32-14.37-83.27-15.78-24.94-40.34-42.27-69.16-48.8-8.09-1.83-16.36-2.76-24.58-2.76h0Z"/></g></g><g><path class="cls-5" d="m240.93,289.16c-1.63,0-2.29-.78-2.56-1.44-.59-1.44.64-4.87,1.32-6.55-1.9.38-3.97.58-6.16.58-22.77,0-55.63-20.26-73.19-32.34-24.6-16.92-48.67-37.99-58.54-51.24-14.18-19.04-21.68-41.68-21.68-65.47,0-60.58,49.4-109.86,110.12-109.86s110.12,49.28,110.12,109.86c0,31.39-5.5,65.03-15.08,92.3-13.47,38.34-30.1,51.27-42.12,55.23,2.01.94,4.85,2.48,5.33,3.9.16.46.03.98-.37,1.53-1.13,1.58-4.67,3.51-7.18,3.51h0Z"/><path d="m190.24,23.34c60.54,0,109.62,48.96,109.62,109.36s-20.77,136.78-58.12,147.44c1.06.45,5.73,2.51,6.27,4.14.5,1.49-4.15,4.38-7.08,4.38-.98,0-1.76-.32-2.1-1.13-.69-1.68,1.69-7.06,1.69-7.06-2.16.53-4.5.78-7,.78-38.06,0-112.59-58.21-131.34-83.38-13.56-18.2-21.58-40.75-21.58-65.17,0-60.4,49.08-109.36,109.62-109.36m0-1c-29.55,0-57.33,11.48-78.22,32.32-20.89,20.85-32.4,48.56-32.4,78.04,0,23.9,7.53,46.64,21.78,65.77,9.9,13.29,34.02,34.41,58.66,51.35,17.61,12.11,50.57,32.43,73.48,32.43,1.89,0,3.69-.14,5.36-.42-.73,1.94-1.56,4.7-.98,6.08.27.65,1.02,1.75,3.02,1.75,2.73,0,6.38-2.03,7.59-3.72.62-.86.58-1.56.44-1.98-.44-1.29-2.39-2.59-4.49-3.66,8.21-3.02,15.9-9.29,22.91-18.69,6.98-9.36,13.16-21.62,18.37-36.44,9.6-27.32,15.11-61.02,15.11-92.46,0-29.48-11.51-57.19-32.4-78.04-20.89-20.84-48.67-32.32-78.22-32.32h0Z"/></g><g><path class="cls-6" d="m317.98,289.93c-2.42,0-5.64-.92-6.83-2.47-.47-.61-.62-1.3-.44-1.99.37-1.39,2.99-3.19,4.68-4.22-16.12-4.31-38.51-25.52-57.5-54.6-21.33-32.67-33.57-67.08-33.57-94.41,0-29.34,11.38-56.85,32.05-77.46,20.67-20.6,48.25-31.95,77.67-31.95,60.72,0,110.12,49.28,110.12,109.86,0,19.62-7.82,43.2-20.91,63.06-5.83,8.85-58.21,86.46-100.14,86.46,0,0,0,0,0,0-1.46,0-2.9-.1-4.3-.28,1.01,1.85,2.65,5.22,2.13,6.78-.27.8-1.29,1.22-2.96,1.22Z"/><path d="m334.04,23.34c60.54,0,109.62,48.96,109.62,109.36,0,22.16-9.47,45.55-20.82,62.78-18.63,28.26-63.83,86.24-99.73,86.24-1.77,0-3.52-.14-5.24-.43.19.33,3.19,5.49,2.6,7.27-.2.6-1.21.88-2.49.88-2.96,0-7.41-1.48-6.79-3.83.43-1.61,4.81-4.14,5.51-4.54-33.21-7.25-91.89-88.96-91.89-148.81s48.68-108.9,109.22-108.9m0-1c-29.55,0-57.26,11.4-78.02,32.09-20.77,20.7-32.2,48.33-32.2,77.81,0,27.43,12.27,61.94,33.65,94.68,18.63,28.53,40.56,49.53,56.71,54.5-1.77,1.16-3.61,2.64-3.95,3.92-.22.85-.04,1.68.53,2.42,1.33,1.73,4.72,2.67,7.23,2.67s3.2-.85,3.43-1.56c.51-1.51-.66-4.28-1.71-6.33,1.12.12,2.26.17,3.41.17,15.97,0,35.16-11.04,57.04-32.81,21-20.89,37.43-44.64,43.52-53.88,6.31-9.57,20.99-34.91,20.99-63.33s-11.51-57.19-32.4-78.04c-20.89-20.84-48.67-32.32-78.22-32.32h0Z"/></g></g><g id="Layer_1-2"><g class="cls-3"><path d="m128.18,92.74v35.87c12.43-.71,14.95-6.67,14.95-19.2,0-10.21-3.84-16.67-11.72-16.67h-3.23Zm48.09,69.51v1.62h-28.79l-19.3-33.34v31.72h8.59v1.62h-38.9v-1.62h8.08v-65.67l-8.99-5.46h38.09c19.9,0,31.32,5.96,31.32,18.09,0,10-5.96,16.17-16.47,18.99l21.52,34.05h4.85Z"/><path d="m186.78,121.83c0,8.39,4.35,16.87,10.41,23.14,2.83-3.64,3.94-7.68,3.94-12.83,0-8.79-5.86-16.27-10.21-16.27-2.63,0-4.14,2.22-4.14,5.96m33.85,32.94c-4.24,6.47-11.01,10.1-20.41,10.1-14.25,0-25.97-9.9-25.97-25.56,0-14.75,9.9-26.98,26.07-26.98,9.5,0,16.07,5.56,16.07,12.93,0,8.39-6.47,15.76-18.59,20.31,5.76,5.66,13.03,9.4,19.8,9.4,1.01,0,2.02-.1,2.93-.3l.1.1Z"/><path d="m334.24,26.11c-58.52,0-106.12,47.61-106.12,106.12s47.61,106.12,106.12,106.12,106.12-47.61,106.12-106.12-47.61-106.12-106.12-106.12m0,215.55c-60.34,0-109.42-49.09-109.42-109.42s49.09-109.42,109.42-109.42,109.42,49.09,109.42,109.42-49.09,109.42-109.42,109.42"/><path d="m334.24,89.81c-31.28,0-62.5-4.17-92.81-12.41l.42-1.56c30.16,8.2,61.25,12.35,92.38,12.35s62.17-4.15,92.31-12.33l.42,1.56c-30.28,8.22-61.48,12.39-92.74,12.39"/><path d="m270.68,46.21c20.52,6.35,41.89,9.57,63.56,9.57s43.05-3.22,63.56-9.57c-18.5-13.7-40.44-20.93-63.56-20.93s-45.06,7.23-63.56,20.93m63.56,11.19c-22.37,0-44.42-3.4-65.55-10.11l-1.48-.47,1.24-.94c19.04-14.53,41.8-22.21,65.8-22.21s46.76,7.68,65.8,22.21l1.24.94-1.48.47c-21.13,6.71-43.19,10.11-65.55,10.11"/><path d="m430.43,182.16c-31.38-7.16-63.74-10.8-96.19-10.8s-64.82,3.63-96.19,10.8l-.36-1.58c31.49-7.19,63.98-10.84,96.55-10.84s65.06,3.65,96.55,10.84l-.36,1.58Z"/><path d="m270.68,218.27c18.5,13.7,40.44,20.93,63.56,20.93s45.06-7.23,63.56-20.93c-20.51-6.35-41.89-9.57-63.56-9.57s-43.05,3.22-63.56,9.57m63.56,22.55c-24,0-46.76-7.68-65.8-22.21l-1.24-.94,1.48-.47c21.13-6.71,43.19-10.11,65.55-10.11s44.42,3.4,65.55,10.11l1.48.47-1.24.94c-19.05,14.53-41.8,22.21-65.8,22.21"/><path d="m334.24,240.82c-44.21,0-80.17-48.71-80.17-108.58s35.96-108.58,80.17-108.58c38.3,0,71.4,36.89,78.7,87.72.17,1.19.33,2.39.47,3.59l-1.61.19c-.14-1.19-.3-2.38-.46-3.55-7.18-50.02-39.61-86.33-77.1-86.33-43.32,0-78.56,47.98-78.56,106.96s35.24,106.97,78.56,106.97c17.05,0,33.27-7.32,46.91-21.17,13.23-13.44,23.21-32.59,28.1-53.93.15-.67.3-1.35.45-2.03l1.58.34c-.14.69-.3,1.37-.45,2.05-4.95,21.62-15.08,41.05-28.52,54.7-13.95,14.16-30.57,21.65-48.06,21.65"/><path d="m334.24,25.28c-26.11,0-47.35,47.98-47.35,106.96s21.24,106.97,47.35,106.97,47.35-47.99,47.35-106.97-21.24-106.96-47.35-106.96m0,215.55c-13.2,0-25.56-11.38-34.79-32.04-9.14-20.46-14.18-47.64-14.18-76.54s5.04-56.08,14.18-76.54c9.24-20.66,21.59-32.04,34.79-32.04s25.56,11.38,34.79,32.04c9.14,20.46,14.18,47.64,14.18,76.54s-5.03,56.08-14.18,76.54c-9.23,20.66-21.59,32.04-34.79,32.04"/><path d="m334.24,240.82c-3.47,0-8.48-5.59-12.62-32.25-3.16-20.4-4.9-47.5-4.9-76.33s1.74-55.94,4.9-76.33c2.28-14.71,6.32-32.25,12.62-32.25,10.41,0,16.28,47.79,17.33,92.2l-1.62.04c-1.34-56.72-9.04-90.62-15.71-90.62-1.46,0-6.57,2.23-11.02,30.88-3.15,20.32-4.88,47.34-4.88,76.08s1.74,55.77,4.88,76.08c4.44,28.65,9.56,30.88,11.02,30.88,3.98,0,9.89-13.3,13.45-50.78l1.61.15c-1.47,15.49-3.54,28.45-5.99,37.48-2.69,9.94-5.66,14.77-9.07,14.77"/><path d="m323.58,162.25v1.62h-25.26v-7.78c-6.67,4.85-12.43,8.89-18.08,8.89-9.09,0-13.03-5.25-13.03-17.28v-21.72l-5.76-4.95,25.97-9.09v31.73c0,8.49.71,11.82,5.76,11.82,1.62,0,3.44-.4,5.15-1.01v-29l-5.76-4.95,25.97-9.09v50.82h5.05Z"/><path d="m362.88,145.07c0-3.23-1.82-8.39-6.06-15.96-5.96-10.61-9.5-14.04-12.63-14.04-2.12,0-3.94,1.62-3.94,4.45,0,3.54,2.02,8.49,6.06,15.96,5.86,10.81,9.7,14.04,12.73,14.04,2.32,0,3.84-1.52,3.84-4.45m-31.22,28.39c2.42,9.4,10.51,13.74,20.81,13.74,7.78,0,13.94-2.83,13.94-6.57,0-2.32-2.93-3.54-10.91-3.54h-10.91c-5.96,0-10.2-1.31-12.93-3.64m50.92-49.91l-.1.1c-4.75-2.83-11.21-5.96-15.76-6.97,4.75,3.54,7.27,9.09,7.27,15.76,0,11.42-8.39,20-22.33,20-5.66,0-10.71-1.52-14.65-4.14-1.01,5.76,2.12,10,10.91,10h11.62c11.72,0,18.09,3.64,18.09,12.43,0,11.52-12.53,19-31.12,19-14.85,0-22.13-3.03-22.13-9.4,0-3.03,2.42-5.76,6.67-7.38-2.22-2.22-3.23-5.25-3.23-8.89,0-5.56,2.32-10.41,8.29-16.47-4.55-3.43-7.28-8.69-7.28-15.26,0-11.11,8.49-20,23.14-20,5.36,0,9.9,1.21,13.44,3.43,5.46-2.93,9.52-5.16,15.58-8.29l1.59,16.07Z"/><path d="m344.19,115.36c-2.14,0-3.64,1.71-3.64,4.15,0,3.27,1.8,8.01,6.02,15.82,5.14,9.47,9.1,13.89,12.47,13.89,2.25,0,3.54-1.51,3.54-4.15,0-3.36-2.03-8.68-6.02-15.82-5.47-9.74-9.17-13.89-12.37-13.89m14.85,34.45c-2.27,0-6.09-1.47-12.99-14.2-4.33-8.01-6.1-12.68-6.1-16.11,0-2.8,1.74-4.75,4.24-4.75,3.49,0,7.23,4.11,12.89,14.2,4.05,7.23,6.1,12.65,6.1,16.11,0,2.97-1.55,4.75-4.14,4.75m6.41-33.73l1.34.3c4.67,1.04,11.15,4.24,15.46,6.77l-1.51-15.22c-4.49,2.33-7.97,4.2-11.65,6.18-1.13.61-2.3,1.24-3.54,1.91l-.1.06Zm-33.25,58.18c2.5,8.16,9.67,12.64,20.28,12.64,7.65,0,13.64-2.75,13.64-6.27,0-2.24-3.27-3.24-10.61-3.24h-10.91c-5.35,0-9.51-1.05-12.39-3.13m-.92-1.07l-.12.05c-4.11,1.57-6.47,4.15-6.47,7.1,0,6.12,7.14,9.1,21.83,9.1,18.43,0,30.82-7.51,30.82-18.69,0-8.27-5.65-12.13-17.79-12.13h-11.62c-4.59,0-7.86-1.12-9.72-3.34-1.47-1.75-1.99-4.18-1.49-7.01l.08-.45.38.25c4.01,2.68,9.02,4.09,14.48,4.09,13.18,0,22.03-7.92,22.03-19.71,0-6.57-2.54-12.09-7.15-15.52l-1.11-.82-.04.02-.15-.09c-3.58-2.25-8.05-3.39-13.28-3.39-13.66,0-22.84,7.92-22.84,19.71,0,6.2,2.54,11.53,7.16,15.02l.27.2-.24.24c-5.82,5.92-8.2,10.63-8.2,16.26,0,3.63,1.03,6.52,3.07,8.6l.66.57c2.78,2.37,7.06,3.57,12.74,3.57h10.91c7.86,0,11.21,1.15,11.21,3.84,0,3.91-6.12,6.87-14.24,6.87-11.29,0-18.78-4.96-21.1-13.97l-.09-.35Zm15.23,16.84c-15.09,0-22.43-3.17-22.43-9.7,0-3.1,2.34-5.81,6.44-7.49-2-2.17-3.01-5.12-3.01-8.78,0-5.65,2.44-10.58,8.14-16.44-4.6-3.6-7.12-9.02-7.12-15.29,0-12.15,9.42-20.31,23.44-20.31,5.28,0,9.8,1.14,13.45,3.39,1.18-.64,2.3-1.24,3.39-1.82,3.79-2.04,7.36-3.97,12.05-6.39l.39-.2,1.65,16.66-.37.36-.2-.12c-3.88-2.31-9.75-5.29-14.35-6.6,4.09,3.58,6.32,8.89,6.32,15.13,0,12.14-9.09,20.3-22.63,20.3-5.4,0-10.38-1.36-14.43-3.94-.35,2.49.13,4.53,1.43,6.07,1.74,2.08,4.86,3.13,9.26,3.13h11.62c12.37,0,18.39,4.16,18.39,12.73,0,11.54-12.63,19.29-31.42,19.29"/><path d="m394.65,121.83c0,8.39,4.35,16.87,10.41,23.14,2.83-3.64,3.94-7.68,3.94-12.83,0-8.79-5.86-16.27-10.21-16.27-2.63,0-4.14,2.22-4.14,5.96m33.85,32.94c-4.24,6.47-11.01,10.1-20.41,10.1-14.25,0-25.97-9.9-25.97-25.56,0-14.75,9.9-26.98,26.07-26.98,9.5,0,16.06,5.56,16.06,12.93,0,8.39-6.47,15.76-18.59,20.31,5.76,5.66,13.03,9.4,19.8,9.4,1.01,0,2.02-.1,2.93-.3l.1.1Z"/><path d="m254.07,88.09c-11.62,0-20.74,5.34-24.03,18.11-.01.06-.03.11-.04.17,0,0,0,0,0,0-.04.14-.07.29-.1.43-.01.06-.03.12-.04.18-.59,2.43-1.1,4.89-1.53,7.38h-.01c-.09.54-.18,1.08-.27,1.62h0c-.85,5.45-1.29,11.03-1.29,16.72,0,7.01.68,13.87,1.96,20.5h0s0,.01,0,.02c0,0,0,.01,0,.02.7,3.61,1.57,7.16,2.62,10.63h26.17v-1.62h-8.59v-46.27h13.03v-1.62h-13.03v-14.15c0-6.47.3-9.8,1.62-10.31,1.31-.5,4.55,4.65,7.48,8.99l8.18,11.92h.1l2.73-19.7c-4.34-1.92-10.1-3.03-14.95-3.03"/><path d="m172.16,69.75c0,9.02-4.11,16.33-9.18,16.33s-9.18-7.31-9.18-16.33,4.11-16.33,9.18-16.33,9.18,7.31,9.18,16.33"/><path d="m226.41,69.75c0,9.02-4.11,16.33-9.18,16.33s-9.18-7.31-9.18-16.33,4.11-16.33,9.18-16.33,9.18,7.31,9.18,16.33"/><path d="m259.94,212.49c-41.64,36.55-105.27,34.97-144.99-4.76-41.38-41.38-41.38-108.71,0-150.08,20.69-20.69,47.87-31.03,75.04-31.03,24.79,0,49.59,8.62,69.45,25.84.81-.76,1.62-1.5,2.45-2.23-42.93-37.49-108.39-35.79-149.28,5.1-42.66,42.66-42.66,112.08,0,154.75,21.33,21.33,49.35,32,77.37,32,25.9,0,51.8-9.12,72.42-27.35-.83-.73-1.65-1.47-2.47-2.22"/><path d="m243.03,192.62c-.76.66-1.53,1.31-2.3,1.96-.98.8-2,1.54-3,2.31-2.05,1.47-4.16,2.86-6.34,4.12-4.35,2.54-8.93,4.67-13.67,6.31-4.74,1.64-9.63,2.84-14.57,3.59-4.95.72-9.95,1.03-14.93.88l-1.87-.06c-.62-.04-1.24-.1-1.86-.15l-1.86-.15c-.62-.06-1.24-.16-1.85-.23l-1.86-.22c-.62-.08-1.23-.2-1.84-.3l-1.84-.31c-.61-.1-1.22-.26-1.83-.39-1.22-.26-2.44-.52-3.63-.87-1.2-.32-2.41-.64-3.59-1.03-1.19-.38-2.38-.72-3.54-1.18-1.17-.44-2.35-.83-3.49-1.35-9.21-3.8-17.75-9.32-24.95-16.31-7.32-6.86-13.21-15.25-17.37-24.43-4.23-9.16-6.65-19.17-7.23-29.32h-.46c.07,10.24,2.19,20.48,6.11,30.01,3.98,9.51,9.85,18.22,17.02,25.7,7.26,7.4,15.97,13.42,25.52,17.58,1.18.55,2.41.99,3.62,1.47,1.21.5,2.45.88,3.69,1.29,1.23.44,2.49.75,3.75,1.09,1.25.36,2.53.63,3.8.91.64.13,1.27.29,1.91.4l1.93.33c.64.1,1.28.23,1.93.31l1.94.23c.65.07,1.29.15,1.94.2l1.95.12c.65.04,1.3.09,1.95.11l1.95.03c5.21.07,10.41-.35,15.52-1.32,5.11-.95,10.11-2.39,14.92-4.3,4.81-1.91,9.44-4.26,13.8-7.01,2.18-1.37,4.28-2.87,6.33-4.43,1.01-.8,2.04-1.57,3.02-2.41l2.17-1.88c-.29-.43-.58-.86-.87-1.3"/></g></g></svg>