<svg xmlns="http://www.w3.org/2000/svg" width="232" height="139.611"><path data-name="Path 22" d="M162.219 1.194a68.5 68.5 0 00-46.238 17.918 68.558 68.558 0 100 101.236A68.559 68.559 0 10162.219 1.194z"/><g data-name="Group 20" fill="#fff"><ellipse data-name="Ellipse 8" cx="5.873" cy="10.402" rx="5.873" ry="10.402" transform="translate(46.649 19.212)"/><ellipse data-name="Ellipse 9" cx="5.873" cy="10.402" rx="5.873" ry="10.402" transform="translate(81.24 19.212)"/><path data-name="Path 23" d="M162.22 0a69.409 69.409 0 00-46.238 17.57 69.662 69.662 0 00-95.562 2.887 69.767 69.767 0 0095.562 101.585A69.78 69.78 0 10162.22 0zm-59.528 101.236q6.5-1.418 12.991-2.538a71.811 71.811 0 0012.592 22.845c-2.24.547-4.479 1.195-6.669 1.891a67.777 67.777 0 01-18.914-22.198zm18.913-85.11c2.19.7 4.43 1.294 6.669 1.891a69.643 69.643 0 00-11.149 19.063 248.834 248.834 0 01-12.045-2.837 66.716 66.716 0 0116.526-18.117zm40.614 121h-1.294c-1.742-1.842-3.832-7.316-5.574-18.366a126.473 126.473 0 0113.737 0c-1.742 11.1-3.832 16.524-5.574 18.366zm-4.828-.149c-5.873-2.14-11.2-8.163-15.429-16.873 4.032-.6 8.113-1 12.194-1.244 1.344 8.611 3.086 15.18 5.226 18.266-.646-.104-1.343-.104-1.99-.153zm-5.724-.7a45.961 45.961 0 01-21.2-14.036c3.384-.8 6.869-1.493 10.3-2.041 3.783 7.864 8.312 13.438 13.239 16.375a16.659 16.659 0 01-2.338-.299zm-28.868-11.945a99.784 99.784 0 016.321-1.742 50.925 50.925 0 0015.38 12.194 68.462 68.462 0 01-21.7-10.453zM162.22 2.439h1.294c1.742 1.842 3.832 7.316 5.574 18.366a126.473 126.473 0 01-13.737 0c1.742-11.1 3.832-16.574 5.574-18.366zm4.828.149c5.873 2.14 11.2 8.163 15.429 16.873-4.032.6-8.113 1-12.194 1.244-1.344-8.611-3.086-15.18-5.226-18.266.696.099 1.343.099 1.99.149zm5.674.647c7.914 2.339 15.18 7.217 21.3 14.036-3.384.8-6.869 1.493-10.3 2.041-3.783-7.864-8.312-13.438-13.239-16.375zm-20.8 38.175c-5.624-.249-11.2-.747-16.773-1.394a93.1 93.1 0 016.271-19.361c4.131.647 8.312 1.045 12.543 1.294-.852 5.774-1.549 12.394-2.046 19.461zm3.28-19.41a132.966 132.966 0 0014.085 0c.846 5.774 1.543 12.343 2.041 19.461q-9.108.373-18.217 0c.498-7.118 1.195-13.688 2.091-19.461zm-3.335 20.6a419.46 419.46 0 00-.846 26.578h-18.864a144.874 144.874 0 012.787-28.022c5.575.702 11.249 1.15 16.923 1.444zm-.9 27.773c0 7.864.249 15.828.7 23.393-5.823.2-11.6.647-17.37 1.195a147.427 147.427 0 01-2.14-24.637h18.814zm.747 24.587c.5 8.262 1.244 15.977 2.24 22.646-4.181.249-8.362.7-12.543 1.294a99.683 99.683 0 01-6.968-22.746 342.62 342.62 0 0117.275-1.189zm1.195-.05q9.332-.3 18.665 0c-.5 8.362-1.294 16.027-2.29 22.6a132.964 132.964 0 00-14.085 0c-.993-6.568-1.789-14.233-2.287-22.595zm-.1-1.195c-.448-7.366-.647-15.28-.647-23.343h20.108c0 8.113-.249 15.977-.647 23.343q-9.403-.293-18.81.006zm-.647-24.538c0-9.258.3-18.266.846-26.529a227.1 227.1 0 0018.416 0c.548 8.262.846 17.271.846 26.529zm18.366-47.234c4.231-.249 8.362-.7 12.543-1.294a96.142 96.142 0 016.271 19.361c-5.574.7-11.149 1.145-16.773 1.394-.544-7.061-1.191-13.681-2.038-19.455zM159.383 2.489c-2.14 3.086-3.882 9.656-5.226 18.266-4.081-.249-8.163-.647-12.194-1.244 4.231-8.71 9.556-14.733 15.429-16.873.647-.1 1.344-.1 1.991-.149zm-5.425.448c-4.927 2.937-9.457 8.511-13.239 16.375a138.704 138.704 0 01-10.3-2.041 46.35 46.35 0 0121.2-14.036c.795-.099 1.542-.199 2.338-.298zm-9.407 1.842a50.169 50.169 0 00-15.38 12.194c-2.14-.547-4.231-1.095-6.321-1.742a66.44 66.44 0 0121.7-10.453zm-14.982 13.537c3.534.846 7.068 1.593 10.651 2.14-.1.2-.149.348-.249.547a96.439 96.439 0 00-6.022 18.864c-5.226-.647-10.452-1.543-15.678-2.538a68.232 68.232 0 0111.298-19.013zm4.131 22.7a144.543 144.543 0 00-2.787 28.171h-18.714a87.142 87.142 0 015.626-30.763c5.274 1.045 10.55 1.941 15.875 2.588zm-2.787 29.366a145.753 145.753 0 002.14 24.737q-8.287.9-16.574 2.24a88.787 88.787 0 01-4.28-26.976zm2.339 25.931a102.044 102.044 0 006.669 22.3c.1.2.149.348.249.547-3.584.6-7.117 1.294-10.651 2.14a69.927 69.927 0 01-12.642-22.746c5.425-.954 10.9-1.698 16.375-2.245zm31.8 40.763c2.14-3.086 3.882-9.656 5.226-18.266 4.081.249 8.163.647 12.194 1.244-4.231 8.71-9.556 14.733-15.429 16.873-.643.095-1.29.095-1.986.145zm5.425-.448c4.927-2.937 9.457-8.511 13.239-16.375 3.484.547 6.918 1.244 10.3 2.041l-1.941 2.09a44.6 44.6 0 01-19.162 11.9c-.788.141-1.588.241-2.431.34zm12.548-17.723c-4.131-.647-8.312-1.045-12.543-1.294 1-6.62 1.742-14.384 2.24-22.646 5.774.2 11.5.6 17.271 1.195a94.254 94.254 0 01-6.968 22.745zm-10.2-25.134c.448-7.565.647-15.529.7-23.393h18.864a147.9 147.9 0 01-2.14 24.637 292.97 292.97 0 00-17.424-1.244zm.647-24.587c0-8.959-.3-18.067-.846-26.578 5.674-.249 11.3-.747 16.922-1.443a144.469 144.469 0 012.787 28.022zm17.271-28.171c5.326-.7 10.6-1.543 15.877-2.588a86.444 86.444 0 014.679 18.217 94.75 94.75 0 01.946 12.543h-18.72a141.167 141.167 0 00-2.786-28.173zm-.249-1.145A93.206 93.206 0 00184.468 21c-.1-.2-.149-.348-.249-.547 3.584-.6 7.167-1.294 10.651-2.14a68.12 68.12 0 0111.248 19.013 259.442 259.442 0 01-15.628 2.541zm-10.6-35.089a66.175 66.175 0 0121.75 10.452c-2.09.647-4.181 1.195-6.321 1.742a50.349 50.349 0 00-15.434-12.195zm-75.5 30.51a217.7 217.7 0 0012.244 2.887 88.754 88.754 0 00-5.624 31.008H94.878a67.085 67.085 0 019.506-33.896zm6.62 35.089a90.1 90.1 0 004.28 27.176c-4.43.747-8.81 1.642-13.19 2.588a67.209 67.209 0 01-7.279-29.764zm69.084 64.355a48.767 48.767 0 0012.841-9.506 60.276 60.276 0 002.439-2.588c2.14.548 4.231 1.095 6.321 1.742a68.791 68.791 0 01-21.611 10.352zm14.832-13.488c-3.534-.846-7.068-1.593-10.7-2.14.1-.2.149-.348.249-.547a97.845 97.845 0 006.669-22.3c5.475.6 10.95 1.294 16.375 2.24a69.945 69.945 0 01-12.603 22.747zm-3.534-26.13a145.753 145.753 0 002.14-24.737h18.714a91.545 91.545 0 01-2.24 19.66 72.219 72.219 0 01-2.041 7.316q-8.221-1.344-16.583-2.24zm19.759-4.778a91.208 91.208 0 002.29-19.959h16.126a66.546 66.546 0 01-7.267 29.764c-4.38-.946-8.76-1.842-13.19-2.588a70.388 70.388 0 002.031-7.218zm2.29-21.153a97.026 97.026 0 00-.946-12.692 87.375 87.375 0 00-4.679-18.316 217.7 217.7 0 0012.244-2.887 67.086 67.086 0 019.506 33.895zm5.973-34.94a248.834 248.834 0 01-12.045 2.837 69.022 69.022 0 00-11.2-19.063c2.24-.547 4.479-1.195 6.669-1.891a67.7 67.7 0 0116.566 18.116zm-197.3 83.169a67.5 67.5 0 010-95.264 67.346 67.346 0 0192.078-2.937 69.7 69.7 0 00-9.407 90.187c-.4.348-.846.7-1.244 1.045-.647.548-1.344 1.045-1.991 1.543a47.2 47.2 0 01-4.231 2.737 50.29 50.29 0 01-9.108 4.181 54.208 54.208 0 01-9.706 2.389l-1.244.2-1.244.149-1.244.149-1.244.05-1.244.1h-2.496l-1.244-.05-1.244-.05a10.481 10.481 0 01-1.244-.1l-1.244-.1c-.4-.05-.846-.1-1.244-.149l-1.244-.149c-.4-.05-.8-.149-1.244-.2l-1.244-.2a10.2 10.2 0 01-1.195-.249l-1.195-.249-1.195-.3c-.8-.2-1.593-.448-2.389-.7s-1.593-.5-2.339-.8c-.8-.3-1.543-.548-2.339-.9a53.906 53.906 0 01-16.624-10.85 50.808 50.808 0 01-11.549-16.261 53.848 53.848 0 01-4.828-19.511h-.3a52.985 52.985 0 004.081 19.959 56.143 56.143 0 0011.35 17.117 53.928 53.928 0 0016.972 11.7c.8.348 1.593.647 2.389 1a23.633 23.633 0 002.439.846c.8.3 1.642.5 2.489.747.4.1.846.249 1.244.348l1.294.3a11.852 11.852 0 001.294.249l1.294.2c.448.05.846.149 1.294.2l1.294.149c.448.05.846.1 1.294.149l1.294.1a11.324 11.324 0 011.294.1h2.588l1.294-.05 1.294-.05 1.294-.1 1.294-.1 1.294-.2 1.294-.2 1.294-.249a58.157 58.157 0 009.956-2.839 59.3 59.3 0 009.208-4.679c1.443-.9 2.837-1.891 4.231-2.937.647-.548 1.344-1.045 1.991-1.593l1.195-1a71.231 71.231 0 008.81 10.153 67.6 67.6 0 01-92.13-3.032zm180.772 6.022c-2.19-.7-4.43-1.294-6.669-1.842a72.626 72.626 0 0012.543-22.9q6.5 1.12 12.99 2.538a68.227 68.227 0 01-18.871 22.204z"/></g></svg>