<?xml version="1.0" encoding="UTF-8"?><svg id="Layer_1" xmlns="http://www.w3.org/2000/svg" viewBox="0 0 1660.95 1003.06"><defs><style>.cls-1{fill:#fff;}</style></defs><path class="cls-1" d="m547.18,649.92c42.99,0,73.96-16.64,93.37-46.22l-.46-.46c-4.16.92-8.78,1.39-13.4,1.39-30.97,0-64.25-17.1-90.6-42.99,55.47-20.8,85.05-54.55,85.05-92.91,0-33.74-30.04-59.16-73.5-59.16-73.96,0-119.26,55.93-119.26,123.42,0,71.65,53.62,116.95,118.8,116.95Zm-42.52-224.19c19.87,0,46.69,34.21,46.69,74.42,0,23.58-5.09,42.06-18.03,58.7-27.73-28.66-47.61-67.49-47.61-105.85,0-17.1,6.94-27.27,18.95-27.27Z"/><path class="cls-1" d="m1160.33,0c-126.78,0-242.7,47.38-331,125.35C632.91-46.12,333.45-38.37,146.39,148.7c-195.19,195.18-195.19,512.78,0,707.97,97.59,97.59,225.79,146.39,353.98,146.39,118.5,0,236.99-41.73,331.31-125.12,88,76.75,202.99,123.29,328.64,123.29,276.04,0,500.61-224.57,500.61-500.61S1436.37,0,1160.33,0Zm-429.63,726.63c31.88-7.1,63.98-13.4,96.26-18.9,21.55,63.38,52.67,119.6,90.84,165.25-17.06,4.3-34,9.05-50.82,14.26-56.3-42.82-103.02-97.64-136.28-160.61Zm767.98-317.08c-59.7,0-100.73,36.46-114.32,86.01-.31-70.87-7.25-139.39-20.16-202.02,38.53-4.9,76.9-11.19,115.03-18.86,15.57,40.64,27.1,84.77,33.82,131.52.21,1.46.4,2.94.6,4.41-4.78-.7-9.78-1.07-14.97-1.07Zm3.7,90.6c0,23.58-5.09,42.06-18.03,58.7-27.73-28.66-47.61-67.49-47.61-105.85,0-17.1,6.94-27.27,18.95-27.27,19.87,0,46.69,34.21,46.69,74.42Zm-125.4.46c0,64.18-5.5,125.52-15.49,181.73-.49-.05-.97-.1-1.46-.15.14-1.8.22-3.62.22-5.47,0-39.18-27.51-58.23-84.11-58.23h-53.16c-20.13,0-34.39-4.81-42.36-14.31-5.92-7.05-8.12-16.39-6.53-27.77,18.51,11.79,41.28,18.02,65.99,18.02,61.92,0,103.53-37.33,103.53-92.9,0-28.54-10.21-52.87-28.91-69.23,19.48,5.55,43.92,17.62,61.54,27.78.49,13.36.74,26.88.74,40.52Zm-198.16,485.18c8.2-10.87,15.82-29.43,23.01-55.96,5.8-21.4,11.13-47.61,15.86-77.74,29.83,1.72,59.5,4.78,88.92,9.18-31.52,65.29-71.59,109.83-115.94,123.93-3.94.24-7.89.44-11.86.59Zm-18.49.35c-2.72,0-5.44-.03-8.15-.08-10.27-9.24-26.81-39.4-41.78-134.37,16.6-.83,33.24-1.26,49.93-1.26s33.37.43,49.99,1.26c-12.89,82.08-28.53,122.41-41.66,134.37-2.77.05-5.55.08-8.33.08Zm-229.16-108.82c24.9-5.95,50.04-10.92,75.35-14.9,28.39,59.46,62.69,100.6,100.01,120.75-4.2-.47-8.38-.98-12.55-1.55-61.08-15.59-116.77-52.28-162.81-104.29Zm114.18,95.06c-62.61-15.26-120.5-42.69-171.02-79.64,16.16-4.91,32.44-9.41,48.82-13.47,35.56,40.92,76.94,72.83,122.19,93.11Zm-247.71-546.18c-2.7,24.28-4.11,49.13-4.11,74.42,0,47.61,4.97,93.67,14.25,137.29h-37.8v-211.71h27.66Zm-27.66-7.4v-64.71c0-29.58,1.39-44.84,7.4-47.15,5.97-2.29,20.6,20.95,33.94,40.74-5.51,23.02-9.82,46.78-12.81,71.12h-28.53Zm30.95,81.81c0-25.29,1.42-50.15,4.15-74.42h24.53v-7.4h-23.65c2.66-21.46,6.36-42.45,11.01-62.88l32.05,46.7h.46l12.48-90.14c-9.1-4.02-19.57-7.26-30.37-9.6,3.11-9.56,6.44-18.95,9.98-28.17,38.09,7.66,76.41,13.93,114.89,18.83-7.62,36.96-13.15,75.96-16.48,116.3l-112.69,39.46,26.35,22.65v99.38c0,55.01,18.03,79.04,59.63,79.04,10.56,0,21.19-3.08,32.15-8.22,1.84,13.86,3.95,27.52,6.33,40.94-40.14,4.22-80.11,9.66-119.82,16.29-19.92-60.77-31-128.04-31-198.78Zm308.34,343.72c-7.22-47.71-12.76-103.23-16.44-163.6,15.14-.51,30.29-.85,45.45-1.02,1.51,2.37,3.2,4.59,5.09,6.66-18.77,7.68-29.48,20.08-29.48,34.27,0,29.85,33.56,44.36,102.6,44.36,1.56,0,3.11-.02,4.65-.04-2.94,29.82-6.21,56.18-9.7,79.37-16.99-.87-34.04-1.31-51.12-1.31s-34.09.44-51.06,1.31Zm101.03-694.8c-16.61.83-33.27,1.26-49.97,1.26s-33.33-.43-49.93-1.26c14.97-94.98,31.52-125.13,41.78-134.37,2.71-.04,5.42-.08,8.14-.08,2.85,0,5.7.03,8.54.08,14.63,13.26,29.61,59.8,41.43,134.36Zm79.72,409.78c0,12.06-5.9,18.97-16.2,18.97-15.42,0-33.54-20.19-57.04-63.53-19.32-35.75-27.56-57.4-27.56-72.38,0-11.17,6.85-18.97,16.65-18.97,14.63,0,31.55,19,56.58,63.55,18.29,32.66,27.56,57,27.56,72.36Zm16.18,162.71c0,16.08-27.42,28.67-62.42,28.67-48.55,0-81.31-20.49-92.76-57.82,13.19,9.52,32.23,14.34,56.71,14.34h49.92c33.58,0,48.55,4.57,48.55,14.81Zm-171.95-220.95c0,28.68,11.56,53.45,32.59,69.94-26.07,26.81-37.22,49.37-37.22,75.2,0,9.85,1.62,18.58,4.82,26.13-14.02.18-28.03.51-42.04.99-.54-9.24-1.03-18.59-1.48-28.04h20.66v-7.4h-21c-.91-20.3-1.62-41.03-2.11-62.1v-150.38c.98-41.68,2.79-82.04,5.35-120.3,22.16.92,44.33,1.38,66.51,1.38s44.38-.46,66.55-1.38c2.14,32.16,3.8,66.67,4.87,103.36-58.73,3.59-97.5,39.89-97.5,92.6Zm26.09-201.99c-22.01,0-44.02-.46-66.01-1.36,3.62-51.59,8.64-99.19,14.95-140.84,16.97.86,33.99,1.31,51.06,1.31s34.12-.44,51.11-1.31c6.03,39.68,11.17,86.87,14.93,140.84-22,.91-44.02,1.36-66.04,1.36Zm-18.24-283.66c-18.35,24.26-31.06,82.41-39.12,133.71-29.83-1.72-59.49-4.78-88.91-9.18,31.52-65.29,71.6-109.84,115.94-123.93,4.02-.25,8.05-.45,12.09-.6Zm-40.25,141.06c-6.29,41.71-11.3,89.33-14.92,140.9-40.61-1.86-81.15-5.27-121.52-10.2,11.36-52.71,26.78-100.16,45.35-140.25,30.14,4.57,60.53,7.76,91.09,9.54Zm-15.42,148.29c-2.21,32.97-3.85,67.48-4.89,103.04l-111.85,39.17,26.35,22.65v132.66c-7.86,2.78-16.18,4.63-23.58,4.63-23.11,0-26.35-15.25-26.35-54.08v-125.2c3.12-46.88,9.19-91.61,17.77-133.19,40.71,4.99,81.6,8.43,122.56,10.32Zm-90.4,304.92v35.59h87.48c.45,9.54.95,18.98,1.49,28.31-42.06,1.59-84.03,4.5-125.81,8.73-2.53-14.26-4.78-28.85-6.72-43.74,13.77-7.42,28.13-17.68,43.56-28.9Zm89.41,71.3c3.67,60.37,9.2,115.93,16.41,163.73-30.57,1.78-60.96,4.97-91.1,9.54-21.39-46.18-38.6-102.12-50.24-164.63,41.49-4.19,83.16-7.07,124.92-8.65Zm233.06-265.66c-4.98,2.69-10.09,5.44-15.49,8.34-16.7-10.29-37.39-15.5-61.53-15.5-.78,0-1.55.01-2.32.02-1.03-34.6-2.69-69.45-4.98-103.42,40.99-1.88,81.9-5.32,122.64-10.32,6.09,29.51,10.92,60.6,14.32,92.93-20.23,10.48-36,18.98-52.63,27.94Zm-84.83-117.94c-3.55-50.4-8.49-98.62-14.81-140.91,30.56-1.78,60.94-4.97,91.07-9.54,18.57,40.09,33.99,87.53,45.35,140.25-40.4,4.94-80.97,8.34-121.61,10.2Zm-15.93-148.26c-9.87-63.38-22.93-112.41-39.09-133.71,4.02.15,8.04.35,12.03.6,44.35,14.1,84.42,58.64,115.95,123.93-29.41,4.39-59.06,7.45-88.89,9.18Zm-172.39-120.29c-45.25,20.28-86.63,52.19-122.19,93.11-16.38-4.06-32.66-8.56-48.82-13.47,50.52-36.94,108.4-64.38,171.01-79.64Zm48.66-9.24c4.16-.57,8.33-1.09,12.52-1.55-37.31,20.14-71.61,61.28-100,120.75-25.32-3.98-50.45-8.95-75.35-14.9,46.04-52.02,101.74-88.71,162.83-104.3Zm-90.75,126.17c-.71,1.54-1.41,3.1-2.11,4.67-17.97,40.2-32.45,86.09-43.15,135.83-38.07-4.83-75.99-11.03-113.68-18.57,20.87-52.3,48.55-98.87,81.4-137.5,25.62,6.23,51.49,11.42,77.55,15.58Zm-50.19,544.62c10.99,59.23,27.19,113.64,48.07,160.37.7,1.57,1.41,3.12,2.12,4.67-26.06,4.16-51.93,9.35-77.55,15.58-38.4-45.16-69.73-101.18-91.4-164.52,39.36-6.56,78.97-11.93,118.76-16.1Zm176.91,294.79c-44.34-14.1-84.41-58.64-115.93-123.93,29.42-4.4,59.08-7.46,88.92-9.18,12.41,79.07,26.52,117.03,39.21,133.71-4.08-.15-8.14-.35-12.19-.6Zm88.84-140.46c3.68-24.39,6.96-51.19,9.8-79.97,72.32-2.91,122.26-31.95,130.43-75.22.37.04.74.08,1.1.11-11.63,62.51-28.85,118.45-50.24,164.63-30.14-4.57-60.53-7.76-91.1-9.54Zm143.84-558.46c-10.7-49.74-25.18-95.63-43.15-135.83-.7-1.57-1.41-3.12-2.11-4.67,26.08-4.16,51.97-9.36,77.62-15.59,32.79,38.46,60.52,84.95,81.46,137.49-37.73,7.56-75.7,13.76-113.81,18.6Zm-48.53-147.47c-28.38-59.46-62.69-100.6-100-120.75,4.06.45,8.11.95,12.15,1.5,60.86,15.49,116.86,52.04,163.26,104.33-24.92,5.96-50.07,10.93-75.41,14.91Zm-39.09-110.02c62.71,15.25,120.7,42.7,171.29,79.7-16.13,4.9-32.37,9.39-48.71,13.44-35.8-41.09-77.37-72.94-122.58-93.14Zm-408.07,85.19c16.82,5.21,33.76,9.97,50.82,14.26-32.6,38.99-60.06,85.69-80.8,137.98-29.98-6.15-59.8-13.14-89.44-21,31.49-50.71,72.06-95.22,119.42-131.24Zm-123.44,137.84c30.06,8.01,60.32,15.14,90.73,21.4-3.53,9.25-6.85,18.66-9.96,28.23-10.45-1.85-21.01-2.83-30.76-2.83-38.46,0-70.94,12.81-91.66,42.01,10.91-31.17,24.91-60.9,41.64-88.82Zm65.73,393.48v-.59c4.29,19.15,9.42,37.82,15.32,55.92-32.66,5.59-65.15,11.99-97.41,19.2-12.09-23.79-22.28-48.7-30.36-74.54h112.45Zm467.24,326.79c36.93-16.66,71.84-41.4,103.71-73.76,5.99-6.08,11.83-12.42,17.53-18.99,16.3,4.05,32.5,8.52,48.58,13.41-50.2,36.71-107.67,64.03-169.82,79.34Zm98.43-78.96c-44.22,44.91-94.38,74.79-147.62,88.4-4.38.61-8.77,1.15-13.19,1.64,37.31-20.14,71.62-61.28,100-120.75,25.36,3.99,50.54,8.97,75.48,14.93-4.79,5.42-9.68,10.7-14.68,15.78Zm-57.54-37.68c.71-1.54,1.41-3.1,2.11-4.67,20.89-46.74,37.09-101.14,48.07-160.37,39.79,4.17,79.41,9.54,118.78,16.1-21.47,62.62-52.77,119.12-91.29,164.55-25.66-6.24-51.57-11.44-77.67-15.61Zm51.5-172.35c6.82-38.52,11.47-79,13.78-120.68,12.54,54.39,59.81,87.5,115.53,87.5,1.51,0,2.99-.03,4.47-.07-3.96,16.85-8.61,33.39-13.92,49.54-39.73-6.64-79.71-12.08-119.86-16.3Zm141.48-33.65c36.72-2.88,63.67-19.04,81.2-45.75l-.46-.46c-4.16.92-8.78,1.39-13.4,1.39-30.97,0-64.25-17.1-90.6-42.99,55.47-20.8,85.05-54.55,85.05-92.91,0-27.49-19.95-49.46-50.85-56.65-.31-2.31-.62-4.62-.95-6.91-6.73-46.87-18.26-91.14-33.81-131.97,30.36-6.25,60.56-13.38,90.56-21.37,43.63,72.81,68.73,157.93,68.73,248.8,0,78.83-18.89,153.33-52.37,219.22-32.24-7.21-64.7-13.61-97.34-19.19,5.45-16.69,10.22-33.78,14.25-51.19Zm62.72-404.23c-29.58,7.84-59.35,14.82-89.26,20.96-20.8-52.53-48.31-99.15-80.85-137.97,17.01-4.29,33.91-9.03,50.69-14.23,47.36,36.02,87.93,80.53,119.42,131.24ZM157.06,846c-189.3-189.31-189.3-497.33,0-686.64C251.71,64.71,376.04,17.38,500.38,17.38c113.43,0,226.84,39.41,317.74,118.19-97.43,91.39-158.39,221.23-158.39,365.04,0,102.04,30.69,197.04,83.32,276.27-3.48,3.02-6.99,5.99-10.5,8.96-4.46,3.66-9.15,7.04-13.71,10.57-9.39,6.72-19.02,13.07-28.99,18.86-19.88,11.64-40.85,21.35-62.55,28.86-21.69,7.52-44.03,13.01-66.65,16.41-22.63,3.3-45.5,4.72-68.31,4.02l-8.55-.28c-2.85-.16-5.68-.44-8.53-.66l-8.52-.69c-2.84-.27-5.66-.71-8.49-1.05l-8.49-1.02c-2.83-.36-5.62-.92-8.44-1.37l-8.43-1.42c-2.81-.48-5.57-1.18-8.36-1.76-5.57-1.2-11.14-2.38-16.62-3.98-5.51-1.47-11.01-2.93-16.42-4.73-5.43-1.72-10.91-3.31-16.22-5.39-5.34-2-10.75-3.82-15.95-6.16-42.15-17.39-81.22-42.65-114.14-74.61-33.48-31.4-60.45-69.77-79.46-111.78-.67-1.44-1.3-2.9-1.94-4.34h93.1v-7.4h-39.29v-145.14l88.29,152.54h131.74v-7.4h-22.19l-98.45-155.78c48.07-12.94,75.34-41.14,75.34-86.9,0-55.47-52.23-82.74-143.29-82.74H74.76l41.14,24.96v300.46h-36.98v7.4h76.56c.97,2.51,1.96,5.01,2.99,7.5,18.19,43.53,45.07,83.33,77.86,117.56,33.22,33.83,73.05,61.42,116.75,80.41,5.4,2.53,11.02,4.53,16.56,6.71,5.52,2.26,11.21,4.04,16.86,5.92,5.62,2.01,11.41,3.44,17.17,5,5.73,1.66,11.56,2.9,17.39,4.15,2.92.6,5.81,1.34,8.75,1.83l8.82,1.49c2.94.47,5.87,1.04,8.83,1.42l8.88,1.06c2.96.32,5.92.7,8.88.94l8.92.56c2.97.17,5.94.4,8.92.52l8.93.13c23.81.33,47.65-1.62,71-6.05,23.36-4.33,46.27-10.93,68.28-19.67,22-8.75,43.17-19.47,63.12-32.08,10-6.28,19.6-13.13,28.96-20.29,4.6-3.68,9.32-7.2,13.81-11.01l9.9-8.6c21.23,31,45.86,59.5,73.34,84.97-190.49,167.19-481.6,159.95-663.34-21.78Zm60.54-362.03v-164.09h14.79c36.06,0,53.62,29.58,53.62,76.27,0,57.32-11.56,84.59-68.42,87.82Zm1236.1,403.28c-16.74-5.19-33.61-9.93-50.59-14.21,38.27-45.92,69.33-102.63,90.67-165.3,32.25,5.5,64.34,11.8,96.2,18.89-33.26,62.97-79.98,117.79-136.28,160.61Z"/><path class="cls-1" d="m376.8,289.4c23.2,0,42.01-33.44,42.01-74.7s-18.81-74.7-42.01-74.7-42.01,33.44-42.01,74.7,18.81,74.7,42.01,74.7Z"/><path class="cls-1" d="m625.02,289.4c23.2,0,42.01-33.44,42.01-74.7s-18.81-74.7-42.01-74.7-42.01,33.44-42.01,74.7,18.81,74.7,42.01,74.7Z"/></svg>