<svg width="128" height="128" viewBox="0 0 128 128" fill="none" xmlns="http://www.w3.org/2000/svg">
<path fill-rule="evenodd" clip-rule="evenodd" d="M64 84C57.458 84 51.655 80.856 48.006 76H56C56.552 76 57 75.552 57 75C57 74.447 56.552 74 56 74H46C45.448 74 45 74.447 45 75V85C45 85.552 45.448 86 46 86C46.552 86 47 85.552 47 85V77.93C51.032 82.851 57.142 86 64 86C76.15 86 86 76.15 86 64C86 63.447 85.552 63 85 63C84.448 63 84 63.447 84 64C84 75.045 75.046 84 64 84M43 65C43.552 65 44 64.552 44 64C44 52.954 52.954 44 64 44C70.542 44 76.345 47.144 79.994 52H72C71.448 52 71 52.447 71 53C71 53.552 71.448 54 72 54H82C82.552 54 83 53.552 83 53V43C83 42.447 82.552 42 82 42C81.448 42 81 42.447 81 43V50.069C76.968 45.148 70.858 42 64 42C51.85 42 42 51.85 42 64C42 64.552 42.448 65 43 65" fill="black"/>
<path d="M35.6899 25.6544L43.6642 20.7535L42.5123 18.8791L36.6679 22.4711L30.4893 12.418L28.3594 13.727L35.6899 25.6544Z" fill="#2B2E34"/>
<path d="M48.8437 19.7194C51.8018 18.7277 53.1441 15.9362 52.1969 13.1108C51.2496 10.2853 48.4959 8.86707 45.5378 9.85884C42.5606 10.857 41.2183 13.6484 42.1656 16.4739C43.1129 19.2993 45.8665 20.7175 48.8437 19.7194ZM48.2016 17.8042C46.5897 18.3446 44.9758 17.6833 44.3274 15.7491C43.6789 13.8149 44.5681 12.3145 46.1799 11.7741C47.7917 11.2337 49.3867 11.9013 50.0351 13.8355C50.6836 15.7697 49.8134 17.2638 48.2016 17.8042Z" fill="#2B2E34"/>
<path d="M57.9776 18.086C59.347 17.9155 60.3521 17.0849 61.0223 16.155L61.0819 16.1476C61.5948 17.1922 62.4927 17.4432 63.366 17.3345C63.7431 17.2875 64.1152 17.2009 64.5916 16.9803L64.389 15.3529L64.3245 15.3206C64.1508 15.3825 64.0342 15.4172 63.8953 15.4345C63.3594 15.5012 63.057 15.1761 62.9779 14.541L62.4713 10.4724C62.2069 8.34882 60.3841 7.30604 58.0224 7.60008C56.0774 7.84224 54.4966 9.06693 54.3814 11.2176L54.4905 11.2847L56.4677 11.1393C56.5228 10.1247 57.1557 9.54205 58.1678 9.41602C59.2991 9.27518 60.1374 9.69482 60.2708 10.7666L60.3375 11.3024L57.4968 11.9584C55.5368 12.404 54.219 13.6362 54.4537 15.5217C54.6811 17.3476 56.2112 18.3059 57.9776 18.086ZM58.1645 16.1883C57.3707 16.2872 56.7035 15.947 56.6022 15.1333C56.5133 14.4188 56.9576 13.779 57.9922 13.5091L60.5352 12.8902L60.7156 14.339C60.0354 15.3508 59.276 16.0499 58.1645 16.1883Z" fill="#2B2E34"/>
<path d="M68.6272 17.0628C70.1203 17.2059 71.173 16.7041 71.875 16.0882L71.7719 17.1633L74.0415 17.3808L75.4343 2.84738L73.1647 2.62988L72.6362 8.14462C71.9465 7.37531 70.9333 6.8362 69.679 6.716C67.1307 6.47179 64.7652 8.09353 64.4447 11.4382C64.1241 14.7829 66.2978 16.8396 68.6272 17.0628ZM69.2721 15.1557C67.6993 15.0049 66.5243 13.8476 66.7342 11.6576C66.944 9.46765 68.3174 8.55449 69.8703 8.70331C71.3436 8.8445 72.455 10.036 72.3176 11.4694L72.1783 12.9227C72.0409 14.3562 70.7254 15.2949 69.2721 15.1557Z" fill="#2B2E34"/>
<path d="M78.4929 18.9686L80.5418 19.9689L83.4901 13.9302C84.3351 13.4303 85.3256 13.1794 86.1343 13.5742C87.033 14.013 87.1384 14.7544 86.7172 15.6171L83.8127 21.5659L85.8616 22.5662L88.8713 16.4017C89.7519 15.8746 90.6095 15.7592 91.4182 16.154C92.3168 16.5927 92.4669 17.3337 92.0545 18.1784L89.1326 24.1632L91.1814 25.1635L94.3578 18.6576C95.13 17.076 94.7399 15.5501 92.8888 14.6463C91.7745 14.1023 90.5846 14.0778 89.3363 14.4921C89.3178 13.4815 88.863 12.6808 87.7127 12.1192C86.6164 11.584 85.4897 11.6125 84.4114 12.0431L84.9291 10.9827L82.8803 9.98243L78.4929 18.9686Z" fill="#2B2E34"/>
<path d="M95.4173 28.9137C97.7621 30.9719 100.85 30.7284 102.816 28.4889C104.782 26.2493 104.623 23.1559 102.278 21.0977C99.9183 19.0263 96.8304 19.2698 94.8645 21.5093C92.8987 23.7489 93.0575 26.8423 95.4173 28.9137ZM96.7499 27.3956C95.4723 26.2741 95.2323 24.5466 96.578 23.0134C97.9238 21.4803 99.6679 21.4943 100.946 22.6158C102.223 23.7373 102.448 25.4516 101.102 26.9848C99.7565 28.5179 98.0275 28.5171 96.7499 27.3956Z" fill="#2B2E34"/>
<path d="M100.04 33.4442L101.423 35.2567L106.464 31.4107C107.81 31.1635 108.913 31.5544 109.58 32.4289C109.774 32.6833 109.868 32.8385 109.933 32.99L110.029 33.0172L111.674 32.1395C111.632 31.9198 111.498 31.6449 111.279 31.3587C110.527 30.3729 109.42 30.0101 108.387 29.9427L109.373 29.1905L107.99 27.3779L100.04 33.4442Z" fill="#2B2E34"/>
<path d="M105.9 42.537C107.071 44.6777 108.945 45.5216 111.218 45.0082L111.277 44.9076L110.422 43.0953C109.32 43.2881 108.302 42.887 107.621 41.6412C106.853 40.2374 107.193 38.7749 108.584 37.9002L112.26 44.6207L112.874 44.2848C115.699 42.7397 116.387 40.0382 115.024 37.5465C113.748 35.2128 110.8 34.1579 108.063 35.655C105.325 37.1522 104.46 39.905 105.9 42.537ZM110.06 37.1388C111.475 36.6838 112.74 37.2458 113.392 38.439C114.083 39.7024 113.911 41.0961 112.68 41.9291L110.06 37.1388Z" fill="#2B2E34"/>
<path d="M108.547 48.5109C108.834 49.3004 109.756 49.7311 110.565 49.4372C111.354 49.1502 111.785 48.2275 111.498 47.4381C111.204 46.6299 110.281 46.1992 109.492 46.4862C108.684 46.78 108.253 47.7027 108.547 48.5109Z" fill="#2B2E34"/>
<path d="M109.572 52.6088C109.779 53.423 110.653 53.9441 111.487 53.7329C112.301 53.5266 112.822 52.6518 112.616 51.8375C112.405 51.0039 111.53 50.4828 110.716 50.6891C109.882 50.9003 109.361 51.7751 109.572 52.6088Z" fill="#2B2E34"/>
<path d="M110.585 56.6819C110.73 57.5093 111.564 58.0943 112.411 57.9459C113.238 57.801 113.823 56.9676 113.678 56.1402C113.53 55.2931 112.697 54.7081 111.869 54.853C111.022 55.0013 110.437 55.8347 110.585 56.6819Z" fill="#2B2E34"/>
</svg>
