<svg width="332" height="332" fill="none" xmlns="http://www.w3.org/2000/svg"><path d="M124.279 300.637c4.736-6.946 10.003-9.766 14.888-8.666l.318.071-5.814 25.817-4.018 1.349 15.808 3.56-3.052-2.941 5.814-25.817 3.178.716.143-.636-24.586-5.536-2.719 12.074.04.009zM110.913 280.924c-6.929-3.438-12.438-.854-15.08 4.471-2.841 5.726-.31 11.526 5.707 14.512 5.945 2.949 12.092.818 14.68-4.397 2.913-5.872-.055-11.98-5.307-14.586zm-4.736-.714c2.991 1.484 3.853 15.592 2.08 19.166-.561 1.131-1.434 1.516-2.346 1.064-3.209-1.593-3.672-16.048-2.152-19.112.615-1.24 1.433-1.606 2.418-1.118zM80.093 261.423l-7.084 8.775c-3.708 4.593-3.427 8.587.565 11.81 3.168 2.557 6.56 3.151 10.658 2.482l-.03-.286c-1.742-.046-3.031-.459-4.457-1.61-2.407-1.943-2.395-4.811.418-8.295 5.72 3.675 10.384 4.248 12.737 1.334 1.61-1.996 1.163-4.293-.896-5.955-1.742-1.407-4.112-1.907-6.624-1.842l1.458-1.806-7.92-6.393-.409.507 1.584 1.279zm5.735 7.35c1.267 1.023 1.261 2.326.06 3.815-1.356 1.679-3.057 2.295-5.392 1.299l4.526-5.607c.337.166.616.339.806.493zM60.054 238.277l-23.43 18.549 9.368 5.929.123-3.058 4.405-3.487c.113 1.52.512 3.074 1.852 4.765 3.462 4.374 9.597 4.449 14.896.254 4.916-3.891 5.645-8.415 3.067-11.671-1.49-1.883-4.175-2.978-7.238-3.305l2.522-1.996-6.318-7.98-.51.404 1.263 1.596zm3.977 9.418c1.693 2.139.287 4.757-3.99 8.144-3.958 3.133-6.904 3.544-8.218 1.884-.43-.542-.725-1.243-.76-1.943l11.587-9.173c.546.295 1.002.609 1.38 1.088zM34.494 235.881c-1.33-2.566-3.706-3.168-6.128-1.912-2.385 1.237-3.262 3.526-1.931 6.092 1.33 2.566 3.706 3.168 6.092 1.931 2.421-1.255 3.298-3.545 1.967-6.111zm22.22-4.643l-5.622-10.843-.579.3.937 1.807-18.215 9.446 8.07 7.602.702-2.978 13.192-6.841.937 1.807.578-.3zM41.061 193.088l-13.431 3.966c-3.983 1.176-5.545 3.505-4.565 6.824.784 2.656 2.975 4.471 5.911 6.363l-3.904 1.153 6.477 8.997 1.256-2.79 14.252-4.209.576 1.952.625-.184-3.344-11.323-.624.184.461 1.562-15.228 4.497c-.582-.678-1.047-1.389-1.278-2.17-.472-1.601.324-2.643 3.37-3.542l11.752-3.471.462 1.562.624-.184-3.343-11.324-.625.185.576 1.952zM16.04 164.805c1.41 2.361 2.686 4.525 4 6.647-.806 1.477-1.181 3.336-1.048 5.49.364 5.892 4.151 9.084 8.621 8.808 2.641-.163 4.687-1.391 5.955-3.305 2.587 2.247 4.595 3.061 6.83 2.923 1.463-.091 2.656-.572 3.495-1.522.756 1.667 1.913 2.574 3.132 2.499 2.56-.158 3.599-3.159 3.23-9.133-.463-7.477-3.78-12.33-8.413-12.043-3.536.218-4.84 2.869-4.549 7.582l.289 4.673c.218 3.536-1.41 4.901-3.752 4.638.959-1.65 1.443-3.72 1.302-5.995-.347-5.608-4.009-8.767-8.6-8.484-2.683.166-4.855 1.32-6.16 3.318.294-1.854 1.393-4.532 2.413-6.513l-.043-.038-6.664.412-.039.043zm17.73 8.368c.076 1.219-1.13 2.844-5.332 5.469-2.906 1.811-4.847 2.747-6.27 2.835-1.137.07-1.833-.621-1.885-1.474-.078-1.26 1.215-2.768 5.334-5.429 2.942-1.895 4.97-2.754 6.27-2.835 1.178-.073 1.825.499 1.883 1.434zm11.453 5.125l-.271-4.388c-.199-3.211.216-4.419 1.15-4.477 1.504-.093 2.795 2.316 2.989 5.445.256 4.144-1.29 7.503-5.01 8.712.867-1.155 1.29-2.894 1.142-5.292zM69.255 65.77c3.885 7.456 3.882 13.43.605 17.217l-.214.246L49.64 65.912l.71-4.179-10.606 12.251 4.033-1.3 20.008 17.32-2.132 2.463.492.426L78.64 73.84l-9.357-8.1-.027.03zM92.944 63.303c6.304-4.483 6.629-10.56 3.184-15.403-3.704-5.21-10.012-5.72-15.487-1.826-5.408 3.846-6.434 10.27-3.06 15.015 3.799 5.342 10.585 5.612 15.363 2.214zm2.867-3.837c-2.721 1.935-15.563-3.97-17.876-7.221-.731-1.03-.658-1.98.171-2.57 2.92-2.076 15.88 4.345 17.862 7.132.802 1.128.738 2.022-.157 2.659zM124.692 45.352l-4.388-10.389c-2.296-5.438-5.949-7.077-10.675-5.082-3.751 1.584-5.877 4.294-7.223 8.222l.266.108c.864-1.514 1.836-2.455 3.524-3.167 2.85-1.204 5.372.162 7.114 4.287-5.941 3.305-8.65 7.145-7.193 10.595.998 2.363 3.234 3.054 5.672 2.024 2.063-.87 3.623-2.723 4.752-4.968l.903 2.138 9.377-3.96-.254-.6-1.875.792zm-9.188 1.582c-1.5.634-2.646.013-3.39-1.75-.84-1.988-.579-3.777 1.402-5.365l2.804 6.638a4.51 4.51 0 01-.816.477zM154.559 38.625L149.28 9.212l-9.652 5.455 2.637 1.554.992 5.53c-1.393-.619-2.951-1.001-5.074-.62-5.49.985-8.456 6.357-7.262 13.01 1.108 6.17 4.75 8.95 8.838 8.216 2.364-.424 4.597-2.273 6.332-4.818l.568 3.166 10.019-1.798-.115-.641-2.004.36zm-10.18-.944c-2.684.482-4.328-1.994-5.292-7.364-.892-4.969.137-7.76 2.221-8.134.681-.122 1.439-.051 2.072.249l2.611 14.546c-.518.341-1.01.595-1.612.703zM168.745 17.23c2.891.039 4.544-1.77 4.582-4.498.036-2.687-1.567-4.541-4.457-4.58-2.891-.04-4.544 1.77-4.581 4.456-.037 2.728 1.566 4.582 4.456 4.622zm-6.405 21.777l12.213.167.009-.652-2.035-.027.28-20.518-10.512 3.521 2.293 2.026-.203 14.86-2.036-.028-.009.65zM203.36 43.234l2.85-13.712c.845-4.066-.47-6.543-3.858-7.247-2.711-.563-5.346.51-8.401 2.204l.828-3.986-10.989 1.459 1.866 2.425-3.024 14.55-1.993-.415-.133.638 11.56 2.403.133-.638-1.595-.332 3.231-15.546c.872-.193 1.719-.266 2.516-.1 1.634.34 2.176 1.533 1.53 4.642l-2.494 11.998-1.594-.33-.133.637 11.56 2.402.133-.637-1.993-.415zM240.108 34.542c-2.746.128-5.257.23-7.747.386-.922-1.408-2.383-2.617-4.344-3.517-5.365-2.463-9.968-.633-11.836 3.437-1.104 2.405-.988 4.788.099 6.81-3.202 1.218-4.868 2.603-5.802 4.639-.612 1.332-.751 2.611-.311 3.8-1.826-.122-3.172.47-3.682 1.58-1.07 2.33 1.085 4.663 6.524 7.16 6.808 3.125 12.653 2.493 14.589-1.725 1.478-3.22-.242-5.621-4.534-7.592l-4.255-1.953c-3.219-1.477-3.653-3.558-2.315-5.497 1.002 1.624 2.597 3.029 4.669 3.98 5.106 2.344 9.621.608 11.54-3.573 1.121-2.442 1.13-4.902-.014-6.995 1.495 1.134 3.337 3.368 4.6 5.203l.054-.02 2.785-6.069-.02-.054zm-15.751 11.675c-1.11-.51-1.973-2.34-2.302-7.284-.223-3.417-.131-5.57.464-6.865.475-1.036 1.413-1.322 2.19-.966 1.147.527 1.865 2.38 2.265 7.267.28 3.488.08 5.68-.464 6.865-.492 1.073-1.302 1.373-2.153.983zm-9.928 7.672l3.996 1.834c2.923 1.342 3.792 2.279 3.402 3.13-.629 1.369-3.361 1.369-6.21.061-3.775-1.732-6.004-4.682-5.313-8.53.609 1.309 1.942 2.503 4.125 3.505zM302.254 128.232c-8.406-.098-13.671-2.923-15.459-7.601l-.117-.304 24.719-9.451 3.347 2.599-5.787-15.135-.759 4.17-24.718 9.451-1.164-3.043-.608.233 9 23.54 11.561-4.421-.015-.038zM293.237 150.276c.973 7.674 6.175 10.831 12.072 10.083 6.341-.804 9.771-6.122 8.926-12.786-.835-6.584-6.013-10.524-11.789-9.791-6.502.824-9.946 6.678-9.209 12.494zm2.028 4.339c-.42-3.312 10.851-11.841 14.809-12.342 1.253-.159 2.056.355 2.184 1.364.451 3.555-11.331 11.943-14.723 12.373-1.374.174-2.132-.304-2.27-1.395zM294.06 186.738l11.229 1.042c5.878.545 9.049-1.901 9.522-7.009.376-4.054-1.008-7.208-3.833-10.25l-.221.184c.926 1.476 1.296 2.778 1.127 4.602-.286 3.081-2.681 4.658-7.14 4.244-.106-6.797-2.211-10.999-5.94-11.345-2.554-.236-4.22 1.408-4.464 4.043-.207 2.23.689 4.48 2.134 6.536l-2.311-.215-.94 10.135.649.06.188-2.027zm2.946-8.844c.15-1.622 1.239-2.339 3.144-2.162 2.149.199 3.603 1.274 4.067 3.771l-7.176-.666a4.518 4.518 0 01-.035-.943zM285.879 216.24l28.418 9.243-.248-11.084-2.615 1.59-5.343-1.738c1.203-.935 2.276-2.128 2.943-4.18 1.726-5.304-1.608-10.455-8.035-12.546-5.962-1.939-10.133-.041-11.417 3.908-.743 2.284-.169 5.125 1.254 7.857l-3.058-.995-3.148 9.679.619.202.63-1.936zm5.641-8.526c.844-2.594 3.803-2.873 8.991-1.185 4.801 1.561 6.774 3.787 6.119 5.8-.214.658-.634 1.292-1.197 1.708l-14.055-4.571c-.056-.617-.047-1.171.142-1.752zM298.034 238.852c-1.4 2.529-.586 4.841 1.8 6.162 2.351 1.302 4.743.765 6.143-1.764 1.4-2.529.586-4.841-1.764-6.143-2.387-1.321-4.778-.784-6.179 1.745zm-16.168-15.934l-5.917 10.685.57.316.986-1.781 17.951 9.94 1.864-10.928-2.87 1.063-13-7.198.986-1.781-.57-.316zM258.762 257.074l10.739 8.99c3.184 2.666 5.989 2.677 8.21.024 1.777-2.123 2.075-4.953 2.026-8.446l3.121 2.613 3.907-10.375-3.019.499-11.395-9.539 1.307-1.56-.5-.419-7.579 9.054.5.418 1.045-1.249 12.176 10.192c-.242.86-.578 1.641-1.1 2.265-1.072 1.28-2.38 1.194-4.815-.844l-9.397-7.867 1.046-1.248-.5-.418-7.579 9.053.5.418 1.307-1.561zM249.061 293.57c1.185-2.481 2.281-4.742 3.32-7.011 1.677-.147 3.432-.864 5.152-2.167 4.705-3.565 5.268-8.486 2.563-12.056-1.598-2.109-3.753-3.133-6.049-3.129.439-3.398.005-5.521-1.347-7.306-.885-1.168-1.948-1.896-3.202-2.069.969-1.552 1.084-3.018.346-3.991-1.549-2.045-4.623-1.248-9.393 2.367-5.971 4.524-8.175 9.974-5.372 13.673 2.139 2.823 5.069 2.443 8.833-.41l3.732-2.827c2.823-2.139 4.862-1.539 5.939.557-1.905.115-3.897.858-5.714 2.235-4.478 3.393-5.081 8.192-2.303 11.859 1.623 2.141 3.787 3.311 6.172 3.291-1.706.782-4.545 1.35-6.758 1.597l-.008.057 4.032 5.322.057.008zm-2.848-19.398c.974-.738 2.994-.634 7.507 1.412 3.117 1.418 4.971 2.516 5.832 3.652.688.908.497 1.87-.184 2.387-1.006.762-2.978.519-7.474-1.438-3.207-1.401-5.045-2.613-5.832-3.651-.713-.941-.595-1.797.151-2.362zm-2.072-12.375l-3.504 2.655c-2.564 1.943-3.8 2.266-4.365 1.52-.91-1.201.381-3.609 2.879-5.502 3.31-2.508 6.964-3.08 10.029-.652-1.442-.083-3.124.528-5.039 1.979z" fill="#000"/></svg>