<svg width="66" height="40" fill="none" xmlns="http://www.w3.org/2000/svg"><path fill-rule="evenodd" clip-rule="evenodd" d="M32.87 5.27A19.765 19.765 0 0145.952.32a19.775 19.775 0 11-13 34.69 19.772 19.772 0 11-.082-29.74zm23.589 12.132a4.486 4.486 0 012.86-.9c.196 0 .391.014.585.042-.007-.028-.01-.059-.014-.09a23.834 23.834 0 00-1.346-5.282c-1.51.313-3.019.558-4.542.749.532 2.627.801 5.301.802 7.982a4.485 4.485 0 011.655-2.5zm2.29 5.001a3.638 3.638 0 00.706-2.325l-.001.001c0-1.59-1.046-2.937-1.835-2.938-.475 0-.747.394-.747 1.074 0 1.523.775 3.06 1.876 4.188zm-4.855 4.868c.412-2.37.617-4.773.612-7.18v.002c0-.176-.002-.354-.004-.532v-.001c-.003-.358-.006-.719.003-1.073a11.53 11.53 0 00-2.434-1.101 3.534 3.534 0 011.142 2.733c0 2.203-1.645 3.672-4.093 3.672a4.871 4.871 0 01-2.611-.708 1.344 1.344 0 00.258 1.102c.313.38.886.57 1.673.57h2.094c2.23 0 3.319.749 3.319 2.299 0 .034-.004.071-.007.109a1.244 1.244 0 00-.007.108h.055zM39.874 34.4c-1.007.15-2 .355-2.979.584a13.09 13.09 0 006.433 4.12l.004.001a5.8 5.8 0 00.485.068c-1.469-.802-2.828-2.42-3.944-4.773zm1.535 4.337a13.962 13.962 0 01-4.813-3.671c-.651.163-1.291.34-1.93.53a18.952 18.952 0 006.744 3.141zM32.014 25.52a26.624 26.624 0 01-.394-8.365h-1.102v8.365h1.496zM30.53 14.313v2.557h1.127c.117-.947.285-1.887.503-2.815a62.255 62.255 0 01-.192-.284c-.472-.699-.949-1.405-1.152-1.321-.232.096-.286.694-.286 1.863zm1.388 2.842c-.11.975-.165 1.956-.164 2.938-.01 2.668.403 5.32 1.224 7.86a78.341 78.341 0 014.732-.64c-.094-.53-.19-1.074-.258-1.618a2.915 2.915 0 01-1.265.327c-1.646 0-2.353-.952-2.353-3.128v-3.916l-1.047-.898 4.447-1.564a39.77 39.77 0 01.652-4.597 73.408 73.408 0 01-4.542-.748l-.022.061c-.128.347-.256.695-.371 1.054.41.086.811.214 1.196.381l-.49 3.563h-.013l-1.264-1.85a25.024 25.024 0 00-.436 2.49h.94v.285h-.966zM43.57 1.061c-.081.01-.162.02-.244.034-2.406.613-4.61 2.068-6.432 4.12.979.232 1.971.421 2.978.585 1.115-2.352 2.475-3.97 3.944-4.773-.082.014-.164.024-.246.034zm-8.92 3.543c.64.19 1.279.366 1.931.53a14.218 14.218 0 014.814-3.672 19.17 19.17 0 00-6.745 3.142zm10.96 34.663h.667c.517-.463 1.142-2.054 1.645-5.303a31.367 31.367 0 00-1.972-.055c-.653 0-1.319.027-1.971.055.448 2.909 1.047 4.773 1.631 5.303zm.34-32.99c.654 0 1.32-.027 1.973-.055-.463-2.937-1.061-4.773-1.632-5.303h-.68c-.585.53-1.17 2.393-1.632 5.303.653.041 1.306.055 1.972.055zm4.489 16.89c.409 0 .639-.273.639-.749 0-.613-.368-1.577-1.102-2.855-.98-1.768-1.645-2.516-2.23-2.516a.68.68 0 00-.653.748c0 .585.326 1.441 1.088 2.855.939 1.714 1.645 2.516 2.258 2.516zm-1.183 6.799c1.372 0 2.46-.49 2.46-1.129 0-.395-.598-.585-1.902-.585h-1.972c-.964 0-1.727-.19-2.244-.57.449 1.468 1.741 2.284 3.658 2.284zm-4.017-8.314a3.428 3.428 0 01-.322-1.532c0-2.08 1.537-3.522 3.848-3.672-.041-1.441-.109-2.815-.19-4.08-.87.042-1.755.055-2.625.055-.884 0-1.768-.014-2.638-.054a117.62 117.62 0 00-.204 4.718v6.024c.014.83.04 1.632.082 2.407h.83v.286h-.816c.013.381.027.748.054 1.116l1.673-.041a2.694 2.694 0 01-.19-1.034c0-1.02.434-1.904 1.468-2.964a3.425 3.425 0 01-.97-1.23zm-1.9-9.569c.871.041 1.742.055 2.612.055.87 0 1.74-.028 2.598-.055-.15-2.135-.34-3.998-.585-5.562-.668.041-1.332.055-2.013.055-.681 0-1.36-.014-2.026-.055a75.908 75.908 0 00-.585 5.562zm.34-5.874c.408-2.53.925-4.447 1.55-5.277-.08 0-.156.004-.234.007-.081.003-.165.007-.255.007-1.754.557-3.332 2.312-4.583 4.895 1.17.177 2.339.3 3.522.368zm-.612 5.861a70.38 70.38 0 01.585-5.561v-.001a44.647 44.647 0 01-3.603-.382 26.456 26.456 0 00-1.796 5.536c1.605.204 3.21.34 4.814.408zm-.23 4.353c.054-1.389.109-2.749.204-4.068a63.913 63.913 0 01-4.841-.394 38.715 38.715 0 00-.708 5.262v4.936c0 1.536.136 2.135 1.047 2.135.316-.009.628-.069.925-.177v-5.248l-1.047-.898 4.42-1.548zm-3.386 9.381v-1.4c-.54.428-1.118.805-1.727 1.128.082.585.177 1.17.272 1.727a87.43 87.43 0 014.977-.34 31.135 31.135 0 00-.026-.53v-.002c-.011-.192-.022-.386-.029-.583h-3.467zm4.202 7.887c-.286-1.89-.504-4.107-.653-6.473a75.027 75.027 0 00-4.937.353 27.975 27.975 0 001.986 6.5 35.557 35.557 0 013.604-.38zm1.59 5.56c-.625-.83-1.156-2.733-1.55-5.276v.002c-1.183.068-2.352.19-3.522.351 1.251 2.584 2.829 4.338 4.583 4.896.163.013.325.027.49.027zm-1.319-5.575a33.45 33.45 0 012.027-.055v.002c.666 0 1.346.014 2.012.067.136-.925.259-1.958.381-3.142h-.177c-2.72 0-4.052-.57-4.052-1.754 0-.573.422-1.06 1.17-1.36a1.217 1.217 0 01-.205-.258c-.408 0-.81.012-1.21.024-.2.006-.4.012-.598.016.15 2.489.38 4.665.652 6.46zm7.656-16.618l.612-.326v.002l.157-.085c.598-.324 1.186-.643 1.924-1.033a37.022 37.022 0 00-.571-3.671 57.56 57.56 0 01-4.841.408c.081 1.346.15 2.72.19 4.093h.095a4.588 4.588 0 012.434.612zM48.263 6.505c.245 1.673.449 3.577.585 5.562v.002a62.949 62.949 0 004.814-.408 26.454 26.454 0 00-1.795-5.535 35.57 35.57 0 01-3.604.38zM46.659.932c.64.843 1.157 2.774 1.55 5.277a42.436 42.436 0 003.508-.354C50.468 3.272 48.89 1.517 47.136.96l-.027-.003c-.153-.013-.294-.025-.449-.025zM39.71 6.168l.041-.096a31.78 31.78 0 01-3.047-.625 19.716 19.716 0 00-3.223 5.44 61.9 61.9 0 004.488.734 27.52 27.52 0 011.7-5.358l.041-.095zm-.042 27.768a28.196 28.196 0 01-1.903-6.337 67.48 67.48 0 00-4.693.64 19.933 19.933 0 003.618 6.5 37.965 37.965 0 013.06-.613l-.041-.095a2.655 2.655 0 01-.041-.095zm7.916 3.128a6.822 6.822 0 01-.912 2.203c.164-.014.313-.014.464-.014 1.754-.557 3.332-2.312 4.583-4.895a37.474 37.474 0 00-3.51-.367 29.52 29.52 0 01-.626 3.073zm1.06-6.529a56.055 56.055 0 01-.38 3.155v.001c1.202.066 2.4.194 3.59.382a27.771 27.771 0 001.985-6.502h-.04c-.327 1.7-2.299 2.856-5.155 2.964zm3.59-24.26a27.226 27.226 0 011.7 5.358v.001a70.59 70.59 0 004.503-.734 19.77 19.77 0 00-3.224-5.427 37.974 37.974 0 01-3.06.612c.013.034.027.065.04.095.014.03.028.062.041.095zm-4.162-5.247c1.47.801 2.83 2.42 3.945 4.772a31.081 31.081 0 002.976-.597c-1.836-2.068-4.038-3.509-6.446-4.121-.068-.006-.14-.015-.212-.025-.086-.01-.175-.022-.263-.03zm9.165 3.576a19.124 19.124 0 00-6.757-3.142 14.095 14.095 0 014.84 3.672c.639-.163 1.278-.34 1.917-.53zm-20.859.775a34.442 34.442 0 01-2.012-.558 19.26 19.26 0 00-4.72 5.182c1.172.312 2.353.584 3.537.829a19.734 19.734 0 013.195-5.453zm-3.304 5.725a62.34 62.34 0 01-3.59-.843 19.154 19.154 0 00-1.631 3.508c.816-1.156 2.094-1.659 3.617-1.659.406.004.81.04 1.21.11.122-.382.258-.75.394-1.116zm-.993 14.686v.028l-4.433-.001a18.614 18.614 0 001.197 2.952 73.715 73.715 0 013.848-.762 19.71 19.71 0 01-.612-2.217zm4.284 9.015a20.568 20.568 0 01-3.59-6.527v.001a94.233 94.233 0 00-3.808.735 19.266 19.266 0 005.385 6.349 34.787 34.787 0 012.013-.558zm18.276 1.006a13.663 13.663 0 01-4.093 2.91v.002a19.436 19.436 0 006.704-3.13 50.221 50.221 0 00-1.917-.53c-.19.212-.38.415-.57.616l-.124.132zm-6.038 3.291a12.695 12.695 0 005.82-3.495v.002c.205-.204.395-.42.572-.627-.98-.231-1.972-.42-2.978-.585-1.116 2.353-2.476 3.97-3.944 4.773.088-.013.177-.024.265-.034.088-.01.177-.02.265-.034zm3.59-5.086c-.013.031-.027.062-.04.096 1.033.164 2.053.368 3.07.612a20.077 20.077 0 003.605-6.5 76.992 76.992 0 00-4.691-.64 28.195 28.195 0 01-1.903 6.337c-.013.034-.027.065-.04.095zm2.544-11.489a40.549 40.549 0 01-.544 4.785v.002c1.577.163 3.154.367 4.746.639.204-.64.38-1.292.544-1.958h-.177c-2.203 0-4.08-1.306-4.57-3.468zm6.871 2.943a3.98 3.98 0 01-1.826.511c-.164.679-.354 1.36-.558 2.027 1.292.218 2.57.476 3.849.762a19.155 19.155 0 00-.653-18.495c-1.18.313-2.379.599-3.575.843a24.763 24.763 0 011.332 5.208l.02.136c.008.045.014.089.021.136 1.225.286 2.013 1.156 2.013 2.244 0 1.523-1.17 2.856-3.36 3.672 1.033 1.02 2.352 1.7 3.576 1.7.178.002.356-.016.53-.055l.014.013a3.98 3.98 0 01-1.383 1.298zm-2.873-14.638a62.845 62.845 0 003.522-.83 19.714 19.714 0 00-4.719-5.18c-.666.204-1.333.393-1.999.557a19.534 19.534 0 013.196 5.453zM22.704 39.133a19.17 19.17 0 009.812-4.53v-.001a21.23 21.23 0 01-2.897-3.346l-.394.34c-.088.074-.18.146-.272.217-.091.072-.183.143-.271.218a14.75 14.75 0 01-6.325 2.842c-.923.177-1.862.259-2.802.245h-.353a3.1 3.1 0 00-.354-.027l-.353-.028a18.545 18.545 0 01-.185-.02l-.169-.02-.353-.04a2.725 2.725 0 01-.178-.028c-.057-.01-.115-.02-.176-.027l-.354-.055a3.017 3.017 0 01-.34-.068 11.89 11.89 0 00-.238-.053 6.546 6.546 0 01-.455-.11l-.209-.06c-.16-.044-.32-.088-.47-.145a6.443 6.443 0 01-.667-.23c-.109-.047-.218-.091-.327-.135a13.24 13.24 0 01-.326-.136 14.874 14.874 0 01-4.61-3.182 15.553 15.553 0 01-3.073-4.65l-.061-.15a7.234 7.234 0 00-.061-.15H3.225v-.285h1.469V13.646l-1.632-.992h6.894c1.76 0 3.155.258 4.119.78-.527-.638-.874-1.713-.874-2.932 0-1.956.892-3.541 1.991-3.541 1.1 0 1.991 1.585 1.991 3.541s-.891 3.541-1.99 3.541c-.122 0-.24-.019-.355-.055.508.5.775 1.143.775 1.93 0 1.794-1.075 2.91-2.978 3.426l3.89 6.16h.87v.285h-5.208l-3.482-6.024v5.74h1.523v.285h-3.67c.026.068.054.122.08.177a13.941 13.941 0 003.142 4.42 14.568 14.568 0 004.515 2.952c.154.071.308.128.468.186l.158.058c.203.082.421.15.639.218.217.068.435.136.652.19.215.068.433.122.653.164.108.03.216.052.327.068l.326.055c.065.007.127.018.187.029a2.7 2.7 0 00.153.025l.34.04.289.035.05.006.34.027c.113.016.226.025.34.028l.34.013a14.922 14.922 0 005.33-.817 14.053 14.053 0 003.618-1.89c.088-.074.18-.142.272-.21.091-.068.183-.136.272-.211l.117-.097c.105-.086.205-.167.304-.257a19.746 19.746 0 012.965-25.334 19.169 19.169 0 10-9.731 33.467zM8.705 12.953v6.487c2.244-.122 2.706-1.21 2.706-3.469 0-1.848-.693-3.018-2.121-3.018h-.585zM55.54 34.82c.666.164 1.333.354 1.999.558a19.455 19.455 0 005.37-6.338 69.237 69.237 0 00-3.794-.747 20.57 20.57 0 01-3.575 6.527zM26.598 24.687c-.913 1.404-2.383 2.187-4.423 2.187-3.1 0-5.646-2.154-5.63-5.532 0-3.215 2.137-5.859 5.647-5.859 2.073 0 3.492 1.208 3.492 2.807 0 1.828-1.403 3.427-4.03 4.406 1.24 1.224 2.822 2.04 4.291 2.04.214.003.428-.019.637-.065l.016.016zm-4.227-4.912c0-1.91-1.272-3.525-2.22-3.525-.57 0-.897.473-.88 1.29 0 1.827.93 3.671 2.252 5.026.594-.806.893-1.791.848-2.791zm4.512-9.272c0 1.956-.891 3.541-1.99 3.541-1.1 0-1.992-1.585-1.992-3.54 0-1.957.892-3.542 1.991-3.542 1.1 0 1.991 1.585 1.991 3.541z" fill="#000"/></svg>