<svg width="313" height="120" fill="none" xmlns="http://www.w3.org/2000/svg"><path fill-rule="evenodd" clip-rule="evenodd" d="M93.3 17.758a56.054 56.054 0 0137.1-14.037 56.078 56.078 0 0155.609 49.168 56.09 56.09 0 01-18.251 48.699 56.075 56.075 0 01-50.416 12.764 56.094 56.094 0 01-23.81-12.252 56.068 56.068 0 11-.232-84.342zm66.897 34.406a12.72 12.72 0 018.112-2.551 11.59 11.59 0 011.658.116c-.02-.078-.029-.166-.039-.253-.01-.086-.019-.172-.038-.248a67.606 67.606 0 00-3.78-14.73 162.961 162.961 0 01-12.881 2.12 114.279 114.279 0 012.276 22.638 12.72 12.72 0 014.692-7.092zm6.492 14.183a10.317 10.317 0 002.006-6.594l-.005.002c0-4.511-2.966-8.329-5.202-8.333-1.35 0-2.121 1.119-2.121 3.047 0 4.319 2.198 8.677 5.322 11.878zm-13.767 13.806a117.173 117.173 0 001.735-20.362l-.001.003c0-.5-.004-1.004-.008-1.51v-.002c-.008-1.016-.017-2.038.008-3.041a32.677 32.677 0 00-6.903-3.124 10.015 10.015 0 013.239 7.752c0 6.247-4.667 10.412-11.608 10.412a13.817 13.817 0 01-7.405-2.006 3.824 3.824 0 00.733 3.124c.888 1.08 2.512 1.62 4.744 1.62h5.939c6.325 0 9.41 2.12 9.41 6.517 0 .096-.009.202-.019.308-.009.106-.019.212-.019.309h.155zm-39.76 20.212c-2.854.424-5.669 1.007-8.446 1.658l-.001-.001a37.121 37.121 0 0018.243 11.686l.011.002c.459.076.915.153 1.377.19-4.166-2.274-8.022-6.864-11.184-13.535zm4.356 12.302a39.595 39.595 0 01-13.65-10.413c-1.849.463-3.664.965-5.477 1.504a53.755 53.755 0 0019.127 8.909zm-26.65-37.482a75.502 75.502 0 01-1.116-23.72h-3.125v23.72h4.242zm-4.201-31.781v7.25h3.197c.331-2.685.807-5.35 1.427-7.983l-.545-.804c-1.339-1.982-2.692-3.985-3.27-3.747-.655.27-.81 1.967-.81 5.284zm3.936 8.06a73.838 73.838 0 00-.466 8.33 71.612 71.612 0 003.472 22.29 222.423 222.423 0 0113.42-1.812c-.267-1.504-.54-3.047-.733-4.59a8.26 8.26 0 01-3.587.926c-4.666 0-6.671-2.7-6.671-8.87V56.633l-2.97-2.545 12.61-4.438c.363-4.377.981-8.73 1.851-13.035a207.853 207.853 0 01-12.88-2.121l-.064.173c-.363.985-.725 1.97-1.053 2.99 1.165.243 2.302.605 3.393 1.08L95.537 48.84H95.5l-3.587-5.245a70.954 70.954 0 00-1.234 7.058h2.663v.81h-2.738zm33.045-45.642c-.23.029-.461.058-.692.096v.001c-6.824 1.736-13.074 5.862-18.242 11.684 2.777.656 5.592 1.193 8.446 1.658 3.162-6.671 7.019-11.26 11.184-13.535-.232.038-.464.067-.696.096zM98.352 15.87c1.813.54 3.625 1.039 5.477 1.504A40.313 40.313 0 01117.481 6.96a54.364 54.364 0 00-19.129 8.909zm31.082 98.302h1.891v-.001c1.465-1.31 3.239-5.823 4.664-15.039a88.914 88.914 0 00-5.591-.154c-1.851 0-3.741.077-5.592.154 1.273 8.249 2.97 13.536 4.628 15.04zm.966-93.558c1.851 0 3.74-.077 5.591-.154v-.001c-1.311-8.33-3.008-13.536-4.627-15.04h-1.928c-1.659 1.505-3.316 6.788-4.628 15.04 1.851.117 3.702.155 5.592.155zm12.726 47.898c1.161 0 1.812-.771 1.812-2.121v-.001c0-1.738-1.041-4.474-3.122-8.098-2.778-5.014-4.667-7.135-6.326-7.135a1.92 1.92 0 00-1.386.659 1.92 1.92 0 00-.385.683c-.08.251-.107.517-.08.78 0 1.658.925 4.087 3.085 8.098 2.662 4.86 4.666 7.135 6.402 7.135zm-3.352 19.282c3.891 0 6.976-1.388 6.976-3.2v-.001c0-1.118-1.696-1.659-5.396-1.658h-5.592c-2.734 0-4.897-.54-6.362-1.62 1.272 4.166 4.936 6.48 10.374 6.48zm-11.392-23.577a9.709 9.709 0 01-.913-4.344c0-5.9 4.358-9.99 10.91-10.413a320.999 320.999 0 00-.539-11.57c-2.467.117-4.974.155-7.442.155-2.507 0-5.014-.04-7.482-.155-.27 4.166-.463 8.638-.579 13.383v17.083c.039 2.353.116 4.628.232 6.826h2.353v.81h-2.314a83.86 83.86 0 00.154 3.163l4.745-.115a7.638 7.638 0 01-.54-2.931c0-2.893 1.234-5.4 4.165-8.407a9.714 9.714 0 01-2.75-3.485zm-5.387-27.136c2.468.116 4.937.154 7.405.154s4.936-.078 7.366-.154c-.424-6.055-.964-11.338-1.658-15.773a92.686 92.686 0 01-5.708.154c-1.932 0-3.857-.039-5.746-.154-.656 4.474-1.235 9.795-1.659 15.773zm.962-16.66c1.157-7.174 2.622-12.61 4.396-14.963-.225 0-.442.009-.663.018-.231.01-.468.02-.725.02-4.975 1.581-9.448 6.556-12.996 13.884 3.316.501 6.633.848 9.988 1.04zm-1.736 16.624c.386-5.746.965-11.107 1.659-15.773l.002-.003c-3.432-.232-6.865-.579-10.22-1.082a75.015 75.015 0 00-5.093 15.7c4.551.58 9.101.965 13.652 1.158zm-.653 12.342c.154-3.938.309-7.794.579-11.535-4.59-.193-9.178-.578-13.73-1.119a109.813 109.813 0 00-2.005 14.925v13.996c0 4.358.385 6.055 2.969 6.055a8.271 8.271 0 002.622-.501V56.323l-2.969-2.545 12.534-4.392zm-9.603 26.606v-3.973a32.026 32.026 0 01-4.896 3.201c.231 1.66.501 3.317.771 4.898 4.704-.462 9.409-.771 14.114-.964-.019-.5-.046-1.001-.074-1.506v-.001c-.03-.545-.061-1.095-.08-1.655h-9.835zm11.917 22.365c-.811-5.36-1.427-11.646-1.852-18.357-4.704.195-9.371.503-13.999 1.003a79.36 79.36 0 005.631 18.434c3.386-.533 6.797-.894 10.22-1.08zm4.511 15.769c-1.774-2.352-3.28-7.751-4.396-14.963l.001.006c-3.356.193-6.672.54-9.989.996 3.548 7.327 8.021 12.302 12.996 13.883.463.039.923.078 1.388.078zm-3.74-15.812a94.902 94.902 0 015.746-.154l.001.007c1.889 0 3.817.038 5.707.187.386-2.622.733-5.553 1.08-8.908h-.502c-7.712 0-11.492-1.62-11.492-4.975 0-1.624 1.196-3.009 3.316-3.857a3.466 3.466 0 01-.578-.733c-1.159 0-2.3.034-3.435.069-.566.017-1.13.034-1.694.046.424 7.057 1.08 13.228 1.851 18.318zm21.711-47.126l1.736-.926v.007l.444-.24a584.176 584.176 0 015.457-2.93 105.16 105.16 0 00-1.62-10.412c-4.551.578-9.14.964-13.729 1.157.23 3.818.424 7.713.539 11.608h.27a13.01 13.01 0 016.903 1.736zm-9.411-29.927c.695 4.744 1.273 10.143 1.659 15.773l.002.007c4.55-.232 9.101-.576 13.652-1.16a75.092 75.092 0 00-5.09-15.695c-3.387.532-6.799.89-10.223 1.075zm-4.548-15.804c1.812 2.39 3.28 7.867 4.397 14.962a120.28 120.28 0 009.948-1.002c-3.548-7.324-8.021-12.303-12.995-13.883l-.077-.007a14.62 14.62 0 00-1.273-.07zm-19.706 14.846c.038-.087.077-.173.116-.27h-.001c-2.932-.462-5.824-1.04-8.641-1.774a55.902 55.902 0 00-9.14 15.427 175.46 175.46 0 0012.727 2.082 78.07 78.07 0 014.939-15.465zm-.121 78.75a79.99 79.99 0 01-5.395-17.971c-4.474.463-8.912 1.042-13.309 1.812a56.517 56.517 0 0010.259 18.434 107.808 107.808 0 018.677-1.735 7.579 7.579 0 00-.116-.27c-.038-.087-.077-.174-.116-.27zm22.449 8.87a19.326 19.326 0 01-2.585 6.247h.001c.463-.038.887-.038 1.315-.038 4.975-1.581 9.448-6.556 12.996-13.884-3.281-.5-6.598-.848-9.953-1.04a83.963 83.963 0 01-1.774 8.715zm3.008-18.514c-.309 3.201-.656 6.21-1.08 8.947v.003c3.41.187 6.808.549 10.181 1.083a78.73 78.73 0 005.63-18.44h-.115c-.926 4.82-6.517 8.099-14.616 8.407zm10.181-68.8a77.177 77.177 0 014.821 15.195v.002c4.281-.577 8.562-1.233 12.769-2.081a56.057 56.057 0 00-9.144-15.391 107.722 107.722 0 01-8.677 1.736c.038.096.077.183.116.27.038.086.077.173.115.27zM136.411 5.727C140.58 8 144.437 12.59 147.6 19.259v.003a88.21 88.21 0 008.441-1.695c-5.207-5.863-11.454-9.95-18.28-11.686-.195-.018-.396-.044-.603-.07a16.383 16.383 0 00-.747-.084zm25.993 10.142a54.224 54.224 0 00-19.162-8.909 39.98 39.98 0 0113.725 10.413c1.812-.463 3.625-.964 5.437-1.504zm-59.154 2.198a97.707 97.707 0 01-5.708-1.581A54.62 54.62 0 0084.16 31.18c3.32.886 6.67 1.657 10.028 2.351a55.956 55.956 0 019.062-15.464zm-9.371 16.235a176.898 176.898 0 01-10.182-2.39 54.32 54.32 0 00-4.626 9.95c2.315-3.279 5.94-4.706 10.259-4.706 1.15.01 2.299.114 3.433.31.345-1.08.73-2.123 1.116-3.164zm-2.816 41.65v.078l-12.571-.003a52.795 52.795 0 003.393 8.372c3.625-.81 7.25-1.543 10.914-2.16a55.88 55.88 0 01-1.736-6.286zm12.148 25.566A58.32 58.32 0 0193.03 83.007v.003a267.327 267.327 0 00-10.798 2.083A54.642 54.642 0 0097.503 103.1a98.104 98.104 0 015.708-1.582zm51.831 2.853a38.738 38.738 0 01-11.608 8.253v.004a55.114 55.114 0 0019.012-8.874 142.437 142.437 0 00-5.437-1.504c-.537.601-1.077 1.175-1.613 1.745l-.354.376zm-17.123 9.333a35.998 35.998 0 0016.506-9.911v.003a30.547 30.547 0 001.619-1.776 121.991 121.991 0 00-8.445-1.659c-3.163 6.672-7.02 11.26-11.184 13.536.25-.039.501-.068.751-.096l.001-.001h.001c.25-.028.5-.057.751-.096zm10.182-14.423c-.039.087-.078.173-.116.27v.003c2.931.464 5.821 1.042 8.71 1.733a56.956 56.956 0 0010.219-18.435 218.226 218.226 0 00-13.302-1.812 79.94 79.94 0 01-5.396 17.971c-.038.096-.077.183-.115.27zm7.211-32.583a114.72 114.72 0 01-1.542 13.57v.005c4.473.462 8.947 1.04 13.459 1.813a85.034 85.034 0 001.543-5.554h-.502c-6.247 0-11.57-3.702-12.958-9.834zm19.488 8.347a11.288 11.288 0 01-5.18 1.448 101.37 101.37 0 01-1.58 5.748c3.663.618 7.285 1.35 10.913 2.16a54.318 54.318 0 00-1.851-52.448 183.043 183.043 0 01-10.14 2.39 70.167 70.167 0 013.78 14.77l.029.198.028.185.001.003c.019.125.038.25.057.386 3.476.809 5.708 3.277 5.708 6.362 0 4.32-3.316 8.1-9.525 10.412 2.928 2.893 6.669 4.821 10.139 4.821a6.414 6.414 0 001.504-.154l.039.038a11.29 11.29 0 01-3.922 3.68zm-8.149-41.513a178.356 178.356 0 009.988-2.352 55.89 55.89 0 00-13.382-14.694 105.598 105.598 0 01-5.668 1.582 55.394 55.394 0 019.062 15.464zm-102.18 80.26a54.36 54.36 0 0027.826-12.845l-.002-.007a60.179 60.179 0 01-8.214-9.488l-1.117.964c-.25.212-.51.415-.77.617-.261.203-.521.405-.772.617a37.625 37.625 0 01-3.239 2.276 41.842 41.842 0 01-14.698 5.785c-2.617.5-5.28.733-7.944.694h-1.003a8.854 8.854 0 00-1.002-.078l-1.003-.077c-.184-.02-.354-.04-.525-.06-.156-.018-.312-.037-.478-.055l-1.003-.115a7.973 7.973 0 01-.502-.078c-.164-.029-.327-.058-.5-.077l-1.003-.154a8.542 8.542 0 01-.964-.193 32.72 32.72 0 00-.678-.152c-.43-.093-.86-.187-1.289-.313a35.419 35.419 0 00-.593-.167c-.456-.126-.905-.25-1.335-.412a18.091 18.091 0 01-1.89-.65c-.308-.136-.616-.261-.925-.386-.309-.126-.617-.251-.925-.386a42.182 42.182 0 01-13.074-9.023 44.106 44.106 0 01-8.715-13.189c-.058-.135-.116-.28-.174-.424-.058-.145-.116-.29-.173-.424H9.229v-.81h4.165V41.514L8.766 38.7h19.552c4.993 0 8.946.733 11.68 2.212-1.495-1.807-2.477-4.856-2.477-8.313 0-5.546 2.528-10.043 5.646-10.043 3.119 0 5.647 4.497 5.647 10.043 0 5.547-2.528 10.043-5.647 10.043-.343 0-.678-.054-1.004-.158 1.441 1.42 2.198 3.242 2.198 5.472 0 5.09-3.05 8.253-8.446 9.718l11.03 17.468h2.468v.81h-14.77L24.77 58.87v16.275h4.32v.81H18.679c.077.193.154.347.231.502a39.535 39.535 0 008.91 12.534 41.31 41.31 0 0012.803 8.372c.437.203.873.363 1.326.529.148.053.297.108.448.165.578.23 1.195.424 1.812.617.617.192 1.234.385 1.851.54.608.19 1.226.346 1.851.464.305.083.614.147.926.193l.925.154c.186.021.361.053.53.084.148.027.29.053.434.071l.964.115c.294.032.56.065.821.098l.143.017.963.078c.32.044.642.07.964.077l.964.038c2.554.076 5.11-.08 7.636-.465a41.614 41.614 0 007.482-1.851 39.853 39.853 0 007.019-3.24 35.976 35.976 0 003.239-2.12c.25-.213.51-.405.77-.598.261-.193.521-.386.772-.598l.334-.274c.297-.244.579-.475.861-.729a56 56 0 018.408-71.846 54.362 54.362 0 10-27.596 94.911zM24.77 39.548v18.395c6.364-.347 7.674-3.431 7.674-9.837 0-5.242-1.966-8.558-6.016-8.558H24.77zm132.818 62.012c1.889.465 3.779 1.003 5.668 1.581a55.164 55.164 0 0015.231-17.972 196.333 196.333 0 00-10.76-2.12 58.338 58.338 0 01-10.139 18.511zM75.513 72.823c-2.589 3.98-6.757 6.202-12.542 6.202-8.794 0-16.013-6.11-15.967-15.688 0-9.118 6.06-16.615 16.013-16.615 5.878 0 9.904 3.424 9.904 7.96 0 5.183-3.98 9.719-11.431 12.496 3.52 3.47 8.006 5.785 12.172 5.785a7.708 7.708 0 001.805-.186l.046.046zm-11.987-13.93c0-5.415-3.61-9.996-6.294-9.996v-.001c-1.62 0-2.545 1.342-2.5 3.657 0 5.184 2.639 10.414 6.388 14.254a12.385 12.385 0 002.406-7.914zm12.797-26.294c0 5.547-2.528 10.043-5.647 10.043-3.118 0-5.647-4.497-5.647-10.043 0-5.546 2.529-10.043 5.647-10.043 3.118 0 5.647 4.497 5.647 10.043zM252.859 13.58l2.121.037.242-13.58L253.101 0l-.242 13.58zm-17.205-7.696a1.326 1.326 0 00.843-1.667 1.326 1.326 0 00-1.666-.844c-.69.226-1.07.978-.844 1.667.226.69.977 1.07 1.667.844zm2.266 10.319l2.015-.66-2.897-8.84-2.016.66 2.898 8.84zm-3.558-2.462c.658 2.198-.198 4.082-2.303 5.195-2.368 1.253-5.123.5-6.472-2.05-1.348-2.548-.419-5.25 1.949-6.502 2.155-1.14 4.253-.754 5.591 1.021l-.005.109-1.593.968c-.752-.865-1.864-1.098-3.098-.445-1.365.721-1.889 2.198-1.002 3.876.888 1.677 2.403 2.075 3.768 1.354 1.234-.653 1.635-1.644 1.376-2.811l1.697-.772.092.057zm-11.585 11.544c2.154-1.944 2.261-4.823.404-6.88-1.857-2.057-4.732-2.243-6.886-.298-2.167 1.957-2.274 4.835-.417 6.892 1.857 2.057 4.732 2.243 6.899.286zm-1.259-1.394c-1.173 1.06-2.795 1.095-4.066-.313-1.272-1.408-1.071-3.017.102-4.077 1.174-1.06 2.782-1.083 4.053.325 1.272 1.408 1.085 3.005-.089 4.065zm-6.327 9.947c1.554-2.229 1.438-4.895-.714-6.394-1.969-1.373-3.818-.575-5.579 1.01-1.557 1.386-2.505 2.064-3.39 1.447-.656-.458-.631-1.438.05-2.415.808-1.16 1.867-1.442 3.031-.835l1.079-1.743-.039-.14c-1.939-1.057-4.044-.574-5.587 1.64-1.383 1.984-1.398 4.218.296 5.399 1.695 1.18 3.389.343 5.093-1.19 1.562-1.429 2.613-2.057 3.834-1.206 1.145.797 1.108 2.087.321 3.217-.851 1.22-2.245 1.723-3.658.92l-1.077 1.903.034.114c2.208 1.29 4.785.455 6.306-1.727zm32.426-21.169c-.601.88-1.516 1.677-2.786 1.868-1.637.246-3.083-.61-3.337-2.302-.263-1.748.934-2.925 2.746-3.385l2.626-.677-.075-.497c-.149-.993-.939-1.364-1.987-1.206-.939.14-1.513.697-1.541 1.642l-1.835.182-.103-.06c.057-2.002 1.498-3.179 3.301-3.45 2.189-.329 3.909.598 4.205 2.567l.567 3.771c.088.589.377.884.874.81.129-.02.236-.055.396-.117l.061.029.227 1.509a3.627 3.627 0 01-1.132.358c-.809.121-1.65-.09-2.152-1.05l-.055.008zm-4.134-.846c.113.755.741 1.055 1.477.945 1.031-.155 1.72-.823 2.329-1.78l-.202-1.343-2.35.635c-.956.276-1.354.88-1.254 1.543zm31 1.819c-1.481 2.379-4.058 3.295-6.947 2.374-3.421-1.091-5.467-4.536-4.241-8.382 1.227-3.847 4.889-5.471 8.31-4.38 3.049.972 4.557 3.346 4.291 5.957l-.116.119-2.125-.502c.048-1.683-.928-3.03-2.719-3.6-2.463-.786-4.593.565-5.407 3.118-.814 2.552.158 4.893 2.64 5.684 1.754.56 3.312.022 4.265-1.373l2.005.815.044.17zm.62 5.376l1.853 1.031 6.604-11.868-1.854-1.031-6.603 11.868zm9.718 5.27a4.335 4.335 0 01-3.32-.933c-1.571-1.282-1.651-2.98-.415-4.493l3.965-4.857 1.643 1.341-3.706 4.54c-.718.88-.628 1.77.237 2.475.778.635 1.879.67 2.89.342l3.836-4.698 1.643 1.341-5.883 7.206-1.643-1.34.753-.923zm5.708 8.27c1.334 1.72 3.998 2.36 6.467.444 2.469-1.916 2.601-4.537 1.176-6.375-.776-.999-1.759-1.508-2.707-1.667l4.115-3.193-1.3-1.676-10.729 8.326 1.3 1.675.809-.627c-.124.873.002 1.976.869 3.093zm1.144-1.5c-.81-1.043-.749-2.574.309-3.395l1.073-.833c1.058-.82 2.547-.54 3.38.533.901 1.161.866 2.695-.75 3.95-1.617 1.254-3.111.906-4.012-.255zm10.57 13.686c-2.892 1.185-5.288-.145-6.113-2.159-.537-1.308-.363-2.405-.011-3.213l-.946.388-.805-1.962 12.566-5.152.805 1.962-4.82 1.976c.87.407 1.682 1.16 2.162 2.33.882 2.153.054 4.644-2.838 5.83zm-3.404-6.487c-1.239.508-1.707 1.967-1.206 3.189.558 1.36 1.904 2.094 3.798 1.318 1.894-.776 2.337-2.245 1.779-3.605-.515-1.257-1.875-1.925-3.114-1.417l-1.257.515zm9.945 8.997c.158.708.87 1.158 1.578 1a1.326 1.326 0 00.999-1.58 1.326 1.326 0 00-1.578-.999 1.326 1.326 0 00-.999 1.579zm-10.489 1.267l.464 2.07 9.077-2.038-.465-2.07-9.076 2.038zm1.239 6.631l-.115-2.119 9.293-.502.115 2.119-1.208.065c.762.649 1.492 1.746 1.565 3.103.11 2.026-1.094 3.21-2.915 3.308l-6.394.346-.114-2.12 5.854-.316c1.134-.061 1.734-.69 1.674-1.805-.055-1.004-.81-1.876-1.696-2.406l-6.059.327zm-4.372 12.325c-.534 2.834.72 4.718 3.206 5.187l8.94 1.686.383-2.029-.896-.169c.652-.445 1.348-1.222 1.596-2.539.428-2.267-.926-4.624-3.851-5.175-2.926-.552-5.021 1.021-5.469 3.398-.235 1.243-.011 2.062.539 2.96l-.841-.158c-1.334-.252-2.172-1.13-1.855-2.811.228-1.207.883-1.67 1.631-1.718l.258-2.072-.074-.109c-1.57-.012-3.091 1.026-3.567 3.55zm5.602 1.02c.258-1.372 1.29-2.427 3.393-2.03 2.102.396 2.679 1.755 2.42 3.126-.251 1.334-1.427 2.249-2.853 1.98l-1.061-.2c-1.371-.259-2.179-1.396-1.899-2.877zm-7.408 15.112l1.364-2.066 12.955 4.022-1.363 2.067-8.459-2.862-1.562-.674-.031.047 1.255 1.14 5.875 6.776-1.271 1.926-8.53-2.752-1.552-.69-.031.047 1.244 1.155 5.948 6.668-1.364 2.066-8.793-10.33 1.363-2.066 9.725 3.207-6.773-7.68zm-11.36 12.672c-2.293 1.78-2.614 4.643-.915 6.833 1.699 2.19 4.553 2.589 6.845.81 2.308-1.79 2.629-4.654.93-6.844-1.699-2.19-4.552-2.59-6.86-.799zm1.152 1.485c1.249-.97 2.869-.885 4.033.615 1.163 1.499.843 3.089-.406 4.059-1.25.969-2.855.873-4.018-.627-1.164-1.499-.858-3.078.391-4.047zm-8.694 3.581l1.899-.946 4.148 8.326-1.898.946-.514-1.032c-.243.931-.768 1.879-1.801 2.393-.299.15-.574.224-.782.224l-.514-1.656.042-.084c.15-.033.308-.091.575-.223.915-.457 1.466-1.396 1.476-2.669l-2.631-5.279zm-4.849 2.141l-1.999.709 4.54 12.801 1.999-.709-4.54-12.801zm-10.941 3.73c.478-.725 1.298-1.435 2.673-1.676 2.144-.375 4.601.933 5.14 4.012.538 3.079-1.183 5.118-3.529 5.528-1.155.202-2.197-.032-3.005-.551l.887 5.076-2.089.365-2.339-13.378 2.089-.365.173.989zm5.705 2.705c-.352-2.016-1.692-2.764-3.14-2.511-1.338.234-2.286 1.401-2.055 2.72l.234 1.338c.23 1.32 1.521 2.114 2.878 1.877 1.429-.25 2.435-1.408 2.083-3.424zm-12.634-3.362l-2.274-.26-2.558 6.486-1.046-6.899-2.274-.26-3.811 8.927 2.181.25 2.127-5.169.418-1.525.037.004.1 1.585.96 5.521 2.014.231 2.22-5.158.436-1.523.037.004.063 1.58.886 5.513 2.199.252-1.715-9.559zm-18.598 8.127a1.325 1.325 0 011.68-.816c.686.237 1.054.994.816 1.68a1.324 1.324 0 01-1.68.816 1.325 1.325 0 01-.816-1.68zm4.117-11.096l2.004.694-3.043 8.79-2.004-.694 3.043-8.79zm-5.736-2.785c-1.22-.678-2.304-.643-3.132-.379l.489-.878-1.853-1.032-6.604 11.868 1.853 1.032 2.506-4.504c.301.913.964 1.75 1.988 2.32 2.081 1.158 4.701.657 6.221-2.074 1.52-2.731.434-5.294-1.468-6.353zm-1.261 1.386c1.285.714 1.855 2.138.86 3.927-.995 1.788-2.506 2.055-3.774 1.349-1.203-.669-1.707-2.099-1.055-3.27l.66-1.186c.651-1.171 2.123-1.481 3.309-.82zm-13.723-8.731c1.839-1.146 3.744-.978 5.428.544 2.07 1.872 2.152 4.555.205 6.707-1.947 2.153-4.859 2.128-6.694.468-1.96-1.772-2.182-4.356-.172-6.577l.436-.483 5.285 4.78c.954-1.194.806-2.583-.298-3.582-.98-.886-1.996-.927-2.906-.42l-1.305-1.33.021-.107zm.099 6.436c.939.849 2.222.955 3.326.123l-3.767-3.407c-.827 1.108-.552 2.385.441 3.284z" fill="#000"/></svg>