<svg width="192" height="200" viewBox="0 0 192 200" fill="none" xmlns="http://www.w3.org/2000/svg">
<path d="M181.924 66.8736V50.3064H173.304V42.0228H164.689V33.7453H156.068V25.4617H138.833V17.178H121.598V8.89443H87.127V0.616951H61.2771V8.89443H44.0418V17.178H26.8065V25.4617H18.192V33.7453H9.57125V42.0228H0.956677V58.59H18.192V50.3064H26.8065V42.0228H35.4273V33.7453H61.2771V25.4617H121.598V33.7453H130.218V42.0228H138.833V50.3064H147.454V58.59H156.068V75.1511H164.689V141.414H156.068V149.691H147.454V157.975H130.218V166.259H121.598V174.542H69.8917V166.259H61.2771V157.975H52.6626V149.691H44.0418V141.414H35.4273V124.847H26.8065V100.002H35.4273V83.4347H44.0418V75.1511H52.6626V66.8736H69.8917V58.59H104.362V66.8736H121.598V75.1511H130.218V91.7183H138.833V108.286H130.218V133.13H121.598V141.414H78.5125V133.13H69.8917V100.002H78.5125V91.7183H95.7477V100.002H104.362V116.563H87.127V133.13H112.983V124.847H121.598V91.7183H112.983V75.1511H69.8917V83.4347H61.2771V91.7183H52.6626V108.286H44.0418V133.13H52.6626V149.691H61.2771V157.975H87.127V166.259H112.983V157.975H130.218V149.691H138.833V141.414H147.454V124.847H156.068V75.1511H147.454V66.8736H138.833V50.3064H121.598V42.0228H87.127V33.7453H69.8917V42.0228H61.2771V50.3064H44.0418V58.59H35.4273V66.8736H26.8065V75.1511H18.192V83.4347H9.57125V116.563H0.956677V133.13H9.57125V157.975H18.192V166.259H26.8065V174.542H35.4273V182.82H44.0418V191.103H78.5125V199.387H104.362V191.103H130.218V182.82H156.068V174.542H164.689V166.259H173.304V149.691H181.924V133.13H190.539V66.8736H181.924Z" fill="#4AC8F4"/>
<path d="M87.127 0.616951V8.89443H121.598V17.178H138.833V25.4617H156.068V33.7453H164.689V42.0228H173.304V50.3064H181.924V66.8736H190.539V133.13H181.924V149.691H173.304V166.259H164.689V174.542H156.068V182.82H130.218V191.103H104.362V199.387H78.5125V191.103H44.0418V182.82H35.4273V174.542H26.8065V166.259H18.192V157.975H9.57125V133.13H0.956677V116.563H9.57125V83.4347H18.192V75.1511H26.8065V66.8736H35.4273V58.59H44.0418V50.3064H61.2771V42.0228H69.8917V33.7453H87.127V42.0228H121.598V50.3064H138.833V66.8736H147.454V75.1511H156.068V124.847H147.454V141.414H138.833V149.691H130.218V157.975H112.983V166.259H87.127V157.975H61.2771V149.691H52.6626V133.13H44.0418V108.286H52.6626V91.7183H61.2771V83.4347H69.8917V75.1511H112.983V91.7183H121.598V124.847H112.983V133.13H87.127V116.563H104.362V100.002H95.7477V91.7183H78.5125V100.002H69.8917V133.13H78.5125V141.414H121.598V133.13H130.218V108.286H138.833V91.7183H130.218V75.1511H121.598V66.8736H104.362V58.59H69.8917V66.8736H52.6626V75.1511H44.0418V83.4347H35.4273V100.002H26.8065V124.847H35.4273V141.414H44.0418V149.691H52.6626V157.975H61.2771V166.259H69.8917V174.542H121.598V166.259H130.218V157.975H147.454V149.691H156.068V141.414H164.689V75.1511H156.068V58.59H147.454V50.3064H138.833V42.0228H130.218V33.7453H121.598V25.4617H61.2771V33.7453H35.4273V42.0228H26.8065V50.3064H18.192V58.59H0.956677V42.0228H9.57125V33.7453H18.192V25.4617H26.8065V17.178H44.0418V8.89443H61.2771V0.616951H87.127ZM87.7423 0.00195312H60.6618V8.27944H43.4265V16.5631H26.1912V24.8467H17.5766V33.1303H8.9559V41.4078H0.341309V59.205H18.8073V50.9214H27.4219V42.6377H36.0426V34.3602H61.8925V26.0766H120.982V34.3602H129.603V42.6377H138.218V49.6914H122.213V41.4078H87.7423V33.1303H69.2764V41.4078H60.6618V49.6914H43.4265V57.975H34.8119V66.2586H26.1912V74.5361H17.5766V82.8197H8.9559V115.948H0.341309V133.745H8.9559V158.59H17.5766V166.874H26.1912V175.157H34.8119V183.435H43.4265V191.718H77.8971V200.002H104.978V191.718H130.834V183.435H156.683V175.157H165.304V166.874H173.919V150.306H182.539V133.745H191.154V66.2586H182.539V49.6914H173.919V41.4078H165.304V33.1303H156.683V24.8467H139.448V16.5631H122.213V8.27944H87.7423V0.00195312ZM139.448 50.9214H146.838V59.205H155.453V74.5361H148.069V66.2586H139.448V50.9214ZM70.507 59.205H103.747V67.4886H120.982V75.7661H129.603V92.3333H138.218V107.671H129.603V132.515H120.982V140.799H79.1278V132.515H70.507V100.617H79.1278V92.3333H95.1324V100.617H103.747V115.948H86.5117V133.745H113.598V125.462H122.213V91.1033H113.598V74.5361H69.2764V82.8197H60.6618V91.1033H52.0472V107.671H43.4265V133.745H52.0472V149.076H44.6572V140.799H36.0426V124.232H27.4219V100.617H36.0426V84.0497H44.6572V75.7661H53.2779V67.4886H70.507V59.205ZM156.683 75.7661H164.074V140.799H155.453V149.076H146.838V157.36H130.834V150.306H139.448V142.029H148.069V125.462H156.683V75.7661ZM53.2779 150.306H60.6618V157.36H53.2779V150.306ZM113.598 158.59H129.603V165.644H120.982V173.927H70.507V165.644H61.8925V158.59H86.5117V166.874H113.598V158.59Z" fill="black"/>
<path d="M6.61246 47.9126L10.1854 43.6926L10.835 44.242L7.86522 47.7498L10.6624 50.1155L13.4018 46.8798L14.0514 47.4293L11.312 50.665L14.5499 53.4028L13.9467 54.1149L6.61246 47.9126Z" fill="#002899"/>
<path d="M13.2511 44.464L13.8405 43.8505L14.5831 44.5628C14.4048 43.9164 14.4921 42.9737 15.0907 42.3499C15.2904 42.1422 15.4436 42.0422 15.5789 42.0006L15.9992 42.6128C15.9032 42.673 15.7985 42.7623 15.6366 42.9308C15.1234 43.4652 15.008 44.4572 15.3951 45.3417L18.7918 48.5996L18.2024 49.2131L13.2511 44.464Z" fill="#002899"/>
<path d="M18.3664 44.047C16.9798 42.5439 16.9665 40.4846 18.4808 39.09C19.995 37.695 22.0475 37.8757 23.4336 39.3788C24.8202 40.882 24.8334 42.941 23.3192 44.3359C21.8049 45.7309 19.7529 45.5502 18.3664 44.047ZM22.808 39.9553C21.5613 38.6035 20.0297 38.7452 19.0206 39.6751C18.0109 40.6048 17.7453 42.1185 18.992 43.4705C20.2391 44.8223 21.7702 44.6807 22.7794 43.7507C23.789 42.8208 24.0546 41.3072 22.808 39.9553Z" fill="#002899"/>
<path d="M22.4847 35.6526L23.1599 35.1353L23.786 35.9517C23.7431 35.2417 24.0572 34.2758 24.765 33.7335C25.5275 33.1496 26.2108 33.1616 26.8569 33.5308C26.8727 32.6721 27.2266 31.8483 27.9671 31.281C28.9477 30.5301 29.9625 30.7034 30.7219 31.6941L33.7601 35.6567L33.0849 36.1737L30.1718 32.3745C29.5789 31.6017 28.9416 31.5369 28.2879 32.0374C27.7 32.4878 27.4345 33.382 27.5335 34.1877L30.5467 38.1176L29.8716 38.6347L26.9917 34.8791C26.4074 34.117 25.7067 34.0144 25.1184 34.4649C24.4106 35.0072 24.3222 36.0423 24.4203 36.7791L27.3333 40.5783L26.6475 41.104L22.4847 35.6526Z" fill="#002899"/>
<path d="M32.5282 24.9868L33.4465 24.4376L41.7501 28.9037L37.5924 21.9588L38.3937 21.4798L43.3256 29.7199L42.4073 30.2691L34.1038 25.8027L38.2614 32.7479L37.4601 33.2266L32.5282 24.9868Z" fill="#002899"/>
<path d="M43.0376 25.9781C42.0764 24.0658 42.7357 22.1385 44.3424 21.3318C45.9368 20.5315 47.6814 21.0376 48.6175 22.9008L48.8024 23.2686L43.9456 25.7065C44.6723 27.0915 45.9869 27.5984 47.2131 26.9828C48.3908 26.3917 48.5057 25.4896 48.3693 24.6985L49.1298 24.3169C49.4454 25.7088 49.0179 26.9672 47.5583 27.6999C45.8291 28.5679 43.9987 27.8903 43.0376 25.9781ZM47.7218 23.0128C47.1487 21.9341 45.8899 21.4456 44.6999 22.0428C43.5105 22.64 43.1688 23.8553 43.6254 25.069L47.7218 23.0128Z" fill="#002899"/>
<path d="M50.5025 23.7693L48.6691 19.3928L49.4536 19.0646L51.2712 23.403C51.621 24.2378 52.3676 24.5645 53.2915 24.1778C54.127 23.8285 54.6592 22.8625 54.7363 21.8044L52.9723 17.5923L53.7568 17.2641L56.4058 23.5883L55.6214 23.9165L55.1765 22.8541C55.0422 23.5643 54.4467 24.5568 53.4217 24.9858C52.1562 25.5154 51.0694 25.1226 50.5025 23.7693Z" fill="#002899"/>
<path d="M54.6755 13.5539L55.4814 13.2793L57.4298 18.9921L59.1891 15.3493L60.2284 14.9953L58.3409 18.8992L62.7156 21.3941L61.663 21.7526L57.5891 19.4596L58.7142 22.7574L57.9088 23.0317L54.6755 13.5539Z" fill="#002899"/>
<path d="M61.8862 18.0366C61.3714 16.058 62.33 14.2353 64.3228 13.7173C66.3155 13.1995 68.0412 14.3247 68.556 16.303C69.0708 18.2816 68.1127 20.1043 66.1194 20.6223C64.1267 21.1402 62.401 20.0152 61.8862 18.0366ZM62.1206 12.5035C62.0307 12.1582 62.2467 11.7902 62.5792 11.704C62.9245 11.6141 63.2927 11.8303 63.3826 12.1756C63.4724 12.5209 63.2559 12.8889 62.9107 12.9787C62.5787 13.065 62.21 12.8488 62.1206 12.5035ZM67.7322 16.5171C67.2695 14.7378 65.8518 14.1422 64.523 14.4875C63.1946 14.8328 62.2473 16.0432 62.71 17.8225C63.1732 19.6018 64.5904 20.1974 65.9192 19.8521C67.2476 19.5068 68.1954 18.2964 67.7322 16.5171ZM64.3922 11.913C64.3023 11.5679 64.5189 11.1997 64.8641 11.1099C65.1966 11.0236 65.5648 11.2398 65.6547 11.585C65.7446 11.9303 65.528 12.2983 65.1961 12.3846C64.8503 12.4744 64.4821 12.2583 64.3922 11.913Z" fill="#002899"/>
<path d="M68.8231 9.60338L69.6591 9.44617L71.5115 19.2851L70.6754 19.4423L68.8231 9.60338Z" fill="#002899"/>
<path d="M71.6391 9.10905L72.4803 8.98298L73.9659 18.8859L73.1243 19.012L71.6391 9.10905Z" fill="#002899"/>
<path d="M75.0277 11.7795L75.877 11.7203L75.9572 12.8697C76.3121 12.2399 77.1956 11.4906 78.3044 11.413C79.6741 11.3173 80.5775 12.038 80.674 13.4202L81.0111 18.2375L80.1623 18.2969L79.8339 13.6027C79.7706 12.6995 79.168 12.1503 78.1685 12.22C77.3059 12.2805 76.5036 13.0104 76.0368 14.0057L76.3555 18.5628L75.5067 18.622L75.0277 11.7795Z" fill="#002899"/>
<path d="M86.181 16.7432L86.3005 12.0684L85.0115 12.0355L85.0294 11.3227L86.3189 11.3556L86.3715 9.29918L87.2141 9.6363L87.1692 11.3773L88.7468 11.4176L88.7289 12.1307L87.1513 12.0903L87.0344 16.6417C87.016 17.3682 87.3377 17.6645 87.9276 17.6796C88.1881 17.6865 88.3265 17.6487 88.5895 17.5732L88.5716 18.2724C88.2259 18.3732 87.9506 18.3936 87.6488 18.386C86.6064 18.3592 86.158 17.6482 86.181 16.7432Z" fill="#002899"/>
<path d="M89.2774 14.8266C89.4618 12.7911 90.9796 11.3995 93.0301 11.585C95.0806 11.7703 96.3236 13.4115 96.1393 15.4473C95.9554 17.4828 94.4371 18.8742 92.3871 18.6889C90.3366 18.5034 89.093 16.8622 89.2774 14.8266ZM95.292 15.3705C95.4575 13.5399 94.3252 12.501 92.9581 12.3772C91.5914 12.2537 90.2906 13.0726 90.1252 14.9032C89.9592 16.7338 91.0914 17.773 92.4586 17.8965C93.8258 18.02 95.126 17.2011 95.292 15.3705Z" fill="#002899"/>
<path d="M100.857 18.2367L101.746 13.6435L100.479 13.3983L100.615 12.698L101.882 12.943L102.273 10.9225L103.049 11.3941L102.718 13.1048L104.268 13.4046L104.132 14.1052L102.582 13.8051L101.716 18.2773C101.577 18.9911 101.846 19.3366 102.426 19.4487C102.682 19.4982 102.824 19.4839 103.096 19.4527L102.963 20.1397C102.605 20.1821 102.331 20.1568 102.034 20.0997C101.009 19.9014 100.685 19.1258 100.857 18.2367Z" fill="#002899"/>
<path d="M106.499 10.6497L107.323 10.8638L106.245 15.0043C106.881 14.5181 107.89 14.1287 109.085 14.4395C110.426 14.7884 111.005 15.888 110.666 17.1886L109.474 21.7669L108.651 21.5528L109.857 16.9214C110.085 16.0455 109.589 15.3922 108.659 15.1505C107.756 14.9157 106.718 15.3115 105.992 15.973L104.8 20.5514L103.977 20.3373L106.499 10.6497Z" fill="#002899"/>
<path d="M111.728 18.8589C112.43 16.8371 114.272 15.9661 115.972 16.5554C117.657 17.1401 118.51 18.7428 117.826 20.7127L117.691 21.1014L112.556 19.3203C112.069 20.8066 112.621 22.1018 113.918 22.5517C115.163 22.9835 115.89 22.4371 116.363 21.7879L117.167 22.0668C116.388 23.2632 115.187 23.8341 113.644 23.2989C111.815 22.6645 111.026 20.8806 111.728 18.8589ZM117.121 20.1487C117.495 18.9862 116.968 17.7434 115.71 17.307C114.453 16.8706 113.342 17.4731 112.79 18.6463L117.121 20.1487Z" fill="#002899"/>
<path d="M124.069 16.7272L124.95 17.1768L123.363 25.0113L123.085 26.0092L123.73 25.1987L129.192 19.3435L130.023 19.7682L128.474 27.6216L128.195 28.6194L128.84 27.8089L134.265 21.9351L135.145 22.3848L128.302 29.676L127.299 29.1638L129.001 20.741L123.167 27.0532L122.165 26.541L124.069 16.7272Z" fill="#002899"/>
<path d="M132.618 28.217C133.732 26.5033 135.725 25.9816 137.45 27.1025C139.176 28.2233 139.509 30.2548 138.395 31.9682C137.281 33.6817 135.288 34.2036 133.562 33.0824C131.836 31.9616 131.504 29.9304 132.618 28.217ZM137.681 31.5048C138.683 29.9638 138.167 28.5168 137.017 27.7696C135.866 27.0221 134.333 27.1392 133.331 28.6802C132.329 30.2211 132.845 31.6684 133.996 32.4156C135.146 33.1628 136.679 33.0459 137.681 31.5048Z" fill="#002899"/>
<path d="M141.63 30.1218L142.313 30.6302L141.698 31.455C142.317 31.198 143.264 31.1679 143.958 31.6844C144.189 31.8567 144.307 31.996 144.365 32.1249L143.809 32.6177C143.738 32.5299 143.636 32.437 143.449 32.2977C142.855 31.8549 141.855 31.8633 141.025 32.3569L138.211 36.1291L137.529 35.6207L141.63 30.1218Z" fill="#002899"/>
<path d="M147.307 30.4827L147.971 31.015L141.697 38.8222L141.033 38.2896L147.307 30.4827Z" fill="#002899"/>
<path d="M145.021 37.0481C146.547 35.3392 148.431 35.3099 149.68 36.4241C150.366 37.0358 150.725 37.8701 150.702 38.6775L153.379 35.6797L154.014 36.2457L147.344 43.7153L146.709 43.149L147.349 42.4329C146.636 42.551 145.727 42.4569 144.96 41.7721C143.659 40.6125 143.495 38.7567 145.021 37.0481ZM148.573 41.0617L149.405 40.1307C150.2 39.2405 150.215 37.9671 149.222 37.0815C148.198 36.1681 146.853 36.2738 145.656 37.6141C144.459 38.9547 144.435 40.2381 145.53 41.215C146.626 42.1922 147.851 41.8701 148.573 41.0617Z" fill="#002899"/>
<path d="M152.068 46.4197L155.486 43.2243L154.605 42.2826L155.126 41.7954L156.007 42.7368L157.511 41.3312L157.862 42.1677L156.588 43.358L157.667 44.5097L157.146 44.9972L156.068 43.8452L152.74 46.9564C152.209 47.453 152.223 47.8902 152.626 48.3209C152.805 48.5111 152.928 48.5833 153.167 48.7173L152.656 49.1953C152.341 49.0197 152.134 48.8382 151.927 48.6178C151.214 47.8565 151.407 47.038 152.068 46.4197Z" fill="#002899"/>
<path d="M155.597 47.2756C157.168 45.9685 159.226 46.0596 160.542 47.6411C161.859 49.2226 161.574 51.2612 160.003 52.5683C158.431 53.8755 156.373 53.7844 155.057 52.2029C153.74 50.6214 154.025 48.5828 155.597 47.2756ZM159.459 51.9145C160.872 50.739 160.808 49.2042 159.931 48.1497C159.053 47.0955 157.554 46.7537 156.141 47.9292C154.727 49.1047 154.791 50.6397 155.669 51.694C156.547 52.7482 158.045 53.09 159.459 51.9145Z" fill="#002899"/>
<path d="M167.872 52.8202L168.459 53.7152L164.332 62.1921L171.107 57.7548L171.619 58.5352L163.581 63.7999L162.994 62.9046L167.12 54.4277L160.345 58.865L159.833 58.0846L167.872 52.8202Z" fill="#002899"/>
<path d="M167.302 63.3826C169.194 62.3812 171.136 62.9983 171.978 64.5864C172.813 66.162 172.344 67.9158 170.501 68.8917L170.137 69.0841L167.593 64.2837C166.223 65.0402 165.744 66.3647 166.387 67.5764C167.004 68.7401 167.908 68.8356 168.697 68.6824L169.095 69.4338C167.71 69.7793 166.442 69.3796 165.677 67.9367C164.772 66.2279 165.41 64.3843 167.302 63.3826ZM170.369 67.999C171.436 67.4033 171.897 66.1345 171.274 64.9585C170.651 63.783 169.428 63.4678 168.224 63.9499L170.369 67.999Z" fill="#002899"/>
<path d="M169.659 70.8037L174.033 68.9519L174.365 69.7354L170.029 71.5708C169.195 71.924 168.871 72.6723 169.262 73.5941C169.615 74.4281 170.584 74.9564 171.644 75.0294L175.853 73.247L176.185 74.0305L169.865 76.7061L169.533 75.9226L170.595 75.4734C169.884 75.3422 168.887 74.7512 168.454 73.7278C167.918 72.4646 168.307 71.3764 169.659 70.8037Z" fill="#002899"/>
<path d="M179.913 75.0319L180.18 75.8394L174.447 77.734L178.075 79.5256L178.42 80.5673L174.531 78.6451L171.995 82.9943L171.646 81.9393L173.978 77.8892L170.668 78.983L170.401 78.1755L179.913 75.0319Z" fill="#002899"/>
<path d="M175.362 82.2011C177.35 81.7198 179.158 82.708 179.642 84.7082C180.127 86.7085 178.973 88.4138 176.985 88.8951C174.996 89.3764 173.189 88.3878 172.704 86.388C172.22 84.3877 173.374 82.6824 175.362 82.2011ZM176.784 88.0683C178.572 87.6354 179.192 86.2293 178.869 84.8956C178.545 83.5624 177.35 82.5952 175.563 83.028C173.775 83.4608 173.155 84.867 173.478 86.2007C173.801 87.5339 174.996 88.5011 176.784 88.0683ZM180.893 82.5278C181.241 82.4441 181.605 82.6661 181.686 82.9994C181.77 83.346 181.548 83.7104 181.201 83.7946C180.854 83.8783 180.489 83.6563 180.405 83.3097C180.325 82.9764 180.547 82.612 180.893 82.5278ZM181.446 84.8078C181.793 84.7241 182.158 84.9461 182.242 85.2932C182.322 85.6265 182.1 85.9909 181.754 86.0746C181.406 86.1588 181.042 85.9363 180.961 85.603C180.877 85.2564 181.099 84.892 181.446 84.8078Z" fill="#002899"/>
<path d="M183.705 89.3713L183.839 90.2115L173.942 91.7891L173.808 90.949L183.705 89.3713Z" fill="#002899"/>
<path d="M184.124 92.075L184.239 92.9177L174.313 94.2682L174.198 93.4255L184.124 92.075Z" fill="#002899"/>
<path d="M181.39 95.3416L181.452 96.1894L180.302 96.2726C180.933 96.6258 181.685 97.5062 181.765 98.6143C181.864 99.9817 181.145 100.886 179.763 100.986L174.946 101.334L174.885 100.487L179.578 100.147C180.482 100.082 181.029 99.4785 180.957 98.4801C180.895 97.6185 180.163 96.8187 179.166 96.3548L174.609 96.684L174.548 95.8362L181.39 95.3416Z" fill="#002899"/>
<path d="M176.388 106.49L181.066 106.659L181.112 105.371L181.825 105.396L181.779 106.685L183.836 106.759L183.49 107.598L181.748 107.535L181.691 109.111L180.978 109.086L181.035 107.509L176.48 107.345C175.754 107.319 175.453 107.637 175.433 108.227C175.423 108.487 175.459 108.626 175.532 108.889L174.832 108.864C174.735 108.517 174.718 108.242 174.729 107.941C174.766 106.899 175.483 106.458 176.388 106.49Z" fill="#002899"/>
<path d="M178.273 109.61C180.306 109.824 181.675 111.361 181.46 113.406C181.244 115.452 179.585 116.67 177.551 116.456C175.518 116.242 174.149 114.705 174.364 112.66C174.58 110.614 176.239 109.396 178.273 109.61ZM177.641 115.61C179.469 115.803 180.525 114.687 180.668 113.323C180.812 111.959 180.012 110.648 178.184 110.455C176.355 110.263 175.299 111.379 175.156 112.743C175.012 114.107 175.812 115.418 177.641 115.61Z" fill="#002899"/>
<path d="M174.664 121.134L179.238 122.121L179.51 120.861L180.208 121.012L179.936 122.272L181.948 122.706L181.46 123.471L179.756 123.103L179.423 124.645L178.726 124.494L179.059 122.953L174.605 121.992C173.894 121.838 173.543 122.099 173.418 122.676C173.363 122.93 173.375 123.073 173.4 123.345L172.716 123.197C172.681 122.839 172.712 122.565 172.776 122.27C172.996 121.251 173.779 120.943 174.664 121.134Z" fill="#002899"/>
<path d="M182.13 126.962L181.895 127.78L177.78 126.597C178.25 127.247 178.614 128.264 178.273 129.451C177.891 130.782 176.775 131.333 175.483 130.961L170.932 129.654L171.167 128.837L175.771 130.159C176.641 130.409 177.307 129.93 177.572 129.007C177.83 128.111 177.461 127.062 176.817 126.321L172.266 125.014L172.501 124.197L182.13 126.962Z" fill="#002899"/>
<path d="M173.781 131.986C175.78 132.753 176.592 134.621 175.948 136.299C175.309 137.964 173.679 138.765 171.731 138.018L171.346 137.87L173.293 132.798C171.822 132.264 170.509 132.774 170.017 134.055C169.546 135.285 170.069 136.029 170.703 136.522L170.398 137.316C169.226 136.499 168.694 135.282 169.279 133.758C169.972 131.952 171.782 131.22 173.781 131.986ZM172.318 137.332C173.468 137.743 174.728 137.257 175.205 136.014C175.682 134.772 175.115 133.644 173.96 133.054L172.318 137.332Z" fill="#002899"/>
<path d="M175.445 144.52L174.95 145.374L167.209 143.381L166.227 143.05L167.003 143.737L172.563 149.492L172.096 150.299L164.334 148.341L163.352 148.011L164.128 148.697L169.709 154.417L169.214 155.272L162.292 148.062L162.855 147.089L171.178 149.229L165.18 143.078L165.744 142.105L175.445 144.52Z" fill="#002899"/>
<path d="M163.473 152.459C165.095 153.704 165.459 155.731 164.204 157.362C162.95 158.994 160.897 159.165 159.275 157.92C157.653 156.674 157.29 154.648 158.544 153.016C159.799 151.384 161.852 151.213 163.473 152.459ZM159.794 157.245C161.252 158.365 162.737 157.966 163.573 156.877C164.409 155.79 164.414 154.253 162.955 153.134C161.496 152.013 160.012 152.413 159.176 153.501C158.339 154.589 158.335 156.125 159.794 157.245Z" fill="#002899"/>
<path d="M160.766 161.334L160.19 161.961L159.433 161.265C159.625 161.907 159.559 162.852 158.974 163.488C158.779 163.701 158.628 163.804 158.494 163.849L158.06 163.246C158.155 163.184 158.257 163.092 158.415 162.92C158.917 162.374 159.01 161.38 158.603 160.504L155.136 157.323L155.711 156.697L160.766 161.334Z" fill="#002899"/>
<path d="M159.736 167.009L159.13 167.606L152.099 160.474L152.705 159.878L159.736 167.009Z" fill="#002899"/>
<path d="M153.475 164.007C154.955 165.756 154.722 167.625 153.444 168.706C152.741 169.3 151.864 169.538 151.067 169.403L153.665 172.471L153.016 173.021L146.543 165.377L147.193 164.828L147.814 165.561C147.796 164.839 148.016 163.952 148.802 163.287C150.133 162.162 151.994 162.259 153.475 164.007ZM149.002 166.964L149.808 167.917C150.58 168.828 151.839 169.02 152.856 168.161C153.904 167.275 153.986 165.929 152.825 164.557C151.664 163.185 150.395 162.982 149.274 163.93C148.153 164.878 148.301 166.136 149.002 166.964Z" fill="#002899"/>
<path d="M143.12 169.503L145.613 173.463L146.705 172.777L147.085 173.38L145.993 174.067L147.089 175.809L146.201 175.994L145.272 174.52L143.936 175.36L143.556 174.756L144.892 173.916L142.465 170.061C142.078 169.446 141.646 169.377 141.146 169.691C140.926 169.83 140.831 169.938 140.654 170.146L140.282 169.554C140.513 169.278 140.731 169.109 140.987 168.949C141.87 168.393 142.638 168.737 143.12 169.503Z" fill="#002899"/>
<path d="M141.578 172.82C142.518 174.635 141.986 176.624 140.157 177.569C138.328 178.514 136.397 177.798 135.457 175.982C134.518 174.167 135.05 172.178 136.879 171.232C138.708 170.287 140.639 171.004 141.578 172.82ZM136.213 175.592C137.058 177.224 138.572 177.492 139.791 176.863C141.01 176.232 141.667 174.843 140.822 173.21C139.978 171.577 138.464 171.309 137.244 171.939C136.025 172.569 135.369 173.959 136.213 175.592Z" fill="#002899"/>
<path d="M133.553 183.586L132.554 183.971L125.132 178.157L128.046 185.709L127.175 186.044L123.717 177.085L124.716 176.699L132.139 182.514L129.224 174.962L130.096 174.626L133.553 183.586Z" fill="#002899"/>
<path d="M123.368 180.817C123.986 182.866 123.005 184.652 121.284 185.171C119.576 185.686 117.943 184.889 117.341 182.893L117.222 182.498L122.426 180.928C121.948 179.439 120.739 178.714 119.425 179.111C118.163 179.491 117.895 180.36 117.894 181.163L117.079 181.409C117.007 179.983 117.645 178.817 119.208 178.345C121.062 177.786 122.749 178.768 123.368 180.817ZM118.243 182.935C118.622 184.097 119.779 184.794 121.054 184.409C122.329 184.025 122.874 182.886 122.633 181.612L118.243 182.935Z" fill="#002899"/>
<path d="M115.633 181.712L116.696 186.337L115.867 186.528L114.813 181.943C114.61 181.061 113.93 180.612 112.954 180.836C112.071 181.039 111.382 181.9 111.126 182.93L112.149 187.381L111.32 187.571L109.784 180.888L110.613 180.698L110.871 181.821C111.124 181.143 111.88 180.266 112.963 180.018C114.3 179.711 115.305 180.282 115.633 181.712Z" fill="#002899"/>
<path d="M109.813 191.064L108.974 191.201L107.998 185.247L105.66 188.548L104.577 188.725L107.084 185.188L103.183 182.005L104.28 181.825L107.918 184.76L107.354 181.322L108.194 181.185L109.813 191.064Z" fill="#002899"/>
<path d="M103.466 185.444C103.667 187.479 102.437 189.13 100.387 189.332C98.3383 189.534 96.8088 188.155 96.6081 186.121C96.4069 184.086 97.6372 182.435 99.6861 182.233C101.736 182.03 103.265 183.41 103.466 185.444ZM97.4548 186.037C97.6356 187.866 98.943 188.675 100.309 188.54C101.675 188.405 102.799 187.357 102.619 185.528C102.438 183.698 101.13 182.889 99.7648 183.024C98.3981 183.159 97.274 184.208 97.4548 186.037ZM100.038 191.104C100.073 191.459 99.8025 191.789 99.4471 191.824C99.1059 191.858 98.7755 191.587 98.7403 191.232C98.7056 190.877 98.9762 190.547 99.3179 190.513C99.6728 190.478 100.003 190.749 100.038 191.104ZM102.374 190.873C102.41 191.229 102.139 191.558 101.797 191.592C101.442 191.627 101.111 191.357 101.077 191.001C101.042 190.647 101.312 190.316 101.668 190.281C102.009 190.248 102.339 190.519 102.374 190.873Z" fill="#002899"/>
<path d="M95.4243 192.718L94.5739 192.755L94.1373 182.753L94.9871 182.716L95.4243 192.718Z" fill="#002899"/>
<path d="M92.6271 192.817L91.7758 192.831L91.6129 182.817L92.4637 182.803L92.6271 192.817Z" fill="#002899"/>
<path d="M89.7437 189.718L88.8928 189.685L88.9373 188.533C88.5164 189.121 87.5573 189.771 86.446 189.728C85.0743 189.676 84.2541 188.862 84.3072 187.477L84.4926 182.651L85.3429 182.684L85.1621 187.386C85.1274 188.291 85.6672 188.902 86.6687 188.94C87.5328 188.974 88.4092 188.335 88.9812 187.395L89.1564 182.83L90.0067 182.863L89.7437 189.718Z" fill="#002899"/>
<path d="M79.2012 183.536L78.5316 188.165L79.8084 188.349L79.7063 189.055L78.4295 188.87L78.1353 190.906L77.3381 190.473L77.5873 188.749L76.0256 188.523L76.1277 187.817L77.6895 188.043L78.3411 183.537C78.4453 182.817 78.1604 182.485 77.5766 182.401C77.3187 182.363 77.1767 182.385 76.9071 182.429L77.0072 181.736C77.3621 181.677 77.6379 181.689 77.9367 181.732C78.9688 181.881 79.3304 182.64 79.2012 183.536Z" fill="#002899"/>
<path d="M75.878 185.08C75.4357 187.075 73.7535 188.262 71.7433 187.817C69.7337 187.372 68.7102 185.586 69.1525 183.591C69.5948 181.596 71.2776 180.409 73.2872 180.854C75.2968 181.299 76.3208 183.085 75.878 185.08ZM69.9829 183.775C69.5851 185.569 70.5759 186.744 71.9159 187.041C73.2555 187.337 74.6498 186.69 75.0476 184.896C75.4454 183.102 74.4547 181.927 73.1151 181.631C71.775 181.334 70.3808 181.98 69.9829 183.775Z" fill="#002899"/>
<path d="M64.8713 180.138L63.285 184.538L64.4985 184.975L64.2569 185.646L63.0429 185.209L62.3453 187.145L61.6518 186.56L62.2427 184.921L60.7575 184.386L60.9996 183.715L62.4842 184.25L64.0291 179.966C64.2753 179.282 64.0633 178.9 63.5082 178.7C63.2631 178.611 63.1195 178.603 62.8463 178.592L63.0838 177.934C63.4438 177.947 63.7115 178.015 63.9954 178.117C64.9765 178.47 65.1782 179.286 64.8713 180.138Z" fill="#002899"/>
<path d="M57.9716 186.701L57.1989 186.345L58.989 182.459C58.2765 182.825 57.2148 183.031 56.0927 182.515C54.8338 181.936 54.458 180.751 55.0203 179.531L56.9998 175.233L57.7724 175.589L55.77 179.936C55.3915 180.758 55.7649 181.489 56.6377 181.89C57.4849 182.28 58.5773 182.073 59.4077 181.549L61.3872 177.251L62.1599 177.607L57.9716 186.701Z" fill="#002899"/>
<path d="M54.2501 177.672C53.1398 179.502 51.1552 179.968 49.6175 179.036C48.0915 178.111 47.5936 176.365 48.6758 174.582L48.8892 174.23L53.5377 177.047C54.3252 175.696 54.0566 174.313 52.8824 173.602C51.7558 172.919 50.93 173.301 50.332 173.837L49.6042 173.396C50.6164 172.389 51.9106 172.082 53.3073 172.929C54.9625 173.932 55.3609 175.842 54.2501 177.672ZM49.2467 175.281C48.6369 176.34 48.8918 177.665 50.0307 178.355C51.169 179.046 52.3809 178.689 53.1674 177.657L49.2467 175.281Z" fill="#002899"/>
<path d="M41.3527 176.817L40.6301 176.143L44.3051 169.046L44.847 168.163L44.0038 168.765L37.1466 172.897L36.4637 172.261L40.1087 165.136L40.651 164.253L39.8078 164.855L32.9807 169.015L32.2576 168.341L40.8374 163.208L41.6607 163.975L37.7129 171.606L45.0538 167.137L45.8771 167.904L41.3527 176.817Z" fill="#002899"/>
<path d="M36.307 163.328C34.7044 164.597 32.6493 164.457 31.371 162.844C30.0927 161.231 30.4257 159.2 32.0288 157.931C33.6314 156.662 35.6859 156.802 36.9647 158.415C38.243 160.027 37.9096 162.059 36.307 163.328ZM32.5568 158.598C31.1156 159.739 31.1427 161.275 31.9951 162.35C32.8469 163.425 34.3372 163.803 35.7784 162.661C37.2201 161.52 37.193 159.984 36.3407 158.909C35.4883 157.834 33.9986 157.456 32.5568 158.598Z" fill="#002899"/>
<path d="M28.3588 158.538L27.8915 157.827L28.7516 157.263C28.082 157.292 27.1822 156.997 26.7072 156.275C26.5494 156.035 26.4856 155.863 26.4754 155.722L27.1658 155.449C27.2031 155.556 27.267 155.678 27.3951 155.873C27.8017 156.492 28.7434 156.825 29.6923 156.645L33.6252 154.063L34.092 154.774L28.3588 158.538Z" fill="#002899"/>
<path d="M23.1108 156.177L22.6777 155.445L31.299 150.345L31.7326 151.077L23.1108 156.177Z" fill="#002899"/>
<path d="M27.5003 150.798C25.4468 151.816 23.6869 151.143 22.9418 149.643C22.5332 148.82 22.5113 147.912 22.8325 147.17L19.2295 148.957L18.851 148.195L27.8277 143.742L28.2061 144.504L27.3456 144.931C28.0509 145.087 28.8604 145.512 29.3179 146.434C30.0932 147.995 29.5539 149.779 27.5003 150.798ZM25.6975 145.749L24.5786 146.304C23.5087 146.835 23.0204 148.011 23.6123 149.203C24.2231 150.433 25.5111 150.835 27.1219 150.035C28.7327 149.236 29.2337 148.054 28.5805 146.739C27.9273 145.423 26.6689 145.267 25.6975 145.749Z" fill="#002899"/>
<path d="M24.6256 139.493L20.185 140.97L20.592 142.193L19.9148 142.418L19.5078 141.195L17.5543 141.844L17.585 140.938L19.2392 140.388L18.7407 138.891L19.4179 138.666L19.9164 140.163L24.24 138.725C24.93 138.496 25.0995 138.092 24.9131 137.532C24.8309 137.285 24.7487 137.168 24.5883 136.947L25.2522 136.726C25.4647 137.016 25.5775 137.268 25.673 137.554C26.0019 138.544 25.4851 139.207 24.6256 139.493Z" fill="#002899"/>
<path d="M21.7467 137.202C19.755 137.667 17.9563 136.664 17.4885 134.66C17.0201 132.657 18.1886 130.961 20.1804 130.497C22.1716 130.032 23.9703 131.035 24.4387 133.039C24.9065 135.043 23.738 136.738 21.7467 137.202ZM20.3739 131.325C18.5829 131.743 17.9517 133.143 18.2632 134.479C18.5752 135.815 19.7621 136.792 21.5532 136.374C23.3442 135.956 23.9754 134.555 23.6634 133.22C23.3514 131.884 22.165 130.907 20.3739 131.325Z" fill="#002899"/>
<path d="M13.3645 126.296L13.3037 125.228L21.1119 119.946L13.0285 120.408L12.9753 119.477L22.5659 118.93L22.6272 119.997L14.8185 125.279L22.9025 124.818L22.9556 125.749L13.3645 126.296Z" fill="#002899"/>
<path d="M19.1646 117.395C17.0283 117.259 15.6974 115.717 15.8123 113.924C15.9262 112.145 17.2438 110.896 19.3255 111.03L19.7361 111.056L19.3883 116.475C20.951 116.548 22.0526 115.67 22.1405 114.302C22.2247 112.988 21.5036 112.433 20.7519 112.151L20.8065 111.303C22.1675 111.734 23.0378 112.738 22.9336 114.366C22.81 116.296 21.3004 117.532 19.1646 117.395ZM18.9695 111.858C17.7489 111.808 16.6918 112.647 16.6065 113.975C16.5212 115.302 17.3981 116.21 18.6764 116.43L18.9695 111.858Z" fill="#002899"/>
<path d="M21.0649 109.843L16.3874 109.026L16.5339 108.189L21.1707 108.999C22.0629 109.154 22.7411 108.702 22.9132 107.715C23.0689 106.824 22.5419 105.855 21.6921 105.219L17.1907 104.433L17.3373 103.595L24.096 104.776L23.9494 105.614L22.8141 105.415C23.3401 105.911 23.8554 106.947 23.6644 108.042C23.428 109.393 22.5113 110.096 21.0649 109.843Z" fill="#002899"/>
<path d="M14.8093 100.592L15.0386 99.773L20.853 101.401L18.8444 97.8906L19.1406 96.834L21.2922 100.598L25.8257 98.4071L25.526 99.4764L21.329 101.535L24.6853 102.475L24.456 103.293L14.8093 100.592Z" fill="#002899"/>
<path d="M18.2469 93.7415C17.9144 93.6118 17.7428 93.2214 17.8679 92.9018C17.9971 92.5696 18.3883 92.3981 18.7208 92.5277C19.0533 92.6573 19.2243 93.0483 19.0951 93.3801C18.97 93.6996 18.5793 93.8711 18.2469 93.7415ZM19.0997 91.5569C18.7673 91.4273 18.5957 91.0363 18.7254 90.7045C18.85 90.385 19.2412 90.2135 19.5737 90.3432C19.9061 90.4728 20.0772 90.8633 19.9526 91.1828C19.8229 91.5151 19.4322 91.6866 19.0997 91.5569ZM22.593 97.1729C20.688 96.4303 19.7728 94.5867 20.521 92.6701C21.2692 90.754 23.1915 90.017 25.0964 90.7597C27.0014 91.5023 27.9166 93.3459 27.1684 95.2625C26.4202 97.1786 24.4974 97.9156 22.593 97.1729ZM24.7875 91.5518C23.0741 90.8837 21.761 91.682 21.2626 92.9595C20.7636 94.2371 21.189 95.7132 22.9019 96.3808C24.6149 97.0489 25.9284 96.2506 26.4268 94.9731C26.9258 93.6955 26.5004 92.2194 24.7875 91.5518Z" fill="#002899"/>
<path d="M19.9051 86.5202L20.279 85.7561L29.2791 90.1574L28.9053 90.9214L19.9051 86.5202Z" fill="#002899"/>
<path d="M21.2141 83.9406L21.6185 83.1928L30.4323 87.955L30.0278 88.7032L21.2141 83.9406Z" fill="#002899"/>
<path d="M25.3707 82.8708L25.8298 82.1547L26.8007 82.7774C26.507 82.1164 26.4335 80.9603 27.0341 80.0252C27.7756 78.8702 28.8935 78.5767 30.0605 79.325L34.1278 81.9332L33.6681 82.6487L29.7051 80.1074C28.9426 79.6184 28.1418 79.7736 27.6004 80.6163C27.1337 81.3441 27.2399 82.4231 27.7598 83.3919L31.6074 85.8592L31.1478 86.5753L25.3707 82.8708Z" fill="#002899"/>
<path d="M36.1221 77.0087L32.5466 73.9927L31.7147 74.9778L31.1693 74.5179L32.0012 73.5328L30.4282 72.2063L31.2183 71.7602L32.5497 72.8831L33.5675 71.678L34.113 72.1379L33.0951 73.343L36.5761 76.2794C37.1323 76.7484 37.5648 76.6826 37.9453 76.2319C38.1133 76.0328 38.1705 75.9016 38.2757 75.6495L38.8104 76.1002C38.6731 76.433 38.5168 76.6601 38.3222 76.8908C37.6496 77.6876 36.8141 77.5926 36.1221 77.0087Z" fill="#002899"/>
<path d="M36.572 73.371C35.1237 71.9281 35.0236 69.8727 36.4765 68.4155C37.9295 66.9583 39.9871 67.0522 41.435 68.4946C42.8833 69.937 42.9839 71.9929 41.5305 73.4502C40.0775 74.9069 38.0204 74.8135 36.572 73.371ZM40.8344 69.0969C39.5321 67.7994 38.0091 68.0056 37.0403 68.9769C36.0715 69.9482 35.8703 71.4713 37.1726 72.7688C38.4749 74.0657 39.9983 73.86 40.9666 72.8882C41.9355 71.9169 42.1367 70.3943 40.8344 69.0969Z" fill="#002899"/>
<path d="M46.6554 66.7459L43.7903 63.0473L42.7699 63.8366L42.3328 63.2726L43.3532 62.4833L42.0928 60.8563L42.9589 60.585L44.0258 61.9626L45.2739 60.997L45.7111 61.561L44.4629 62.5266L47.2524 66.1273C47.6978 66.7026 48.1349 66.7286 48.6017 66.3677C48.8075 66.208 48.8913 66.0916 49.047 65.867L49.4755 66.4198C49.2712 66.7168 49.071 66.9062 48.8325 67.091C48.0077 67.7295 47.21 67.4615 46.6554 66.7459Z" fill="#002899"/>
<path d="M44.7847 57.4251L45.4971 56.9599L47.8397 60.5429C47.9082 59.7444 48.2978 58.7358 49.332 58.0606C50.4928 57.3026 51.6971 57.6142 52.4325 58.7397L55.0233 62.7017L54.3109 63.167L51.6905 59.159C51.1946 58.401 50.3769 58.3288 49.5726 58.8543C48.7912 59.3644 48.3857 60.3995 48.3877 61.3813L50.9785 65.3433L50.2661 65.8088L44.7847 57.4251Z" fill="#002899"/>
<path d="M54.412 59.0765C53.4284 57.1755 54.0652 55.2403 55.6627 54.415C57.248 53.596 58.9981 54.0817 59.9562 55.9339L60.1452 56.2994L55.317 58.7943C56.0601 60.1709 57.3802 60.6624 58.5998 60.0323C59.7703 59.4274 59.8745 58.5243 59.729 57.7347L60.4848 57.344C60.8168 58.7323 60.4041 59.9958 58.9532 60.7453C57.2337 61.6337 55.3956 60.9776 54.412 59.0765ZM59.0615 56.0564C58.4762 54.9843 57.2112 54.5107 56.0284 55.1219C54.8456 55.7328 54.5182 56.9522 54.9891 58.1606L59.0615 56.0564Z" fill="#002899"/>
<path d="M61.6768 48.5634L62.6216 48.2758L66.9253 55.0083L67.4182 55.9191L67.3191 54.8884L67.1766 46.8893L68.0693 46.6177L72.4124 53.338L72.9052 54.2491L72.8061 53.2183L72.6243 45.2312L73.5696 44.9436L73.7162 54.9341L72.6401 55.2615L68.0106 48.0259L68.2031 56.612L67.1265 56.9397L61.6768 48.5634Z" fill="#002899"/>
<path d="M75.8688 50.936C75.5609 48.9158 76.7013 47.2024 78.7364 46.8926C80.7711 46.5828 82.3706 47.8789 82.6786 49.8991C82.9865 51.9193 81.8461 53.6328 79.811 53.9426C77.7763 54.2524 76.1768 52.9562 75.8688 50.936ZM81.8374 50.0272C81.5606 48.2104 80.2129 47.4724 78.8564 47.6789C77.4995 47.8856 76.4326 48.9911 76.7099 50.8079C76.9867 52.6247 78.3345 53.3628 79.6909 53.1563C81.0479 52.9496 82.1147 51.844 81.8374 50.0272Z" fill="#002899"/>
<path d="M83.9936 46.4056L84.8429 46.3549L84.9047 47.3818C85.2127 46.7861 85.9175 46.153 86.7806 46.1012C87.0681 46.0841 87.2489 46.1145 87.376 46.1754L87.2688 46.9102C87.158 46.8895 87.0201 46.8839 86.7872 46.8979C86.0472 46.9423 85.2888 47.5923 84.9722 48.5047L85.2541 53.2015L84.4048 53.2525L83.9936 46.4056Z" fill="#002899"/>
<path d="M88.6855 43.0413L89.5363 43.0339L89.6237 53.0473L88.7728 53.0547L88.6855 43.0413Z" fill="#002899"/>
<path d="M91.1052 49.5538C91.2569 47.2685 92.7247 46.0877 94.3952 46.1984C95.3129 46.2594 96.1086 46.6971 96.5882 47.3476L96.8548 43.3376L97.7035 43.394L97.0396 53.3845L96.1908 53.3281L96.2542 52.37C95.7654 52.9011 94.9902 53.3857 93.9631 53.3176C92.2242 53.202 90.953 51.8395 91.1052 49.5538ZM96.3762 50.5361L96.459 49.2907C96.5381 48.1002 95.7664 47.0868 94.4381 46.9985C93.0689 46.9076 92.0735 47.8174 91.954 49.6102C91.835 51.4031 92.6057 52.4302 94.0709 52.5275C95.5361 52.6247 96.3042 51.6174 96.3762 50.5361Z" fill="#002899"/>
<path d="M102.355 52.7773L103.299 48.1951L102.035 47.9348L102.179 47.2361L103.443 47.4961L103.859 45.4805L104.629 45.9611L104.277 47.6679L105.823 47.9861L105.679 48.6849L104.133 48.3666L103.214 52.8281C103.067 53.5404 103.332 53.889 103.91 54.0079C104.165 54.0605 104.308 54.0477 104.58 54.0197L104.439 54.7051C104.08 54.7434 103.806 54.7151 103.51 54.6541C102.488 54.4438 102.172 53.6644 102.355 52.7773Z" fill="#002899"/>
<path d="M105.787 51.4304C106.381 49.4742 108.151 48.42 110.121 49.0182C112.091 49.6161 112.975 51.476 112.381 53.4319C111.786 55.3881 110.017 56.4423 108.046 55.8441C106.076 55.2459 105.193 53.3862 105.787 51.4304ZM111.566 53.1849C112.101 51.4258 111.203 50.1783 109.89 49.7794C108.576 49.3808 107.136 49.9185 106.601 51.6774C106.067 53.4365 106.964 54.684 108.278 55.0828C109.591 55.4815 111.031 54.9438 111.566 53.1849Z" fill="#002899"/>
<path d="M119.545 49.7266L120.492 50.2266L120.976 59.6359L124.761 52.4836L125.586 52.9197L121.095 61.4053L120.149 60.9051L119.664 51.4959L115.88 58.648L115.054 58.2122L119.545 49.7266Z" fill="#002899"/>
<path d="M124.189 59.3231C125.463 57.6025 127.482 57.3202 128.928 58.389C130.362 59.4496 130.698 61.2335 129.457 62.9102L129.212 63.241L124.842 60.0103C123.933 61.2838 124.074 62.6851 125.178 63.501C126.238 64.2842 127.095 63.9795 127.74 63.5005L128.424 64.0061C127.323 64.9161 126.007 65.1034 124.694 64.1326C123.138 62.9822 122.916 61.0437 124.189 59.3231ZM128.953 62.1617C129.657 61.1636 129.525 59.8199 128.454 59.0286C127.384 58.2374 126.144 58.4814 125.266 59.4366L128.953 62.1617Z" fill="#002899"/>
<path d="M129.489 65.035L132.824 61.6577L133.43 62.2549L130.124 65.6031C129.487 66.2473 129.474 67.0619 130.186 67.7652C130.831 68.4012 131.929 68.5201 132.935 68.1838L136.145 64.933L136.751 65.5307L131.931 70.4112L131.325 69.814L132.135 68.9938C131.428 69.1438 130.281 68.9769 129.49 68.1965C128.514 67.2334 128.458 66.0793 129.489 65.035Z" fill="#002899"/>
<path d="M140.763 65.3398L141.289 66.0089L136.538 69.7354L140.559 70.1902L141.238 71.0533L136.927 70.5638L136.017 75.5148L135.331 74.6409L136.15 70.0401L133.407 72.1915L132.882 71.5223L140.763 65.3398Z" fill="#002899"/>
<path d="M138.954 73.6742C140.704 72.6182 142.724 73.0168 143.788 74.7777C144.852 76.5386 144.265 78.5114 142.515 79.5674C140.765 80.624 138.744 80.2253 137.68 78.4644C136.616 76.7035 137.204 74.7308 138.954 73.6742ZM142.075 78.8396C143.649 77.8897 143.816 76.3625 143.107 75.1886C142.397 74.0147 140.967 73.4522 139.394 74.4021C137.82 75.3525 137.652 76.8791 138.361 78.053C139.071 79.227 140.501 79.7899 142.075 78.8396ZM144.325 72.3232C144.63 72.1384 145.044 72.241 145.222 72.5345C145.407 72.8397 145.304 73.2537 144.999 73.4384C144.693 73.6227 144.279 73.5201 144.095 73.2149C143.917 72.9214 144.019 72.5074 144.325 72.3232ZM145.538 74.3306C145.843 74.1458 146.258 74.2484 146.442 74.5537C146.619 74.8471 146.517 75.2611 146.212 75.4459C145.907 75.6301 145.492 75.5275 145.315 75.234C145.13 74.9288 145.232 74.5149 145.538 74.3306Z" fill="#002899"/>
<path d="M149.063 78.1714L149.427 78.9401L140.369 83.225L140.005 82.4563L149.063 78.1714Z" fill="#002899"/>
<path d="M150.282 80.8695L150.607 81.6555L141.345 85.4805L141.02 84.6945L150.282 80.8695Z" fill="#002899"/>
<path d="M148.527 84.8772L148.774 85.6908L147.671 86.0246C148.364 86.2303 149.29 86.9244 149.613 87.9876C150.01 89.3004 149.508 90.3406 148.181 90.7418L143.558 92.1398L143.311 91.3262L147.817 89.9639C148.683 89.7016 149.085 88.9926 148.795 88.0346C148.545 87.2072 147.655 86.5881 146.58 86.3543L142.206 87.6768L141.96 86.8627L148.527 84.8772Z" fill="#002899"/>
<path d="M145.819 96.8514L150.472 96.3481L150.333 95.066L151.043 94.9894L151.181 96.2716L153.228 96.05L153.006 96.9295L151.273 97.1168L151.443 98.6853L150.733 98.7618L150.563 97.1934L146.033 97.6833C145.31 97.7614 145.059 98.1197 145.122 98.7062C145.15 98.9655 145.206 99.0972 145.316 99.3478L144.62 99.4228C144.474 99.0936 144.417 98.8241 144.385 98.524C144.272 97.4874 144.918 96.9484 145.819 96.8514Z" fill="#002899"/>
<path d="M148.174 99.7398C150.218 99.7837 151.712 101.202 151.668 103.259C151.623 105.317 150.07 106.67 148.025 106.626C145.98 106.582 144.486 105.163 144.531 103.106C144.575 101.048 146.128 99.6954 148.174 99.7398ZM148.043 105.775C149.882 105.815 150.842 104.614 150.872 103.242C150.901 101.87 149.994 100.629 148.155 100.59C146.316 100.55 145.357 101.751 145.327 103.123C145.297 104.495 146.204 105.736 148.043 105.775Z" fill="#002899"/>
<path d="M145.149 111.396L149.706 112.462L150 111.207L150.695 111.369L150.401 112.625L152.406 113.094L151.905 113.85L150.207 113.453L149.848 114.989L149.153 114.827L149.513 113.291L145.075 112.252C144.366 112.087 144.011 112.342 143.876 112.916C143.817 113.17 143.825 113.313 143.846 113.586L143.165 113.426C143.136 113.067 143.172 112.794 143.241 112.5C143.478 111.485 144.266 111.19 145.149 111.396Z" fill="#002899"/>
<path d="M152.37 117.746L152.077 118.544L148.058 117.069C148.48 117.75 148.77 118.791 148.344 119.949C147.866 121.249 146.714 121.718 145.453 121.255L141.009 119.623L141.303 118.824L145.797 120.475C146.648 120.788 147.346 120.357 147.678 119.456C147.999 118.581 147.706 117.509 147.118 116.724L142.675 115.092L142.968 114.294L152.37 117.746Z" fill="#002899"/>
<path d="M143.612 122.203C145.492 123.229 146.049 125.189 145.187 126.766C144.333 128.332 142.61 128.909 140.779 127.91L140.417 127.713L143.021 122.943C141.634 122.219 140.265 122.55 139.607 123.755C138.976 124.911 139.396 125.718 139.958 126.29L139.551 127.037C138.498 126.072 138.133 124.794 138.915 123.361C139.842 121.663 141.733 121.178 143.612 122.203ZM141.451 127.307C142.537 127.868 143.85 127.553 144.488 126.385C145.126 125.217 144.715 124.023 143.648 123.285L141.451 127.307Z" fill="#002899"/>
<path d="M143.13 135.324L142.461 136.051L135.335 132.428L134.448 131.893L135.057 132.732L139.238 139.555L138.607 140.241L131.453 136.649L130.566 136.114L131.174 136.952L135.383 143.745L134.714 144.472L129.519 135.934L130.28 135.106L137.942 138.997L133.42 131.693L134.182 130.866L143.13 135.324Z" fill="#002899"/>
<path d="M129.613 140.463C130.841 142.097 130.648 144.146 129.002 145.382C127.356 146.618 125.333 146.232 124.105 144.599C122.877 142.965 123.07 140.915 124.716 139.68C126.361 138.444 128.385 138.829 129.613 140.463ZM124.785 144.088C125.889 145.558 127.427 145.57 128.524 144.746C129.621 143.922 130.037 142.443 128.933 140.974C127.828 139.505 126.291 139.492 125.194 140.316C124.096 141.14 123.681 142.619 124.785 144.088Z" fill="#002899"/>
<path d="M124.493 148.311L123.758 148.74L123.239 147.851C123.234 148.522 122.892 149.405 122.145 149.84C121.896 149.985 121.722 150.04 121.58 150.043L121.344 149.339C121.452 149.307 121.578 149.25 121.779 149.133C122.419 148.759 122.802 147.837 122.672 146.881L120.299 142.818L121.034 142.39L124.493 148.311Z" fill="#002899"/>
<path d="M121.707 153.472L120.945 153.851L116.471 144.892L117.233 144.512L121.707 153.472Z" fill="#002899"/>
<path d="M116.66 148.704C117.478 150.844 116.638 152.531 115.074 153.128C114.215 153.456 113.309 153.391 112.601 153L114.036 156.756L113.241 157.059L109.664 147.703L110.459 147.4L110.803 148.297C111.025 147.61 111.526 146.845 112.488 146.478C114.117 145.856 115.842 146.564 116.66 148.704ZM111.459 150.014L111.905 151.18C112.331 152.296 113.456 152.894 114.7 152.419C115.983 151.929 116.507 150.686 115.865 149.008C115.223 147.329 114.093 146.717 112.721 147.241C111.349 147.765 111.072 149.002 111.459 150.014Z" fill="#002899"/>
<path d="M105.082 150.306L105.934 154.905L107.202 154.67L107.332 155.371L106.064 155.606L106.438 157.629L105.544 157.474L105.227 155.761L103.675 156.048L103.546 155.347L105.097 155.059L104.268 150.582C104.135 149.868 103.759 149.644 103.179 149.752C102.922 149.799 102.795 149.864 102.554 149.993L102.427 149.305C102.744 149.135 103.009 149.058 103.305 149.003C104.331 148.813 104.917 149.416 105.082 150.306Z" fill="#002899"/>
<path d="M102.372 152.868C102.488 154.908 101.19 156.506 99.1345 156.622C97.0795 156.738 95.6096 155.296 95.4942 153.256C95.3788 151.216 96.677 149.617 98.7321 149.502C100.787 149.385 102.257 150.827 102.372 152.868ZM96.3435 153.208C96.4472 155.043 97.7194 155.905 99.0896 155.828C100.46 155.751 101.627 154.751 101.523 152.916C101.419 151.081 100.147 150.218 98.777 150.296C97.4068 150.373 96.2399 151.373 96.3435 153.208Z" fill="#002899"/>
<path d="M89.4332 158.946L88.3872 158.716L85.4103 149.773L83.6683 157.677L82.7567 157.477L84.8235 148.098L85.8695 148.328L88.8464 157.272L90.5884 149.367L91.4995 149.567L89.4332 158.946Z" fill="#002899"/>
<path d="M82.3701 150.846C81.4927 152.798 79.5806 153.504 77.9402 152.767C76.3126 152.036 75.6048 150.365 76.4597 148.462L76.6282 148.087L81.5867 150.314C82.2026 148.876 81.7664 147.537 80.5142 146.975C79.3125 146.435 78.5398 146.915 78.0117 147.52L77.2355 147.172C78.1169 146.049 79.3631 145.586 80.8533 146.255C82.6188 147.048 83.248 148.894 82.3701 150.846ZM77.1124 149.087C76.6364 150.212 77.0521 151.496 78.2666 152.041C79.481 152.586 80.6398 152.084 81.294 150.964L77.1124 149.087Z" fill="#002899"/>
<path d="M75.9807 146.355L73.2749 150.254L72.5758 149.77L75.258 145.905C75.7743 145.161 75.6482 144.356 74.8249 143.785C74.0808 143.269 72.9798 143.34 72.0452 143.844L69.4411 147.597L68.7424 147.112L72.6524 141.478L73.3515 141.962L72.6943 142.909C73.3653 142.64 74.5231 142.608 75.4368 143.241C76.5639 144.022 76.8172 145.149 75.9807 146.355Z" fill="#002899"/>
<path d="M64.5807 147.693L63.976 147.094L68.2246 142.806L64.1782 142.855L63.3984 142.083L67.7358 142.033L68.0213 137.008L68.8114 137.789L68.5724 142.455L71.0248 139.98L71.6294 140.578L64.5807 147.693Z" fill="#002899"/>
<path d="M58.6738 138.951C58.3817 139.156 57.9609 139.082 57.7561 138.789C57.5595 138.508 57.634 138.088 57.9267 137.883C58.2193 137.679 58.6396 137.753 58.8363 138.034C59.041 138.327 58.9665 138.747 58.6738 138.951ZM60.0196 140.874C59.7269 141.079 59.3066 141.004 59.1095 140.723C58.9052 140.431 58.9798 140.011 59.2719 139.806C59.5645 139.602 59.9853 139.676 60.1896 139.968C60.3862 140.249 60.3122 140.67 60.0196 140.874ZM65.2911 139.166C63.6144 140.338 61.5711 140.075 60.3908 138.388C59.2106 136.701 59.6646 134.693 61.3413 133.521C63.0179 132.349 65.0612 132.612 66.2415 134.299C67.4217 135.986 66.9677 137.994 65.2911 139.166ZM61.829 134.218C60.3214 135.272 60.2565 136.807 61.0435 137.932C61.83 139.057 63.2957 139.523 64.8033 138.469C66.3109 137.415 66.3758 135.88 65.5888 134.755C64.8023 133.63 63.3366 133.164 61.829 134.218Z" fill="#002899"/>
<path d="M54.8032 134.895L54.4314 134.13L63.4428 129.752L63.8151 130.517L54.8032 134.895Z" fill="#002899"/>
<path d="M53.4922 131.994L53.1817 131.202L62.5138 127.551L62.8238 128.344L53.4922 131.994Z" fill="#002899"/>
<path d="M55.198 127.678L55.03 126.844L56.1602 126.616C55.4896 126.346 54.6331 125.566 54.414 124.477C54.1434 123.133 54.7424 122.145 56.1014 121.872L60.8372 120.92L61.0047 121.754L56.3905 122.681C55.5024 122.86 55.0346 123.527 55.2322 124.509C55.4028 125.356 56.2296 126.057 57.2771 126.392L61.757 125.492L61.9245 126.325L55.198 127.678Z" fill="#002899"/>
<path d="M59.5747 116.11L54.9299 115.533L54.7705 116.813L54.0627 116.725L54.2215 115.445L52.1782 115.192L52.5964 114.386L54.3262 114.601L54.5208 113.036L55.2291 113.124L55.0346 114.689L59.5569 115.251C60.279 115.34 60.6058 115.049 60.6784 114.464C60.7105 114.205 60.6865 114.063 60.637 113.795L61.3316 113.881C61.3985 114.235 61.3918 114.511 61.3545 114.81C61.2258 115.845 60.4736 116.221 59.5747 116.11Z" fill="#002899"/>
<path d="M57.9492 112.674C56.0018 112.048 54.9748 110.263 55.6045 108.304C56.2342 106.344 58.109 105.491 60.0563 106.115C62.0042 106.741 63.0307 108.525 62.4015 110.485C61.7718 112.444 59.897 113.298 57.9492 112.674ZM59.7964 106.925C58.0447 106.363 56.7822 107.241 56.3624 108.547C55.9426 109.854 56.4579 111.301 58.2096 111.864C59.9608 112.425 61.2233 111.548 61.6431 110.242C62.0629 108.935 61.5476 107.488 59.7964 106.925Z" fill="#002899"/>
<path d="M64.336 102.502L60.3903 99.9863L59.6968 101.073L59.0952 100.69L59.7887 99.6025L58.0533 98.4959L58.777 97.9488L60.2463 98.8854L61.0956 97.5557L61.6972 97.9391L60.8484 99.2692L64.6895 101.718C65.3028 102.109 65.7231 101.987 66.0403 101.489C66.1807 101.269 66.22 101.132 66.2905 100.868L66.8809 101.244C66.789 101.592 66.6644 101.838 66.502 102.093C65.9407 102.972 65.1001 102.989 64.336 102.502Z" fill="#002899"/>
<path d="M59.7611 93.9569L60.3188 93.3148L63.5531 96.1215C63.4004 95.3344 63.4995 94.258 64.3095 93.3255C65.2185 92.2791 66.4621 92.25 67.4784 93.1315L71.0544 96.2348L70.4962 96.8774L66.8789 93.7379C66.1945 93.1443 65.3881 93.2979 64.7579 94.0232C64.1456 94.7276 64.0388 95.8341 64.31 96.7779L67.886 99.8817L67.3278 100.524L59.7611 93.9569Z" fill="#002899"/>
<path d="M69.579 92.8794C68.2516 91.2001 68.509 89.1789 69.9201 88.0652C71.3205 86.9602 73.1314 87.1046 74.424 88.741L74.6794 89.0641L70.4135 92.4307C71.4047 93.6409 72.7944 93.8726 73.8719 93.0223C74.9061 92.2062 74.8367 91.2997 74.5435 90.5524L75.2115 90.0252C75.8014 91.3252 75.6364 92.6436 74.3546 93.6552C72.8352 94.8541 70.9058 94.5591 69.579 92.8794ZM73.5691 89.0314C72.7908 88.0902 71.4584 87.8651 70.4135 88.6899C69.3685 89.5148 69.2792 90.7739 69.9712 91.8708L73.5691 89.0314Z" fill="#002899"/>
<path d="M76.2651 80.4611L77.2171 80.1967L81.3569 87.0326L81.8272 87.9555L81.7537 86.9224L81.8053 78.9207L82.7046 78.6706L86.8837 85.4963L87.3546 86.4186L87.2805 85.3856L87.2928 77.3951L88.2448 77.1302L88.1487 87.1235L87.0645 87.4246L82.6117 80.0778L82.5953 88.6675L81.5111 88.9691L76.2651 80.4611Z" fill="#002899"/>
<path d="M90.8524 83.5103C91.1864 81.4937 92.8033 80.2177 94.8344 80.554C96.866 80.8899 97.9844 82.6186 97.6504 84.6353C97.3164 86.6519 95.6995 87.9274 93.6685 87.5915C91.6374 87.2552 90.5184 85.5269 90.8524 83.5103ZM96.8108 84.4964C97.1111 82.6824 96.0586 81.5631 94.7047 81.339C93.3503 81.115 91.9928 81.8357 91.692 83.6491C91.3917 85.4626 92.4443 86.5825 93.7987 86.8065C95.1526 87.0306 96.5105 86.3099 96.8108 84.4964Z" fill="#002899"/>
<path d="M100.865 82.4869L101.617 82.8861L101.133 83.7946C101.707 83.4465 102.638 83.2735 103.402 83.6787C103.656 83.814 103.795 83.934 103.872 84.0524L103.397 84.6235C103.313 84.548 103.198 84.4714 102.992 84.3622C102.338 84.0146 101.351 84.1744 100.605 84.7879L98.3966 88.9431L97.6448 88.544L100.865 82.4869Z" fill="#002899"/>
<path d="M107.332 82.7518L108.002 83.2766L101.822 91.1593L101.152 90.6346L107.332 82.7518Z" fill="#002899"/>
<path d="M105.344 89.4183C107.126 87.9774 108.99 88.2515 110.043 89.5525C110.621 90.2671 110.841 91.1486 110.689 91.9418L113.815 89.4137L114.35 90.0747L106.562 96.3736L106.027 95.7127L106.773 95.1088C106.051 95.1109 105.169 94.8715 104.521 94.0717C103.424 92.7176 103.562 90.8592 105.344 89.4183ZM108.203 93.9523L109.174 93.1673C110.102 92.4164 110.322 91.1618 109.485 90.1278C108.621 89.0615 107.277 88.9492 105.879 90.0793C104.481 91.2098 104.25 92.4731 105.174 93.6139C106.098 94.7546 107.36 94.6342 108.203 93.9523Z" fill="#002899"/>
<path d="M109.933 100.082L114.363 98.576L113.948 97.3557L114.623 97.1255L115.039 98.3459L116.988 97.6833L116.963 98.5898L115.313 99.1513L115.821 100.644L115.146 100.874L114.638 99.381L110.325 100.848C109.636 101.082 109.469 101.486 109.659 102.044C109.743 102.291 109.827 102.408 109.989 102.628L109.326 102.853C109.112 102.564 108.997 102.313 108.9 102.027C108.564 101.041 109.076 100.374 109.933 100.082Z" fill="#002899"/>
<path d="M113.003 102.643C115.048 102.637 116.575 104.019 116.581 106.076C116.587 108.133 115.068 109.523 113.023 109.529C110.978 109.535 109.45 108.154 109.444 106.096C109.438 104.039 110.957 102.649 113.003 102.643ZM113.02 108.679C114.859 108.673 115.789 107.45 115.785 106.078C115.781 104.707 114.844 103.488 113.005 103.494C111.166 103.499 110.236 104.722 110.24 106.094C110.244 107.466 111.181 108.684 113.02 108.679Z" fill="#002899"/>
<path d="M109.876 110.04C110.271 110.156 110.503 110.582 110.386 110.977C110.27 111.371 109.844 111.604 109.448 111.487C109.053 111.37 108.822 110.944 108.938 110.55C109.054 110.155 109.481 109.923 109.876 110.04Z" fill="#002899"/>
<path d="M109.075 112.47C109.448 112.645 109.613 113.101 109.438 113.473C109.263 113.846 108.807 114.011 108.434 113.836C108.061 113.662 107.896 113.205 108.071 112.833C108.246 112.461 108.702 112.296 109.075 112.47Z" fill="#002899"/>
<path d="M107.921 114.747C108.264 114.975 108.36 115.45 108.133 115.793C107.905 116.136 107.429 116.232 107.086 116.004C106.743 115.777 106.647 115.302 106.875 114.959C107.103 114.616 107.578 114.52 107.921 114.747Z" fill="#002899"/>
</svg>
