<svg width="353" height="200" viewBox="0 0 353 200" fill="none" xmlns="http://www.w3.org/2000/svg">
<path d="M251.889 199.666C227.372 199.666 210.248 182.499 210.248 157.92V157.369C207.815 158.216 205.203 158.676 202.485 158.676H195.417V167.21C195.417 180.256 184.797 190.869 171.744 190.869H156.902C151.346 190.869 146.23 188.945 142.188 185.732C138.146 188.945 133.03 190.869 127.474 190.869H112.633C99.5788 190.869 88.9595 180.256 88.9595 167.21V165.372C80.3572 169.972 70.2522 172.42 59.1623 172.42C24.5254 172.42 0.334487 148.191 0.334487 113.499V56.3755C0.334487 43.3299 10.9539 32.717 24.0076 32.717H40.2828C47.9835 32.717 54.8358 36.4102 59.1623 42.1169C63.4889 36.4102 70.3412 32.717 78.0419 32.717H94.3171C107.371 32.717 117.99 43.3299 117.99 56.3755V78.4907H127.474C129.801 78.4907 132.096 78.8304 134.293 79.49C139.323 77.9616 144.499 77.1888 149.74 77.1888C154.736 77.1888 159.512 77.8461 163.968 79.1168V69.9561C163.968 68.1632 164.171 66.3842 164.569 64.6526C162.974 60.7411 162.146 56.5454 162.146 52.2596C162.146 34.1194 176.913 19.3617 195.063 19.3617C213.213 19.3617 227.98 34.1194 227.98 52.2596C227.98 56.5454 227.152 60.7411 225.557 64.6526C225.823 65.8135 226.003 66.9953 226.092 68.1886C228.544 67.328 231.179 66.859 233.921 66.859H235.093C237.758 66.859 240.383 67.3038 242.897 68.1817L256.292 72.8533L239.664 33.1213C236.6 25.8008 237.398 17.4868 241.799 10.8826C246.198 4.27711 253.565 0.334405 261.504 0.334405H277.908C284.676 0.334405 290.947 3.1866 295.345 7.97953C299.729 3.18082 305.983 0.334405 312.803 0.334405H328.297C336.166 0.334405 343.497 4.22397 347.907 10.7382C352.317 17.2593 353.198 25.5086 350.266 32.8071L313.679 123.892C310.057 132.91 301.434 138.737 291.71 138.737H280.619C279.091 140.346 277.349 141.725 275.443 142.838C275.494 142.871 275.985 143.199 275.985 143.199C282.568 147.597 286.499 154.95 286.499 162.866V174.706C286.499 185.676 279.047 195.133 268.378 197.705C262.526 199.116 257.902 199.666 251.889 199.666Z" fill="#FFA2B5"/>
<path d="M251.889 200C227.174 200 209.914 182.696 209.914 157.92V157.834C207.522 158.615 205.025 159.01 202.485 159.01H195.751V167.21C195.751 180.44 184.982 191.203 171.744 191.203H156.902C151.515 191.203 146.433 189.459 142.188 186.157C137.943 189.459 132.861 191.203 127.475 191.203H112.633C99.3948 191.203 88.6249 180.44 88.6249 167.21V165.927C79.9472 170.458 70.0381 172.754 59.1622 172.754C24.3283 172.754 0 148.388 0 113.499V56.3756C0 43.1459 10.7699 32.3826 24.0077 32.3826H40.2828C47.7126 32.3826 54.5685 35.7254 59.1622 41.5699C63.7562 35.7254 70.6121 32.3826 78.0419 32.3826H94.317C107.555 32.3826 118.324 43.1459 118.324 56.3756V78.1564H127.475C129.789 78.1564 132.082 78.4877 134.293 79.141C139.319 77.6238 144.515 76.8546 149.74 76.8546C154.57 76.8546 159.241 77.4671 163.633 78.676V69.9562C163.633 68.1849 163.83 66.4109 164.22 64.681C162.622 60.7273 161.812 56.5487 161.812 52.2596C161.812 33.9353 176.728 19.0276 195.063 19.0276C213.398 19.0276 228.314 33.9353 228.314 52.2596C228.314 56.5487 227.504 60.7273 225.906 64.6812C226.132 65.6871 226.295 66.7116 226.39 67.7341C228.816 66.9313 231.347 66.5246 233.921 66.5246H235.093C237.795 66.5246 240.458 66.976 243.008 67.8659L255.694 72.2909L239.355 33.2504C236.248 25.8269 237.057 17.3956 241.521 10.6972C245.982 3.99915 253.452 0 261.503 0H277.908C284.503 0 290.837 2.72472 295.345 7.48841C299.833 2.725 306.175 0 312.803 0H328.297C336.277 0 343.711 3.94422 348.184 10.551C352.655 17.1631 353.55 25.5298 350.576 32.9316L313.99 124.017C310.316 133.162 301.571 139.071 291.71 139.071H280.762C279.361 140.529 277.785 141.799 276.068 142.853L276.171 142.921C282.847 147.382 286.833 154.838 286.833 162.866V174.706C286.833 185.83 279.276 195.421 268.456 198.03C262.574 199.448 257.929 200 251.889 200ZM210.582 156.899V157.92C210.582 182.303 227.568 199.331 251.889 199.331C257.872 199.331 262.473 198.784 268.3 197.38C278.818 194.844 286.165 185.52 286.165 174.706V162.866C286.165 155.061 282.29 147.813 275.799 143.477L274.811 142.819L275.274 142.549C277.156 141.451 278.872 140.091 280.376 138.507L280.475 138.402H291.71C301.296 138.402 309.798 132.658 313.369 123.768L349.956 32.6825C352.846 25.4868 351.977 17.3534 347.63 10.9255C343.282 4.50292 336.055 0.668559 328.297 0.668559H312.803C306.24 0.668559 299.967 3.41547 295.593 8.20468L295.346 8.4746L295.099 8.20524C290.703 3.41547 284.438 0.668559 277.908 0.668559H261.503C253.676 0.668559 246.414 4.55619 242.078 11.0678C237.738 17.5795 236.951 25.7756 239.973 32.9924L256.889 73.4161L242.787 68.4973C240.308 67.6318 237.72 67.1932 235.093 67.1932H233.921C231.278 67.1932 228.681 67.6343 226.203 68.504L225.792 68.6485L225.759 68.2135C225.672 67.0475 225.494 65.8747 225.231 64.7273L225.208 64.6244L225.247 64.5264C226.839 60.6244 227.646 56.4971 227.646 52.2596C227.646 34.304 213.029 19.6961 195.063 19.6961C177.097 19.6961 162.48 34.304 162.48 52.2596C162.48 56.4971 163.288 60.6244 164.879 64.5264L164.919 64.6244L164.895 64.7273C164.502 66.4409 164.302 68.2002 164.302 69.9562V79.5599L163.876 79.4384C159.42 78.1675 154.664 77.5231 149.74 77.5231C144.548 77.5231 139.383 78.2924 134.39 79.8098L134.294 79.8392L134.197 79.8101C132.02 79.1565 129.758 78.825 127.475 78.825H117.656V56.3756C117.656 43.5146 107.186 33.0512 94.317 33.0512H78.0419C70.6782 33.0512 63.8941 36.4292 59.4287 42.3189L59.1622 42.6704L58.8957 42.3189C54.4306 36.4292 47.6465 33.0512 40.2828 33.0512H24.0077C11.1388 33.0512 0.66897 43.5146 0.66897 56.3756V113.499C0.66897 147.994 24.7222 172.086 59.1622 172.086C70.133 172.086 80.1051 169.728 88.8018 165.078L89.2939 164.814V167.21C89.2939 180.071 99.7637 190.534 112.633 190.534H127.475C132.796 190.534 137.812 188.783 141.98 185.47L142.188 185.304L142.396 185.47C146.564 188.783 151.58 190.534 156.902 190.534H171.744C184.612 190.534 195.082 180.071 195.082 167.21V158.341H202.485C205.108 158.341 207.683 157.908 210.138 157.053L210.582 156.899Z" fill="#071907"/>
<path d="M338.103 17.3672C335.901 14.1142 332.227 12.1642 328.297 12.1642H312.803C307.921 12.1642 303.539 15.1608 301.77 19.7088L295.612 35.5501L288.819 19.4084C286.973 15.0187 282.673 12.1642 277.909 12.1642H261.504C257.544 12.1642 253.846 14.1442 251.651 17.4388C249.456 20.7335 249.056 24.906 250.584 28.5576L275.015 86.9369L269.89 99.7111C268.041 98.5169 265.843 97.8157 263.478 97.8157H260.732V95.3309C260.732 90.3 257.549 85.8201 252.795 84.1624L238.994 79.3487C237.74 78.9109 236.422 78.6879 235.094 78.6879H233.922C227.385 78.6879 222.085 83.9845 222.085 90.5172V97.8157H221.812C218.97 97.8157 216.362 98.819 214.322 100.489V69.9557C214.322 67.7331 213.708 65.6538 212.641 63.8771C214.854 60.5443 216.144 56.5496 216.144 52.2592C216.144 40.6425 206.687 31.1906 195.063 31.1906C183.439 31.1906 173.983 40.6425 173.983 52.2592C173.983 56.5496 175.273 60.5443 177.485 63.8771C176.418 65.6538 175.804 67.7331 175.804 69.9557V99.9101C169.845 93.026 160.785 89.0183 149.74 89.0183C144.29 89.0183 138.895 90.1204 133.865 92.1905C132.021 91.0064 129.828 90.3202 127.475 90.3202H112.633C110.239 90.3202 108.016 91.0359 106.153 92.2566V56.3761C106.153 49.8434 100.853 44.5468 94.3167 44.5468H78.0414C71.5048 44.5468 66.2049 49.8434 66.2049 56.3761V113.24C66.2049 122.36 62.9406 122.36 59.1619 122.36C55.3832 122.36 52.1189 122.36 52.1189 113.24V56.3761C52.1189 49.8434 46.8191 44.5468 40.2824 44.5468H24.0072C17.4705 44.5468 12.1706 49.8434 12.1706 56.3761V113.5C12.1706 141.667 31.0548 160.591 59.1619 160.591C78.3871 160.591 93.2925 151.734 100.796 137.125V167.21C100.796 173.743 106.096 179.04 112.633 179.04H127.475C134.011 179.04 139.311 173.743 139.311 167.21V128.896C141.208 126.929 143.306 125.689 144.922 125.689C144.966 125.689 145.01 125.689 145.051 125.69C145.06 125.846 145.065 126.023 145.065 126.222V167.21C145.065 173.743 150.365 179.04 156.902 179.04H171.744C178.28 179.04 183.58 173.743 183.58 167.21V146.116C184.849 146.58 186.212 146.846 187.641 146.846H202.485C209.022 146.846 214.322 141.549 214.322 135.017V131.553C216.362 133.222 218.97 134.225 221.812 134.225H222.085V157.92C222.085 175.814 234.063 187.836 251.889 187.836C256.956 187.836 260.673 187.394 265.603 186.205C270.918 184.924 274.663 180.17 274.663 174.706V162.865C274.663 158.915 272.691 155.227 269.406 153.032L269.015 152.771C267.05 151.458 264.757 150.775 262.436 150.775C261.868 150.775 261.298 150.815 260.732 150.898V134.225H263.478C268.487 134.225 272.759 131.111 274.488 126.719C275.141 126.83 275.803 126.908 276.478 126.908H291.71C296.545 126.908 300.894 123.969 302.695 119.486L339.282 28.4005C340.746 24.7547 340.304 20.6214 338.103 17.3672Z" fill="#071907"/>
</svg>
