<svg width="117" height="200" viewBox="0 0 117 200" fill="none" xmlns="http://www.w3.org/2000/svg">
<path d="M43.0677 200.002C40.771 200.002 38.4456 199.775 36.1554 199.326C29.9232 198.105 23.7039 194.61 18.6433 189.489C13.5891 184.372 10.1657 178.111 9.00701 171.86C7.24492 162.36 9.3207 152.862 14.8518 145.118C16.6571 142.589 18.7873 140.333 21.1672 138.395V88.1417C21.1672 82.8279 25.4852 78.5061 30.7907 78.5061H54.8502C55.0198 78.4964 55.191 78.4932 55.3623 78.4932C64.496 78.4932 72.0789 71.3542 72.6263 62.2393C72.9112 57.4848 71.2531 52.937 67.9562 49.4324C64.576 45.838 59.9988 43.859 55.0678 43.859H9.93207C4.62499 43.859 0.308594 39.5355 0.308594 34.2233V9.63812C0.308594 4.32592 4.62659 0.00244141 9.93207 0.00244141H55.5191C55.6008 0.00244141 55.6824 0.00244141 55.764 0.00564635C63.9119 0.0569255 71.8181 1.69305 79.2665 4.86595C86.5214 7.95712 93.0352 12.3687 98.6239 17.9806C104.214 23.5925 108.603 30.1258 111.669 37.401C114.846 44.9374 116.458 52.9354 116.458 61.1753C116.458 69.4152 114.841 77.4372 111.655 84.9833C108.579 92.2665 104.177 98.8078 98.5711 104.421C92.9663 110.036 86.4365 114.445 79.1625 117.528C74.5852 119.469 69.8367 120.827 64.965 121.597V138.381C66.4854 139.621 67.9066 140.996 69.2109 142.494C74.7069 148.81 77.7349 156.906 77.7349 165.29C77.7349 174.562 74.1291 183.279 67.5817 189.835C61.0343 196.39 52.3279 200.001 43.0677 200.001V200.002Z" fill="#FE6301"/>
<path d="M55.3639 112.751C55.3639 112.74 55.3735 112.73 55.3847 112.73C83.8134 112.719 106.855 89.64 106.855 61.1737C106.855 32.7073 83.8854 9.70222 55.5191 9.61889L9.93207 9.61729C9.92087 9.61729 9.91126 9.6269 9.91126 9.63812V34.2201C9.91126 34.2313 9.92087 34.2409 9.93207 34.2409H55.0694C70.6129 34.2409 83.146 47.2786 82.213 62.813C81.3663 76.9244 69.6687 88.1049 55.3639 88.1049V88.1177H30.7923C30.7811 88.1177 30.7715 88.1273 30.7715 88.1385V140.395C30.7715 140.406 30.7811 140.416 30.7923 140.416H39.3979C39.4235 140.416 39.4267 140.453 39.4011 140.458C25.7845 142.456 15.7257 155.415 18.4496 170.1C20.1285 179.148 28.9806 188.118 38.0007 189.888C54.0643 193.036 68.1322 180.806 68.1322 165.288C68.1322 152.673 58.8369 142.235 46.7327 140.459C46.7071 140.456 46.7087 140.418 46.7359 140.418H55.3431C55.3543 140.418 55.3639 140.408 55.3639 140.397V112.749V112.751Z" fill="black"/>
<path d="M55.3639 112.751C55.3639 112.74 55.3735 112.73 55.3847 112.73C83.8134 112.719 106.855 89.64 106.855 61.1737C106.855 32.7073 83.8854 9.70222 55.5191 9.61889L9.93207 9.61729C9.92087 9.61729 9.91126 9.6269 9.91126 9.63812V34.2201C9.91126 34.2313 9.92087 34.2409 9.93207 34.2409H55.0694C70.6129 34.2409 83.146 47.2786 82.213 62.813C81.3663 76.9244 69.6687 88.1049 55.3639 88.1049V88.1177H30.7923C30.7811 88.1177 30.7715 88.1273 30.7715 88.1385V140.395C30.7715 140.406 30.7811 140.416 30.7923 140.416H39.3979C39.4235 140.416 39.4267 140.453 39.4011 140.458C25.7845 142.456 15.7257 155.415 18.4496 170.1C20.1285 179.148 28.9806 188.118 38.0007 189.888C54.0643 193.036 68.1322 180.806 68.1322 165.288C68.1322 152.673 58.8369 142.235 46.7327 140.459C46.7071 140.456 46.7087 140.418 46.7359 140.418H55.3431C55.3543 140.418 55.3639 140.408 55.3639 140.397V112.749V112.751Z" fill="#FFA2B5"/>
<path d="M51.1339 96.84L38.5496 101.824L51.1339 106.831V109.716H35.0014V106.947H45.1194V106.854L44.1048 106.738L35.0014 103.162V100.508L44.1048 96.9313L45.1194 96.8159V96.723H35.0014V93.9539H51.1339V96.84Z" fill="#FE6301"/>
<path d="M51.1339 112.853V115.738H35.0014V112.853H51.1339Z" fill="#FE6301"/>
<path d="M43.0677 118.414C48.0691 118.414 51.3644 122.129 51.3644 126.583C51.3644 130.553 49.1286 133.229 45.9485 133.899L45.7644 133.806L45.5564 131.106C47.5617 130.529 48.7829 128.867 48.7829 126.537C48.7829 123.329 46.3854 121.323 43.0677 121.323C39.75 121.323 37.3525 123.353 37.3525 126.583C37.3525 128.869 38.5736 130.506 40.579 131.106L40.3709 133.782L40.1869 133.897C36.8227 133.043 34.771 130.343 34.771 126.582C34.771 122.129 38.0663 118.412 43.0677 118.412V118.414Z" fill="#FE6301"/>
<path d="M27.132 165.29C27.132 160.328 30.6818 156.982 35.2671 156.982C39.8524 156.982 43.4262 160.328 43.4262 165.29C43.4262 170.251 39.8764 173.597 35.2671 173.597C30.6578 173.597 27.132 170.251 27.132 165.29ZM40.499 165.29C40.499 161.92 38.4712 159.567 35.2671 159.567C32.063 159.567 30.0353 161.921 30.0353 165.29C30.0353 168.658 32.087 171.012 35.2671 171.012C38.4472 171.012 40.499 168.658 40.499 165.29Z" fill="#FE6301"/>
<path d="M46.0989 157.213H49.2566L55.9176 168.451L56.0553 169.097H56.1241V157.213H59.0049V173.366H55.8472L49.1862 162.128L49.0485 161.482H48.9797V173.366H46.0989V157.213Z" fill="#FE6301"/>
<path d="M14.13 13.6251H17.0108V29.778H14.13V13.6251Z" fill="#FE6301"/>
<path d="M19.5219 24.8184L19.6148 24.703L22.3115 24.4498C22.4956 26.4577 23.9936 27.5185 25.8373 27.5185C27.5434 27.5185 28.8797 26.642 28.8797 24.9113C28.8797 23.0653 27.4969 22.4419 24.9394 21.865C22.1739 21.2192 20.1221 20.0879 20.1221 17.5271C20.1221 14.9663 22.4043 13.3959 25.4004 13.3959C28.7421 13.3959 30.7234 15.1955 31.0243 17.9181L30.9091 18.0559L28.374 18.1937C28.1659 16.5784 27.1288 15.7019 25.378 15.7019C23.9023 15.7019 22.8893 16.3717 22.8893 17.3636C22.8893 18.7017 24.2496 19.1873 26.7607 19.7866C29.6191 20.4564 31.7381 21.7705 31.7381 24.7478C31.7381 28.0009 29.1102 30.0088 25.7461 30.0088C22.3819 30.0088 19.7764 27.9784 19.5235 24.8168L19.5219 24.8184Z" fill="#FE6301"/>
<path d="M97.6012 45.2435V41.1588H100.136V52.2127H97.6012V48.128H84.0039V45.2435H97.6012Z" fill="#FE6301"/>
<path d="M100.136 54.5667V57.4511H93.3376V64.2585H100.136V67.1429H84.0039V64.2585H90.8025V57.4511H84.0039V54.5667H100.136Z" fill="#FE6301"/>
<path d="M100.136 70.2806V80.4803H97.6012V73.165H93.3376V79.8569H90.8025V73.165H86.539V80.7335H84.0039V70.2806H100.136Z" fill="#FE6301"/>
</svg>
