<svg width="353" height="200" viewBox="0 0 353 200" fill="none" xmlns="http://www.w3.org/2000/svg">
<path d="M251.889 199.668C227.372 199.668 210.248 182.502 210.248 157.923V157.371C207.815 158.218 205.203 158.678 202.485 158.678H195.417V167.213C195.417 180.258 184.797 190.871 171.744 190.871H156.902C151.346 190.871 146.23 188.948 142.188 185.734C138.146 188.948 133.03 190.871 127.474 190.871H112.633C99.5788 190.871 88.9595 180.258 88.9595 167.213V165.375C80.3572 169.975 70.2522 172.423 59.1623 172.423C24.5254 172.423 0.334487 148.193 0.334487 113.502V56.378C0.334487 43.3323 10.9539 32.7195 24.0076 32.7195H40.2828C47.9835 32.7195 54.8358 36.4126 59.1623 42.1193C63.4889 36.4126 70.3412 32.7195 78.0419 32.7195H94.3171C107.371 32.7195 117.99 43.3323 117.99 56.378V78.4932H127.474C129.801 78.4932 132.096 78.8328 134.293 79.4924C139.323 77.9641 144.499 77.1913 149.74 77.1913C154.736 77.1913 159.512 77.8486 163.968 79.1193V69.9585C163.968 68.1657 164.171 66.3867 164.569 64.655C162.974 60.7435 162.146 56.5478 162.146 52.262C162.146 34.1219 176.913 19.3642 195.063 19.3642C213.213 19.3642 227.98 34.1219 227.98 52.262C227.98 56.5478 227.152 60.7435 225.557 64.655C225.823 65.816 226.003 66.9978 226.092 68.1911C228.544 67.3305 231.179 66.8614 233.921 66.8614H235.093C237.758 66.8614 240.383 67.3062 242.897 68.1842L256.292 72.8558L239.664 33.1238C236.6 25.8033 237.398 17.4893 241.799 10.885C246.198 4.27955 253.565 0.336846 261.504 0.336846H277.908C284.676 0.336846 290.947 3.18904 295.345 7.98197C299.729 3.18326 305.983 0.336846 312.803 0.336846H328.297C336.166 0.336846 343.497 4.22641 347.907 10.7406C352.317 17.2617 353.198 25.511 350.266 32.8096L313.679 123.895C310.057 132.912 301.434 138.739 291.71 138.739H280.619C279.091 140.348 277.349 141.728 275.443 142.84C275.494 142.874 275.985 143.202 275.985 143.202C282.568 147.6 286.499 154.952 286.499 162.868V174.709C286.499 185.679 279.047 195.135 268.378 197.708C262.526 199.118 257.902 199.668 251.889 199.668Z" fill="#FFA2B5"/>
<path d="M251.889 200.002C227.174 200.002 209.914 182.699 209.914 157.923V157.837C207.522 158.617 205.025 159.012 202.485 159.012H195.751V167.213C195.751 180.442 184.982 191.205 171.744 191.205H156.902C151.515 191.205 146.433 189.462 142.188 186.159C137.943 189.462 132.861 191.205 127.475 191.205H112.633C99.3948 191.205 88.6249 180.442 88.6249 167.213V165.93C79.9472 170.46 70.0381 172.757 59.1622 172.757C24.3283 172.757 0 148.39 0 113.501V56.378C0 43.1483 10.7699 32.3851 24.0077 32.3851H40.2828C47.7126 32.3851 54.5685 35.7279 59.1622 41.5724C63.7562 35.7279 70.6121 32.3851 78.0419 32.3851H94.317C107.555 32.3851 118.324 43.1483 118.324 56.378V78.1589H127.475C129.789 78.1589 132.082 78.4901 134.293 79.1434C139.319 77.6263 144.515 76.857 149.74 76.857C154.57 76.857 159.241 77.4695 163.633 78.6785V69.9586C163.633 68.1874 163.83 66.4133 164.22 64.6834C162.622 60.7298 161.812 56.5511 161.812 52.2621C161.812 33.9378 176.728 19.03 195.063 19.03C213.398 19.03 228.314 33.9378 228.314 52.2621C228.314 56.5511 227.504 60.7298 225.906 64.6837C226.132 65.6896 226.295 66.7141 226.39 67.7366C228.816 66.9338 231.347 66.5271 233.921 66.5271H235.093C237.795 66.5271 240.458 66.9784 243.008 67.8683L255.694 72.2933L239.355 33.2528C236.248 25.8293 237.057 17.398 241.521 10.6997C245.982 4.00159 253.452 0.00244141 261.503 0.00244141H277.908C284.503 0.00244141 290.837 2.72716 295.345 7.49085C299.833 2.72744 306.175 0.00244141 312.803 0.00244141H328.297C336.277 0.00244141 343.711 3.94666 348.184 10.5535C352.655 17.1655 353.55 25.5322 350.576 32.9341L313.99 124.02C310.316 133.164 301.571 139.073 291.71 139.073H280.762C279.361 140.531 277.785 141.801 276.068 142.855L276.171 142.924C282.847 147.384 286.833 154.84 286.833 162.868V174.709C286.833 185.832 279.276 195.424 268.456 198.033C262.574 199.45 257.929 200.002 251.889 200.002ZM210.582 156.901V157.923C210.582 182.305 227.568 199.334 251.889 199.334C257.872 199.334 262.473 198.787 268.3 197.383C278.818 194.846 286.165 185.522 286.165 174.709V162.868C286.165 155.064 282.29 147.816 275.799 143.48L274.811 142.822L275.274 142.552C277.156 141.453 278.872 140.093 280.376 138.509L280.475 138.405H291.71C301.296 138.405 309.798 132.661 313.369 123.77L349.956 32.685C352.846 25.4892 351.977 17.3558 347.63 10.928C343.282 4.50536 336.055 0.671 328.297 0.671H312.803C306.24 0.671 299.967 3.41792 295.593 8.20713L295.346 8.47705L295.099 8.20768C290.703 3.41792 284.438 0.671 277.908 0.671H261.503C253.676 0.671 246.414 4.55863 242.078 11.0703C237.738 17.5819 236.951 25.778 239.973 32.9948L256.889 73.4185L242.787 68.4997C240.308 67.6342 237.72 67.1956 235.093 67.1956H233.921C231.278 67.1956 228.681 67.6367 226.203 68.5064L225.792 68.6509L225.759 68.2159C225.672 67.05 225.494 65.8771 225.231 64.7297L225.208 64.6268L225.247 64.5289C226.839 60.6268 227.646 56.4995 227.646 52.2621C227.646 34.3064 213.029 19.6986 195.063 19.6986C177.097 19.6986 162.48 34.3064 162.48 52.2621C162.48 56.4995 163.288 60.6268 164.879 64.5289L164.919 64.6268L164.895 64.7297C164.502 66.4433 164.302 68.2026 164.302 69.9586V79.5623L163.876 79.4408C159.42 78.17 154.664 77.5256 149.74 77.5256C144.548 77.5256 139.383 78.2948 134.39 79.8122L134.294 79.8417L134.197 79.8125C132.02 79.1589 129.758 78.8274 127.475 78.8274H117.656V56.378C117.656 43.517 107.186 33.0536 94.317 33.0536H78.0419C70.6782 33.0536 63.8941 36.4317 59.4287 42.3214L59.1622 42.6728L58.8957 42.3214C54.4306 36.4317 47.6465 33.0536 40.2828 33.0536H24.0077C11.1388 33.0536 0.66897 43.517 0.66897 56.378V113.501C0.66897 147.997 24.7222 172.088 59.1622 172.088C70.133 172.088 80.1051 169.73 88.8018 165.08L89.2939 164.817V167.213C89.2939 180.074 99.7637 190.537 112.633 190.537H127.475C132.796 190.537 137.812 188.786 141.98 185.473L142.188 185.307L142.396 185.473C146.564 188.786 151.58 190.537 156.902 190.537H171.744C184.612 190.537 195.082 180.074 195.082 167.213V158.344H202.485C205.108 158.344 207.683 157.91 210.138 157.056L210.582 156.901Z" fill="#071907"/>
<path d="M338.103 17.3696C335.901 14.1166 332.227 12.1666 328.297 12.1666H312.803C307.921 12.1666 303.539 15.1632 301.77 19.7112L295.612 35.5525L288.819 19.4109C286.973 15.0211 282.673 12.1666 277.909 12.1666H261.504C257.544 12.1666 253.846 14.1466 251.651 17.4413C249.456 20.7359 249.056 24.9085 250.584 28.5601L275.015 86.9393L269.89 99.7136C268.041 98.5194 265.843 97.8182 263.478 97.8182H260.732V95.3333C260.732 90.3024 257.549 85.8226 252.795 84.1648L238.994 79.3511C237.74 78.9133 236.422 78.6903 235.094 78.6903H233.922C227.385 78.6903 222.085 83.9869 222.085 90.5196V97.8182H221.812C218.97 97.8182 216.362 98.8215 214.322 100.491V69.9582C214.322 67.7356 213.708 65.6562 212.641 63.8795C214.854 60.5468 216.144 56.5521 216.144 52.2616C216.144 40.6449 206.687 31.1931 195.063 31.1931C183.439 31.1931 173.983 40.6449 173.983 52.2616C173.983 56.5521 175.273 60.5468 177.485 63.8795C176.418 65.6562 175.804 67.7356 175.804 69.9582V99.9126C169.845 93.0284 160.785 89.0207 149.74 89.0207C144.29 89.0207 138.895 90.1228 133.865 92.1929C132.021 91.0088 129.828 90.3227 127.475 90.3227H112.633C110.239 90.3227 108.016 91.0383 106.153 92.2591V56.3785C106.153 49.8458 100.853 44.5492 94.3167 44.5492H78.0414C71.5048 44.5492 66.2049 49.8458 66.2049 56.3785V113.242C66.2049 122.362 62.9406 122.362 59.1619 122.362C55.3832 122.362 52.1189 122.362 52.1189 113.242V56.3785C52.1189 49.8458 46.8191 44.5492 40.2824 44.5492H24.0072C17.4705 44.5492 12.1706 49.8458 12.1706 56.3785V113.502C12.1706 141.669 31.0548 160.594 59.1619 160.594C78.3871 160.594 93.2925 151.736 100.796 137.127V167.213C100.796 173.746 106.096 179.042 112.633 179.042H127.475C134.011 179.042 139.311 173.746 139.311 167.213V128.898C141.208 126.931 143.306 125.691 144.922 125.691C144.966 125.691 145.01 125.691 145.051 125.693C145.06 125.849 145.065 126.025 145.065 126.224V167.213C145.065 173.746 150.365 179.042 156.902 179.042H171.744C178.28 179.042 183.58 173.746 183.58 167.213V146.119C184.849 146.582 186.212 146.848 187.641 146.848H202.485C209.022 146.848 214.322 141.552 214.322 135.019V131.555C216.362 133.225 218.97 134.228 221.812 134.228H222.085V157.922C222.085 175.816 234.063 187.838 251.889 187.838C256.956 187.838 260.673 187.396 265.603 186.207C270.918 184.926 274.663 180.173 274.663 174.708V162.868C274.663 158.918 272.691 155.229 269.406 153.035L269.015 152.773C267.05 151.46 264.757 150.777 262.436 150.777C261.868 150.777 261.298 150.818 260.732 150.901V134.228H263.478C268.487 134.228 272.759 131.114 274.488 126.721C275.141 126.833 275.803 126.91 276.478 126.91H291.71C296.545 126.91 300.894 123.972 302.695 119.488L339.282 28.403C340.746 24.7572 340.304 20.6238 338.103 17.3696Z" fill="#071907"/>
</svg>
