<svg width="516" height="200" viewBox="0 0 516 200" fill="none" xmlns="http://www.w3.org/2000/svg">
<path d="M472.519 0.00244141H43.7839C20.1205 0.00244141 0.9375 19.1695 0.9375 42.8133V157.192C0.9375 180.835 20.1205 200.002 43.7839 200.002H472.519C496.182 200.002 515.365 180.835 515.365 157.192V42.8133C515.365 19.1695 496.182 0.00244141 472.519 0.00244141Z" fill="#071907"/>
<path d="M22.523 89.1196H36.0298V92.9574H22.5771C19.4394 92.9574 17.618 94.4349 17.618 97.4079C17.618 100.381 19.4394 101.858 22.5771 101.858H36.0298V105.696H22.523C17.6 105.696 14.1918 102.651 14.1918 97.3898C14.1918 92.1286 17.6 89.0835 22.523 89.0835V89.1196Z" fill="#FFD9F0"/>
<path d="M22.523 107.3H36.0298V111.138H22.5771C19.4394 111.138 17.618 112.615 17.618 115.588C17.618 118.561 19.4394 120.038 22.5771 120.038H36.0298V123.876H22.523C17.6 123.876 14.1918 120.831 14.1918 115.57C14.1918 110.309 17.6 107.264 22.523 107.264V107.3Z" fill="#FFD9F0"/>
<path d="M32.0084 131.66L40.015 120.795L43.1167 123.084L35.1461 133.894C33.2887 136.417 33.3969 138.759 35.7953 140.525C38.1937 142.291 40.4659 141.714 42.3233 139.192L50.2939 128.381L53.3955 130.669L45.3889 141.534C42.4675 145.498 37.9953 146.435 33.7576 143.318C29.5198 140.201 29.1051 135.642 32.0264 131.678L32.0084 131.66Z" fill="#FFD9F0"/>
<path d="M56.0644 143.894V130.399H59.9055V143.84C59.9055 146.975 61.3842 148.795 64.3596 148.795C67.3351 148.795 68.8138 146.975 68.8138 143.84V130.399H72.6548V143.894C72.6548 148.813 69.6072 152.219 64.3416 152.219C59.0759 152.219 56.0284 148.813 56.0284 143.894H56.0644Z" fill="#FFD9F0"/>
<path d="M22.523 70.9394H36.0298V74.7772H22.5771C19.4394 74.7772 17.618 76.2547 17.618 79.2277C17.618 82.2006 19.4394 83.6781 22.5771 83.6781H36.0298V87.516H22.523C17.6 87.516 14.1918 84.4709 14.1918 79.2096C14.1918 73.9484 17.6 70.9033 22.523 70.9033V70.9394Z" fill="#FFD9F0"/>
<path d="M22.523 52.7772H36.0298V56.6151H22.5771C19.4394 56.6151 17.618 58.0925 17.618 61.0655C17.618 64.0385 19.4394 65.516 22.5771 65.516H36.0298V69.3538H22.523C17.6 69.3538 14.1918 66.3088 14.1918 61.0475C14.1918 55.7862 17.6 52.7412 22.523 52.7412V52.7772Z" fill="#FFD9F0"/>
<path d="M22.523 34.597H36.0298V38.4349H22.5771C19.4394 38.4349 17.618 39.9123 17.618 42.8853C17.618 45.8583 19.4394 47.3358 22.5771 47.3358H36.0298V51.1736H22.523C17.6 51.1736 14.1918 48.1286 14.1918 42.8673C14.1918 37.606 17.6 34.561 22.523 34.561V34.597Z" fill="#FFD9F0"/>
<path d="M22.523 16.4169H36.0298V20.2547H22.5771C19.4394 20.2547 17.618 21.7322 17.618 24.7051C17.618 27.6781 19.4394 29.1556 22.5771 29.1556H36.0298V32.9934H22.523C17.6 32.9934 14.1918 29.9484 14.1918 24.6871C14.1918 19.4259 17.6 16.3808 22.523 16.3808V16.4169Z" fill="#FFD9F0"/>
<path d="M107.062 33.0295H93.5551V29.1916H107.008C110.145 29.1916 111.967 27.7142 111.967 24.7412C111.967 21.7682 110.145 20.2907 107.008 20.2907H93.5551V16.4529H107.062C111.985 16.4529 115.393 19.4979 115.393 24.7592C115.393 30.0205 111.985 33.0655 107.062 33.0655V33.0295Z" fill="#FFD9F0"/>
<path d="M107.062 51.1916H93.5551V47.3538H107.008C110.145 47.3538 111.967 45.8763 111.967 42.9033C111.967 39.9304 110.145 38.4529 107.008 38.4529H93.5551V34.6151H107.062C111.985 34.6151 115.393 37.6601 115.393 42.9214C115.393 48.1826 111.985 51.2277 107.062 51.2277V51.1916Z" fill="#FFD9F0"/>
<path d="M107.062 69.3718H93.5551V65.534H107.008C110.145 65.534 111.967 64.0565 111.967 61.0835C111.967 58.1106 110.145 56.6331 107.008 56.6331H93.5551V52.7952H107.062C111.985 52.7952 115.393 55.8403 115.393 61.1015C115.393 66.3628 111.985 69.4078 107.062 69.4078V69.3718Z" fill="#FFD9F0"/>
<path d="M107.062 87.552H93.5551V83.7141H107.008C110.145 83.7141 111.967 82.2367 111.967 79.2637C111.967 76.2907 110.145 74.8133 107.008 74.8133H93.5551V70.9754H107.062C111.985 70.9754 115.393 74.0205 115.393 79.2817C115.393 84.543 111.985 87.588 107.062 87.588V87.552Z" fill="#FFD9F0"/>
<path d="M107.062 105.714H93.5551V101.876H107.008C110.145 101.876 111.967 100.399 111.967 97.4259C111.967 94.4529 110.145 92.9754 107.008 92.9754H93.5551V89.1376H107.062C111.985 89.1376 115.393 92.1826 115.393 97.4439C115.393 102.705 111.985 105.75 107.062 105.75V105.714Z" fill="#FFD9F0"/>
<path d="M107.062 123.894H93.5551V120.056H107.008C110.145 120.056 111.967 118.579 111.967 115.606C111.967 112.633 110.145 111.156 107.008 111.156H93.5551V107.318H107.062C111.985 107.318 115.393 110.363 115.393 115.624C115.393 120.885 111.985 123.93 107.062 123.93V123.894Z" fill="#FFD9F0"/>
<path d="M82.1943 140.705L75.5581 128.939L78.9123 127.047L85.5124 138.759C87.0452 141.498 89.2271 142.345 91.8239 140.885C94.4207 139.426 94.8174 137.12 93.2846 134.381L86.6845 122.669L90.0386 120.777L96.6748 132.543C99.0912 136.831 98.1174 141.3 93.537 143.876C88.9567 146.453 84.6287 144.975 82.2123 140.687L82.1943 140.705Z" fill="#FFD9F0"/>
<path d="M134.22 152.219V148.02L149.728 139.174L150.612 138.993V138.903H134.201V135.084H156.49V139.282L140.982 148.129L140.098 148.309V148.399H156.508V152.219H134.22Z" fill="#FFD9F0"/>
<path d="M134.22 132.435V128.237L149.728 119.39L150.612 119.21V119.12H134.201V115.3H156.49V119.498L140.982 128.345L140.098 128.525V128.615H156.508V132.435H134.22Z" fill="#FFD9F0"/>
<path d="M134.22 112.669V108.471L149.728 99.6241L150.612 99.4439V99.3538H134.201V95.534H156.49V99.7322L140.982 108.579L140.098 108.759V108.849H156.508V112.669H134.22Z" fill="#FFD9F0"/>
<path d="M134.22 92.8853V88.6871L149.728 79.8403L150.612 79.6601V79.57H134.201V75.7502H156.49V79.9484L140.982 88.7952L140.098 88.9754V89.0655H156.508V92.8853H134.22Z" fill="#FFD9F0"/>
<path d="M134.22 73.1015V68.9033L149.728 60.0565L150.612 59.8763V59.7862H134.201V55.9664H156.49V60.1646L140.982 69.0115L140.098 69.1916V69.2817H156.508V73.1015H134.22Z" fill="#FFD9F0"/>
<path d="M134.22 53.3358V49.1376L149.728 40.2907L150.612 40.1105V40.0205H134.201V36.2006H156.49V40.3988L140.982 49.2457L140.098 49.4259V49.516H156.508V53.3358H134.22Z" fill="#FFD9F0"/>
<path d="M134.22 33.552V29.3538L149.728 20.5069L150.612 20.3268V20.2367H134.201V16.4169H156.49V20.6151L140.982 29.4619L140.098 29.6421V29.7322H156.508V33.552H134.22Z" fill="#FFD9F0"/>
<path d="M219.101 152.219V148.02L234.609 139.174L235.493 138.993V138.903H219.083V135.084H241.372V139.282L225.863 148.129L224.98 148.309V148.399H241.39V152.219H219.101Z" fill="#FFD9F0"/>
<path d="M219.101 132.435V128.237L234.609 119.39L235.493 119.21V119.12H219.083V115.3H241.372V119.498L225.863 128.345L224.98 128.525V128.615H241.39V132.435H219.101Z" fill="#FFD9F0"/>
<path d="M219.101 112.669V108.471L234.609 99.6241L235.493 99.4439V99.3538H219.083V95.534H241.372V99.7322L225.863 108.579L224.98 108.759V108.849H241.39V112.669H219.101Z" fill="#FFD9F0"/>
<path d="M219.101 92.8853V88.6871L234.609 79.8403L235.493 79.6601V79.57H219.083V75.7502H241.372V79.9484L225.863 88.7952L224.98 88.9754V89.0655H241.39V92.8853H219.101Z" fill="#FFD9F0"/>
<path d="M219.101 73.1015V68.9033L234.609 60.0565L235.493 59.8763V59.7862H219.083V55.9664H241.372V60.1646L225.863 69.0115L224.98 69.1916V69.2817H241.39V73.1015H219.101Z" fill="#FFD9F0"/>
<path d="M219.101 53.3358V49.1376L234.609 40.2907L235.493 40.1105V40.0205H219.083V36.2006H241.372V40.3988L225.863 49.2457L224.98 49.4259V49.516H241.39V53.3358H219.101Z" fill="#FFD9F0"/>
<path d="M219.101 33.552V29.3538L234.609 20.5069L235.493 20.3268V20.2367H219.083V16.4169H241.372V20.6151L225.863 29.4619L224.98 29.6421V29.7322H241.39V33.552H219.101Z" fill="#FFD9F0"/>
<path d="M171.764 34.3268L174.018 38.1646L165.417 54.1286L164.749 54.7412L164.804 54.8313L178.941 46.525L180.997 50.0385L161.774 61.3358L159.52 57.4979L168.122 41.534L168.789 40.9214L168.735 40.8313L154.597 49.1376L152.541 45.6241L171.764 34.3268Z" fill="#FFD9F0"/>
<path d="M182.44 52.4529L184.694 56.2907L176.092 72.2547L175.425 72.8673L175.479 72.9574L189.617 64.6511L191.673 68.1646L172.45 79.4619L170.195 75.6241L178.797 59.6601L179.464 59.0475L179.41 58.9574L165.272 67.2637L163.217 63.7502L182.44 52.4529Z" fill="#FFD9F0"/>
<path d="M193.115 70.579L195.369 74.4169L186.768 90.3808L186.101 90.9934L186.155 91.0835L200.293 82.7772L202.348 86.2907L183.125 97.588L180.871 93.7502L189.473 77.7862L190.14 77.1736L190.086 77.0835L175.948 85.3898L173.892 81.8763L193.115 70.579Z" fill="#FFD9F0"/>
<path d="M203.791 88.7051L206.045 92.543L197.443 108.507L196.776 109.12L196.83 109.21L210.968 100.903L213.024 104.417L193.801 115.714L191.546 111.876L200.148 95.9124L200.815 95.2997L200.761 95.2096L186.623 103.516L184.568 100.002L203.791 88.7051Z" fill="#FFD9F0"/>
<path d="M214.448 106.831L216.703 110.669L208.101 126.633L207.434 127.246L207.488 127.336L221.626 119.029L223.681 122.543L204.458 133.84L202.204 130.002L210.806 114.038L211.473 113.426L211.419 113.336L197.281 121.642L195.225 118.129L214.448 106.831Z" fill="#FFD9F0"/>
<path d="M261.334 152.219V148.345H283.623V152.219H261.334Z" fill="#FFD9F0"/>
<path d="M261.334 144.453V140.579H283.623V144.453H261.334Z" fill="#FFD9F0"/>
<path d="M261.334 136.705V132.831H283.623V136.705H261.334Z" fill="#FFD9F0"/>
<path d="M261.334 128.939V125.066H283.623V128.939H261.334Z" fill="#FFD9F0"/>
<path d="M261.334 121.174V117.3H283.623V121.174H261.334Z" fill="#FFD9F0"/>
<path d="M261.334 113.426V109.552H283.623V113.426H261.334Z" fill="#FFD9F0"/>
<path d="M261.334 105.66V101.786H283.623V105.66H261.334Z" fill="#FFD9F0"/>
<path d="M261.334 97.8943V94.0205H283.623V97.8943H261.334Z" fill="#FFD9F0"/>
<path d="M261.334 90.1466V86.2727H283.623V90.1466H261.334Z" fill="#FFD9F0"/>
<path d="M261.334 82.3808V78.5069H283.623V82.3808H261.334Z" fill="#FFD9F0"/>
<path d="M261.334 74.6151V70.7412H283.623V74.6151H261.334Z" fill="#FFD9F0"/>
<path d="M261.334 66.8673V62.9934H283.623V66.8673H261.334Z" fill="#FFD9F0"/>
<path d="M261.334 59.1015V55.2277H283.623V59.1015H261.334Z" fill="#FFD9F0"/>
<path d="M261.334 51.3358V47.4619H283.623V51.3358H261.334Z" fill="#FFD9F0"/>
<path d="M261.334 43.588V39.7142H283.623V43.588H261.334Z" fill="#FFD9F0"/>
<path d="M261.334 35.8223V31.9484H283.623V35.8223H261.334Z" fill="#FFD9F0"/>
<path d="M261.334 28.0565V24.1826H283.623V28.0565H261.334Z" fill="#FFD9F0"/>
<path d="M261.334 20.3087V16.4349H283.623V20.3087H261.334Z" fill="#FFD9F0"/>
<path d="M335.324 146.651V152.219H331.861V137.156H335.324V142.723H353.88V146.651H335.324Z" fill="#FFD9F0"/>
<path d="M335.324 129.408V134.975H331.861V119.912H335.324V125.48H353.88V129.408H335.324Z" fill="#FFD9F0"/>
<path d="M335.324 112.165V117.732H331.861V102.669H335.324V108.237H353.88V112.165H335.324Z" fill="#FFD9F0"/>
<path d="M335.324 94.9033V100.471H331.861V85.4079H335.324V90.9754H353.88V94.9033H335.324Z" fill="#FFD9F0"/>
<path d="M335.324 77.6601V83.2277H331.861V68.1646H335.324V73.7322H353.88V77.6601H335.324Z" fill="#FFD9F0"/>
<path d="M335.324 60.4169V65.9844H331.861V50.9214H335.324V56.4889H353.88V60.4169H335.324Z" fill="#FFD9F0"/>
<path d="M335.324 43.1556V48.7232H331.861V33.6601H335.324V39.2277H353.88V43.1556H335.324Z" fill="#FFD9F0"/>
<path d="M335.324 25.9124V31.4799H331.861V16.4169H335.324V21.9844H353.88V25.9124H335.324Z" fill="#FFD9F0"/>
<path d="M362.103 20.2367H356.531V16.7772H371.606V20.2367H366.034V38.7772H362.103V20.2367Z" fill="#FFD9F0"/>
<path d="M379.811 20.2367H374.239V16.7772H389.315V20.2367H383.742V38.7772H379.811V20.2367Z" fill="#FFD9F0"/>
<path d="M301.818 20.2367H296.246V16.7772H311.322V20.2367H305.75V38.7772H301.818V20.2367Z" fill="#FFD9F0"/>
<path d="M319.527 20.2367H313.955V16.7772H329.03V20.2367H323.458V38.7772H319.527V20.2367Z" fill="#FFD9F0"/>
<path d="M450.969 145.624L436.94 152.237V148.038L445.433 144.129L447.814 143.714V143.588L445.433 143.174L436.94 139.264V135.066L450.969 141.696H458.868V145.606H450.969V145.624Z" fill="#FFD9F0"/>
<path d="M450.969 127.318L436.94 133.93V129.732L445.433 125.822L447.814 125.408V125.282L445.433 124.867L436.94 120.957V116.759L450.969 123.39H458.868V127.3H450.969V127.318Z" fill="#FFD9F0"/>
<path d="M450.969 109.029L436.94 115.642V111.444L445.433 107.534L447.814 107.12V106.993L445.433 106.579L436.94 102.669V98.4709L450.969 105.102H458.868V109.011H450.969V109.029Z" fill="#FFD9F0"/>
<path d="M450.969 90.7412L436.94 97.3538V93.1556L445.433 89.2457L447.814 88.8313V88.7051L445.433 88.2907L436.94 84.3808V80.1826L450.969 86.8133H458.868V90.7232H450.969V90.7412Z" fill="#FFD9F0"/>
<path d="M463.268 78.9214L447.904 76.8133L450.194 73.2997L459.445 74.6331L461.663 75.588L461.735 75.4799L459.968 73.8403L454.991 65.9304L457.281 62.4169L465.432 75.6241L472.05 79.9304L469.922 83.2096L463.304 78.9033L463.268 78.9214Z" fill="#FFD9F0"/>
<path d="M473.24 63.588L457.876 61.4799L460.166 57.9664L469.417 59.2997L471.635 60.2547L471.707 60.1466L469.94 58.5069L464.963 50.597L467.253 47.0835L475.404 60.2907L482.022 64.597L479.894 67.8763L473.276 63.57L473.24 63.588Z" fill="#FFD9F0"/>
<path d="M483.212 48.2547L467.848 46.1466L470.139 42.6331L479.39 43.9664L481.608 44.9214L481.68 44.8133L479.912 43.1736L474.935 35.2637L477.226 31.7502L485.376 44.9574L491.995 49.2637L489.867 52.543L483.249 48.2367L483.212 48.2547Z" fill="#FFD9F0"/>
<path d="M493.185 32.9033L477.821 30.7952L480.111 27.2817L489.362 28.6151L491.58 29.57L491.652 29.4619L489.885 27.8223L484.908 19.9124L487.198 16.3988L495.349 29.606L501.967 33.9123L499.839 37.1916L493.221 32.8853L493.185 32.9033Z" fill="#FFD9F0"/>
<path d="M425.904 83.2277L423.776 79.9484L430.394 75.6421L438.545 62.4349L440.835 65.9484L435.858 73.8583L434.091 75.4979L434.163 75.606L436.381 74.6511L445.632 73.3178L447.922 76.8313L432.558 78.9394L425.94 83.2457L425.904 83.2277Z" fill="#FFD9F0"/>
<path d="M415.931 67.8763L413.803 64.597L420.422 60.2907L428.572 47.0835L430.863 50.597L425.886 58.5069L424.118 60.1466L424.19 60.2547L426.409 59.2997L435.659 57.9664L437.95 61.4799L422.586 63.588L415.967 67.8943L415.931 67.8763Z" fill="#FFD9F0"/>
<path d="M405.959 52.543L403.831 49.2637L410.449 44.9574L418.6 31.7502L420.89 35.2637L415.913 43.1736L414.146 44.8133L414.218 44.9214L416.436 43.9664L425.687 42.6331L427.977 46.1466L412.613 48.2547L405.995 52.561L405.959 52.543Z" fill="#FFD9F0"/>
<path d="M395.987 37.2096L393.859 33.9304L400.477 29.6241L408.628 16.4169L410.918 19.9304L405.941 27.8403L404.174 29.4799L404.246 29.588L406.464 28.6331L415.715 27.2997L418.005 30.8133L402.641 32.9214L396.023 37.2277L395.987 37.2096Z" fill="#FFD9F0"/>
<path d="M134.724 183.192C135.518 182.075 135.752 180.741 135.752 178.417V166.075C135.752 163.75 135.536 162.381 134.724 161.3V161.174H139.9V161.3C139.106 162.381 138.872 163.75 138.872 166.075V178.417C138.872 180.741 139.088 182.075 139.9 183.192V183.318H134.724V183.192Z" fill="#FFD9F0"/>
<path d="M143.11 172.201C143.11 170.381 142.911 169.516 142.316 168.687V168.489L145.977 168.111H146.067V170.435H146.193C147.311 168.741 148.844 167.822 150.666 167.822C153.497 167.822 155.679 169.768 155.679 173.588V179.588C155.679 181.408 155.769 182.273 156.382 183.192V183.318H152.072V183.192C152.649 182.273 152.739 181.408 152.739 179.588V173.66C152.739 171.336 151.567 170.147 149.872 170.147C147.961 170.147 146.067 171.804 146.067 174.507V179.57C146.067 181.39 146.193 182.273 146.734 183.174V183.3H142.425V183.174C143.038 182.273 143.092 181.39 143.092 179.57V172.183L143.11 172.201Z" fill="#FFD9F0"/>
<path d="M165.831 179.246V170.327H162.73V168.471C165.795 168.399 166.264 167.858 166.39 164.489H168.753V168.219H173.027V170.327H168.753V179.156C168.753 180.777 169.42 181.516 170.863 181.516C171.566 181.516 172.233 181.39 172.9 181.029L173.225 182.615C172.323 183.282 171.223 183.696 169.997 183.696C167.545 183.696 165.813 182.291 165.813 179.228L165.831 179.246Z" fill="#FFD9F0"/>
<path d="M174.884 164.795C174.884 163.011 174.686 161.984 174.091 161.138V160.975L177.733 160.597H177.823V170.453H177.986C179.068 168.795 180.564 167.84 182.512 167.84C185.289 167.84 187.453 169.786 187.453 173.606V179.57C187.453 181.39 187.543 182.309 188.156 183.21V183.336H183.846V183.21C184.387 182.309 184.478 181.39 184.478 179.57V173.678C184.478 171.39 183.396 170.165 181.61 170.165C179.663 170.165 177.805 171.912 177.805 174.525V179.57C177.805 181.39 177.932 182.309 178.509 183.21V183.336H174.199V183.21C174.812 182.309 174.866 181.39 174.866 179.57V164.813L174.884 164.795Z" fill="#FFD9F0"/>
<path d="M202.835 181.336C201.338 182.867 199.517 183.696 197.281 183.696C192.917 183.696 189.563 180.579 189.563 175.66C189.563 171.174 192.556 167.822 196.614 167.822C200.094 167.822 202.637 170.02 202.637 174.129V175.336H192.484C192.61 179.156 194.81 181.21 198.038 181.21C199.733 181.21 201.068 180.723 202.475 179.768L202.817 181.336H202.835ZM192.628 173.462H199.679C199.607 171.138 198.345 169.768 196.433 169.768C194.324 169.768 193.025 171.138 192.628 173.462Z" fill="#FFD9F0"/>
<path d="M210.265 172.291C210.265 164.957 215.945 160.777 221.914 160.777C224.529 160.777 226.567 161.39 228.388 162.399V166.165H228.226C226.765 164.129 224.529 163.011 222.094 163.011C217.442 163.011 213.709 166.525 213.709 172.002C213.709 177.894 217.568 181.029 222.455 181.029C224.853 181.029 226.963 180.237 229.055 178.741L229.434 180.489C227.36 182.561 224.908 183.714 221.752 183.714C215.693 183.714 210.265 179.66 210.265 172.309V172.291Z" fill="#FFD9F0"/>
<path d="M229.975 175.732C229.975 171.102 233.221 167.822 237.603 167.822C241.985 167.822 245.159 171.065 245.159 175.732C245.159 180.399 241.931 183.696 237.603 183.696C233.275 183.696 229.975 180.381 229.975 175.732ZM241.985 175.732C241.985 172.129 240.236 169.966 237.621 169.966C235.006 169.966 233.185 172.201 233.185 175.732C233.185 179.264 234.88 181.57 237.621 181.57C240.362 181.57 241.985 179.372 241.985 175.732Z" fill="#FFD9F0"/>
<path d="M247.593 172.201C247.593 170.381 247.395 169.552 246.8 168.687V168.489L250.442 168.111H250.533V170.471H250.695C251.741 168.723 253.346 167.822 255.221 167.822C257.096 167.822 258.701 168.849 259.441 170.849H259.567C260.685 168.867 262.344 167.822 264.292 167.822C266.979 167.822 269.052 169.804 269.052 173.372V179.552C269.052 181.372 269.143 182.291 269.756 183.192V183.318H265.446V183.192C266.023 182.291 266.113 181.372 266.113 179.552V173.552C266.113 171.228 265.067 170.147 263.426 170.147C261.569 170.147 259.856 171.876 259.856 174.489V179.624C259.856 181.444 259.946 182.309 260.559 183.192V183.318H256.213V183.192C256.754 182.291 256.88 181.444 256.88 179.624V173.534C256.88 171.336 255.978 170.147 254.193 170.147C252.318 170.147 250.533 171.876 250.533 174.453V179.588C250.533 181.372 250.623 182.273 251.2 183.192V183.318H246.89V183.192C247.521 182.273 247.593 181.372 247.593 179.588V172.201Z" fill="#FFD9F0"/>
<path d="M272.569 172.201C272.569 170.381 272.37 169.552 271.775 168.687V168.489L275.418 168.111H275.508V170.471H275.671C276.716 168.723 278.321 167.822 280.197 167.822C282.072 167.822 283.677 168.849 284.417 170.849H284.543C285.661 168.867 287.32 167.822 289.267 167.822C291.954 167.822 294.028 169.804 294.028 173.372V179.552C294.028 181.372 294.118 182.291 294.731 183.192V183.318H290.422V183.192C290.999 182.291 291.089 181.372 291.089 179.552V173.552C291.089 171.228 290.043 170.147 288.402 170.147C286.544 170.147 284.831 171.876 284.831 174.489V179.624C284.831 181.444 284.921 182.309 285.535 183.192V183.318H281.189V183.192C281.73 182.291 281.856 181.444 281.856 179.624V173.534C281.856 171.336 280.954 170.147 279.169 170.147C277.293 170.147 275.508 171.876 275.508 174.453V179.588C275.508 181.372 275.598 182.273 276.175 183.192V183.318H271.866V183.192C272.497 182.273 272.569 181.372 272.569 179.588V172.201Z" fill="#FFD9F0"/>
<path d="M297.292 178.183V172.038C297.292 170.291 297.13 169.264 296.553 168.345V168.219H300.213V178.165C300.213 180.363 301.295 181.39 302.864 181.39C304.722 181.39 306.525 179.732 306.525 177.084V172.038C306.525 170.255 306.327 169.228 305.768 168.345V168.219H309.464V179.21C309.464 180.993 309.555 181.948 310.132 182.813V182.975L306.597 183.426H306.525V181.138H306.363C305.407 182.705 303.874 183.714 301.999 183.714C299.384 183.714 297.274 181.858 297.274 178.201L297.292 178.183Z" fill="#FFD9F0"/>
<path d="M313.179 172.201C313.179 170.381 312.981 169.516 312.386 168.687V168.489L316.046 168.111H316.137V170.435H316.263C317.381 168.741 318.914 167.822 320.735 167.822C323.566 167.822 325.748 169.768 325.748 173.588V179.588C325.748 181.408 325.838 182.273 326.451 183.192V183.318H322.142V183.192C322.719 182.273 322.809 181.408 322.809 179.588V173.66C322.809 171.336 321.637 170.147 319.942 170.147C318.03 170.147 316.137 171.804 316.137 174.507V179.57C316.137 181.39 316.263 182.273 316.804 183.174V183.3H312.494V183.174C313.107 182.273 313.161 181.39 313.161 179.57V172.183L313.179 172.201Z" fill="#FFD9F0"/>
<path d="M332.168 179.588C332.168 181.408 332.258 182.291 332.871 183.192V183.318H328.561V183.192C329.174 182.291 329.229 181.408 329.229 179.588V172.038C329.229 170.381 329.03 169.516 328.435 168.687V168.489L332.078 168.111H332.168V179.588ZM328.579 163.336C328.579 162.219 329.481 161.264 330.689 161.264C331.771 161.264 332.709 162.219 332.709 163.336C332.709 164.507 331.807 165.444 330.689 165.444C329.481 165.444 328.579 164.525 328.579 163.336Z" fill="#FFD9F0"/>
<path d="M336.694 179.246V170.327H333.593V168.471C336.658 168.399 337.127 167.858 337.253 164.489H339.616V168.219H343.889V170.327H339.616V179.156C339.616 180.777 340.283 181.516 341.725 181.516C342.429 181.516 343.096 181.39 343.763 181.029L344.088 182.615C343.186 183.282 342.086 183.696 340.86 183.696C338.407 183.696 336.676 182.291 336.676 179.228L336.694 179.246Z" fill="#FFD9F0"/>
<path d="M355.034 168.201H358.893V168.327C357.937 169.372 357.486 170.525 356.819 172.219L351.716 185.318C350.219 189.21 348.109 190.129 345.999 190.129C345.206 190.129 344.43 189.966 343.835 189.624V187.102C344.466 187.354 345.17 187.48 345.909 187.48C347.604 187.48 348.975 186.813 349.894 184.327L350.237 183.426L345.639 172.201C344.935 170.543 344.43 169.372 343.493 168.309V168.183H348.253V168.309C347.749 169.336 348.163 170.471 348.794 172.129L351.571 179.426H351.734L354.547 172.129C355.16 170.561 355.539 169.318 355.034 168.309V168.183V168.201Z" fill="#FFD9F0"/>
</svg>
