<svg width="699" height="200" viewBox="0 0 699 200" fill="none" xmlns="http://www.w3.org/2000/svg">
<path d="M631.808 107.933L698.039 45.0289L577.081 17.9375L578.147 1.37527L507.128 18.1562L510.017 6.57986L428.83 8.73792V12.5829L299.765 11.7857L297.418 83.2342L277.317 57.0788L267.043 63.4155L271.514 0.00195312L227.861 16.8953L226.763 8.35929L160.213 19.1171L163.76 39.4669L120.356 11.3583L104.592 30.8246L35.0858 37.8186L10.2244 100.464L43.9498 97.1073L0 178.702L161.685 179.987L161.702 180.036H167.862L190.226 180.213L190.153 180.036H425.093L541.045 200.002V182.305H659.269L631.807 107.931L631.808 107.933ZM177.863 120.419L166.4 119.771L175.247 105.4L177.864 120.419H177.863ZM308.449 97.5883L297.574 83.4379L334.268 74.4582L335.588 97.5883H308.449ZM394.197 74.1521L407.394 76.5138V95.5003L395.595 95.8089L394.197 74.1521Z" fill="#FFEDD9"/>
<path d="M161.069 99.8714L180.562 68.2027L123.51 31.2557L111.777 45.7449L112.043 45.1451L45.6269 51.8279L33.2143 83.1055L70.4921 79.3954L24.9737 163.905L167.92 165.041L133.062 79.1142L161.07 99.8714H161.069ZM76.896 124.541L97.8398 77.2298L115.444 124.77L76.896 124.541Z" fill="#990054"/>
<path d="M273.685 76.9274L250.063 91.4953L254.929 22.4935L215.462 37.7662L213.899 25.6263L177.559 31.5007L195.844 136.451L161.152 134.493L172.195 165.039H291.095L305.725 118.618L273.683 76.9262L273.685 76.9274ZM217.026 54.6058L225.232 53.0388L223.442 104.342L217.026 54.6058ZM247.114 133.319L248.651 111.544L265.089 131.361L247.114 133.319Z" fill="#990054"/>
<path d="M381.592 111.175L378.034 56.0278L412.384 62.1746L415.247 27.4957L314.241 26.8709L313.014 64.2227L348.182 55.6167L351.43 112.582H314.65L298.701 165.039H424.652L421.789 110.123L381.592 111.174V111.175ZM343.095 140.861L351.994 122.46L353.09 141.681L343.096 140.861H343.095ZM383.349 138.402L382.24 121.198L395.617 138.811L383.349 138.402Z" fill="#990054"/>
<path d="M490.386 132.427L464.117 128.713L472.442 95.3528L506.55 93.9857V66.9844H479.521L490.723 22.0949L443.794 23.342V54.056L454.19 53.6274L450.608 66.9844H422.356V97.3609L442.681 96.5462L428.081 165.335L526.084 182.211V111.839H490.386V132.427Z" fill="#990054"/>
<path d="M621.829 96.7511L667.347 53.5186L561.326 29.7737L561.915 20.6179L514.063 31.9255L517.564 68.7563L538.184 53.5199L529.625 122.772L547.338 115.258L528.214 167.31H637.78L609.272 90.102L621.83 96.7511H621.829ZM611.324 56.0991L601.128 68.0528L595.762 53.5199L611.324 56.0991ZM575.92 72.865L558.024 81.0524L560.233 46.7358L575.92 72.8637V72.865ZM572.803 134.685L583.702 104.836H571.905L583.504 99.9164L595.587 134.685H572.803Z" fill="#990054"/>
<path d="M575.156 45.4725C579.042 43.8655 582.794 45.6974 584.22 49.1613C585.49 52.2491 584.61 55.0494 582.352 56.5927L582.178 56.5802L581.152 54.5458C582.526 53.4524 582.943 51.768 582.197 49.9548C581.17 47.4593 578.665 46.6683 576.085 47.7342C573.505 48.8002 572.293 51.1507 573.327 53.6636C574.059 55.4405 575.533 56.3228 577.283 56.1453L577.979 58.2946L577.873 58.4433C574.984 58.8607 572.525 57.4187 571.322 54.4933C569.895 51.0282 571.268 47.0794 575.155 45.4725H575.156Z" fill="#FFEDD9"/>
<path d="M580.454 58.3434C584.306 56.7514 588.04 58.4421 589.51 62.0147C590.988 65.6048 589.529 69.4436 585.677 71.0356C581.826 72.6276 578.091 70.9368 576.614 67.3467C575.144 63.7741 576.602 59.9366 580.454 58.3446V58.3434ZM584.738 68.755C587.353 67.6741 588.53 65.3386 587.504 62.8432C586.484 60.3652 584 59.523 581.384 60.6039C578.769 61.6848 577.6 64.0378 578.619 66.5158C579.637 68.9937 582.122 69.8359 584.738 68.7538V68.755Z" fill="#FFEDD9"/>
<path d="M592.434 69.6285L593.358 71.8728L585.173 79.7928L596.557 79.6453L597.481 81.8896L584.943 87.0729L584.056 84.9186L591.92 81.6684L591.89 81.5972L591.065 81.8334L582.844 81.9758L581.995 79.9115L587.925 74.2046L588.676 73.7884L588.646 73.7172L580.782 76.9674L579.895 74.8131L592.434 69.6298V69.6285Z" fill="#FFEDD9"/>
<path d="M598.116 83.4329L599.04 85.6771L590.855 93.5971L602.239 93.4497L603.163 95.694L590.625 100.877L589.738 98.723L597.602 95.4728L597.572 95.4015L596.747 95.6377L588.526 95.7802L587.677 93.7158L593.607 88.0089L594.358 87.5928L594.328 87.5216L586.464 90.7718L585.577 88.6175L598.116 83.4341V83.4329Z" fill="#FFEDD9"/>
<path d="M595.934 100.487L603.798 97.2372L604.722 99.4815L596.894 102.718C595.067 103.473 594.365 104.772 595.081 106.513C595.797 108.254 597.209 108.679 599.036 107.924L606.864 104.687L607.788 106.932L599.924 110.182C597.057 111.366 594.338 110.412 593.075 107.341C591.812 104.271 593.069 101.672 595.934 100.487Z" fill="#FFEDD9"/>
<path d="M608.423 108.475L609.435 110.934L602.847 119.729L602.389 120.044L602.411 120.097L611.636 116.284L612.56 118.528L600.021 123.711L599.009 121.252L605.597 112.457L606.055 112.142L606.032 112.089L596.808 115.903L595.884 113.658L608.423 108.475Z" fill="#FFEDD9"/>
<path d="M613.196 120.071L614.12 122.315L601.581 127.499L600.657 125.255L613.196 120.071Z" fill="#FFEDD9"/>
<path d="M613.84 127.24L612.532 124.062L614.502 123.248L618.041 131.846L616.071 132.661L614.763 129.483L604.194 133.852L603.271 131.608L613.839 127.239L613.84 127.24Z" fill="#FFEDD9"/>
<path d="M611.57 138.935L618.036 131.83L619.026 134.235L615.096 138.487L613.83 139.283L613.86 139.354L615.318 139.024L621.096 139.261L622.086 141.667L612.495 141.178L607.981 143.044L607.057 140.8L611.571 138.934L611.57 138.935Z" fill="#FFEDD9"/>
<path d="M88.7014 138.811H91.1229V152.405H88.7014V138.811Z" fill="#FFEDD9"/>
<path d="M92.7899 138.811H95.4445L101.044 148.268L101.16 148.812H101.219V138.811H103.641V152.405H100.987L95.3872 142.948L95.2712 142.404H95.2126V152.405H92.7899V138.811Z" fill="#FFEDD9"/>
<path d="M349.459 36.9414H346.029V34.8059H355.311V36.9414H351.881V48.399H349.459V36.9414Z" fill="#FFEDD9"/>
<path d="M356.318 34.8059H358.741V40.534H364.457V34.8059H366.878V48.399H364.457V42.6709H358.741V48.399H356.318V34.8059Z" fill="#FFEDD9"/>
<path d="M368.545 34.8059H377.11V36.9414H370.968V40.534H376.587V42.6696H370.968V46.2622H377.323V48.3978H368.545V34.8046V34.8059Z" fill="#FFEDD9"/>
</svg>
