<svg width="295" height="200" viewBox="0 0 295 200" fill="none" xmlns="http://www.w3.org/2000/svg">
<path d="M290.429 9.64499C286.763 4.22355 280.669 0.986459 274.127 0.986459H261.247C255.577 0.986459 250.378 3.35539 246.734 7.34912C243.078 3.3602 237.865 0.986459 232.239 0.986459H218.602C212.002 0.986459 205.878 4.26778 202.221 9.76516C198.563 15.2616 197.899 22.1809 200.446 28.2734L214.269 61.3404L203.134 57.4524C201.044 56.7218 198.862 56.3516 196.647 56.3516H195.672C193.393 56.3516 191.202 56.742 189.164 57.4582C189.09 56.4651 188.94 55.4815 188.719 54.5153C190.045 51.26 190.733 47.7681 190.733 44.2012C190.733 29.1041 178.458 16.822 163.369 16.822C148.281 16.822 136.005 29.1041 136.005 44.2012C136.005 47.7681 136.694 51.26 138.02 54.5153C137.689 55.9565 137.52 57.4371 137.52 58.9292V66.5532C133.816 65.4957 129.845 64.9486 125.692 64.9486C121.335 64.9486 117.032 65.5918 112.851 66.8638C111.025 66.3148 109.117 66.0321 107.183 66.0321H99.2987V47.6268C99.2987 36.7695 90.4708 27.9369 79.6192 27.9369H66.0896C59.688 27.9369 53.9917 31.0106 50.395 35.76C46.7983 31.0106 41.1021 27.9369 34.7005 27.9369H21.1708C10.3193 27.9369 1.49137 36.7695 1.49137 47.6268V95.1679C1.49137 124.04 21.6013 144.205 50.395 144.205C59.614 144.205 68.0143 142.168 75.1654 138.339V139.869C75.1654 150.726 83.9933 159.559 94.8449 159.559H107.183C111.801 159.559 116.054 157.958 119.414 155.283C122.775 157.958 127.028 159.559 131.646 159.559H135.746V170.794C134.367 170.285 132.864 170.013 131.283 170.013C129.406 170.013 127.645 170.398 126.076 171.099C123.713 167.269 119.389 164.894 114.301 164.894C106.188 164.894 99.8322 171.32 99.8322 179.524C99.8322 187.727 106.188 194.154 114.301 194.154C117.717 194.154 120.76 193.11 123.123 191.221C125.267 193.085 128.111 194.154 131.283 194.154C133.443 194.154 135.462 193.645 137.21 192.721C138.134 193.458 139.305 193.898 140.575 193.898H143.491C144.324 193.898 145.114 193.708 145.82 193.371C146.525 193.708 147.315 193.898 148.148 193.898H151.064C151.897 193.898 152.687 193.708 153.392 193.371C154.098 193.708 154.888 193.898 155.721 193.898H158.637C159.194 193.898 159.731 193.813 160.237 193.656C160.742 193.813 161.279 193.898 161.836 193.898H164.752C165.585 193.898 166.375 193.708 167.081 193.371C167.786 193.708 168.576 193.898 169.409 193.898H172.325C173.158 193.898 173.948 193.708 174.654 193.371C175.359 193.708 176.149 193.898 176.982 193.898H179.898C180.919 193.898 181.874 193.614 182.69 193.121C184.042 193.788 185.612 194.154 187.338 194.154C188.362 194.154 189.388 194.012 190.378 193.737C190.803 193.843 191.242 193.898 191.687 193.898H194.603C195.165 193.898 195.707 193.812 196.217 193.652C196.728 193.812 197.27 193.898 197.832 193.898H200.748C201.811 193.898 202.803 193.59 203.639 193.059C204.476 193.59 205.468 193.898 206.531 193.898H209.447C209.989 193.898 210.511 193.816 211.005 193.667C211.499 193.816 212.021 193.898 212.562 193.898H215.479C216.629 193.898 217.697 193.537 218.574 192.923C219.92 193.712 221.527 194.154 223.3 194.154C223.801 194.154 224.256 194.135 224.7 194.094C224.781 194.991 225.086 195.865 225.605 196.632C226.612 198.126 228.289 199.017 230.09 199.017H233.085C235.31 199.017 237.282 197.682 238.106 195.62L245.295 177.702C245.966 176.03 245.764 174.141 244.759 172.654C243.752 171.161 242.075 170.269 240.273 170.269H237.229C235.941 170.269 234.741 170.714 233.797 171.489C232.851 170.715 231.65 170.269 230.372 170.269H227.457C226.827 169.119 225.787 168.207 224.494 167.757L221.784 166.81C221.209 166.609 220.608 166.507 219.999 166.507H219.768C219.375 166.507 218.991 166.549 218.622 166.629C218.523 166.547 218.418 166.472 218.314 166.396C220.241 166.134 222.18 165.764 224.316 165.249C233.185 163.107 239.38 155.237 239.38 146.108V136.253C239.38 129.665 236.112 123.546 230.64 119.886C230.64 119.886 230.232 119.613 230.189 119.585C231.774 118.659 233.222 117.511 234.492 116.172H243.712C251.795 116.172 258.964 111.323 261.975 103.818L292.39 28.0119C294.827 21.9377 294.095 15.0722 290.429 9.64499ZM177.503 149.615C175.425 149.615 173.617 150.793 172.711 152.516L171.358 152.043C170.782 151.842 170.182 151.74 169.572 151.74H169.342C166.614 151.74 164.351 153.769 163.983 156.399C163.297 156.853 162.726 157.464 162.306 158.174C160.777 156.564 158.656 155.522 156.178 155.295C160.729 151.685 163.663 146.118 163.663 139.869V132.766H169.539C171.798 132.766 173.97 132.383 175.993 131.679V132.137C175.993 138.686 177.458 144.597 180.11 149.615H177.503Z" fill="#5A60FE"/>
<path d="M274.127 0.986459C280.669 0.986459 286.763 4.22355 290.429 9.64499C294.095 15.0722 294.827 21.9377 292.39 28.0119L261.975 103.818C258.964 111.323 251.795 116.172 243.712 116.172H234.492C233.222 117.511 231.774 118.659 230.189 119.585C230.232 119.613 230.64 119.886 230.64 119.886C236.112 123.546 239.38 129.665 239.38 136.253V146.108C239.38 155.237 233.185 163.107 224.316 165.249C222.18 165.764 220.241 166.134 218.314 166.396C218.418 166.472 218.523 166.547 218.622 166.629C218.991 166.549 219.375 166.507 219.768 166.507H219.999C220.608 166.507 221.209 166.609 221.784 166.81L224.494 167.757C225.787 168.207 226.827 169.119 227.457 170.269H230.372C231.65 170.269 232.851 170.715 233.797 171.489C234.741 170.714 235.941 170.269 237.229 170.269H240.273C242.075 170.269 243.752 171.161 244.759 172.654C245.764 174.141 245.966 176.03 245.295 177.702L238.106 195.62C237.282 197.682 235.31 199.017 233.085 199.017H230.09C228.289 199.017 226.612 198.126 225.605 196.632C225.086 195.865 224.781 194.991 224.7 194.094C224.256 194.135 223.801 194.154 223.3 194.154C221.527 194.154 219.92 193.712 218.574 192.923C217.697 193.537 216.629 193.898 215.479 193.898H212.562C212.021 193.898 211.499 193.816 211.005 193.667C210.511 193.816 209.989 193.898 209.447 193.898H206.531C205.468 193.898 204.476 193.59 203.639 193.059C202.803 193.59 201.811 193.898 200.748 193.898H197.832C197.27 193.898 196.728 193.812 196.217 193.652C195.707 193.812 195.165 193.898 194.603 193.898H191.687C191.242 193.898 190.803 193.843 190.378 193.737C189.388 194.012 188.362 194.154 187.338 194.154C185.612 194.154 184.042 193.788 182.69 193.121C181.874 193.614 180.919 193.898 179.898 193.898H176.982C176.149 193.898 175.359 193.708 174.654 193.371C173.948 193.708 173.158 193.898 172.325 193.898H169.409C168.576 193.898 167.786 193.708 167.081 193.371C166.375 193.708 165.585 193.898 164.752 193.898H161.836C161.279 193.898 160.742 193.813 160.237 193.656C159.731 193.813 159.194 193.898 158.637 193.898H155.721C154.888 193.898 154.098 193.708 153.392 193.371C152.687 193.708 151.897 193.898 151.064 193.898H148.148C147.315 193.898 146.525 193.708 145.82 193.371C145.114 193.708 144.324 193.898 143.491 193.898H140.575C139.305 193.898 138.134 193.458 137.21 192.721C135.462 193.645 133.443 194.154 131.283 194.154C128.111 194.154 125.267 193.085 123.123 191.221C120.76 193.11 117.717 194.154 114.301 194.154C106.188 194.154 99.8322 187.727 99.8322 179.524C99.8322 171.32 106.188 164.894 114.301 164.894C119.389 164.894 123.713 167.269 126.076 171.099C127.645 170.398 129.406 170.013 131.283 170.013C132.864 170.013 134.367 170.285 135.746 170.794V159.559H131.646C127.028 159.559 122.775 157.958 119.414 155.283C116.054 157.958 111.801 159.559 107.183 159.559H94.8449C83.9933 159.559 75.1654 150.726 75.1654 139.869V138.339C68.0143 142.168 59.614 144.205 50.395 144.205C21.6013 144.205 1.49137 124.04 1.49137 95.1679V47.6268C1.49137 36.7695 10.3193 27.9369 21.1708 27.9369H34.7005C41.1021 27.9369 46.7983 31.0106 50.395 35.76C53.9917 31.0106 59.688 27.9369 66.0896 27.9369H79.6192C90.4708 27.9369 99.2987 36.7695 99.2987 47.6268V66.0321H107.183C109.117 66.0321 111.025 66.3148 112.851 66.8638C117.032 65.5918 121.335 64.9486 125.692 64.9486C129.845 64.9486 133.816 65.4957 137.52 66.5532V58.9292C137.52 57.4371 137.689 55.9565 138.02 54.5153C136.694 51.26 136.005 47.7681 136.005 44.2012C136.005 29.1041 148.281 16.822 163.369 16.822C178.458 16.822 190.733 29.1041 190.733 44.2012C190.733 47.7681 190.045 51.26 188.719 54.5153C188.94 55.4815 189.09 56.4651 189.164 57.4582C191.202 56.742 193.393 56.3516 195.672 56.3516H196.647C198.862 56.3516 201.044 56.7218 203.134 57.4524L214.269 61.3404L200.446 28.2734C197.899 22.1809 198.563 15.2616 202.221 9.76516C205.878 4.26778 212.002 0.986459 218.602 0.986459H232.239C237.865 0.986459 243.078 3.3602 246.734 7.34912C250.378 3.35539 255.577 0.986459 261.247 0.986459H274.127ZM162.306 158.174C162.726 157.464 163.297 156.853 163.983 156.399C164.351 153.769 166.614 151.74 169.342 151.74H169.572C170.182 151.74 170.782 151.842 171.358 152.043L172.711 152.516C173.617 150.793 175.425 149.615 177.503 149.615H180.11C177.458 144.597 175.993 138.686 175.993 132.137V131.679C173.97 132.383 171.798 132.766 169.539 132.766H163.663V139.869C163.663 146.118 160.729 151.685 156.178 155.295C158.656 155.522 160.777 156.564 162.306 158.174ZM274.127 0.00195312H261.247C255.79 0.00195312 250.559 2.15054 246.733 5.93074C242.893 2.15062 237.669 0.00195312 232.239 0.00195312H218.602C211.671 0.00195312 205.242 3.4479 201.402 9.21962C197.56 14.9915 196.864 22.2565 199.538 28.6533L212.51 59.6834L203.458 56.5229C201.264 55.756 198.973 55.3671 196.647 55.3671H195.672C193.747 55.3671 191.85 55.6316 190.016 56.1546C189.946 55.6344 189.855 55.1148 189.745 54.5999C191.054 51.2854 191.717 47.7884 191.717 44.2013C191.717 28.5614 179 15.8374 163.369 15.8374C147.738 15.8374 135.021 28.5614 135.021 44.2013C135.021 47.7883 135.685 51.2851 136.993 54.5995C136.69 56.021 136.536 57.4758 136.536 58.9292V65.2701C133.086 64.403 129.444 63.9642 125.692 63.9642C121.35 63.9642 117.03 64.5941 112.848 65.8369C111.008 65.3131 109.104 65.0476 107.183 65.0476H100.283V47.6267C100.283 36.2268 91.013 26.9524 79.6192 26.9524H66.0896C59.9871 26.9524 54.3348 29.5746 50.395 34.1902C46.4553 29.5746 40.803 26.9524 34.7005 26.9524H21.1708C9.77691 26.9524 0.507324 36.2268 0.507324 47.6267V95.1679C0.507324 124.62 21.0219 145.19 50.395 145.19C59.123 145.19 67.1163 143.428 74.1815 139.951C74.2255 151.314 83.4781 160.543 94.8448 160.543H107.183C111.571 160.543 115.884 159.121 119.414 156.523C122.944 159.121 127.258 160.543 131.646 160.543H134.762V169.458C133.642 169.173 132.477 169.029 131.283 169.029C129.593 169.029 127.971 169.316 126.451 169.883C123.795 166.127 119.317 163.909 114.301 163.909C105.636 163.909 98.8482 170.768 98.8482 179.524C98.8482 188.279 105.636 195.138 114.301 195.138C117.607 195.138 120.631 194.219 123.099 192.47C125.369 194.196 128.243 195.138 131.283 195.138C133.334 195.138 135.338 194.7 137.119 193.866C138.145 194.525 139.35 194.882 140.575 194.882H143.491C144.298 194.882 145.079 194.735 145.819 194.444C146.56 194.735 147.341 194.882 148.148 194.882H151.064C151.871 194.882 152.652 194.735 153.393 194.444C154.133 194.735 154.914 194.882 155.721 194.882H158.637C159.179 194.882 159.716 194.814 160.237 194.679C160.758 194.814 161.294 194.882 161.836 194.882H164.752C165.559 194.882 166.34 194.735 167.081 194.444C167.821 194.735 168.602 194.882 169.409 194.882H172.325C173.132 194.882 173.913 194.735 174.654 194.444C175.394 194.735 176.175 194.882 176.982 194.882H179.898C180.882 194.882 181.85 194.655 182.726 194.222C184.129 194.83 185.678 195.138 187.338 195.138C188.365 195.138 189.393 195.008 190.397 194.751C190.822 194.838 191.255 194.882 191.687 194.882H194.603C195.151 194.882 195.692 194.813 196.217 194.676C196.742 194.813 197.284 194.882 197.832 194.882H200.748C201.758 194.882 202.747 194.645 203.639 194.19C204.532 194.645 205.521 194.882 206.531 194.882H209.447C209.971 194.882 210.494 194.817 211.005 194.688C211.516 194.817 212.039 194.882 212.562 194.882H215.479C216.586 194.882 217.657 194.6 218.61 194.062C220.015 194.768 221.624 195.138 223.3 195.138C223.5 195.138 223.692 195.135 223.879 195.13C224.059 195.861 224.367 196.559 224.79 197.184C225.979 198.948 227.961 200.002 230.09 200.002H233.085C235.715 200.002 238.045 198.425 239.02 195.985L246.208 178.069C247.001 176.093 246.764 173.862 245.574 172.103C244.384 170.339 242.402 169.285 240.273 169.285H237.229C236.007 169.285 234.814 169.633 233.796 170.277C232.779 169.633 231.588 169.285 230.372 169.285H228.008C227.239 168.145 226.124 167.283 224.818 166.827L223.644 166.417C223.942 166.35 224.243 166.279 224.547 166.206C233.86 163.957 240.364 155.693 240.364 146.108V136.253C240.364 129.656 237.244 123.508 231.971 119.618C233.023 118.893 234.007 118.069 234.909 117.157H243.712C252.199 117.157 259.726 112.065 262.888 104.185L293.303 28.3787C295.862 22.0003 295.092 14.791 291.244 9.09371C287.394 3.40065 280.996 0.00195312 274.127 0.00195312ZM164.647 133.751H169.539C171.403 133.751 173.24 133.503 175.017 133.013C175.127 138.677 176.303 143.92 178.519 148.63H177.503C175.41 148.63 173.48 149.645 172.289 151.325L171.682 151.114C171.003 150.876 170.293 150.755 169.572 150.755H169.342C166.317 150.755 163.7 152.909 163.084 155.832C162.752 156.087 162.444 156.377 162.166 156.695C161.062 155.772 159.774 155.098 158.352 154.697C162.376 150.808 164.647 145.509 164.647 139.869V133.751Z" fill="#000433"/>
<path d="M282.279 15.162C280.448 12.4547 277.394 10.8318 274.127 10.8318H261.247C257.188 10.8318 253.545 13.3257 252.075 17.1108L246.956 30.2947L241.309 16.8608C239.775 13.2075 236.2 10.8318 232.239 10.8318H218.602C215.31 10.8318 212.236 12.4797 210.411 15.2216C208.586 17.9636 208.254 21.4362 209.524 24.4753L229.834 73.0615L225.573 83.6928C224.036 82.699 222.209 82.1154 220.243 82.1154H217.96V80.0474C217.96 75.8604 215.314 72.132 211.363 70.7524L199.889 66.7462C198.847 66.3818 197.751 66.1962 196.647 66.1962H195.673C190.239 66.1962 185.833 70.6043 185.833 76.0412V82.1154H185.606C183.243 82.1154 181.076 82.9504 179.379 84.3399V58.9289C179.379 57.0791 178.869 55.3486 177.982 53.8699C179.821 51.0962 180.894 47.7716 180.894 44.2009C180.894 34.5329 173.032 26.6666 163.37 26.6666C153.707 26.6666 145.845 34.5329 145.845 44.2009C145.845 47.7716 146.918 51.0962 148.757 53.8699C147.87 55.3486 147.36 57.0791 147.36 58.9289V83.8584C142.406 78.1291 134.874 74.7937 125.692 74.7937C121.162 74.7937 116.677 75.7109 112.495 77.4338C110.962 76.4483 109.14 75.8772 107.183 75.8772H94.8451C92.8555 75.8772 91.0069 76.4728 89.4587 77.4888V47.6272C89.4587 42.1904 85.0529 37.7823 79.6189 37.7823H66.0893C60.6553 37.7823 56.2496 42.1904 56.2496 47.6272V94.952C56.2496 102.542 53.536 102.542 50.3947 102.542C47.2535 102.542 44.5399 102.542 44.5399 94.952V47.6272C44.5399 42.1904 40.1341 37.7823 34.7002 37.7823H21.1705C15.7366 37.7823 11.3308 42.1904 11.3308 47.6272V95.1683C11.3308 118.611 27.0292 134.361 50.3947 134.361C66.3766 134.361 78.7676 126.989 85.0053 114.83V139.869C85.0053 145.306 89.4111 149.714 94.8451 149.714H107.183C112.617 149.714 117.023 145.306 117.023 139.869V107.982C118.6 106.345 120.344 105.313 121.687 105.313C121.724 105.313 121.76 105.313 121.795 105.314C121.801 105.444 121.806 105.591 121.806 105.756V139.869C121.806 145.306 126.212 149.714 131.646 149.714H143.984C149.418 149.714 153.824 145.306 153.824 139.869V122.313C154.878 122.699 156.012 122.921 157.2 122.921H169.54C174.974 122.921 179.379 118.513 179.379 113.076V110.193C181.076 111.582 183.243 112.417 185.606 112.417H185.833V132.137C185.833 147.029 195.79 157.035 210.609 157.035C214.821 157.035 217.911 156.667 222.009 155.677C226.428 154.611 229.541 150.655 229.541 146.107V136.253C229.541 132.966 227.902 129.896 225.171 128.069L224.846 127.852C223.212 126.759 221.306 126.191 219.377 126.191C218.905 126.191 218.431 126.224 217.96 126.294V112.417H220.243C224.407 112.417 227.958 109.826 229.395 106.17C229.939 106.263 230.489 106.328 231.05 106.328H243.712C247.732 106.328 251.347 103.882 252.844 100.15L283.259 24.3445C284.476 21.3103 284.108 17.8703 282.279 15.162Z" fill="#000433"/>
<path d="M158.393 175.193H159.469C160.283 175.193 160.945 174.532 160.945 173.716V164.91C160.945 161.485 158.613 159.184 155.144 159.184C153.853 159.184 152.761 159.519 151.888 159.953C151.618 159.639 151.216 159.44 150.769 159.44H147.853C147.038 159.44 146.377 160.101 146.377 160.917V173.716C146.377 173.821 146.389 173.923 146.41 174.022C146.191 174.053 145.974 174.092 145.762 174.145C145.803 174.008 145.832 173.866 145.832 173.716V155.798C145.832 154.982 145.171 154.321 144.356 154.321H141.158C140.344 154.321 139.682 154.982 139.682 155.798V173.716C139.682 173.965 139.75 174.195 139.858 174.401C139.407 174.654 139.099 175.13 139.099 175.684V179.402C138.052 176.131 135.087 173.952 131.283 173.952C126.78 173.952 123.442 176.983 123.066 181.269C122.866 181.144 122.638 181.065 122.398 181.046L119.43 180.817C118.728 180.765 118.1 181.2 117.901 181.865C117.414 183.497 116.135 184.395 114.301 184.395C111.655 184.395 109.944 182.483 109.944 179.524C109.944 176.565 111.634 174.652 114.25 174.652C116.136 174.652 117.432 175.546 117.898 177.168C118.091 177.841 118.721 178.28 119.429 178.232L122.423 178.002C122.94 177.962 123.399 177.652 123.63 177.187L123.732 176.982C123.88 176.685 123.923 176.346 123.855 176.021C122.939 171.654 119.188 168.832 114.301 168.832C108.296 168.832 103.768 173.429 103.768 179.524C103.768 185.619 108.296 190.216 114.301 190.216C118.532 190.216 121.88 188.065 123.363 184.513C124.338 187.926 127.37 190.216 131.283 190.216C135.087 190.216 138.052 188.037 139.099 184.766V188.483C139.099 189.299 139.76 189.96 140.575 189.96H143.491C144.306 189.96 144.967 189.299 144.967 188.483V180.358C145.416 179.793 145.91 179.465 146.332 179.465C146.505 179.465 146.588 179.493 146.587 179.485C146.588 179.486 146.672 179.613 146.672 180.01V188.483C146.672 189.299 147.333 189.96 148.148 189.96H151.064C151.879 189.96 152.54 189.299 152.54 188.483V180.18C153.057 179.547 153.528 179.465 153.853 179.465C154.08 179.465 154.164 179.509 154.168 179.509C154.188 179.536 154.245 179.673 154.245 179.959V188.483C154.245 189.299 154.906 189.96 155.721 189.96H158.637C159.452 189.96 160.113 189.299 160.113 188.483V179.217C160.113 177.492 159.479 176.113 158.393 175.193ZM131.283 179.49C132.784 179.49 133.645 180.436 133.645 182.084C133.645 183.732 132.784 184.677 131.283 184.677C129.766 184.677 128.896 183.732 128.896 182.084C128.896 180.436 129.766 179.49 131.283 179.49ZM154.698 173.952C153.757 173.952 152.864 174.146 152.016 174.5C152.159 174.273 152.245 174.005 152.245 173.716V165.857C152.743 165.25 153.454 164.698 154.198 164.698C154.795 164.698 155.076 164.792 155.076 165.653V173.716C155.076 173.808 155.087 173.897 155.103 173.984C154.966 173.977 154.839 173.952 154.698 173.952Z" fill="#000433"/>
<path d="M205.123 173.952C203.832 173.952 202.74 174.287 201.867 174.721C201.863 174.716 201.858 174.713 201.854 174.708C203.753 173.831 205.131 172.198 205.781 169.923C205.868 169.617 205.854 169.293 205.743 168.999C205.931 168.752 206.041 168.444 206.041 168.11V167.214C206.041 162.411 202.939 159.184 198.323 159.184C194.851 159.184 191.98 161.398 190.908 164.56C190.717 161.328 188.375 159.184 184.948 159.184C183.827 159.184 182.792 159.433 181.895 159.811V155.03C181.895 154.214 181.234 153.553 180.419 153.553H177.503C176.688 153.553 176.027 154.214 176.027 155.03V159.735C175.781 159.552 175.479 159.44 175.15 159.44H173.76V158.102C173.76 157.474 173.363 156.914 172.77 156.708L170.059 155.761C169.902 155.706 169.738 155.678 169.573 155.678H169.342C168.527 155.678 167.866 156.339 167.866 157.155V159.44H166.963C166.148 159.44 165.487 160.101 165.487 160.917V163.426C165.487 164.242 166.148 164.903 166.963 164.903H167.866V170.414C167.866 171.899 168.337 173.121 169.161 173.994C168.972 173.978 168.79 173.952 168.59 173.952C167.583 173.952 166.629 174.172 165.756 174.601C165.492 174.357 165.14 174.207 164.753 174.207H161.836C161.021 174.207 160.36 174.868 160.36 175.684V188.483C160.36 189.299 161.021 189.96 161.836 189.96H164.753C165.567 189.96 166.229 189.299 166.229 188.483V180.358C166.677 179.793 167.171 179.465 167.593 179.465C167.766 179.465 167.85 179.493 167.848 179.485C167.849 179.486 167.933 179.613 167.933 180.01V188.483C167.933 189.299 168.594 189.96 169.409 189.96H172.326C173.14 189.96 173.801 189.299 173.801 188.483V180.18C174.318 179.547 174.789 179.465 175.114 179.465C175.341 179.465 175.425 179.509 175.429 179.509C175.449 179.536 175.506 179.673 175.506 179.959V188.483C175.506 189.299 176.167 189.96 176.982 189.96H179.898C180.713 189.96 181.374 189.299 181.374 188.483V179.217C181.374 177.492 180.74 176.113 179.654 175.193H180.419C181.234 175.193 181.895 174.532 181.895 173.716V165.757C182.49 165.095 183.277 164.698 184.027 164.698C184.979 164.698 185.059 165.17 185.059 165.653V173.716C185.059 173.889 185.094 174.053 185.149 174.207H182.989C182.174 174.207 181.513 174.868 181.513 175.684V184.311C181.513 187.898 183.799 190.216 187.338 190.216C188.474 190.216 189.584 189.954 190.586 189.467C190.857 189.77 191.25 189.96 191.687 189.96H194.603C195.418 189.96 196.079 189.299 196.079 188.483V175.684C196.079 175.488 196.039 175.302 195.97 175.131C196.121 175.173 196.276 175.208 196.431 175.242C196.387 175.382 196.356 175.529 196.356 175.684V188.483C196.356 189.299 197.017 189.96 197.832 189.96H200.748C201.563 189.96 202.224 189.299 202.224 188.483V180.625C202.722 180.017 203.433 179.465 204.177 179.465C204.774 179.465 205.055 179.56 205.055 180.42V188.483C205.055 189.299 205.716 189.96 206.531 189.96H209.447C210.262 189.96 210.923 189.299 210.923 188.483V179.678C210.923 176.253 208.592 173.952 205.123 173.952ZM198.374 170.013C197.784 170.013 197.306 169.867 196.953 169.587H199.809C199.514 169.837 199.07 170.013 198.374 170.013ZM176.027 164.607V170.331C175.944 170.246 175.855 170.168 175.76 170.104C175.415 169.876 174.991 169.803 174.588 169.903C174.282 169.979 174.096 170.012 173.76 170.013V164.903H175.15C175.479 164.903 175.781 164.791 176.027 164.607ZM191.687 174.207C190.872 174.207 190.211 174.868 190.211 175.684V183.561C189.65 184.282 188.958 184.703 188.31 184.703C187.59 184.703 187.381 184.489 187.381 183.747V175.684C187.381 175.511 187.346 175.347 187.291 175.193H189.451C190.266 175.193 190.927 174.532 190.927 173.716V170.293C191.487 171.959 192.521 173.309 193.911 174.207H191.687Z" fill="#000433"/>
<path d="M241.496 174.857C241.222 174.451 240.764 174.207 240.273 174.207H237.229C236.62 174.207 236.074 174.581 235.853 175.149L233.882 180.225L231.733 175.112C231.502 174.564 230.966 174.207 230.372 174.207H227.148C226.866 174.207 226.6 174.295 226.368 174.441C226.139 174.295 225.868 174.207 225.576 174.207H224.187V172.869C224.187 172.241 223.79 171.682 223.197 171.475L220.485 170.528C220.329 170.473 220.164 170.445 219.999 170.445H219.769C218.954 170.445 218.293 171.106 218.293 171.922V174.207H217.389C217.023 174.207 216.692 174.346 216.434 174.567C216.412 174.548 216.395 174.525 216.372 174.508C216.954 173.913 217.313 173.1 217.313 172.204C217.313 170.387 215.837 168.909 214.02 168.909C212.205 168.909 210.728 170.387 210.728 172.204C210.728 173.1 211.088 173.914 211.67 174.508C211.315 174.777 211.087 175.204 211.087 175.684V188.483C211.087 189.299 211.748 189.96 212.563 189.96H215.479C216.294 189.96 216.955 189.299 216.955 188.483V179.598C217.093 179.64 217.237 179.67 217.389 179.67H218.293V185.181C218.293 188.24 220.258 190.216 223.3 190.216C224.232 190.216 224.885 190.138 225.794 189.919C226.458 189.759 226.925 189.166 226.925 188.483V186.154C226.925 185.659 226.6 185.145 226.187 184.872C225.842 184.644 225.418 184.57 225.015 184.67C224.709 184.746 224.523 184.779 224.187 184.78V179.67H225.576C226.146 179.67 226.635 179.344 226.881 178.871L230.722 188.06L228.72 193.054C228.539 193.508 228.594 194.024 228.868 194.43C229.142 194.836 229.601 195.08 230.091 195.08H233.085C233.687 195.08 234.23 194.713 234.454 194.153L241.643 176.234C241.825 175.779 241.771 175.263 241.496 174.857Z" fill="#000433"/>
</svg>
