<svg width="647" height="200" viewBox="0 0 647 200" fill="none" xmlns="http://www.w3.org/2000/svg">
<path d="M646.714 0.00244141H0.943359V200.002H646.714V0.00244141Z" fill="#0A0A0A"/>
<path d="M24.0498 105.966H41.2172V110.849H24.1401C20.1506 110.849 17.84 112.723 17.84 116.507C17.84 120.291 20.1506 122.165 24.1401 122.165H41.2172V127.047H24.0498C17.7858 127.047 13.4533 123.192 13.4533 116.507C13.4533 109.822 17.7858 105.966 24.0498 105.966Z" fill="#FAFAFA"/>
<path d="M24.0498 129.029H41.2172V133.912H24.1401C20.1506 133.912 17.84 135.786 17.84 139.57C17.84 143.354 20.1506 145.228 24.1401 145.228H41.2172V150.111H24.0498C17.7858 150.111 13.4533 146.255 13.4533 139.57C13.4533 132.885 17.7858 129.029 24.0498 129.029Z" fill="#FAFAFA"/>
<path d="M36.1085 159.966L46.2898 146.183L50.2251 149.084L40.0799 162.813C37.7151 166.02 37.8595 168.975 40.9103 171.228C43.9611 173.48 46.8494 172.723 49.2142 169.534L59.3594 155.804L63.2947 158.705L53.1134 172.489C49.3947 177.516 43.7083 178.705 38.3289 174.741C32.9494 170.777 32.4078 165.011 36.1265 159.984L36.1085 159.966Z" fill="#FAFAFA"/>
<path d="M66.6704 175.48V158.345H71.5624V175.39C71.5624 179.372 73.4398 181.678 77.2307 181.678C81.0216 181.678 82.899 179.372 82.899 175.39V158.345H87.7911V175.48C87.7911 181.732 83.928 186.057 77.2307 186.057C70.5335 186.057 66.6704 181.732 66.6704 175.48Z" fill="#FAFAFA"/>
<path d="M24.0498 82.9033H41.2172V87.7862H24.1401C20.1506 87.7862 17.84 89.6601 17.84 93.4439C17.84 97.2277 20.1506 99.1015 24.1401 99.1015H41.2172V103.984H24.0498C17.7858 103.984 13.4533 100.129 13.4533 93.4439C13.4533 86.7592 17.7858 82.9033 24.0498 82.9033Z" fill="#FAFAFA"/>
<path d="M24.0498 59.8223H41.2172V64.7051H24.1401C20.1506 64.7051 17.84 66.579 17.84 70.3628C17.84 74.1466 20.1506 76.0205 24.1401 76.0205H41.2172V80.9033H24.0498C17.7858 80.9033 13.4533 77.0475 13.4533 70.3628C13.4533 63.6781 17.7858 59.8223 24.0498 59.8223Z" fill="#FAFAFA"/>
<path d="M24.0498 36.7592H41.2172V41.6421H24.1401C20.1506 41.6421 17.84 43.516 17.84 47.2997C17.84 51.0835 20.1506 52.9574 24.1401 52.9574H41.2172V57.8403H24.0498C17.7858 57.8403 13.4533 53.9844 13.4533 47.2997C13.4533 40.6151 17.7858 36.7592 24.0498 36.7592Z" fill="#FAFAFA"/>
<path d="M24.0498 13.6961H41.2172V18.579H24.1401C20.1506 18.579 17.84 20.4529 17.84 24.2367C17.84 28.0205 20.1506 29.8943 24.1401 29.8943H41.2172V34.7772H24.0498C17.7858 34.7772 13.4533 30.9214 13.4533 24.2367C13.4533 17.552 17.7858 13.6961 24.0498 13.6961Z" fill="#FAFAFA"/>
<path d="M131.459 34.7592H114.291V29.8763H131.368C135.358 29.8763 137.669 28.0024 137.669 24.2187C137.669 20.4349 135.358 18.561 131.368 18.561H114.291V13.6781H131.459C137.723 13.6781 142.055 17.534 142.055 24.2187C142.055 30.9033 137.723 34.7592 131.459 34.7592Z" fill="#FAFAFA"/>
<path d="M131.459 57.8403H114.291V52.9574H131.368C135.358 52.9574 137.669 51.0835 137.669 47.2997C137.669 43.516 135.358 41.6421 131.368 41.6421H114.291V36.7592H131.459C137.723 36.7592 142.055 40.6151 142.055 47.2997C142.055 53.9844 137.723 57.8403 131.459 57.8403Z" fill="#FAFAFA"/>
<path d="M131.459 80.9033H114.291V76.0205H131.368C135.358 76.0205 137.669 74.1466 137.669 70.3628C137.669 66.579 135.358 64.7051 131.368 64.7051H114.291V59.8223H131.459C137.723 59.8223 142.055 63.6781 142.055 70.3628C142.055 77.0475 137.723 80.9033 131.459 80.9033Z" fill="#FAFAFA"/>
<path d="M131.459 103.966H114.291V99.0835H131.368C135.358 99.0835 137.669 97.2096 137.669 93.4259C137.669 89.6421 135.358 87.7682 131.368 87.7682H114.291V82.8853H131.459C137.723 82.8853 142.055 86.7412 142.055 93.4259C142.055 100.111 137.723 103.966 131.459 103.966Z" fill="#FAFAFA"/>
<path d="M131.459 127.029H114.291V122.147H131.368C135.358 122.147 137.669 120.273 137.669 116.489C137.669 112.705 135.358 110.831 131.368 110.831H114.291V105.948H131.459C137.723 105.948 142.055 109.804 142.055 116.489C142.055 123.174 137.723 127.029 131.459 127.029Z" fill="#FAFAFA"/>
<path d="M131.459 150.111H114.291V145.228H131.368C135.358 145.228 137.669 143.354 137.669 139.57C137.669 135.786 135.358 133.912 131.368 133.912H114.291V129.029H131.459C137.723 129.029 142.055 132.885 142.055 139.57C142.055 146.255 137.723 150.111 131.459 150.111Z" fill="#FAFAFA"/>
<path d="M99.8678 171.462L91.4376 156.543L95.6979 154.147L104.092 168.993C106.042 172.453 108.822 173.552 112.125 171.696C115.429 169.84 115.934 166.921 113.966 163.444L105.572 148.597L109.833 146.201L118.263 161.12C121.332 166.561 120.086 172.237 114.273 175.498C108.443 178.777 102.955 176.903 99.8678 171.462Z" fill="#FAFAFA"/>
<path d="M165.974 186.057V180.741L185.687 169.516L186.824 169.282V169.174H165.974V164.327H194.297V169.642L174.585 180.867L173.447 181.102V181.21H194.297V186.057H165.974Z" fill="#FAFAFA"/>
<path d="M165.974 160.957V155.642L185.687 144.417L186.824 144.183V144.075H165.974V139.228H194.297V144.543L174.585 155.768L173.447 156.002V156.111H194.297V160.957H165.974Z" fill="#FAFAFA"/>
<path d="M165.974 135.858V130.543L185.687 119.318L186.824 119.084V118.975H165.974V114.129H194.297V119.444L174.585 130.669L173.447 130.903V131.011H194.297V135.858H165.974Z" fill="#FAFAFA"/>
<path d="M165.974 110.759V105.444L185.687 94.2187L186.824 93.9844V93.8763H165.974V89.0295H194.297V94.3448L174.585 105.57L173.447 105.804V105.912H194.297V110.759H165.974Z" fill="#FAFAFA"/>
<path d="M165.974 85.6421V80.3268L185.687 69.1015L186.824 68.8673V68.7592H165.974V63.9124H194.297V69.2277L174.585 80.4529L173.447 80.6871V80.7952H194.297V85.6421H165.974Z" fill="#FAFAFA"/>
<path d="M165.974 60.543V55.2277L185.687 44.0024L186.824 43.7682V43.6601H165.974V38.8133H194.297V44.1286L174.585 55.3538L173.447 55.588V55.6961H194.297V60.543H165.974Z" fill="#FAFAFA"/>
<path d="M165.974 35.4439V30.1286L185.687 18.9033L186.824 18.6691V18.561H165.974V13.7142H194.297V19.0295L174.585 30.2547L173.447 30.4889V30.597H194.297V35.4439H165.974Z" fill="#FAFAFA"/>
<path d="M273.816 186.057V180.741L293.529 169.516L294.666 169.282V169.174H273.816V164.327H302.14V169.642L282.427 180.867L281.29 181.102V181.21H302.14V186.057H273.816Z" fill="#FAFAFA"/>
<path d="M273.816 160.957V155.642L293.529 144.417L294.666 144.183V144.075H273.816V139.228H302.14V144.543L282.427 155.768L281.29 156.002V156.111H302.14V160.957H273.816Z" fill="#FAFAFA"/>
<path d="M273.816 135.858V130.543L293.529 119.318L294.666 119.084V118.975H273.816V114.129H302.14V119.444L282.427 130.669L281.29 130.903V131.011H302.14V135.858H273.816Z" fill="#FAFAFA"/>
<path d="M273.816 110.759V105.444L293.529 94.2187L294.666 93.9844V93.8763H273.816V89.0295H302.14V94.3448L282.427 105.57L281.29 105.804V105.912H302.14V110.759H273.816Z" fill="#FAFAFA"/>
<path d="M273.816 85.6421V80.3268L293.529 69.1015L294.666 68.8673V68.7592H273.816V63.9124H302.14V69.2277L282.427 80.4529L281.29 80.6871V80.7952H302.14V85.6421H273.816Z" fill="#FAFAFA"/>
<path d="M273.816 60.543V55.2277L293.529 44.0024L294.666 43.7682V43.6601H273.816V38.8133H302.14V44.1286L282.427 55.3538L281.29 55.588V55.6961H302.14V60.543H273.816Z" fill="#FAFAFA"/>
<path d="M273.816 35.4439V30.1286L293.529 18.9033L294.666 18.6691V18.561H273.816V13.7142H302.14V19.0295L282.427 30.2547L281.29 30.4889V30.597H302.14V35.4439H273.816Z" fill="#FAFAFA"/>
<path d="M213.685 36.4169L216.555 41.2997L205.634 61.552L204.786 62.3448L204.84 62.4529L222.801 51.9123L225.419 56.3628L200.995 70.7051L198.124 65.8223L209.046 45.57L209.894 44.7772L209.84 44.6691L191.878 55.2096L189.261 50.7592L213.685 36.4169Z" fill="#FAFAFA"/>
<path d="M227.242 59.4259L230.112 64.3087L219.191 84.561L218.343 85.3538L218.397 85.4619L236.358 74.9214L238.976 79.3718L214.552 93.7141L211.681 88.8313L222.603 68.579L223.451 67.7862L223.397 67.6781L205.435 78.2187L202.818 73.7682L227.242 59.4259Z" fill="#FAFAFA"/>
<path d="M240.799 82.4349L243.669 87.3178L232.748 107.57L231.9 108.363L231.954 108.471L249.915 97.9304L252.533 102.381L228.109 116.723L225.238 111.84L236.16 91.588L237.008 90.7952L236.954 90.6871L218.992 101.228L216.375 96.7772L240.799 82.4349Z" fill="#FAFAFA"/>
<path d="M254.356 105.444L257.226 110.327L246.305 130.579L245.457 131.372L245.511 131.48L263.472 120.939L266.09 125.39L241.666 139.732L238.795 134.849L249.717 114.597L250.565 113.804L250.511 113.696L232.549 124.237L229.932 119.786L254.356 105.444Z" fill="#FAFAFA"/>
<path d="M267.913 128.453L270.783 133.336L259.862 153.588L259.014 154.381L259.068 154.489L277.029 143.948L279.647 148.399L255.223 162.741L252.352 157.858L263.274 137.606L264.122 136.813L264.068 136.705L246.106 147.246L243.489 142.795L267.913 128.453Z" fill="#FAFAFA"/>
<path d="M327.484 186.057V181.138H355.808V186.057H327.484Z" fill="#FAFAFA"/>
<path d="M327.484 176.219V171.3H355.808V176.219H327.484Z" fill="#FAFAFA"/>
<path d="M327.484 166.363V161.444H355.808V166.363H327.484Z" fill="#FAFAFA"/>
<path d="M327.484 156.507V151.588H355.808V156.507H327.484Z" fill="#FAFAFA"/>
<path d="M327.484 146.669V141.75H355.808V146.669H327.484Z" fill="#FAFAFA"/>
<path d="M327.484 136.813V131.894H355.808V136.813H327.484Z" fill="#FAFAFA"/>
<path d="M327.484 126.957V122.038H355.808V126.957H327.484Z" fill="#FAFAFA"/>
<path d="M327.484 117.12V112.201H355.808V117.12H327.484Z" fill="#FAFAFA"/>
<path d="M327.484 107.264V102.345H355.808V107.264H327.484Z" fill="#FAFAFA"/>
<path d="M327.484 97.4079V92.4889H355.808V97.4079H327.484Z" fill="#FAFAFA"/>
<path d="M327.484 87.57V82.6511H355.808V87.57H327.484Z" fill="#FAFAFA"/>
<path d="M327.484 77.7142V72.7952H355.808V77.7142H327.484Z" fill="#FAFAFA"/>
<path d="M327.484 67.8583V62.9394H355.808V67.8583H327.484Z" fill="#FAFAFA"/>
<path d="M327.484 58.0205V53.1015H355.808V58.0205H327.484Z" fill="#FAFAFA"/>
<path d="M327.484 48.1646V43.2457H355.808V48.1646H327.484Z" fill="#FAFAFA"/>
<path d="M327.484 38.3087V33.3898H355.808V38.3087H327.484Z" fill="#FAFAFA"/>
<path d="M327.484 28.4709V23.552H355.808V28.4709H327.484Z" fill="#FAFAFA"/>
<path d="M327.484 18.6151V13.6961H355.808V18.6151H327.484Z" fill="#FAFAFA"/>
<path d="M421.499 178.993V186.057H417.094V166.939H421.499V174.002H445.093V178.993H421.499Z" fill="#FAFAFA"/>
<path d="M421.499 157.102V164.165H417.094V145.047H421.499V152.111H445.093V157.102H421.499Z" fill="#FAFAFA"/>
<path d="M421.499 135.21V142.273H417.094V123.156H421.499V130.219H445.093V135.21H421.499Z" fill="#FAFAFA"/>
<path d="M421.499 113.318V120.381H417.094V101.264H421.499V108.327H445.093V113.318H421.499Z" fill="#FAFAFA"/>
<path d="M421.499 91.4259V98.4889H417.094V79.3718H421.499V86.4349H445.093V91.4259H421.499Z" fill="#FAFAFA"/>
<path d="M421.499 69.534V76.597H417.094V57.4799H421.499V64.543H445.093V69.534H421.499Z" fill="#FAFAFA"/>
<path d="M421.499 47.6421V54.7051H417.094V35.588H421.499V42.6511H445.093V47.6421H421.499Z" fill="#FAFAFA"/>
<path d="M421.499 25.7502V32.8133H417.094V13.6961H421.499V20.7592H445.093V25.7502H421.499Z" fill="#FAFAFA"/>
<path d="M455.527 18.543H448.45V14.1466H467.603V18.543H460.527V42.0925H455.527V18.543Z" fill="#FAFAFA"/>
<path d="M478.019 18.543H470.943V14.1466H490.096V18.543H483.02V42.0925H478.019V18.543Z" fill="#FAFAFA"/>
<path d="M378.932 18.543H371.856V14.1466H391.009V18.543H383.933V42.0925H378.932V18.543Z" fill="#FAFAFA"/>
<path d="M401.425 18.543H394.349V14.1466H413.502V18.543H406.425V42.0925H401.425V18.543Z" fill="#FAFAFA"/>
<path d="M568.423 177.678L550.588 186.057V180.723L561.383 175.75L564.416 175.228V175.066L561.383 174.543L550.588 169.57V164.237L568.423 172.669H578.46V177.642H568.423V177.678Z" fill="#FAFAFA"/>
<path d="M568.423 154.471L550.588 162.849V157.516L561.383 152.543L564.416 152.02V151.858L561.383 151.336L550.588 146.363V141.029L568.423 149.462H578.46V154.435H568.423V154.471Z" fill="#FAFAFA"/>
<path d="M568.423 131.246L550.588 139.624V134.291L561.383 129.318L564.416 128.795V128.633L561.383 128.111L550.588 123.138V117.804L568.423 126.237H578.46V131.21H568.423V131.246Z" fill="#FAFAFA"/>
<path d="M568.423 108.02L550.588 116.399V111.066L561.383 106.093L564.416 105.57V105.408L561.383 104.885L550.588 99.9124V94.579L568.423 103.011H578.46V107.984H568.423V108.02Z" fill="#FAFAFA"/>
<path d="M584.056 93.0295L564.524 90.3628L567.43 85.8943L579.182 87.588L581.998 88.7952L582.089 88.6691L579.832 86.597L573.496 76.561L576.402 72.0925L586.764 88.8493L595.176 94.3087L592.468 98.4709L584.056 93.0115V93.0295Z" fill="#FAFAFA"/>
<path d="M596.729 73.552L577.197 70.8853L580.103 66.4169L591.855 68.1105L594.671 69.3178L594.761 69.1916L592.505 67.1196L586.168 57.0835L589.075 52.6151L599.437 69.3718L607.849 74.8313L605.141 78.9934L596.729 73.534V73.552Z" fill="#FAFAFA"/>
<path d="M609.401 54.0925L589.869 51.4259L592.775 46.9574L604.527 48.6511L607.343 49.8583L607.434 49.7322L605.177 47.6601L598.841 37.6241L601.747 33.1556L612.109 49.9124L620.521 55.3718L617.813 59.534L609.401 54.0745V54.0925Z" fill="#FAFAFA"/>
<path d="M622.074 34.6151L602.541 31.9484L605.448 27.4799L617.2 29.1736L620.016 30.3808L620.106 30.2547L617.849 28.1826L611.513 18.1466L614.42 13.6781L624.781 30.4349L633.194 35.8943L630.486 40.0565L622.074 34.597V34.6151Z" fill="#FAFAFA"/>
<path d="M536.58 98.4889L533.872 94.3268L542.284 88.8673L552.646 72.1105L555.552 76.579L549.216 86.6151L546.96 88.6871L547.05 88.8133L549.866 87.606L561.618 85.9124L564.524 90.3808L544.992 93.0475L536.58 98.5069V98.4889Z" fill="#FAFAFA"/>
<path d="M523.907 79.0114L521.2 74.8493L529.612 69.3898L539.974 52.6331L542.88 57.1015L536.544 67.1376L534.287 69.2096L534.377 69.3358L537.193 68.1286L548.945 66.4349L551.852 70.9033L532.319 73.57L523.907 79.0295V79.0114Z" fill="#FAFAFA"/>
<path d="M511.235 59.552L508.527 55.3898L516.939 49.9304L527.301 33.1736L530.207 37.6421L523.871 47.6781L521.615 49.7502L521.705 49.8763L524.521 48.6691L536.273 46.9754L539.179 51.4439L519.647 54.1105L511.235 59.57V59.552Z" fill="#FAFAFA"/>
<path d="M498.562 40.0745L495.855 35.9124L504.267 30.4529L514.629 13.6961L517.535 18.1646L511.199 28.2006L508.942 30.2727L509.033 30.3988L511.849 29.1916L523.6 27.4979L526.507 31.9664L506.975 34.6331L498.562 40.0925V40.0745Z" fill="#FAFAFA"/>
<path d="M61.5978 14.3087H66.6704V42.6331H61.5978V14.3087Z" fill="#FAFAFA"/>
<path d="M70.1544 14.3087H75.7144L87.4301 34.0205L87.6648 35.1556H87.7911V14.3087H92.8637V42.6331H87.3037L75.588 22.9214L75.3533 21.7862H75.227V42.6331H70.1544V14.3087Z" fill="#FAFAFA"/>
<path d="M395.775 129.102V121.93H400.234V141.318H395.775V134.147H371.856V129.084H395.775V129.102Z" fill="#FAFAFA"/>
<path d="M400.234 143.426V148.489H388.265V160.435H400.234V165.498H371.856V160.435H383.824V148.489H371.856V143.426H400.234Z" fill="#FAFAFA"/>
<path d="M400.234 168.957V186.849H395.775V174.02H388.283V185.75H383.824V174.02H376.333V187.3H371.874V168.975H400.252L400.234 168.957Z" fill="#FAFAFA"/>
<path d="M462.892 79.3718C462.892 70.597 469.427 64.7952 477.243 64.7952C484.211 64.7952 488.923 68.7232 490.096 74.3088L489.934 74.6331L485.186 74.9934C484.175 71.4799 481.251 69.3358 477.153 69.3358C471.521 69.3358 467.982 73.552 467.982 79.3718C467.982 85.1916 471.557 89.4078 477.225 89.4078C481.233 89.4078 484.121 87.2637 485.168 83.7502L489.879 84.1105L490.078 84.4349C488.58 90.3448 483.832 93.9484 477.225 93.9484C469.409 93.9484 462.874 88.1646 462.874 79.3718H462.892Z" fill="#FAFAFA"/>
<path d="M496.847 104.795C496.847 96.0925 503.093 90.2187 511.163 90.2187C519.232 90.2187 525.514 96.0925 525.514 104.795C525.514 113.498 519.268 119.372 511.163 119.372C503.057 119.372 496.847 113.498 496.847 104.795ZM520.369 104.795C520.369 98.8853 516.795 94.7592 511.163 94.7592C505.53 94.7592 501.956 98.8853 501.956 104.795C501.956 110.705 505.567 114.831 511.163 114.831C516.759 114.831 520.369 110.705 520.369 104.795Z" fill="#FAFAFA"/>
<path d="M474.265 126.903H479.337L488.092 148.993L496.884 126.903H501.956V155.228H497.082V137.462H496.92L496.721 139.246L490.439 155.228H485.782L479.5 139.246L479.301 137.462H479.139V155.228H474.265V126.903Z" fill="#FAFAFA"/>
<path d="M545.407 12.7232H550.48L559.235 34.8133L568.026 12.7232H573.099V41.0475H568.225V23.2817H568.062L567.864 25.0655L561.582 41.0475H556.924L550.642 25.0655L550.444 23.2817H550.281V41.0475H545.407V12.7232Z" fill="#FAFAFA"/>
<path d="M584.237 122.777V105.011H589.309V122.687C589.309 126.813 591.259 129.21 595.194 129.21C599.13 129.21 601.079 126.813 601.079 122.687V105.011H606.152V122.777C606.152 129.246 602.144 133.75 595.212 133.75C588.28 133.75 584.273 129.264 584.273 122.777H584.237Z" fill="#FAFAFA"/>
<path d="M611.495 80.4709H617.055L628.771 100.183L629.006 101.318H629.132V80.4709H634.204V108.795H628.645L616.929 89.0835L616.694 87.9484H616.568V108.795H611.495V80.4709Z" fill="#FAFAFA"/>
<path d="M620.323 117.462H625.395V145.786H620.323V117.462Z" fill="#FAFAFA"/>
<path d="M592.649 159.246H585.464V154.795H604.888V159.246H597.703V183.12H592.631V159.246H592.649Z" fill="#FAFAFA"/>
<path d="M620.305 172.921L611.748 154.795H617.182L622.254 165.768L622.778 168.849H622.94L623.464 165.768L628.536 154.795H633.97L625.377 172.921V183.12H620.305V172.921Z" fill="#FAFAFA"/>
</svg>
