<svg width="356" height="200" viewBox="0 0 356 200" fill="none" xmlns="http://www.w3.org/2000/svg">
<path d="M355.619 0.00244141H0.395508V200.002H355.619V0.00244141Z" fill="#99E9FF"/>
<path d="M76.8659 85.8223H17.5509V77.8223H76.8659V58.9754L107.811 81.8223L76.8659 104.669V85.8223ZM32.2402 117.174L63.1848 94.3268V113.174H122.5V121.174H63.1848V140.02L32.2402 117.174Z" fill="#0A0A0A"/>
<path d="M131.663 83.8223L141.077 49.4979L151.14 62.9214C160.033 55.57 171.392 51.2997 183.111 51.2997C203.219 51.2997 229.789 66.0205 230.167 100.345H222.948C222.57 70.9214 200.248 58.525 183.111 58.525C172.922 58.525 163.129 62.2727 155.641 68.8493L167.108 84.2006L131.645 83.8223H131.663ZM211.463 136.093C202.571 143.444 191.23 147.714 179.493 147.714C159.385 147.714 132.815 132.993 132.437 98.6691H139.655C140.033 128.093 162.355 140.489 179.493 140.489C189.681 140.489 199.474 136.741 206.963 130.165L195.496 114.813L230.959 115.192L221.544 149.516L211.481 136.093H211.463Z" fill="#0A0A0A"/>
<path d="M244.478 99.4979C244.478 73.4259 265.486 52.525 291.408 52.525C317.33 52.525 338.464 73.4259 338.464 99.4979C338.464 125.57 317.456 146.471 291.408 146.471C265.36 146.471 244.478 125.57 244.478 99.4979ZM263.812 96.3988C264.064 90.597 265.108 85.0475 266.908 80.0024H255.567C252.867 84.9033 251.175 90.4529 250.797 96.3988H263.812ZM255.819 119.372H267.034C265.234 114.201 264.064 108.651 263.812 102.597H250.797C251.175 108.669 252.993 114.345 255.819 119.372ZM269.608 73.8223C272.182 68.7952 275.675 64.2727 279.797 60.3988C271.804 62.7232 264.712 67.4979 259.689 73.8223H269.626H269.608ZM279.671 138.597C275.675 134.849 272.452 130.471 269.878 125.57H259.941C265.108 131.642 271.804 136.273 279.671 138.597ZM288.438 96.3988V80.0024H273.478C271.552 84.9033 270.256 90.4529 270.004 96.3988H288.438ZM273.73 119.372H288.438V102.597H270.004C270.256 108.669 271.552 114.345 273.749 119.372H273.73ZM288.438 73.8223V61.0475C283.667 64.525 279.671 68.7952 276.701 73.8223H288.438ZM288.438 138.093V125.57H276.827C279.923 130.471 283.793 134.597 288.438 138.093ZM306.619 73.8223C303.523 68.6691 299.527 64.3988 294.63 60.9214V73.8223H306.619ZM313.316 96.3988C313.064 90.4709 311.768 84.9214 309.842 80.0024H294.63V96.3988H313.334H313.316ZM309.59 119.372C311.786 114.345 313.064 108.651 313.334 102.597H294.63V119.372H309.59ZM306.493 125.57H294.63V138.219C299.401 134.867 303.397 130.471 306.493 125.57ZM313.712 73.8223H323.253C318.23 67.6241 311.516 62.9754 303.775 60.525C307.771 64.3988 311.12 68.7772 313.712 73.8223ZM323.001 125.57H313.46C311.012 130.345 307.789 134.741 303.919 138.345C311.39 136.02 317.978 131.498 323.001 125.57ZM327.123 119.372C329.967 114.345 331.767 108.651 332.145 102.597H319.508C319.256 108.669 318.086 114.219 316.286 119.372H327.123ZM319.508 96.3988H332.145C331.767 90.4709 330.075 84.9214 327.375 80.0024H316.412C318.212 85.0295 319.256 90.579 319.508 96.3988Z" fill="#0A0A0A"/>
<path d="M33.5543 12.579V17.2277H19.6751V25.4078H32.4562V30.0024H19.6751V42.1105H14.4007V12.579H33.5543Z" fill="#0A0A0A"/>
<path d="M37.1546 12.579H47.3975C54.184 12.579 58.5224 16.2907 58.5224 22.2006C58.5224 26.1286 56.5782 28.7051 53.428 30.561V30.7772L60.0525 42.1286H54.148L48.2075 31.6961H42.429V42.1286H37.1546V12.579ZM47.7755 27.0475C51.1058 27.0475 53.266 25.2817 53.266 22.1105C53.266 18.9394 51.1958 17.2096 47.7755 17.2096H42.429V27.0475H47.7755Z" fill="#0A0A0A"/>
<path d="M61.2766 27.3358C61.2766 18.2547 67.7752 12.1466 76.1639 12.1466C84.5526 12.1466 91.0871 18.2727 91.0871 27.3358C91.0871 36.3988 84.5886 42.525 76.1639 42.525C67.7392 42.525 61.2766 36.3988 61.2766 27.3358ZM85.7227 27.3358C85.7227 21.1736 82.0144 16.8673 76.1459 16.8673C70.2774 16.8673 66.5691 21.1736 66.5691 27.3358C66.5691 33.4979 70.3134 37.8042 76.1459 37.8042C81.9784 37.8042 85.7227 33.4979 85.7227 27.3358Z" fill="#0A0A0A"/>
<path d="M94.9215 12.579H100.196L109.305 35.6241L118.449 12.579H123.724V42.1286H118.665V23.606H118.503L118.287 25.4619L111.753 42.1286H106.91L100.376 25.4619L100.16 23.606H99.9979V42.1286H94.9395V12.579H94.9215Z" fill="#0A0A0A"/>
<path d="M136.217 12.579H141.995L154.182 33.1376L154.434 34.3268H154.56V12.579H159.835V42.1286H154.056L141.869 21.57L141.617 20.3808H141.491V42.1105H136.217V12.579Z" fill="#0A0A0A"/>
<path d="M183.147 12.579V17.2277H169.772V25.0295H181.995V29.6781H169.772V37.4799H183.597V42.1286H164.497V12.579H183.147Z" fill="#0A0A0A"/>
<path d="M187.755 31.1015V12.579H193.03V31.0295C193.03 35.3358 195.046 37.8223 199.15 37.8223C203.255 37.8223 205.271 35.3358 205.271 31.0295V12.579H210.545V31.1015C210.545 37.8583 206.369 42.543 199.168 42.543C191.968 42.543 187.791 37.8583 187.791 31.1015H187.755Z" fill="#0A0A0A"/>
<path d="M215.208 12.579H220.482V24.8133H220.608L231.103 12.579H237.223L225.252 26.4169L237.727 42.1105H231.103L220.608 28.6871H220.482V42.1105H215.208V12.579Z" fill="#0A0A0A"/>
<path d="M236.665 27.3358C236.665 18.2547 243.164 12.1466 251.553 12.1466C259.941 12.1466 266.476 18.2727 266.476 27.3358C266.476 36.3988 259.977 42.525 251.553 42.525C243.128 42.525 236.665 36.3988 236.665 27.3358ZM261.129 27.3358C261.129 21.1736 257.421 16.8673 251.553 16.8673C245.684 16.8673 241.976 21.1736 241.976 27.3358C241.976 33.4979 245.72 37.8042 251.553 37.8042C257.385 37.8042 261.129 33.4979 261.129 27.3358ZM244.856 7.96641C244.856 6.48893 246.116 5.22767 247.646 5.22767C249.176 5.22767 250.437 6.48893 250.437 7.96641C250.437 9.44388 249.122 10.7051 247.646 10.7051C246.17 10.7051 244.856 9.44388 244.856 7.96641ZM252.777 7.96641C252.777 6.48893 254.037 5.22767 255.567 5.22767C257.097 5.22767 258.357 6.48893 258.357 7.96641C258.357 9.44388 257.043 10.7051 255.567 10.7051C254.091 10.7051 252.777 9.44388 252.777 7.96641Z" fill="#0A0A0A"/>
<path d="M270.328 12.579H275.603V37.4799H290.058V42.1286H270.328V12.579Z" fill="#0A0A0A"/>
<path d="M294.144 12.579H299.419V37.4799H313.874V42.1286H294.144V12.579Z" fill="#0A0A0A"/>
<path d="M317.978 12.579H323.757L335.944 33.1376L336.196 34.3268H336.322V12.579H341.596V42.1286H335.818L323.631 21.57L323.379 20.3808H323.253V42.1105H317.978V12.579Z" fill="#0A0A0A"/>
<path d="M20.9892 161.516H13.5186V156.867H33.7163V161.516H26.2457V186.417H20.9712V161.516H20.9892Z" fill="#0A0A0A"/>
<path d="M33.5903 171.642C33.5903 162.561 40.0888 156.453 48.4776 156.453C56.8663 156.453 63.4008 162.579 63.4008 171.642C63.4008 180.705 56.9023 186.831 48.4776 186.831C40.0528 186.831 33.5903 180.705 33.5903 171.642ZM58.0544 171.642C58.0544 165.48 54.346 161.174 48.4776 161.174C42.6091 161.174 38.9007 165.48 38.9007 171.642C38.9007 177.804 42.6451 182.111 48.4776 182.111C54.31 182.111 58.0544 177.804 58.0544 171.642Z" fill="#0A0A0A"/>
<path d="M101.474 161.516H94.0034V156.867H114.201V161.516H106.73V186.417H101.456V161.516H101.474Z" fill="#0A0A0A"/>
<path d="M117.459 156.885H122.734V169.336H135.173V156.885H140.447V186.435H135.173V173.984H122.734V186.435H117.459V156.885Z" fill="#0A0A0A"/>
<path d="M163.759 156.885V161.534H150.384V169.336H162.607V173.984H150.384V181.786H164.209V186.435H145.11V156.885H163.759Z" fill="#0A0A0A"/>
<path d="M198.826 156.885L203.975 176.471L204.641 180.273H204.767L205.361 176.471L210.851 156.885H216.072L221.508 176.471L222.138 180.273H222.264L222.894 176.471L228.079 156.885H233.695L225.126 186.435H219.51L213.443 164.02L207.377 186.435H201.76L193.192 156.885H198.826Z" fill="#0A0A0A"/>
<path d="M233.821 171.642C233.821 162.561 240.32 156.453 248.708 156.453C257.097 156.453 263.632 162.579 263.632 171.642C263.632 180.705 257.133 186.831 248.708 186.831C240.284 186.831 233.821 180.705 233.821 171.642ZM258.267 171.642C258.267 165.48 254.559 161.174 248.69 161.174C242.822 161.174 239.114 165.48 239.114 171.642C239.114 177.804 242.858 182.111 248.69 182.111C254.523 182.111 258.267 177.804 258.267 171.642Z" fill="#0A0A0A"/>
<path d="M267.466 156.885H277.709C284.495 156.885 288.834 160.597 288.834 166.507C288.834 170.435 286.89 173.011 283.739 174.867V175.084L290.364 186.435H284.459L278.519 176.002H272.74V186.435H267.466V156.885ZM278.105 171.354C281.435 171.354 283.595 169.588 283.595 166.417C283.595 163.246 281.525 161.516 278.105 161.516H272.758V171.354H278.105Z" fill="#0A0A0A"/>
<path d="M293.532 156.885H298.807V181.786H313.262V186.435H293.532V156.885Z" fill="#0A0A0A"/>
<path d="M317.366 156.885H326.889C336.538 156.885 342.496 162.579 342.496 171.66C342.496 180.741 336.556 186.435 326.889 186.435H317.366V156.885ZM326.727 181.786C333.171 181.786 337.222 178.543 337.222 171.66C337.222 164.777 333.171 161.534 326.727 161.534H322.641V181.786H326.727Z" fill="#0A0A0A"/>
</svg>
