<svg width="218" height="200" viewBox="0 0 218 200" fill="none" xmlns="http://www.w3.org/2000/svg">
<path d="M193.949 55.8218H175.401V38.3623C175.401 17.1731 158.173 0.00195312 136.913 0.00195312H81.6857C60.4262 0.00195312 43.1981 17.1731 43.1981 38.3623V55.8218H24.6502C11.5077 55.8218 0.841797 66.4524 0.841797 79.5515V120.452C0.841797 133.551 11.5077 144.182 24.6502 144.182H43.1981V161.642C43.1981 182.831 60.4262 200.002 81.6857 200.002H136.913C158.173 200.002 175.401 182.831 175.401 161.642V144.182H193.949C207.091 144.182 217.757 133.551 217.757 120.452V79.5515C217.757 66.4524 207.091 55.8218 193.949 55.8218Z" fill="#DEFC32"/>
<path d="M56.8649 61.1011L58.2388 23.029L74.0207 36.2002C81.1795 26.7047 91.4477 19.6056 103.18 16.8488C123.283 12.1281 153.039 20.5965 161.535 54.6506L158.842 55.2812C150.797 23.1191 122.74 15.2272 103.849 19.6776C92.6589 22.3083 82.9873 28.9929 76.2804 37.9479L94.0328 52.7947L56.8468 61.1191L56.8649 61.1011Z" fill="#0A0A0A"/>
<path d="M146.368 163.93C139.209 173.425 128.905 180.38 117.172 183.137C97.0699 187.858 67.3319 179.533 58.8534 145.479L61.547 144.849C69.5916 177.011 97.6303 184.759 116.504 180.326C127.694 177.696 137.401 171.155 144.072 162.056L126.356 147.353L163.542 139.029L162.15 177.101L146.368 163.93Z" fill="#0A0A0A"/>
<path d="M43.5958 73.7677C42.0772 75.1011 40.3237 75.4794 37.142 75.4794V70.7047H37.8109C41.2818 70.7047 43.2161 69.4794 43.6139 66.4524H49.2722V99.5875H43.6139V73.7857L43.5958 73.7677Z" fill="#0A0A0A"/>
<path d="M52.0562 94.7767L65.5422 82.7047C67.7658 80.7227 69.3024 78.8308 69.3024 75.9299C69.3024 72.9029 67.115 70.9569 63.9875 70.9569C60.3358 70.9569 57.9495 73.2812 57.7688 77.011L52.3997 76.5785L52.255 76.2542C52.7251 70.4884 57.2445 65.9299 63.9333 65.9299C70.2424 65.9299 74.8523 69.7137 74.8523 75.6416C74.8523 80.002 72.7191 82.9749 69.3385 85.9119L59.7392 94.3443H75.4127V99.5515H52.0381V94.7767H52.0562Z" fill="#0A0A0A"/>
<path d="M16.3887 118.506C16.3887 108.524 21.7036 101.461 30.3448 101.461C38.9859 101.461 44.3008 108.506 44.3008 118.506C44.3008 128.506 38.9317 135.552 30.3448 135.552C21.7578 135.552 16.3887 128.506 16.3887 118.506ZM38.5701 118.506C38.5701 111.263 35.7681 106.669 30.3628 106.669C24.9576 106.669 22.1555 111.263 22.1555 118.506C22.1555 125.75 24.9576 130.344 30.3628 130.344C35.7681 130.344 38.5701 125.75 38.5701 118.506Z" fill="#0A0A0A"/>
<path d="M61.5109 128.579H46.0363V123.371L61.8001 101.93H67.1692V123.371H71.1644V128.579H67.1692V135.065H61.5109V128.579ZM61.5109 123.371V110.597L52.1466 123.371H61.5109Z" fill="#0A0A0A"/>
<path d="M72.2852 125.083L72.4841 124.705L77.8893 124.182C78.269 127.443 80.4564 130.524 84.6866 130.524C88.9168 130.524 91.6285 127.876 91.6285 123.371C91.6285 118.867 88.6456 116.326 84.7951 116.326C80.9445 116.326 78.6125 117.84 77.2024 118.921L73.171 116.939L75.3042 101.93H94.8644V106.759H79.6248L78.3955 113.714C80.1491 112.579 82.8607 111.624 85.8074 111.624C92.8758 111.624 97.3953 116.02 97.3953 123.173C97.3953 129.84 92.6951 135.533 84.7228 135.533C77.9797 135.533 72.936 131.281 72.3214 125.065L72.2852 125.083Z" fill="#0A0A0A"/>
<path d="M129.538 100.741C129.538 80.6686 145.79 64.5785 165.82 64.5785C185.85 64.5785 202.21 80.6686 202.21 100.741C202.21 120.813 185.958 136.903 165.82 136.903C145.681 136.903 129.538 120.813 129.538 100.741ZM144.506 98.3623C144.705 93.8938 145.5 89.6236 146.892 85.7497H138.125C136.028 89.5335 134.744 93.8038 134.437 98.3623H144.506ZM138.323 116.056H147.001C145.609 112.074 144.705 107.804 144.506 103.137H134.437C134.744 107.804 136.136 112.182 138.323 116.056ZM148.989 80.9749C150.978 77.1011 153.671 73.6236 156.871 70.6506C150.689 72.4344 145.211 76.1101 141.324 80.9749H149.007H148.989ZM156.763 130.849C153.671 127.966 151.177 124.597 149.188 120.813H141.505C145.5 125.479 150.671 129.065 156.763 130.849ZM163.542 98.3623V85.7497H151.972C150.472 89.5335 149.477 93.8038 149.279 98.3623H163.542ZM152.171 116.056H163.542V103.137H149.279C149.477 107.804 150.472 112.182 152.171 116.056ZM163.542 80.9749V71.1371C159.854 73.8218 156.763 77.1011 154.467 80.9749H163.542ZM163.542 130.452V120.813H154.575C156.962 124.597 159.963 127.768 163.542 130.452ZM177.588 80.9749C175.202 76.9929 172.111 73.7137 168.314 71.047V80.9749H177.588ZM182.777 98.3623C182.578 93.7857 181.584 89.5155 180.083 85.7497H168.314V98.3623H182.777ZM179.884 116.056C181.584 112.182 182.578 107.804 182.777 103.137H168.314V116.056H179.884ZM177.498 120.813H168.333V130.542C172.02 127.966 175.112 124.579 177.498 120.813ZM183.084 80.9749H190.46C186.573 76.2001 181.385 72.6326 175.401 70.7407C178.492 73.7137 181.077 77.1011 183.084 80.9749ZM190.261 120.813H182.885C180.987 124.488 178.492 127.858 175.509 130.651C181.294 128.867 186.374 125.389 190.261 120.813ZM193.443 116.056C195.63 112.182 197.022 107.804 197.329 103.137H187.567C187.368 107.804 186.465 112.074 185.073 116.056H193.443ZM197.329 98.3623C197.022 93.7857 195.738 89.5155 193.641 85.7497H185.163C186.555 89.6236 187.35 93.8938 187.549 98.3623H197.329Z" fill="#0A0A0A"/>
</svg>
