<svg width="206" height="200" viewBox="0 0 206 200" fill="none" xmlns="http://www.w3.org/2000/svg">
<path d="M203.644 161.715L133.182 99.1067C130.795 96.9857 130.585 93.3375 132.713 90.9583L189.601 27.3539C191.729 24.9746 191.519 21.3265 189.132 19.2055L169.512 1.77246C167.125 -0.348546 163.465 -0.139209 161.337 2.24003L104.449 65.8444C102.321 68.2236 98.6612 68.433 96.2741 66.312L28.3841 5.98837C25.9971 3.86735 22.3369 4.07669 20.2089 6.45593L2.71869 26.0113C0.59072 28.3906 0.800741 32.0387 3.18779 34.1598L71.0778 94.4834C73.4649 96.6044 73.6749 100.253 71.5469 102.632L8.9226 172.651C6.79462 175.03 7.00464 178.678 9.3917 180.799L29.0114 198.232C31.3985 200.353 35.0586 200.144 37.1866 197.764L99.8109 127.746C101.939 125.366 105.599 125.157 107.986 127.278L178.448 189.887C180.835 192.008 184.495 191.798 186.623 189.419L204.113 169.864C206.241 167.484 206.031 163.836 203.644 161.715Z" fill="#F94646"/>
<path d="M32.857 200.002C31.3598 200.003 29.9331 199.462 28.8065 198.461L9.18695 181.028C7.97089 179.948 7.25014 178.46 7.1566 176.839C7.06357 175.218 7.60898 173.658 8.69265 172.446L71.317 102.427C72.2918 101.338 72.782 99.9354 72.6982 98.4783C72.6144 97.0212 71.9662 95.6837 70.8728 94.7124L2.98294 34.3888C1.76688 33.3084 1.04613 31.821 0.952589 30.2C0.859557 28.5791 1.40497 27.019 2.48864 25.8069L19.9787 6.25163C21.0628 5.0398 22.5554 4.32116 24.1815 4.22818C25.8085 4.13214 27.3732 4.67883 28.5892 5.75946L96.4791 66.083C98.7354 68.0874 102.208 67.8897 104.219 65.64L161.107 2.03584C162.191 0.824012 163.684 0.105374 165.31 0.0121373C166.933 -0.0780427 168.501 0.463038 169.717 1.54341L189.336 18.9764C190.552 20.0568 191.273 21.5443 191.367 23.1652C191.46 24.7862 190.914 26.3462 189.831 27.5581L132.943 91.1625C130.931 93.4117 131.13 96.8726 133.387 98.8777L203.849 161.486C205.065 162.567 205.786 164.054 205.879 165.675C205.972 167.296 205.427 168.856 204.343 170.068L186.853 189.623C184.614 192.124 180.753 192.346 178.243 190.115L107.781 127.507C105.525 125.503 102.052 125.7 100.041 127.95L37.4165 197.969C36.3324 199.181 34.8398 199.899 33.2137 199.992C33.0946 199.999 32.975 200.002 32.857 200.002ZM24.5377 4.83193C24.4314 4.83193 24.3241 4.83499 24.2167 4.8411C22.7548 4.92466 21.413 5.57069 20.4387 6.66024L2.94869 26.2156C1.9739 27.3051 1.48369 28.7075 1.56752 30.1649C1.65135 31.622 2.29951 32.9594 3.39289 33.9308L71.2828 94.2544C72.4988 95.3347 73.2196 96.8222 73.3131 98.4431C73.4062 100.064 72.8607 101.624 71.7771 102.836L9.1527 172.855C8.17791 173.944 7.6877 175.347 7.77153 176.804C7.85536 178.261 8.50352 179.599 9.5969 180.57L29.2164 198.003C30.3093 198.974 31.716 199.463 33.1785 199.379C34.6404 199.296 35.9822 198.65 36.9565 197.56L99.5809 127.541C101.819 125.04 105.68 124.819 108.191 127.049L178.652 189.657C180.909 191.662 184.382 191.464 186.393 189.215L203.883 169.659C204.858 168.57 205.348 167.167 205.264 165.71C205.18 164.253 204.532 162.916 203.439 161.944L132.977 99.3358C130.467 97.1057 130.246 93.2558 132.483 90.7539L189.371 27.1495C190.345 26.0602 190.836 24.6575 190.752 23.2004C190.668 21.7432 190.02 20.4058 188.926 19.4345L169.307 2.00145C168.214 1.03036 166.806 0.540735 165.345 0.625056C163.883 0.708613 162.541 1.3549 161.567 2.44445L104.679 66.0486C102.44 68.5497 98.58 68.7711 96.0692 66.5411L28.1793 6.21749C27.1667 5.31773 25.8842 4.83193 24.5377 4.83193Z" fill="black"/>
<path d="M8.32808 29.1646C9.80823 28.8486 10.9835 27.8763 12.7144 25.9837L24.5948 12.9979L24.8744 11.495L24.9219 11.4429L28.6924 14.8701L24.6597 37.5524L24.7896 37.6705L34.2985 27.2762C36.03 25.3837 36.8937 24.1272 37.0236 22.6315L37.1186 22.5278L40.7592 25.8369L40.6642 25.9406C39.2081 26.2307 38.0064 27.1797 36.2748 29.0722L23.446 43.0952L20.7413 40.6373L24.9021 16.9317L24.7716 16.8136L14.7166 27.8037C12.9857 29.6963 12.1485 30.9762 11.9686 32.4737L11.8736 32.5774L8.23305 29.2683L8.32808 29.1646Z" fill="#00CB0D"/>
<path d="M24.9219 11.4429L28.6924 14.8701L24.6597 37.5524L24.7896 37.6705L34.2985 27.2762C36.03 25.3837 36.8937 24.1272 37.0236 22.6315L37.1186 22.5278L40.7592 25.8369L40.6642 25.9406C39.2081 26.2307 38.0064 27.1797 36.2748 29.0722L23.446 43.0952L20.7413 40.6373L24.9021 16.9317L24.7716 16.8136L14.7166 27.8037C12.9857 29.6963 12.1485 30.9762 11.9686 32.4737L11.8736 32.5774L8.23305 29.2683L8.32808 29.1646C9.80823 28.8486 10.9835 27.8763 12.7144 25.9837L24.5948 12.9979L24.8744 11.495L24.9219 11.4429ZM24.881 10.5748L24.3008 11.2114L24.0212 12.7137L12.2594 25.5701C10.4516 27.5467 9.427 28.3022 8.19912 28.5643L8.00628 28.6055L7.36266 29.3079L11.9132 33.4442L12.5567 32.7422L12.5802 32.5466C12.7328 31.2754 13.411 30.1425 15.1717 28.2173L23.9872 18.582L20.0764 40.8638L23.4861 43.9624L36.7299 29.4859C38.494 27.5578 39.5551 26.7876 40.7849 26.5425L40.9828 26.5031L41.6296 25.7973L37.0789 21.6609L36.428 22.3712L36.41 22.5785C36.3039 23.8002 35.6562 24.8812 33.8434 26.8625L25.5798 35.8958L29.358 14.6443L24.881 10.5748Z" fill="#F94646"/>
<path d="M27.593 35.5652C31.0308 31.807 36.1263 31.5481 39.6892 34.7858C43.2257 38.0002 43.4332 43.031 39.9713 46.8155C36.5088 50.6 31.4163 50.9087 27.8798 47.6944C24.3169 44.4566 24.1304 39.3497 27.593 35.5652ZM37.3706 44.4524C40.0501 41.5233 40.2323 38.4606 38.1002 36.5225C35.8893 34.5137 32.8255 35.052 30.1936 37.9289C27.5376 40.8322 27.2315 43.9249 29.4683 45.9577C31.6004 47.8958 34.6671 47.4072 37.3706 44.4524Z" fill="#00CB0D"/>
<path d="M34.0726 32.5376C36.0625 32.5374 38.0397 33.2869 39.6892 34.7858C43.2257 38.0002 43.4332 43.031 39.9713 46.8155C38.0934 48.8681 35.7354 49.8984 33.4068 49.8984C31.442 49.8984 29.4983 49.1655 27.8798 47.6944C24.3169 44.4566 24.1304 39.3497 27.593 35.5652C29.4392 33.5469 31.7643 32.5378 34.0726 32.5376ZM32.3767 47.1161C33.9843 47.1161 35.7432 46.2312 37.3706 44.4524C40.0501 41.5233 40.2323 38.4606 38.1002 36.5225C37.2139 35.7172 36.1903 35.3212 35.1126 35.3212C33.502 35.3212 31.7704 36.2053 30.1936 37.9289C27.5376 40.8322 27.2315 43.9249 29.4683 45.9577C30.3169 46.729 31.3138 47.1161 32.3767 47.1161ZM34.0734 31.9237H34.0726C31.5045 31.924 29.0417 33.0703 27.1378 35.1516C25.3626 37.0919 24.4208 39.4714 24.4862 41.8516C24.5514 44.2256 25.6093 46.4617 27.4649 48.148C29.1667 49.6947 31.2214 50.5123 33.4068 50.5123C35.9964 50.5123 38.4894 49.3463 40.4264 47.2292C44.0742 43.2414 43.9387 37.8175 40.1042 34.3323C38.3703 32.7566 36.2848 31.9237 34.0734 31.9237ZM32.3767 46.5022C31.4508 46.5022 30.6119 46.1664 29.8833 45.5041C28.9233 44.6317 28.4947 43.5625 28.6094 42.3262C28.7279 41.0489 29.433 39.6714 30.6487 38.3425C32.0689 36.7901 33.6542 35.9351 35.1126 35.9351C36.0593 35.9351 36.9249 36.2853 37.6853 36.9761C39.6018 38.7184 39.307 41.4246 36.9155 44.0388C35.462 45.6273 33.8502 46.5022 32.3767 46.5022Z" fill="#F94646"/>
<path d="M50.0707 41.6582C51.8967 39.6626 52.5878 38.439 52.8193 36.9883L52.9144 36.8846L59.52 42.8878C65.3974 48.2297 65.926 55.3569 61.017 60.7222C56.0852 66.1139 48.9166 66.2445 43.0393 60.9026L36.4336 54.8995L36.5286 54.7957C38.1128 54.5739 39.282 53.4523 41.0364 51.534L50.0707 41.6582ZM41.4033 56.2351L44.0563 58.6462C48.5551 62.7352 53.751 63.0427 58.2089 58.1696C62.6668 53.2965 61.8579 48.1937 57.3591 44.1047L54.7061 41.6936L41.4033 56.2351Z" fill="#00CB0D"/>
<path d="M52.9144 36.8846L59.52 42.8878C65.3974 48.2297 65.926 55.3569 61.017 60.7222C58.5156 63.4569 55.4379 64.8383 52.246 64.8383C49.1447 64.8383 45.9356 63.5351 43.0393 60.9026L36.4336 54.8995L36.5286 54.7957C38.1128 54.5739 39.282 53.4523 41.0364 51.534L50.0707 41.6582C51.8967 39.6626 52.5878 38.439 52.8193 36.9883L52.9144 36.8846ZM51.0795 61.769C53.5211 61.769 55.9587 60.6294 58.2089 58.1696C62.6668 53.2965 61.8579 48.1937 57.3591 44.1047L54.7061 41.6936L41.4033 56.2351L44.0563 58.6462C46.2843 60.6712 48.6838 61.769 51.0795 61.769ZM52.8746 36.0178L52.2401 36.7102L52.2111 36.8919C51.9947 38.2477 51.3155 39.3867 49.6157 41.2446L40.5813 51.1204C38.7768 53.0935 37.7511 54.0047 36.4429 54.1879L36.2234 54.2186L35.5631 54.9391L42.6243 61.3562C45.5724 64.0358 48.8996 65.4522 52.246 65.4522C55.6988 65.4522 58.8891 63.9596 61.4722 61.1357C64.0062 58.3661 65.201 55.1194 64.9273 51.7467C64.6536 48.3741 62.9273 45.1539 59.935 42.4342L52.8746 36.0178ZM42.2734 56.1951L54.7462 42.5608L56.9441 44.5583C61.4802 48.6812 61.7677 53.3682 57.7538 57.756C55.6904 60.0115 53.4449 61.1552 51.0795 61.1552C48.8887 61.1552 46.6037 60.1307 44.4713 58.1926L42.2734 56.1951Z" fill="#F94646"/>
<path d="M59.3823 59.1887C60.7338 57.711 61.2185 56.8699 61.3412 55.7459L61.4832 55.5907L64.7328 57.9742L64.8104 58.0449L61.9643 61.1556L62.0948 61.2743C64.8579 59.6077 67.0008 59.6083 68.7432 61.1916C69.1329 61.5464 69.3717 61.8582 69.6099 62.1699L67.4284 64.5546C67.1849 64.144 66.8968 63.8346 66.5329 63.5037C64.6606 61.8018 61.4429 61.7257 58.408 65.0432L56.25 67.4021C54.8979 68.8798 54.3362 69.6508 54.2442 70.8965L54.1491 71.0002L50.5345 67.715L50.6295 67.6113C51.7879 67.3344 52.5054 66.7055 53.8574 65.2278L59.3823 59.1887Z" fill="#00CB0D"/>
<path d="M61.4832 55.5907L64.7328 57.9742L64.8104 58.0449L61.9643 61.1556L62.0948 61.2743C63.4937 60.4306 64.7339 60.0141 65.8434 60.0141C66.9253 60.0141 67.883 60.4099 68.7432 61.1916C69.1329 61.5464 69.3717 61.8582 69.6099 62.1699L67.4284 64.5546C67.1849 64.144 66.8968 63.8346 66.5329 63.5037C65.7369 62.7803 64.6976 62.3506 63.5327 62.3505C61.9575 62.3504 60.1527 63.136 58.408 65.0432L56.25 67.4021C54.8979 68.8798 54.3362 69.6508 54.2442 70.8965L54.1491 71.0002L50.5345 67.715L50.6295 67.6113C51.7879 67.3344 52.5054 66.7055 53.8574 65.2278L59.3823 59.1887C60.7338 57.711 61.2185 56.8699 61.3412 55.7459L61.4832 55.5907ZM61.4015 54.7686L60.7507 55.4804L60.729 55.6795C60.6233 56.6471 60.1855 57.3993 58.9272 58.7752L53.4024 64.8142C52.1034 66.2339 51.4675 66.7797 50.4858 67.0144L50.3021 67.0583L49.6641 67.7548L54.189 71.8672L54.8427 71.1534L54.8584 70.9415C54.9345 69.911 55.3862 69.2572 56.705 67.8158L58.8631 65.4567C60.7477 63.3966 62.4427 62.9642 63.5327 62.9643C64.5094 62.9644 65.4033 63.3078 66.1179 63.9573C66.4317 64.2426 66.6845 64.5066 66.8983 64.867L67.3223 65.5818L70.411 62.2052L70.0998 61.798C69.8614 61.486 69.5912 61.1323 69.1586 60.7383C68.1812 59.8503 67.066 59.4002 65.8434 59.4002C65.3072 59.4002 64.7523 59.4838 64.1726 59.653L65.6796 58.0057L65.1243 57.4992L61.4015 54.7686Z" fill="#F94646"/>
<path d="M70.3442 55.9539C71.1742 55.0463 72.6141 54.9306 73.6023 55.8286C74.4864 56.6325 74.5291 58.0953 73.6991 59.0029C72.8216 59.9614 71.4052 60.0514 70.4952 59.2241C69.507 58.3261 69.4667 56.9125 70.3442 55.9539ZM61.1632 71.8203C59.8117 73.298 59.2253 74.0941 59.0557 75.2691L58.9607 75.3728L55.4501 72.1824L55.5451 72.0786C56.7029 71.8017 57.4192 71.1237 58.7706 69.646L64.3911 63.5025C65.6235 62.1549 66.1077 61.3132 66.2304 60.1898L66.3729 60.0346L69.6219 62.4181L69.7001 62.4888L61.1632 71.8203Z" fill="#00CB0D"/>
<path d="M72.0312 55.2112C72.5814 55.2112 73.141 55.4095 73.6023 55.8286C74.4864 56.6325 74.5291 58.0953 73.6991 59.0029C73.2222 59.5238 72.586 59.7883 71.9586 59.7883C71.4315 59.7883 70.9107 59.6018 70.4952 59.2241C69.507 58.3261 69.4667 56.9125 70.3442 55.9539C70.7868 55.47 71.4029 55.2112 72.0312 55.2112ZM66.3729 60.0346L69.6219 62.4181L69.7001 62.4888L61.1632 71.8203C59.8117 73.298 59.2253 74.0941 59.0557 75.2691L58.9607 75.3728L55.4501 72.1824L55.5451 72.0786C56.7029 71.8017 57.4192 71.1237 58.7706 69.646L64.3911 63.5025C65.6235 62.1549 66.1077 61.3132 66.2304 60.1898L66.3729 60.0346ZM72.0314 54.5973C71.218 54.5974 70.4371 54.9411 69.8891 55.5404C69.3521 56.127 69.0735 56.8715 69.1048 57.6367C69.1363 58.4098 69.4828 59.1347 70.0803 59.6777C70.594 60.1448 71.2612 60.4021 71.9586 60.4021C72.7805 60.4021 73.5807 60.0429 74.154 59.4166C75.2144 58.2572 75.1516 56.4065 74.0173 55.3751C73.4654 54.8735 72.7601 54.5973 72.0314 54.5973ZM66.2923 59.2132L65.6399 59.9235L65.6181 60.1234C65.5124 61.0915 65.1036 61.8122 63.9359 63.089L58.3156 69.2323C56.9298 70.7476 56.3471 71.2555 55.4014 71.4817L55.2177 71.5257L54.5796 72.222L59.0006 76.2397L59.6383 75.5434L59.6653 75.3565C59.809 74.3613 60.3019 73.6731 61.6183 72.2339L70.5709 62.448L70.0126 61.9425L66.2923 59.2132Z" fill="#F94646"/>
<path d="M67.5125 65.8611C68.8645 64.3834 69.3487 63.5423 69.4714 62.4189L69.6139 62.2636L72.8888 64.6705L72.967 64.7413L71.2354 66.6338L71.3394 66.7285C73.5064 66.1818 75.4431 66.5643 76.9251 67.9119C79.2394 70.0154 79.5612 73.2041 76.7158 76.3141L72.2579 81.1873C70.9064 82.665 70.3435 83.4353 70.1504 84.6361L70.0554 84.7398L66.5447 81.5488L66.6398 81.4451C67.7951 81.1189 68.5139 80.4901 69.8653 79.0124L74.2757 74.1914C76.0073 72.2989 75.9219 70.4651 74.5433 69.2128C72.9832 67.7944 70.2159 67.7482 68.2005 69.9513L64.43 74.0727C63.0786 75.5504 62.5187 76.3705 62.2967 77.4981L62.2017 77.6018L58.6905 74.4108L58.7855 74.3071C59.9439 74.0307 60.6596 73.3521 62.0116 71.8744L67.5125 65.8611Z" fill="#00CB0D"/>
<path d="M69.6139 62.2636L72.8888 64.6705L72.967 64.7413L71.2354 66.6338L71.3394 66.7285C71.9732 66.5686 72.5876 66.4881 73.1764 66.4881C74.6007 66.4881 75.8765 66.9584 76.9251 67.9119C79.2394 70.0154 79.5612 73.2041 76.7158 76.3141L72.2579 81.1873C70.9064 82.665 70.3435 83.4353 70.1504 84.6361L70.0554 84.7398L66.5447 81.5488L66.6398 81.4451C67.7951 81.1189 68.5139 80.4901 69.8653 79.0124L74.2757 74.1914C76.0073 72.2989 75.9219 70.4651 74.5433 69.2128C73.8388 68.5722 72.8878 68.2116 71.8712 68.2115C70.6368 68.2114 69.3058 68.7432 68.2005 69.9513L64.43 74.0727C63.0786 75.5504 62.5187 76.3705 62.2967 77.4981L62.2017 77.6018L58.6905 74.4108L58.7855 74.3071C59.9439 74.0307 60.6596 73.3521 62.0116 71.8744L67.5125 65.8611C68.8645 64.3834 69.3487 63.5423 69.4714 62.4189L69.6139 62.2636ZM69.5335 61.4419L68.8809 62.1527L68.8591 62.3525C68.7534 63.3202 68.3156 64.0723 67.0574 65.4474L61.5565 71.4608C60.1696 72.9767 59.5866 73.4847 58.6421 73.7101L58.4583 73.754L57.82 74.4504L62.2413 78.4685L62.8678 77.7852L62.9011 77.6163C63.088 76.6668 63.533 75.9648 64.8852 74.4862L68.6556 70.3649C69.5639 69.3721 70.7059 68.8253 71.8712 68.8254C72.7303 68.8254 73.5318 69.1241 74.1284 69.6664C74.6981 70.1839 74.9779 70.7825 74.9602 71.4456C74.9405 72.178 74.5465 72.9844 73.8206 73.7778L69.4102 78.5988C68.1125 80.0177 67.4735 80.5717 66.4719 80.8544L66.3031 80.902L65.6745 81.5885L70.0949 85.6065L70.7294 84.9146L70.7585 84.7332C70.9246 83.7002 71.3922 83.0451 72.713 81.6008L77.1709 76.7277C78.6266 75.1366 79.3875 73.4083 79.3712 71.7296C79.3557 70.1289 78.6533 68.652 77.3401 67.4583C76.1843 66.4073 74.7834 65.8743 73.1764 65.8743C73.0365 65.8743 72.8951 65.8785 72.7523 65.8869L73.8378 64.7005L73.2796 64.195L73.2543 64.1764L69.5335 61.4419Z" fill="#F94646"/>
<path d="M80.7539 80.8863L80.0033 93.7325L79.9792 93.7589L76.8066 90.8754L77.5409 80.9097L74.8519 80.9337L73.5714 82.3335C72.1959 83.837 71.6101 84.6337 71.414 85.7847L71.319 85.8884L67.8084 82.698L67.9034 82.5943C69.0618 82.3173 69.8034 81.6627 71.1789 80.1592L82.3952 67.8987C83.7701 66.3952 84.0648 65.761 84.211 64.6118L84.3529 64.4565L87.6031 66.84L87.6807 66.9108L76.8673 78.73L76.9714 78.8247L83.565 78.6461C85.4566 78.6089 86.2432 78.3739 86.8597 77.7001L86.9541 77.5964L90.8028 81.095L90.7084 81.1987C88.8974 80.8348 87.5772 80.8204 84.8617 80.821L80.7539 80.8863Z" fill="#00CB0D"/>
<path d="M84.3529 64.4565L87.6031 66.84L87.6807 66.9108L76.8673 78.73L76.9714 78.8247L83.565 78.6461C85.4566 78.6089 86.2432 78.3739 86.8597 77.7001L86.9541 77.5964L90.8028 81.095L90.7084 81.1987C88.9268 80.8407 87.6202 80.821 84.9929 80.821L84.8617 80.821L80.7539 80.8863L80.0033 93.7325L79.9792 93.7589L76.8066 90.8754L77.5409 80.9097L74.8519 80.9337L73.5714 82.3335C72.1959 83.837 71.6101 84.6337 71.414 85.7847L71.319 85.8884L67.8084 82.698L67.9034 82.5943C69.0618 82.3173 69.8034 81.6627 71.1789 80.1592L82.3952 67.8987C83.7701 66.3952 84.0648 65.761 84.211 64.6118L84.3529 64.4565ZM84.2711 63.6344L83.6245 64.3419L83.6 64.5346C83.4808 65.4717 83.2973 66.0009 81.94 67.4852L70.7238 79.7456C69.3902 81.2032 68.7419 81.7625 67.7598 81.9973L67.5761 82.0413L66.9379 82.7376L71.3588 86.7553L71.9909 86.0653L72.0212 85.8874C72.1898 84.898 72.6931 84.2045 74.0265 82.7471L75.126 81.5452L76.8777 81.5295L76.1704 91.128L80.0203 94.627L80.6055 93.9846L81.3354 81.491L84.8716 81.4348L84.9929 81.4348C87.5418 81.4348 88.8444 81.4504 90.5867 81.8005L90.9295 81.8693L91.6717 81.054L86.9129 76.7281L86.4036 77.2876C85.9784 77.7524 85.4202 77.9957 83.5528 78.0323L78.2066 78.1772L88.55 66.8716L87.9946 66.365L84.2711 63.6344Z" fill="#F94646"/>
<path d="M77.4044 89.8527L79.5624 87.4938L79.6923 87.6119C79.5185 89.7802 80.2733 91.5582 81.5995 92.7638C82.8222 93.8746 84.493 94.4435 85.56 93.2769C86.319 92.4472 86.1308 91.6116 85.4343 90.0301L84.3252 87.5975C83.3509 85.383 83.5903 83.56 84.8948 82.1339C86.8868 79.9566 90.3054 80.0723 92.8802 82.412C94.0759 83.4995 95.0135 84.9214 95.4478 86.2175L93.3132 88.5506L93.1833 88.4325C93.3325 86.8116 92.6625 85.2529 91.4145 84.1181C90.1141 82.9365 88.4764 82.5403 87.5039 83.6026C86.7689 84.4065 86.8098 85.2991 87.5297 86.8541L88.7194 89.4073C89.7124 91.4971 89.5945 93.2403 88.1949 94.7702C86.0845 97.077 82.6568 96.7629 80.1085 94.4465C78.7559 93.217 77.7551 91.5001 77.4044 89.8527Z" fill="#00CB0D"/>
<path d="M88.483 80.5758C89.9636 80.5758 91.5365 81.191 92.8802 82.412C94.0759 83.4995 95.0135 84.9214 95.4478 86.2175L93.3132 88.5506L93.1833 88.4325C93.3325 86.8116 92.6625 85.2529 91.4145 84.1181C90.636 83.4108 89.7365 82.9849 88.9314 82.9848C88.3915 82.9848 87.8942 83.1762 87.5039 83.6026C86.7689 84.4065 86.8098 85.2991 87.5297 86.8541L88.7194 89.4073C89.7124 91.4971 89.5945 93.2403 88.1949 94.7702C87.2122 95.8443 85.9436 96.3503 84.6115 96.3503C83.0828 96.3503 81.4703 95.6843 80.1085 94.4465C78.7559 93.217 77.7551 91.5001 77.4044 89.8527L79.5624 87.4938L79.6923 87.6119C79.5185 89.7802 80.2733 91.5582 81.5995 92.7638C82.348 93.4438 83.2645 93.9207 84.1075 93.9207C84.6416 93.9207 85.1462 93.7293 85.56 93.2769C86.319 92.4472 86.1308 91.6116 85.4343 90.0301L84.3252 87.5975C83.3509 85.383 83.5903 83.56 84.8948 82.1339C85.8473 81.0928 87.1264 80.5758 88.483 80.5758ZM88.483 79.962C86.913 79.962 85.4771 80.5864 84.4397 81.7202C82.9498 83.3491 82.7152 85.4666 83.7612 87.844L84.8736 90.2841C85.5933 91.9185 85.5631 92.3625 85.1049 92.8633C84.8319 93.1618 84.5057 93.3069 84.1075 93.3069C83.4839 93.3069 82.7014 92.9342 82.0144 92.3101C80.7637 91.1731 80.157 89.5219 80.3062 87.6608L80.3303 87.3609L79.5222 86.6266L76.7363 89.6719L76.8019 89.9801C77.1807 91.7593 78.2616 93.5985 79.6935 94.9001C81.1578 96.2311 82.9044 96.9641 84.6115 96.9641C86.188 96.9641 87.5844 96.3485 88.65 95.1838C90.1981 93.4916 90.4029 91.5161 89.276 89.1445L88.0883 86.5956C87.3854 85.0774 87.5006 84.5176 87.9591 84.016C88.2161 83.7353 88.5342 83.5987 88.9313 83.5987C89.5652 83.5988 90.3191 83.9534 90.9996 84.5718C92.1258 85.5959 92.6982 86.9827 92.57 88.3765L92.5421 88.6805L93.3533 89.4178L96.1465 86.3648L96.0319 86.023C95.5564 84.604 94.5334 83.0845 93.2953 81.9585C91.8784 80.671 90.1694 79.962 88.483 79.962Z" fill="#F94646"/>
<path d="M111.407 115.836L118.046 108.578L115.523 106.285L116.899 104.782C119.443 106.999 120.236 106.913 122.854 104.26L124.778 106.009L122.003 109.042L125.488 112.209L123.923 113.92L120.438 110.753L113.87 117.932C112.661 119.254 112.661 120.347 113.832 121.411C114.404 121.93 115.045 122.323 115.852 122.534L114.926 124.067C113.7 123.949 112.481 123.459 111.493 122.561C109.491 120.741 109.13 118.324 111.407 115.836Z" fill="#00CB0D"/>
<path d="M122.854 104.26L124.778 106.009L122.003 109.042L125.488 112.209L123.923 113.92L120.438 110.753L113.87 117.932C112.661 119.254 112.661 120.347 113.832 121.411C114.404 121.93 115.045 122.323 115.852 122.534L114.926 124.067C113.7 123.949 112.481 123.459 111.493 122.561C109.491 120.741 109.13 118.324 111.407 115.836L118.046 108.578L115.523 106.285L116.899 104.782C118.091 105.821 118.899 106.354 119.69 106.354C120.587 106.354 121.463 105.669 122.854 104.26ZM122.831 103.408L122.415 103.829C121.022 105.24 120.309 105.741 119.69 105.741C119.146 105.741 118.477 105.342 117.304 104.32L116.85 103.924L114.653 106.325L117.176 108.618L110.951 115.423C109.742 116.744 109.163 118.109 109.23 119.479C109.292 120.75 109.931 121.972 111.078 123.015C112.124 123.965 113.433 124.54 114.866 124.678L115.253 124.715L116.804 122.148L116.008 121.94C115.357 121.77 114.797 121.458 114.246 120.957C113.468 120.249 113.209 119.566 114.325 118.346L120.479 111.62L123.963 114.787L126.358 112.169L122.874 109.002L125.649 105.969L122.831 103.408Z" fill="#F94646"/>
<path d="M125.888 107.493C127.216 106.041 127.819 105.07 127.965 103.921L128.083 103.792L131.333 106.175L131.411 106.246L124.083 114.255L124.213 114.373C126.331 113.829 128.264 114.162 129.851 115.604C132.114 117.66 132.435 120.849 129.589 123.959L125.156 128.806C123.803 130.284 123.194 131.106 123.024 132.281L122.929 132.385L119.418 129.194L119.513 129.091C120.619 128.766 121.385 128.086 122.737 126.608L127.123 121.813C128.831 119.947 128.848 118.158 127.391 116.834C125.805 115.393 122.993 115.447 121.048 117.573L117.302 121.669C115.95 123.146 115.366 123.991 115.17 125.143L115.075 125.247L111.565 122.056L111.66 121.953C112.817 121.676 113.557 120.971 114.909 119.494L125.888 107.493Z" fill="#00CB0D"/>
<path d="M128.083 103.792L131.333 106.175L131.411 106.246L124.083 114.255L124.213 114.373C124.845 114.211 125.461 114.127 126.056 114.127C127.454 114.127 128.738 114.593 129.851 115.604C132.114 117.66 132.435 120.849 129.589 123.959L125.156 128.806C123.803 130.284 123.194 131.106 123.024 132.281L122.929 132.385L119.418 129.194L119.513 129.091C120.619 128.766 121.385 128.086 122.737 126.608L127.123 121.813C128.831 119.947 128.848 118.158 127.391 116.834C126.687 116.194 125.741 115.849 124.737 115.849C123.479 115.849 122.13 116.391 121.048 117.573L117.302 121.669C115.95 123.146 115.366 123.991 115.17 125.143L115.075 125.247L111.565 122.056L111.66 121.953C112.817 121.676 113.557 120.971 114.909 119.494L125.888 107.493C127.216 106.041 127.819 105.07 127.965 103.921L128.083 103.792ZM128.002 102.97L127.378 103.651L127.354 103.844C127.23 104.817 126.727 105.664 125.433 107.079L114.454 119.081C113.173 120.48 112.508 121.118 111.516 121.356L111.332 121.4L110.694 122.096L115.115 126.114L115.747 125.424L115.778 125.246C115.94 124.292 116.384 123.583 117.757 122.082L121.503 117.986C122.402 117.004 123.55 116.463 124.737 116.463C125.596 116.463 126.391 116.756 126.976 117.288C127.57 117.827 127.856 118.435 127.828 119.095C127.799 119.806 127.397 120.603 126.668 121.399L122.282 126.195C121.008 127.587 120.318 128.215 119.34 128.502L119.175 128.55L118.547 129.232L122.969 133.252L123.606 132.556L123.634 132.369C123.78 131.358 124.336 130.613 125.611 129.22L130.045 124.373C131.497 122.785 132.26 121.06 132.252 119.383C132.243 117.787 131.557 116.324 130.266 115.151C129.07 114.064 127.653 113.513 126.056 113.513C125.899 113.513 125.741 113.518 125.582 113.529L132.282 106.205L131.747 105.721L131.723 105.699L128.002 102.97Z" fill="#F94646"/>
<path d="M132.524 138.162C130.163 138.295 128.065 137.622 126.244 135.967C122.681 132.729 122.275 127.708 125.927 123.716C129.269 120.061 134.205 119.561 137.507 122.562C140.342 125.139 140.786 128.818 137.727 132.162L136.826 133.147L128.556 125.63C125.815 128.836 126.091 132.125 128.718 134.512C130.096 135.765 131.544 136.369 133.4 136.632L132.524 138.162ZM130.059 124.196L135.807 129.42C137.485 127.48 137.465 125.42 135.904 124.002C134.188 122.442 132.102 122.587 130.059 124.196Z" fill="#00CB0D"/>
<path d="M132.498 120.604C134.3 120.604 136.061 121.247 137.507 122.562C140.342 125.139 140.786 128.818 137.727 132.162L136.826 133.147L128.556 125.63C125.815 128.836 126.091 132.125 128.718 134.512C130.096 135.765 131.544 136.369 133.4 136.632L132.524 138.162C132.331 138.173 132.139 138.178 131.95 138.178C129.822 138.178 127.916 137.486 126.244 135.967C122.681 132.729 122.275 127.708 125.927 123.716C127.805 121.662 130.186 120.604 132.498 120.604ZM135.807 129.42C137.485 127.48 137.465 125.42 135.904 124.002C135.092 123.264 134.197 122.908 133.263 122.908C132.223 122.908 131.135 123.349 130.059 124.196L135.807 129.42ZM132.498 119.991C129.92 119.991 127.425 121.167 125.471 123.302C123.599 125.349 122.662 127.717 122.764 130.15C122.862 132.487 123.951 134.714 125.829 136.421C127.561 137.994 129.62 138.792 131.95 138.792C132.151 138.792 132.354 138.786 132.559 138.775L132.893 138.756L134.384 136.151L133.486 136.024C131.667 135.767 130.365 135.179 129.133 134.059C126.784 131.924 126.612 129.204 128.626 126.525L136.866 134.014L138.182 132.575C139.756 130.855 140.537 128.943 140.442 127.044C140.352 125.231 139.48 123.525 137.922 122.109C136.398 120.723 134.522 119.991 132.498 119.991ZM131.037 124.254C131.802 123.768 132.549 123.522 133.263 123.522C134.058 123.522 134.807 123.836 135.489 124.456C136.687 125.544 136.762 127.033 135.73 128.519L131.037 124.254Z" fill="#F94646"/>
<path d="M133.229 141.556C134.709 141.24 135.887 140.316 137.641 138.398L146.77 128.419C148.526 126.5 149.34 125.247 149.519 123.748L149.614 123.644L156.298 129.719C160.459 133.5 160.929 137.203 158.581 139.77C156.684 141.844 153.651 141.983 150.733 140.279L150.638 140.382C153.457 143.705 153.589 147.101 151.573 149.304C149.107 152 144.706 152.177 140.441 148.301L133.134 141.659L133.229 141.556ZM148.742 137.093C151.317 139.433 153.695 139.696 155.616 137.597C157.323 135.73 156.815 133.37 154.293 131.077L151.406 128.453L145.881 134.493L148.742 137.093ZM144.292 136.23L138.103 142.995L141.198 145.808C144.032 148.384 146.898 148.948 149.032 146.615C151.072 144.386 150.3 141.69 147.231 138.901L144.292 136.23Z" fill="#00CB0D"/>
<path d="M149.614 123.644L156.298 129.719C160.459 133.5 160.929 137.203 158.581 139.77C157.552 140.896 156.187 141.452 154.687 141.452C153.425 141.452 152.067 141.058 150.733 140.279L150.638 140.382C153.457 143.705 153.589 147.101 151.573 149.304C150.418 150.566 148.838 151.277 147.047 151.277C145.014 151.277 142.709 150.362 140.441 148.301L133.134 141.659L133.229 141.556C134.709 141.24 135.887 140.316 137.641 138.398L146.77 128.419C148.526 126.5 149.34 125.247 149.519 123.748L149.614 123.644ZM152.721 139.022C153.765 139.022 154.738 138.556 155.616 137.597C157.323 135.73 156.815 133.37 154.293 131.077L151.406 128.453L145.881 134.493L148.742 137.093C150.14 138.364 151.48 139.022 152.721 139.022ZM145.926 148.088C147.057 148.088 148.112 147.62 149.032 146.615C151.072 144.386 150.3 141.69 147.231 138.901L144.292 136.23L138.103 142.995L141.198 145.808C142.811 147.273 144.433 148.088 145.926 148.088ZM149.575 122.777L148.931 123.48L148.908 123.675C148.755 124.947 148.077 126.08 146.315 128.005L137.186 137.984C135.425 139.91 134.356 140.687 133.1 140.955L132.907 140.996L132.263 141.699L140.026 148.754C142.284 150.806 144.711 151.89 147.047 151.89C148.977 151.89 150.746 151.119 152.028 149.717C153.997 147.566 154.067 144.598 152.321 141.67C153.12 141.931 153.918 142.065 154.687 142.065C156.407 142.065 157.91 141.415 159.037 140.183C160.362 138.734 160.863 136.97 160.484 135.08C160.097 133.144 158.828 131.187 156.713 129.265L149.575 122.777ZM146.751 134.453L151.446 129.321L153.878 131.531C155.023 132.572 155.735 133.64 155.937 134.62C156.129 135.548 155.867 136.411 155.161 137.183C154.406 138.007 153.608 138.408 152.721 138.408C151.647 138.408 150.448 137.813 149.157 136.639L146.751 134.453ZM138.973 142.955L144.332 137.097L146.816 139.355C148.274 140.68 149.16 141.945 149.449 143.115C149.729 144.245 149.443 145.254 148.577 146.201C147.805 147.046 146.913 147.474 145.926 147.474C144.63 147.474 143.139 146.741 141.613 145.354L138.973 142.955Z" fill="#F94646"/>
<path d="M149.955 145.649C153.393 141.891 158.488 141.632 162.051 144.869C165.588 148.084 165.796 153.115 162.334 156.899C158.871 160.684 153.779 160.992 150.242 157.778C146.679 154.54 146.492 149.433 149.955 145.649ZM159.733 154.536C162.413 151.607 162.595 148.544 160.462 146.606C158.252 144.597 155.187 145.136 152.556 148.012C149.9 150.916 149.594 154.008 151.83 156.041C153.963 157.979 157.03 157.49 159.733 154.536Z" fill="#00CB0D"/>
<path d="M156.435 142.621C158.424 142.621 160.402 143.37 162.051 144.869C165.588 148.084 165.796 153.115 162.334 156.899C160.456 158.952 158.098 159.982 155.769 159.982C153.804 159.982 151.861 159.249 150.242 157.778C146.679 154.54 146.492 149.433 149.955 145.649C151.801 143.63 154.126 142.621 156.435 142.621ZM154.739 157.199C156.347 157.199 158.106 156.315 159.733 154.536C162.413 151.607 162.595 148.544 160.462 146.606C159.576 145.801 158.553 145.405 157.475 145.405C155.864 145.405 154.132 146.289 152.556 148.012C149.9 150.916 149.594 154.008 151.83 156.041C152.679 156.813 153.676 157.199 154.739 157.199ZM156.435 142.007H156.435C153.867 142.008 151.404 143.154 149.5 145.235C147.725 147.176 146.783 149.555 146.848 151.935C146.913 154.309 147.971 156.545 149.827 158.232C151.529 159.778 153.584 160.596 155.769 160.596C158.359 160.596 160.852 159.43 162.789 157.313C166.437 153.325 166.301 147.901 162.466 144.416C160.732 142.84 158.647 142.007 156.435 142.007ZM154.739 156.586C153.813 156.586 152.974 156.25 152.245 155.588C150.297 153.816 150.59 151.072 153.011 148.426C154.431 146.874 156.016 146.019 157.475 146.019C158.422 146.019 159.287 146.369 160.047 147.06C160.958 147.888 161.387 148.956 161.288 150.149C161.183 151.426 160.487 152.8 159.278 154.122C157.824 155.711 156.212 156.586 154.739 156.586Z" fill="#F94646"/>
<path d="M159.564 154.382C163.002 150.624 168.098 150.365 171.66 153.603C175.198 156.818 175.405 161.848 171.943 165.633C168.481 169.417 163.388 169.726 159.851 166.512C156.289 163.273 156.102 158.167 159.564 154.382ZM169.342 163.269C172.022 160.34 172.204 157.278 170.071 155.34C167.861 153.331 164.797 153.869 162.165 156.746C159.509 159.649 159.203 162.742 161.439 164.775C163.572 166.713 166.639 166.224 169.342 163.269Z" fill="#00CB0D"/>
<path d="M166.044 151.355C168.034 151.355 170.011 152.104 171.66 153.603C175.198 156.818 175.405 161.848 171.943 165.633C170.065 167.685 167.707 168.716 165.379 168.716C163.414 168.716 161.47 167.983 159.851 166.512C156.289 163.273 156.102 158.167 159.564 154.382C161.411 152.364 163.736 151.355 166.044 151.355ZM164.348 165.933C165.956 165.933 167.715 165.048 169.342 163.269C172.022 160.34 172.204 157.278 170.071 155.34C169.185 154.535 168.162 154.138 167.084 154.138C165.473 154.138 163.742 155.022 162.165 156.746C159.509 159.649 159.203 162.742 161.439 164.775C162.288 165.546 163.285 165.933 164.348 165.933ZM166.045 150.741C163.476 150.741 161.013 151.887 159.109 153.969C155.434 157.986 155.571 163.452 159.436 166.965C161.138 168.512 163.193 169.33 165.379 169.33C167.968 169.33 170.461 168.164 172.398 166.046C174.171 164.109 175.11 161.744 175.042 159.387C174.975 157.042 173.921 154.827 172.075 153.15C170.342 151.574 168.256 150.741 166.045 150.741ZM164.348 165.319C163.422 165.319 162.583 164.984 161.854 164.321C159.906 162.55 160.199 159.806 162.62 157.159C164.04 155.607 165.626 154.752 167.084 154.752C168.031 154.752 168.896 155.103 169.656 155.793C170.567 156.621 170.997 157.689 170.898 158.882C170.792 160.16 170.097 161.534 168.887 162.856C167.434 164.444 165.822 165.319 164.348 165.319Z" fill="#F94646"/>
<path d="M168.037 167.305L174.677 160.048L172.154 157.755L173.53 156.252C176.074 158.469 176.867 158.382 179.485 155.73L181.409 157.478L178.634 160.512L182.119 163.679L180.554 165.389L177.069 162.222L170.501 169.402C169.291 170.724 169.292 171.816 170.462 172.881C171.034 173.4 171.675 173.793 172.483 174.004L171.556 175.536C170.331 175.418 169.112 174.928 168.124 174.03C166.122 172.21 165.761 169.793 168.037 167.305Z" fill="#00CB0D"/>
<path d="M179.485 155.73L181.409 157.478L178.634 160.512L182.119 163.679L180.554 165.389L177.069 162.222L170.501 169.402C169.291 170.724 169.292 171.816 170.462 172.881C171.034 173.4 171.675 173.793 172.483 174.004L171.556 175.536C170.331 175.418 169.112 174.928 168.124 174.03C166.122 172.21 165.761 169.793 168.037 167.305L174.677 160.048L172.154 157.755L173.53 156.252C174.722 157.291 175.53 157.824 176.321 157.824C177.218 157.824 178.093 157.139 179.485 155.73ZM179.461 154.878L179.046 155.299C177.653 156.71 176.94 157.21 176.321 157.21C175.777 157.21 175.108 156.812 173.935 155.79L173.481 155.394L171.284 157.795L173.807 160.088L167.582 166.892C166.373 168.213 165.794 169.578 165.861 170.948C165.923 172.219 166.562 173.442 167.709 174.484C168.754 175.434 170.064 176.009 171.497 176.147L171.883 176.184L173.435 173.618L172.639 173.41C171.988 173.24 171.428 172.928 170.877 172.427C170.099 171.719 169.84 171.035 170.956 169.815L177.109 163.09L180.594 166.257L182.989 163.639L179.504 160.472L182.279 157.438L179.461 154.878Z" fill="#F94646"/>
<path d="M182.519 158.962C183.847 157.511 184.45 156.539 184.596 155.39L184.714 155.261L187.964 157.644L188.042 157.715L180.714 165.725L180.844 165.843C182.962 165.298 184.895 165.632 186.482 167.073C188.744 169.13 189.066 172.318 186.22 175.428L181.786 180.276C180.434 181.753 179.825 182.576 179.655 183.751L179.56 183.855L176.049 180.664L176.144 180.56C177.25 180.236 178.016 179.556 179.368 178.078L183.754 173.283C185.462 171.417 185.479 169.627 184.022 168.304C182.436 166.862 179.624 166.916 177.679 169.042L173.933 173.138C172.581 174.615 171.997 175.461 171.801 176.613L171.706 176.717L168.196 173.526L168.291 173.422C169.449 173.145 170.188 172.441 171.54 170.963L182.519 158.962Z" fill="#00CB0D"/>
<path d="M184.714 155.261L187.964 157.644L188.042 157.715L180.714 165.725L180.844 165.843C181.476 165.681 182.092 165.596 182.687 165.596C184.085 165.596 185.369 166.062 186.482 167.073C188.744 169.13 189.066 172.318 186.22 175.428L181.786 180.276C180.434 181.753 179.825 182.576 179.655 183.751L179.56 183.855L176.049 180.664L176.144 180.56C177.25 180.236 178.016 179.556 179.368 178.078L183.754 173.283C185.462 171.417 185.479 169.627 184.022 168.304C183.318 167.664 182.372 167.318 181.368 167.318C180.11 167.318 178.76 167.86 177.679 169.042L173.933 173.138C172.581 174.615 171.997 175.461 171.801 176.613L171.706 176.717L168.196 173.526L168.291 173.422C169.449 173.145 170.188 172.441 171.54 170.963L182.519 158.962C183.847 157.511 184.45 156.539 184.596 155.39L184.714 155.261ZM184.633 154.439L184.009 155.12L183.985 155.313C183.861 156.287 183.359 157.133 182.064 158.548L171.085 170.55C169.804 171.949 169.14 172.588 168.147 172.825L167.963 172.869L167.325 173.565L171.746 177.583L172.378 176.894L172.408 176.716C172.571 175.762 173.015 175.052 174.388 173.551L178.134 169.456C179.033 168.473 180.181 167.932 181.368 167.932C182.227 167.932 183.022 168.225 183.607 168.757C184.2 169.296 184.487 169.904 184.459 170.564C184.429 171.275 184.028 172.072 183.299 172.869L178.913 177.664C177.64 179.056 176.95 179.684 175.97 179.971L175.805 180.019L175.179 180.703L179.6 184.721L180.237 184.025L180.264 183.839C180.411 182.827 180.967 182.082 182.241 180.689L186.675 175.842C188.128 174.254 188.891 172.529 188.882 170.852C188.874 169.256 188.188 167.793 186.897 166.62C185.701 165.533 184.285 164.982 182.687 164.982C182.531 164.982 182.372 164.988 182.212 164.998L188.913 157.674L188.378 157.19L188.354 157.169L184.633 154.439Z" fill="#F94646"/>
<path d="M32.5705 191.241C32.2535 189.766 31.278 188.595 29.3792 186.87L16.3507 175.028L14.8429 174.749L14.7906 174.702L18.229 170.944L40.9859 174.963L41.1044 174.834L30.6759 165.356C28.7771 163.63 27.5165 162.769 26.0159 162.64L25.9119 162.545L29.2318 158.917L29.3359 159.011C29.627 160.463 30.5791 161.66 32.4778 163.386L46.5468 176.173L44.0809 178.869L20.2974 174.722L20.1789 174.852L31.2052 184.874C33.1039 186.599 34.388 187.434 35.8904 187.613L35.9945 187.708L32.6745 191.336L32.5705 191.241Z" fill="#00CB0D"/>
<path d="M29.2318 158.917L29.3359 159.011C29.627 160.463 30.5791 161.66 32.4778 163.386L46.5468 176.173L44.0809 178.869L20.2974 174.722L20.1789 174.852L31.2052 184.874C33.1039 186.599 34.388 187.434 35.8904 187.613L35.9945 187.708L32.6745 191.336L32.5705 191.241C32.2535 189.766 31.278 188.595 29.3792 186.87L16.3507 175.028L14.8429 174.749L14.7906 174.702L18.229 170.944L40.9859 174.963L41.1044 174.834L30.6759 165.356C28.7771 163.63 27.5165 162.769 26.0159 162.64L25.9119 162.545L29.2318 158.917ZM29.1922 158.049L25.0422 162.585L25.7547 163.234L25.9628 163.251C27.1885 163.357 28.273 164.003 30.2609 165.81L39.3238 174.046L18.0025 170.28L13.9195 174.743L14.5585 175.321L16.0656 175.6L28.9642 187.323C30.9473 189.125 31.7053 190.146 31.9682 191.37L32.0095 191.562L32.7144 192.204L36.8642 187.668L36.1599 187.027L35.9637 187.003C34.6882 186.851 33.5516 186.175 31.6201 184.42L21.9531 175.634L44.3081 179.532L47.4169 176.133L32.8929 162.933C30.9584 161.174 30.1857 160.117 29.9398 158.891L29.9002 158.694L29.1922 158.049Z" fill="#F94646"/>
<path d="M38.9921 172.04C35.2216 168.613 34.9618 163.534 38.2102 159.983C41.4352 156.458 46.4825 156.251 50.2794 159.702C54.0763 163.153 54.3861 168.229 51.1611 171.754C47.9127 175.305 42.789 175.491 38.9921 172.04ZM47.9085 162.294C44.9698 159.623 41.8971 159.442 39.9526 161.567C37.9371 163.771 38.4772 166.824 41.3636 169.448C44.2764 172.095 47.3792 172.4 49.4187 170.171C51.3632 168.045 50.873 164.989 47.9085 162.294Z" fill="#00CB0D"/>
<path d="M44.2549 157.223C46.3241 157.223 48.4473 158.037 50.2794 159.702C54.0763 163.153 54.3861 168.229 51.1611 171.754C49.4824 173.589 47.3022 174.526 45.0638 174.526C42.9707 174.526 40.8268 173.707 38.9921 172.04C35.2216 168.613 34.9618 163.534 38.2102 159.983C39.879 158.159 42.0359 157.223 44.2549 157.223ZM46.155 171.658C47.381 171.658 48.5062 171.168 49.4187 170.171C51.3632 168.045 50.873 164.989 47.9085 162.294C46.2998 160.832 44.6506 160.116 43.1686 160.116C41.9434 160.116 40.8326 160.605 39.9526 161.567C37.9371 163.771 38.4772 166.824 41.3636 169.448C42.973 170.91 44.6409 171.658 46.155 171.658ZM44.2551 156.61C41.8097 156.61 39.5013 157.661 37.7551 159.569C34.2308 163.422 34.5765 168.858 38.5772 172.493C40.4545 174.2 42.7582 175.139 45.0638 175.139C47.536 175.139 49.8631 174.084 51.6163 172.167C55.113 168.345 54.7252 162.912 50.6944 159.248C48.7948 157.522 46.5682 156.61 44.2551 156.61ZM46.155 171.044C44.7677 171.044 43.2544 170.335 41.7785 168.994C39.1562 166.611 38.631 163.923 40.4077 161.98C41.1564 161.162 42.1111 160.73 43.1686 160.73C44.5454 160.73 46.0409 161.427 47.4936 162.748C48.8341 163.966 49.6657 165.283 49.8986 166.556C50.1159 167.744 49.7926 168.851 48.9636 169.757C48.1822 170.611 47.2372 171.044 46.155 171.044Z" fill="#F94646"/>
<path d="M45.1052 149.635C43.103 147.815 41.8754 147.127 40.4199 146.896L40.3159 146.801L46.3387 140.217C51.6982 134.359 58.8488 133.832 64.2317 138.725C69.6411 143.641 69.7722 150.786 64.4127 156.644L58.3899 163.228L58.2858 163.133C58.0633 161.554 56.938 160.389 55.0134 158.64L45.1052 149.635ZM59.7299 158.275L62.1489 155.63C66.2514 151.146 66.5599 145.967 61.6708 141.524C56.7816 137.081 51.6621 137.887 47.5597 142.371L45.1407 145.015L59.7299 158.275Z" fill="#00CB0D"/>
<path d="M56.1576 135.404C58.9916 135.404 61.7926 136.508 64.2317 138.725C69.6411 143.641 69.7722 150.786 64.4127 156.644L58.3899 163.228L58.2858 163.133C58.0633 161.554 56.938 160.389 55.0134 158.64L45.1052 149.635C43.103 147.815 41.8754 147.127 40.4199 146.896L40.3159 146.801L46.3387 140.217C49.2697 137.013 52.7374 135.404 56.1576 135.404ZM59.7299 158.275L62.1489 155.63C66.2514 151.146 66.5599 145.967 61.6708 141.524C59.4509 139.507 57.1831 138.571 54.985 138.571C52.3419 138.571 49.7995 139.923 47.5597 142.371L45.1407 145.015L59.7299 158.275ZM56.1587 134.79H56.1576C52.4898 134.79 48.8411 136.571 45.8837 139.803L39.4463 146.841L40.1408 147.473L40.3232 147.502C41.6835 147.718 42.8263 148.395 44.6902 150.089L54.5984 159.094C56.578 160.892 57.4922 161.915 57.6759 163.219L57.7068 163.438L58.4297 164.096L64.8679 157.058C67.5978 154.074 69.0186 150.708 68.9764 147.323C68.9342 143.937 67.437 140.807 64.6466 138.271C62.1411 135.994 59.206 134.79 56.1587 134.79ZM46.0107 144.975L48.0148 142.785C50.1692 140.43 52.5795 139.185 54.985 139.185C57.1071 139.185 59.2168 140.125 61.2558 141.978C63.498 144.015 64.6453 146.232 64.6659 148.567C64.6852 150.771 63.6575 153.07 61.6938 155.217L59.6898 157.407L46.0107 144.975Z" fill="#F94646"/>
<path d="M62.6932 140.354C61.2107 139.007 60.3668 138.524 59.2391 138.402L59.0833 138.26L61.4747 135.021L61.5457 134.944L64.6666 137.781L64.7856 137.651C63.1136 134.897 63.1142 132.761 64.7026 131.024C65.0587 130.636 65.3715 130.398 65.6842 130.16L68.0768 132.335C67.6648 132.577 67.3544 132.865 67.0224 133.227C65.3149 135.093 65.2385 138.301 68.5669 141.326L70.9336 143.476C72.4162 144.824 73.1896 145.384 74.4394 145.476L74.5435 145.57L71.2476 149.173L71.1435 149.079C70.8656 147.924 70.2347 147.209 68.7522 145.861L62.6932 140.354Z" fill="#00CB0D"/>
<path d="M65.6842 130.16L68.0768 132.335C67.6648 132.577 67.3544 132.865 67.0224 133.227C65.3149 135.093 65.2385 138.301 68.5669 141.326L70.9336 143.476C72.4162 144.824 73.1896 145.384 74.4394 145.476L74.5435 145.57L71.2476 149.173L71.1435 149.079C70.8656 147.924 70.2347 147.209 68.7522 145.861L62.6932 140.354C61.2107 139.007 60.3668 138.524 59.2391 138.402L59.0833 138.26L61.4747 135.021L61.5457 134.944L64.6666 137.781L64.7856 137.651C63.1136 134.897 63.1142 132.761 64.7026 131.024C65.0587 130.636 65.3715 130.398 65.6842 130.16ZM65.7197 129.362L65.3111 129.672C64.9981 129.91 64.6432 130.179 64.248 130.61C62.9541 132.025 62.5909 133.664 63.1581 135.579L61.5064 134.078L61.0203 134.607L60.9981 134.631L58.2586 138.342L58.9728 138.99L59.1725 139.012C60.1432 139.117 60.8979 139.554 62.2783 140.808L68.3372 146.315C69.7615 147.609 70.3091 148.243 70.5446 149.222L70.5887 149.405L71.2872 150.041L75.4132 145.531L74.6972 144.879L74.4846 144.863C73.4506 144.788 72.7947 144.337 71.3486 143.023L68.9819 140.872C67.5493 139.57 66.697 138.149 66.517 136.763C66.365 135.593 66.7061 134.484 67.4775 133.641C67.7638 133.328 68.0286 133.076 68.3902 132.863L69.1073 132.44L65.7197 129.362Z" fill="#F94646"/>
<path d="M59.4478 129.428C58.5372 128.601 58.4212 127.166 59.3221 126.181C60.1287 125.3 61.5962 125.257 62.5068 126.084C63.4685 126.959 63.5587 128.371 62.7287 129.278C61.8277 130.263 60.4095 130.303 59.4478 129.428ZM75.3663 138.579C76.8488 139.926 77.6475 140.511 78.8264 140.68L78.9304 140.775L75.7295 144.274L75.6255 144.179C75.3476 143.025 74.6674 142.311 73.1848 140.964L67.0212 135.362C65.6692 134.134 64.8247 133.651 63.6976 133.529L63.5419 133.387L65.9332 130.148L66.0042 130.07L75.3663 138.579Z" fill="#00CB0D"/>
<path d="M60.9464 125.491C61.5051 125.491 62.07 125.688 62.5068 126.084C63.4685 126.959 63.5587 128.371 62.7287 129.278C62.2552 129.796 61.6386 130.052 61.0206 130.052C60.4629 130.052 59.904 129.843 59.4478 129.428C58.5372 128.601 58.4212 127.166 59.3221 126.181C59.7418 125.722 60.3405 125.491 60.9464 125.491ZM66.0042 130.07L75.3663 138.579C76.8488 139.926 77.6475 140.511 78.8264 140.68L78.9304 140.775L75.7295 144.274L75.6255 144.179C75.3476 143.025 74.6674 142.311 73.1848 140.964L67.0212 135.362C65.6692 134.134 64.8247 133.651 63.6976 133.529L63.5419 133.387L65.9332 130.148L66.0042 130.07ZM60.9465 124.877C60.1428 124.877 59.3848 125.202 58.8671 125.767C58.326 126.359 58.0502 127.115 58.0906 127.895C58.1301 128.66 58.4647 129.366 59.033 129.882C59.5888 130.388 60.2948 130.666 61.0206 130.666C61.8407 130.666 62.6089 130.32 63.1838 129.691C64.2542 128.522 64.1392 126.738 62.9219 125.631C62.3867 125.145 61.6853 124.877 60.9465 124.877ZM65.9631 129.202L65.4559 129.759L62.7178 133.467L63.4306 134.117L63.631 134.139C64.6023 134.244 65.3253 134.652 66.6063 135.816L72.7698 141.418C74.29 142.799 74.7997 143.38 75.0266 144.322L75.0707 144.505L75.7693 145.141L79.8002 140.735L79.1017 140.099L78.9141 140.072C77.9157 139.929 77.2253 139.438 75.7812 138.126L65.9631 129.202Z" fill="#F94646"/>
<path d="M69.3875 132.251C67.9049 130.903 67.0611 130.421 65.934 130.298L65.7782 130.156L68.193 126.892L68.264 126.814L70.1628 128.54L70.2578 128.436C69.7093 126.276 70.093 124.346 71.445 122.869C73.5555 120.562 76.7546 120.242 79.8749 123.078L84.764 127.521C86.2466 128.868 87.0195 129.429 88.2241 129.622L88.3282 129.716L85.1267 133.215L85.0227 133.121C84.6955 131.969 84.0646 131.253 82.582 129.906L77.7452 125.51C75.8464 123.784 74.0066 123.869 72.7502 125.243C71.3272 126.798 71.2808 129.556 73.4912 131.565L77.6261 135.323C79.1087 136.67 79.9314 137.228 81.0627 137.45L81.1668 137.544L77.9653 141.044L77.8613 140.949C77.584 139.795 76.9032 139.081 75.4206 137.734L69.3875 132.251Z" fill="#00CB0D"/>
<path d="M75.3288 121.045C76.7694 121.045 78.3317 121.675 79.8749 123.078L84.764 127.521C86.2466 128.868 87.0195 129.429 88.2241 129.622L88.3282 129.716L85.1267 133.215L85.0227 133.121C84.6955 131.969 84.0646 131.253 82.582 129.906L77.7452 125.51C76.768 124.622 75.8062 124.213 74.9317 124.213C74.107 124.213 73.3599 124.576 72.7502 125.243C71.3272 126.798 71.2808 129.556 73.4912 131.565L77.6261 135.323C79.1087 136.67 79.9314 137.228 81.0627 137.45L81.1668 137.544L77.9653 141.044L77.8613 140.949C77.584 139.795 76.9032 139.081 75.4206 137.734L69.3875 132.251C67.9049 130.903 67.0611 130.421 65.934 130.298L65.7782 130.156L68.193 126.892L68.264 126.814L70.1628 128.54L70.2578 128.436C69.7093 126.276 70.093 124.346 71.445 122.869C72.5117 121.703 73.8567 121.045 75.3288 121.045ZM75.3288 120.431C73.7022 120.431 72.2018 121.131 70.99 122.455C69.8415 123.71 69.3078 125.27 69.4124 127.027L68.223 125.946L67.716 126.503L64.9537 130.236L65.667 130.887L65.8674 130.909C66.8383 131.014 67.5928 131.45 68.9725 132.704L75.0056 138.187C76.5265 139.57 77.0362 140.151 77.2623 141.092L77.3063 141.275L78.005 141.912L82.0365 137.505L81.3507 136.88L81.1814 136.847C80.2288 136.661 79.5244 136.217 78.0409 134.87L73.9061 131.111C72.7423 130.054 72.4296 128.937 72.3723 128.187C72.2996 127.237 72.6032 126.315 73.2052 125.657C73.7089 125.106 74.2896 124.827 74.9317 124.827C75.6828 124.827 76.5122 125.22 77.3302 125.963L82.1671 130.359C83.5905 131.653 84.1464 132.29 84.4301 133.288L84.4779 133.456L85.1665 134.083L89.198 129.677L88.5034 129.044L88.3216 129.015C87.2852 128.85 86.6279 128.384 85.1789 127.067L80.2898 122.624C78.7112 121.189 76.9957 120.431 75.3288 120.431Z" fill="#F94646"/>
<path d="M84.4621 119.053L97.3505 119.801L97.3769 119.825L94.484 122.987L84.4856 122.255L84.5096 124.935L85.914 126.212C87.4224 127.583 88.2217 128.167 89.3765 128.362L89.4806 128.457L86.2797 131.956L86.1756 131.861C85.8978 130.707 85.241 129.967 83.7326 128.596L71.4318 117.417C69.9234 116.046 69.2871 115.753 68.1341 115.607L67.9783 115.466L70.3697 112.226L70.4406 112.149L82.2987 122.927L82.3937 122.823L82.2145 116.251C82.1772 114.365 81.9415 113.581 81.2654 112.967L81.1614 112.873L84.6714 109.037L84.7755 109.131C84.4104 110.936 84.396 112.252 84.3966 114.958L84.4621 119.053Z" fill="#00CB0D"/>
<path d="M84.6714 109.037L84.7755 109.131C84.4104 110.936 84.396 112.252 84.3966 114.958L84.4621 119.053L97.3505 119.801L97.3769 119.825L94.484 122.987L84.4856 122.255L84.5096 124.935L85.914 126.212C87.4224 127.583 88.2217 128.167 89.3765 128.362L89.4806 128.457L86.2797 131.956L86.1756 131.861C85.8978 130.707 85.241 129.967 83.7326 128.596L71.4318 117.417C69.9234 116.046 69.2871 115.753 68.1341 115.607L67.9783 115.466L70.3697 112.226L70.4406 112.149L82.2987 122.927L82.3937 122.823L82.2145 116.251C82.1772 114.365 81.9415 113.581 81.2654 112.967L81.1614 112.873L84.6714 109.037ZM84.6303 108.171L80.2901 112.914L80.8517 113.422C81.3179 113.845 81.562 114.402 81.5987 116.263L81.7441 121.592L70.4013 111.282L69.893 111.836L67.1536 115.547L67.8633 116.192L68.0567 116.216C68.9968 116.335 69.5279 116.518 71.017 117.871L83.3176 129.05C84.78 130.379 85.3411 131.025 85.5767 132.004L85.6208 132.187L86.3194 132.824L90.3503 128.417L89.6582 127.787L89.4796 127.757C88.487 127.589 87.7912 127.087 86.329 125.758L85.1231 124.662L85.1074 122.916L94.7374 123.621L98.2476 119.784L97.6037 119.201L85.0688 118.473L85.0124 114.949C85.0118 112.262 85.0264 110.996 85.3792 109.252L85.4483 108.91L84.6303 108.171Z" fill="#F94646"/>
<path d="M93.4579 122.391L91.0912 120.24L91.2097 120.111C93.3851 120.284 95.169 119.532 96.3785 118.21C97.493 116.991 98.0638 115.326 96.8934 114.262C96.061 113.506 95.2226 113.693 93.6359 114.388L91.1953 115.493C88.9735 116.464 87.1446 116.226 85.7137 114.925C83.5293 112.94 83.6454 109.533 85.9928 106.966C87.0838 105.774 88.5104 104.84 89.8108 104.407L92.1516 106.535L92.0331 106.664C90.4068 106.515 88.843 107.183 87.7045 108.427C86.5191 109.723 86.1215 111.356 87.1873 112.325C87.9938 113.057 88.8894 113.017 90.4495 112.299L93.011 111.113C95.1077 110.124 96.8567 110.241 98.3916 111.636C100.706 113.74 100.391 117.156 98.0668 119.696C96.8332 121.044 95.1107 122.042 93.4579 122.391Z" fill="#00CB0D"/>
<path d="M89.8108 104.407L92.1516 106.535L92.0331 106.664C91.883 106.65 91.7335 106.644 91.5847 106.644C90.1218 106.644 88.7379 107.298 87.7045 108.427C86.5191 109.723 86.1215 111.356 87.1873 112.325C87.5812 112.683 87.9966 112.856 88.5001 112.856C89.0274 112.856 89.6515 112.666 90.4495 112.299L93.011 111.113C93.9179 110.685 94.7598 110.464 95.5474 110.464C96.5807 110.464 97.5206 110.844 98.3916 111.636C100.706 113.74 100.391 117.156 98.0668 119.696C96.8332 121.044 95.1107 122.042 93.4579 122.391L91.0912 120.24L91.2097 120.111C91.4171 120.127 91.621 120.135 91.8211 120.135C93.7201 120.135 95.2843 119.406 96.3785 118.21C97.493 116.991 98.0638 115.326 96.8934 114.262C96.5214 113.924 96.1481 113.775 95.7074 113.775C95.1621 113.775 94.5135 114.004 93.6359 114.388L91.1953 115.493C90.2805 115.893 89.4321 116.088 88.6509 116.088C87.5347 116.088 86.5554 115.69 85.7137 114.925C83.5293 112.94 83.6454 109.533 85.9928 106.966C87.0838 105.774 88.5104 104.84 89.8108 104.407ZM89.9586 103.711L89.6157 103.825C88.1922 104.299 86.6677 105.318 85.5378 106.552C82.9626 109.368 82.8599 113.162 85.2987 115.379C86.2645 116.257 87.3923 116.702 88.6509 116.702C89.5222 116.702 90.4614 116.484 91.4426 116.055L93.8907 114.947C94.5497 114.658 95.2317 114.389 95.7074 114.389C95.9992 114.389 96.2226 114.483 96.4783 114.716C97.3903 115.545 96.7493 116.893 95.9233 117.796C94.8907 118.925 93.4721 119.522 91.8211 119.522C91.6368 119.522 91.4476 119.514 91.2588 119.499L90.958 119.475L90.2211 120.28L93.2765 123.057L93.5857 122.992C95.3707 122.614 97.216 121.537 98.5219 120.11C99.7625 118.754 100.495 117.13 100.583 115.536C100.677 113.855 100.046 112.309 98.8066 111.183C97.834 110.299 96.7374 109.85 95.5474 109.85C94.6727 109.85 93.7568 110.082 92.7474 110.559L90.1901 111.742C89.449 112.083 88.9116 112.242 88.5001 112.242C88.157 112.242 87.8885 112.131 87.6021 111.871C86.7717 111.116 87.3089 109.771 88.1596 108.841C89.0941 107.82 90.3105 107.257 91.5847 107.257C91.7148 107.257 91.8467 107.263 91.9768 107.275L92.2817 107.303L93.0218 106.495L89.9586 103.711Z" fill="#F94646"/>
<path d="M87.4242 98.0616C86.5136 97.2343 86.3976 95.7991 87.2991 94.8142C88.1051 93.933 89.5726 93.8904 90.4832 94.7177C91.4449 95.5923 91.5351 97.0041 90.7057 97.9111C89.8041 98.896 88.3859 98.9362 87.4242 98.0616ZM103.343 107.213C104.825 108.56 105.625 109.144 106.803 109.313L106.907 109.408L103.706 112.907L103.602 112.812C103.324 111.658 102.644 110.944 101.161 109.597L94.9976 103.995C93.6456 102.767 92.8011 102.284 91.674 102.162L91.5183 102.02L93.9096 98.7815L93.9806 98.7036L103.343 107.213Z" fill="#00CB0D"/>
<path d="M88.923 94.1242C89.4815 94.1242 90.0464 94.3208 90.4832 94.7177C91.4449 95.5923 91.5351 97.0041 90.7057 97.9111C90.2318 98.4288 89.6151 98.6855 88.9971 98.6855C88.4393 98.6855 87.8804 98.4764 87.4242 98.0616C86.5136 97.2343 86.3976 95.7991 87.2991 94.8142C87.7185 94.3557 88.317 94.1242 88.923 94.1242ZM93.9806 98.7036L103.343 107.213C104.825 108.56 105.625 109.144 106.803 109.313L106.907 109.408L103.706 112.907L103.602 112.812C103.324 111.658 102.644 110.944 101.161 109.597L94.9976 103.995C93.6456 102.767 92.8011 102.284 91.674 102.162L91.5183 102.02L93.9096 98.7815L93.9806 98.7036ZM88.923 93.5103C88.1192 93.5103 87.3614 93.8349 86.844 94.4007C86.3028 94.9919 86.0268 95.7476 86.0671 96.5285C86.1064 97.2934 86.4411 97.999 87.0093 98.5152C87.5652 99.0208 88.2713 99.2993 88.9971 99.2993C89.817 99.2993 90.5854 98.9532 91.1607 98.3248C92.2308 97.1546 92.1154 95.3711 90.8983 94.2642C90.3631 93.778 89.6616 93.5103 88.923 93.5103ZM93.9395 97.8355L93.4324 98.3922L90.6941 102.1L91.407 102.75L91.6074 102.772C92.5787 102.878 93.3017 103.285 94.5828 104.449L100.746 110.051C102.266 111.432 102.776 112.013 103.003 112.956L103.047 113.138L103.746 113.775L107.777 109.368L107.079 108.732L106.891 108.706C105.892 108.562 105.202 108.071 103.758 106.759L93.9395 97.8355Z" fill="#F94646"/>
<path d="M96.4916 102.624C95.009 101.277 94.1646 100.794 93.0375 100.672L92.8817 100.53L95.2965 97.2654L95.3675 97.1875L97.2663 98.9134L97.3613 98.8097C96.8128 96.6498 97.1965 94.7201 98.5485 93.2424C100.659 90.9356 103.858 90.6149 106.978 93.4516L111.868 97.8949C113.35 99.2413 114.123 99.8024 115.328 99.9949L115.432 100.09L112.231 103.589L112.127 103.494C111.799 102.342 111.169 101.626 109.686 100.279L104.849 95.8831C102.951 94.1572 101.111 94.2423 99.8537 95.6163C98.4313 97.1713 98.3844 99.9295 100.595 101.938L104.73 105.696C106.212 107.044 107.035 107.602 108.166 107.823L108.27 107.918L105.069 111.417L104.965 111.323C104.687 110.168 104.007 109.455 102.525 108.108L96.4916 102.624Z" fill="#00CB0D"/>
<path d="M102.432 91.418C103.873 91.418 105.435 92.0484 106.978 93.4516L111.868 97.8949C113.35 99.2413 114.123 99.8024 115.328 99.9949L115.432 100.09L112.231 103.589L112.127 103.494C111.799 102.342 111.169 101.626 109.686 100.279L104.849 95.8831C103.872 94.9949 102.91 94.5863 102.036 94.5862C101.211 94.5862 100.464 94.9494 99.8537 95.6163C98.4313 97.1713 98.3844 99.9295 100.595 101.938L104.73 105.696C106.212 107.044 107.035 107.602 108.166 107.823L108.27 107.918L105.069 111.417L104.965 111.323C104.687 110.168 104.007 109.455 102.525 108.108L96.4916 102.624C95.009 101.277 94.1646 100.794 93.0375 100.672L92.8817 100.53L95.2965 97.2654L95.3675 97.1875L97.2663 98.9134L97.3613 98.8097C96.8128 96.6498 97.1965 94.7201 98.5485 93.2424C99.6151 92.0766 100.96 91.418 102.432 91.418ZM102.432 90.8041C100.806 90.8041 99.3054 91.5042 98.0935 92.8287C96.9452 94.0837 96.4116 95.6436 96.516 97.4006L95.3264 96.3193L94.8194 96.876L92.0566 100.611L92.7712 101.26L92.9709 101.282C93.9417 101.387 94.6964 101.824 96.0766 103.078L102.11 108.561C103.63 109.943 104.14 110.523 104.366 111.466L104.411 111.649L105.109 112.285L109.14 107.878L108.454 107.254L108.285 107.22C107.332 107.034 106.628 106.591 105.144 105.243L101.01 101.485C99.4822 100.097 98.8025 97.6767 100.309 96.0299C100.813 95.4792 101.394 95.2 102.036 95.2001C102.787 95.2001 103.616 95.5931 104.434 96.3366L109.271 100.733C110.694 102.025 111.25 102.662 111.534 103.662L111.582 103.829L112.271 104.456L116.302 100.05L115.607 99.4178L115.425 99.3887C114.389 99.2232 113.732 98.7573 112.282 97.4411L107.393 92.998C105.815 91.5627 104.099 90.8041 102.432 90.8041Z" fill="#F94646"/>
<path d="M115.162 93.7207L107.881 87.1031L105.58 89.6173L104.072 88.2463C106.296 85.7106 106.21 84.9204 103.548 82.3109L105.303 80.3926L108.345 83.1586L111.523 79.6852L113.239 81.245L110.062 84.7184L117.265 91.2653C118.592 92.4708 119.688 92.4702 120.755 91.3037C121.277 90.7336 121.67 90.0945 121.882 89.29L123.42 90.2132C123.302 91.4343 122.81 92.6495 121.909 93.6344C120.083 95.6301 117.658 95.9898 115.162 93.7207Z" fill="#00CB0D"/>
<path d="M111.523 79.6852L113.239 81.245L110.062 84.7184L117.265 91.2653C117.934 91.8729 118.544 92.1741 119.121 92.1741C119.689 92.1741 120.226 91.8823 120.755 91.3037C121.277 90.7336 121.67 90.0945 121.882 89.29L123.42 90.2132C123.302 91.4343 122.81 92.6495 121.909 93.6344C120.949 94.684 119.822 95.2812 118.608 95.2812C117.512 95.2812 116.345 94.7964 115.162 93.7207L107.881 87.1031L105.58 89.6173L104.072 88.2463C106.296 85.7106 106.21 84.9204 103.548 82.3109L105.303 80.3926L108.345 83.1586L111.523 79.6852ZM111.483 78.818L108.305 82.2913L105.263 79.5253L102.693 82.3341L103.116 82.7486C105.559 85.1432 105.6 85.5717 103.608 87.8422L103.211 88.2948L105.62 90.4845L107.921 87.9703L114.747 94.1744C116.003 95.3161 117.302 95.8951 118.608 95.8951C119.96 95.8951 121.259 95.2564 122.364 94.0481C123.318 93.0061 123.895 91.7005 124.033 90.2723L124.07 89.8871L121.495 88.3411L121.286 89.1343C121.116 89.783 120.802 90.3409 120.3 90.8901C119.888 91.341 119.502 91.5602 119.121 91.5602C118.711 91.5602 118.226 91.3083 117.68 90.8116L110.932 84.6785L114.11 81.205L111.483 78.818Z" fill="#F94646"/>
<path d="M106.791 79.2866C105.335 77.9629 104.36 77.3622 103.208 77.2166L103.078 77.0985L105.469 73.8595L105.54 73.7816L113.576 81.0856L113.695 80.9561C113.148 78.8453 113.483 76.918 114.929 75.3366C116.992 73.0814 120.192 72.7613 123.312 75.5974L128.175 80.0167C129.658 81.3643 130.482 81.9716 131.661 82.1413L131.765 82.236L128.564 85.7351L128.46 85.6404C128.135 84.538 127.452 83.7748 125.97 82.4272L121.159 78.0552C119.286 76.3533 117.492 76.3365 116.164 77.7885C114.717 79.3693 114.772 82.1724 116.905 84.1105L121.014 87.8447C122.496 89.1923 123.344 89.7738 124.5 89.9692L124.604 90.0639L121.403 93.5631L121.299 93.4684C121.021 92.3144 120.314 91.577 118.832 90.2294L106.791 79.2866Z" fill="#00CB0D"/>
<path d="M118.749 73.5577C120.19 73.5577 121.761 74.1874 123.312 75.5974L128.175 80.0167C129.658 81.3643 130.482 81.9716 131.661 82.1413L131.765 82.236L128.564 85.7351L128.46 85.6404C128.135 84.538 127.452 83.7748 125.97 82.4272L121.159 78.0552C120.18 77.166 119.223 76.7368 118.343 76.7368C117.538 76.7367 116.798 77.0951 116.164 77.7885C114.717 79.3693 114.772 82.1724 116.905 84.1105L121.014 87.8447C122.496 89.1923 123.344 89.7738 124.5 89.9692L124.604 90.0639L121.403 93.5631L121.299 93.4684C121.021 92.3144 120.314 91.577 118.832 90.2294L106.791 79.2866C105.335 77.9629 104.36 77.3622 103.208 77.2166L103.078 77.0985L105.469 73.8595L105.54 73.7816L113.576 81.0856L113.695 80.9561C113.148 78.8453 113.483 76.918 114.929 75.3366C115.967 74.2026 117.292 73.5577 118.749 73.5577ZM105.499 72.9134L105.013 73.447L104.992 73.4703L104.973 73.4957L102.253 77.1798L102.937 77.8011L103.13 77.8255C104.107 77.949 104.957 78.4501 106.376 79.7402L118.417 90.683C119.822 91.9599 120.462 92.6229 120.7 93.6116L120.744 93.7947L121.443 94.4307L125.473 90.0243L124.781 89.3942L124.603 89.364C123.646 89.2022 122.934 88.7597 121.429 87.3911L117.32 83.6569C116.436 82.8539 115.898 81.8259 115.806 80.7624C115.721 79.7925 116.017 78.8594 116.619 78.2021C117.136 77.637 117.716 77.3506 118.343 77.3506C119.08 77.3507 119.91 77.7512 120.744 78.5088L125.555 82.8808C126.951 84.1502 127.581 84.8383 127.869 85.8137L127.918 85.9772L128.602 86.604L132.635 82.1962L131.936 81.5607L131.749 81.5337C130.735 81.3878 129.987 80.8333 128.59 79.5632L123.727 75.1438C122.143 73.7046 120.422 72.9438 118.749 72.9438C117.137 72.9438 115.659 73.6282 114.474 74.923C113.267 76.2434 112.721 77.8083 112.845 79.5897L105.499 72.9134Z" fill="#F94646"/>
<path d="M137.561 72.6726C137.695 75.0255 137.019 77.1171 135.359 78.9317C132.111 82.483 127.073 82.8882 123.068 79.2482C119.401 75.9163 118.899 70.997 121.91 67.7053C124.495 64.88 128.187 64.4375 131.541 67.4865L132.53 68.3845L124.989 76.6273C128.205 79.3597 131.505 79.0845 133.9 76.466C135.157 75.0926 135.763 73.6491 136.026 71.7997L137.561 72.6726ZM123.55 75.1292L128.79 69.4006C126.844 67.7275 124.778 67.7479 123.355 69.3035C121.79 71.0138 121.936 73.0928 123.55 75.1292Z" fill="#00CB0D"/>
<path d="M126.718 65.3861C128.3 65.3861 129.958 66.0472 131.541 67.4865L132.53 68.3845L124.989 76.6273C126.531 77.9378 128.093 78.5566 129.565 78.5566C131.162 78.5566 132.653 77.8287 133.9 76.466C135.157 75.0926 135.763 73.6491 136.026 71.7997L137.561 72.6726C137.695 75.0255 137.019 77.1171 135.359 78.9317C133.654 80.796 131.455 81.7935 129.171 81.7935C127.105 81.7935 124.97 80.9774 123.068 79.2482C119.401 75.9163 118.899 70.997 121.91 67.7053C123.275 66.2136 124.949 65.3861 126.718 65.3861ZM123.55 75.1292L128.79 69.4006C127.806 68.5542 126.79 68.1411 125.843 68.1411C124.918 68.1411 124.058 68.5349 123.355 69.3035C121.79 71.0138 121.936 73.0928 123.55 75.1292ZM126.718 64.7722C124.783 64.7722 122.963 65.6435 121.455 67.2917C119.88 69.0133 119.14 71.2263 119.372 73.523C119.601 75.7929 120.766 77.9873 122.653 79.7018C124.6 81.4718 126.854 82.4073 129.171 82.4073C131.649 82.4073 134.008 81.3198 135.814 79.3452C137.528 77.4723 138.322 75.2156 138.176 72.6379L138.157 72.3047L135.544 70.8187L135.417 71.7134C135.158 73.5268 134.569 74.8244 133.445 76.0523C132.314 77.2891 130.972 77.9427 129.565 77.9427C128.35 77.9427 127.115 77.4772 125.886 76.5577L133.4 68.3445L131.956 67.0329C130.329 65.554 128.518 64.7722 126.718 64.7722ZM123.608 74.1544C122.814 72.9082 122.383 71.277 123.81 69.7171C124.386 69.0876 125.089 68.7549 125.843 68.7549C126.502 68.7549 127.2 69.0029 127.887 69.4773L123.608 74.1544Z" fill="#F94646"/>
<path d="M140.966 71.97C140.649 70.4947 139.723 69.3209 137.798 67.5722L127.786 58.4728C125.861 56.7229 124.604 55.9118 123.1 55.7326L122.996 55.6378L129.091 48.9765C132.884 44.8293 136.6 44.3599 139.174 46.7003C141.255 48.591 141.395 51.6142 139.685 54.5228L139.789 54.6175C143.123 51.8078 146.529 51.6765 148.74 53.6853C151.444 56.1438 151.622 60.5302 147.733 64.781L141.07 72.0647L140.966 71.97ZM136.489 56.5077C138.837 53.9413 139.1 51.5704 136.994 49.6563C135.122 47.9544 132.753 48.4609 130.453 50.9751L127.821 53.852L133.88 59.3588L136.489 56.5077ZM135.623 60.9426L142.41 67.1112L145.232 64.0269C147.817 61.2016 148.382 58.3451 146.042 56.2181C143.805 54.1853 141.101 54.955 138.303 58.0136L135.623 60.9426Z" fill="#00CB0D"/>
<path d="M135.678 45.2955C136.977 45.2954 138.163 45.7812 139.174 46.7003C141.255 48.591 141.395 51.6142 139.685 54.5228L139.789 54.6175C141.641 53.0568 143.516 52.3224 145.195 52.3224C146.539 52.3224 147.757 52.7924 148.74 53.6853C151.444 56.1438 151.622 60.5302 147.733 64.781L141.07 72.0647L140.966 71.97C140.649 70.4947 139.723 69.3209 137.798 67.5722L127.786 58.4728C125.861 56.7229 124.604 55.9118 123.1 55.7326L122.996 55.6378L129.091 48.9765C131.395 46.4579 133.67 45.2957 135.678 45.2955ZM133.88 59.3588L136.489 56.5077C138.837 53.9413 139.1 51.5704 136.994 49.6563C136.26 48.9886 135.449 48.6608 134.596 48.6608C133.274 48.6608 131.851 49.4472 130.453 50.9751L127.821 53.852L133.88 59.3588ZM142.41 67.1112L145.232 64.0269C147.817 61.2016 148.382 58.3451 146.042 56.2181C145.202 55.4547 144.296 55.0864 143.344 55.0864C141.76 55.0864 140.05 56.1037 138.303 58.0136L135.623 60.9426L142.41 67.1112ZM135.679 44.6817C133.394 44.6819 130.958 46.024 128.635 48.5629L122.126 55.6774L122.831 56.3187L123.027 56.3421C124.303 56.4942 125.44 57.1704 127.371 58.9263L137.383 68.0258C139.315 69.7809 140.095 70.8466 140.364 72.0985L140.405 72.2907L141.11 72.9323L148.189 65.1947C152.619 60.3516 151.866 55.6967 149.155 53.2318C148.058 52.2352 146.689 51.7085 145.195 51.7085C143.852 51.7085 142.456 52.1291 141.086 52.9382C141.938 50.3658 141.423 47.913 139.589 46.2466C138.463 45.2228 137.111 44.6817 135.679 44.6817ZM128.691 53.812L130.908 51.3888C132.174 50.0057 133.449 49.2747 134.596 49.2747C135.302 49.2747 135.969 49.5556 136.579 50.1098C137.481 50.9296 137.88 51.8052 137.798 52.7866C137.714 53.7935 137.121 54.9062 136.034 56.0941L133.84 58.4916L128.691 53.812ZM136.493 60.9026L138.758 58.4272C140.39 56.6432 141.975 55.7003 143.344 55.7003C144.149 55.7003 144.918 56.0271 145.627 56.6717C146.605 57.561 147.025 58.6075 146.873 59.7824C146.722 60.955 145.997 62.2797 144.777 63.6133L142.37 66.244L136.493 60.9026Z" fill="#F94646"/>
<path d="M145.073 55.2985C141.302 51.8719 141.042 46.7932 144.291 43.2419C147.516 39.7164 152.563 39.5095 156.36 42.9601C160.157 46.4113 160.467 51.4871 157.242 55.0126C153.993 58.5639 148.87 58.7497 145.073 55.2985ZM153.989 45.5523C151.05 42.8816 147.978 42.7 146.033 44.8257C144.018 47.0288 144.558 50.0831 147.444 52.7064C150.357 55.3537 153.46 55.6582 155.499 53.4294C157.444 51.3036 156.953 48.2469 153.989 45.5523Z" fill="#00CB0D"/>
<path d="M150.336 40.4818C152.405 40.4816 154.528 41.295 156.36 42.9601C160.157 46.4113 160.467 51.4871 157.242 55.0126C155.563 56.8478 153.383 57.7845 151.144 57.7845C149.051 57.7845 146.907 56.9662 145.073 55.2985C141.302 51.8719 141.042 46.7932 144.291 43.2419C145.96 41.4176 148.117 40.4819 150.336 40.4818ZM152.235 54.9168C153.462 54.9168 154.587 54.4267 155.499 53.4294C157.444 51.3036 156.953 48.2469 153.989 45.5523C152.381 44.0905 150.731 43.3742 149.25 43.3742C148.024 43.3742 146.913 43.8635 146.033 44.8257C144.018 47.0288 144.558 50.0831 147.444 52.7064C149.054 54.1692 150.721 54.9168 152.235 54.9168ZM150.336 39.8679C147.89 39.8681 145.582 40.9194 143.836 42.8283C140.311 46.6811 140.657 52.1164 144.658 55.7522C146.535 57.4585 148.839 58.3984 151.144 58.3984C153.617 58.3984 155.944 57.3428 157.697 55.4262C161.193 51.6037 160.806 46.1702 156.775 42.5066C154.876 40.7803 152.649 39.8679 150.336 39.8679ZM152.235 54.3029C150.848 54.3029 149.335 53.594 147.859 52.2528C145.237 49.8692 144.711 47.1818 146.488 45.2393C147.248 44.409 148.177 43.988 149.25 43.988C150.626 43.988 152.122 44.6858 153.574 46.0059C156.229 48.4191 156.792 51.1052 155.044 53.0158C154.263 53.8698 153.318 54.3029 152.235 54.3029Z" fill="#F94646"/>
<path d="M153.835 45.7207C150.065 42.2941 149.804 37.2147 153.053 33.6641C156.278 30.1385 161.326 29.9317 165.122 33.3823C168.919 36.8335 169.229 41.9092 166.004 45.4348C162.755 48.9855 157.632 49.1719 153.835 45.7207ZM162.751 35.9744C159.812 33.3038 156.74 33.1221 154.796 35.2479C152.78 37.4509 153.32 40.5053 156.206 43.1286C159.119 45.7759 162.222 46.0804 164.262 43.8515C166.206 41.7258 165.715 38.6691 162.751 35.9744Z" fill="#00CB0D"/>
<path d="M159.098 30.904C161.167 30.9038 163.29 31.7172 165.122 33.3823C168.919 36.8335 169.229 41.9092 166.004 45.4348C164.325 47.2699 162.145 48.2064 159.906 48.2064C157.814 48.2064 155.67 47.3882 153.835 45.7207C150.065 42.2941 149.804 37.2147 153.053 33.6641C154.722 31.8398 156.879 30.9041 159.098 30.904ZM160.998 45.3389C162.224 45.3389 163.349 44.8488 164.262 43.8515C166.206 41.7258 165.715 38.6691 162.751 35.9744C161.142 34.5126 159.493 33.7963 158.012 33.7963C156.786 33.7963 155.676 34.2856 154.796 35.2479C152.78 37.4509 153.32 40.5053 156.206 43.1286C157.816 44.5913 159.484 45.3389 160.998 45.3389ZM159.099 30.2901C156.653 30.2902 154.344 31.3416 152.598 33.2505C150.906 35.0994 150.054 37.4169 150.197 39.7761C150.341 42.1441 151.486 44.4163 153.42 46.1743C155.297 47.8806 157.601 48.8203 159.906 48.8203C162.378 48.8203 164.706 47.7649 166.459 45.8484C169.956 42.0259 169.568 36.5924 165.537 32.9287C163.638 31.2025 161.411 30.2901 159.099 30.2901ZM160.998 44.725C159.61 44.725 158.097 44.0161 156.621 42.6749C153.999 40.2913 153.474 37.6039 155.251 35.6615C156.01 34.8312 156.939 34.4102 158.012 34.4102C159.388 34.4102 160.883 35.108 162.336 36.4281C164.991 38.8412 165.554 41.5273 163.807 43.438C163.025 44.2919 162.08 44.725 160.998 44.725Z" fill="#F94646"/>
<path d="M166.8 37.2753L159.519 30.6577L157.219 33.1719L155.71 31.8009C157.935 29.2651 157.848 28.475 155.187 25.8655L156.941 23.9471L159.984 26.7131L163.162 23.2398L164.878 24.7996L161.701 28.273L168.904 34.8198C170.231 36.0254 171.326 36.0248 172.394 34.8582C172.915 34.2881 173.309 33.6491 173.521 32.8446L175.058 33.7678C174.94 34.9889 174.448 36.204 173.548 37.189C171.722 39.1846 169.296 39.5443 166.8 37.2753Z" fill="#00CB0D"/>
<path d="M163.162 23.2398L164.878 24.7996L161.701 28.273L168.904 34.8198C169.572 35.4274 170.182 35.7286 170.76 35.7286C171.328 35.7286 171.864 35.4369 172.394 34.8582C172.915 34.2881 173.309 33.6491 173.521 32.8446L175.058 33.7678C174.94 34.9889 174.448 36.204 173.548 37.189C172.587 38.2385 171.461 38.8357 170.246 38.8357C169.151 38.8357 167.984 38.351 166.8 37.2753L159.519 30.6577L157.219 33.1719L155.71 31.8009C157.935 29.2651 157.848 28.475 155.187 25.8655L156.941 23.9471L159.984 26.7131L163.162 23.2398ZM163.122 22.3725L159.944 25.8459L156.901 23.0799L154.332 25.8887L154.755 26.3031C157.197 28.6981 157.239 29.1265 155.247 31.3968L154.85 31.8493L157.259 34.0391L159.559 31.5249L166.386 37.7289C167.641 38.8706 168.94 39.4496 170.246 39.4496C171.598 39.4496 172.897 38.811 174.003 37.6026C174.956 36.5607 175.533 35.255 175.671 33.8269L175.709 33.4417L173.134 31.8955L172.925 32.6888C172.755 33.3375 172.441 33.8954 171.939 34.4446C171.526 34.8955 171.14 35.1148 170.76 35.1148C170.35 35.1148 169.865 34.8629 169.319 34.3662L162.571 28.233L165.748 24.7596L163.122 22.3725Z" fill="#F94646"/>
<path d="M158.43 22.8411C156.973 21.5175 155.999 20.9162 154.846 20.7711L154.716 20.653L157.108 17.4141L157.179 17.3361L165.214 24.6401L165.334 24.5107C164.787 22.3999 165.121 20.4726 166.568 18.8912C168.631 16.6359 171.83 16.3158 174.95 19.1519L179.813 23.5713C181.296 24.9189 182.121 25.5262 183.3 25.6958L183.404 25.7905L180.202 29.2897L180.098 29.195C179.773 28.0925 179.091 27.3294 177.608 25.9818L172.798 21.6098C170.925 19.9079 169.13 19.8911 167.802 21.343C166.355 22.9238 166.41 25.727 168.543 27.6651L172.652 31.3992C174.135 32.7469 174.983 33.3283 176.139 33.5238L176.243 33.6185L173.041 37.1176L172.937 37.0229C172.659 35.8683 171.953 35.1316 170.471 33.784L158.43 22.8411Z" fill="#00CB0D"/>
<path d="M170.388 17.1122C171.829 17.1122 173.399 17.742 174.95 19.1519L179.813 23.5713C181.296 24.9189 182.121 25.5262 183.3 25.6958L183.404 25.7905L180.202 29.2897L180.098 29.195C179.773 28.0925 179.091 27.3294 177.608 25.9818L172.798 21.6098C171.819 20.7206 170.862 20.2914 169.981 20.2913C169.177 20.2912 168.436 20.6497 167.802 21.343C166.355 22.9238 166.41 25.727 168.543 27.6651L172.652 31.3992C174.135 32.7469 174.983 33.3283 176.139 33.5238L176.243 33.6185L173.041 37.1176L172.937 37.0229C172.659 35.8683 171.953 35.1316 170.471 33.784L158.43 22.8411C156.973 21.5175 155.999 20.9162 154.846 20.7711L154.716 20.653L157.108 17.4141L157.179 17.3361L165.214 24.6401L165.334 24.5107C164.787 22.3999 165.121 20.4726 166.568 18.8912C167.605 17.7571 168.93 17.1122 170.388 17.1122ZM157.137 16.4678L156.63 17.025L153.892 20.7343L154.575 21.3558L154.769 21.3802C155.745 21.503 156.595 22.004 158.015 23.2947L170.056 34.2376C171.46 35.514 172.1 36.1768 172.338 37.1661L172.382 37.3492L173.081 37.9853L177.112 33.5787L176.42 32.9487L176.242 32.9186C175.285 32.7567 174.572 32.3142 173.067 30.9457L168.958 27.2115C168.074 26.4085 167.536 25.3806 167.444 24.3169C167.359 23.3471 167.656 22.4139 168.257 21.7567C168.774 21.1916 169.354 20.9051 169.981 20.9052C170.719 20.9052 171.549 21.3058 172.382 22.0634L177.193 26.4354C178.589 27.7043 179.22 28.3923 179.508 29.3682L179.556 29.5325L180.242 30.1574L184.274 25.7509L183.575 25.1152L183.388 25.0882C182.373 24.9422 181.626 24.3878 180.228 23.1177L175.365 18.6983C173.782 17.2591 172.06 16.4984 170.388 16.4984C168.775 16.4984 167.297 17.1828 166.113 18.4776C164.905 19.7978 164.36 21.363 164.483 23.1448L157.137 16.4678Z" fill="#F94646"/>
</svg>
