<svg width="356" height="200" viewBox="0 0 356 200" fill="none" xmlns="http://www.w3.org/2000/svg">
<path d="M355.619 0.00195312H0.395508V200.002H355.619V0.00195312Z" fill="#99E9FF"/>
<path d="M76.8659 85.8218H17.5509V77.8218H76.8659V58.9749L107.811 81.8218L76.8659 104.669V85.8218ZM32.2402 117.173L63.1848 94.3263V113.173H122.5V121.173H63.1848V140.02L32.2402 117.173Z" fill="#0A0A0A"/>
<path d="M131.663 83.8218L141.077 49.4974L151.14 62.9209C160.033 55.5695 171.392 51.2992 183.111 51.2992C203.219 51.2992 229.789 66.02 230.167 100.344H222.948C222.57 70.9209 200.248 58.5245 183.111 58.5245C172.922 58.5245 163.129 62.2722 155.641 68.8488L167.108 84.2001L131.645 83.8218H131.663ZM211.463 136.092C202.571 143.443 191.23 147.714 179.493 147.714C159.385 147.714 132.815 132.993 132.437 98.6686H139.655C140.033 128.092 162.355 140.488 179.493 140.488C189.681 140.488 199.474 136.741 206.963 130.164L195.496 114.813L230.959 115.191L221.544 149.515L211.481 136.092H211.463Z" fill="#0A0A0A"/>
<path d="M244.478 99.4975C244.478 73.4254 265.486 52.5245 291.408 52.5245C317.33 52.5245 338.464 73.4254 338.464 99.4975C338.464 125.57 317.456 146.47 291.408 146.47C265.36 146.47 244.478 125.57 244.478 99.4975ZM263.812 96.3983C264.064 90.5965 265.108 85.047 266.908 80.002H255.567C252.867 84.9029 251.175 90.4524 250.797 96.3983H263.812ZM255.819 119.371H267.034C265.234 114.2 264.064 108.651 263.812 102.597H250.797C251.175 108.669 252.993 114.344 255.819 119.371ZM269.608 73.8218C272.182 68.7947 275.675 64.2722 279.797 60.3983C271.804 62.7227 264.712 67.4975 259.689 73.8218H269.626H269.608ZM279.671 138.597C275.675 134.849 272.452 130.47 269.878 125.57H259.941C265.108 131.642 271.804 136.272 279.671 138.597ZM288.438 96.3983V80.002H273.478C271.552 84.9029 270.256 90.4524 270.004 96.3983H288.438ZM273.73 119.371H288.438V102.597H270.004C270.256 108.669 271.552 114.344 273.749 119.371H273.73ZM288.438 73.8218V61.047C283.667 64.5245 279.671 68.7947 276.701 73.8218H288.438ZM288.438 138.092V125.57H276.827C279.923 130.47 283.793 134.597 288.438 138.092ZM306.619 73.8218C303.523 68.6686 299.527 64.3984 294.63 60.9209V73.8218H306.619ZM313.316 96.3983C313.064 90.4704 311.768 84.9209 309.842 80.002H294.63V96.3983H313.334H313.316ZM309.59 119.371C311.786 114.344 313.064 108.651 313.334 102.597H294.63V119.371H309.59ZM306.493 125.57H294.63V138.218C299.401 134.867 303.397 130.47 306.493 125.57ZM313.712 73.8218H323.253C318.23 67.6236 311.516 62.9749 303.775 60.5245C307.771 64.3984 311.12 68.7767 313.712 73.8218ZM323.001 125.57H313.46C311.012 130.344 307.789 134.741 303.919 138.344C311.39 136.02 317.978 131.497 323.001 125.57ZM327.123 119.371C329.967 114.344 331.767 108.651 332.145 102.597H319.508C319.256 108.669 318.086 114.218 316.286 119.371H327.123ZM319.508 96.3983H332.145C331.767 90.4704 330.075 84.9209 327.375 80.002H316.412C318.212 85.029 319.256 90.5785 319.508 96.3983Z" fill="#0A0A0A"/>
<path d="M33.5543 12.5785V17.2272H19.6751V25.4074H32.4562V30.002H19.6751V42.1101H14.4007V12.5785H33.5543Z" fill="#0A0A0A"/>
<path d="M37.1546 12.5785H47.3975C54.184 12.5785 58.5224 16.2902 58.5224 22.2002C58.5224 26.1281 56.5782 28.7047 53.428 30.5605V30.7767L60.0525 42.1281H54.148L48.2075 31.6956H42.429V42.1281H37.1546V12.5785ZM47.7755 27.047C51.1058 27.047 53.266 25.2812 53.266 22.1101C53.266 18.9389 51.1958 17.2092 47.7755 17.2092H42.429V27.047H47.7755Z" fill="#0A0A0A"/>
<path d="M61.2766 27.3353C61.2766 18.2542 67.7752 12.1461 76.1639 12.1461C84.5526 12.1461 91.0871 18.2722 91.0871 27.3353C91.0871 36.3983 84.5886 42.5245 76.1639 42.5245C67.7392 42.5245 61.2766 36.3983 61.2766 27.3353ZM85.7227 27.3353C85.7227 21.1731 82.0144 16.8668 76.1459 16.8668C70.2774 16.8668 66.5691 21.1731 66.5691 27.3353C66.5691 33.4974 70.3134 37.8038 76.1459 37.8038C81.9784 37.8038 85.7227 33.4974 85.7227 27.3353Z" fill="#0A0A0A"/>
<path d="M94.9215 12.5785H100.196L109.305 35.6236L118.449 12.5785H123.724V42.1281H118.665V23.6056H118.503L118.287 25.4614L111.753 42.1281H106.91L100.376 25.4614L100.16 23.6056H99.9979V42.1281H94.9395V12.5785H94.9215Z" fill="#0A0A0A"/>
<path d="M136.217 12.5785H141.995L154.182 33.1371L154.434 34.3263H154.56V12.5785H159.835V42.1281H154.056L141.869 21.5695L141.617 20.3803H141.491V42.1101H136.217V12.5785Z" fill="#0A0A0A"/>
<path d="M183.147 12.5785V17.2272H169.772V25.029H181.995V29.6776H169.772V37.4794H183.597V42.1281H164.497V12.5785H183.147Z" fill="#0A0A0A"/>
<path d="M187.755 31.1011V12.5785H193.03V31.029C193.03 35.3353 195.046 37.8218 199.15 37.8218C203.255 37.8218 205.271 35.3353 205.271 31.029V12.5785H210.545V31.1011C210.545 37.8578 206.369 42.5425 199.168 42.5425C191.968 42.5425 187.791 37.8578 187.791 31.1011H187.755Z" fill="#0A0A0A"/>
<path d="M215.208 12.5785H220.482V24.8128H220.608L231.103 12.5785H237.223L225.252 26.4164L237.727 42.1101H231.103L220.608 28.6866H220.482V42.1101H215.208V12.5785Z" fill="#0A0A0A"/>
<path d="M236.665 27.3353C236.665 18.2542 243.164 12.1461 251.553 12.1461C259.941 12.1461 266.476 18.2722 266.476 27.3353C266.476 36.3983 259.977 42.5245 251.553 42.5245C243.128 42.5245 236.665 36.3983 236.665 27.3353ZM261.129 27.3353C261.129 21.1731 257.421 16.8668 251.553 16.8668C245.684 16.8668 241.976 21.1731 241.976 27.3353C241.976 33.4974 245.72 37.8038 251.553 37.8038C257.385 37.8038 261.129 33.4974 261.129 27.3353ZM244.856 7.96592C244.856 6.48844 246.116 5.22718 247.646 5.22718C249.176 5.22718 250.437 6.48844 250.437 7.96592C250.437 9.44339 249.122 10.7047 247.646 10.7047C246.17 10.7047 244.856 9.44339 244.856 7.96592ZM252.777 7.96592C252.777 6.48844 254.037 5.22718 255.567 5.22718C257.097 5.22718 258.357 6.48844 258.357 7.96592C258.357 9.44339 257.043 10.7047 255.567 10.7047C254.091 10.7047 252.777 9.44339 252.777 7.96592Z" fill="#0A0A0A"/>
<path d="M270.328 12.5785H275.603V37.4794H290.058V42.1281H270.328V12.5785Z" fill="#0A0A0A"/>
<path d="M294.144 12.5785H299.419V37.4794H313.874V42.1281H294.144V12.5785Z" fill="#0A0A0A"/>
<path d="M317.978 12.5785H323.757L335.944 33.1371L336.196 34.3263H336.322V12.5785H341.596V42.1281H335.818L323.631 21.5695L323.379 20.3803H323.253V42.1101H317.978V12.5785Z" fill="#0A0A0A"/>
<path d="M20.9892 161.515H13.5186V156.867H33.7163V161.515H26.2457V186.416H20.9712V161.515H20.9892Z" fill="#0A0A0A"/>
<path d="M33.5903 171.642C33.5903 162.561 40.0888 156.452 48.4776 156.452C56.8663 156.452 63.4008 162.579 63.4008 171.642C63.4008 180.705 56.9023 186.831 48.4776 186.831C40.0528 186.831 33.5903 180.705 33.5903 171.642ZM58.0544 171.642C58.0544 165.479 54.346 161.173 48.4776 161.173C42.6091 161.173 38.9007 165.479 38.9007 171.642C38.9007 177.804 42.6451 182.11 48.4776 182.11C54.31 182.11 58.0544 177.804 58.0544 171.642Z" fill="#0A0A0A"/>
<path d="M101.474 161.515H94.0034V156.867H114.201V161.515H106.73V186.416H101.456V161.515H101.474Z" fill="#0A0A0A"/>
<path d="M117.459 156.885H122.734V169.335H135.173V156.885H140.447V186.434H135.173V173.984H122.734V186.434H117.459V156.885Z" fill="#0A0A0A"/>
<path d="M163.759 156.885V161.533H150.384V169.335H162.607V173.984H150.384V181.786H164.209V186.434H145.11V156.885H163.759Z" fill="#0A0A0A"/>
<path d="M198.826 156.885L203.975 176.47L204.641 180.272H204.767L205.361 176.47L210.851 156.885H216.072L221.508 176.47L222.138 180.272H222.264L222.894 176.47L228.079 156.885H233.695L225.126 186.434H219.51L213.443 164.02L207.377 186.434H201.76L193.192 156.885H198.826Z" fill="#0A0A0A"/>
<path d="M233.821 171.642C233.821 162.561 240.32 156.452 248.708 156.452C257.097 156.452 263.632 162.579 263.632 171.642C263.632 180.705 257.133 186.831 248.708 186.831C240.284 186.831 233.821 180.705 233.821 171.642ZM258.267 171.642C258.267 165.479 254.559 161.173 248.69 161.173C242.822 161.173 239.114 165.479 239.114 171.642C239.114 177.804 242.858 182.11 248.69 182.11C254.523 182.11 258.267 177.804 258.267 171.642Z" fill="#0A0A0A"/>
<path d="M267.466 156.885H277.709C284.495 156.885 288.834 160.597 288.834 166.506C288.834 170.434 286.89 173.011 283.739 174.867V175.083L290.364 186.434H284.459L278.519 176.002H272.74V186.434H267.466V156.885ZM278.105 171.353C281.435 171.353 283.595 169.588 283.595 166.416C283.595 163.245 281.525 161.515 278.105 161.515H272.758V171.353H278.105Z" fill="#0A0A0A"/>
<path d="M293.532 156.885H298.807V181.786H313.262V186.434H293.532V156.885Z" fill="#0A0A0A"/>
<path d="M317.366 156.885H326.889C336.538 156.885 342.496 162.579 342.496 171.66C342.496 180.741 336.556 186.434 326.889 186.434H317.366V156.885ZM326.727 181.786C333.171 181.786 337.222 178.542 337.222 171.66C337.222 164.777 333.171 161.533 326.727 161.533H322.641V181.786H326.727Z" fill="#0A0A0A"/>
</svg>
