<svg width="326" height="200" viewBox="0 0 326 200" fill="none" xmlns="http://www.w3.org/2000/svg">
<path d="M216.56 110.525H108.813L162.678 200.002L216.56 110.525Z" fill="#CD46FD"/>
<path d="M130.796 127.336H194.577V0.00244141H130.796V127.336Z" fill="#CD46FD"/>
<path d="M74.3302 22.9394C74.3302 43.2277 66.256 62.6691 51.8776 77.0115L40.8952 87.9664L25.3608 72.4709L0 173.732L101.515 148.453L85.981 132.957L97.0177 121.948C123.336 95.6961 138.112 60.0925 138.112 22.9754V0.00244141H74.3302V22.9394Z" fill="#CD46FD"/>
<path d="M228.355 121.948L239.392 132.957L223.858 148.453L325.373 173.732L300.03 72.4709L284.496 87.9664L273.514 77.0115C259.135 62.6691 251.061 43.2096 251.061 22.9394V0.00244141H187.28V22.9754C187.28 60.0925 202.055 95.6961 228.374 121.948H228.355Z" fill="#CD46FD"/>
<path d="M118.459 4.74118H132.909V8.23668H122.433V14.3988H132.078V17.8583H122.433V26.9754H118.459V4.74118Z" fill="#FE6301"/>
<path d="M135.619 4.74118H143.35C148.48 4.74118 151.749 7.53397 151.749 11.9844C151.749 14.9394 150.286 16.8673 147.902 18.2727V18.4349L152.905 26.9754H148.444L143.964 19.1376H139.611V26.9754H135.637V4.74118H135.619ZM143.639 15.6421C146.15 15.6421 147.775 14.3087 147.775 11.9304C147.775 9.55199 146.222 8.25469 143.639 8.25469H139.593V15.6601H143.639V15.6421Z" fill="#FE6301"/>
<path d="M153.827 15.8583C153.827 9.02947 158.722 4.43487 165.062 4.43487C171.402 4.43487 176.333 9.02947 176.333 15.8583C176.333 22.6871 171.438 27.2817 165.062 27.2817C158.686 27.2817 153.827 22.6871 153.827 15.8583ZM172.269 15.8583C172.269 11.2277 169.469 7.98442 165.044 7.98442C160.618 7.98442 157.819 11.2277 157.819 15.8583C157.819 20.4889 160.654 23.7322 165.044 23.7322C169.433 23.7322 172.269 20.4889 172.269 15.8583Z" fill="#FE6301"/>
<path d="M183.179 4.74118L190.043 22.0745L196.943 4.74118H200.917V26.9574H197.106V13.0295H196.98L196.817 14.4349L191.886 26.9754H188.219L183.288 14.4349L183.125 13.0295H182.999V26.9574H179.187V4.74118H183.179Z" fill="#FE6301"/>
<path d="M87.5525 32.0565H91.9058L101.1 47.516L101.299 48.3988H101.389V32.0565H105.363V54.2727H101.01L91.8154 38.8133L91.6168 37.9304H91.5264V54.2727H87.5525V32.0565Z" fill="#FE6301"/>
<path d="M108.903 32.0565H122.975V35.552H112.895V41.4259H122.126V44.9214H112.895V50.7952H123.336V54.2907H108.921V32.0745L108.903 32.0565Z" fill="#FE6301"/>
<path d="M126.443 46.0024V32.0745H130.417V45.9484C130.417 49.1916 131.952 51.0655 135.023 51.0655C138.093 51.0655 139.629 49.1916 139.629 45.9484V32.0745H143.603V46.0024C143.603 51.0835 140.46 54.597 135.005 54.597C129.55 54.597 126.407 51.0655 126.407 46.0024H126.443Z" fill="#FE6301"/>
<path d="M151.135 32.0565V41.2637H151.225L159.155 32.0565H163.761L154.73 42.4709L164.141 54.2727H159.137L151.207 44.1826H151.117V54.2727H147.143V32.0565H151.135Z" fill="#FE6301"/>
<path d="M163.364 43.1736C163.364 36.3448 168.259 31.7502 174.599 31.7502C180.939 31.7502 185.871 36.3448 185.871 43.1736C185.871 50.0024 180.976 54.597 174.599 54.597C168.223 54.597 163.364 50.0024 163.364 43.1736ZM181.825 43.1736C181.825 38.543 179.025 35.2997 174.599 35.2997C170.174 35.2997 167.374 38.543 167.374 43.1736C167.374 47.8042 170.21 51.0475 174.599 51.0475C178.989 51.0475 181.825 47.8042 181.825 43.1736ZM169.542 29.3538C169.542 28.2367 170.499 27.2817 171.637 27.2817C172.775 27.2817 173.732 28.2367 173.732 29.3538C173.732 30.4709 172.739 31.4259 171.637 31.4259C170.535 31.4259 169.542 30.4709 169.542 29.3538ZM175.52 29.3538C175.52 28.2367 176.478 27.2817 177.616 27.2817C178.754 27.2817 179.711 28.2367 179.711 29.3538C179.711 30.4709 178.718 31.4259 177.616 31.4259C176.514 31.4259 175.52 30.4709 175.52 29.3538Z" fill="#FE6301"/>
<path d="M188.761 32.0565H192.735V50.7772H203.645V54.2727H188.761V32.0565Z" fill="#FE6301"/>
<path d="M206.734 32.0565H210.708V50.7772H221.618V54.2727H206.734V32.0565Z" fill="#FE6301"/>
<path d="M224.725 32.0565H229.078L238.272 47.516L238.471 48.3988H238.561V32.0565H242.535V54.2727H238.182L228.988 38.8133L228.789 37.9304H228.699V54.2727H224.725V32.0565Z" fill="#FE6301"/>
<path d="M40.3352 110.885H34.6995V107.39H49.9449V110.885H44.3091V129.606H40.3352V110.885Z" fill="#FE6301"/>
<path d="M49.8545 118.507C49.8545 111.678 54.7497 107.084 61.0899 107.084C67.4301 107.084 72.3613 111.678 72.3613 118.507C72.3613 125.336 67.4662 129.93 61.0899 129.93C54.7136 129.93 49.8545 125.336 49.8545 118.507ZM68.3152 118.507C68.3152 113.876 65.5154 110.633 61.0899 110.633C56.6644 110.633 53.8646 113.876 53.8646 118.507C53.8646 123.138 56.7005 126.381 61.0899 126.381C65.4792 126.381 68.3152 123.138 68.3152 118.507Z" fill="#FE6301"/>
<path d="M139.9 124.453H134.264V120.957H149.509V124.453H143.874V143.174H139.9V124.453Z" fill="#FE6301"/>
<path d="M151.966 120.957H155.94V130.327H165.333V120.957H169.307V143.174H165.333V133.804H155.94V143.174H151.966V120.957Z" fill="#FE6301"/>
<path d="M172.847 120.957H186.918V124.453H176.839V130.327H186.069V133.822H176.839V139.696H187.28V143.192H172.865V120.975L172.847 120.957Z" fill="#FE6301"/>
<path d="M232.655 65.1015L235.653 68.0925L227.958 81.2457L226.296 83.6241L226.369 83.6961L228.717 81.9844L242.084 74.4889L244.865 77.2637L237.333 90.579L235.653 92.9394L235.725 93.0115L238.092 91.3358L251.296 83.6781L254.294 86.6691L233.973 97.8223L230.975 94.8313L239.681 79.6781L224.49 88.3628L221.491 85.3718L232.673 65.1015H232.655Z" fill="#FE6301"/>
<path d="M246.455 94.579C251.296 89.7502 258.015 89.9484 262.495 94.4169C266.975 98.8853 267.191 105.624 262.369 110.435C257.546 115.246 250.808 115.066 246.31 110.561C241.813 106.056 241.632 99.3898 246.473 94.561L246.455 94.579ZM259.496 107.606C262.784 104.327 263.091 100.056 259.966 96.9394C256.841 93.8223 252.56 94.1286 249.273 97.4079C245.985 100.687 245.696 104.975 248.803 108.075C251.91 111.174 256.209 110.885 259.496 107.606Z" fill="#FE6301"/>
<path d="M272.285 104.633L277.758 110.093C281.389 113.714 281.714 117.984 278.571 121.138C276.476 123.228 274.074 123.57 271.4 122.867L271.292 122.975L268.763 132.543L265.62 129.408L268.004 120.705L264.915 117.624L259.352 123.174L256.534 120.363L272.285 104.651V104.633ZM270.226 117.984C271.996 119.75 274.092 119.966 275.79 118.273C277.487 116.579 277.289 114.561 275.482 112.759L272.628 109.912L267.39 115.138L270.244 117.984H270.226Z" fill="#FE6301"/>
<path d="M286.194 118.507L289.012 121.318L275.735 134.561L283.448 142.255L280.974 144.723L270.443 134.219L286.194 118.507Z" fill="#FE6301"/>
<path d="M298.91 131.192L304.004 136.273C309.152 141.408 309.297 147.606 304.456 152.435C299.615 157.264 293.401 157.12 288.253 151.984L283.159 146.903L298.91 131.192ZM290.619 149.426C294.07 152.867 297.953 153.282 301.62 149.624C305.287 145.966 304.853 142.075 301.421 138.651L299.236 136.471L288.434 147.246L290.619 149.426Z" fill="#FE6301"/>
</svg>
