<svg width="208" height="200" viewBox="0 0 208 200" fill="none" xmlns="http://www.w3.org/2000/svg">
<path d="M200.934 44.9642V32.1875H194.286V25.7971H180.994V13.0209H167.702V6.63006H154.41V0.239652H80.3623V6.63006H60.4266V13.0209H47.1347V19.4067H40.4862V25.7971H33.8426V32.1875H27.1944V38.5784H20.5508V44.9642H13.9023V57.745H7.25868V64.1359H0.610435V84.7591H7.25868V142.26H13.9023V167.817H20.5508V180.598H27.1944V186.989H33.8426V193.374H47.1347V199.765H154.41V193.374H174.35V186.989H180.994V180.598H187.642V174.208H194.286V155.041H200.934V110.317H207.578V44.9642H200.934ZM41.4307 59.197H53.7783V83.3025H28.1386V71.9778H34.7871V65.5874H41.4307V59.197ZM114.534 25.7971V20.8629H120.238V25.7971H114.534ZM53.7783 155.041V166.365H48.0789V159.975H41.4307V153.584H34.7871V148.65H47.1347V155.041H53.7783ZM134.474 89.6929V84.7591H140.174V89.6929H134.474ZM160.114 110.317V115.25H154.41V110.317H160.114ZM113.59 103.926V110.317H133.53V134.417H127.826V128.027H94.5986V121.641H74.6629V103.926H113.59ZM81.3065 40.03H100.298V46.4204H113.59V83.3025H94.5986V44.9642H81.3065V40.03ZM40.4862 103.926V115.25H34.7871V108.86H28.1386V103.926H40.4862ZM87.9501 167.817H106.946V174.208H113.59V179.142H87.9501V167.817ZM180.05 134.417H174.35V129.483H180.05V134.417ZM186.698 89.6929H161.058V65.5874H166.758V71.9778H180.05V78.3687H186.698V89.6929Z" fill="#5E6614"/>
<path d="M154.647 200.002H46.8974V193.612H33.6054V187.226H26.957V180.835H20.3134V168.054H13.665V142.497H7.0214V84.9963H0.373047V63.8987H7.0214V57.5079H13.665V44.7269H20.3134V38.3412H26.957V31.9503H33.6054V25.5599H40.249V19.1695H46.8974V12.7836H60.1893V6.39283H80.1249V0.00244141H154.647V6.39283H167.939V12.7836H181.231V25.5599H194.523V31.9503H201.172V44.7269H207.815V110.554H201.172V155.278H194.523V174.445H187.88V180.835H181.231V187.226H174.588V193.612H154.647V200.002ZM47.372 199.528H154.173V193.137H174.113V186.751H180.757V180.361H187.405V173.971H194.049V154.803H200.697V110.079H207.341V45.2014H200.697V32.4247H194.049V26.0343H180.757V13.2581H167.465V6.86732H154.173V0.476927H80.5995V6.86732H60.6639V13.2581H47.372V19.644H40.7236V26.0343H34.08V32.4247H27.4316V38.8157H20.788V45.2014H14.1396V57.9824H7.496V64.3731H0.847648V84.5218H7.496V142.023H14.1396V167.58H20.788V180.361H27.4316V186.751H34.08V193.137H47.372V199.528ZM113.827 179.379H87.7129V167.58H107.184V173.971H113.827V179.379ZM88.1875 178.904H113.353V174.445H106.709V168.054H88.1875V178.904ZM54.0156 166.603H47.8416V160.212H41.1935V153.821H34.5498V148.413H47.372V154.803H54.0156V166.603ZM48.3162 166.128H53.541V155.278H46.8974V148.888H35.0244V153.347H41.6681V159.738H48.3162V166.128ZM180.287 134.655H174.113V129.246H180.287V134.655ZM174.588 134.18H179.812V129.72H174.588V134.18ZM133.767 134.655H127.589V128.264H94.3612V121.879H74.4256V103.688H113.827V110.079H133.767V134.655ZM128.063 134.18H133.293V110.554H113.353V104.163H74.9002V121.404H94.8358V127.79H128.063V134.18ZM160.351 115.488H154.173V110.079H160.351V115.488ZM154.647 115.013H159.877V110.554H154.647V115.013ZM40.7236 115.488H34.5498V109.097H27.9013V103.688H40.7236V115.488ZM35.0244 115.013H40.249V104.163H28.3759V108.623H35.0244V115.013ZM186.935 89.9302H160.821V65.3503H166.995V71.7406H180.287V78.1314H186.935V89.9302ZM161.296 89.4557H186.461V78.6059H179.812V72.2151H166.52V65.8247H161.296V89.4557ZM140.411 89.9302H134.237V84.5218H140.411V89.9302ZM134.712 89.4557H139.937V84.9963H134.712V89.4557ZM113.827 83.5398H94.3612V45.2014H81.0692V39.7926H100.535V46.183H113.827V83.5398ZM94.8358 83.0653H113.353V46.6575H100.06V40.2671H81.5438V44.7269H94.8358V83.0653ZM54.0156 83.5398H27.9013V71.7406H34.5498V65.3503H41.1935V58.9599H54.0156V83.5398ZM28.3759 83.0653H53.541V59.4344H41.6681V65.8247H35.0244V72.2151H28.3759V83.0653ZM120.475 26.0343H114.297V20.6256H120.475V26.0343ZM114.771 25.5599H120.001V21.1001H114.771V25.5599Z" fill="black"/>
<path d="M200.46 96.8095H193.816V103.2H200.46V96.8095Z" fill="#FF9D1D"/>
<path d="M200.46 90.419H193.816V96.8095H200.46V90.419Z" fill="#FF9D1D"/>
<path d="M200.46 84.0284H193.816V90.419H200.46V84.0284Z" fill="#FF9D1D"/>
<path d="M200.46 77.6426H193.816V84.0284H200.46V77.6426Z" fill="#FF9D1D"/>
<path d="M200.46 71.2521H193.816V77.6426H200.46V71.2521Z" fill="#FF9D1D"/>
<path d="M200.46 64.8615H193.816V71.2521H200.46V64.8615Z" fill="#FF9D1D"/>
<path d="M200.46 58.471H193.816V64.8615H200.46V58.471Z" fill="#FF9D1D"/>
<path d="M200.46 52.0805H193.816V58.471H200.46V52.0805Z" fill="#FF9D1D"/>
<path d="M193.816 141.534H187.168V147.924H193.816V141.534Z" fill="#FF9D1D"/>
<path d="M193.816 135.143H187.168V141.534H193.816V135.143Z" fill="#FF9D1D"/>
<path d="M193.816 128.757H187.168V135.143H193.816V128.757Z" fill="#FF9D1D"/>
<path d="M193.816 122.367H187.168V128.757H193.816V122.367Z" fill="#FF9D1D"/>
<path d="M193.816 115.976H187.168V122.367H193.816V115.976Z" fill="#FF9D1D"/>
<path d="M193.816 109.586H187.168V115.976H193.816V109.586Z" fill="#FF9D1D"/>
<path d="M193.816 103.2H187.168V109.586H193.816V103.2Z" fill="#FF9D1D"/>
<path d="M193.816 96.8095H187.168V103.2H193.816V96.8095Z" fill="#FF9D1D"/>
<path d="M193.816 64.8615H187.168V71.2521H193.816V64.8615Z" fill="#FF9D1D"/>
<path d="M193.816 52.0805H187.168V58.471H193.816V52.0805Z" fill="#FF9D1D"/>
<path d="M193.816 45.6947H187.168V52.0805H193.816V45.6947Z" fill="#FF9D1D"/>
<path d="M193.816 39.3041H187.168V45.6947H193.816V39.3041Z" fill="#FF9D1D"/>
<path d="M187.168 160.701H180.524V167.091H187.168V160.701Z" fill="#FF9D1D"/>
<path d="M187.168 154.315H180.524V160.701H187.168V154.315Z" fill="#FF9D1D"/>
<path d="M187.168 147.924H180.524V154.315H187.168V147.924Z" fill="#FF9D1D"/>
<path d="M187.168 141.534H180.524V147.924H187.168V141.534Z" fill="#FF9D1D"/>
<path d="M187.168 96.8095H180.524V103.2H187.168V96.8095Z" fill="#FF9D1D"/>
<path d="M187.168 58.471H180.524V64.8615H187.168V58.471Z" fill="#FF9D1D"/>
<path d="M187.168 39.3041H180.524V45.6947H187.168V39.3041Z" fill="#FF9D1D"/>
<path d="M187.168 32.9136H180.524V39.3041H187.168V32.9136Z" fill="#FF9D1D"/>
<path d="M180.524 167.091H173.876V173.482H180.524V167.091Z" fill="#FF9D1D"/>
<path d="M180.524 160.701H173.876V167.091H180.524V160.701Z" fill="#FF9D1D"/>
<path d="M180.524 154.315H173.876V160.701H180.524V154.315Z" fill="#FF9D1D"/>
<path d="M180.524 147.924H173.876V154.315H180.524V147.924Z" fill="#FF9D1D"/>
<path d="M180.524 96.8095H173.876V103.2H180.524V96.8095Z" fill="#FF9D1D"/>
<path d="M180.524 58.471H173.876V64.8615H180.524V58.471Z" fill="#FF9D1D"/>
<path d="M180.524 32.9136H173.876V39.3041H180.524V32.9136Z" fill="#FF9D1D"/>
<path d="M173.876 173.482H167.232V179.872H173.876V173.482Z" fill="#FF9D1D"/>
<path d="M173.876 167.091H167.232V173.482H173.876V167.091Z" fill="#FF9D1D"/>
<path d="M173.876 154.315H167.232V160.701H173.876V154.315Z" fill="#FF9D1D"/>
<path d="M173.876 115.976H167.232V122.367H173.876V115.976Z" fill="#FF9D1D"/>
<path d="M173.876 96.8095H167.232V103.2H173.876V96.8095Z" fill="#FF9D1D"/>
<path d="M173.876 52.0805H167.232V58.471H173.876V52.0805Z" fill="#FF9D1D"/>
<path d="M173.876 26.523H167.232V32.9136H173.876V26.523Z" fill="#FF9D1D"/>
<path d="M173.876 20.1372H167.232V26.523H173.876V20.1372Z" fill="#FF9D1D"/>
<path d="M167.232 179.872H160.584V186.258H167.232V179.872Z" fill="#FF9D1D"/>
<path d="M167.232 173.482H160.584V179.872H167.232V173.482Z" fill="#FF9D1D"/>
<path d="M167.232 160.701H160.584V167.091H167.232V160.701Z" fill="#FF9D1D"/>
<path d="M167.232 154.315H160.584V160.701H167.232V154.315Z" fill="#FF9D1D"/>
<path d="M167.232 128.757H160.584V135.143H167.232V128.757Z" fill="#FF9D1D"/>
<path d="M167.232 122.367H160.584V128.757H167.232V122.367Z" fill="#FF9D1D"/>
<path d="M167.232 96.8095H160.584V103.2H167.232V96.8095Z" fill="#FF9D1D"/>
<path d="M167.232 45.6947H160.584V52.0805H167.232V45.6947Z" fill="#FF9D1D"/>
<path d="M167.232 20.1372H160.584V26.523H167.232V20.1372Z" fill="#FF9D1D"/>
<path d="M160.584 179.872H153.94V186.258H160.584V179.872Z" fill="#FF9D1D"/>
<path d="M160.584 160.701H153.94V167.091H160.584V160.701Z" fill="#FF9D1D"/>
<path d="M160.584 135.143H153.94V141.534H160.584V135.143Z" fill="#FF9D1D"/>
<path d="M160.584 128.757H153.94V135.143H160.584V128.757Z" fill="#FF9D1D"/>
<path d="M160.584 96.8095H153.94V103.2H160.584V96.8095Z" fill="#FF9D1D"/>
<path d="M160.584 45.6947H153.94V52.0805H160.584V45.6947Z" fill="#FF9D1D"/>
<path d="M160.584 20.1372H153.94V26.523H160.584V20.1372Z" fill="#FF9D1D"/>
<path d="M160.584 13.7467H153.94V20.1372H160.584V13.7467Z" fill="#FF9D1D"/>
<path d="M153.94 179.872H147.292V186.258H153.94V179.872Z" fill="#FF9D1D"/>
<path d="M153.94 160.701H147.292V167.091H153.94V160.701Z" fill="#FF9D1D"/>
<path d="M153.94 135.143H147.292V141.534H153.94V135.143Z" fill="#FF9D1D"/>
<path d="M153.94 96.8095H147.292V103.2H153.94V96.8095Z" fill="#FF9D1D"/>
<path d="M153.94 90.419H147.292V96.8095H153.94V90.419Z" fill="#FF9D1D"/>
<path d="M153.94 84.0284H147.292V90.419H153.94V84.0284Z" fill="#FF9D1D"/>
<path d="M153.94 77.6426H147.292V84.0284H153.94V77.6426Z" fill="#FF9D1D"/>
<path d="M153.94 71.2521H147.292V77.6426H153.94V71.2521Z" fill="#FF9D1D"/>
<path d="M153.94 64.8615H147.292V71.2521H153.94V64.8615Z" fill="#FF9D1D"/>
<path d="M153.94 58.471H147.292V64.8615H153.94V58.471Z" fill="#FF9D1D"/>
<path d="M153.94 52.0805H147.292V58.471H153.94V52.0805Z" fill="#FF9D1D"/>
<path d="M153.94 45.6947H147.292V52.0805H153.94V45.6947Z" fill="#FF9D1D"/>
<path d="M153.94 39.3041H147.292V45.6947H153.94V39.3041Z" fill="#FF9D1D"/>
<path d="M153.94 13.7467H147.292V20.1372H153.94V13.7467Z" fill="#FF9D1D"/>
<path d="M147.292 186.258H140.648V192.649H147.292V186.258Z" fill="#FF9D1D"/>
<path d="M147.292 179.872H140.648V186.258H147.292V179.872Z" fill="#FF9D1D"/>
<path d="M147.292 160.701H140.648V167.091H147.292V160.701Z" fill="#FF9D1D"/>
<path d="M147.292 141.534H140.648V147.924H147.292V141.534Z" fill="#FF9D1D"/>
<path d="M147.292 135.143H140.648V141.534H147.292V135.143Z" fill="#FF9D1D"/>
<path d="M147.292 128.757H140.648V135.143H147.292V128.757Z" fill="#FF9D1D"/>
<path d="M147.292 122.367H140.648V128.757H147.292V122.367Z" fill="#FF9D1D"/>
<path d="M147.292 115.976H140.648V122.367H147.292V115.976Z" fill="#FF9D1D"/>
<path d="M147.292 109.586H140.648V115.976H147.292V109.586Z" fill="#FF9D1D"/>
<path d="M147.292 103.2H140.648V109.586H147.292V103.2Z" fill="#FF9D1D"/>
<path d="M147.292 96.8095H140.648V103.2H147.292V96.8095Z" fill="#FF9D1D"/>
<path d="M147.292 39.3041H140.648V45.6947H147.292V39.3041Z" fill="#FF9D1D"/>
<path d="M147.292 32.9136H140.648V39.3041H147.292V32.9136Z" fill="#FF9D1D"/>
<path d="M147.292 26.523H140.648V32.9136H147.292V26.523Z" fill="#FF9D1D"/>
<path d="M147.292 20.1372H140.648V26.523H147.292V20.1372Z" fill="#FF9D1D"/>
<path d="M147.292 13.7467H140.648V20.1372H147.292V13.7467Z" fill="#FF9D1D"/>
<path d="M147.292 7.35616H140.648V13.7467H147.292V7.35616Z" fill="#FF9D1D"/>
<path d="M140.648 186.258H134V192.649H140.648V186.258Z" fill="#FF9D1D"/>
<path d="M140.648 160.701H134V167.091H140.648V160.701Z" fill="#FF9D1D"/>
<path d="M140.648 154.315H134V160.701H140.648V154.315Z" fill="#FF9D1D"/>
<path d="M140.648 147.924H134V154.315H140.648V147.924Z" fill="#FF9D1D"/>
<path d="M140.648 141.534H134V147.924H140.648V141.534Z" fill="#FF9D1D"/>
<path d="M140.648 96.8095H134V103.2H140.648V96.8095Z" fill="#FF9D1D"/>
<path d="M140.648 32.9136H134V39.3041H140.648V32.9136Z" fill="#FF9D1D"/>
<path d="M140.648 20.1372H134V26.523H140.648V20.1372Z" fill="#FF9D1D"/>
<path d="M140.648 7.35616H134V13.7467H140.648V7.35616Z" fill="#FF9D1D"/>
<path d="M134 186.258H127.356V192.649H134V186.258Z" fill="#FF9D1D"/>
<path d="M134 173.482H127.356V179.872H134V173.482Z" fill="#FF9D1D"/>
<path d="M134 167.091H127.356V173.482H134V167.091Z" fill="#FF9D1D"/>
<path d="M134 160.701H127.356V167.091H134V160.701Z" fill="#FF9D1D"/>
<path d="M134 141.534H127.356V147.924H134V141.534Z" fill="#FF9D1D"/>
<path d="M134 96.8095H127.356V103.2H134V96.8095Z" fill="#FF9D1D"/>
<path d="M134 71.2521H127.356V77.6426H134V71.2521Z" fill="#FF9D1D"/>
<path d="M134 64.8615H127.356V71.2521H134V64.8615Z" fill="#FF9D1D"/>
<path d="M134 58.471H127.356V64.8615H134V58.471Z" fill="#FF9D1D"/>
<path d="M134 52.0805H127.356V58.471H134V52.0805Z" fill="#FF9D1D"/>
<path d="M134 32.9136H127.356V39.3041H134V32.9136Z" fill="#FF9D1D"/>
<path d="M134 13.7467H127.356V20.1372H134V13.7467Z" fill="#FF9D1D"/>
<path d="M134 7.35616H127.356V13.7467H134V7.35616Z" fill="#FF9D1D"/>
<path d="M127.356 186.258H120.708V192.649H127.356V186.258Z" fill="#FF9D1D"/>
<path d="M127.356 179.872H120.708V186.258H127.356V179.872Z" fill="#FF9D1D"/>
<path d="M127.356 173.482H120.708V179.872H127.356V173.482Z" fill="#FF9D1D"/>
<path d="M127.356 160.701H120.708V167.091H127.356V160.701Z" fill="#FF9D1D"/>
<path d="M127.356 141.534H120.708V147.924H127.356V141.534Z" fill="#FF9D1D"/>
<path d="M127.356 96.8095H120.708V103.2H127.356V96.8095Z" fill="#FF9D1D"/>
<path d="M127.356 90.419H120.708V96.8095H127.356V90.419Z" fill="#FF9D1D"/>
<path d="M127.356 71.2521H120.708V77.6426H127.356V71.2521Z" fill="#FF9D1D"/>
<path d="M127.356 64.8615H120.708V71.2521H127.356V64.8615Z" fill="#FF9D1D"/>
<path d="M127.356 58.471H120.708V64.8615H127.356V58.471Z" fill="#FF9D1D"/>
<path d="M127.356 52.0805H120.708V58.471H127.356V52.0805Z" fill="#FF9D1D"/>
<path d="M127.356 32.9136H120.708V39.3041H127.356V32.9136Z" fill="#FF9D1D"/>
<path d="M127.356 7.35616H120.708V13.7467H127.356V7.35616Z" fill="#FF9D1D"/>
<path d="M120.708 186.258H114.064V192.649H120.708V186.258Z" fill="#FF9D1D"/>
<path d="M120.708 160.701H114.064V167.091H120.708V160.701Z" fill="#FF9D1D"/>
<path d="M120.708 141.534H114.064V147.924H120.708V141.534Z" fill="#FF9D1D"/>
<path d="M120.708 135.143H114.064V141.534H120.708V135.143Z" fill="#FF9D1D"/>
<path d="M120.708 90.419H114.064V96.8095H120.708V90.419Z" fill="#FF9D1D"/>
<path d="M120.708 32.9136H114.064V39.3041H120.708V32.9136Z" fill="#FF9D1D"/>
<path d="M120.708 7.35616H114.064V13.7467H120.708V7.35616Z" fill="#FF9D1D"/>
<path d="M114.064 186.258H107.416V192.649H114.064V186.258Z" fill="#FF9D1D"/>
<path d="M114.064 154.315H107.416V160.701H114.064V154.315Z" fill="#FF9D1D"/>
<path d="M114.064 135.143H107.416V141.534H114.064V135.143Z" fill="#FF9D1D"/>
<path d="M114.064 90.419H107.416V96.8095H114.064V90.419Z" fill="#FF9D1D"/>
<path d="M114.064 32.9136H107.416V39.3041H114.064V32.9136Z" fill="#FF9D1D"/>
<path d="M114.064 7.35616H107.416V13.7467H114.064V7.35616Z" fill="#FF9D1D"/>
<path d="M107.416 186.258H100.772V192.649H107.416V186.258Z" fill="#FF9D1D"/>
<path d="M107.416 154.315H100.772V160.701H107.416V154.315Z" fill="#FF9D1D"/>
<path d="M107.416 135.143H100.772V141.534H107.416V135.143Z" fill="#FF9D1D"/>
<path d="M107.416 90.419H100.772V96.8095H107.416V90.419Z" fill="#FF9D1D"/>
<path d="M107.416 26.523H100.772V32.9136H107.416V26.523Z" fill="#FF9D1D"/>
<path d="M107.416 7.35616H100.772V13.7467H107.416V7.35616Z" fill="#FF9D1D"/>
<path d="M100.772 186.258H94.124V192.649H100.772V186.258Z" fill="#FF9D1D"/>
<path d="M100.772 154.315H94.124V160.701H100.772V154.315Z" fill="#FF9D1D"/>
<path d="M100.772 135.143H94.124V141.534H100.772V135.143Z" fill="#FF9D1D"/>
<path d="M100.772 90.419H94.124V96.8095H100.772V90.419Z" fill="#FF9D1D"/>
<path d="M100.772 26.523H94.124V32.9136H100.772V26.523Z" fill="#FF9D1D"/>
<path d="M100.772 13.7467H94.124V20.1372H100.772V13.7467Z" fill="#FF9D1D"/>
<path d="M100.772 7.35616H94.124V13.7467H100.772V7.35616Z" fill="#FF9D1D"/>
<path d="M94.124 186.258H87.4804V192.649H94.124V186.258Z" fill="#FF9D1D"/>
<path d="M94.124 154.315H87.4804V160.701H94.124V154.315Z" fill="#FF9D1D"/>
<path d="M94.124 135.143H87.4804V141.534H94.124V135.143Z" fill="#FF9D1D"/>
<path d="M94.124 90.419H87.4804V96.8095H94.124V90.419Z" fill="#FF9D1D"/>
<path d="M94.124 26.523H87.4804V32.9136H94.124V26.523Z" fill="#FF9D1D"/>
<path d="M94.124 13.7467H87.4804V20.1372H94.124V13.7467Z" fill="#FF9D1D"/>
<path d="M94.124 7.35616H87.4804V13.7467H94.124V7.35616Z" fill="#FF9D1D"/>
<path d="M87.4804 186.258H80.832V192.649H87.4804V186.258Z" fill="#FF9D1D"/>
<path d="M87.4804 154.315H80.832V160.701H87.4804V154.315Z" fill="#FF9D1D"/>
<path d="M87.4804 147.924H80.832V154.315H87.4804V147.924Z" fill="#FF9D1D"/>
<path d="M87.4804 135.143H80.832V141.534H87.4804V135.143Z" fill="#FF9D1D"/>
<path d="M87.4804 128.757H80.832V135.143H87.4804V128.757Z" fill="#FF9D1D"/>
<path d="M87.4804 90.419H80.832V96.8095H87.4804V90.419Z" fill="#FF9D1D"/>
<path d="M87.4804 71.2521H80.832V77.6426H87.4804V71.2521Z" fill="#FF9D1D"/>
<path d="M87.4804 64.8615H80.832V71.2521H87.4804V64.8615Z" fill="#FF9D1D"/>
<path d="M87.4804 58.471H80.832V64.8615H87.4804V58.471Z" fill="#FF9D1D"/>
<path d="M87.4804 52.0805H80.832V58.471H87.4804V52.0805Z" fill="#FF9D1D"/>
<path d="M87.4804 26.523H80.832V32.9136H87.4804V26.523Z" fill="#FF9D1D"/>
<path d="M87.4804 20.1372H80.832V26.523H87.4804V20.1372Z" fill="#FF9D1D"/>
<path d="M87.4804 13.7467H80.832V20.1372H87.4804V13.7467Z" fill="#FF9D1D"/>
<path d="M80.832 186.258H74.1884V192.649H80.832V186.258Z" fill="#FF9D1D"/>
<path d="M80.832 179.872H74.1884V186.258H80.832V179.872Z" fill="#FF9D1D"/>
<path d="M80.832 173.482H74.1884V179.872H80.832V173.482Z" fill="#FF9D1D"/>
<path d="M80.832 147.924H74.1884V154.315H80.832V147.924Z" fill="#FF9D1D"/>
<path d="M80.832 128.757H74.1884V135.143H80.832V128.757Z" fill="#FF9D1D"/>
<path d="M80.832 90.419H74.1884V96.8095H80.832V90.419Z" fill="#FF9D1D"/>
<path d="M80.832 71.2521H74.1884V77.6426H80.832V71.2521Z" fill="#FF9D1D"/>
<path d="M80.832 64.8615H74.1884V71.2521H80.832V64.8615Z" fill="#FF9D1D"/>
<path d="M80.832 58.471H74.1884V64.8615H80.832V58.471Z" fill="#FF9D1D"/>
<path d="M80.832 52.0805H74.1884V58.471H80.832V52.0805Z" fill="#FF9D1D"/>
<path d="M80.832 26.523H74.1884V32.9136H80.832V26.523Z" fill="#FF9D1D"/>
<path d="M80.832 20.1372H74.1884V26.523H80.832V20.1372Z" fill="#FF9D1D"/>
<path d="M80.832 13.7467H74.1884V20.1372H80.832V13.7467Z" fill="#FF9D1D"/>
<path d="M74.1884 186.258H67.5448V192.649H74.1884V186.258Z" fill="#FF9D1D"/>
<path d="M74.1884 173.482H67.5448V179.872H74.1884V173.482Z" fill="#FF9D1D"/>
<path d="M74.1884 167.091H67.5448V173.482H74.1884V167.091Z" fill="#FF9D1D"/>
<path d="M74.1884 160.701H67.5448V167.091H74.1884V160.701Z" fill="#FF9D1D"/>
<path d="M74.1884 147.924H67.5448V154.315H74.1884V147.924Z" fill="#FF9D1D"/>
<path d="M74.1884 128.757H67.5448V135.143H74.1884V128.757Z" fill="#FF9D1D"/>
<path d="M74.1884 90.419H67.5448V96.8095H74.1884V90.419Z" fill="#FF9D1D"/>
<path d="M74.1884 39.3041H67.5448V45.6947H74.1884V39.3041Z" fill="#FF9D1D"/>
<path d="M74.1884 32.9136H67.5448V39.3041H74.1884V32.9136Z" fill="#FF9D1D"/>
<path d="M74.1884 26.523H67.5448V32.9136H74.1884V26.523Z" fill="#FF9D1D"/>
<path d="M74.1884 20.1372H67.5448V26.523H74.1884V20.1372Z" fill="#FF9D1D"/>
<path d="M74.1884 13.7467H67.5448V20.1372H74.1884V13.7467Z" fill="#FF9D1D"/>
<path d="M67.5448 186.258H60.8964V192.649H67.5448V186.258Z" fill="#FF9D1D"/>
<path d="M67.5448 160.701H60.8964V167.091H67.5448V160.701Z" fill="#FF9D1D"/>
<path d="M67.5448 154.315H60.8964V160.701H67.5448V154.315Z" fill="#FF9D1D"/>
<path d="M67.5448 147.924H60.8964V154.315H67.5448V147.924Z" fill="#FF9D1D"/>
<path d="M67.5448 141.534H60.8964V147.924H67.5448V141.534Z" fill="#FF9D1D"/>
<path d="M67.5448 135.143H60.8964V141.534H67.5448V135.143Z" fill="#FF9D1D"/>
<path d="M67.5448 128.757H60.8964V135.143H67.5448V128.757Z" fill="#FF9D1D"/>
<path d="M67.5448 122.367H60.8964V128.757H67.5448V122.367Z" fill="#FF9D1D"/>
<path d="M67.5448 115.976H60.8964V122.367H67.5448V115.976Z" fill="#FF9D1D"/>
<path d="M67.5448 109.586H60.8964V115.976H67.5448V109.586Z" fill="#FF9D1D"/>
<path d="M67.5448 103.2H60.8964V109.586H67.5448V103.2Z" fill="#FF9D1D"/>
<path d="M67.5448 96.8095H60.8964V103.2H67.5448V96.8095Z" fill="#FF9D1D"/>
<path d="M67.5448 90.419H60.8964V96.8095H67.5448V90.419Z" fill="#FF9D1D"/>
<path d="M67.5448 84.0284H60.8964V90.419H67.5448V84.0284Z" fill="#FF9D1D"/>
<path d="M67.5448 77.6426H60.8964V84.0284H67.5448V77.6426Z" fill="#FF9D1D"/>
<path d="M67.5448 71.2521H60.8964V77.6426H67.5448V71.2521Z" fill="#FF9D1D"/>
<path d="M67.5448 64.8615H60.8964V71.2521H67.5448V64.8615Z" fill="#FF9D1D"/>
<path d="M67.5448 58.471H60.8964V64.8615H67.5448V58.471Z" fill="#FF9D1D"/>
<path d="M67.5448 52.0805H60.8964V58.471H67.5448V52.0805Z" fill="#FF9D1D"/>
<path d="M67.5448 45.6947H60.8964V52.0805H67.5448V45.6947Z" fill="#FF9D1D"/>
<path d="M67.5448 39.3041H60.8964V45.6947H67.5448V39.3041Z" fill="#FF9D1D"/>
<path d="M67.5448 32.9136H60.8964V39.3041H67.5448V32.9136Z" fill="#FF9D1D"/>
<path d="M67.5448 20.1372H60.8964V26.523H67.5448V20.1372Z" fill="#FF9D1D"/>
<path d="M60.8964 186.258H54.2528V192.649H60.8964V186.258Z" fill="#FF9D1D"/>
<path d="M60.8964 141.534H54.2528V147.924H60.8964V141.534Z" fill="#FF9D1D"/>
<path d="M60.8964 135.143H54.2528V141.534H60.8964V135.143Z" fill="#FF9D1D"/>
<path d="M60.8964 115.976H54.2528V122.367H60.8964V115.976Z" fill="#FF9D1D"/>
<path d="M60.8964 90.419H54.2528V96.8095H60.8964V90.419Z" fill="#FF9D1D"/>
<path d="M60.8964 39.3041H54.2528V45.6947H60.8964V39.3041Z" fill="#FF9D1D"/>
<path d="M60.8964 20.1372H54.2528V26.523H60.8964V20.1372Z" fill="#FF9D1D"/>
<path d="M54.2528 179.872H47.6045V186.258H54.2528V179.872Z" fill="#FF9D1D"/>
<path d="M54.2528 135.143H47.6045V141.534H54.2528V135.143Z" fill="#FF9D1D"/>
<path d="M54.2528 115.976H47.6045V122.367H54.2528V115.976Z" fill="#FF9D1D"/>
<path d="M54.2528 109.586H47.6045V115.976H54.2528V109.586Z" fill="#FF9D1D"/>
<path d="M54.2528 90.419H47.6045V96.8095H54.2528V90.419Z" fill="#FF9D1D"/>
<path d="M54.2528 39.3041H47.6045V45.6947H54.2528V39.3041Z" fill="#FF9D1D"/>
<path d="M54.2528 26.523H47.6045V32.9136H54.2528V26.523Z" fill="#FF9D1D"/>
<path d="M47.6045 179.872H40.9609V186.258H47.6045V179.872Z" fill="#FF9D1D"/>
<path d="M47.6045 173.482H40.9609V179.872H47.6045V173.482Z" fill="#FF9D1D"/>
<path d="M47.6045 135.143H40.9609V141.534H47.6045V135.143Z" fill="#FF9D1D"/>
<path d="M47.6045 90.419H40.9609V96.8095H47.6045V90.419Z" fill="#FF9D1D"/>
<path d="M47.6045 45.6947H40.9609V52.0805H47.6045V45.6947Z" fill="#FF9D1D"/>
<path d="M47.6045 39.3041H40.9609V45.6947H47.6045V39.3041Z" fill="#FF9D1D"/>
<path d="M47.6045 32.9136H40.9609V39.3041H47.6045V32.9136Z" fill="#FF9D1D"/>
<path d="M40.9609 173.482H34.3125V179.872H40.9609V173.482Z" fill="#FF9D1D"/>
<path d="M40.9609 167.091H34.3125V173.482H40.9609V167.091Z" fill="#FF9D1D"/>
<path d="M40.9609 128.757H34.3125V135.143H40.9609V128.757Z" fill="#FF9D1D"/>
<path d="M40.9609 90.419H34.3125V96.8095H40.9609V90.419Z" fill="#FF9D1D"/>
<path d="M40.9609 45.6947H34.3125V52.0805H40.9609V45.6947Z" fill="#FF9D1D"/>
<path d="M40.9609 39.3041H34.3125V45.6947H40.9609V39.3041Z" fill="#FF9D1D"/>
<path d="M34.3125 167.091H27.6689V173.482H34.3125V167.091Z" fill="#FF9D1D"/>
<path d="M34.3125 160.701H27.6689V167.091H34.3125V160.701Z" fill="#FF9D1D"/>
<path d="M34.3125 128.757H27.6689V135.143H34.3125V128.757Z" fill="#FF9D1D"/>
<path d="M34.3125 122.367H27.6689V128.757H34.3125V122.367Z" fill="#FF9D1D"/>
<path d="M34.3125 90.419H27.6689V96.8095H34.3125V90.419Z" fill="#FF9D1D"/>
<path d="M34.3125 52.0805H27.6689V58.471H34.3125V52.0805Z" fill="#FF9D1D"/>
<path d="M34.3125 45.6947H27.6689V52.0805H34.3125V45.6947Z" fill="#FF9D1D"/>
<path d="M27.6689 154.315H21.0205V160.701H27.6689V154.315Z" fill="#FF9D1D"/>
<path d="M27.6689 147.924H21.0205V154.315H27.6689V147.924Z" fill="#FF9D1D"/>
<path d="M27.6689 141.534H21.0205V147.924H27.6689V141.534Z" fill="#FF9D1D"/>
<path d="M27.6689 135.143H21.0205V141.534H27.6689V135.143Z" fill="#FF9D1D"/>
<path d="M27.6689 122.367H21.0205V128.757H27.6689V122.367Z" fill="#FF9D1D"/>
<path d="M27.6689 115.976H21.0205V122.367H27.6689V115.976Z" fill="#FF9D1D"/>
<path d="M27.6689 90.419H21.0205V96.8095H27.6689V90.419Z" fill="#FF9D1D"/>
<path d="M27.6689 58.471H21.0205V64.8615H27.6689V58.471Z" fill="#FF9D1D"/>
<path d="M27.6689 52.0805H21.0205V58.471H27.6689V52.0805Z" fill="#FF9D1D"/>
<path d="M21.0205 128.757H14.3769V135.143H21.0205V128.757Z" fill="#FF9D1D"/>
<path d="M21.0205 122.367H14.3769V128.757H21.0205V122.367Z" fill="#FF9D1D"/>
<path d="M21.0205 115.976H14.3769V122.367H21.0205V115.976Z" fill="#FF9D1D"/>
<path d="M21.0205 109.586H14.3769V115.976H21.0205V109.586Z" fill="#FF9D1D"/>
<path d="M21.0205 103.2H14.3769V109.586H21.0205V103.2Z" fill="#FF9D1D"/>
<path d="M21.0205 96.8095H14.3769V103.2H21.0205V96.8095Z" fill="#FF9D1D"/>
<path d="M21.0205 90.419H14.3769V96.8095H21.0205V90.419Z" fill="#FF9D1D"/>
<path d="M21.0205 84.0284H14.3769V90.419H21.0205V84.0284Z" fill="#FF9D1D"/>
<path d="M21.0205 77.6426H14.3769V84.0284H21.0205V77.6426Z" fill="#FF9D1D"/>
<path d="M21.0205 71.2521H14.3769V77.6426H21.0205V71.2521Z" fill="#FF9D1D"/>
<path d="M21.0205 64.8615H14.3769V71.2521H21.0205V64.8615Z" fill="#FF9D1D"/>
<path d="M14.3769 71.2521H7.72857V77.6426H14.3769V71.2521Z" fill="#FF9D1D"/>
</svg>
