<svg width="699" height="200" viewBox="0 0 699 200" fill="none" xmlns="http://www.w3.org/2000/svg">
<path d="M540.818 39.8191L541.181 31.4723C541.185 31.3537 541.096 31.2516 540.978 31.244L485.214 27.711C485.096 27.7035 484.994 27.7921 484.984 27.9107L480.528 79.5425C480.518 79.6551 480.424 79.7422 480.31 79.7422L468.304 79.7017C468.177 79.7017 468.077 79.5906 468.087 79.4629L473.069 24.5369C473.081 24.4093 472.98 24.2982 472.852 24.2982L430.926 24.1735C430.806 24.1735 430.711 24.0774 430.709 23.9573L430.602 15.5565C430.6 15.4228 430.479 15.3222 430.348 15.3433L408.855 18.9649C408.75 18.9829 408.649 18.9213 408.613 18.8207L402.971 2.47098C402.935 2.36588 402.826 2.30582 402.719 2.32984L377.995 7.79076C377.901 7.81178 377.831 7.89286 377.825 7.99046L377.062 19.564C377.054 19.6766 376.963 19.7652 376.851 19.7682L372.93 19.8943C372.824 19.8973 372.732 19.8252 372.711 19.7216L368.602 0.175202C368.581 0.0731002 368.489 -0.000472887 368.385 0.00253009L346.789 0.394419C346.688 0.395921 346.601 0.467992 346.58 0.567091L341.836 23.1375C341.811 23.2546 341.697 23.3312 341.579 23.3072L315.632 17.9739C315.522 17.9514 315.413 18.0174 315.38 18.1255L312.487 27.9092C312.46 28.0023 312.373 28.0669 312.276 28.0654L308.128 28.0279C308.003 28.0279 307.904 27.9197 307.913 27.7936L308.101 25.0114C308.11 24.8717 307.989 24.7591 307.852 24.7801L245.061 34.5098C244.955 34.5263 244.878 34.6179 244.878 34.726V42.6629C244.878 42.7725 244.797 42.8641 244.69 42.8791L207.189 48.0968C207.182 48.0968 207.173 48.0983 207.165 48.0983L201.379 48.2514C201.249 48.2544 201.146 48.1448 201.156 48.0142L203.479 20.0069C203.489 19.8883 203.402 19.7847 203.286 19.7712L131.52 11.9514C131.38 11.9364 131.262 12.058 131.281 12.1991L134.234 33.8702C134.254 34.0173 134.125 34.1419 133.979 34.1149L94.402 26.651C94.2646 26.6255 94.1391 26.7351 94.1451 26.8762L94.7859 41.5097C94.7919 41.6374 94.6873 41.7425 94.5604 41.738L0.919505 38.3656C0.78358 38.3611 0.676034 38.4812 0.696946 38.6179L18.5271 155.129C18.548 155.269 18.6944 155.351 18.8244 155.297L57.965 139.074C58.1353 139.003 58.31 139.162 58.2562 139.339L56.4295 145.395C56.3906 145.524 56.4773 145.659 56.6102 145.676L99.4014 151.039C99.506 151.053 99.5866 151.14 99.5911 151.246L99.7868 155.71C99.7898 155.766 99.8137 155.82 99.8525 155.857L115.423 170.947C115.478 171.001 115.559 171.021 115.632 171L132.07 166.377C132.233 166.33 132.384 166.482 132.337 166.645L128.491 180.501C128.455 180.63 128.542 180.761 128.675 180.778L193.997 188.522C194.104 188.536 194.206 188.465 194.233 188.36L202.07 157.962C202.096 157.865 202.185 157.796 202.285 157.799L244.663 158.812C244.781 158.815 244.875 158.913 244.875 159.031V176.115C244.875 176.236 244.97 176.333 245.09 176.335L297.151 176.787C297.284 176.787 297.384 176.907 297.364 177.039L294.37 196.169C294.349 196.306 294.458 196.429 294.595 196.422L368.814 192.711C368.92 192.705 369.006 192.624 369.018 192.519L371.829 169.126C371.843 169.015 371.938 168.931 372.05 168.934L407.26 169.68C407.381 169.683 407.476 169.785 407.472 169.907L406.982 183.567C406.977 183.689 407.073 183.791 407.194 183.794L471.173 185.189C471.299 185.192 471.396 185.3 471.385 185.426L470.148 199.765C470.137 199.902 470.253 200.016 470.389 200.001L557.94 190.414C558.054 190.402 558.157 190.48 558.177 190.593L559.275 196.684C559.296 196.797 559.399 196.875 559.513 196.863L614.236 190.791C614.369 190.776 614.482 190.884 614.476 191.018L614.385 193.31C614.381 193.428 614.469 193.528 614.585 193.537L686.013 199.216C686.133 199.225 686.237 199.136 686.248 199.016L698.438 54.2814C698.448 54.1613 698.36 54.0562 698.241 54.0457L541.011 40.0488C540.894 40.0383 540.807 39.9377 540.812 39.8221L540.818 39.8191ZM538.825 85.6446C538.837 85.3848 539.211 85.3593 539.257 85.6145C539.281 85.7482 539.179 85.8728 539.043 85.8728C538.919 85.8728 538.821 85.7692 538.827 85.6446H538.825Z" fill="#F94646"/>
<path d="M15.014 51.1944L125.548 55.1733C126.769 55.2169 127.647 56.3655 127.377 57.5622L109.191 138.083C108.97 139.063 108.044 139.716 107.052 139.592L74.5882 135.523C73.3903 135.372 72.6151 134.174 72.9661 133.012L87.9284 83.4269C88.2988 82.1986 87.4131 80.9509 86.1389 80.9029L59.2391 79.8894C57.8231 79.8353 56.8253 81.2737 57.366 82.592L71.8533 117.883C72.2641 118.883 71.7906 120.027 70.7958 120.439L30.5961 137.102C29.4295 137.586 28.1211 136.844 27.9299 135.59L15.014 51.1944Z" fill="#FAFAFA"/>
<path d="M107.299 140.356C107.187 140.356 107.073 140.348 106.959 140.335L74.4956 136.266C73.7055 136.167 73.0034 135.725 72.5703 135.054C72.1371 134.383 72.0206 133.559 72.2521 132.793L87.2144 83.2076C87.3234 82.8473 87.2607 82.4644 87.0426 82.1566C86.8246 81.8503 86.4855 81.6656 86.1106 81.6521L59.2107 80.6386C58.7955 80.6236 58.4191 80.8113 58.1816 81.1551C57.9441 81.4989 57.8978 81.9179 58.0576 82.3053L72.5449 117.596C72.8197 118.264 72.8182 119.002 72.5419 119.668C72.2656 120.337 71.7473 120.856 71.0811 121.132L30.8814 137.796C30.1122 138.114 29.2563 138.062 28.5318 137.652C27.8074 137.24 27.319 136.532 27.1935 135.704L14.2746 51.3085C14.2402 51.0877 14.3074 50.8625 14.4553 50.6959C14.6032 50.5292 14.8198 50.4361 15.0393 50.4451L125.574 54.4241C126.379 54.4526 127.121 54.837 127.613 55.4781C128.104 56.1192 128.283 56.9391 128.104 57.7288L109.918 138.249C109.636 139.5 108.541 140.357 107.299 140.357V140.356ZM59.1629 79.1356C59.1973 79.1356 59.2316 79.1356 59.266 79.1371L86.1658 80.1506C87.0068 80.1821 87.7701 80.595 88.2585 81.2842C88.7469 81.9734 88.8873 82.8323 88.6424 83.6416L73.6801 133.227C73.577 133.568 73.6293 133.936 73.822 134.234C74.0147 134.533 74.3283 134.73 74.6794 134.775L107.143 138.844C107.759 138.92 108.325 138.521 108.462 137.914L126.648 57.394C126.727 57.0427 126.648 56.6763 126.428 56.391C126.21 56.1057 125.879 55.9346 125.52 55.921L15.8878 51.9751L28.6663 135.473C28.723 135.841 28.9396 136.158 29.2623 136.341C29.5849 136.524 29.9673 136.548 30.3093 136.405L70.509 119.742C70.8047 119.619 71.0363 119.388 71.1587 119.09C71.2812 118.793 71.2827 118.464 71.1587 118.167L56.6714 82.8758C56.3204 82.02 56.425 81.0545 56.9508 80.2948C57.4571 79.5635 58.2772 79.1341 59.1584 79.1341L59.1629 79.1356Z" fill="#F94646"/>
<path d="M109.46 42.0172L146.061 48.9211C147.367 49.1673 148.529 48.0547 148.35 46.7319L145.845 28.3417C145.673 27.0804 146.724 25.9933 147.984 26.13L188.413 30.5353C189.463 30.6495 190.231 31.5849 190.143 32.6434L186.395 77.8353C186.3 78.9809 185.248 79.7978 184.122 79.6011L141.919 72.2333C140.748 72.0291 139.671 72.9164 139.64 74.1116L139.459 81.2122C139.432 82.2617 140.233 83.1446 141.275 83.2152L176.183 85.5725C177.236 85.6431 178.041 86.5455 177.998 87.6055L177.196 107.32C177.151 108.412 176.226 109.256 175.142 109.194L139.916 107.213C138.86 107.153 137.951 107.952 137.867 109.012L137.198 117.44C137.101 118.667 138.14 119.679 139.356 119.541L198.322 112.852C199.679 112.697 200.768 113.958 200.426 115.287L185.439 173.414C185.196 174.362 184.294 174.982 183.327 174.866L146.329 170.479C145.143 170.338 144.36 169.166 144.681 168.009L149.159 151.878C149.567 150.41 148.221 149.057 146.76 149.468L120.044 156.982C119.379 157.17 118.666 156.988 118.168 156.506L112.376 150.892C112.017 150.544 111.803 150.071 111.783 149.569L107.16 44.0307C107.104 42.771 108.231 41.789 109.463 42.0218L109.46 42.0172Z" fill="#FAFAFA"/>
<path d="M183.551 175.626C183.448 175.626 183.344 175.62 183.238 175.608L146.239 171.221C145.456 171.127 144.756 170.697 144.317 170.039C143.877 169.381 143.748 168.566 143.96 167.803L148.438 151.673C148.556 151.248 148.441 150.808 148.13 150.495C147.819 150.183 147.382 150.068 146.959 150.188L120.243 157.701C119.327 157.958 118.332 157.707 117.647 157.043L111.854 151.429C111.355 150.946 111.064 150.296 111.033 149.599L106.41 44.0608C106.374 43.2305 106.712 42.4407 107.336 41.8971C107.96 41.3521 108.785 41.1284 109.597 41.2815L146.199 48.1854C146.583 48.2574 146.965 48.1448 147.247 47.8731C147.53 47.6028 147.661 47.2244 147.609 46.8355L145.104 28.4453C144.99 27.6134 145.259 26.7921 145.842 26.19C146.424 25.5879 147.234 25.2951 148.063 25.3852L188.492 29.7906C189.958 29.9498 191.009 31.232 190.887 32.708L187.139 77.8999C187.076 78.6551 186.699 79.3548 186.101 79.8173C185.504 80.2812 184.736 80.4719 183.993 80.3428L141.791 72.975C141.447 72.9149 141.095 73.008 140.824 73.2302C140.554 73.4525 140.394 73.7813 140.385 74.1326L140.204 81.2332C140.188 81.8818 140.679 82.4239 141.323 82.4674L176.231 84.8248C177.699 84.9239 178.801 86.1596 178.742 87.637L177.94 107.352C177.91 108.081 177.598 108.754 177.058 109.247C176.521 109.737 175.824 109.985 175.097 109.945L139.871 107.964C139.214 107.928 138.66 108.415 138.608 109.072L137.939 117.5C137.91 117.861 138.042 118.212 138.3 118.463C138.558 118.713 138.912 118.835 139.269 118.794L198.236 112.105C199.117 112.005 199.991 112.347 200.572 113.021C201.153 113.695 201.368 114.613 201.146 115.475L186.159 173.602C185.85 174.803 184.76 175.63 183.55 175.63L183.551 175.626ZM147.295 148.638C147.996 148.638 148.669 148.914 149.185 149.434C149.882 150.135 150.141 151.123 149.875 152.077L145.397 168.207C145.302 168.546 145.361 168.91 145.556 169.203C145.752 169.495 146.064 169.688 146.412 169.728L183.411 174.115C184.004 174.184 184.564 173.8 184.713 173.221L199.7 115.093C199.8 114.703 199.707 114.305 199.444 114C199.181 113.695 198.802 113.547 198.403 113.592L139.437 120.281C138.635 120.371 137.841 120.101 137.262 119.536C136.682 118.972 136.385 118.185 136.449 117.376L137.119 108.948C137.235 107.47 138.479 106.377 139.954 106.46L175.179 108.44C175.502 108.458 175.813 108.349 176.053 108.129C176.294 107.91 176.432 107.611 176.446 107.286L177.248 87.571C177.275 86.9133 176.783 86.3623 176.129 86.3187L141.222 83.9614C139.776 83.8638 138.672 82.6461 138.709 81.1896L138.89 74.0891C138.909 73.3023 139.269 72.5636 139.876 72.0651C140.482 71.5651 141.272 71.3564 142.045 71.4915L184.247 78.8593C184.583 78.9179 184.917 78.8353 185.187 78.6251C185.457 78.4149 185.62 78.1116 185.648 77.7708L189.396 32.5789C189.451 31.9212 188.982 31.3507 188.33 31.2801L147.9 26.8747C147.53 26.8342 147.17 26.9648 146.91 27.2336C146.65 27.5008 146.53 27.8672 146.581 28.2381L149.086 46.6283C149.205 47.5007 148.91 48.349 148.275 48.9571C147.64 49.5637 146.783 49.819 145.921 49.6568L109.319 42.753C108.958 42.6854 108.591 42.7845 108.311 43.0278C108.033 43.271 107.883 43.6223 107.899 43.9917L112.522 149.53C112.535 149.841 112.665 150.129 112.888 150.345L118.68 155.959C118.985 156.255 119.429 156.368 119.837 156.252L146.553 148.739C146.799 148.67 147.047 148.635 147.292 148.635L147.295 148.638Z" fill="#F94646"/>
<path d="M169.375 144.698L274.595 147.215C275.929 147.246 276.899 145.95 276.498 144.67L248.817 56.379C248.531 55.4691 247.634 54.8985 246.693 55.0292L223.109 58.3114C221.978 58.4691 221.224 59.5667 221.478 60.6868L229.526 96.0709C229.812 97.3337 228.822 98.5244 227.535 98.4613L209.991 97.6144C208.807 97.5574 207.948 96.4568 208.173 95.2871L214.487 62.6027C214.725 61.3745 213.77 60.2408 212.524 60.2739L194.473 60.7499C193.622 60.7724 192.884 61.3489 192.651 62.1718L169.373 144.698H169.375Z" fill="#FAFAFA"/>
<path d="M274.644 147.965C274.622 147.965 274.599 147.965 274.577 147.965L169.357 145.449C169.125 145.443 168.91 145.33 168.773 145.144C168.635 144.958 168.592 144.718 168.655 144.494L191.932 61.9676C192.255 60.8219 193.269 60.0306 194.454 59.9991L212.505 59.5231C213.327 59.5006 214.1 59.8505 214.632 60.4796C215.162 61.1087 215.377 61.936 215.221 62.7453L208.907 95.4298C208.841 95.7736 208.926 96.1295 209.141 96.4043C209.356 96.679 209.679 96.8472 210.027 96.8637L227.57 97.7105C227.95 97.7286 228.305 97.5724 228.547 97.2796C228.791 96.9883 228.882 96.6069 228.797 96.2361L220.749 60.852C220.581 60.1132 220.729 59.3339 221.158 58.7108C221.585 58.0877 222.259 57.6703 223.006 57.5667L246.59 54.2844C247.896 54.1027 249.132 54.888 249.528 56.1523L277.209 144.443C277.473 145.287 277.322 146.177 276.793 146.884C276.278 147.574 275.497 147.965 274.644 147.965ZM170.356 143.97L274.613 146.462C275.007 146.471 275.365 146.296 275.6 145.982C275.836 145.667 275.903 145.27 275.785 144.895L248.104 56.6042C247.928 56.0412 247.375 55.6913 246.796 55.7724L223.212 59.0547C222.874 59.1012 222.583 59.2829 222.389 59.5637C222.196 59.846 222.13 60.1838 222.207 60.5171L230.255 95.9013C230.444 96.7346 230.24 97.5874 229.694 98.2436C229.149 98.8997 228.35 99.2511 227.5 99.2105L209.957 98.3637C209.176 98.3262 208.45 97.9493 207.967 97.3307C207.485 96.7121 207.292 95.9148 207.441 95.143L213.755 62.4585C213.825 62.0982 213.73 61.7303 213.492 61.4495C213.256 61.1688 212.91 61.0126 212.545 61.0231L194.494 61.4991C193.967 61.5126 193.516 61.8655 193.371 62.376L170.356 143.97Z" fill="#F94646"/>
<path d="M257.126 45.0968L292.458 39.6224C293.69 39.4317 294.782 40.4392 294.697 41.6899L292.517 73.8549C292.362 76.1371 295.562 76.7873 296.301 74.6236L307.559 41.6719C307.831 40.8761 308.579 40.3431 309.417 40.3506L342.096 40.6419C343.442 40.6539 344.371 42.0037 343.906 43.274L330.329 80.4299C329.849 81.7407 330.853 83.1206 332.241 83.059L367.744 81.505C368.945 81.4524 369.906 82.4959 369.762 83.6941L358.276 179.285C358.162 180.231 357.387 180.958 356.44 181.004L311.166 183.267C309.932 183.329 308.954 182.235 309.147 181.009L317.931 124.906C318.119 123.7 317.175 122.616 315.962 122.644L295.839 123.125C294.67 123.153 293.79 124.203 293.96 125.365L299.35 162.234C299.523 163.422 298.601 164.486 297.406 164.476L259.057 164.143C257.989 164.133 257.127 163.26 257.127 162.186V45.0968H257.126Z" fill="#FAFAFA"/>
<path d="M311.068 184.021C310.304 184.021 309.58 183.698 309.066 183.123C308.521 182.513 308.282 181.701 308.409 180.892L317.193 124.788C317.248 124.434 317.145 124.077 316.911 123.806C316.676 123.536 316.336 123.388 315.98 123.395L295.857 123.876C295.509 123.885 295.193 124.036 294.969 124.303C294.745 124.571 294.647 124.91 294.698 125.257L300.087 162.126C300.202 162.91 299.971 163.701 299.453 164.299C298.934 164.896 298.186 165.233 297.399 165.228L259.05 164.895C257.577 164.883 256.379 163.668 256.379 162.188V45.0968C256.379 44.7259 256.648 44.4106 257.012 44.3551L292.344 38.8806C293.157 38.7545 293.971 39.0038 294.577 39.5623C295.184 40.1224 295.499 40.9152 295.442 41.741L293.263 73.9059C293.211 74.6852 293.747 75.0741 294.222 75.1702C294.698 75.2663 295.342 75.1176 295.594 74.3804L306.852 41.4287C307.229 40.3251 308.256 39.5923 309.424 39.5998L342.103 39.8911C342.979 39.8987 343.797 40.3356 344.295 41.0593C344.792 41.783 344.909 42.7079 344.607 43.5323L331.029 80.6881C330.889 81.074 330.946 81.4839 331.186 81.8158C331.427 82.1476 331.798 82.3278 332.208 82.3098L367.711 80.7557C368.501 80.7212 369.266 81.0365 369.805 81.6206C370.345 82.2047 370.599 82.9944 370.503 83.7857L359.016 179.377C358.858 180.69 357.79 181.69 356.476 181.757L311.202 184.019C311.157 184.022 311.111 184.022 311.066 184.022L311.068 184.021ZM316.007 121.894C316.784 121.894 317.519 122.228 318.033 122.817C318.56 123.422 318.791 124.227 318.667 125.021L309.883 181.124C309.826 181.485 309.934 181.847 310.176 182.118C310.418 182.39 310.766 182.534 311.127 182.516L356.401 180.253C356.987 180.225 357.463 179.779 357.533 179.193L369.02 83.6025C369.062 83.2497 368.948 82.8983 368.709 82.6386C368.469 82.3788 368.131 82.2377 367.777 82.2527L332.273 83.8067C331.37 83.8458 330.514 83.4329 329.982 82.6986C329.449 81.9659 329.317 81.02 329.628 80.1671L343.206 43.0112C343.342 42.6374 343.291 42.2365 343.067 41.9091C342.841 41.5818 342.486 41.3926 342.09 41.3896L309.411 41.0983C308.897 41.0968 308.434 41.4212 308.265 41.9121L297.007 74.8639C296.556 76.1852 295.288 76.9149 293.926 76.6386C292.564 76.3624 291.678 75.1942 291.772 73.8008L293.951 41.6359C293.977 41.268 293.836 40.9152 293.566 40.6659C293.296 40.4167 292.934 40.3055 292.571 40.3626L257.873 45.7394V162.186C257.873 162.845 258.406 163.386 259.062 163.392L297.411 163.725C297.765 163.725 298.095 163.578 298.326 163.311C298.556 163.045 298.659 162.692 298.609 162.342L293.219 125.473C293.107 124.706 293.329 123.927 293.826 123.333C294.323 122.74 295.051 122.391 295.822 122.373L315.944 121.892C315.965 121.892 315.988 121.892 316.009 121.892L316.007 121.894Z" fill="#F94646"/>
<path d="M425.054 57.9886L341.935 58.5322C340.906 58.5382 340.059 59.3505 340.003 60.3835L334.949 153.814C334.889 154.919 335.751 155.853 336.852 155.877L429.622 157.842C430.764 157.866 431.681 156.901 431.605 155.754L425.055 57.9901L425.054 57.9886ZM374.425 118.002L376.23 78.029C376.257 77.4359 376.549 76.8879 377.026 76.5365L379.386 74.8038C380.656 73.8714 382.445 74.7603 382.481 76.3398L383.365 116.008C383.389 117.107 382.509 118.009 381.416 118.009L374.424 118.002H374.425Z" fill="#FAFAFA"/>
<path d="M429.662 158.592C429.643 158.592 429.625 158.592 429.605 158.592L336.835 156.626C336.099 156.611 335.418 156.303 334.917 155.76C334.417 155.216 334.163 154.51 334.203 153.772L339.258 60.3414C339.336 58.915 340.508 57.7904 341.93 57.7814L425.049 57.2394C425.049 57.2394 425.052 57.2394 425.054 57.2394C425.447 57.2394 425.772 57.5457 425.799 57.9391L432.349 155.703C432.4 156.458 432.13 157.207 431.61 157.755C431.102 158.29 430.395 158.593 429.66 158.593L429.662 158.592ZM424.356 58.7439L341.939 59.2814C341.306 59.2859 340.783 59.7859 340.749 60.4225L335.694 153.853C335.676 154.182 335.79 154.497 336.012 154.739C336.235 154.98 336.539 155.117 336.867 155.125L429.637 157.09C429.973 157.098 430.294 156.965 430.53 156.718C430.766 156.47 430.882 156.146 430.86 155.803L424.356 58.7454V58.7439ZM381.42 118.761H381.417L374.425 118.754C374.222 118.754 374.027 118.67 373.886 118.521C373.746 118.373 373.671 118.173 373.68 117.969L375.484 77.996C375.522 77.1717 375.924 76.4194 376.587 75.9314L378.947 74.1987C379.759 73.6026 380.826 73.5095 381.728 73.9585C382.63 74.4074 383.205 75.3143 383.228 76.3248L384.112 115.993C384.128 116.728 383.855 117.422 383.344 117.948C382.833 118.472 382.149 118.761 381.42 118.761ZM375.207 117.252L381.417 117.26C381.743 117.26 382.048 117.131 382.275 116.898C382.503 116.664 382.624 116.355 382.617 116.027L381.733 76.3593C381.722 75.9014 381.473 75.508 381.065 75.3053C380.657 75.1026 380.194 75.1431 379.827 75.4119L377.467 77.1446C377.171 77.3608 376.992 77.6972 376.975 78.0635L375.207 117.252Z" fill="#F94646"/>
<path d="M424.51 36.4677L419.736 169.769C419.698 170.86 420.553 171.772 421.639 171.796L497.874 173.458C499.054 173.483 499.986 172.455 499.85 171.276L490.936 93.8172C490.823 92.8322 489.995 92.089 489.009 92.0845L459.997 91.9869C458.873 91.9824 457.979 92.9358 458.048 94.0634L460.186 129.122C460.259 130.332 459.231 131.318 458.032 131.186L453.068 130.641C452.012 130.526 451.244 129.581 451.341 128.518L459.487 38.699C459.59 37.5548 458.696 36.5683 457.554 36.5638L424.512 36.4647L424.51 36.4677Z" fill="#FAFAFA"/>
<path d="M497.916 174.208C497.897 174.208 497.877 174.208 497.858 174.208L421.623 172.546C420.897 172.53 420.222 172.23 419.723 171.698C419.224 171.166 418.964 170.471 418.99 169.742L423.763 36.4407C423.778 36.0368 424.108 35.717 424.51 35.717H424.513L457.555 35.8161C458.308 35.8176 459.032 36.1404 459.539 36.7005C460.047 37.2605 460.298 38.0143 460.229 38.7695L452.084 128.589C452.024 129.239 452.502 129.826 453.149 129.898L458.112 130.443C458.465 130.482 458.814 130.363 459.071 130.117C459.328 129.871 459.463 129.526 459.44 129.17L457.303 94.1115C457.258 93.3667 457.524 92.6295 458.032 92.0875C458.538 91.5469 459.252 91.2376 459.991 91.2376C459.994 91.2376 459.997 91.2376 460 91.2376L489.012 91.3352C490.376 91.3397 491.522 92.3697 491.678 93.7316L500.593 171.19C500.682 171.968 500.433 172.746 499.909 173.324C499.398 173.889 498.675 174.208 497.918 174.208H497.916ZM425.23 37.22L420.482 169.794C420.47 170.12 420.586 170.429 420.809 170.665C421.031 170.902 421.332 171.036 421.656 171.043L497.891 172.705C498.245 172.713 498.567 172.573 498.803 172.312C499.041 172.051 499.148 171.713 499.108 171.362L490.194 93.9028C490.124 93.2962 489.613 92.8367 489.006 92.8352L459.994 92.7376H459.99C459.657 92.7376 459.346 92.8712 459.118 93.116C458.888 93.3607 458.772 93.682 458.792 94.0184L460.929 129.077C460.979 129.875 460.675 130.65 460.1 131.201C459.524 131.754 458.74 132.02 457.949 131.934L452.986 131.389C451.536 131.23 450.463 129.912 450.596 128.452L458.741 38.6329C458.773 38.292 458.663 37.9647 458.433 37.711C458.203 37.4572 457.89 37.3176 457.549 37.3161L425.229 37.22H425.23Z" fill="#F94646"/>
<path d="M483.62 186.169L586.009 174.956C587.188 174.827 587.98 173.678 587.684 172.524L569.081 99.655C568.86 98.7901 568.085 98.185 567.196 98.185H536.137C534.984 98.185 534.084 99.1865 534.199 100.34L538.162 139.697C538.268 140.748 537.524 141.694 536.483 141.833L526.353 143.192C525.152 143.353 524.097 142.384 524.151 141.167L528.347 44.7034C528.393 43.6389 527.584 42.732 526.525 42.6644L498.07 40.8626C497.015 40.795 496.1 41.5878 496.009 42.6464L483.623 186.169H483.62Z" fill="#FAFAFA"/>
<path d="M483.62 186.92C483.426 186.92 483.238 186.844 483.097 186.705C482.937 186.548 482.857 186.327 482.876 186.103L495.262 42.5803C495.387 41.1284 496.664 40.0203 498.115 40.1119L526.57 41.9137C528.023 42.0052 529.155 43.271 529.091 44.7349L524.895 141.198C524.88 141.556 525.022 141.899 525.284 142.141C525.546 142.383 525.899 142.494 526.251 142.447L536.382 141.089C537.028 141.002 537.482 140.423 537.417 139.772L533.454 100.415C533.378 99.655 533.626 98.8937 534.135 98.3262C534.644 97.7586 535.373 97.4343 536.134 97.4343H567.193C568.424 97.4343 569.497 98.2706 569.803 99.4688L588.405 172.338C588.599 173.099 588.456 173.907 588.011 174.552C587.566 175.198 586.865 175.617 586.089 175.702L483.699 186.916C483.672 186.919 483.645 186.92 483.619 186.92H483.62ZM497.943 41.6088C497.322 41.6088 496.805 42.0788 496.751 42.7109L484.443 185.324L585.929 174.21C586.275 174.172 586.587 173.985 586.785 173.698C586.983 173.41 587.048 173.051 586.961 172.712L568.359 99.8427C568.223 99.3096 567.745 98.9358 567.196 98.9358H536.137C535.793 98.9358 535.476 99.0784 535.246 99.3337C535.016 99.5904 534.909 99.9207 534.943 100.265L538.906 139.622C539.054 141.086 538.032 142.383 536.582 142.578L526.452 143.937C525.66 144.044 524.867 143.793 524.277 143.251C523.687 142.709 523.369 141.937 523.404 141.135L527.6 44.6719C527.629 44.0202 527.125 43.4572 526.477 43.4151L498.022 41.6134C497.995 41.6119 497.97 41.6103 497.943 41.6103V41.6088Z" fill="#F94646"/>
<path d="M545.793 52.8325L683.295 65.0726C684.363 65.1672 685.153 66.1132 685.063 67.1867L675.22 184.052C675.13 185.124 674.194 185.923 673.127 185.838L628.956 182.326C627.913 182.243 627.123 181.347 627.164 180.297L630.248 102.437C630.29 101.398 629.515 100.508 628.485 100.412L609.882 98.6565C608.678 98.5424 607.663 99.5484 607.759 100.759L613.726 176.552C613.81 177.606 613.045 178.536 612 178.651L571.137 183.186C570.12 183.299 569.19 182.602 569.008 181.59L545.796 52.831L545.793 52.8325Z" fill="#FAFAFA"/>
<path d="M673.281 186.596C673.211 186.596 673.139 186.593 673.068 186.587L628.896 183.075C627.449 182.959 626.36 181.726 626.417 180.269L629.501 102.409C629.526 101.768 629.049 101.22 628.414 101.159L609.81 99.4042C609.457 99.3712 609.108 99.4958 608.855 99.7466C608.603 99.9973 608.473 100.346 608.501 100.702L614.469 176.495C614.584 177.962 613.535 179.239 612.079 179.401L571.216 183.935C569.815 184.091 568.521 183.12 568.27 181.726L545.058 52.9676C545.017 52.7379 545.085 52.5007 545.242 52.328C545.399 52.1553 545.628 52.0652 545.859 52.0863L683.361 64.3264C684.835 64.457 685.931 65.7693 685.807 67.2513L675.964 184.117C675.846 185.524 674.663 186.596 673.281 186.596ZM609.696 97.8967C609.78 97.8967 609.865 97.9012 609.95 97.9087L628.554 99.664C629.979 99.7991 631.05 101.03 630.993 102.467L627.909 180.327C627.884 180.977 628.369 181.527 629.013 181.578L673.184 185.09C673.838 185.142 674.419 184.648 674.475 183.989L684.318 67.1237C684.373 66.463 683.885 65.8789 683.228 65.8204L546.701 53.6673L569.739 181.458C569.851 182.079 570.429 182.51 571.052 182.441L611.914 177.907C612.563 177.835 613.03 177.266 612.979 176.612L607.012 100.819C606.949 100.02 607.239 99.2391 607.807 98.676C608.315 98.173 608.991 97.8967 609.696 97.8967Z" fill="#F94646"/>
<path d="M356.585 12.5295L357.066 12.5205C357.999 12.5039 358.812 13.1541 359.006 14.073L363.045 33.2816C363.235 34.1825 364.022 34.8281 364.937 34.8341L386.657 34.9662C387.858 34.9738 388.766 36.0623 388.565 37.2515L388.439 37.9948C388.335 38.6134 387.942 39.1434 387.382 39.4212L372.694 46.7109C371.888 47.1103 371.459 48.0127 371.656 48.8956L373.481 57.0607C373.946 59.1372 371.244 60.361 370.004 58.6357L367.399 55.0126C366.563 53.8505 364.808 53.9556 364.117 55.2123L355.46 70.9495C355.069 71.6612 354.279 72.0561 353.478 71.9389C352.425 71.7858 351.688 70.8113 351.826 69.7498L353.836 54.1673C353.953 53.2589 353.429 52.391 352.573 52.0772L323.21 41.31C322.243 40.9557 321.718 39.9062 322.01 38.9137L323.47 33.9768C323.758 33.0038 324.736 32.4137 325.725 32.6164L349.363 37.4752C350.411 37.6915 351.436 37.0158 351.657 35.9632L356.582 12.534L356.585 12.5295Z" fill="#FAFAFA"/>
<path d="M353.753 72.7047C353.627 72.7047 353.5 72.6957 353.372 72.6777C351.923 72.4675 350.898 71.1086 351.087 69.6492L353.097 54.0667C353.17 53.5037 352.849 52.9736 352.319 52.7784L322.956 42.0112C321.621 41.5218 320.892 40.0653 321.296 38.6959L322.756 33.759C323.156 32.4032 324.499 31.5939 325.878 31.8777L349.515 36.7365C350.16 36.8686 350.794 36.4512 350.93 35.8041L355.854 12.3748C355.926 12.0325 356.223 11.7862 356.571 11.7787L357.052 11.7697C358.346 11.7472 359.469 12.6496 359.736 13.9168L363.775 33.1254C363.892 33.6765 364.382 34.0789 364.942 34.0819L386.662 34.214C387.453 34.2185 388.2 34.5714 388.71 35.181C389.219 35.7906 389.434 36.5909 389.301 37.3761L389.176 38.1194C389.031 38.9722 388.484 39.7095 387.713 40.0923L373.026 47.3821C372.527 47.6298 372.264 48.1824 372.386 48.7289L374.212 56.894C374.5 58.1823 373.889 59.4135 372.691 59.9571C371.493 60.5006 370.171 60.1447 369.401 59.0742L366.796 55.4511C366.551 55.1087 366.168 54.9286 365.75 54.9541C365.332 54.9796 364.975 55.2048 364.772 55.5742L356.114 71.3113C355.638 72.1777 354.721 72.7077 353.753 72.7077V72.7047ZM325.334 33.3236C324.812 33.3236 324.344 33.6645 324.188 34.187L322.729 39.1239C322.548 39.7335 322.874 40.3821 323.468 40.6013L352.831 51.3685C354.023 51.8055 354.743 52.9946 354.579 54.2604L352.568 69.8429C352.485 70.493 352.942 71.0981 353.587 71.1912C354.077 71.2618 354.568 71.017 354.809 70.5816L363.466 54.8445C363.914 54.0292 364.736 53.5082 365.66 53.4526C366.588 53.3955 367.463 53.8145 368.006 54.5697L370.611 58.1928C371.033 58.7814 371.644 58.7814 372.076 58.5862C372.508 58.391 372.912 57.93 372.754 57.2213L370.929 49.0562C370.655 47.8325 371.245 46.5893 372.364 46.0337L387.052 38.744C387.395 38.5728 387.639 38.2455 387.703 37.8656L387.828 37.1224C387.888 36.7725 387.791 36.4167 387.565 36.1449C387.338 35.8731 387.007 35.7155 386.653 35.714L364.933 35.5819C363.675 35.5743 362.574 34.6705 362.315 33.4347L358.276 14.2262C358.165 13.6991 357.718 13.3132 357.193 13.2727L352.392 36.1119C352.087 37.5638 350.662 38.5023 349.216 38.205L325.579 33.3461C325.497 33.3296 325.414 33.3206 325.334 33.3206V33.3236Z" fill="#F94646"/>
<path d="M394.904 16.6631L390.877 17.552C390.031 17.7381 389.41 18.4649 389.352 19.3342L388.651 29.9408C388.586 30.9453 387.772 31.735 386.771 31.7666L378.143 32.0443C377.208 32.0744 376.427 32.7681 376.282 33.6975L375.622 37.9407C375.531 38.5278 375.71 39.1254 376.109 39.5653L381.963 45.9932C382.366 46.4361 382.545 47.0427 382.447 47.6358L381.105 55.7454C380.917 56.885 381.746 57.9391 382.892 58.0186L387.447 58.3324C388.427 58.4 389.304 57.7228 389.492 56.7529L389.798 55.1643C390.097 53.6208 391.993 53.0427 393.094 54.1613L405.685 66.945C406.175 67.442 406.891 67.6387 407.564 67.46L414.198 65.7048C415.299 65.4135 415.917 64.2393 415.538 63.1597L410.108 47.7274C409.783 46.8025 410.189 45.78 411.057 45.3325L417.606 41.9647C418.265 41.6254 418.676 40.9407 418.667 40.1974L418.564 32.0999C418.549 30.9002 417.472 29.9963 416.295 30.1945L402.115 32.5834C401.179 32.741 400.266 32.196 399.954 31.2951L394.904 16.6616V16.6631Z" fill="#FAFAFA"/>
<path d="M407.073 68.2753C406.362 68.2753 405.667 67.993 405.155 67.4735L392.563 54.6898C392.245 54.367 391.796 54.2529 391.362 54.3835C390.929 54.5157 390.618 54.861 390.532 55.3084L390.224 56.897C389.966 58.2364 388.748 59.1748 387.395 59.0817L382.839 58.7679C382.084 58.7153 381.38 58.343 380.911 57.7454C380.441 57.1478 380.243 56.3745 380.367 55.6223L381.709 47.5127C381.77 47.1448 381.661 46.7755 381.41 46.5007L375.556 40.0728C375 39.4617 374.754 38.6434 374.882 37.8266L375.543 33.5834C375.743 32.2996 376.826 31.3371 378.118 31.2951L386.745 31.0173C387.365 30.9978 387.863 30.5128 387.904 29.8912L388.605 19.2847C388.684 18.0895 389.552 17.076 390.714 16.8192L394.741 15.9303C395.11 15.8493 395.483 16.058 395.607 16.4168L400.658 31.0504C400.85 31.6089 401.41 31.9422 401.99 31.8446L416.17 29.4558C416.946 29.3251 417.738 29.5414 418.341 30.0489C418.945 30.5564 419.297 31.3011 419.308 32.0924L419.411 40.1899C419.424 41.226 418.863 42.1629 417.944 42.6359L411.394 46.0037C410.861 46.2785 410.61 46.9121 410.809 47.4797L416.238 62.912C416.489 63.6237 416.431 64.415 416.08 65.0816C415.729 65.7483 415.111 66.2408 414.385 66.433L407.751 68.1882C407.526 68.2483 407.297 68.2768 407.068 68.2768L407.073 68.2753ZM391.713 52.8295C392.421 52.8295 393.11 53.1103 393.625 53.6328L406.217 66.4165C406.517 66.7213 406.962 66.8429 407.375 66.7348L414.008 64.9795C414.337 64.8925 414.604 64.6792 414.764 64.3774C414.922 64.0756 414.948 63.7333 414.834 63.4105L409.405 47.9782C408.957 46.7049 409.521 45.28 410.718 44.6644L417.267 41.2965C417.677 41.0863 417.926 40.6689 417.92 40.2064L417.817 32.1089C417.813 31.7561 417.656 31.4242 417.387 31.199C417.118 30.9738 416.766 30.8762 416.419 30.9347L402.239 33.3236C400.94 33.5428 399.682 32.7936 399.249 31.5413L394.417 17.5384L391.038 18.2847C390.52 18.3988 390.133 18.8507 390.099 19.3823L389.398 29.9888C389.306 31.3852 388.188 32.4708 386.796 32.5158L378.169 32.7936C377.594 32.8116 377.111 33.241 377.021 33.8131L376.361 38.0563C376.304 38.4212 376.414 38.786 376.661 39.0578L382.515 45.4857C383.078 46.1043 383.322 46.9316 383.186 47.7574L381.845 55.867C381.788 56.2063 381.874 56.5427 382.087 56.8129C382.299 57.0832 382.605 57.2454 382.945 57.2679L387.501 57.5817C388.105 57.6237 388.645 57.2048 388.762 56.6087L389.07 55.0202C389.261 54.0322 389.975 53.2379 390.932 52.9451C391.191 52.867 391.455 52.828 391.716 52.828L391.713 52.8295Z" fill="#F94646"/>
<path d="M360.851 156.776L338.39 160.389L339.4 155.929L360.851 156.776Z" fill="#F94646"/>
<path d="M177.084 144.92L175.757 151.186L199.523 145.419L177.084 144.92Z" fill="#F94646"/>
<path d="M101.451 54.3055L109.324 93.5169L107.47 51.1944L101.451 54.3055Z" fill="#F94646"/>
<path d="M327.068 42.7199L340.849 51.6358L342.094 48.2304L327.068 42.7199Z" fill="#F94646"/>
<path d="M366.416 58.3715L359.282 64.0006L363.344 56.6177L366.416 58.3715Z" fill="#F94646"/>
<path d="M404 65.7964L400.773 67.0951C400.198 67.3264 399.548 67.0111 399.37 66.415L396.864 57.9901L404 65.7979V65.7964Z" fill="#F94646"/>
<path d="M414.77 158.159L422.37 96.2181L420.073 160.389L414.77 158.159Z" fill="#F94646"/>
<path d="M480.975 174.347L488.119 134.027L484.598 174.82L480.975 174.347Z" fill="#F94646"/>
<path d="M547.486 98.185L559.399 128.303L553.443 95.2601L547.486 98.185Z" fill="#F94646"/>
<path d="M653.127 178.38C663.19 178.38 671.348 174.352 671.348 169.384C671.348 164.416 663.19 160.389 653.127 160.389C643.063 160.389 634.905 164.416 634.905 169.384C634.905 174.352 643.063 178.38 653.127 178.38Z" fill="#F94646"/>
<path d="M653.127 157.841C663.19 157.841 671.348 153.813 671.348 148.845C671.348 143.877 663.19 139.85 653.127 139.85C643.063 139.85 634.905 143.877 634.905 148.845C634.905 153.813 643.063 157.841 653.127 157.841Z" fill="#F94646"/>
<path d="M49.1368 123.084C58.6869 119.894 65.1655 113.486 63.6071 108.772C62.0487 104.057 53.0436 102.821 43.4935 106.011C33.9434 109.201 27.4648 115.608 29.0232 120.323C30.5816 125.037 39.5867 126.274 49.1368 123.084Z" fill="#F94646"/>
<path d="M43.436 101.747C50.5381 99.3749 55.3559 94.6092 54.1968 91.1026C53.0377 87.5959 46.3407 86.6762 39.2386 89.0483C32.1365 91.4205 27.3187 96.1861 28.4778 99.6928C29.6369 103.199 36.3339 104.119 43.436 101.747Z" fill="#F94646"/>
<path d="M38.2631 86.1008C43.6249 84.31 47.2621 80.7122 46.3871 78.0649C45.512 75.4176 40.4561 74.7233 35.0943 76.5142C29.7325 78.305 26.0952 81.9028 26.9703 84.5501C27.8453 87.1974 32.9013 87.8917 38.2631 86.1008Z" fill="#F94646"/>
<path d="M355.935 117.353C363.579 117.353 369.776 111.665 369.776 104.649C369.776 97.6327 363.579 91.9448 355.935 91.9448C348.291 91.9448 342.095 97.6327 342.095 104.649C342.095 111.665 348.291 117.353 355.935 117.353Z" fill="#F94646"/>
<path d="M355.935 137.017C362.193 137.017 367.266 133.116 367.266 128.303C367.266 123.491 362.193 119.59 355.935 119.59C349.677 119.59 344.604 123.491 344.604 128.303C344.604 133.116 349.677 137.017 355.935 137.017Z" fill="#F94646"/>
<path d="M355.935 150.547C359.305 150.547 362.037 148.114 362.037 145.113C362.037 142.112 359.305 139.679 355.935 139.679C352.565 139.679 349.833 142.112 349.833 145.113C349.833 148.114 352.565 150.547 355.935 150.547Z" fill="#F94646"/>
<path d="M253.481 71.2573L257.126 104.649V80.3308L253.481 71.2573Z" fill="#F94646"/>
</svg>
