<svg width="111" height="200" viewBox="0 0 111 200" fill="none" xmlns="http://www.w3.org/2000/svg">
<path d="M102.786 161.078V130.509H82.1409V68.9454H90.5566V38.9221H99.2466V0.341928H60.5722V7.80732H47.4325V0.341928H8.75818V38.9221H19.6796V68.9454H28.0954V130.509H7.45038V161.078H0.342494V199.658H39.0168V191.647H71.2194V199.658H109.894V161.078H102.786Z" fill="#32FE95"/>
<path d="M110.236 200H70.8767V191.989H39.3595V200H0V160.736H7.10765V130.167H27.7529V69.2874H19.3372V39.2642H8.41572V0H47.7752V7.46523H60.2295V0H99.589V39.2642H90.899V69.2874H82.4833V130.167H103.129V160.736H110.236V200ZM71.5618 199.316H109.551V161.42H102.444V130.851H81.7982V68.6035H90.214V38.5802H98.9039V0.683946H60.9146V8.14917H47.0901V0.683946H9.10077V38.5802H20.0223V68.6035H28.438V130.851H7.79269V161.42H0.685047V199.316H38.6744V191.305H71.5618V199.316Z" fill="black"/>
<path d="M33.0446 23.9397C30.6319 26.0461 27.8416 26.6478 22.7891 26.6478V19.0498H23.8448C29.3499 19.0498 32.4415 17.0941 33.0446 12.2797H42.0182V64.9375H33.0446V23.9397Z" fill="black"/>
<path d="M49.6869 57.3395L71.1031 38.1573C74.6472 34.9977 77.0607 31.9888 77.0607 27.4001C77.0607 22.5857 73.5915 19.5013 68.6147 19.5013C62.8084 19.5013 59.038 23.1874 58.7361 29.1301L50.2151 28.4533L49.9888 27.9267C50.7426 18.749 57.9066 11.5273 68.539 11.5273C78.569 11.5273 85.8836 17.5455 85.8836 26.9487C85.8836 33.8694 82.49 38.6087 77.1357 43.2725L61.9033 56.6623H86.788V64.9375H49.6869V57.3395Z" fill="black"/>
<path d="M33.5615 100.156C33.5615 84.2833 42.0068 73.075 55.7315 73.075C69.3806 73.075 77.9015 84.2833 77.9015 100.156C77.9015 116.029 69.3806 127.237 55.7315 127.237C42.0068 127.237 33.5615 116.029 33.5615 100.156ZM68.7774 100.156C68.7774 88.6469 64.3281 81.3495 55.7315 81.3495C47.1349 81.3495 42.6856 88.6469 42.6856 100.156C42.6856 111.666 47.1349 118.963 55.7315 118.963C64.3281 118.963 68.7774 111.666 68.7774 100.156Z" fill="black"/>
<path d="M37.5763 177.727H12.9928V169.452L38.0288 135.375H46.5498V169.452H52.8843V177.727H46.5498V188.033H37.5763V177.727ZM37.5763 169.452V149.141L22.7208 169.452H37.5763Z" fill="black"/>
<path d="M57.8986 172.16L58.2005 171.559L66.7971 170.731C67.4003 175.922 70.8695 180.811 77.5808 180.811C84.4429 180.811 88.5902 176.599 88.5902 169.452C88.5902 162.08 83.8397 158.243 77.7315 158.243C71.9252 158.243 67.9285 160.651 65.6657 162.381L59.2562 159.222L62.6498 135.375H93.7183V143.048H69.5118L67.5509 154.106C70.3412 152.301 74.6399 150.796 79.3148 150.796C90.5511 150.796 97.715 157.792 97.715 169.151C97.715 179.758 90.2491 188.785 77.5808 188.785C66.8727 188.785 58.8793 182.015 57.8986 172.16Z" fill="black"/>
</svg>
