<svg width="529" height="200" viewBox="0 0 529 200" fill="none" xmlns="http://www.w3.org/2000/svg">
<path d="M519.689 103.316V86.1535H475.023V17.4899H446.958V26.068H438.022V68.9848H429.093V77.5691H412.496V68.9848H330.829V77.5691H323.169V68.9848H287.438V8.90554H251.706V0.321191H205.776V26.068H144.513V17.4899H89.6467V26.068H81.9866V17.4899H44.986V43.2373H37.3193V17.4899H0.318998V45.1872H9.25482V79.519H18.1844V96.6883H27.1206V105.273H55.185V96.6883H62.8517V105.273H90.9162V88.104H98.5826V122.435H153.449V96.6883H161.109V131.02H189.18V70.9409H196.84V131.02H232.571V139.604H259.366V148.183H305.303V139.604H312.963V148.183H384.426V165.351H393.361V173.936H430.362V165.351H438.022V173.936H455.888V182.514H464.824V199.684H519.689V148.183H528.619V103.316H519.689ZM259.366 60.3998H250.437V68.9848H241.507V77.5691H233.841V45.1872H251.706V36.6091H259.366V60.3998ZM491.619 137.648H483.959V131.02H491.619V137.648Z" fill="#FF96FF"/>
<path d="M520.008 200.002H464.505V182.833H455.569V174.255H437.703V165.67H430.681V174.255H393.042V165.67H384.107V148.501H312.644V139.923H305.622V148.501H259.047V139.923H232.252V131.339H196.521V71.2596H189.499V131.339H160.79V97.007H153.768V122.754H98.2636V88.4227H91.235V105.591H62.5327V97.007H55.5039V105.591H26.8016V97.007H17.8656V79.8378H8.93597V45.5058H0V17.1711H37.6383V42.9188H44.6671V17.1711H82.3054V25.7493H89.3277V17.1711H144.832V25.7493H205.457V0.00244141H252.025V8.58676H287.757V68.6662H323.487V77.2505H330.51V68.6662H412.815V77.2505H428.774V68.6662H437.703V25.7493H446.639V17.1711H475.342V85.8348H520.008V102.997H528.938V148.501H520.008V200.002ZM465.143 199.365H519.371V147.864H528.3V103.635H519.371V86.4722H474.704V17.8085H447.277V26.3867H438.341V69.3035H429.412V77.8879H412.177V69.3035H331.148V77.8879H322.85V69.3035H287.119V9.22415H251.387V0.639825H206.095V26.3867H144.194V17.8085H89.9656V26.3867H81.6675V17.8085H45.3051V43.5561H37.0004V17.8085H0.637905V44.8685H9.57388V79.2005H18.5035V96.3696H27.4395V104.954H54.866V96.3696H63.1706V104.954H90.5971V87.7853H98.9016V122.117H153.13V96.3696H161.428V130.701H188.861V70.6222H197.159V130.701H232.89V139.286H259.685V147.864H304.984V139.286H313.282V147.864H384.745V165.033H393.68V173.618H430.043V165.033H438.341V173.618H456.207V182.196H465.143V199.365ZM491.938 137.966H483.64V130.701H491.938V137.966ZM484.277 137.329H491.3V131.339H484.277V137.329ZM241.826 77.8879H233.522V44.8685H251.387V36.2905H259.685V60.7184H250.756V69.3035H241.826V77.8879ZM234.16 77.2505H241.188V68.6662H250.118V60.081H259.047V36.9279H252.025V45.5058H234.16V77.2505Z" fill="black"/>
<path d="M510.122 112.876V130.045H501.186V147.208H492.257V155.792H474.391V121.46H483.321V112.876H492.257V104.291H501.186V112.876H510.122V95.7131H483.321V104.291H474.391V112.876H465.455V155.792H456.526V87.1286H465.455V27.0497H456.526V35.6279H447.59V78.5441H438.66V87.1286H420.794V95.7131H411.858V138.623H420.794V147.208H402.929V78.5441H367.198V104.291H376.127V121.46H367.198V130.045H358.262V104.291H349.332V78.5441H340.396V121.46H349.332V138.623H376.127V130.045H385.063V95.7131H376.127V87.1286H393.993V155.792H402.929V164.377H420.794V155.792H429.724V147.208H438.66V121.46H447.59V164.377H465.455V172.955H474.391V190.124H510.122V164.377H501.186V181.539H483.321V164.377H501.186V155.792H510.122V138.623H519.052V112.876H510.122ZM429.724 112.876V130.045H420.794V104.291H429.724V95.7131H438.66V112.876H429.724Z" fill="#DEFC32"/>
<path d="M331.467 112.876H322.531V87.1286H313.601V78.5441H295.736V121.46H286.8V130.045H277.87V18.4651H268.934V69.9596H260.004V78.5441H251.075V87.1286H233.209V95.7131H224.273V104.291H215.344V78.5441H224.273V35.6279H242.139V27.0497H251.075V18.4651H242.139V9.88064H215.344V35.6279H197.478V44.2124H179.612V35.6279H134.945V27.0497H99.2142V35.6279H90.2846V61.3815H81.3486V78.5441H90.2846V69.9596H99.2142V44.2124H108.15V35.6279H117.08V69.9596H126.016V44.2124H134.945V61.3815H143.881V78.5441H134.945V104.291H117.08V69.9596H108.15V112.876H143.881V87.1286H152.811V52.7969H143.881V44.2124H170.676V121.46H179.612V61.3815H188.542V52.7969H206.408V44.2124H215.344V69.9596H206.408V121.46H224.273V112.876H233.209V121.46H242.139V130.045H268.934V138.623H295.736V130.045H304.665V95.7131H313.601V121.46H322.531V138.623H331.467V130.045H340.396V121.46H331.467V112.876ZM224.273 18.4651H233.209V27.0497H224.273V18.4651ZM251.075 121.46V112.876H242.139V104.291H251.075V95.7131H260.004V121.46H251.075Z" fill="#DEFC32"/>
<path d="M72.419 27.0497H54.5534V52.7969H45.6175V69.9596H36.6879V61.3815H27.7519V27.0497H9.88631V35.6279H18.8223V69.9596H27.7519V87.1286H36.6879V95.7131H45.6175V78.5441H54.5534V61.3815H63.483V87.1286H72.419V95.7131H81.3486V78.5441H72.419V27.0497Z" fill="#DEFC32"/>
</svg>
