<svg width="389" height="200" viewBox="0 0 389 200" fill="none" xmlns="http://www.w3.org/2000/svg">
<path d="M370.166 0.54018H18.3038C8.53425 0.54018 0.614442 8.43488 0.614442 18.1735V181.83C0.614442 191.569 8.53425 199.463 18.3038 199.463H370.166C379.935 199.463 387.855 191.569 387.855 181.83V18.1735C387.855 8.43488 379.935 0.54018 370.166 0.54018Z" fill="#071907"/>
<path d="M370.166 200.002H18.304C8.25232 200.002 0.0742188 191.85 0.0742188 181.83V18.1734C0.0742188 8.1536 8.25232 0.00195312 18.304 0.00195312H370.166C380.217 0.00195312 388.395 8.1536 388.395 18.1734V181.83C388.395 191.85 380.217 200.002 370.166 200.002ZM18.304 1.07881C8.84785 1.07881 1.1545 8.74724 1.1545 18.1734V181.83C1.1545 191.256 8.84785 198.925 18.304 198.925H370.166C379.622 198.925 387.315 191.256 387.315 181.83V18.1734C387.315 8.74724 379.622 1.07881 370.166 1.07881H18.304Z" fill="#071907"/>
<path d="M103.101 186.823C151.517 186.823 190.766 147.698 190.766 99.4351C190.766 51.1723 151.517 12.0475 103.101 12.0475C54.6845 12.0475 15.4352 51.1723 15.4352 99.4351C15.4352 147.698 54.6845 186.823 103.101 186.823Z" fill="#FAFAFA"/>
<path d="M103.02 12.0341V12.8664C117.793 12.8664 132.427 16.6456 145.341 23.7952C158.647 31.1623 169.826 41.9836 177.669 55.089C202.2 96.076 188.705 149.315 147.588 173.767C134.127 181.772 118.772 186.004 103.184 186.004C88.4093 186.004 73.7745 182.225 60.8616 175.076C47.5556 167.709 36.3763 156.887 28.5324 143.781C16.6495 123.926 13.2342 100.647 18.9158 78.2318C24.5975 55.8165 38.6958 36.9483 58.6138 25.1031C72.0743 17.098 87.429 12.8667 103.018 12.8664L103.02 12.0341ZM103.018 12.0341C87.7389 12.0343 72.2605 16.0181 58.186 24.3883C16.6069 49.1154 3.00949 102.76 27.8153 144.208C44.2243 171.625 73.3258 186.836 103.184 186.836C118.463 186.836 133.941 182.852 148.016 174.482C189.595 149.755 203.192 96.1099 178.386 54.6626C161.977 27.2454 132.876 12.0336 103.018 12.0341Z" fill="#071907"/>
<path d="M51.3475 114.619L43.685 119.176L40.8449 114.428L61.5795 102.097L64.4208 106.845L56.7583 111.401L71.9964 136.86L66.5856 140.08L51.3475 114.619Z" fill="#071907"/>
<path d="M77.3339 118.415L65.996 99.4713L71.408 96.2529L82.6938 115.111C85.3278 119.513 88.9301 120.823 93.1281 118.325C97.3274 115.828 97.8822 112.047 95.2482 107.645L83.9612 88.7867L89.3719 85.5696L100.71 104.514C104.842 111.418 103.423 118.757 96.0215 123.158C88.6197 127.56 81.4649 125.32 77.3339 118.415Z" fill="#071907"/>
<path d="M95.2606 82.0679L101.192 78.5402L126.279 92.1165L127.261 93.1695L127.391 93.0927L114.091 70.8686L119.503 67.6503L137.581 97.8578L131.65 101.385L106.561 87.8092L105.579 86.7562L105.449 86.8342L118.751 109.057L113.339 112.274L95.2606 82.0679Z" fill="#071907"/>
<path d="M125.392 64.1486L144.525 52.7698L147.365 57.5163L133.643 65.6779L138.42 73.6613L150.975 66.1951L153.816 70.9416L141.262 78.4078L146.039 86.3912L160.238 77.9475L163.08 82.694L143.47 94.3561L125.392 64.1486Z" fill="#071907"/>
<path d="M285.382 186.823C333.799 186.823 373.048 147.698 373.048 99.4351C373.048 51.1723 333.799 12.0475 285.382 12.0475C236.966 12.0475 197.717 51.1723 197.717 99.4351C197.717 147.698 236.966 186.823 285.382 186.823Z" fill="#FAFAFA"/>
<path d="M285.382 12.8798C333.261 12.8798 372.213 51.7083 372.213 99.4351C372.213 147.162 333.261 185.99 285.382 185.99C237.504 185.99 198.552 147.162 198.552 99.4351C198.552 51.7083 237.504 12.8798 285.382 12.8798ZM285.382 12.0475C236.966 12.0475 197.717 51.1723 197.717 99.4351C197.717 147.698 236.966 186.823 285.382 186.823C333.799 186.823 373.048 147.698 373.048 99.4351C373.048 51.1723 333.799 12.0475 285.382 12.0475Z" fill="#071907"/>
<path d="M264.69 80.5163H270.991V115.691H264.69V80.5163Z" fill="#071907"/>
<path d="M277.846 80.5163H284.752L299.319 104.987L299.622 106.394H299.773V80.5163H306.074V115.691H299.168L284.6 91.2194L284.298 89.8125H284.147V115.691H277.846V80.5163Z" fill="#071907"/>
</svg>
