<svg width="475" height="200" viewBox="0 0 475 200" fill="none" xmlns="http://www.w3.org/2000/svg">
<path d="M470.188 87.4403C466.167 76.9978 458.406 68.4312 448.977 63.2069C452.839 53.0393 451.087 41.1801 444.435 32.8067C438.195 24.9517 428.487 20.6259 417.098 20.6259C411.257 20.6259 405.252 21.7944 399.733 24.0047C395.038 25.8849 390.578 28.3843 386.412 31.4432C385.348 28.6422 383.878 25.9741 382.014 23.515C375.536 14.9674 365.071 9.86453 354.02 9.86453L353.801 9.8654C338.11 9.95988 322.119 17.0031 308.209 29.8306C307.11 26.6073 305.591 23.5172 303.645 20.6589C296.305 9.8719 283.375 3.17062 269.901 3.17062C265.951 3.17062 262.08 3.74878 258.397 4.88906C253.256 6.48052 248.768 8.95785 244.791 11.9167C242.471 9.35572 239.702 7.177 236.523 5.42865C230.53 2.13262 223.256 0.461415 214.903 0.461415C210.276 0.461415 205.443 0.97153 200.537 1.97789C181.086 5.96737 163.711 17.5635 151.615 34.6288C151.068 35.4015 150.53 36.1847 150.004 36.9787C143.895 27.4737 135.032 20.7815 125.03 18.2834C122.358 17.6159 119.576 17.2775 116.763 17.2775C106.527 17.2775 97.0172 21.6973 91.0196 28.9152C88.2325 27.5153 85.2855 26.5631 82.2592 26.1146C80.9195 25.9161 79.5545 25.8155 78.2017 25.8155C68.0297 25.8155 58.273 31.66 52.1442 40.5707C50.2437 39.2809 48.1668 38.1181 45.9004 37.1377C41.6624 35.304 36.9592 34.3345 32.2987 34.3345C24.1479 34.3345 16.6258 37.2127 11.1178 42.4396C2.17318 50.9286 0.785953 62.7636 0.52062 70.9276C0.0104318 86.6328 2.81059 102.865 8.61872 117.869C14.4268 132.873 23.2939 146.781 34.2614 158.09C43.9489 168.078 53.5763 173.642 63.6938 175.102C65.4008 175.348 67.1492 175.473 68.8906 175.473C81.7168 175.473 94.3247 168.773 101.794 157.987C103.917 154.922 105.46 151.823 106.57 148.733C107.673 149.134 108.819 149.493 110.01 149.803C113.237 150.643 116.58 151.069 119.944 151.069C126.544 151.069 132.86 149.452 138.304 146.431C141.408 152.507 145.392 157.834 150.143 162.21C159.521 170.844 172.188 175.796 184.897 175.796C185.153 175.796 185.405 175.794 185.66 175.79C186.434 175.778 187.206 175.746 187.976 175.698C187.496 177.045 187.231 178.493 187.231 180.003V184.465C187.231 188.611 189.238 192.503 192.624 194.921C196.737 197.858 202.093 199.543 207.318 199.543C211.543 199.543 215.448 198.465 218.744 196.587C221.744 198.476 225.367 199.543 229.388 199.543C231.347 199.543 233.267 199.276 235.114 198.76C235.839 198.885 236.583 198.954 237.343 198.954H244.196C246.619 198.954 248.886 198.29 250.824 197.137C253.626 198.67 256.881 199.543 260.385 199.543C262.482 199.543 264.515 199.241 266.445 198.661C268.147 199.202 269.971 199.494 271.872 199.494C274.056 199.494 276.138 199.159 278.103 198.501C280.438 199.178 282.88 199.543 285.295 199.543C288.677 199.543 291.854 198.853 294.677 197.615C297.748 198.862 301.116 199.543 304.432 199.543C308.678 199.543 312.601 198.454 315.907 196.558C319.449 198.471 323.557 199.543 328.01 199.543C334.844 199.543 341.007 196.95 345.834 192.046C346.227 191.647 346.59 191.224 346.923 190.784C348.811 195.567 353.49 198.954 358.967 198.954H363.601C366.17 198.954 368.563 198.206 370.576 196.922C373.925 198.62 377.696 199.543 381.688 199.543C386.812 199.543 391.517 198.039 395.393 195.443C399.319 198.081 403.999 199.543 409.029 199.543C422.642 199.543 433.306 188.935 433.306 175.393C433.306 171.345 432.381 167.602 430.723 164.357C430.88 164.118 431.026 163.871 431.166 163.621C434.744 163.078 438.275 162.022 441.589 160.485C449.519 156.807 456.505 150.522 462.35 141.805C473.794 124.742 476.724 104.418 470.188 87.4403Z" fill="#B27524"/>
<path d="M409.028 200.002C404.112 200.002 399.405 198.617 395.392 195.995C391.366 198.617 386.635 200.002 381.689 200.002C377.76 200.002 374.032 199.143 370.6 197.449C368.494 198.735 366.08 199.413 363.601 199.413H358.967C353.681 199.413 348.988 196.4 346.801 191.671C346.595 191.913 346.383 192.146 346.163 192.368C341.247 197.362 334.97 200.002 328.01 200.002C323.657 200.002 319.589 199.02 315.913 197.083C312.488 198.993 308.524 200.002 304.431 200.002C301.161 200.002 297.795 199.349 294.684 198.113C291.758 199.366 288.6 200.002 285.295 200.002C282.908 200.002 280.492 199.659 278.112 198.982C274.438 200.182 270.204 200.307 266.441 199.141C264.494 199.712 262.457 200.002 260.386 200.002C257.02 200.002 253.723 199.194 250.833 197.664C248.817 198.809 246.528 199.413 244.196 199.413H237.344C236.617 199.413 235.875 199.352 235.139 199.23C233.27 199.742 231.335 200.002 229.388 200.002C225.507 200.002 221.829 199.007 218.732 197.121C215.325 199.007 211.384 200.002 207.318 200.002C201.998 200.002 196.544 198.286 192.354 195.294C188.857 192.796 186.769 188.747 186.769 184.465V180.002C186.769 178.709 186.957 177.431 187.328 176.195C186.764 176.222 186.208 176.241 185.668 176.249C172.586 176.44 159.483 171.435 149.829 162.547C145.164 158.25 141.223 153.042 138.11 147.061C132.669 149.985 126.4 151.528 119.944 151.528C116.54 151.528 113.158 151.097 109.894 150.248C108.871 149.982 107.848 149.67 106.847 149.32C105.679 152.453 104.109 155.455 102.174 158.248C94.6204 169.155 81.8668 175.932 68.8903 175.932C67.1259 175.932 65.3554 175.805 63.6271 175.556C53.4051 174.082 43.6905 168.473 33.9292 158.409C22.9193 147.056 14.0186 133.095 8.18831 118.034C2.35801 102.974 -0.453287 86.6803 0.0594608 70.9127C0.326948 62.6686 1.73183 50.713 10.7988 42.1072C16.393 36.7988 24.0291 33.8753 32.2989 33.8753C37.0217 33.8753 41.789 34.8577 46.0841 36.7164C48.142 37.6066 50.1378 38.6888 52.024 39.9365C58.469 30.7981 68.2227 25.3563 78.2017 25.3563C79.579 25.3563 80.967 25.4585 82.3275 25.6602C85.2583 26.0947 88.1401 26.9967 90.8993 28.3427C97.0531 21.1196 106.692 16.818 116.764 16.818C119.614 16.818 122.434 17.1611 125.143 17.8377C135.006 20.3015 143.812 26.7908 150.008 36.1427C150.413 35.5438 150.822 34.9511 151.238 34.3644C163.401 17.203 180.877 5.54134 200.443 1.52794C205.379 0.515445 210.245 0.00195312 214.903 0.00195312C223.335 0.00195312 230.684 1.69263 236.746 5.0267C239.824 6.71928 242.548 8.82853 244.852 11.3007C249.147 8.15531 253.537 5.91264 258.26 4.45069C261.987 3.29638 265.904 2.71122 269.901 2.71122C283.526 2.71122 296.602 9.48993 304.028 20.4017C305.832 23.0531 307.306 25.9487 308.413 29.0194C322.242 16.4596 338.336 9.49946 353.799 9.40606L354.019 9.4053C365.215 9.4053 375.818 14.5768 382.382 23.2387C384.132 25.5469 385.557 28.0614 386.624 30.7196C390.701 27.7858 395.05 25.3845 399.56 23.5784C405.134 21.3464 411.199 20.1665 417.098 20.1665C428.631 20.1665 438.468 24.5546 444.798 32.522C451.428 40.8678 453.274 52.7876 449.547 62.9987C459.212 68.458 466.687 77.065 470.619 87.2758C477.208 104.393 474.26 124.873 462.734 142.06C456.841 150.848 449.793 157.187 441.784 160.901C438.508 162.421 435.035 163.477 431.458 164.041C431.391 164.156 431.323 164.27 431.253 164.383C432.922 167.74 433.767 171.443 433.767 175.392C433.767 189.192 422.901 200.002 409.028 200.002ZM395.394 194.889L395.651 195.063C399.566 197.693 404.192 199.083 409.028 199.083C422.383 199.083 432.844 188.677 432.844 175.392C432.844 171.496 431.992 167.854 430.312 164.565L430.192 164.329L430.337 164.107C430.487 163.876 430.627 163.639 430.763 163.397L430.873 163.201L431.096 163.167C434.665 162.625 438.13 161.583 441.393 160.069C449.246 156.426 456.168 150.196 461.966 141.55C473.327 124.61 476.239 104.444 469.756 87.6044C465.856 77.4737 458.396 68.9517 448.752 63.6083L448.404 63.4154L448.544 63.0444C452.342 53.0479 450.587 41.2906 444.073 33.0915C437.922 25.3491 428.342 21.0852 417.098 21.0852C411.315 21.0852 405.37 22.2418 399.905 24.4308C395.287 26.28 390.839 28.7636 386.686 31.8129L386.194 32.1728L385.979 31.6055C384.923 28.8212 383.464 26.1923 381.645 23.7915C375.254 15.3587 364.927 10.324 354.02 10.324L353.803 10.3248C338.379 10.4178 322.297 17.4645 308.523 30.1676L308 30.6495L307.771 29.9781C306.667 26.739 305.15 23.6901 303.263 20.9167C296.008 10.2539 283.224 3.62994 269.901 3.62994C265.997 3.62994 262.172 4.201 258.534 5.32748C253.79 6.79667 249.385 9.07212 245.068 12.2846L244.731 12.5354L244.449 12.2244C242.156 9.69464 239.414 7.54346 236.3 5.8303C230.376 2.57246 223.177 0.920673 214.903 0.920673C210.307 0.920673 205.505 1.42768 200.63 2.4276C181.294 6.39373 164.021 17.9239 151.992 34.8935C151.448 35.6624 150.913 36.4416 150.389 37.2318L149.997 37.8216L149.614 37.2261C143.528 27.7557 134.757 21.1866 124.918 18.729C122.282 18.0702 119.538 17.7367 116.764 17.7367C106.835 17.7367 97.3443 22.0249 91.3753 29.2081L91.1407 29.4906L90.8112 29.3251C88.0405 27.9337 85.1403 27.0062 82.191 26.569C80.8758 26.3738 79.5338 26.2751 78.2017 26.2751C68.3921 26.2751 58.794 31.7161 52.5253 40.8301L52.2647 41.2086L51.8838 40.9502C49.9347 39.627 47.8592 38.486 45.7162 37.5589C41.5353 35.7501 36.896 34.794 32.2989 34.794C24.2674 34.794 16.8583 37.6272 11.4365 42.772C2.614 51.1449 1.24514 62.8596 0.982253 70.9424C0.474104 86.5881 3.26394 102.758 9.04979 117.704C14.8364 132.651 23.6688 146.506 34.5944 157.771C44.2079 167.683 53.7477 173.203 63.7597 174.647C65.4444 174.89 67.1704 175.013 68.8903 175.013C81.5672 175.013 94.0294 168.389 101.413 157.726C103.392 154.871 104.98 151.793 106.136 148.579L106.292 148.143L106.729 148.302C107.841 148.706 108.984 149.061 110.127 149.359C113.316 150.189 116.619 150.61 119.944 150.61C126.409 150.61 132.68 149.026 138.078 146.03L138.497 145.797L138.715 146.223C141.812 152.284 145.762 157.549 150.456 161.873C159.939 170.602 172.848 175.535 185.653 175.331C186.395 175.319 187.166 175.288 187.947 175.24L188.646 175.196L188.412 175.852C187.934 177.189 187.692 178.585 187.692 180.002V184.465C187.692 188.452 189.637 192.221 192.892 194.548C196.929 197.43 202.187 199.083 207.318 199.083C211.319 199.083 215.191 198.082 218.514 196.189L218.755 196.051L218.99 196.199C221.988 198.086 225.583 199.083 229.388 199.083C231.286 199.083 233.17 198.826 234.989 198.317L235.09 198.289L235.193 198.307C235.912 198.432 236.635 198.495 237.344 198.495H244.196C246.45 198.495 248.66 197.889 250.588 196.743L250.815 196.608L251.047 196.735C253.856 198.271 257.085 199.083 260.386 199.083C262.415 199.083 264.41 198.793 266.312 198.221L266.449 198.179L266.586 198.223C268.276 198.761 270.054 199.034 271.872 199.034C273.989 199.034 276.036 198.708 277.956 198.066L278.093 198.02L278.232 198.06C280.572 198.739 282.949 199.083 285.295 199.083C288.539 199.083 291.633 198.448 294.491 197.195L294.67 197.116L294.852 197.19C297.903 198.429 301.215 199.083 304.431 199.083C308.452 199.083 312.34 198.073 315.677 196.16L315.9 196.032L316.128 196.154C319.725 198.098 323.723 199.083 328.01 199.083C334.717 199.083 340.765 196.539 345.504 191.725C345.874 191.349 346.227 190.94 346.554 190.508L347.051 189.852L347.353 190.617C349.242 195.402 353.801 198.495 358.967 198.495H363.601C365.992 198.495 368.317 197.817 370.326 196.535L370.549 196.393L370.785 196.512C374.15 198.218 377.818 199.083 381.689 199.083C386.557 199.083 391.207 197.693 395.136 195.062L395.394 194.889Z" fill="black"/>
<path d="M458.105 92.0433C452.736 78.099 437.193 67.8923 422.537 71.1195C428.798 69.5326 434.305 64.9892 436.727 59.03C439.149 53.0708 438.29 45.8296 434.284 40.7864C427.604 32.3786 414.558 31.9418 404.564 35.9438C389.752 41.8758 379.042 55.371 372.962 70.0585C369.464 78.5102 363.336 97.6882 362.943 114.177C359.352 107.084 353.127 101.237 345.672 98.3039C355.587 100.62 366.646 92.9141 367.846 82.8532C368.89 74.1023 362.263 65.3506 353.818 63.181C362.957 63.4227 372.176 57.172 374.72 48.3351C378.757 34.307 367.328 22.654 353.88 22.7353C338.038 22.8311 323.525 32.1299 312.967 43.2532C303.781 52.9311 296.527 64.6759 292.522 77.3229C288.972 73.4072 284.421 70.3154 279.485 68.4547C284.151 66.8253 288.39 64.0159 291.514 60.1912C298.837 51.2253 299.442 37.44 292.931 27.8736C286.421 18.3072 273.33 13.7449 262.242 17.178C253.064 20.0194 246.13 27.3822 240.171 34.928C240.234 33.0231 240.057 31.1099 239.607 29.2253C235.616 12.4785 216.742 11.7953 203.15 14.5831C186.465 18.0054 171.958 28.263 162.189 42.0458C154.837 52.417 150.108 64.3141 147.217 76.7196C147.166 75.6548 147.114 74.59 147.044 73.5262C146.461 64.6932 145.176 55.7291 141.276 47.772C137.377 39.8151 130.51 32.922 121.879 30.7662C113.249 28.6105 103.002 32.1765 99.0329 40.099C96.0535 46.0457 96.9286 52.9049 98.6549 59.4904C97.479 55.7169 96.0723 52.0269 93.9729 48.6892C90.9006 43.8053 86.0811 39.6933 80.3527 38.8444C70.4514 37.3771 61.4468 46.3172 59.2065 56.0227C57.8325 61.9754 58.3205 68.0697 59.5227 74.1057C58.5335 70.7862 57.3558 67.534 55.8193 64.4271C52.563 57.8422 47.5045 51.8668 40.7397 48.9395C33.9749 46.0123 25.3867 46.686 20.0491 51.7517C14.9069 56.6318 13.6819 64.2772 13.4523 71.3433C12.525 99.8765 23.647 128.608 43.5727 149.154C49.6275 155.397 56.9198 161.12 65.5502 162.364C75.334 163.776 85.531 158.784 91.1394 150.686C96.4454 143.024 96.5846 134.852 96.0982 126.016C101.24 130.98 106.115 135.486 113.285 137.352C120.983 139.355 129.738 137.817 135.713 132.589C139.796 129.016 142.257 124.186 143.826 118.954C144.12 121.921 144.579 124.869 145.246 127.781C147.395 137.169 151.829 146.224 158.932 152.764C166.056 159.324 175.752 163.072 185.459 162.921C195.167 162.771 204.773 158.702 211.54 151.777C218.984 144.162 222.82 132.805 220.169 122.516C218.182 114.807 212.239 108.13 204.892 105.26C210.024 104.929 215.102 102.247 218.093 98.0187C222.638 91.5958 222.465 82.4872 218.431 75.7354C214.397 68.9836 206.964 64.5957 199.169 63.344C208.669 63.9646 218.604 62.3668 226.596 57.3132C225.298 60.8309 224.417 64.4732 224.117 68.2454C223.152 80.382 230.17 93.9096 242.131 96.4885L242.304 96.3923C235.206 101.93 230.226 110.206 229.054 119.123C227.425 131.51 233.215 144.581 243.503 151.745C253.791 158.908 268.119 159.845 279.261 154.083C288.234 149.443 294.531 141.164 298.351 131.728C303.663 140.376 311.095 147.62 320.235 152.13C328.021 155.972 337.131 157.785 345.507 155.475C356.086 152.557 364.113 142.823 365.89 132.076C368.651 137.954 373.576 141.903 381.643 142.363C387.912 142.721 394.204 139.713 398.106 134.82C401.156 130.996 402.745 126.124 402.803 121.237C403.186 125.805 403.767 130.359 405.189 134.706C407.035 140.349 410.474 145.7 415.645 148.658C421.795 152.177 429.691 151.803 436.121 148.821C442.551 145.838 447.65 140.534 451.587 134.663C459.918 122.241 463.473 105.988 458.105 92.0433Z" fill="white"/>
<path d="M211.459 173.382L207.81 171.862C205.592 170.93 204.704 170.047 204.704 168.527C204.704 166.516 206.775 165.388 209.24 165.388C211.606 165.388 213.776 166.369 215.156 168.183H215.403V163.77C213.726 162.838 211.41 162.249 209.141 162.249C204.261 162.249 200.612 165.339 200.612 169.458C200.612 172.156 202.092 174.264 205.198 175.638L208.649 177.109C210.867 178.09 211.853 178.777 211.853 180.346C211.853 182.553 209.585 183.534 207.268 183.534C204.754 183.534 202.289 182.405 200.415 180.003H200.169V184.465C202.091 185.838 204.754 186.672 207.318 186.672C212.149 186.672 215.994 183.779 215.994 179.414C215.994 176.521 214.466 174.608 211.459 173.382Z" fill="white"/>
<path d="M230.719 183.288C228.5 183.288 227.465 182.161 227.465 179.659V166.074H234.071V162.838H227.465V157.1H223.817C223.619 162.298 222.88 163.132 218.147 163.23V166.074H222.929V179.806C222.929 184.514 225.592 186.672 229.388 186.672C231.261 186.672 232.986 186.035 234.367 185.005L233.874 182.553C232.839 183.092 231.803 183.288 230.719 183.288Z" fill="white"/>
<path d="M243.21 168.576H242.964V162.69H242.815L237.195 163.279V163.573C238.132 164.848 238.428 166.173 238.428 168.968V180.395C238.428 183.19 238.28 184.514 237.343 185.887V186.084H244.196V185.887C243.111 184.514 242.964 183.19 242.964 180.395V175.932C242.964 169.655 246.365 166.712 249.915 166.712C250.605 166.712 251.197 166.761 251.838 166.957V162.445C251.295 162.347 250.753 162.249 250.013 162.249C246.711 162.249 244.492 164.26 243.21 168.576Z" fill="white"/>
<path d="M273.746 183.534C272.661 183.534 272.02 182.945 272.02 181.474V171.028C272.02 164.897 268.224 162.249 263.343 162.249C260.04 162.249 256.984 163.622 254.716 165.535L255.209 168.036C257.477 166.614 259.794 165.78 262.16 165.78C265.167 165.78 267.534 167.202 267.534 170.881V172.401L262.604 173.676C257.526 175 254.075 176.815 254.075 180.787C254.075 184.269 256.885 186.672 260.385 186.672C263.097 186.672 265.562 185.446 267.386 182.602H267.583V182.7C267.731 185.103 269.605 186.623 271.872 186.623C273.351 186.623 274.535 186.231 275.619 185.446L275.274 183.19C274.781 183.386 274.288 183.534 273.746 183.534ZM267.534 176.962C267.534 180.934 264.428 183.239 261.963 183.239C260.237 183.239 258.808 182.161 258.808 180.247C258.808 178.139 260.632 177.207 263.836 176.177L267.534 175V176.962Z" fill="white"/>
<path d="M289.436 173.382L285.788 171.862C283.569 170.93 282.682 170.047 282.682 168.527C282.682 166.516 284.752 165.388 287.218 165.388C289.584 165.388 291.753 166.369 293.134 168.183H293.38V163.77C291.704 162.838 289.387 162.249 287.119 162.249C282.238 162.249 278.59 165.339 278.59 169.458C278.59 172.156 280.069 174.264 283.175 175.638L286.626 177.109C288.844 178.09 289.83 178.777 289.83 180.346C289.83 182.553 287.563 183.534 285.246 183.534C282.731 183.534 280.266 182.405 278.393 180.003H278.146V184.465C280.069 185.838 282.731 186.672 285.295 186.672C290.126 186.672 293.972 183.779 293.972 179.414C293.972 176.521 292.443 174.608 289.436 173.382Z" fill="white"/>
<path d="M308.573 173.382L304.924 171.862C302.706 170.93 301.818 170.047 301.818 168.527C301.818 166.516 303.889 165.388 306.354 165.388C308.72 165.388 310.89 166.369 312.27 168.183H312.517V163.77C310.84 162.838 308.523 162.249 306.255 162.249C301.375 162.249 297.726 165.339 297.726 169.458C297.726 172.156 299.205 174.264 302.311 175.638L305.763 177.109C307.981 178.09 308.967 178.777 308.967 180.346C308.967 182.553 306.699 183.534 304.382 183.534C301.868 183.534 299.403 182.405 297.529 180.003H297.283V184.465C299.205 185.838 301.868 186.672 304.431 186.672C309.263 186.672 313.108 183.779 313.108 179.414C313.108 176.521 311.58 174.608 308.573 173.382Z" fill="white"/>
<path d="M329.193 182.847C324.214 182.847 320.812 179.708 320.615 173.823H336.292V171.96C336.292 165.633 332.349 162.249 326.975 162.249C320.714 162.249 316.079 167.398 316.079 174.313C316.079 181.866 321.256 186.672 328.01 186.672C331.461 186.672 334.271 185.397 336.588 183.043L336.046 180.64C333.877 182.111 331.806 182.847 329.193 182.847ZM326.679 165.241C329.637 165.241 331.609 167.349 331.708 170.93H320.812C321.404 167.349 323.425 165.241 326.679 165.241Z" fill="white"/>
<path d="M351.917 158.964V161.759H358.967V186.084H363.601V152.735H360.101C359.707 157.296 357.587 158.718 351.917 158.964Z" fill="white"/>
<path d="M383.068 165.094C379.075 165.094 376.019 167.202 374.539 170.047H374.293C374.343 161.366 378.73 155.923 386.421 155.923C388.788 155.923 390.809 156.413 392.534 157.345L392.929 154.402C390.809 153.078 388.344 152.392 385.682 152.392C379.766 152.392 374.934 155.677 372.173 160.19C368.92 165.584 368.525 173.431 370.743 178.972C372.617 183.632 376.413 186.672 381.688 186.672C387.949 186.672 393.027 182.111 393.027 175.393C393.027 168.919 388.492 165.094 383.068 165.094ZM381.392 183.337C377.35 183.337 374.835 179.953 374.835 175.785V175.589C374.835 171.518 377.941 168.674 381.54 168.674C385.386 168.674 387.999 171.518 387.999 175.981C387.999 180.395 385.435 183.337 381.392 183.337Z" fill="white"/>
<path d="M410.409 165.094C406.416 165.094 403.359 167.202 401.88 170.047H401.633C401.683 161.366 406.07 155.923 413.761 155.923C416.128 155.923 418.149 156.413 419.874 157.345L420.269 154.402C418.149 153.078 415.684 152.392 413.022 152.392C407.106 152.392 402.274 155.677 399.513 160.19C396.26 165.584 395.865 173.431 398.084 178.972C399.957 183.632 403.753 186.672 409.028 186.672C415.29 186.672 420.368 182.111 420.368 175.393C420.368 168.919 415.832 165.094 410.409 165.094ZM408.733 183.337C404.69 183.337 402.175 179.953 402.175 175.785V175.589C402.175 171.518 405.281 168.674 408.881 168.674C412.726 168.674 415.339 171.518 415.339 175.981C415.339 180.395 412.775 183.337 408.733 183.337Z" fill="white"/>
</svg>
