<svg width="496" height="200" viewBox="0 0 496 200" fill="none" xmlns="http://www.w3.org/2000/svg">
<path d="M495.97 0.00244141H0.365234V200.002H495.97V0.00244141Z" fill="#002899"/>
<path d="M440.455 9.26101V89.4699H426.748V9.26101H381.392V129.979H440.455V150.235H335.321V100.873H372.615V60.3636H335.321V9.26101H289.967V190.744H485.809V9.26101H440.455Z" fill="#CCFFD1"/>
<path d="M68.0707 150.235H55.8798V9.26101H10.5258V190.744H113.425V9.26101H68.0707V150.235Z" fill="#CCFFD1"/>
<path d="M281.188 60.3636H235.833V190.744H281.188V60.3636Z" fill="#CCFFD1"/>
<path d="M281.188 9.26101H235.833V49.7702H281.188V9.26101Z" fill="#CCFFD1"/>
<path d="M124.155 9.26101V190.744H169.509V49.7702H181.7V190.744H227.056V9.26101H124.155Z" fill="#CCFFD1"/>
<path d="M296.6 170.685C296.6 163.483 301.942 158.737 308.345 158.737C314.052 158.737 317.899 161.956 318.862 166.537L318.73 166.802L314.848 167.101C314.02 164.213 311.631 162.453 308.279 162.453C303.667 162.453 300.781 165.905 300.781 170.685C300.781 175.465 303.701 178.916 308.345 178.916C311.629 178.916 313.986 177.156 314.848 174.269L318.698 174.568L318.864 174.832C317.636 179.678 313.755 182.632 308.347 182.632C301.944 182.632 296.602 177.887 296.602 170.685H296.6Z" fill="#002899"/>
<path d="M320.388 170.685C320.388 163.549 325.498 158.737 332.101 158.737C338.705 158.737 343.846 163.549 343.846 170.685C343.846 177.82 338.737 182.632 332.101 182.632C325.466 182.632 320.388 177.82 320.388 170.685ZM339.631 170.685C339.631 165.839 336.711 162.453 332.099 162.453C327.487 162.453 324.567 165.839 324.567 170.685C324.567 175.531 327.519 178.916 332.099 178.916C336.679 178.916 339.631 175.531 339.631 170.685Z" fill="#002899"/>
<path d="M350.18 159.068L357.348 177.19L364.547 159.068H368.693V182.301H364.711V167.731H364.579L364.412 169.192L359.269 182.301H355.454L350.311 169.192L350.144 167.731H350.012V182.301H346.03V159.068H350.18Z" fill="#002899"/>
<path d="M371.548 159.068H375.696L382.863 177.19L390.062 159.068H394.211V182.301H390.229V167.731H390.097L389.93 169.192L384.787 182.301H380.972L375.828 169.192L375.662 167.731H375.529V182.301H371.548V159.068Z" fill="#002899"/>
<path d="M397.061 173.638V159.068H401.207V173.572C401.207 176.957 402.8 178.916 406.017 178.916C409.235 178.916 410.828 176.957 410.828 173.572V159.068H414.976V173.638C414.976 178.948 411.692 182.632 406.017 182.632C400.342 182.632 397.059 178.948 397.059 173.638H397.061Z" fill="#002899"/>
<path d="M417.83 159.068H422.376L431.964 175.232L432.163 176.161H432.263V159.068H436.409V182.301H431.864L422.275 166.138L422.077 165.209H421.977V182.301H417.83V159.068Z" fill="#002899"/>
<path d="M439.264 159.068H443.41V182.301H439.264V159.068Z" fill="#002899"/>
<path d="M451.008 162.718H445.135V159.068H461.028V162.718H455.155V182.301H451.008V162.718Z" fill="#002899"/>
<path d="M467.995 173.937L460.994 159.068H465.439L469.587 168.062L470.019 170.584H470.151L470.582 168.062L474.728 159.068H479.173L472.139 173.937V182.301H467.99V173.937H467.995Z" fill="#002899"/>
<path d="M48.2429 159.068H52.389V182.301H48.2429V159.068Z" fill="#002899"/>
<path d="M55.2436 159.068H59.789L69.3773 175.232L69.5759 176.161H69.6762V159.068H73.8246V182.301H69.2791L59.6908 166.138L59.4922 165.209H59.3919V182.301H55.2436V159.068Z" fill="#002899"/>
<path d="M154.703 21.2491H148.83V17.5991H164.723V21.2491H158.849V40.832H154.703V21.2491Z" fill="#002899"/>
<path d="M166.448 17.5969H170.596V27.3873H180.383V17.5969H184.529V40.8298H180.383V31.0395H170.596V40.8298H166.448V17.5969Z" fill="#002899"/>
<path d="M187.384 17.5969H202.049V21.247H191.532V27.3873H201.154V31.0373H191.532V37.1777H202.414V40.8277H187.384V17.5948V17.5969Z" fill="#002899"/>
</svg>
