<svg width="496" height="200" viewBox="0 0 496 200" fill="none" xmlns="http://www.w3.org/2000/svg">
<path d="M495.995 0H0.390625V200H495.995V0Z" fill="#002899"/>
<path d="M440.48 9.25857V89.4674H426.774V9.25857H381.418V129.977H440.48V150.232H335.346V100.87H372.641V60.3612H335.346V9.25857H289.992V190.741H485.835V9.25857H440.48Z" fill="#CCFFD1"/>
<path d="M68.0961 150.232H55.9052V9.25857H10.5511V190.741H113.45V9.25857H68.0961V150.232Z" fill="#CCFFD1"/>
<path d="M281.213 60.3612H235.859V190.741H281.213V60.3612Z" fill="#CCFFD1"/>
<path d="M281.213 9.25857H235.859V49.7677H281.213V9.25857Z" fill="#CCFFD1"/>
<path d="M124.181 9.25857V190.741H169.535V49.7677H181.726V190.741H227.082V9.25857H124.181Z" fill="#CCFFD1"/>
<path d="M296.626 170.682C296.626 163.48 301.967 158.735 308.37 158.735C314.077 158.735 317.924 161.953 318.887 166.535L318.755 166.799L314.873 167.098C314.045 164.211 311.656 162.451 308.304 162.451C303.692 162.451 300.806 165.902 300.806 170.682C300.806 175.462 303.727 178.914 308.37 178.914C311.654 178.914 314.011 177.154 314.873 174.266L318.723 174.565L318.889 174.83C317.662 179.676 313.78 182.63 308.372 182.63C301.969 182.63 296.628 177.884 296.628 170.682H296.626Z" fill="#002899"/>
<path d="M320.414 170.682C320.414 163.547 325.523 158.735 332.127 158.735C338.73 158.735 343.871 163.547 343.871 170.682C343.871 177.818 338.762 182.63 332.127 182.63C325.491 182.63 320.414 177.818 320.414 170.682ZM339.657 170.682C339.657 165.836 336.736 162.451 332.124 162.451C327.513 162.451 324.592 165.836 324.592 170.682C324.592 175.528 327.545 178.914 332.124 178.914C336.704 178.914 339.657 175.528 339.657 170.682Z" fill="#002899"/>
<path d="M350.206 159.066L357.373 177.188L364.572 159.066H368.718V182.299H364.737V167.729H364.604L364.438 169.189L359.295 182.299H355.479L350.336 169.189L350.169 167.729H350.037V182.299H346.055V159.066H350.206Z" fill="#002899"/>
<path d="M371.573 159.066H375.721L382.889 177.188L390.088 159.066H394.236V182.299H390.254V167.729H390.122L389.955 169.189L384.812 182.299H380.997L375.854 169.189L375.687 167.729H375.555V182.299H371.573V159.066Z" fill="#002899"/>
<path d="M397.086 173.636V159.066H401.233V173.57C401.233 176.955 402.825 178.914 406.043 178.914C409.26 178.914 410.853 176.955 410.853 173.57V159.066H415.001V173.636C415.001 178.946 411.718 182.63 406.043 182.63C400.368 182.63 397.084 178.946 397.084 173.636H397.086Z" fill="#002899"/>
<path d="M417.856 159.066H422.401L431.99 175.229L432.188 176.158H432.288V159.066H436.435V182.299H431.889L422.301 166.135L422.102 165.206H422.002V182.299H417.856V159.066Z" fill="#002899"/>
<path d="M439.289 159.066H443.435V182.299H439.289V159.066Z" fill="#002899"/>
<path d="M451.034 162.716H445.16V159.066H461.053V162.716H455.18V182.299H451.034V162.716Z" fill="#002899"/>
<path d="M468.02 173.935L461.019 159.066H465.464L469.613 168.06L470.044 170.582H470.176L470.608 168.06L474.754 159.066H479.199L472.164 173.935V182.299H468.016V173.935H468.02Z" fill="#002899"/>
<path d="M48.2682 159.066H52.4144V182.299H48.2682V159.066Z" fill="#002899"/>
<path d="M55.269 159.066H59.8144L69.4027 175.229L69.6013 176.158H69.7016V159.066H73.85V182.299H69.3045L59.7162 166.135L59.5176 165.206H59.4173V182.299H55.269V159.066Z" fill="#002899"/>
<path d="M154.728 21.2467H148.855V17.5966H164.748V21.2467H158.875V40.8295H154.728V21.2467Z" fill="#002899"/>
<path d="M166.473 17.5945H170.621V27.3849H180.408V17.5945H184.555V40.8274H180.408V31.037H170.621V40.8274H166.473V17.5945Z" fill="#002899"/>
<path d="M187.409 17.5945H202.074V21.2445H191.557V27.3849H201.18V31.0349H191.557V37.1752H202.44V40.8253H187.409V17.5923V17.5945Z" fill="#002899"/>
</svg>
