<svg width="295" height="200" viewBox="0 0 295 200" fill="none" xmlns="http://www.w3.org/2000/svg">
<path d="M290.429 9.64548C286.763 4.22404 280.669 0.986947 274.127 0.986947H261.247C255.578 0.986947 250.378 3.35588 246.735 7.34961C243.078 3.36069 237.865 0.986947 232.239 0.986947H218.602C212.003 0.986947 205.879 4.26827 202.221 9.76565C198.563 15.2621 197.899 22.1814 200.447 28.2739L214.269 61.3409L203.134 57.4529C201.044 56.7223 198.862 56.3521 196.647 56.3521H195.673C193.394 56.3521 191.203 56.7424 189.165 57.4587C189.091 56.4656 188.941 55.482 188.72 54.5158C190.046 51.2604 190.734 47.7686 190.734 44.2017C190.734 29.1046 178.458 16.8225 163.37 16.8225C148.282 16.8225 136.006 29.1046 136.006 44.2017C136.006 47.7686 136.694 51.2604 138.02 54.5158C137.689 55.957 137.52 57.4375 137.52 58.9297V66.5537C133.816 65.4962 129.846 64.9491 125.693 64.9491C121.336 64.9491 117.033 65.5923 112.852 66.8643C111.025 66.3153 109.118 66.0326 107.183 66.0326H99.2992V47.6272C99.2992 36.77 90.4713 27.9374 79.6197 27.9374H66.0901C59.6885 27.9374 53.9922 31.0111 50.3955 35.7605C46.7988 31.0111 41.1025 27.9374 34.701 27.9374H21.1713C10.3198 27.9374 1.49186 36.77 1.49186 47.6272V95.1684C1.49186 124.041 21.6018 144.206 50.3955 144.206C59.6145 144.206 68.0148 142.168 75.1659 138.34V139.87C75.1659 150.727 83.9938 159.559 94.8453 159.559H107.183C111.802 159.559 116.055 157.959 119.415 155.284C122.775 157.959 127.028 159.559 131.646 159.559H135.747V170.794C134.368 170.286 132.864 170.014 131.283 170.014C129.407 170.014 127.645 170.399 126.076 171.1C123.713 167.269 119.389 164.894 114.301 164.894C106.188 164.894 99.8327 171.32 99.8327 179.524C99.8327 187.728 106.188 194.154 114.301 194.154C117.717 194.154 120.76 193.11 123.123 191.222C125.267 193.086 128.111 194.154 131.283 194.154C133.443 194.154 135.462 193.646 137.21 192.722C138.135 193.458 139.305 193.898 140.575 193.898H143.492C144.325 193.898 145.115 193.709 145.82 193.371C146.525 193.709 147.315 193.898 148.148 193.898H151.065C151.898 193.898 152.688 193.709 153.393 193.371C154.098 193.709 154.888 193.898 155.721 193.898H158.638C159.194 193.898 159.731 193.814 160.237 193.657C160.743 193.814 161.28 193.898 161.836 193.898H164.753C165.586 193.898 166.376 193.709 167.081 193.371C167.786 193.709 168.576 193.898 169.409 193.898H172.326C173.159 193.898 173.949 193.709 174.654 193.371C175.359 193.709 176.149 193.898 176.982 193.898H179.899C180.919 193.898 181.874 193.614 182.69 193.121C184.042 193.789 185.612 194.154 187.338 194.154C188.362 194.154 189.389 194.012 190.378 193.737C190.803 193.843 191.242 193.898 191.687 193.898H194.604C195.166 193.898 195.708 193.812 196.218 193.652C196.728 193.812 197.27 193.898 197.832 193.898H200.749C201.811 193.898 202.803 193.59 203.64 193.059C204.477 193.59 205.469 193.898 206.531 193.898H209.448C209.989 193.898 210.512 193.816 211.005 193.667C211.499 193.816 212.022 193.898 212.563 193.898H215.479C216.63 193.898 217.697 193.537 218.574 192.923C219.921 193.712 221.527 194.154 223.3 194.154C223.802 194.154 224.256 194.136 224.7 194.094C224.782 194.991 225.087 195.866 225.605 196.633C226.612 198.126 228.289 199.018 230.091 199.018H233.085C235.311 199.018 237.282 197.683 238.107 195.62L245.295 177.702C245.966 176.03 245.764 174.141 244.759 172.655C243.752 171.161 242.075 170.27 240.274 170.27H237.23C235.941 170.27 234.742 170.714 233.797 171.489C232.852 170.715 231.651 170.27 230.373 170.27H227.457C226.828 169.12 225.787 168.208 224.495 167.757L221.785 166.811C221.209 166.609 220.609 166.508 219.999 166.508H219.769C219.376 166.508 218.991 166.55 218.622 166.63C218.523 166.548 218.418 166.473 218.315 166.396C220.242 166.135 222.18 165.765 224.317 165.249C233.186 163.108 239.381 155.238 239.381 146.108V136.254C239.381 129.666 236.113 123.547 230.64 119.886C230.64 119.886 230.232 119.613 230.19 119.586C231.774 118.66 233.222 117.512 234.493 116.172H243.713C251.796 116.172 258.964 111.323 261.976 103.818L292.39 28.0124C294.827 21.9382 294.095 15.0727 290.429 9.64548ZM177.503 149.615C175.426 149.615 173.617 150.793 172.711 152.516L171.358 152.044C170.783 151.842 170.182 151.74 169.573 151.74H169.342C166.614 151.74 164.351 153.77 163.983 156.399C163.297 156.854 162.726 157.465 162.307 158.175C160.777 156.564 158.657 155.523 156.178 155.295C160.73 151.686 163.664 146.119 163.664 139.87V132.767H169.54C171.799 132.767 173.971 132.384 175.993 131.679V132.138C175.993 138.686 177.458 144.598 180.111 149.615H177.503Z" fill="#5A60FE"/>
<path d="M274.127 0.986947C280.669 0.986947 286.763 4.22404 290.429 9.64548C294.095 15.0727 294.827 21.9382 292.39 28.0124L261.976 103.818C258.964 111.323 251.796 116.172 243.713 116.172H234.493C233.222 117.512 231.774 118.66 230.19 119.586C230.232 119.613 230.64 119.886 230.64 119.886C236.113 123.547 239.381 129.666 239.381 136.254V146.108C239.381 155.238 233.186 163.108 224.317 165.249C222.18 165.765 220.242 166.135 218.315 166.396C218.418 166.473 218.523 166.548 218.622 166.63C218.991 166.55 219.376 166.508 219.769 166.508H219.999C220.609 166.508 221.209 166.609 221.785 166.811L224.495 167.757C225.787 168.208 226.828 169.12 227.457 170.27H230.373C231.651 170.27 232.852 170.715 233.797 171.489C234.742 170.714 235.941 170.27 237.23 170.27H240.274C242.075 170.27 243.752 171.161 244.759 172.655C245.764 174.141 245.966 176.03 245.295 177.702L238.107 195.62C237.282 197.683 235.311 199.018 233.085 199.018H230.091C228.289 199.018 226.612 198.126 225.605 196.633C225.087 195.866 224.782 194.991 224.7 194.094C224.256 194.136 223.802 194.154 223.3 194.154C221.527 194.154 219.921 193.712 218.574 192.923C217.697 193.537 216.63 193.898 215.479 193.898H212.563C212.022 193.898 211.499 193.816 211.005 193.667C210.512 193.816 209.989 193.898 209.448 193.898H206.531C205.469 193.898 204.477 193.59 203.64 193.059C202.803 193.59 201.811 193.898 200.749 193.898H197.832C197.27 193.898 196.728 193.812 196.218 193.652C195.708 193.812 195.166 193.898 194.604 193.898H191.687C191.242 193.898 190.803 193.843 190.378 193.737C189.389 194.012 188.362 194.154 187.338 194.154C185.612 194.154 184.042 193.789 182.69 193.121C181.874 193.614 180.919 193.898 179.899 193.898H176.982C176.149 193.898 175.359 193.709 174.654 193.371C173.949 193.709 173.159 193.898 172.326 193.898H169.409C168.576 193.898 167.786 193.709 167.081 193.371C166.376 193.709 165.586 193.898 164.753 193.898H161.836C161.28 193.898 160.743 193.814 160.237 193.657C159.731 193.814 159.194 193.898 158.638 193.898H155.721C154.888 193.898 154.098 193.709 153.393 193.371C152.688 193.709 151.898 193.898 151.065 193.898H148.148C147.315 193.898 146.525 193.709 145.82 193.371C145.115 193.709 144.325 193.898 143.492 193.898H140.575C139.305 193.898 138.135 193.458 137.21 192.722C135.462 193.646 133.443 194.154 131.283 194.154C128.111 194.154 125.267 193.086 123.123 191.222C120.76 193.11 117.717 194.154 114.301 194.154C106.188 194.154 99.8327 187.728 99.8327 179.524C99.8327 171.32 106.188 164.894 114.301 164.894C119.389 164.894 123.713 167.269 126.076 171.1C127.645 170.399 129.407 170.014 131.283 170.014C132.864 170.014 134.368 170.286 135.747 170.794V159.559H131.646C127.028 159.559 122.775 157.959 119.415 155.284C116.055 157.959 111.802 159.559 107.183 159.559H94.8453C83.9938 159.559 75.1659 150.727 75.1659 139.87V138.34C68.0148 142.168 59.6145 144.206 50.3955 144.206C21.6018 144.206 1.49186 124.041 1.49186 95.1684V47.6272C1.49186 36.77 10.3198 27.9374 21.1713 27.9374H34.701C41.1025 27.9374 46.7988 31.0111 50.3955 35.7605C53.9922 31.0111 59.6885 27.9374 66.0901 27.9374H79.6197C90.4713 27.9374 99.2992 36.77 99.2992 47.6272V66.0326H107.183C109.118 66.0326 111.025 66.3153 112.852 66.8643C117.033 65.5923 121.336 64.9491 125.693 64.9491C129.846 64.9491 133.816 65.4962 137.52 66.5537V58.9297C137.52 57.4375 137.689 55.957 138.02 54.5158C136.694 51.2604 136.006 47.7686 136.006 44.2017C136.006 29.1046 148.282 16.8225 163.37 16.8225C178.458 16.8225 190.734 29.1046 190.734 44.2017C190.734 47.7686 190.046 51.2604 188.72 54.5158C188.941 55.482 189.091 56.4656 189.165 57.4587C191.203 56.7424 193.394 56.3521 195.673 56.3521H196.647C198.862 56.3521 201.044 56.7223 203.134 57.4529L214.269 61.3409L200.447 28.2739C197.899 22.1814 198.563 15.2621 202.221 9.76565C205.879 4.26827 212.003 0.986947 218.602 0.986947H232.239C237.865 0.986947 243.078 3.36069 246.735 7.34961C250.378 3.35588 255.578 0.986947 261.247 0.986947H274.127ZM162.307 158.175C162.726 157.465 163.297 156.854 163.983 156.399C164.351 153.77 166.614 151.74 169.342 151.74H169.573C170.182 151.74 170.783 151.842 171.358 152.044L172.711 152.516C173.617 150.793 175.426 149.615 177.503 149.615H180.111C177.458 144.598 175.993 138.686 175.993 132.138V131.679C173.971 132.384 171.799 132.767 169.54 132.767H163.664V139.87C163.664 146.119 160.73 151.686 156.178 155.295C158.657 155.523 160.777 156.564 162.307 158.175ZM274.127 0.00244141H261.247C255.791 0.00244141 250.56 2.15102 246.733 5.93123C242.893 2.15111 237.669 0.00244141 232.239 0.00244141H218.602C211.672 0.00244141 205.242 3.44838 201.402 9.22011C197.561 14.992 196.864 22.257 199.539 28.6538L212.51 59.6839L203.458 56.5234C201.265 55.7565 198.973 55.3676 196.647 55.3676H195.673C193.748 55.3676 191.851 55.6321 190.017 56.1551C189.946 55.6349 189.856 55.1153 189.746 54.6003C191.054 51.2859 191.718 47.7889 191.718 44.2018C191.718 28.5619 179.001 15.8379 163.37 15.8379C147.739 15.8379 135.022 28.5619 135.022 44.2018C135.022 47.7888 135.685 51.2856 136.994 54.6C136.69 56.0215 136.536 57.4763 136.536 58.9297V65.2706C133.086 64.4035 129.445 63.9647 125.693 63.9647C121.35 63.9647 117.03 64.5946 112.848 65.8374C111.008 65.3136 109.104 65.0481 107.183 65.0481H100.283V47.6272C100.283 36.2273 91.0135 26.9528 79.6197 26.9528H66.0901C59.9876 26.9528 54.3353 29.5751 50.3955 34.1907C46.4558 29.5751 40.8034 26.9528 34.7009 26.9528H21.1713C9.77739 26.9528 0.507812 36.2273 0.507812 47.6272V95.1684C0.507812 124.62 21.0224 145.19 50.3955 145.19C59.1234 145.19 67.1168 143.428 74.182 139.952C74.226 151.314 83.4786 160.544 94.8453 160.544H107.183C111.572 160.544 115.885 159.121 119.415 156.523C122.945 159.121 127.258 160.544 131.646 160.544H134.763V169.459C133.643 169.174 132.478 169.029 131.283 169.029C129.593 169.029 127.972 169.316 126.451 169.883C123.795 166.127 119.317 163.91 114.301 163.91C105.636 163.91 98.8487 170.768 98.8487 179.524C98.8487 188.28 105.636 195.139 114.301 195.139C117.608 195.139 120.632 194.219 123.1 192.471C125.369 194.196 128.244 195.139 131.283 195.139C133.334 195.139 135.339 194.7 137.12 193.866C138.146 194.525 139.351 194.883 140.575 194.883H143.492C144.299 194.883 145.08 194.735 145.82 194.444C146.56 194.735 147.341 194.883 148.148 194.883H151.065C151.871 194.883 152.653 194.735 153.393 194.444C154.133 194.735 154.914 194.883 155.721 194.883H158.638C159.179 194.883 159.716 194.815 160.237 194.68C160.758 194.815 161.295 194.883 161.836 194.883H164.753C165.56 194.883 166.341 194.735 167.081 194.444C167.821 194.735 168.603 194.883 169.409 194.883H172.326C173.133 194.883 173.914 194.735 174.654 194.444C175.395 194.735 176.176 194.883 176.982 194.883H179.899C180.883 194.883 181.85 194.656 182.727 194.223C184.129 194.831 185.678 195.139 187.338 195.139C188.366 195.139 189.394 195.008 190.398 194.751C190.823 194.839 191.255 194.883 191.687 194.883H194.604C195.151 194.883 195.693 194.813 196.218 194.676C196.743 194.813 197.285 194.883 197.832 194.883H200.749C201.759 194.883 202.747 194.645 203.64 194.191C204.533 194.645 205.521 194.883 206.531 194.883H209.448C209.972 194.883 210.494 194.818 211.005 194.689C211.516 194.818 212.039 194.883 212.563 194.883H215.479C216.586 194.883 217.657 194.601 218.611 194.062C220.016 194.768 221.624 195.139 223.3 195.139C223.5 195.139 223.693 195.136 223.879 195.13C224.059 195.862 224.368 196.56 224.791 197.185C225.98 198.949 227.962 200.002 230.091 200.002H233.085C235.715 200.002 238.045 198.426 239.02 195.986L246.209 178.069C247.001 176.093 246.764 173.863 245.574 172.103C244.385 170.339 242.403 169.285 240.274 169.285H237.23C236.008 169.285 234.814 169.634 233.797 170.277C232.779 169.634 231.588 169.285 230.372 169.285H228.008C227.239 168.145 226.125 167.283 224.818 166.828L223.645 166.418C223.943 166.35 224.243 166.279 224.547 166.206C233.86 163.958 240.365 155.693 240.365 146.108V136.254C240.365 129.657 237.245 123.508 231.971 119.619C233.023 118.893 234.007 118.069 234.909 117.157H243.713C252.2 117.157 259.727 112.065 262.889 104.185L293.304 28.3792C295.863 22.0008 295.093 14.7915 291.244 9.0942C287.395 3.40114 280.996 0.00244141 274.127 0.00244141ZM164.648 133.751H169.54C171.404 133.751 173.24 133.504 175.018 133.014C175.127 138.677 176.303 143.92 178.52 148.631H177.503C175.41 148.631 173.481 149.645 172.289 151.326L171.682 151.114C171.003 150.876 170.293 150.756 169.573 150.756H169.342C166.317 150.756 163.701 152.91 163.084 155.833C162.753 156.088 162.445 156.378 162.167 156.696C161.062 155.773 159.775 155.099 158.353 154.698C162.377 150.808 164.648 145.509 164.648 139.869V133.751Z" fill="#000433"/>
<path d="M282.279 15.1625C280.449 12.4552 277.395 10.8323 274.128 10.8323H261.248C257.189 10.8323 253.546 13.3262 252.076 17.1113L246.956 30.2952L241.31 16.8613C239.775 13.208 236.201 10.8323 232.24 10.8323H218.602C215.31 10.8323 212.236 12.4802 210.412 15.2221C208.587 17.9641 208.254 21.4367 209.525 24.4758L229.834 73.062L225.574 83.6933C224.037 82.6995 222.21 82.1159 220.244 82.1159H217.961V80.0479C217.961 75.8609 215.314 72.1325 211.363 70.7529L199.89 66.7467C198.847 66.3823 197.752 66.1967 196.648 66.1967H195.673C190.239 66.1967 185.833 70.6048 185.833 76.0416V82.1159H185.607C183.244 82.1159 181.076 82.9509 179.38 84.3404V58.9294C179.38 57.0796 178.87 55.3491 177.983 53.8704C179.822 51.0967 180.894 47.7721 180.894 44.2014C180.894 34.5334 173.033 26.6671 163.37 26.6671C153.707 26.6671 145.846 34.5334 145.846 44.2014C145.846 47.7721 146.918 51.0967 148.757 53.8704C147.871 55.3491 147.36 57.0796 147.36 58.9294V83.8589C142.406 78.1296 134.875 74.7942 125.693 74.7942C121.162 74.7942 116.677 75.7114 112.496 77.4343C110.963 76.4488 109.14 75.8777 107.184 75.8777H94.8455C92.856 75.8777 91.0074 76.4733 89.4592 77.4893V47.6277C89.4592 42.1908 85.0534 37.7827 79.6194 37.7827H66.0898C60.6558 37.7827 56.2501 42.1908 56.2501 47.6277V94.9525C56.2501 102.543 53.5364 102.543 50.3952 102.543C47.254 102.543 44.5404 102.543 44.5404 94.9525V47.6277C44.5404 42.1908 40.1346 37.7827 34.7007 37.7827H21.171C15.7371 37.7827 11.3313 42.1908 11.3313 47.6277V95.1688C11.3313 118.611 27.0297 134.361 50.3952 134.361C66.3771 134.361 78.7681 126.989 85.0058 114.831V139.87C85.0058 145.307 89.4116 149.715 94.8455 149.715H107.184C112.618 149.715 117.023 145.307 117.023 139.87V107.982C118.6 106.345 120.344 105.313 121.688 105.313C121.724 105.313 121.761 105.313 121.795 105.314C121.802 105.444 121.807 105.591 121.807 105.757V139.87C121.807 145.307 126.213 149.715 131.647 149.715H143.985C149.419 149.715 153.824 145.307 153.824 139.87V122.314C154.879 122.7 156.012 122.921 157.2 122.921H169.54C174.974 122.921 179.38 118.513 179.38 113.076V110.194C181.076 111.583 183.244 112.418 185.607 112.418H185.833V132.137C185.833 147.03 195.79 157.035 210.61 157.035C214.821 157.035 217.912 156.667 222.01 155.678C226.428 154.612 229.542 150.655 229.542 146.108V136.253C229.542 132.966 227.902 129.896 225.171 128.07L224.846 127.852C223.213 126.759 221.307 126.191 219.377 126.191C218.905 126.191 218.431 126.225 217.961 126.294V112.418H220.244C224.407 112.418 227.959 109.826 229.396 106.171C229.939 106.263 230.489 106.328 231.05 106.328H243.713C247.732 106.328 251.347 103.882 252.844 100.151L283.259 24.345C284.477 21.3108 284.109 17.8708 282.279 15.1625Z" fill="#000433"/>
<path d="M158.394 175.193H159.469C160.284 175.193 160.945 174.532 160.945 173.717V164.911C160.945 161.486 158.614 159.185 155.145 159.185C153.853 159.185 152.762 159.52 151.888 159.954C151.618 159.639 151.217 159.44 150.77 159.44H147.854C147.039 159.44 146.378 160.101 146.378 160.917V173.717C146.378 173.822 146.389 173.924 146.41 174.023C146.191 174.053 145.975 174.093 145.762 174.145C145.804 174.009 145.833 173.867 145.833 173.717V155.799C145.833 154.983 145.172 154.322 144.357 154.322H141.159C140.344 154.322 139.683 154.983 139.683 155.799V173.717C139.683 173.965 139.75 174.196 139.859 174.401C139.408 174.654 139.1 175.131 139.1 175.685V179.403C138.052 176.131 135.087 173.952 131.284 173.952C126.781 173.952 123.443 176.984 123.066 181.27C122.867 181.145 122.639 181.065 122.398 181.047L119.431 180.817C118.728 180.766 118.101 181.2 117.902 181.866C117.415 183.498 116.136 184.396 114.301 184.396C111.655 184.396 109.945 182.484 109.945 179.524C109.945 176.565 111.635 174.653 114.25 174.653C116.137 174.653 117.432 175.546 117.898 177.168C118.091 177.841 118.722 178.28 119.43 178.233L122.423 178.002C122.941 177.962 123.399 177.653 123.631 177.188L123.733 176.983C123.881 176.685 123.924 176.346 123.856 176.021C122.939 171.654 119.189 168.833 114.301 168.833C108.297 168.833 103.769 173.429 103.769 179.524C103.769 185.62 108.297 190.216 114.301 190.216C118.532 190.216 121.881 188.066 123.363 184.514C124.338 187.926 127.371 190.216 131.284 190.216C135.087 190.216 138.052 188.037 139.1 184.766V188.484C139.1 189.3 139.761 189.961 140.576 189.961H143.492C144.307 189.961 144.968 189.3 144.968 188.484V180.358C145.417 179.793 145.911 179.466 146.332 179.466C146.505 179.466 146.588 179.493 146.587 179.486C146.588 179.486 146.673 179.614 146.673 180.011V188.484C146.673 189.3 147.334 189.961 148.149 189.961H151.065C151.88 189.961 152.541 189.3 152.541 188.484V180.181C153.058 179.548 153.529 179.466 153.853 179.466C154.08 179.466 154.165 179.51 154.169 179.51C154.189 179.536 154.246 179.674 154.246 179.96V188.484C154.246 189.3 154.907 189.961 155.721 189.961H158.638C159.453 189.961 160.114 189.3 160.114 188.484V179.218C160.114 177.493 159.479 176.113 158.394 175.193ZM131.284 179.491C132.785 179.491 133.646 180.436 133.646 182.085C133.646 183.733 132.785 184.678 131.284 184.678C129.766 184.678 128.897 183.733 128.897 182.085C128.897 180.436 129.766 179.491 131.284 179.491ZM154.698 173.952C153.758 173.952 152.865 174.147 152.016 174.501C152.16 174.273 152.246 174.006 152.246 173.717V165.858C152.744 165.25 153.455 164.698 154.198 164.698C154.795 164.698 155.077 164.793 155.077 165.653V173.717C155.077 173.808 155.088 173.898 155.104 173.985C154.966 173.977 154.84 173.952 154.698 173.952Z" fill="#000433"/>
<path d="M205.124 173.952C203.832 173.952 202.741 174.287 201.867 174.721C201.863 174.717 201.858 174.713 201.854 174.709C203.754 173.831 205.131 172.198 205.781 169.924C205.869 169.618 205.854 169.294 205.744 169C205.931 168.752 206.042 168.445 206.042 168.11V167.214C206.042 162.412 202.94 159.185 198.323 159.185C194.852 159.185 191.98 161.399 190.909 164.56C190.718 161.328 188.375 159.185 184.949 159.185C183.827 159.185 182.792 159.434 181.896 159.811V155.03C181.896 154.215 181.235 153.554 180.42 153.554H177.503C176.689 153.554 176.027 154.215 176.027 155.03V159.736C175.782 159.553 175.48 159.44 175.15 159.44H173.761V158.102C173.761 157.474 173.364 156.915 172.771 156.708L170.059 155.761C169.903 155.706 169.738 155.678 169.573 155.678H169.342C168.528 155.678 167.866 156.339 167.866 157.155V159.44H166.963C166.148 159.44 165.487 160.101 165.487 160.917V163.426C165.487 164.242 166.148 164.903 166.963 164.903H167.866V170.414C167.866 171.899 168.337 173.122 169.162 173.994C168.973 173.978 168.791 173.952 168.591 173.952C167.584 173.952 166.63 174.173 165.756 174.602C165.493 174.357 165.14 174.208 164.753 174.208H161.837C161.022 174.208 160.361 174.869 160.361 175.685V188.484C160.361 189.3 161.022 189.961 161.837 189.961H164.753C165.568 189.961 166.229 189.3 166.229 188.484V180.358C166.678 179.793 167.172 179.466 167.594 179.466C167.767 179.466 167.85 179.493 167.848 179.486C167.849 179.486 167.934 179.614 167.934 180.011V188.484C167.934 189.3 168.595 189.961 169.41 189.961H172.326C173.141 189.961 173.802 189.3 173.802 188.484V180.181C174.319 179.548 174.79 179.466 175.115 179.466C175.341 179.466 175.426 179.51 175.43 179.51C175.45 179.536 175.507 179.674 175.507 179.96V188.484C175.507 189.3 176.168 189.961 176.983 189.961H179.899C180.714 189.961 181.375 189.3 181.375 188.484V179.218C181.375 177.493 180.74 176.113 179.655 175.193H180.42C181.235 175.193 181.896 174.532 181.896 173.717V165.757C182.491 165.096 183.278 164.698 184.027 164.698C184.979 164.698 185.059 165.17 185.059 165.653V173.717C185.059 173.89 185.094 174.053 185.149 174.208H182.989C182.174 174.208 181.513 174.869 181.513 175.685V184.311C181.513 187.898 183.799 190.216 187.338 190.216C188.474 190.216 189.585 189.954 190.586 189.467C190.857 189.77 191.25 189.961 191.687 189.961H194.604C195.419 189.961 196.08 189.3 196.08 188.484V175.685C196.08 175.489 196.04 175.303 195.97 175.132C196.121 175.174 196.276 175.208 196.431 175.242C196.387 175.383 196.356 175.529 196.356 175.685V188.484C196.356 189.3 197.018 189.961 197.832 189.961H200.749C201.564 189.961 202.225 189.3 202.225 188.484V180.625C202.723 180.018 203.434 179.466 204.177 179.466C204.774 179.466 205.056 179.56 205.056 180.42V188.484C205.056 189.3 205.717 189.961 206.532 189.961H209.448C210.263 189.961 210.924 189.3 210.924 188.484V179.678C210.924 176.253 208.593 173.952 205.124 173.952ZM198.374 170.013C197.784 170.013 197.307 169.867 196.953 169.587H199.809C199.514 169.837 199.07 170.013 198.374 170.013ZM176.027 164.608V170.332C175.944 170.247 175.856 170.168 175.76 170.105C175.415 169.876 174.992 169.804 174.589 169.903C174.282 169.979 174.097 170.012 173.761 170.013V164.903H175.15C175.48 164.903 175.782 164.791 176.027 164.608ZM191.687 174.208C190.873 174.208 190.211 174.869 190.211 175.685V183.562C189.65 184.283 188.958 184.704 188.311 184.704C187.59 184.704 187.382 184.489 187.382 183.748V175.685C187.382 175.511 187.346 175.348 187.292 175.193H189.451C190.266 175.193 190.927 174.532 190.927 173.717V170.294C191.487 171.96 192.522 173.309 193.912 174.208H191.687Z" fill="#000433"/>
<path d="M241.496 174.857C241.222 174.451 240.764 174.208 240.274 174.208H237.23C236.621 174.208 236.075 174.582 235.854 175.15L233.883 180.226L231.733 175.112C231.503 174.564 230.967 174.208 230.373 174.208H227.149C226.867 174.208 226.6 174.296 226.368 174.442C226.139 174.295 225.869 174.208 225.577 174.208H224.187V172.87C224.187 172.242 223.791 171.682 223.198 171.475L220.486 170.528C220.329 170.474 220.165 170.446 220 170.446H219.769C218.954 170.446 218.293 171.107 218.293 171.923V174.208H217.39C217.024 174.208 216.693 174.346 216.434 174.568C216.413 174.549 216.395 174.526 216.372 174.508C216.955 173.914 217.314 173.1 217.314 172.204C217.314 170.388 215.837 168.909 214.021 168.909C212.206 168.909 210.729 170.388 210.729 172.204C210.729 173.1 211.088 173.914 211.671 174.508C211.316 174.778 211.087 175.205 211.087 175.685V188.484C211.087 189.3 211.748 189.961 212.563 189.961H215.48C216.294 189.961 216.956 189.3 216.956 188.484V179.598C217.094 179.641 217.238 179.671 217.39 179.671H218.293V185.181C218.293 188.24 220.258 190.216 223.3 190.216C224.233 190.216 224.886 190.139 225.795 189.92C226.458 189.76 226.925 189.166 226.925 188.484V186.154C226.925 185.659 226.6 185.146 226.187 184.872C225.842 184.644 225.418 184.57 225.016 184.67C224.709 184.747 224.524 184.78 224.187 184.781V179.671H225.577C226.146 179.671 226.635 179.344 226.881 178.871L230.723 188.06L228.721 193.054C228.539 193.509 228.594 194.025 228.869 194.431C229.143 194.837 229.601 195.08 230.091 195.08H233.085C233.688 195.08 234.231 194.713 234.455 194.153L241.643 176.234C241.826 175.78 241.771 175.263 241.496 174.857Z" fill="#000433"/>
</svg>
