<svg width="529" height="200" viewBox="0 0 529 200" fill="none" xmlns="http://www.w3.org/2000/svg">
<path d="M519.689 103.315V86.153H475.023V17.4894H446.958V26.0675H438.022V68.9843H429.093V77.5686H412.496V68.9843H330.829V77.5686H323.169V68.9843H287.438V8.90505H251.706V0.320703H205.776V26.0675H144.513V17.4894H89.6467V26.0675H81.9866V17.4894H44.986V43.2369H37.3193V17.4894H0.318998V45.1867H9.25482V79.5185H18.1844V96.6879H27.1206V105.272H55.185V96.6879H62.8517V105.272H90.9162V88.1035H98.5826V122.435H153.449V96.6879H161.109V131.02H189.18V70.9404H196.84V131.02H232.571V139.604H259.366V148.182H305.303V139.604H312.963V148.182H384.426V165.351H393.361V173.936H430.362V165.351H438.022V173.936H455.888V182.514H464.824V199.683H519.689V148.182H528.619V103.315H519.689ZM259.366 60.3993H250.437V68.9843H241.507V77.5686H233.841V45.1867H251.706V36.6086H259.366V60.3993ZM491.619 137.647H483.959V131.02H491.619V137.647Z" fill="#FF96FF"/>
<path d="M520.008 200.002H464.505V182.833H455.569V174.255H437.703V165.669H430.681V174.255H393.042V165.669H384.107V148.501H312.644V139.923H305.622V148.501H259.047V139.923H232.252V131.338H196.521V71.2591H189.499V131.338H160.79V97.0065H153.768V122.753H98.2636V88.4222H91.235V105.591H62.5327V97.0065H55.5039V105.591H26.8016V97.0065H17.8656V79.8373H8.93597V45.5054H0V17.1706H37.6383V42.9183H44.6671V17.1706H82.3054V25.7488H89.3277V17.1706H144.832V25.7488H205.457V0.00195312H252.025V8.58627H287.757V68.6657H323.487V77.25H330.51V68.6657H412.815V77.25H428.774V68.6657H437.703V25.7488H446.639V17.1706H475.342V85.8343H520.008V102.997H528.938V148.501H520.008V200.002ZM465.143 199.365H519.371V147.863H528.3V103.634H519.371V86.4717H474.704V17.808H447.277V26.3862H438.341V69.3031H429.412V77.8874H412.177V69.3031H331.148V77.8874H322.85V69.3031H287.119V9.22366H251.387V0.639337H206.095V26.3862H144.194V17.808H89.9656V26.3862H81.6675V17.808H45.3051V43.5556H37.0004V17.808H0.637905V44.868H9.57388V79.2H18.5035V96.3691H27.4395V104.953H54.866V96.3691H63.1706V104.953H90.5971V87.7848H98.9016V122.116H153.13V96.3691H161.428V130.701H188.861V70.6217H197.159V130.701H232.89V139.285H259.685V147.863H304.984V139.285H313.282V147.863H384.745V165.032H393.68V173.617H430.043V165.032H438.341V173.617H456.207V182.195H465.143V199.365ZM491.938 137.966H483.64V130.701H491.938V137.966ZM484.277 137.329H491.3V131.338H484.277V137.329ZM241.826 77.8874H233.522V44.868H251.387V36.29H259.685V60.7179H250.756V69.3031H241.826V77.8874ZM234.16 77.25H241.188V68.6657H250.118V60.0806H259.047V36.9274H252.025V45.5054H234.16V77.25Z" fill="black"/>
<path d="M510.122 112.875V130.044H501.186V147.207H492.257V155.792H474.391V121.46H483.321V112.875H492.257V104.291H501.186V112.875H510.122V95.7126H483.321V104.291H474.391V112.875H465.455V155.792H456.526V87.1281H465.455V27.0492H456.526V35.6274H447.59V78.5436H438.66V87.1281H420.794V95.7126H411.858V138.623H420.794V147.207H402.929V78.5436H367.198V104.291H376.127V121.46H367.198V130.044H358.262V104.291H349.332V78.5436H340.396V121.46H349.332V138.623H376.127V130.044H385.063V95.7126H376.127V87.1281H393.993V155.792H402.929V164.376H420.794V155.792H429.724V147.207H438.66V121.46H447.59V164.376H465.455V172.954H474.391V190.123H510.122V164.376H501.186V181.539H483.321V164.376H501.186V155.792H510.122V138.623H519.052V112.875H510.122ZM429.724 112.875V130.044H420.794V104.291H429.724V95.7126H438.66V112.875H429.724Z" fill="#DEFC32"/>
<path d="M331.467 112.875H322.531V87.1281H313.601V78.5436H295.736V121.46H286.8V130.044H277.87V18.4647H268.934V69.9591H260.004V78.5436H251.075V87.1281H233.209V95.7126H224.273V104.291H215.344V78.5436H224.273V35.6274H242.139V27.0492H251.075V18.4647H242.139V9.88015H215.344V35.6274H197.478V44.2119H179.612V35.6274H134.945V27.0492H99.2142V35.6274H90.2846V61.381H81.3486V78.5436H90.2846V69.9591H99.2142V44.2119H108.15V35.6274H117.08V69.9591H126.016V44.2119H134.945V61.381H143.881V78.5436H134.945V104.291H117.08V69.9591H108.15V112.875H143.881V87.1281H152.811V52.7965H143.881V44.2119H170.676V121.46H179.612V61.381H188.542V52.7965H206.408V44.2119H215.344V69.9591H206.408V121.46H224.273V112.875H233.209V121.46H242.139V130.044H268.934V138.623H295.736V130.044H304.665V95.7126H313.601V121.46H322.531V138.623H331.467V130.044H340.396V121.46H331.467V112.875ZM224.273 18.4647H233.209V27.0492H224.273V18.4647ZM251.075 121.46V112.875H242.139V104.291H251.075V95.7126H260.004V121.46H251.075Z" fill="#DEFC32"/>
<path d="M72.419 27.0492H54.5534V52.7965H45.6175V69.9591H36.6879V61.381H27.7519V27.0492H9.88631V35.6274H18.8223V69.9591H27.7519V87.1281H36.6879V95.7126H45.6175V78.5436H54.5534V61.381H63.483V87.1281H72.419V95.7126H81.3486V78.5436H72.419V27.0492Z" fill="#DEFC32"/>
</svg>
