<svg width="253" height="200" viewBox="0 0 253 200" fill="none" xmlns="http://www.w3.org/2000/svg">
<path d="M223.788 172.218C223.951 171.146 224.035 170.046 224.035 168.931C224.035 157.723 215.621 148.49 204.777 147.212V113.294C232.003 109.051 252.842 85.46 252.842 56.9886C252.842 25.5144 227.378 0.00195312 195.964 0.00195312C164.55 0.00195312 139.086 25.5144 139.086 56.9886C139.086 59.0289 139.195 61.0443 139.404 63.0285H104.996C102.645 36.2724 80.2218 15.2907 52.9088 15.2907C24.027 15.2875 0.612305 38.7471 0.612305 67.6841C0.612305 96.6211 24.027 120.081 52.9088 120.081C55.9183 120.081 58.8685 119.821 61.7376 119.334V124.052C43.3252 125.936 28.9607 141.519 28.9607 160.466C28.9607 180.682 45.318 197.071 65.4956 197.071C82.1211 197.071 96.1487 185.947 100.574 170.721H180.442C181.353 181.964 190.743 190.806 202.198 190.806C204.684 190.806 207.066 190.384 209.293 189.619C210.852 195.593 216.276 200.002 222.728 200.002C230.397 200.002 236.615 193.771 236.615 186.088C236.615 178.405 230.961 172.762 223.788 172.218Z" fill="#DEFC32"/>
<path d="M98.8089 159.266H69.4531V154.411L80.5992 143.728C86.5526 137.969 91.1932 133.113 91.1932 126.664C91.1932 120.215 86.5558 116.884 80.3247 116.884C76.0335 116.884 72.8462 118.409 70.4948 120.074L69.5935 116.397C72.5718 113.275 77.1406 111.263 82.3331 111.263C91.8886 111.263 98.1883 117.09 98.1883 125.414C98.1883 132.907 92.7182 138.803 85.5173 145.531L77.9015 152.677V153.023H98.8089V159.266Z" fill="#330000"/>
<path d="M122.417 159.266V146.434H99.4326V141.715L123.318 112.097H128.72V140.4H139.173V146.434H128.72V159.266H122.417ZM106.216 140.05V140.397H122.417V120.212H122.071L106.216 140.05Z" fill="#330000"/>
<path d="M161.603 108.282L142.495 161.972H137.234L156.342 108.282H161.603Z" fill="#330000"/>
<path d="M189.505 118.409H163.957V112.097H195.25V116.953L173.51 159.266H165.616V159.129L189.502 118.759V118.412L189.505 118.409Z" fill="#330000"/>
<path d="M43.2503 82.7447C43.2503 67.831 53.913 57.7729 67.6911 57.7729C81.4693 57.7729 92.2005 67.831 92.2005 82.7447C92.2005 97.6585 81.5379 107.717 67.6911 107.717C53.8444 107.717 43.2503 97.6585 43.2503 82.7447ZM83.4059 82.7447C83.4059 72.6179 77.3121 65.5406 67.6911 65.5406C58.0701 65.5406 51.9763 72.6147 51.9763 82.7447C51.9763 92.8747 58.1387 99.9488 67.6911 99.9488C77.2435 99.9488 83.4059 92.8747 83.4059 82.7447Z" fill="#330000"/>
<path d="M96.4886 72.3398H104.382V76.8486C106.942 74.1427 111.168 71.6461 116.22 71.6461C123.767 71.6461 127.921 76.3643 127.921 83.1603V107.023H120.028V85.1725C120.028 80.9418 117.814 78.5828 113.66 78.5828C109.921 78.5828 106.528 81.2199 104.382 84.4102V107.023H96.4886V72.3398Z" fill="#330000"/>
<path d="M158.868 58.4665H167.038L184.971 107.023H175.902L172.786 98.2147H153.054L150.076 107.023H140.939L158.871 58.4665H158.868ZM170.154 90.6531L163.854 72.3398L163.093 67.0686H162.884L162.055 72.3398L155.687 90.6531H170.157H170.154Z" fill="#330000"/>
<path d="M186.078 62.9066C186.078 60.2007 188.292 57.9822 190.993 57.9822C193.693 57.9822 195.908 60.2007 195.908 62.9066C195.908 65.6125 193.693 67.831 190.993 67.831C188.292 67.831 186.078 65.6125 186.078 62.9066ZM187.045 72.3398H194.938V107.023H187.045V72.3398Z" fill="#330000"/>
<path d="M200.199 72.3398H208.092V76.6392C210.447 73.9333 213.768 71.6461 218.063 71.6461C219.31 71.6461 220.348 71.8555 221.041 72.2023L220.002 78.5828L219.725 78.7921C219.17 78.6546 218.549 78.5828 217.439 78.5828C213.631 78.5828 210.238 80.8012 208.092 85.0351V107.023H200.199V72.3398Z" fill="#330000"/>
<path d="M205.71 52.9328C205.376 52.9328 205.039 52.7985 204.796 52.5329C201.387 48.8521 196.753 46.7211 191.744 46.5336C186.733 46.3524 181.955 48.1241 178.281 51.5393C177.776 52.0079 176.987 51.9798 176.519 51.4736C176.051 50.9675 176.079 50.1769 176.585 49.7082C180.748 45.84 186.165 43.8215 191.841 44.0371C197.517 44.2495 202.769 46.6649 206.63 50.8362C207.097 51.3424 207.069 52.1329 206.564 52.6016C206.324 52.8235 206.018 52.936 205.716 52.936L205.71 52.9328Z" fill="#330000"/>
<path d="M213.21 46.3587C212.876 46.3587 212.539 46.2243 212.296 45.9587C207.026 40.2657 199.859 36.9723 192.112 36.6817C184.372 36.3849 176.974 39.1377 171.292 44.4214C170.787 44.8901 169.998 44.862 169.53 44.3558C169.062 43.8496 169.091 43.0591 169.596 42.5904C175.764 36.8567 183.792 33.8758 192.206 34.1852C200.617 34.5008 208.401 38.0784 214.124 44.262C214.591 44.7682 214.563 45.5588 214.058 46.0275C213.818 46.2493 213.512 46.3618 213.21 46.3618V46.3587Z" fill="#330000"/>
<path d="M221.484 38.669C221.15 38.669 220.813 38.5346 220.57 38.269C213.247 30.3638 203.293 25.7862 192.536 25.38C181.78 24.9832 171.511 28.7921 163.617 36.1287C163.112 36.5974 162.323 36.5693 161.855 36.0631C161.388 35.5569 161.416 34.7664 161.921 34.2977C179.22 18.2184 206.349 19.237 222.401 36.5693C222.868 37.0754 222.84 37.866 222.335 38.3347C222.095 38.5565 221.789 38.669 221.487 38.669H221.484Z" fill="#330000"/>
<path d="M36.5609 72.3742C36.5141 72.3742 36.4642 72.3742 36.4143 72.3648C35.7313 72.2867 35.2386 71.6649 35.3196 70.9806C36.4891 60.885 45.5269 51.0393 55.4692 49.0271C56.1459 48.8896 56.8039 49.327 56.938 50.0051C57.0753 50.6831 56.6387 51.3424 55.9619 51.4768C46.9989 53.289 38.8499 62.1661 37.799 71.268C37.7241 71.9055 37.1846 72.3742 36.5609 72.3742Z" fill="#330000"/>
<path d="M27.9971 74.352C27.9503 74.352 27.9004 74.352 27.8505 74.3427C27.1675 74.2645 26.6748 73.6428 26.7559 72.9585C28.4929 57.9478 41.9312 43.3059 56.7166 40.3157C57.3902 40.1782 58.0514 40.6156 58.1855 41.2937C58.3227 41.9717 57.8861 42.631 57.2094 42.7654C43.4063 45.5556 30.8537 59.2289 29.2352 73.2459C29.1603 73.8833 28.6208 74.352 27.9971 74.352Z" fill="#330000"/>
<path d="M18.3293 76.3049C18.2825 76.3049 18.2326 76.3049 18.1827 76.2955C17.4997 76.2174 17.007 75.5956 17.0881 74.9113C18.2357 65.0001 23.1008 54.9263 30.7883 46.5493C38.4757 38.1722 48.0873 32.4729 57.8518 30.4981C58.5285 30.3607 59.1866 30.7981 59.3207 31.4761C59.4579 32.1542 59.0213 32.8135 58.3445 32.9478C39.2086 36.8161 21.8128 55.77 19.5643 75.1988C19.4894 75.8362 18.9499 76.3049 18.3262 76.3049H18.3293Z" fill="#330000"/>
<path d="M73.866 171.58C70.1486 171.58 66.478 170.593 63.1816 168.665C58.2791 165.797 54.7831 161.185 53.3391 155.682C53.1645 155.014 53.5637 154.333 54.2279 154.155C54.8922 153.98 55.5752 154.38 55.753 155.045C57.0254 159.901 60.1097 163.972 64.4384 166.503C68.767 169.034 73.8192 169.728 78.6656 168.45C79.3299 168.275 80.0129 168.671 80.1906 169.34C80.3653 170.009 79.9661 170.69 79.3018 170.868C77.5023 171.343 75.6779 171.577 73.8629 171.577L73.866 171.58Z" fill="#330000"/>
<path d="M74.1155 181.489C60.144 181.489 47.3482 172.096 43.6339 157.938C43.4593 157.27 43.8585 156.589 44.5227 156.411C45.187 156.236 45.87 156.632 46.0478 157.301C50.1113 172.805 66.007 182.104 81.4817 178.03C82.146 177.855 82.829 178.255 83.0068 178.92C83.1814 179.589 82.7822 180.27 82.1179 180.448C79.4453 181.151 76.7601 181.489 74.1186 181.489H74.1155Z" fill="#330000"/>
</svg>
