<svg width="208" height="200" viewBox="0 0 208 200" fill="none" xmlns="http://www.w3.org/2000/svg">
<path d="M200.805 45.1206V32.3803H194.183V26.008H180.944V13.2682H167.705V6.89547H154.466V0.523232H80.7118V6.89547H60.8552V13.2682H47.6161V19.6358H40.994V26.008H34.3768V32.3803H27.7549V38.753H21.1377V45.1206H14.5156V57.8651H7.89838V64.2378H1.27652V84.8024H7.89838V142.14H14.5156V167.624H21.1377V180.369H27.7549V186.741H34.3768V193.109H47.6161V199.481H154.466V193.109H174.327V186.741H180.944V180.369H187.566V173.997H194.183V154.884H200.805V110.287H207.422V45.1206H200.805ZM41.9347 59.313H54.2334V83.3499H28.6954V72.0574H35.3175V65.6852H41.9347V59.313ZM114.748 26.008V21.0878H120.429V26.008H114.748ZM54.2334 154.884V166.177H48.5566V159.804H41.9347V153.432H35.3175V148.512H47.6161V154.884H54.2334ZM134.609 89.7221V84.8024H140.286V89.7221H134.609ZM160.147 110.287V115.207H154.466V110.287H160.147ZM113.807 103.914V110.287H133.669V134.32H127.987V127.947H94.8916V121.58H75.035V103.914H113.807ZM81.6522 40.2004H100.568V46.5726H113.807V83.3499H94.8916V45.1206H81.6522V40.2004ZM40.994 103.914V115.207H35.3175V108.835H28.6954V103.914H40.994ZM88.2695 167.624H107.19V173.997H113.807V178.916H88.2695V167.624ZM180.003 134.32H174.327V129.399H180.003V134.32ZM186.625 89.7221H161.088V65.6852H166.764V72.0574H180.003V78.4301H186.625V89.7221Z" fill="#99FFFC"/>
<path d="M154.986 200.002H47.096V193.63H33.8565V187.262H27.235V180.89H20.6178V168.145H13.9955V142.66H7.37832V85.3233H0.756836V63.7167H7.37832V57.344H13.9955V44.5998H20.6178V38.2319H27.235V31.8591H33.8565V25.4873H40.4737V19.115H47.096V12.7475H60.3355V6.37473H80.1914V0.00244141H154.986V6.37473H168.225V12.7475H181.464V25.4873H194.703V31.8591H201.325V44.5998H207.942V110.808H201.325V155.405H194.703V174.518H188.086V180.89H181.464V187.262H174.847V193.63H154.986V200.002ZM48.1361 198.961H153.946V192.588H173.807V186.22H180.424V179.848H187.046V173.476H193.663V154.363H200.285V109.766H206.902V45.6417H200.285V32.901H193.663V26.5292H180.424V13.7893H167.185V7.41661H153.946V1.04432H81.2315V7.41661H61.3756V13.7893H48.1361V20.1569H41.5138V26.5292H34.8966V32.901H28.2751V39.2737H21.6579V45.6417H15.0356V58.3858H8.41841V64.7586H1.79692V84.2814H8.41841V141.619H15.0356V167.103H21.6579V179.848H28.2751V186.22H34.8966V192.588H48.1361V198.961ZM114.328 179.437H87.7493V167.103H107.71V173.476H114.328V179.437ZM88.7894 178.395H113.288V174.518H106.67V168.145H88.7894V178.395ZM54.7533 166.697H48.0368V160.325H41.4144V153.952H34.7972V147.991H48.1361V154.363H54.7533V166.697ZM49.0769 165.656H53.7132V155.405H47.096V149.033H35.8373V152.911H42.4545V159.283H49.0769V165.656ZM180.524 134.84H173.807V128.878H180.524V134.84ZM174.847 133.798H179.483V129.92H174.847V133.798ZM134.189 134.84H127.467V128.468H94.3716V122.101H74.5149V103.394H114.328V109.766H134.189V134.84ZM128.507 133.798H133.149V110.808H113.288V104.435H75.555V121.059H95.4117V127.426H128.507V133.798ZM160.667 115.728H153.946V109.766H160.667V115.728ZM154.986 114.686H159.627V110.808H154.986V114.686ZM41.5138 115.728H34.7972V109.356H28.1758V103.394H41.5138V115.728ZM35.8373 114.686H40.4737V104.435H29.2158V108.314H35.8373V114.686ZM187.146 90.243H160.568V65.1641H167.284V71.5364H180.524V77.9091H187.146V90.243ZM161.608 89.2011H186.106V78.951H179.483V72.5782H166.244V66.206H161.608V89.2011ZM140.806 90.243H134.089V84.2814H140.806V90.243ZM135.129 89.2011H139.766V85.3233H135.129V89.2011ZM114.328 83.8707H94.3716V45.6417H81.1321V39.6797H101.088V46.0515H114.328V83.8707ZM95.4117 82.8288H113.288V47.0934H100.048V40.7215H82.1722V44.5998H95.4117V82.8288ZM54.7533 83.8707H28.1758V71.5364H34.7972V65.1641H41.4144V58.7922H54.7533V83.8707ZM29.2158 82.8288H53.7132V59.8341H42.4545V66.206H35.8373V72.5782H29.2158V82.8288ZM120.949 26.5292H114.227V20.5667H120.949V26.5292ZM115.268 25.4873H119.909V21.6086H115.268V25.4873Z" fill="black"/>
</svg>
