<svg width="389" height="200" viewBox="0 0 389 200" fill="none" xmlns="http://www.w3.org/2000/svg">
<path d="M370.166 0.540668H18.3038C8.53425 0.540668 0.614442 8.43536 0.614442 18.174V181.83C0.614442 191.569 8.53425 199.464 18.3038 199.464H370.166C379.935 199.464 387.855 191.569 387.855 181.83V18.174C387.855 8.43536 379.935 0.540668 370.166 0.540668Z" fill="#071907"/>
<path d="M370.166 200.002H18.304C8.25232 200.002 0.0742188 191.85 0.0742188 181.83V18.1739C0.0742188 8.15409 8.25232 0.00244141 18.304 0.00244141H370.166C380.217 0.00244141 388.395 8.15409 388.395 18.1739V181.83C388.395 191.85 380.217 200.002 370.166 200.002ZM18.304 1.0793C8.84785 1.0793 1.1545 8.74773 1.1545 18.1739V181.83C1.1545 191.257 8.84785 198.926 18.304 198.926H370.166C379.622 198.926 387.315 191.257 387.315 181.83V18.1739C387.315 8.74773 379.622 1.0793 370.166 1.0793H18.304Z" fill="#071907"/>
<path d="M103.101 186.823C151.517 186.823 190.766 147.698 190.766 99.4356C190.766 51.1728 151.517 12.048 103.101 12.048C54.6845 12.048 15.4352 51.1728 15.4352 99.4356C15.4352 147.698 54.6845 186.823 103.101 186.823Z" fill="#FAFAFA"/>
<path d="M103.02 12.0346V12.8669C117.793 12.8669 132.427 16.6461 145.341 23.7956C158.647 31.1628 169.826 41.9841 177.669 55.0895C202.2 96.0765 188.705 149.315 147.588 173.768C134.127 181.773 118.772 186.004 103.184 186.004C88.4093 186.004 73.7745 182.225 60.8616 175.076C47.5556 167.709 36.3763 156.888 28.5324 143.782C16.6495 123.927 13.2342 100.648 18.9158 78.2323C24.5975 55.817 38.6958 36.9488 58.6138 25.1036C72.0743 17.0985 87.429 12.8672 103.018 12.8669L103.02 12.0346ZM103.018 12.0346C87.7389 12.0348 72.2605 16.0186 58.186 24.3888C16.6069 49.1159 3.00949 102.761 27.8153 144.208C44.2243 171.625 73.3258 186.837 103.184 186.837C118.463 186.837 133.941 182.853 148.016 174.482C189.595 149.755 203.192 96.1104 178.386 54.6631C161.977 27.2459 132.876 12.034 103.018 12.0346Z" fill="#071907"/>
<path d="M51.3475 114.619L43.685 119.177L40.8449 114.429L61.5795 102.097L64.4208 106.845L56.7583 111.401L71.9964 136.861L66.5856 140.081L51.3475 114.619Z" fill="#071907"/>
<path d="M77.3339 118.416L65.996 99.4718L71.408 96.2534L82.6938 115.112C85.3278 119.513 88.9301 120.824 93.1281 118.325C97.3274 115.828 97.8822 112.047 95.2482 107.646L83.9612 88.7872L89.3719 85.5701L100.71 104.514C104.842 111.418 103.423 118.757 96.0215 123.158C88.6197 127.561 81.4649 125.32 77.3339 118.416Z" fill="#071907"/>
<path d="M95.2606 82.0684L101.192 78.5407L126.279 92.117L127.261 93.1699L127.391 93.0932L114.091 70.8691L119.503 67.6507L137.581 97.8583L131.65 101.386L106.561 87.8097L105.579 86.7567L105.449 86.8347L118.751 109.058L113.339 112.275L95.2606 82.0684Z" fill="#071907"/>
<path d="M125.392 64.149L144.525 52.7703L147.365 57.5168L133.643 65.6784L138.42 73.6618L150.975 66.1956L153.816 70.9421L141.262 78.4083L146.039 86.3917L160.238 77.948L163.08 82.6945L143.47 94.3566L125.392 64.149Z" fill="#071907"/>
<path d="M285.382 186.823C333.799 186.823 373.048 147.698 373.048 99.4356C373.048 51.1728 333.799 12.048 285.382 12.048C236.966 12.048 197.717 51.1728 197.717 99.4356C197.717 147.698 236.966 186.823 285.382 186.823Z" fill="#FAFAFA"/>
<path d="M285.382 12.8803C333.261 12.8803 372.213 51.7088 372.213 99.4356C372.213 147.162 333.261 185.991 285.382 185.991C237.504 185.991 198.552 147.162 198.552 99.4356C198.552 51.7088 237.504 12.8803 285.382 12.8803ZM285.382 12.048C236.966 12.048 197.717 51.1728 197.717 99.4356C197.717 147.698 236.966 186.823 285.382 186.823C333.799 186.823 373.048 147.698 373.048 99.4356C373.048 51.1728 333.799 12.048 285.382 12.048Z" fill="#071907"/>
<path d="M264.69 80.5168H270.991V115.691H264.69V80.5168Z" fill="#071907"/>
<path d="M277.846 80.5168H284.752L299.319 104.988L299.622 106.395H299.773V80.5168H306.074V115.691H299.168L284.6 91.2199L284.298 89.813H284.147V115.691H277.846V80.5168Z" fill="#071907"/>
</svg>
