<svg width="324" height="200" viewBox="0 0 324 200" fill="none" xmlns="http://www.w3.org/2000/svg">
<path d="M322.875 116.269V70.4025C322.875 68.144 321.048 66.3131 318.795 66.3131H295.929C293.675 66.3131 291.849 64.4822 291.849 62.2236V50.364C291.849 48.1054 290.022 46.2745 287.768 46.2745H200.251C197.997 46.2745 196.17 48.1054 196.17 50.364V62.2236C196.17 64.4822 194.344 66.3131 192.09 66.3131H162.178C159.924 66.3131 158.098 64.4822 158.098 62.2236V24.0631C158.098 21.8046 156.271 19.9736 154.017 19.9736H72.938C70.6845 19.9736 68.8577 18.1427 68.8577 15.8842V4.72522C68.8577 2.46668 67.031 0.635764 64.7775 0.635764H13.3139C11.0604 0.635764 9.23368 2.46668 9.23368 4.72522V69.9294C9.23368 72.1879 11.0604 74.0188 13.3139 74.0188H90.2448C92.4982 74.0188 94.325 75.8497 94.325 78.1083V79.9692C94.325 82.2278 92.4982 84.0587 90.2448 84.0587H63.8017C61.5483 84.0587 59.7215 85.8896 59.7215 88.1481V90.3067C59.7215 92.5652 57.8947 94.3961 55.6413 94.3961H5.39784C3.1444 94.3961 1.31762 96.2271 1.31762 98.4856V151.509C1.31762 153.767 3.1444 155.598 5.39784 155.598H116.56C118.814 155.598 120.64 157.429 120.64 159.687V195.279C120.64 197.538 122.467 199.369 124.721 199.369H301.778C304.031 199.369 305.858 197.538 305.858 195.279V132.626C305.858 130.368 304.031 128.537 301.778 128.537H165.141C162.887 128.537 161.06 126.706 161.06 124.448C161.06 122.189 162.887 120.358 165.141 120.358H318.795C321.048 120.358 322.875 118.527 322.875 116.269Z" fill="#FAFAFA"/>
<path d="M301.778 200.002H124.72C122.122 200.002 120.008 197.884 120.008 195.279V159.688C120.008 157.782 118.461 156.231 116.56 156.231H5.39773C2.7995 156.231 0.685547 154.113 0.685547 151.508V98.4856C0.685547 95.8815 2.7995 93.7628 5.39773 93.7628H55.6413C57.5425 93.7628 59.0894 92.2123 59.0894 90.3068V88.1481C59.0894 85.544 61.2034 83.4253 63.8016 83.4253H90.2449C92.146 83.4253 93.693 81.8748 93.693 79.9693V78.1083C93.693 76.2028 92.146 74.6524 90.2449 74.6524H13.3138C10.7156 74.6524 8.60162 72.5336 8.60162 69.9295V4.7253C8.60162 2.12118 10.7156 0.00244141 13.3138 0.00244141H64.7774C67.3759 0.00244141 69.4899 2.12118 69.4899 4.7253V15.8843C69.4899 17.7898 71.0368 19.3402 72.938 19.3402H154.018C156.616 19.3402 158.73 21.4589 158.73 24.0631V62.2235C158.73 64.1293 160.277 65.6797 162.178 65.6797H192.09C193.991 65.6797 195.538 64.1293 195.538 62.2235V50.3641C195.538 47.7597 197.652 45.6409 200.25 45.6409H287.768C290.367 45.6409 292.481 47.7597 292.481 50.3641V62.2235C292.481 64.1293 294.027 65.6797 295.929 65.6797H318.795C321.393 65.6797 323.507 67.7985 323.507 70.4026V116.269C323.507 118.873 321.393 120.992 318.795 120.992H165.14C163.239 120.992 161.692 122.542 161.692 124.448C161.692 126.353 163.239 127.903 165.14 127.903H301.778C304.376 127.903 306.49 130.022 306.49 132.627V195.279C306.49 197.884 304.376 200.002 301.778 200.002ZM5.39773 95.0297C3.49655 95.0297 1.9496 96.5801 1.9496 98.4856V151.508C1.9496 153.414 3.49655 154.964 5.39773 154.964H116.56C119.158 154.964 121.272 157.083 121.272 159.688V195.279C121.272 197.185 122.819 198.736 124.72 198.736H301.778C303.679 198.736 305.226 197.185 305.226 195.279V132.627C305.226 130.721 303.679 129.17 301.778 129.17H165.14C162.542 129.17 160.428 127.052 160.428 124.448C160.428 121.843 162.542 119.725 165.14 119.725H318.795C320.696 119.725 322.243 118.174 322.243 116.269V70.4026C322.243 68.4971 320.696 66.9466 318.795 66.9466H295.929C293.33 66.9466 291.216 64.8279 291.216 62.2235V50.3641C291.216 48.4583 289.67 46.9078 287.768 46.9078H200.25C198.349 46.9078 196.802 48.4583 196.802 50.3641V62.2235C196.802 64.8279 194.688 66.9466 192.09 66.9466H162.178C159.58 66.9466 157.466 64.8279 157.466 62.2235V24.0631C157.466 22.1576 155.919 20.6071 154.018 20.6071H72.938C70.3398 20.6071 68.2258 18.4884 68.2258 15.8843V4.7253C68.2258 2.81982 66.6789 1.26936 64.7774 1.26936H13.3138C11.4126 1.26936 9.86567 2.81982 9.86567 4.7253V69.9295C9.86567 71.835 11.4126 73.3855 13.3138 73.3855H90.2449C92.8431 73.3855 94.957 75.5042 94.957 78.1083V79.9693C94.957 82.5735 92.8431 84.6922 90.2449 84.6922H63.8016C61.9004 84.6922 60.3535 86.2427 60.3535 88.1481V90.3068C60.3535 92.9109 58.2395 95.0297 55.6413 95.0297H5.39773Z" fill="#0A0A0A"/>
<path d="M18.4614 67.6879C20.6307 64.8442 21.1313 61.6665 21.1313 55.5623V22.2805C21.1313 16.2592 20.6307 13.0815 18.4614 10.2391V9.90377H56.0071V19.6881H55.5898C53.8379 16.7616 50.0827 15.6739 42.8244 15.6739H29.3083V36.5802H40.4878C47.0795 36.5802 50.5 35.6596 52.002 33.4854H52.4193V45.2768H52.002C50.5 43.1856 47.0795 42.2662 40.4878 42.2662H29.3083V55.5623C29.3083 61.6665 29.8083 64.8442 32.3115 67.6879V68.022H18.4614V67.6879Z" fill="#FFFE49"/>
<path d="M32.9435 68.6554H17.8294V67.4735L17.9591 67.3032C19.9056 64.7516 20.4992 62.0084 20.4992 55.5624V22.2804C20.4992 15.9756 19.8819 13.1432 17.9594 10.6241L17.8294 10.4535V9.27034H56.6392V20.3215H55.2319L55.0476 20.0139C53.4716 17.3813 49.9303 16.3075 42.8243 16.3075H29.9404V35.9468H40.488C46.8277 35.9468 50.1158 35.1028 51.4823 33.1246L51.6708 32.8519H53.0512V45.9103H51.678L51.4889 45.6469C50.1245 43.7468 46.7315 42.8995 40.488 42.8995H29.9404V55.5624C29.9404 61.3041 30.3662 64.5203 32.7856 67.2689L32.9435 67.4485V68.6554ZM19.4498 67.3885H31.2509C29.0785 64.5056 28.6763 61.1581 28.6763 55.5624V41.6326H40.488C46.4052 41.6326 49.8979 42.3781 51.7871 44.0923V34.7021C49.9126 36.4736 46.4933 37.2137 40.488 37.2137H28.6763V15.0406H42.8243C49.6108 15.0406 53.3146 15.9783 55.3752 18.3211V10.5373H19.4495C21.3911 13.4787 21.7633 16.8941 21.7633 22.2804V55.5624C21.7633 60.9992 21.3911 64.4425 19.4498 67.3885Z" fill="#0A0A0A"/>
<path d="M49.4173 38.8373C49.4173 34.0707 48.9166 31.8136 47.3314 29.6395V29.1371L56.843 28.1335H57.0936V38.1691H57.5103C59.6801 30.8101 63.4346 27.3812 69.0244 27.3812C70.2757 27.3812 71.1937 27.5482 72.1116 27.7153V35.4096C71.027 35.0743 70.0257 34.9913 68.8577 34.9913C62.85 34.9913 57.0936 40.0079 57.0936 50.7116V58.3218C57.0936 63.0883 57.3436 65.3466 59.1795 67.6879V68.022H47.582V67.6879C49.1673 65.3466 49.4173 63.0883 49.4173 58.3218V38.8373Z" fill="#FFFE49"/>
<path d="M59.8114 68.6554H46.95V67.4933L47.0591 67.3323C48.5242 65.1679 48.7852 63.09 48.7852 58.3218V38.8372C48.7852 34.1963 48.3078 32.0523 46.8211 30.0135L46.6994 29.8465V28.5667L57.0936 27.5001H57.7256V35.5768C60.0544 29.6416 63.7678 26.7477 69.0245 26.7477C70.3326 26.7477 71.2942 26.9225 72.2244 27.0919L72.7435 27.1862V36.2679L71.9251 36.015C71.029 35.7378 70.1405 35.6248 68.8578 35.6248C61.1677 35.6248 57.7256 43.2023 57.7256 50.7116V58.3218C57.7256 63.1891 58.0076 65.1682 59.6762 67.2966L59.8114 67.4687V68.6554ZM48.5164 67.3885H58.1832C56.6428 65.058 56.4615 62.6046 56.4615 58.3218V50.7116C56.4615 39.4145 62.6874 34.3579 68.8578 34.3579C69.6664 34.3579 70.5345 34.3906 71.4794 34.5913V28.2456C70.7425 28.1179 69.9915 28.0146 69.0245 28.0146C63.6614 28.0146 60.1953 31.2984 58.1164 38.3488L57.9824 38.8026H56.4615V28.8109L48.137 29.6891C49.5767 31.8532 50.0493 34.1876 50.0493 38.8372V58.3218C50.0493 62.726 49.8248 65.1253 48.5164 67.3885Z" fill="#0A0A0A"/>
<path d="M61.0166 48.1192C61.0166 35.9949 69.5269 27.3812 80.9577 27.3812C92.3046 27.3812 100.732 35.9108 100.732 48.1192C100.732 60.3289 92.3046 69.0255 80.9577 69.0255C69.5269 69.0255 61.0166 60.3289 61.0166 48.1192ZM92.3879 48.1192C92.3879 38.6702 87.7994 32.9842 80.9577 32.9842C73.8654 32.9842 69.3602 38.8373 69.3602 48.1192C69.3602 57.4853 73.7821 63.4224 80.9577 63.4224C87.7994 63.4224 92.3879 57.6523 92.3879 48.1192Z" fill="#FFFE49"/>
<path d="M80.9577 69.6589C69.0367 69.6589 60.3847 60.6003 60.3847 48.1192C60.3847 35.7356 69.0367 26.7477 80.9577 26.7477C92.7817 26.7477 101.364 35.7356 101.364 48.1192C101.364 60.6003 92.7817 69.6589 80.9577 69.6589ZM80.9577 28.0146C69.7695 28.0146 61.6487 36.4697 61.6487 48.1192C61.6487 59.866 69.7695 68.392 80.9577 68.392C92.0492 68.392 100.1 59.866 100.1 48.1192C100.1 36.4697 92.0492 28.0146 80.9577 28.0146ZM80.9577 64.056C73.4142 64.056 68.7281 57.9494 68.7281 48.1192C68.7281 38.5401 73.5284 32.3509 80.9577 32.3509C88.2852 32.3509 93.0199 38.5401 93.0199 48.1192C93.0199 57.8004 88.2852 64.056 80.9577 64.056ZM80.9577 33.6178C74.194 33.6178 69.9921 39.1745 69.9921 48.1192C69.9921 57.1678 74.194 62.7891 80.9577 62.7891C87.6182 62.7891 91.7558 57.1678 91.7558 48.1192C91.7558 39.1745 87.6182 33.6178 80.9577 33.6178Z" fill="#0A0A0A"/>
<path d="M96.2282 38.8373C96.2282 34.0707 95.7276 31.8965 94.1423 29.6395V29.1371L103.654 28.1335H103.905V34.3219H104.321C107.075 29.7224 111.246 27.3812 116.169 27.3812C121.092 27.3812 125.264 30.0577 127.182 35.3255H127.516C130.436 30.1406 134.775 27.3812 139.864 27.3812C146.873 27.3812 152.296 32.566 152.296 41.9321V58.1547C152.296 62.9213 152.546 65.3466 154.132 67.6879V68.022H142.868V67.6879C144.369 65.3466 144.62 62.9213 144.62 58.1547V42.4332C144.62 36.329 141.867 33.4854 137.612 33.4854C132.773 33.4854 128.267 38.0008 128.267 44.8586V58.3218C128.267 63.0883 128.517 65.3466 130.103 67.6879V68.022H118.755V67.6879C120.174 65.3466 120.508 63.0883 120.508 58.3218V42.3503C120.508 36.5802 118.171 33.4854 113.499 33.4854C108.576 33.4854 103.905 38.0008 103.905 44.7744V58.2376C103.905 62.9213 104.155 65.2625 105.656 67.6879V68.022H94.3929V67.6879C96.0615 65.2625 96.2282 62.9213 96.2282 58.2376V38.8373Z" fill="#FFFE49"/>
<path d="M154.764 68.6554H142.236V67.502L142.337 67.3455C143.759 65.1277 143.988 62.8197 143.988 58.1548V42.4334C143.988 36.9942 141.783 34.1188 137.612 34.1188C133.329 34.1188 128.899 38.1361 128.899 44.8585V58.3218C128.899 63.0894 129.16 65.1673 130.626 67.3323L130.735 67.4933V68.6554H118.123V67.5107L118.215 67.359C119.503 65.2331 119.876 63.206 119.876 58.3218V42.3502C119.876 36.8884 117.73 34.1188 113.499 34.1188C109.094 34.1188 104.537 38.1046 104.537 44.7744V58.2377C104.537 62.7797 104.767 65.0502 106.194 67.3539L106.289 67.5074V68.6554H93.761V67.4906L93.8725 67.3284C95.4332 65.0601 95.5963 62.8164 95.5963 58.2377V38.8372C95.5963 34.2182 95.1356 32.1545 93.6253 30.0042L93.5102 29.8402V28.5667L103.905 27.5001H104.537V32.8318C107.356 28.8445 111.352 26.7477 116.169 26.7477C121.304 26.7477 125.361 29.4611 127.428 34.2323C130.428 29.3972 134.814 26.7477 139.864 26.7477C147.678 26.7477 152.928 32.8498 152.928 41.9321V58.1548C152.928 62.8284 153.168 65.1364 154.655 67.3323L154.764 67.4933V68.6554ZM143.781 67.3885H153.198C151.889 65.1162 151.664 62.6668 151.664 58.1548V41.9321C151.664 33.4775 147.032 28.0146 139.864 28.0146C134.954 28.0146 130.875 30.6503 128.067 35.6368L127.885 35.9588H126.74L126.589 35.5425C124.846 30.7584 121.048 28.0146 116.169 28.0146C111.371 28.0146 107.461 30.3084 104.863 34.6477L104.679 34.9553H103.273V28.8109L94.9394 29.69C96.3859 31.9268 96.8603 34.2546 96.8603 38.8372V58.2377C96.8603 62.6734 96.7066 65.055 95.3343 67.3885H104.753C103.489 65.0388 103.273 62.6389 103.273 58.2377V44.7744C103.273 37.3113 108.472 32.8519 113.499 32.8519C116.985 32.8519 121.14 34.4997 121.14 42.3502V58.3218C121.14 62.5506 120.915 64.9973 119.652 67.3885H129.168C127.859 65.1247 127.635 62.7257 127.635 58.3218V44.8585C127.635 37.3429 132.708 32.8519 137.612 32.8519C142.468 32.8519 145.252 36.3442 145.252 42.4334V58.1548C145.252 62.5704 145.029 65.0991 143.781 67.3885Z" fill="#0A0A0A"/>
<path d="M105.447 113.322C107.533 110.394 108.033 106.799 108.033 100.694V58.7997L106.114 55.7049V55.5378H118.212L147.498 101.949H147.915V68.4157C147.915 62.3115 147.414 58.7155 145.245 55.8731V55.5378H156.926V55.8731C154.84 58.7155 154.256 62.3115 154.256 68.4157V113.656H145.578L114.875 65.238H114.458V100.694C114.458 106.799 115.042 110.394 117.128 113.322V113.656H105.447V113.322Z" fill="#FFFE49"/>
<path d="M154.888 114.289H145.231L115.09 66.758V100.694C115.09 107.101 115.758 110.309 117.642 112.954L117.76 113.119V114.289H104.815V113.119L104.932 112.954C107.008 110.041 107.401 106.398 107.401 100.694V58.9805L105.482 55.8856V54.9043H118.56L147.283 100.423V68.4157C147.283 62.6893 146.878 59.0559 144.743 56.2583L144.613 56.0877V54.9043H157.558V56.0811L157.435 56.2487C155.555 58.8111 154.888 61.9952 154.888 68.4157V114.289ZM145.926 113.022H153.624V68.4157C153.624 63.0447 154.02 59.2391 155.958 56.1712H146.23C148.164 59.1403 148.547 62.8461 148.547 68.4157V102.582H147.149L117.864 56.1712H107.148L108.665 58.6189V100.694C108.665 106.251 108.292 109.961 106.404 113.022H116.169C114.223 109.877 113.826 106.061 113.826 100.694V64.6044H115.222L145.926 113.022Z" fill="#0A0A0A"/>
<path d="M184.796 108.471C180.875 112.485 176.119 114.66 170.279 114.66C158.849 114.66 150.088 106.464 150.088 93.5862C150.088 81.796 157.931 73.0152 168.527 73.0152C177.621 73.0152 184.296 78.7853 184.296 89.572V92.7497H157.764C158.098 102.785 163.855 108.137 172.282 108.137C176.703 108.137 180.208 106.882 183.879 104.374L184.796 108.471ZM158.098 87.8161H176.537C176.37 81.7118 173.032 78.1159 168.026 78.1159C162.52 78.1159 159.099 81.7118 158.098 87.8161Z" fill="#FFFE49"/>
<path d="M170.279 115.293C158.019 115.293 149.456 106.367 149.456 93.5862C149.456 81.4976 157.655 72.3817 168.527 72.3817C178.643 72.3817 184.928 78.9685 184.928 89.5718V93.3831H158.426C158.952 102.24 164.094 107.504 172.282 107.504C176.413 107.504 179.775 106.411 183.523 103.851L184.292 103.325L185.489 108.668L185.248 108.914C181.056 113.207 176.159 115.293 170.279 115.293ZM168.527 73.6486C158.375 73.6486 150.72 82.2199 150.72 93.5862C150.72 105.621 158.763 114.026 170.279 114.026C175.689 114.026 180.215 112.143 184.104 108.271L183.463 105.408C179.825 107.728 176.341 108.771 172.282 108.771C163.129 108.771 157.465 102.789 157.132 92.7707L157.111 92.1162H183.664V89.5718C183.664 79.7501 177.864 73.6486 168.527 73.6486ZM177.186 88.4494H157.353L157.474 87.7132C158.556 81.1155 162.304 77.4824 168.026 77.4824C173.492 77.4824 176.995 81.4354 177.169 87.7985L177.186 88.4494ZM158.857 87.1825H175.874C175.518 81.8871 172.619 78.7493 168.026 78.7493C163.209 78.7493 159.974 81.7358 158.857 87.1825Z" fill="#0A0A0A"/>
<path d="M179.625 100.193V84.053C179.625 79.4548 179.208 76.7782 177.706 74.3529V74.0188H187.301V100.109C187.301 105.879 190.138 108.555 194.226 108.555C199.065 108.555 203.821 104.207 203.821 97.2663V84.053C203.821 79.3706 203.32 76.6941 201.819 74.3529V74.0188H211.497V102.868C211.497 107.552 211.747 110.06 213.249 112.318V112.737L203.988 113.907H203.821V107.886H203.404C200.901 111.983 196.896 114.66 191.973 114.66C185.132 114.66 179.625 109.809 179.625 100.193Z" fill="#FFFE49"/>
<path d="M191.973 115.293C184.088 115.293 178.993 109.366 178.993 100.193V84.053C178.993 79.3131 178.516 76.8621 177.169 74.6869L177.074 74.5334V73.3852H187.933V100.109C187.933 105.147 190.168 107.922 194.226 107.922C198.632 107.922 203.189 103.936 203.189 97.2662V84.053C203.189 79.3935 202.673 76.8573 201.287 74.6953L201.187 74.5388V73.3852H212.129V102.868C212.129 107.449 212.367 109.85 213.775 111.967L213.881 112.126V113.295L203.821 114.541H203.189V109.348C200.431 113.143 196.409 115.293 191.973 115.293ZM178.608 74.6521C179.976 77.2114 180.257 80.0886 180.257 84.053V100.193C180.257 108.725 184.747 114.026 191.973 114.026C196.447 114.026 200.316 111.728 202.865 107.555L203.05 107.253H204.453V113.21L212.43 112.202C211.1 109.937 210.865 107.399 210.865 102.868V74.6521H202.734C203.979 76.8982 204.453 79.5575 204.453 84.053V97.2662C204.453 104.729 199.253 109.189 194.226 109.189C189.423 109.189 186.669 105.879 186.669 100.109V74.6521H178.608Z" fill="#0A0A0A"/>
<path d="M228.102 89.7402L247.375 113.572V113.656H237.196L222.512 94.9251L217.839 99.2734V103.789C217.839 108.638 218.09 110.979 219.591 113.322V113.656H208.328V113.322C209.913 110.979 210.164 108.638 210.164 103.789V64.2344C210.164 59.385 209.663 57.7961 208.078 55.5378V55.0366L217.589 54.0331H217.839V92.1644H218.173L229.437 81.2936C232.691 78.2 233.692 76.527 233.692 74.3529V74.0188H246.04V74.3529C242.286 76.6112 239.95 78.7012 235.194 83.0495L228.102 89.7402Z" fill="#FFFE49"/>
<path d="M248.008 114.289H236.889L222.439 95.8575L218.471 99.5498V103.789C218.471 108.452 218.701 110.76 220.123 112.979L220.223 113.136V114.289H207.696V113.127L207.805 112.966C209.271 110.8 209.532 108.679 209.532 103.789V64.2344C209.532 59.4716 209.063 58.0431 207.561 55.9024L207.446 55.7384V54.4664L217.839 53.3995H218.471V90.997L228.999 80.8374C232.074 77.9131 233.06 76.338 233.06 74.3529V73.3852H246.672V74.7115L246.365 74.8963C242.675 77.1159 240.404 79.1433 235.62 83.5175L228.962 89.7983L248.008 113.347V114.289ZM237.503 113.022H246.118L227.241 89.6824L234.761 82.5882C239.015 78.6979 241.311 76.6377 244.366 74.6521H234.318C234.229 76.9039 233.101 78.6832 229.872 81.7532L218.428 92.7977H217.207V54.7103L208.88 55.5891C210.287 57.7079 210.796 59.5094 210.796 64.2344V103.789C210.796 108.3 210.571 110.749 209.261 113.022H218.678C217.423 110.735 217.207 108.292 217.207 103.789V98.9971L222.585 93.9928L237.503 113.022Z" fill="#0A0A0A"/>
<path d="M233.861 93.7532C233.861 81.6289 242.371 73.0152 253.802 73.0152C265.149 73.0152 273.576 81.5448 273.576 93.7532C273.576 105.963 265.149 114.66 253.802 114.66C242.371 114.66 233.861 105.963 233.861 93.7532ZM240.536 61.225C240.536 58.3814 242.789 56.0402 245.793 56.0402C248.629 56.0402 250.965 58.3814 250.965 61.225C250.965 64.2344 248.629 66.5769 245.793 66.5769C242.789 66.5769 240.536 64.2344 240.536 61.225ZM265.232 93.7532C265.232 84.3042 260.644 78.6183 253.802 78.6183C246.71 78.6183 242.205 84.4713 242.205 93.7532C242.205 103.119 246.627 109.056 253.802 109.056C260.644 109.056 265.232 103.286 265.232 93.7532ZM256.472 61.225C256.472 58.3814 258.725 56.0402 261.729 56.0402C264.482 56.0402 266.901 58.3814 266.901 61.225C266.901 64.2344 264.565 66.5769 261.729 66.5769C258.725 66.5769 256.472 64.2344 256.472 61.225Z" fill="#FFFE49"/>
<path d="M253.802 115.293C241.881 115.293 233.229 106.234 233.229 93.7532C233.229 81.3696 241.881 72.3817 253.802 72.3817C265.626 72.3817 274.208 81.3696 274.208 93.7532C274.208 106.234 265.626 115.293 253.802 115.293ZM253.802 73.6486C242.614 73.6486 234.493 82.1037 234.493 93.7532C234.493 105.5 242.614 114.026 253.802 114.026C264.894 114.026 272.944 105.5 272.944 93.7532C272.944 82.1037 264.894 73.6486 253.802 73.6486ZM253.802 109.69C246.259 109.69 241.573 103.583 241.573 93.7532C241.573 84.1741 246.373 77.9849 253.802 77.9849C261.13 77.9849 265.864 84.1741 265.864 93.7532C265.864 103.434 261.13 109.69 253.802 109.69ZM253.802 79.2518C247.039 79.2518 242.837 84.8084 242.837 93.7532C242.837 102.802 247.039 108.423 253.802 108.423C260.463 108.423 264.6 102.802 264.6 93.7532C264.6 84.8084 260.463 79.2518 253.802 79.2518ZM261.729 67.2104C258.427 67.2104 255.84 64.5813 255.84 61.2251C255.84 57.9626 258.427 55.4068 261.729 55.4068C264.875 55.4068 267.533 58.0713 267.533 61.2251C267.533 64.5254 264.929 67.2104 261.729 67.2104ZM261.729 56.6737C259.135 56.6737 257.104 58.6729 257.104 61.2251C257.104 63.9148 259.092 65.9434 261.729 65.9434C264.232 65.9434 266.269 63.8268 266.269 61.2251C266.269 58.7579 264.19 56.6737 261.729 56.6737ZM245.793 67.2104C242.491 67.2104 239.904 64.5813 239.904 61.2251C239.904 57.9626 242.491 55.4068 245.793 55.4068C248.993 55.4068 251.597 58.0169 251.597 61.2251C251.597 64.5254 248.993 67.2104 245.793 67.2104ZM245.793 56.6737C243.2 56.6737 241.168 58.6729 241.168 61.2251C241.168 63.9148 243.156 65.9434 245.793 65.9434C248.296 65.9434 250.333 63.8268 250.333 61.2251C250.333 58.7156 248.296 56.6737 245.793 56.6737Z" fill="#0A0A0A"/>
<path d="M266.987 113.322C268.572 110.979 268.823 108.555 268.823 103.789V64.3186C268.823 59.385 268.405 57.879 266.737 55.5378V55.0366L276.248 54.0331H276.498V103.789C276.498 108.555 276.749 110.979 278.25 113.322V113.656H266.987V113.322Z" fill="#FFFE49"/>
<path d="M278.883 114.289H266.355V113.127L266.464 112.966C267.951 110.769 268.191 108.461 268.191 103.789V64.3185C268.191 59.3713 267.771 58.0794 266.223 55.906L266.105 55.7408V54.4664L276.499 53.3995H277.131V103.789C277.131 108.453 277.36 110.761 278.782 112.979L278.883 113.136V114.289ZM267.921 113.022H277.338C276.09 110.732 275.867 108.204 275.867 103.789V54.7103L267.542 55.5888C269.088 57.8875 269.455 59.6722 269.455 64.3185V103.789C269.455 108.3 269.23 110.749 267.921 113.022Z" fill="#0A0A0A"/>
<path d="M273.244 113.322C274.829 110.979 275.08 108.555 275.08 103.789V64.3186C275.08 59.385 274.663 57.879 272.994 55.5378V55.0366L282.506 54.0331H282.756V103.789C282.756 108.555 283.006 110.979 284.508 113.322V113.656H273.244V113.322Z" fill="#FFFE49"/>
<path d="M285.14 114.289H272.612V113.127L272.721 112.966C274.208 110.769 274.448 108.461 274.448 103.789V64.3185C274.448 59.371 274.028 58.0791 272.48 55.906L272.362 55.7408V54.4664L282.756 53.3995H283.388V103.789C283.388 108.453 283.617 110.761 285.039 112.979L285.14 113.136V114.289ZM274.178 113.022H283.595C282.347 110.732 282.124 108.204 282.124 103.789V54.7103L273.799 55.5888C275.345 57.8872 275.712 59.6719 275.712 64.3185V103.789C275.712 108.3 275.487 110.749 274.178 113.022Z" fill="#0A0A0A"/>
<path d="M281.504 84.4713C281.504 79.7047 281.003 77.4477 279.418 75.2735V74.7711L289.013 73.7676H289.263V79.8718H289.597C292.517 75.4406 296.522 73.0152 301.277 73.0152C308.703 73.0152 314.377 78.1159 314.377 88.1514V103.872C314.377 108.638 314.627 110.897 316.212 113.322V113.656H304.949V113.322C306.451 110.897 306.701 108.638 306.701 103.872V88.3185C306.701 82.2142 303.614 79.1194 299.192 79.1194C294.186 79.1194 289.263 83.4677 289.263 90.5755V103.872C289.263 108.638 289.597 110.979 291.015 113.322V113.656H279.752V113.322C281.337 110.979 281.504 108.638 281.504 103.872V84.4713Z" fill="#FFFE49"/>
<path d="M316.844 114.289H304.317V113.141L304.412 112.988C305.818 110.716 306.069 108.624 306.069 103.872V88.3184C306.069 82.875 303.562 79.7528 299.192 79.7528C293.373 79.7528 289.895 85.2557 289.895 90.5756V103.872C289.895 108.761 290.283 110.892 291.555 112.993L291.647 113.145V114.289H279.12V113.127L279.228 112.966C280.716 110.768 280.872 108.507 280.872 103.872V84.4714C280.872 79.8303 280.394 77.6863 278.907 75.6475L278.786 75.4805V74.2L289.263 73.134H289.895V78.3576C292.885 74.4412 296.795 72.3817 301.277 72.3817C309.747 72.3817 315.009 78.4243 315.009 88.1514V103.872C315.009 108.634 315.271 110.725 316.741 112.975L316.844 113.133V114.289ZM305.853 113.022H315.289C313.97 110.687 313.745 108.282 313.745 103.872V88.1514C313.745 79.2058 308.967 73.6486 301.277 73.6486C296.815 73.6486 292.958 75.9214 290.124 80.221L289.937 80.5052H288.631V74.4445L280.224 75.3237C281.663 77.4875 282.136 79.8222 282.136 84.4714V103.872C282.136 108.347 281.989 110.746 280.684 113.022H290.12C288.864 110.625 288.631 108.066 288.631 103.872V90.5756C288.631 84.6327 292.581 78.4859 299.192 78.4859C304.289 78.4859 307.333 82.1617 307.333 88.3184V103.872C307.333 108.273 307.117 110.672 305.853 113.022Z" fill="#0A0A0A"/>
<path d="M16.5851 137.69V114.276H8.49213V109.426C16.5018 109.258 17.7531 107.837 18.087 98.9725H24.2614V108.757H35.441V114.276H24.2614V137.439C24.2614 141.704 26.0134 143.627 29.7679 143.627C31.6031 143.627 33.3557 143.293 35.1076 142.373L35.9416 146.554C33.6057 148.31 30.6858 149.398 27.5153 149.398C21.0909 149.398 16.5851 145.719 16.5851 137.69Z" fill="#FFFE49"/>
<path d="M27.5154 150.031C20.1672 150.031 15.9531 145.533 15.9531 137.69V114.909H7.86021V108.806L8.47905 108.793C16.1254 108.632 17.132 107.528 17.4554 98.9485L17.4785 98.3391H24.8935V108.123H36.0731V114.909H24.8935V137.439C24.8935 141.333 26.3514 142.994 29.7678 142.994C31.6755 142.994 33.2791 142.618 34.8141 141.812L35.5618 141.418L36.6395 146.821L36.3209 147.061C33.7361 149.004 30.6911 150.031 27.5154 150.031ZM9.12426 113.642H17.2171V137.69C17.2171 144.831 20.8744 148.764 27.5154 148.764C30.2856 148.764 32.9486 147.907 35.2423 146.281L34.6472 143.297C33.1524 143.953 31.5808 144.261 29.7678 144.261C25.6373 144.261 23.6294 142.029 23.6294 137.439V113.642H34.809V109.39H23.6294V99.606H18.6937C18.3092 108.079 16.7406 109.802 9.12426 110.043V113.642Z" fill="#0A0A0A"/>
<path d="M25.3473 128.491C25.3473 116.367 33.8576 107.753 45.2884 107.753C56.6352 107.753 65.0622 116.283 65.0622 128.491C65.0622 140.701 56.6352 149.398 45.2884 149.398C33.8576 149.398 25.3473 140.701 25.3473 128.491ZM56.7186 128.491C56.7186 119.042 52.1301 113.356 45.2884 113.356C38.1961 113.356 33.6909 119.209 33.6909 128.491C33.6909 137.857 38.1127 143.794 45.2884 143.794C52.1301 143.794 56.7186 138.024 56.7186 128.491Z" fill="#FFFE49"/>
<path d="M45.2882 150.031C33.3672 150.031 24.7152 140.972 24.7152 128.491C24.7152 116.108 33.3672 107.12 45.2882 107.12C57.1121 107.12 65.6941 116.108 65.6941 128.491C65.6941 140.972 57.1121 150.031 45.2882 150.031ZM45.2882 108.387C34.1 108.387 25.9792 116.842 25.9792 128.491C25.9792 140.238 34.1 148.764 45.2882 148.764C56.3797 148.764 64.43 140.238 64.43 128.491C64.43 116.842 56.3797 108.387 45.2882 108.387ZM45.2882 144.428C37.7447 144.428 33.0589 138.321 33.0589 128.491C33.0589 118.912 37.8592 112.723 45.2882 112.723C52.616 112.723 57.3507 118.912 57.3507 128.491C57.3507 138.172 52.616 144.428 45.2882 144.428ZM45.2882 113.99C38.5247 113.99 34.3229 119.547 34.3229 128.491C34.3229 137.54 38.5247 143.161 45.2882 143.161C51.9489 143.161 56.0866 137.54 56.0866 128.491C56.0866 119.547 51.9489 113.99 45.2882 113.99Z" fill="#0A0A0A"/>
<path d="M78.1622 137.69V114.276H70.0692V109.426C78.0789 109.258 79.3302 107.837 79.6641 98.9725H85.8385V108.757H97.0181V114.276H85.8385V137.439C85.8385 141.704 87.5905 143.627 91.345 143.627C93.1802 143.627 94.9328 143.293 96.6847 142.373L97.5187 146.554C95.1828 148.31 92.2629 149.398 89.0924 149.398C82.668 149.398 78.1622 145.719 78.1622 137.69Z" fill="#FFFE49"/>
<path d="M89.0923 150.031C81.7444 150.031 77.5303 145.533 77.5303 137.69V114.909H69.4371V108.806L70.056 108.793C77.7026 108.632 78.7092 107.528 79.0323 98.9485L79.0554 98.3391H86.4707V108.123H97.65V114.909H86.4707V137.439C86.4707 141.333 87.9286 142.994 91.345 142.994C93.2528 142.994 94.8563 142.618 96.3913 141.812L97.139 141.418L98.2167 146.821L97.8981 147.061C95.3128 149.004 92.268 150.031 89.0923 150.031ZM70.7012 113.642H78.7943V137.69C78.7943 144.831 82.4517 148.764 89.0923 148.764C91.8625 148.764 94.5255 147.907 96.8195 146.281L96.2244 143.297C94.7296 143.953 93.1581 144.261 91.345 144.261C87.2145 144.261 85.2066 142.029 85.2066 137.439V113.642H96.3859V109.39H85.2066V99.606H80.2706C79.8864 108.079 78.3179 109.802 70.7012 110.043V113.642Z" fill="#0A0A0A"/>
<path d="M91.0122 99.809C91.0122 95.1265 90.5116 92.45 88.9263 90.1929V89.7747L98.4379 88.7711H98.6879V114.61H99.1052C101.942 110.261 105.864 107.753 110.953 107.753C118.212 107.753 123.885 112.854 123.885 122.889V138.527C123.885 143.293 124.135 145.719 125.721 148.06V148.394H114.457V148.06C115.875 145.719 116.126 143.293 116.126 138.527V123.056C116.126 117.035 113.289 113.857 108.617 113.857C103.527 113.857 98.6879 118.457 98.6879 125.314V138.527C98.6879 143.293 99.0219 145.719 100.524 148.06V148.394H89.2603V148.06C90.8449 145.719 91.0122 143.293 91.0122 138.527V99.809Z" fill="#FFFE49"/>
<path d="M126.353 149.027H113.825V147.883L113.917 147.731C115.266 145.503 115.494 143.091 115.494 138.527V123.057C115.494 117.533 113.051 114.491 108.617 114.491C104.047 114.491 99.3198 118.539 99.3198 125.313V138.527C99.3198 143.497 99.7256 145.644 101.056 147.717L101.156 147.874V149.027H88.6284V147.865L88.7372 147.704C90.2248 145.506 90.3803 143.22 90.3803 138.527V99.809C90.3803 95.1105 89.846 92.6031 88.4093 90.5576L88.2942 90.3936V89.2042L98.6878 88.1376H99.3198V113.196C102.324 109.162 106.232 107.12 110.953 107.12C119.193 107.12 124.517 113.31 124.517 122.89V138.527C124.517 143.2 124.757 145.508 126.244 147.704L126.353 147.865V149.027ZM115.351 147.761H124.787C123.478 145.488 123.253 143.039 123.253 138.527V122.89C123.253 112.197 116.899 108.387 110.953 108.387C106.286 108.387 102.478 110.597 99.6345 114.956L99.4472 115.243H98.0557V89.4484L89.7702 90.3227C91.1295 92.5091 91.6444 95.1727 91.6444 99.809V138.527C91.6444 142.954 91.4918 145.471 90.1912 147.761H99.6096C98.2994 145.38 98.0557 142.787 98.0557 138.527V125.313C98.0557 117.746 103.425 113.224 108.617 113.224C113.791 113.224 116.758 116.808 116.758 123.057V138.527C116.758 142.933 116.545 145.456 115.351 147.761Z" fill="#0A0A0A"/>
<path d="M153.256 143.209C149.335 147.223 144.579 149.398 138.739 149.398C127.308 149.398 118.548 141.202 118.548 128.324C118.548 116.534 126.391 107.753 136.987 107.753C146.081 107.753 152.755 113.523 152.755 124.311V127.488H126.224C126.557 137.523 132.314 142.875 140.741 142.875C145.163 142.875 148.668 141.62 152.339 139.112L153.256 143.209ZM126.557 122.554H144.996C144.83 116.45 141.492 112.854 136.486 112.854C130.98 112.854 127.558 116.45 126.557 122.554Z" fill="#FFFE49"/>
<path d="M138.739 150.031C126.478 150.031 117.916 141.105 117.916 128.324C117.916 116.236 126.114 107.12 136.987 107.12C147.103 107.12 153.387 113.707 153.387 124.311V128.121H126.886C127.412 136.979 132.553 142.242 140.741 142.242C144.873 142.242 148.235 141.149 151.983 138.588L152.752 138.063L153.948 143.407L153.708 143.653C149.515 147.945 144.619 150.031 138.739 150.031ZM136.987 108.387C126.835 108.387 119.18 116.958 119.18 128.324C119.18 140.359 127.223 148.764 138.739 148.764C144.149 148.764 148.675 146.881 152.563 143.009L151.922 140.146C148.286 142.466 144.801 143.509 140.741 143.509C131.588 143.509 125.925 137.528 125.592 127.509L125.57 126.854H152.123V124.311C152.123 114.489 146.323 108.387 136.987 108.387ZM145.646 123.188H125.813L125.934 122.451C127.016 115.854 130.763 112.22 136.486 112.22C141.951 112.22 145.454 116.174 145.628 122.537L145.646 123.188ZM127.317 121.921H144.334C143.978 116.625 141.079 113.487 136.486 113.487C131.668 113.487 128.433 116.474 127.317 121.921Z" fill="#0A0A0A"/>
<path d="M140.073 148.189C138.571 142.588 137.236 138.992 134.65 135.48V135.145H148.25V135.48C146.581 139.159 147.081 142.503 148.5 147.94L157.594 181.974H157.928L170.443 139.66L168.941 135.145H178.703L191.552 181.471H191.969L201.23 147.772C202.732 142.252 203.233 138.74 201.731 135.48V135.145H213.077V135.48C210.324 138.908 208.989 142.504 207.488 147.855L194.639 193.263H187.046L174.448 147.604H174.03L160.264 193.263H152.421L140.073 148.189Z" fill="#FFFE49"/>
<path d="M195.117 193.896H186.565L174.221 149.161L160.733 193.896H151.939L139.462 148.354C138.021 142.978 136.747 139.394 134.141 135.856L134.017 135.688V134.511H148.882V135.617L148.825 135.742C147.274 139.161 147.66 142.218 149.111 147.779L157.783 180.233L169.78 139.671L168.064 134.511H179.183L191.758 179.852L200.62 147.604C202.065 142.295 202.578 138.832 201.157 135.745L201.099 135.619V134.511H213.709V135.703L213.57 135.877C210.901 139.199 209.588 142.71 208.096 148.027L195.117 193.896ZM187.527 192.629H194.161L206.88 147.682C208.314 142.568 209.599 139.063 212.047 135.778H202.545C203.828 139.06 203.28 142.645 201.84 147.939L192.451 182.105H191.071L178.222 135.778H169.818L171.105 139.649L158.4 182.607H157.109L147.889 148.104C146.464 142.644 146.019 139.309 147.435 135.778H135.639C138.036 139.258 139.324 142.956 140.683 148.023L152.903 192.629H159.794L173.561 146.971H174.929L187.527 192.629Z" fill="#0A0A0A"/>
<path d="M198.232 173.36C198.232 161.236 206.743 152.622 218.173 152.622C229.52 152.622 237.947 161.152 237.947 173.36C237.947 185.57 229.52 194.266 218.173 194.266C206.743 194.266 198.232 185.57 198.232 173.36ZM229.604 173.36C229.604 163.911 225.015 158.225 218.173 158.225C211.081 158.225 206.576 164.078 206.576 173.36C206.576 182.726 210.998 188.663 218.173 188.663C225.015 188.663 229.604 182.893 229.604 173.36Z" fill="#FFFE49"/>
<path d="M218.173 194.9C206.252 194.9 197.6 185.841 197.6 173.36C197.6 160.976 206.252 151.988 218.173 151.988C229.997 151.988 238.579 160.976 238.579 173.36C238.579 185.841 229.997 194.9 218.173 194.9ZM218.173 153.255C206.985 153.255 198.864 161.71 198.864 173.36C198.864 185.107 206.985 193.633 218.173 193.633C229.265 193.633 237.315 185.107 237.315 173.36C237.315 161.71 229.265 153.255 218.173 153.255ZM218.173 189.297C210.63 189.297 205.944 183.19 205.944 173.36C205.944 163.781 210.744 157.592 218.173 157.592C225.501 157.592 230.236 163.781 230.236 173.36C230.236 183.041 225.501 189.297 218.173 189.297ZM218.173 158.859C211.41 158.859 207.208 164.415 207.208 173.36C207.208 182.409 211.41 188.03 218.173 188.03C224.834 188.03 228.972 182.409 228.972 173.36C228.972 164.415 224.834 158.859 218.173 158.859Z" fill="#0A0A0A"/>
<path d="M233.444 164.078C233.444 159.311 232.943 157.054 231.358 154.88V154.378L240.87 153.374H241.12V163.41H241.537C243.707 156.051 247.461 152.622 253.051 152.622C254.302 152.622 255.22 152.789 256.138 152.956V160.65C255.054 160.315 254.052 160.232 252.884 160.232C246.877 160.232 241.12 165.249 241.12 175.952V183.563C241.12 188.329 241.37 190.587 243.206 192.929V193.263H231.609V192.929C233.194 190.587 233.444 188.329 233.444 183.563V164.078Z" fill="#FFFE49"/>
<path d="M243.838 193.896H230.976V192.734L231.086 192.573C232.551 190.408 232.812 188.33 232.812 183.563V164.078C232.812 159.437 232.335 157.293 230.848 155.254L230.726 155.087V153.807L241.12 152.741H241.752V160.818C244.081 154.883 247.794 151.988 253.051 151.988C254.361 151.988 255.322 152.164 256.251 152.333L256.77 152.428V161.509L255.952 161.256C255.056 160.979 254.167 160.866 252.884 160.866C245.194 160.866 241.752 168.443 241.752 175.952V183.563C241.752 188.43 242.034 190.409 243.703 192.537L243.838 192.709V193.896ZM232.543 192.629H242.21C240.669 190.298 240.488 187.845 240.488 183.563V175.952C240.488 164.655 246.714 159.599 252.884 159.599C253.693 159.599 254.561 159.631 255.506 159.832V153.486C254.77 153.359 254.02 153.255 253.051 153.255C247.688 153.255 244.222 156.539 242.143 163.59L242.009 164.043H240.488V154.052L232.163 154.93C233.603 157.094 234.076 159.429 234.076 164.078V183.563C234.076 187.967 233.852 190.366 232.543 192.629Z" fill="#0A0A0A"/>
<path d="M247.629 192.929C249.214 190.587 249.465 188.162 249.465 183.395V143.925C249.465 138.992 249.048 137.486 247.379 135.145V134.643L256.891 133.64H257.141V183.395C257.141 188.162 257.391 190.587 258.893 192.929V193.263H247.629V192.929Z" fill="#FFFE49"/>
<path d="M259.525 193.896H246.997V192.734L247.106 192.573C248.593 190.377 248.833 188.069 248.833 183.396V143.925C248.833 138.978 248.413 137.686 246.865 135.513L246.747 135.348V134.073L257.141 133.006H257.773V183.396C257.773 188.06 258.002 190.368 259.424 192.586L259.525 192.743V193.896ZM248.563 192.629H257.98C256.732 190.34 256.509 187.811 256.509 183.396V134.317L248.184 135.195C249.73 137.494 250.097 139.279 250.097 143.925V183.396C250.097 187.908 249.872 190.357 248.563 192.629Z" fill="#0A0A0A"/>
<path d="M252.468 173.945C252.468 161.236 260.645 152.622 270.907 152.622C275.579 152.622 279.417 154.545 281.92 157.64H282.254V144.344C282.254 139.577 281.837 137.403 280.168 135.145V134.643L289.763 133.64H290.013V182.726C290.013 187.41 290.263 189.667 291.849 191.925V192.343L282.504 193.514H282.254V187.326H281.92C279 191.925 274.578 194.266 269.489 194.266C260.311 194.266 252.468 186.656 252.468 173.945ZM282.254 176.036V171.103C282.254 162.992 278.416 157.807 272.075 157.807C265.066 157.807 260.395 163.911 260.395 173.11C260.395 182.559 264.983 188.245 271.741 188.245C277.749 188.245 282.254 182.893 282.254 176.036Z" fill="#FFFE49"/>
<path d="M269.489 194.9C264.695 194.9 260.283 192.909 257.065 189.294C253.644 185.451 251.836 180.144 251.836 173.945C251.836 161.223 259.857 151.988 270.907 151.988C275.156 151.988 278.915 153.527 281.622 156.345V144.344C281.622 139.56 281.182 137.581 279.66 135.521L279.536 135.354V134.072L290.013 133.006H290.645V182.726C290.645 187.437 290.905 189.48 292.365 191.561L292.481 191.725V192.903L282.504 194.147H281.622V188.864C278.663 192.769 274.406 194.9 269.489 194.9ZM270.907 153.255C260.589 153.255 253.1 161.957 253.1 173.945C253.1 183.729 258.73 193.633 269.489 193.633C274.511 193.633 278.626 191.334 281.387 186.985L281.573 186.692H282.886V192.827L291.013 191.81C289.617 189.568 289.381 187.191 289.381 182.726V134.317L280.979 135.196C282.432 137.349 282.886 139.611 282.886 144.344V158.273H281.619L281.429 158.039C278.934 154.954 275.198 153.255 270.907 153.255ZM271.741 188.878C264.465 188.878 259.763 182.689 259.763 173.11C259.763 163.578 264.71 157.173 272.075 157.173C278.743 157.173 282.886 162.511 282.886 171.103V176.036C282.886 183.358 278.095 188.878 271.741 188.878ZM272.075 158.44C265.467 158.44 261.027 164.336 261.027 173.11C261.027 181.919 265.232 187.611 271.741 187.611C277.374 187.611 281.622 182.635 281.622 176.036V171.103C281.622 163.292 277.964 158.44 272.075 158.44Z" fill="#0A0A0A"/>
</svg>
