<svg width="324" height="200" viewBox="0 0 324 200" fill="none" xmlns="http://www.w3.org/2000/svg">
<path d="M322.875 116.268V70.402C322.875 68.1435 321.048 66.3126 318.795 66.3126H295.929C293.675 66.3126 291.849 64.4817 291.849 62.2231V50.3635C291.849 48.1049 290.022 46.274 287.768 46.274H200.251C197.997 46.274 196.17 48.1049 196.17 50.3635V62.2231C196.17 64.4817 194.344 66.3126 192.09 66.3126H162.178C159.924 66.3126 158.098 64.4817 158.098 62.2231V24.0626C158.098 21.8041 156.271 19.9731 154.017 19.9731H72.938C70.6845 19.9731 68.8577 18.1422 68.8577 15.8837V4.72473C68.8577 2.46619 67.031 0.635275 64.7775 0.635275H13.3139C11.0604 0.635275 9.23368 2.46619 9.23368 4.72473V69.9289C9.23368 72.1874 11.0604 74.0183 13.3139 74.0183H90.2448C92.4982 74.0183 94.325 75.8493 94.325 78.1078V79.9687C94.325 82.2273 92.4982 84.0582 90.2448 84.0582H63.8017C61.5483 84.0582 59.7215 85.8891 59.7215 88.1477V90.3062C59.7215 92.5647 57.8947 94.3957 55.6413 94.3957H5.39784C3.1444 94.3957 1.31762 96.2266 1.31762 98.4851V151.508C1.31762 153.767 3.1444 155.597 5.39784 155.597H116.56C118.814 155.597 120.64 157.428 120.64 159.687V195.279C120.64 197.537 122.467 199.368 124.721 199.368H301.778C304.031 199.368 305.858 197.537 305.858 195.279V132.626C305.858 130.367 304.031 128.537 301.778 128.537H165.141C162.887 128.537 161.06 126.706 161.06 124.447C161.06 122.189 162.887 120.358 165.141 120.358H318.795C321.048 120.358 322.875 118.527 322.875 116.268Z" fill="#FAFAFA"/>
<path d="M301.778 200.002H124.72C122.122 200.002 120.008 197.883 120.008 195.279V159.687C120.008 157.781 118.461 156.231 116.56 156.231H5.39773C2.7995 156.231 0.685547 154.112 0.685547 151.508V98.4851C0.685547 95.881 2.7995 93.7623 5.39773 93.7623H55.6413C57.5425 93.7623 59.0894 92.2118 59.0894 90.3063V88.1477C59.0894 85.5435 61.2034 83.4248 63.8016 83.4248H90.2449C92.146 83.4248 93.693 81.8743 93.693 79.9688V78.1078C93.693 76.2023 92.146 74.6519 90.2449 74.6519H13.3138C10.7156 74.6519 8.60162 72.5331 8.60162 69.929V4.72481C8.60162 2.12069 10.7156 0.00195312 13.3138 0.00195312H64.7774C67.3759 0.00195312 69.4899 2.12069 69.4899 4.72481V15.8838C69.4899 17.7893 71.0368 19.3397 72.938 19.3397H154.018C156.616 19.3397 158.73 21.4585 158.73 24.0626V62.223C158.73 64.1288 160.277 65.6792 162.178 65.6792H192.09C193.991 65.6792 195.538 64.1288 195.538 62.223V50.3636C195.538 47.7592 197.652 45.6404 200.25 45.6404H287.768C290.367 45.6404 292.481 47.7592 292.481 50.3636V62.223C292.481 64.1288 294.027 65.6792 295.929 65.6792H318.795C321.393 65.6792 323.507 67.798 323.507 70.4021V116.268C323.507 118.872 321.393 120.991 318.795 120.991H165.14C163.239 120.991 161.692 122.542 161.692 124.447C161.692 126.353 163.239 127.903 165.14 127.903H301.778C304.376 127.903 306.49 130.022 306.49 132.626V195.279C306.49 197.883 304.376 200.002 301.778 200.002ZM5.39773 95.0292C3.49655 95.0292 1.9496 96.5797 1.9496 98.4851V151.508C1.9496 153.413 3.49655 154.964 5.39773 154.964H116.56C119.158 154.964 121.272 157.083 121.272 159.687V195.279C121.272 197.185 122.819 198.735 124.72 198.735H301.778C303.679 198.735 305.226 197.185 305.226 195.279V132.626C305.226 130.72 303.679 129.17 301.778 129.17H165.14C162.542 129.17 160.428 127.051 160.428 124.447C160.428 121.843 162.542 119.724 165.14 119.724H318.795C320.696 119.724 322.243 118.174 322.243 116.268V70.4021C322.243 68.4966 320.696 66.9462 318.795 66.9462H295.929C293.33 66.9462 291.216 64.8274 291.216 62.223V50.3636C291.216 48.4578 289.67 46.9073 287.768 46.9073H200.25C198.349 46.9073 196.802 48.4578 196.802 50.3636V62.223C196.802 64.8274 194.688 66.9462 192.09 66.9462H162.178C159.58 66.9462 157.466 64.8274 157.466 62.223V24.0626C157.466 22.1571 155.919 20.6066 154.018 20.6066H72.938C70.3398 20.6066 68.2258 18.4879 68.2258 15.8838V4.72481C68.2258 2.81933 66.6789 1.26887 64.7774 1.26887H13.3138C11.4126 1.26887 9.86567 2.81933 9.86567 4.72481V69.929C9.86567 71.8345 11.4126 73.385 13.3138 73.385H90.2449C92.8431 73.385 94.957 75.5037 94.957 78.1078V79.9688C94.957 82.573 92.8431 84.6917 90.2449 84.6917H63.8016C61.9004 84.6917 60.3535 86.2422 60.3535 88.1477V90.3063C60.3535 92.9105 58.2395 95.0292 55.6413 95.0292H5.39773Z" fill="#0A0A0A"/>
<path d="M18.4614 67.6874C20.6307 64.8438 21.1313 61.666 21.1313 55.5618V22.28C21.1313 16.2587 20.6307 13.081 18.4614 10.2386V9.90329H56.0071V19.6876H55.5898C53.8379 16.7611 50.0827 15.6734 42.8244 15.6734H29.3083V36.5797H40.4878C47.0795 36.5797 50.5 35.6591 52.002 33.4849H52.4193V45.2763H52.002C50.5 43.1851 47.0795 42.2657 40.4878 42.2657H29.3083V55.5618C29.3083 61.666 29.8083 64.8438 32.3115 67.6874V68.0215H18.4614V67.6874Z" fill="#FFFE49"/>
<path d="M32.9435 68.6549H17.8294V67.473L17.9591 67.3027C19.9056 64.7511 20.4992 62.0079 20.4992 55.5619V22.2799C20.4992 15.9751 19.8819 13.1427 17.9594 10.6236L17.8294 10.453V9.26986H56.6392V20.321H55.2319L55.0476 20.0134C53.4716 17.3808 49.9303 16.307 42.8243 16.307H29.9404V35.9463H40.488C46.8277 35.9463 50.1158 35.1023 51.4823 33.1241L51.6708 32.8514H53.0512V45.9099H51.678L51.4889 45.6464C50.1245 43.7464 46.7315 42.899 40.488 42.899H29.9404V55.5619C29.9404 61.3036 30.3662 64.5198 32.7856 67.2684L32.9435 67.4481V68.6549ZM19.4498 67.388H31.2509C29.0785 64.5051 28.6763 61.1576 28.6763 55.5619V41.6321H40.488C46.4052 41.6321 49.8979 42.3776 51.7871 44.0918V34.7016C49.9126 36.4731 46.4933 37.2132 40.488 37.2132H28.6763V15.0401H42.8243C49.6108 15.0401 53.3146 15.9778 55.3752 18.3206V10.5368H19.4495C21.3911 13.4782 21.7633 16.8936 21.7633 22.2799V55.5619C21.7633 60.9987 21.3911 64.4421 19.4498 67.388Z" fill="#0A0A0A"/>
<path d="M49.4173 38.8368C49.4173 34.0702 48.9166 31.8131 47.3314 29.639V29.1366L56.843 28.133H57.0936V38.1686H57.5103C59.6801 30.8096 63.4346 27.3807 69.0244 27.3807C70.2757 27.3807 71.1937 27.5477 72.1116 27.7148V35.4091C71.027 35.0738 70.0257 34.9909 68.8577 34.9909C62.85 34.9909 57.0936 40.0074 57.0936 50.7111V58.3213C57.0936 63.0878 57.3436 65.3462 59.1795 67.6874V68.0215H47.582V67.6874C49.1673 65.3462 49.4173 63.0878 49.4173 58.3213V38.8368Z" fill="#FFFE49"/>
<path d="M59.8114 68.6549H46.95V67.4928L47.0591 67.3318C48.5242 65.1674 48.7852 63.0895 48.7852 58.3213V38.8367C48.7852 34.1958 48.3078 32.0518 46.8211 30.013L46.6994 29.846V28.5662L57.0936 27.4996H57.7256V35.5763C60.0544 29.6412 63.7678 26.7472 69.0245 26.7472C70.3326 26.7472 71.2942 26.922 72.2244 27.0914L72.7435 27.1857V36.2674L71.9251 36.0145C71.029 35.7373 70.1405 35.6243 68.8578 35.6243C61.1677 35.6243 57.7256 43.2018 57.7256 50.7111V58.3213C57.7256 63.1886 58.0076 65.1677 59.6762 67.2961L59.8114 67.4682V68.6549ZM48.5164 67.388H58.1832C56.6428 65.0575 56.4615 62.6041 56.4615 58.3213V50.7111C56.4615 39.414 62.6874 34.3574 68.8578 34.3574C69.6664 34.3574 70.5345 34.3901 71.4794 34.5908V28.2451C70.7425 28.1174 69.9915 28.0141 69.0245 28.0141C63.6614 28.0141 60.1953 31.2979 58.1164 38.3483L57.9824 38.8021H56.4615V28.8104L48.137 29.6886C49.5767 31.8527 50.0493 34.1871 50.0493 38.8367V58.3213C50.0493 62.7255 49.8248 65.1248 48.5164 67.388Z" fill="#0A0A0A"/>
<path d="M61.0166 48.1187C61.0166 35.9944 69.5269 27.3807 80.9577 27.3807C92.3046 27.3807 100.732 35.9103 100.732 48.1187C100.732 60.3284 92.3046 69.025 80.9577 69.025C69.5269 69.025 61.0166 60.3284 61.0166 48.1187ZM92.3879 48.1187C92.3879 38.6697 87.7994 32.9838 80.9577 32.9838C73.8654 32.9838 69.3602 38.8368 69.3602 48.1187C69.3602 57.4848 73.7821 63.422 80.9577 63.422C87.7994 63.422 92.3879 57.6518 92.3879 48.1187Z" fill="#FFFE49"/>
<path d="M80.9577 69.6584C69.0367 69.6584 60.3847 60.5998 60.3847 48.1187C60.3847 35.7352 69.0367 26.7472 80.9577 26.7472C92.7817 26.7472 101.364 35.7352 101.364 48.1187C101.364 60.5998 92.7817 69.6584 80.9577 69.6584ZM80.9577 28.0141C69.7695 28.0141 61.6487 36.4692 61.6487 48.1187C61.6487 59.8655 69.7695 68.3915 80.9577 68.3915C92.0492 68.3915 100.1 59.8655 100.1 48.1187C100.1 36.4692 92.0492 28.0141 80.9577 28.0141ZM80.9577 64.0555C73.4142 64.0555 68.7281 57.9489 68.7281 48.1187C68.7281 38.5396 73.5284 32.3504 80.9577 32.3504C88.2852 32.3504 93.0199 38.5396 93.0199 48.1187C93.0199 57.7999 88.2852 64.0555 80.9577 64.0555ZM80.9577 33.6173C74.194 33.6173 69.9921 39.174 69.9921 48.1187C69.9921 57.1673 74.194 62.7886 80.9577 62.7886C87.6182 62.7886 91.7558 57.1673 91.7558 48.1187C91.7558 39.174 87.6182 33.6173 80.9577 33.6173Z" fill="#0A0A0A"/>
<path d="M96.2282 38.8368C96.2282 34.0702 95.7276 31.8961 94.1423 29.639V29.1366L103.654 28.133H103.905V34.3214H104.321C107.075 29.7219 111.246 27.3807 116.169 27.3807C121.092 27.3807 125.264 30.0572 127.182 35.325H127.516C130.436 30.1401 134.775 27.3807 139.864 27.3807C146.873 27.3807 152.296 32.5655 152.296 41.9316V58.1542C152.296 62.9208 152.546 65.3462 154.132 67.6874V68.0215H142.868V67.6874C144.369 65.3462 144.62 62.9208 144.62 58.1542V42.4327C144.62 36.3285 141.867 33.4849 137.612 33.4849C132.773 33.4849 128.267 38.0003 128.267 44.8581V58.3213C128.267 63.0878 128.517 65.3462 130.103 67.6874V68.0215H118.755V67.6874C120.174 65.3462 120.508 63.0878 120.508 58.3213V42.3498C120.508 36.5797 118.171 33.4849 113.499 33.4849C108.576 33.4849 103.905 38.0003 103.905 44.7739V58.2371C103.905 62.9208 104.155 65.262 105.656 67.6874V68.0215H94.3929V67.6874C96.0615 65.262 96.2282 62.9208 96.2282 58.2371V38.8368Z" fill="#FFFE49"/>
<path d="M154.764 68.6549H142.236V67.5015L142.337 67.345C143.759 65.1272 143.988 62.8192 143.988 58.1543V42.4329C143.988 36.9937 141.783 34.1183 137.612 34.1183C133.329 34.1183 128.899 38.1356 128.899 44.858V58.3213C128.899 63.0889 129.16 65.1668 130.626 67.3318L130.735 67.4928V68.6549H118.123V67.5102L118.215 67.3585C119.503 65.2326 119.876 63.2055 119.876 58.3213V42.3497C119.876 36.8879 117.73 34.1183 113.499 34.1183C109.094 34.1183 104.537 38.1041 104.537 44.7739V58.2372C104.537 62.7793 104.767 65.0497 106.194 67.3534L106.289 67.5069V68.6549H93.761V67.4901L93.8725 67.3279C95.4332 65.0596 95.5963 62.8159 95.5963 58.2372V38.8367C95.5963 34.2177 95.1356 32.154 93.6253 30.0037L93.5102 29.8397V28.5662L103.905 27.4996H104.537V32.8313C107.356 28.844 111.352 26.7472 116.169 26.7472C121.304 26.7472 125.361 29.4606 127.428 34.2319C130.428 29.3967 134.814 26.7472 139.864 26.7472C147.678 26.7472 152.928 32.8493 152.928 41.9316V58.1543C152.928 62.8279 153.168 65.1359 154.655 67.3318L154.764 67.4928V68.6549ZM143.781 67.388H153.198C151.889 65.1158 151.664 62.6663 151.664 58.1543V41.9316C151.664 33.4771 147.032 28.0141 139.864 28.0141C134.954 28.0141 130.875 30.6498 128.067 35.6363L127.885 35.9583H126.74L126.589 35.542C124.846 30.7579 121.048 28.0141 116.169 28.0141C111.371 28.0141 107.461 30.308 104.863 34.6473L104.679 34.9548H103.273V28.8104L94.9394 29.6895C96.3859 31.9263 96.8603 34.2541 96.8603 38.8367V58.2372C96.8603 62.6729 96.7066 65.0545 95.3343 67.388H104.753C103.489 65.0383 103.273 62.6384 103.273 58.2372V44.7739C103.273 37.3108 108.472 32.8514 113.499 32.8514C116.985 32.8514 121.14 34.4992 121.14 42.3497V58.3213C121.14 62.5501 120.915 64.9968 119.652 67.388H129.168C127.859 65.1242 127.635 62.7252 127.635 58.3213V44.858C127.635 37.3424 132.708 32.8514 137.612 32.8514C142.468 32.8514 145.252 36.3437 145.252 42.4329V58.1543C145.252 62.5699 145.029 65.0986 143.781 67.388Z" fill="#0A0A0A"/>
<path d="M105.447 113.321C107.533 110.394 108.033 106.799 108.033 100.693V58.7992L106.114 55.7044V55.5373H118.212L147.498 101.948H147.915V68.4152C147.915 62.311 147.414 58.715 145.245 55.8727V55.5373H156.926V55.8727C154.84 58.715 154.256 62.311 154.256 68.4152V113.655H145.578L114.875 65.2375H114.458V100.693C114.458 106.799 115.042 110.394 117.128 113.321V113.655H105.447V113.321Z" fill="#FFFE49"/>
<path d="M154.888 114.289H145.231L115.09 66.7575V100.693C115.09 107.1 115.758 110.308 117.642 112.953L117.76 113.118V114.289H104.815V113.118L104.932 112.953C107.008 110.04 107.401 106.397 107.401 100.693V58.98L105.482 55.8851V54.9038H118.56L147.283 100.423V68.4152C147.283 62.6889 146.878 59.0554 144.743 56.2578L144.613 56.0872V54.9038H157.558V56.0806L157.435 56.2482C155.555 58.8106 154.888 61.9947 154.888 68.4152V114.289ZM145.926 113.022H153.624V68.4152C153.624 63.0442 154.02 59.2386 155.958 56.1707H146.23C148.164 59.1398 148.547 62.8456 148.547 68.4152V102.582H147.149L117.864 56.1707H107.148L108.665 58.6184V100.693C108.665 106.25 108.292 109.961 106.404 113.022H116.169C114.223 109.877 113.826 106.061 113.826 100.693V64.6039H115.222L145.926 113.022Z" fill="#0A0A0A"/>
<path d="M184.796 108.471C180.875 112.485 176.119 114.659 170.279 114.659C158.849 114.659 150.088 106.464 150.088 93.5857C150.088 81.7955 157.931 73.0147 168.527 73.0147C177.621 73.0147 184.296 78.7848 184.296 89.5715V92.7492H157.764C158.098 102.785 163.855 108.137 172.282 108.137C176.703 108.137 180.208 106.882 183.879 104.374L184.796 108.471ZM158.098 87.8156H176.537C176.37 81.7113 173.032 78.1154 168.026 78.1154C162.52 78.1154 159.099 81.7113 158.098 87.8156Z" fill="#FFFE49"/>
<path d="M170.279 115.292C158.019 115.292 149.456 106.366 149.456 93.5857C149.456 81.4971 157.655 72.3812 168.527 72.3812C178.643 72.3812 184.928 78.9681 184.928 89.5714V93.3826H158.426C158.952 102.24 164.094 107.503 172.282 107.503C176.413 107.503 179.775 106.411 183.523 103.85L184.292 103.325L185.489 108.668L185.248 108.914C181.056 113.206 176.159 115.292 170.279 115.292ZM168.527 73.6481C158.375 73.6481 150.72 82.2194 150.72 93.5857C150.72 105.62 158.763 114.025 170.279 114.025C175.689 114.025 180.215 112.142 184.104 108.271L183.463 105.408C179.825 107.728 176.341 108.77 172.282 108.77C163.129 108.77 157.465 102.789 157.132 92.7702L157.111 92.1157H183.664V89.5714C183.664 79.7496 177.864 73.6481 168.527 73.6481ZM177.186 88.4489H157.353L157.474 87.7127C158.556 81.115 162.304 77.4819 168.026 77.4819C173.492 77.4819 176.995 81.4349 177.169 87.798L177.186 88.4489ZM158.857 87.182H175.874C175.518 81.8867 172.619 78.7488 168.026 78.7488C163.209 78.7488 159.974 81.7353 158.857 87.182Z" fill="#0A0A0A"/>
<path d="M179.625 100.192V84.0526C179.625 79.4543 179.208 76.7777 177.706 74.3524V74.0183H187.301V100.108C187.301 105.878 190.138 108.555 194.226 108.555C199.065 108.555 203.821 104.207 203.821 97.2658V84.0526C203.821 79.3701 203.32 76.6936 201.819 74.3524V74.0183H211.497V102.868C211.497 107.551 211.747 110.06 213.249 112.318V112.736L203.988 113.907H203.821V107.885H203.404C200.901 111.982 196.896 114.659 191.973 114.659C185.132 114.659 179.625 109.808 179.625 100.192Z" fill="#FFFE49"/>
<path d="M191.973 115.292C184.088 115.292 178.993 109.365 178.993 100.192V84.0525C178.993 79.3126 178.516 76.8616 177.169 74.6864L177.074 74.5329V73.3847H187.933V100.108C187.933 105.147 190.168 107.921 194.226 107.921C198.632 107.921 203.189 103.935 203.189 97.2657V84.0525C203.189 79.3931 202.673 76.8568 201.287 74.6948L201.187 74.5383V73.3847H212.129V102.868C212.129 107.448 212.367 109.849 213.775 111.966L213.881 112.126V113.295L203.821 114.54H203.189V109.348C200.431 113.143 196.409 115.292 191.973 115.292ZM178.608 74.6516C179.976 77.2109 180.257 80.0881 180.257 84.0525V100.192C180.257 108.725 184.747 114.025 191.973 114.025C196.447 114.025 200.316 111.727 202.865 107.554L203.05 107.252H204.453V113.209L212.43 112.201C211.1 109.936 210.865 107.399 210.865 102.868V74.6516H202.734C203.979 76.8977 204.453 79.5571 204.453 84.0525V97.2657C204.453 104.729 199.253 109.188 194.226 109.188C189.423 109.188 186.669 105.879 186.669 100.108V74.6516H178.608Z" fill="#0A0A0A"/>
<path d="M228.102 89.7398L247.375 113.571V113.655H237.196L222.512 94.9246L217.839 99.2729V103.788C217.839 108.638 218.09 110.979 219.591 113.321V113.655H208.328V113.321C209.913 110.979 210.164 108.638 210.164 103.788V64.2339C210.164 59.3845 209.663 57.7956 208.078 55.5373V55.0362L217.589 54.0326H217.839V92.1639H218.173L229.437 81.2931C232.691 78.1995 233.692 76.5265 233.692 74.3524V74.0183H246.04V74.3524C242.286 76.6107 239.95 78.7007 235.194 83.049L228.102 89.7398Z" fill="#FFFE49"/>
<path d="M248.008 114.289H236.889L222.439 95.857L218.471 99.5493V103.788C218.471 108.452 218.701 110.76 220.123 112.979L220.223 113.135V114.289H207.696V113.127L207.805 112.966C209.271 110.8 209.532 108.678 209.532 103.788V64.2339C209.532 59.4711 209.063 58.0426 207.561 55.9019L207.446 55.7379V54.4659L217.839 53.399H218.471V90.9966L228.999 80.8369C232.074 77.9126 233.06 76.3375 233.06 74.3524V73.3847H246.672V74.7111L246.365 74.8958C242.675 77.1154 240.404 79.1429 235.62 83.517L228.962 89.7978L248.008 113.347V114.289ZM237.503 113.022H246.118L227.241 89.6819L234.761 82.5877C239.015 78.6974 241.311 76.6373 244.366 74.6516H234.318C234.229 76.9034 233.101 78.6827 229.872 81.7527L218.428 92.7972H217.207V54.7098L208.88 55.5886C210.287 57.7074 210.796 59.5089 210.796 64.2339V103.788C210.796 108.3 210.571 110.749 209.261 113.022H218.678C217.423 110.734 217.207 108.291 217.207 103.788V98.9966L222.585 93.9924L237.503 113.022Z" fill="#0A0A0A"/>
<path d="M233.861 93.7527C233.861 81.6284 242.371 73.0147 253.802 73.0147C265.149 73.0147 273.576 81.5443 273.576 93.7527C273.576 105.962 265.149 114.659 253.802 114.659C242.371 114.659 233.861 105.962 233.861 93.7527ZM240.536 61.2245C240.536 58.3809 242.789 56.0397 245.793 56.0397C248.629 56.0397 250.965 58.3809 250.965 61.2245C250.965 64.2339 248.629 66.5764 245.793 66.5764C242.789 66.5764 240.536 64.2339 240.536 61.2245ZM265.232 93.7527C265.232 84.3037 260.644 78.6178 253.802 78.6178C246.71 78.6178 242.205 84.4708 242.205 93.7527C242.205 103.119 246.627 109.056 253.802 109.056C260.644 109.056 265.232 103.286 265.232 93.7527ZM256.472 61.2245C256.472 58.3809 258.725 56.0397 261.729 56.0397C264.482 56.0397 266.901 58.3809 266.901 61.2245C266.901 64.2339 264.565 66.5764 261.729 66.5764C258.725 66.5764 256.472 64.2339 256.472 61.2245Z" fill="#FFFE49"/>
<path d="M253.802 115.292C241.881 115.292 233.229 106.234 233.229 93.7527C233.229 81.3691 241.881 72.3812 253.802 72.3812C265.626 72.3812 274.208 81.3691 274.208 93.7527C274.208 106.234 265.626 115.292 253.802 115.292ZM253.802 73.6481C242.614 73.6481 234.493 82.1032 234.493 93.7527C234.493 105.499 242.614 114.025 253.802 114.025C264.894 114.025 272.944 105.499 272.944 93.7527C272.944 82.1032 264.894 73.6481 253.802 73.6481ZM253.802 109.689C246.259 109.689 241.573 103.583 241.573 93.7527C241.573 84.1736 246.373 77.9844 253.802 77.9844C261.13 77.9844 265.864 84.1736 265.864 93.7527C265.864 103.434 261.13 109.689 253.802 109.689ZM253.802 79.2513C247.039 79.2513 242.837 84.8079 242.837 93.7527C242.837 102.801 247.039 108.423 253.802 108.423C260.463 108.423 264.6 102.801 264.6 93.7527C264.6 84.8079 260.463 79.2513 253.802 79.2513ZM261.729 67.2099C258.427 67.2099 255.84 64.5808 255.84 61.2246C255.84 57.9621 258.427 55.4063 261.729 55.4063C264.875 55.4063 267.533 58.0708 267.533 61.2246C267.533 64.5249 264.929 67.2099 261.729 67.2099ZM261.729 56.6732C259.135 56.6732 257.104 58.6724 257.104 61.2246C257.104 63.9143 259.092 65.9429 261.729 65.9429C264.232 65.9429 266.269 63.8263 266.269 61.2246C266.269 58.7574 264.19 56.6732 261.729 56.6732ZM245.793 67.2099C242.491 67.2099 239.904 64.5808 239.904 61.2246C239.904 57.9621 242.491 55.4063 245.793 55.4063C248.993 55.4063 251.597 58.0165 251.597 61.2246C251.597 64.5249 248.993 67.2099 245.793 67.2099ZM245.793 56.6732C243.2 56.6732 241.168 58.6724 241.168 61.2246C241.168 63.9143 243.156 65.9429 245.793 65.9429C248.296 65.9429 250.333 63.8263 250.333 61.2246C250.333 58.7151 248.296 56.6732 245.793 56.6732Z" fill="#0A0A0A"/>
<path d="M266.987 113.321C268.572 110.979 268.823 108.555 268.823 103.788V64.3181C268.823 59.3845 268.405 57.8785 266.737 55.5373V55.0362L276.248 54.0326H276.498V103.788C276.498 108.555 276.749 110.979 278.25 113.321V113.655H266.987V113.321Z" fill="#FFFE49"/>
<path d="M278.883 114.289H266.355V113.127L266.464 112.966C267.951 110.768 268.191 108.46 268.191 103.788V64.318C268.191 59.3708 267.771 58.0789 266.223 55.9055L266.105 55.7403V54.4659L276.499 53.399H277.131V103.788C277.131 108.452 277.36 110.76 278.782 112.979L278.883 113.135V114.289ZM267.921 113.022H277.338C276.09 110.732 275.867 108.203 275.867 103.788V54.7098L267.542 55.5883C269.088 57.887 269.455 59.6717 269.455 64.318V103.788C269.455 108.3 269.23 110.749 267.921 113.022Z" fill="#0A0A0A"/>
<path d="M273.244 113.321C274.829 110.979 275.08 108.555 275.08 103.788V64.3181C275.08 59.3845 274.663 57.8785 272.994 55.5373V55.0362L282.506 54.0326H282.756V103.788C282.756 108.555 283.006 110.979 284.508 113.321V113.655H273.244V113.321Z" fill="#FFFE49"/>
<path d="M285.14 114.289H272.612V113.127L272.721 112.966C274.208 110.769 274.448 108.461 274.448 103.788V64.318C274.448 59.3705 274.028 58.0786 272.48 55.9055L272.362 55.7403V54.4659L282.756 53.399H283.388V103.788C283.388 108.452 283.617 110.76 285.039 112.979L285.14 113.135V114.289ZM274.178 113.022H283.595C282.347 110.732 282.124 108.203 282.124 103.788V54.7098L273.799 55.5883C275.345 57.8867 275.712 59.6714 275.712 64.318V103.788C275.712 108.3 275.487 110.749 274.178 113.022Z" fill="#0A0A0A"/>
<path d="M281.504 84.4708C281.504 79.7042 281.003 77.4472 279.418 75.273V74.7706L289.013 73.7671H289.263V79.8713H289.597C292.517 75.4401 296.522 73.0147 301.277 73.0147C308.703 73.0147 314.377 78.1154 314.377 88.1509V103.871C314.377 108.638 314.627 110.896 316.212 113.321V113.655H304.949V113.321C306.451 110.896 306.701 108.638 306.701 103.871V88.318C306.701 82.2137 303.614 79.1189 299.192 79.1189C294.186 79.1189 289.263 83.4673 289.263 90.575V103.871C289.263 108.638 289.597 110.979 291.015 113.321V113.655H279.752V113.321C281.337 110.979 281.504 108.638 281.504 103.871V84.4708Z" fill="#FFFE49"/>
<path d="M316.844 114.289H304.317V113.141L304.412 112.987C305.818 110.715 306.069 108.624 306.069 103.871V88.318C306.069 82.8745 303.562 79.7523 299.192 79.7523C293.373 79.7523 289.895 85.2552 289.895 90.5752V103.871C289.895 108.76 290.283 110.891 291.555 112.993L291.647 113.144V114.289H279.12V113.127L279.228 112.966C280.716 110.768 280.872 108.507 280.872 103.871V84.4709C280.872 79.8298 280.394 77.6858 278.907 75.647L278.786 75.48V74.1995L289.263 73.1336H289.895V78.3571C292.885 74.4407 296.795 72.3812 301.277 72.3812C309.747 72.3812 315.009 78.4238 315.009 88.151V103.871C315.009 108.633 315.271 110.724 316.741 112.974L316.844 113.132V114.289ZM305.853 113.022H315.289C313.97 110.687 313.745 108.281 313.745 103.871V88.151C313.745 79.2053 308.967 73.6481 301.277 73.6481C296.815 73.6481 292.958 75.9209 290.124 80.2206L289.937 80.5047H288.631V74.444L280.224 75.3232C281.663 77.487 282.136 79.8217 282.136 84.4709V103.871C282.136 108.347 281.989 110.745 280.684 113.022H290.12C288.864 110.624 288.631 108.066 288.631 103.871V90.5752C288.631 84.6322 292.581 78.4854 299.192 78.4854C304.289 78.4854 307.333 82.1612 307.333 88.318V103.871C307.333 108.272 307.117 110.672 305.853 113.022Z" fill="#0A0A0A"/>
<path d="M16.5851 137.69V114.275H8.49213V109.426C16.5018 109.257 17.7531 107.837 18.087 98.972H24.2614V108.756H35.441V114.275H24.2614V137.439C24.2614 141.704 26.0134 143.627 29.7679 143.627C31.6031 143.627 33.3557 143.293 35.1076 142.372L35.9416 146.553C33.6057 148.309 30.6858 149.397 27.5153 149.397C21.0909 149.397 16.5851 145.718 16.5851 137.69Z" fill="#FFFE49"/>
<path d="M27.5154 150.03C20.1672 150.03 15.9531 145.533 15.9531 137.69V114.909H7.86021V108.805L8.47905 108.792C16.1254 108.632 17.132 107.528 17.4554 98.948L17.4785 98.3386H24.8935V108.123H36.0731V114.909H24.8935V137.438C24.8935 141.332 26.3514 142.993 29.7678 142.993C31.6755 142.993 33.2791 142.618 34.8141 141.811L35.5618 141.418L36.6395 146.821L36.3209 147.06C33.7361 149.004 30.6911 150.03 27.5154 150.03ZM9.12426 113.642H17.2171V137.69C17.2171 144.831 20.8744 148.764 27.5154 148.764C30.2856 148.764 32.9486 147.906 35.2423 146.28L34.6472 143.296C33.1524 143.952 31.5808 144.26 29.7678 144.26C25.6373 144.26 23.6294 142.029 23.6294 137.438V113.642H34.809V109.39H23.6294V99.6055H18.6937C18.3092 108.079 16.7406 109.801 9.12426 110.043V113.642Z" fill="#0A0A0A"/>
<path d="M25.3473 128.491C25.3473 116.366 33.8576 107.753 45.2884 107.753C56.6352 107.753 65.0622 116.282 65.0622 128.491C65.0622 140.7 56.6352 149.397 45.2884 149.397C33.8576 149.397 25.3473 140.7 25.3473 128.491ZM56.7186 128.491C56.7186 119.042 52.1301 113.356 45.2884 113.356C38.1961 113.356 33.6909 119.209 33.6909 128.491C33.6909 137.857 38.1127 143.794 45.2884 143.794C52.1301 143.794 56.7186 138.024 56.7186 128.491Z" fill="#FFFE49"/>
<path d="M45.2882 150.03C33.3672 150.03 24.7152 140.972 24.7152 128.491C24.7152 116.107 33.3672 107.119 45.2882 107.119C57.1121 107.119 65.6941 116.107 65.6941 128.491C65.6941 140.972 57.1121 150.03 45.2882 150.03ZM45.2882 108.386C34.1 108.386 25.9792 116.841 25.9792 128.491C25.9792 140.238 34.1 148.764 45.2882 148.764C56.3797 148.764 64.43 140.238 64.43 128.491C64.43 116.841 56.3797 108.386 45.2882 108.386ZM45.2882 144.428C37.7447 144.428 33.0589 138.321 33.0589 128.491C33.0589 118.912 37.8592 112.722 45.2882 112.722C52.616 112.722 57.3507 118.912 57.3507 128.491C57.3507 138.172 52.616 144.428 45.2882 144.428ZM45.2882 113.989C38.5247 113.989 34.3229 119.546 34.3229 128.491C34.3229 137.539 38.5247 143.161 45.2882 143.161C51.9489 143.161 56.0866 137.539 56.0866 128.491C56.0866 119.546 51.9489 113.989 45.2882 113.989Z" fill="#0A0A0A"/>
<path d="M78.1622 137.69V114.275H70.0692V109.426C78.0789 109.257 79.3302 107.837 79.6641 98.972H85.8385V108.756H97.0181V114.275H85.8385V137.439C85.8385 141.704 87.5905 143.627 91.345 143.627C93.1802 143.627 94.9328 143.293 96.6847 142.372L97.5187 146.553C95.1828 148.309 92.2629 149.397 89.0924 149.397C82.668 149.397 78.1622 145.718 78.1622 137.69Z" fill="#FFFE49"/>
<path d="M89.0923 150.03C81.7444 150.03 77.5303 145.533 77.5303 137.69V114.909H69.4371V108.805L70.056 108.792C77.7026 108.632 78.7092 107.528 79.0323 98.948L79.0554 98.3386H86.4707V108.123H97.65V114.909H86.4707V137.438C86.4707 141.332 87.9286 142.993 91.345 142.993C93.2528 142.993 94.8563 142.618 96.3913 141.811L97.139 141.418L98.2167 146.821L97.8981 147.061C95.3128 149.004 92.268 150.03 89.0923 150.03ZM70.7012 113.642H78.7943V137.69C78.7943 144.831 82.4517 148.764 89.0923 148.764C91.8625 148.764 94.5255 147.906 96.8195 146.28L96.2244 143.296C94.7296 143.952 93.1581 144.26 91.345 144.26C87.2145 144.26 85.2066 142.029 85.2066 137.438V113.642H96.3859V109.39H85.2066V99.6055H80.2706C79.8864 108.079 78.3179 109.801 70.7012 110.043V113.642Z" fill="#0A0A0A"/>
<path d="M91.0122 99.8085C91.0122 95.126 90.5116 92.4495 88.9263 90.1924V89.7742L98.4379 88.7706H98.6879V114.609H99.1052C101.942 110.261 105.864 107.753 110.953 107.753C118.212 107.753 123.885 112.853 123.885 122.889V138.526C123.885 143.293 124.135 145.718 125.721 148.059V148.394H114.457V148.059C115.875 145.718 116.126 143.293 116.126 138.526V123.056C116.126 117.035 113.289 113.857 108.617 113.857C103.527 113.857 98.6879 118.456 98.6879 125.313V138.526C98.6879 143.293 99.0219 145.718 100.524 148.059V148.394H89.2603V148.059C90.8449 145.718 91.0122 143.293 91.0122 138.526V99.8085Z" fill="#FFFE49"/>
<path d="M126.353 149.027H113.825V147.882L113.917 147.731C115.266 145.503 115.494 143.091 115.494 138.526V123.056C115.494 117.532 113.051 114.49 108.617 114.49C104.047 114.49 99.3198 118.539 99.3198 125.313V138.526C99.3198 143.496 99.7256 145.643 101.056 147.717L101.156 147.873V149.027H88.6284V147.865L88.7372 147.704C90.2248 145.506 90.3803 143.219 90.3803 138.526V99.8085C90.3803 95.11 89.846 92.6026 88.4093 90.5571L88.2942 90.3931V89.2037L98.6878 88.1371H99.3198V113.195C102.324 109.162 106.232 107.119 110.953 107.119C119.193 107.119 124.517 113.309 124.517 122.889V138.526C124.517 143.2 124.757 145.508 126.244 147.704L126.353 147.865V149.027ZM115.351 147.76H124.787C123.478 145.488 123.253 143.038 123.253 138.526V122.889C123.253 112.196 116.899 108.386 110.953 108.386C106.286 108.386 102.478 110.597 99.6345 114.956L99.4472 115.243H98.0557V89.4479L89.7702 90.3223C91.1295 92.5086 91.6444 95.1722 91.6444 99.8085V138.526C91.6444 142.954 91.4918 145.47 90.1912 147.76H99.6096C98.2994 145.379 98.0557 142.787 98.0557 138.526V125.313C98.0557 117.745 103.425 113.223 108.617 113.223C113.791 113.223 116.758 116.807 116.758 123.056V138.526C116.758 142.933 116.545 145.455 115.351 147.76Z" fill="#0A0A0A"/>
<path d="M153.256 143.209C149.335 147.223 144.579 149.397 138.739 149.397C127.308 149.397 118.548 141.202 118.548 128.324C118.548 116.534 126.391 107.753 136.987 107.753C146.081 107.753 152.755 113.523 152.755 124.311V127.487H126.224C126.557 137.523 132.314 142.875 140.741 142.875C145.163 142.875 148.668 141.62 152.339 139.112L153.256 143.209ZM126.557 122.554H144.996C144.83 116.449 141.492 112.853 136.486 112.853C130.98 112.853 127.558 116.449 126.557 122.554Z" fill="#FFFE49"/>
<path d="M138.739 150.03C126.478 150.03 117.916 141.104 117.916 128.324C117.916 116.235 126.114 107.119 136.987 107.119C147.103 107.119 153.387 113.706 153.387 124.311V128.121H126.886C127.412 136.978 132.553 142.241 140.741 142.241C144.873 142.241 148.235 141.149 151.983 138.588L152.752 138.063L153.948 143.406L153.708 143.652C149.515 147.944 144.619 150.03 138.739 150.03ZM136.987 108.386C126.835 108.386 119.18 116.958 119.18 128.324C119.18 140.358 127.223 148.764 138.739 148.764C144.149 148.764 148.675 146.88 152.563 143.009L151.922 140.145C148.286 142.466 144.801 143.508 140.741 143.508C131.588 143.508 125.925 137.527 125.592 127.508L125.57 126.854H152.123V124.311C152.123 114.488 146.323 108.386 136.987 108.386ZM145.646 123.187H125.813L125.934 122.451C127.016 115.853 130.763 112.22 136.486 112.22C141.951 112.22 145.454 116.173 145.628 122.536L145.646 123.187ZM127.317 121.92H144.334C143.978 116.625 141.079 113.487 136.486 113.487C131.668 113.487 128.433 116.473 127.317 121.92Z" fill="#0A0A0A"/>
<path d="M140.073 148.189C138.571 142.587 137.236 138.991 134.65 135.479V135.144H148.25V135.479C146.581 139.158 147.081 142.503 148.5 147.939L157.594 181.973H157.928L170.443 139.659L168.941 135.144H178.703L191.552 181.471H191.969L201.23 147.772C202.732 142.252 203.233 138.74 201.731 135.479V135.144H213.077V135.479C210.324 138.907 208.989 142.503 207.488 147.855L194.639 193.262H187.046L174.448 147.604H174.03L160.264 193.262H152.421L140.073 148.189Z" fill="#FFFE49"/>
<path d="M195.117 193.896H186.565L174.221 149.161L160.733 193.896H151.939L139.462 148.353C138.021 142.977 136.747 139.393 134.141 135.856L134.017 135.688V134.511H148.882V135.617L148.825 135.741C147.274 139.16 147.66 142.218 149.111 147.779L157.783 180.233L169.78 139.67L168.064 134.511H179.183L191.758 179.851L200.62 147.604C202.065 142.294 202.578 138.832 201.157 135.745L201.099 135.618V134.511H213.709V135.703L213.57 135.877C210.901 139.199 209.588 142.71 208.096 148.026L195.117 193.896ZM187.527 192.629H194.161L206.88 147.682C208.314 142.567 209.599 139.063 212.047 135.778H202.545C203.828 139.06 203.28 142.644 201.84 147.939L192.451 182.104H191.071L178.222 135.778H169.818L171.105 139.648L158.4 182.607H157.109L147.889 148.103C146.464 142.644 146.019 139.309 147.435 135.778H135.639C138.036 139.257 139.324 142.956 140.683 148.022L152.903 192.629H159.794L173.561 146.97H174.929L187.527 192.629Z" fill="#0A0A0A"/>
<path d="M198.232 173.359C198.232 161.235 206.743 152.621 218.173 152.621C229.52 152.621 237.947 161.151 237.947 173.359C237.947 185.569 229.52 194.266 218.173 194.266C206.743 194.266 198.232 185.569 198.232 173.359ZM229.604 173.359C229.604 163.91 225.015 158.225 218.173 158.225C211.081 158.225 206.576 164.078 206.576 173.359C206.576 182.726 210.998 188.663 218.173 188.663C225.015 188.663 229.604 182.893 229.604 173.359Z" fill="#FFFE49"/>
<path d="M218.173 194.899C206.252 194.899 197.6 185.841 197.6 173.359C197.6 160.976 206.252 151.988 218.173 151.988C229.997 151.988 238.579 160.976 238.579 173.359C238.579 185.841 229.997 194.899 218.173 194.899ZM218.173 153.255C206.985 153.255 198.864 161.71 198.864 173.359C198.864 185.106 206.985 193.632 218.173 193.632C229.265 193.632 237.315 185.106 237.315 173.359C237.315 161.71 229.265 153.255 218.173 153.255ZM218.173 189.296C210.63 189.296 205.944 183.19 205.944 173.359C205.944 163.78 210.744 157.591 218.173 157.591C225.501 157.591 230.236 163.78 230.236 173.359C230.236 183.041 225.501 189.296 218.173 189.296ZM218.173 158.858C211.41 158.858 207.208 164.415 207.208 173.359C207.208 182.408 211.41 188.029 218.173 188.029C224.834 188.029 228.972 182.408 228.972 173.359C228.972 164.415 224.834 158.858 218.173 158.858Z" fill="#0A0A0A"/>
<path d="M233.444 164.078C233.444 159.311 232.943 157.054 231.358 154.88V154.377L240.87 153.374H241.12V163.409H241.537C243.707 156.05 247.461 152.621 253.051 152.621C254.302 152.621 255.22 152.788 256.138 152.956V160.65C255.054 160.315 254.052 160.232 252.884 160.232C246.877 160.232 241.12 165.248 241.12 175.952V183.562C241.12 188.329 241.37 190.587 243.206 192.928V193.262H231.609V192.928C233.194 190.587 233.444 188.329 233.444 183.562V164.078Z" fill="#FFFE49"/>
<path d="M243.838 193.896H230.976V192.734L231.086 192.573C232.551 190.408 232.812 188.33 232.812 183.562V164.077C232.812 159.437 232.335 157.293 230.848 155.254L230.726 155.087V153.807L241.12 152.74H241.752V160.818C244.081 154.882 247.794 151.988 253.051 151.988C254.361 151.988 255.322 152.163 256.251 152.332L256.77 152.427V161.509L255.952 161.256C255.056 160.978 254.167 160.865 252.884 160.865C245.194 160.865 241.752 168.443 241.752 175.952V183.562C241.752 188.429 242.034 190.408 243.703 192.537L243.838 192.709V193.896ZM232.543 192.629H242.21C240.669 190.298 240.488 187.845 240.488 183.562V175.952C240.488 164.655 246.714 159.598 252.884 159.598C253.693 159.598 254.561 159.631 255.506 159.832V153.486C254.77 153.358 254.02 153.255 253.051 153.255C247.688 153.255 244.222 156.539 242.143 163.589L242.009 164.043H240.488V154.051L232.163 154.929C233.603 157.093 234.076 159.428 234.076 164.077V183.562C234.076 187.966 233.852 190.365 232.543 192.629Z" fill="#0A0A0A"/>
<path d="M247.629 192.928C249.214 190.587 249.465 188.162 249.465 183.395V143.925C249.465 138.991 249.048 137.485 247.379 135.144V134.643L256.891 133.639H257.141V183.395C257.141 188.162 257.391 190.587 258.893 192.928V193.262H247.629V192.928Z" fill="#FFFE49"/>
<path d="M259.525 193.896H246.997V192.734L247.106 192.573C248.593 190.377 248.833 188.069 248.833 183.395V143.925C248.833 138.977 248.413 137.685 246.865 135.512L246.747 135.347V134.072L257.141 133.006H257.773V183.395C257.773 188.06 258.002 190.368 259.424 192.586L259.525 192.742V193.896ZM248.563 192.629H257.98C256.732 190.339 256.509 187.811 256.509 183.395V134.317L248.184 135.195C249.73 137.493 250.097 139.278 250.097 143.925V183.395C250.097 187.907 249.872 190.356 248.563 192.629Z" fill="#0A0A0A"/>
<path d="M252.468 173.945C252.468 161.235 260.645 152.621 270.907 152.621C275.579 152.621 279.417 154.544 281.92 157.639H282.254V144.343C282.254 139.577 281.837 137.402 280.168 135.144V134.643L289.763 133.639H290.013V182.726C290.013 187.409 290.263 189.666 291.849 191.925V192.343L282.504 193.513H282.254V187.325H281.92C279 191.925 274.578 194.266 269.489 194.266C260.311 194.266 252.468 186.656 252.468 173.945ZM282.254 176.036V171.102C282.254 162.991 278.416 157.806 272.075 157.806C265.066 157.806 260.395 163.91 260.395 173.11C260.395 182.559 264.983 188.244 271.741 188.244C277.749 188.244 282.254 182.893 282.254 176.036Z" fill="#FFFE49"/>
<path d="M269.489 194.899C264.695 194.899 260.283 192.908 257.065 189.294C253.644 185.451 251.836 180.143 251.836 173.945C251.836 161.222 259.857 151.988 270.907 151.988C275.156 151.988 278.915 153.526 281.622 156.345V144.343C281.622 139.559 281.182 137.581 279.66 135.521L279.536 135.353V134.072L290.013 133.006H290.645V182.726C290.645 187.437 290.905 189.48 292.365 191.56L292.481 191.724V192.902L282.504 194.147H281.622V188.863C278.663 192.768 274.406 194.899 269.489 194.899ZM270.907 153.255C260.589 153.255 253.1 161.956 253.1 173.945C253.1 183.728 258.73 193.632 269.489 193.632C274.511 193.632 278.626 191.334 281.387 186.985L281.573 186.691H282.886V192.827L291.013 191.809C289.617 189.567 289.381 187.191 289.381 182.726V134.316L280.979 135.195C282.432 137.348 282.886 139.611 282.886 144.343V158.273H281.619L281.429 158.038C278.934 154.954 275.198 153.255 270.907 153.255ZM271.741 188.878C264.465 188.878 259.763 182.689 259.763 173.11C259.763 163.577 264.71 157.173 272.075 157.173C278.743 157.173 282.886 162.51 282.886 171.103V176.036C282.886 183.357 278.095 188.878 271.741 188.878ZM272.075 158.44C265.467 158.44 261.027 164.335 261.027 173.11C261.027 181.919 265.232 187.611 271.741 187.611C277.374 187.611 281.622 182.635 281.622 176.036V171.103C281.622 163.292 277.964 158.44 272.075 158.44Z" fill="#0A0A0A"/>
</svg>
