<svg width="843" height="200" viewBox="0 0 843 200" fill="none" xmlns="http://www.w3.org/2000/svg">
<path d="M827.13 11.9153H815.187C810.322 11.9153 805.995 14.2198 803.244 17.7928C800.493 14.2173 796.167 11.9153 791.302 11.9153H767.417C760.076 11.9153 753.964 17.1623 752.64 24.1008C751.549 24.3085 750.498 24.6287 749.505 25.0591C747.674 24.2684 745.656 23.8306 743.534 23.8306H719.649C716.346 23.8306 713.294 24.8915 710.811 26.6905V15.0129C710.811 6.7208 704.075 0 695.763 0H659.936C651.705 0 645.016 6.59569 644.891 14.7777C642.408 12.9787 639.353 11.9153 636.05 11.9153H600.225C592.98 11.9153 586.928 17.0247 585.499 23.8306H579.124C577.694 17.0247 571.643 11.9153 564.397 11.9153H528.569C525.266 11.9153 522.214 12.9762 519.732 14.7752C519.606 6.59319 512.918 0 504.687 0H468.859C460.548 0 453.811 6.7208 453.811 15.0129V23.8306H421.088C413.748 23.8306 407.636 29.0751 406.307 36.0136C405.216 36.2212 404.168 36.5465 403.175 36.9744C402.181 36.544 401.133 36.2212 400.04 36.0136C398.713 29.0751 392.601 23.8306 385.261 23.8306H361.378C354.133 23.8306 348.081 28.94 346.652 35.7458H340.276C338.847 28.94 332.795 23.8306 325.55 23.8306H289.722C287.601 23.8306 285.582 24.2684 283.751 25.0591C281.92 24.2684 279.901 23.8306 277.78 23.8306H265.837C260.972 23.8306 256.646 26.135 253.897 29.7081C251.146 26.135 246.82 23.8306 241.954 23.8306H206.127C201.261 23.8306 196.935 26.135 194.184 29.7081C191.433 26.1325 187.107 23.8306 182.241 23.8306H146.414C139.073 23.8306 132.961 29.0751 131.635 36.0136C124.753 37.3222 119.539 43.3099 119.429 50.5286C116.946 48.727 113.894 47.6611 110.588 47.6611H89.8078V38.8435C89.8078 30.5513 83.0716 23.8306 74.7604 23.8306H15.0474C6.73621 23.8306 0 30.5513 0 38.8435V50.7588C0 59.0509 6.73621 65.7717 15.0474 65.7717H23.8852V122.248C23.8852 130.54 30.6214 137.261 38.9326 137.261H74.7604C79.6282 137.261 83.9519 134.954 86.703 131.376C89.4542 134.951 93.7778 137.261 98.6456 137.261H122.531C129.871 137.261 135.981 132.014 137.307 125.075C144.262 123.752 149.518 117.656 149.518 110.333V101.518H179.137V110.333C179.137 118.625 185.873 125.346 194.184 125.346H206.127C213.467 125.346 219.579 120.104 220.906 113.165C224.597 112.462 227.81 110.415 230.012 107.553C232.763 111.128 237.089 113.43 241.954 113.43H250.79V134.161C250.79 141.485 256.046 147.582 263.001 148.906C264.327 155.844 270.439 161.089 277.78 161.089H748.231C757.397 161.089 764.828 153.675 764.828 144.53V125.343H767.417C772.284 125.343 776.608 123.036 779.359 119.458C782.11 123.034 786.434 125.343 791.302 125.343H815.187C822.528 125.343 828.639 120.101 829.966 113.165C836.92 111.841 842.177 105.741 842.177 98.4174V26.9282C842.177 18.6361 835.441 11.9153 827.13 11.9153Z" fill="#1A661F"/>
<path d="M815.187 26.9282V86.5046H803.244V38.8435H791.302V26.9282H767.416V38.8435H779.359V50.7588H791.302V110.333H815.187V98.4199H827.13V26.9282H815.187Z" fill="#FF96FF"/>
<path d="M755.476 50.7588H743.534V38.8435H719.649V50.7588H707.706V98.4199H683.821V50.7588H695.763V15.0129H659.935V62.6741H671.878V98.4199H636.05V62.6741H600.225V50.7588H612.168V38.8435H624.11V50.7588H647.993V38.8435H636.05V26.9282H600.225V38.8435H564.397V26.9282H528.569V38.8435H516.627V50.7588H528.569V74.5893H540.512V98.4199H552.455V110.333H528.569V98.4199H492.744V50.7588H504.687V15.0129H468.859V62.6741H480.801V98.4199H456.916V38.8435H421.088V50.7588H409.146V74.5893H397.203V50.7588H385.261V38.8435H361.378V98.4199H337.493V86.5046H325.55V74.5893H289.722V62.6741H301.665V50.7588H313.608V62.6741H337.493V74.5893H349.435V50.7588H325.55V38.8435H289.722V50.7588H277.78V38.8435H265.837V86.5046H253.897V62.6741H241.954V38.8435H206.127V74.5893H194.184V50.7588H182.241V38.8435H146.414V50.7588H134.471V74.5893H122.531V110.333H134.471V86.5046H194.184V110.333H206.127V98.4199H218.069V50.7588H230.012V74.5893H241.954V98.4199H277.78V86.5046H313.608V98.4199H325.55V122.248H313.608V134.163H289.722V122.248H277.78V110.333H265.837V134.163H277.78V146.079H325.55V134.163H337.493V110.333H373.321V62.6741H385.261V86.5046H397.203V110.333H409.146V98.4199H421.088V62.6741H433.031V50.7588H444.974V110.333H516.627V122.248H564.397V86.5046H552.455V62.6741H540.512V38.8435H552.455V50.7588H588.282V74.5893H624.11V110.333H600.225V86.5046H576.34V98.4199H588.282V122.248H636.05V110.333H707.706V122.248H743.534V86.5046H755.476V110.333H767.416V38.8435H755.476V50.7588ZM146.414 74.5893V62.6741H158.356V50.7588H170.299V62.6741H182.241V74.5893H146.414ZM731.591 74.5893V110.333H719.649V62.6741H743.534V74.5893H731.591Z" fill="#FF96FF"/>
<path d="M110.588 98.4199H98.6456V122.248H122.531L122.531 110.333L110.588 110.333V98.4199Z" fill="#FF96FF"/>
<path d="M110.588 86.5046V62.6741H62.8178V110.333H50.8752V50.7588H74.7604V38.8435H15.0474V50.7588H38.9326V122.248H74.7604V98.4199L98.6456 98.4199L98.6456 86.5046H110.588ZM74.7604 86.5046V74.5893H86.703V86.5046H74.7604Z" fill="#FF96FF"/>
<path d="M711.365 146.772H709.875C705.647 131.771 692.23 122.183 675.204 122.183C668.091 122.183 661.548 123.937 655.948 127.057V122.929H622.39V128.391L619.14 122.929H562.278L554.315 142.916L546.39 122.929H516.71V127.032C510.992 123.867 504.403 122.183 497.454 122.183C487.182 122.183 477.694 125.886 470.652 132.627C469.579 131.541 468.427 130.523 467.191 129.577C460.869 124.74 452.841 122.183 443.978 122.183C437.064 122.183 430.468 123.902 424.722 127.125V122.929H391.164V128.391L387.914 122.929H342.917V199.257H392.233V193.795L395.483 199.257H424.722V195.061C430.47 198.284 437.066 200.003 443.978 200.003C454.777 200.003 464.039 196.187 470.567 189.478C477.619 196.269 487.141 200.003 497.454 200.003C504.403 200.003 510.992 198.316 516.71 195.153V199.257H623.458V193.795L626.708 199.257H655.948V195.053C661.706 198.281 668.322 200 675.279 200C685.682 200 695.026 196.172 701.597 189.221C707.897 182.555 711.365 173.279 711.365 163.103V146.772Z" fill="#1A661F"/>
<path d="M355.03 135.011H364.367V187.171H355.03V135.011Z" fill="#00CB0D"/>
<path d="M370.79 135.011H381.022L402.605 171.3L403.054 173.387H403.277V135.011H412.614V187.171H402.382L380.799 150.883L380.35 148.796H380.127V187.171H370.79V135.011Z" fill="#00CB0D"/>
<path d="M417.542 161.091C417.542 144.923 429.568 134.266 443.98 134.266C456.826 134.266 465.491 141.495 467.655 151.776L467.357 152.371L458.619 153.042C456.753 146.559 451.374 142.611 443.833 142.611C433.452 142.611 426.954 150.36 426.954 161.089C426.954 171.818 433.528 179.57 443.983 179.57C451.376 179.57 456.681 175.621 458.622 169.138L467.286 169.809L467.66 170.404C464.896 181.284 456.159 187.915 443.986 187.915C429.57 187.915 417.547 177.258 417.547 161.089L417.542 161.091Z" fill="#00CB0D"/>
<path d="M471.091 161.091C471.091 145.07 482.592 134.266 497.454 134.266C512.316 134.266 523.892 145.07 523.892 161.091C523.892 177.113 512.391 187.917 497.454 187.917C482.517 187.917 471.091 177.113 471.091 161.091ZM514.41 161.091C514.41 150.212 507.837 142.613 497.456 142.613C487.076 142.613 480.503 150.215 480.503 161.091C480.503 171.968 487.149 179.572 497.456 179.572C507.764 179.572 514.41 171.971 514.41 161.091Z" fill="#00CB0D"/>
<path d="M538.16 135.011L554.29 175.697L570.496 135.011H579.833V187.171H570.87V154.458H570.572L570.198 157.736L558.621 187.169H550.032L538.456 157.736L538.082 154.458H537.783V187.171H528.82V135.011H538.16Z" fill="#00CB0D"/>
<path d="M586.256 135.011H595.593V187.171H586.256V135.011Z" fill="#00CB0D"/>
<path d="M602.013 135.011H612.245L633.828 171.3L634.277 173.387H634.5V135.011H643.837V187.171H633.605L612.022 150.883L611.573 148.796H611.35V187.171H602.013V135.011Z" fill="#00CB0D"/>
<path d="M648.768 161.091C648.768 145.22 660.344 134.266 675.206 134.266C687.156 134.266 696.117 140.749 698.507 151.18L698.209 151.701L689.546 152.371C687.53 146.111 682.75 142.46 675.131 142.46C664.899 142.46 658.177 150.21 658.177 161.089C658.177 171.968 664.823 179.642 675.281 179.642C684.094 179.642 689.173 174.651 690.143 166.454H670.649V158.852H699.254V163.101C699.254 177.556 689.993 187.915 675.281 187.915C660.57 187.915 648.768 176.96 648.768 161.089V161.091Z" fill="#00CB0D"/>
</svg>
