<svg width="253" height="200" viewBox="0 0 253 200" fill="none" xmlns="http://www.w3.org/2000/svg">
<path d="M223.788 172.218C223.951 171.147 224.035 170.047 224.035 168.931C224.035 157.723 215.621 148.49 204.777 147.212V113.295C232.003 109.051 252.842 85.4605 252.842 56.9891C252.842 25.5149 227.378 0.00244141 195.964 0.00244141C164.55 0.00244141 139.086 25.5149 139.086 56.9891C139.086 59.0294 139.195 61.0448 139.404 63.0289H104.996C102.645 36.2729 80.2218 15.2912 52.9088 15.2912C24.027 15.288 0.612305 38.7476 0.612305 67.6846C0.612305 96.6216 24.027 120.081 52.9088 120.081C55.9183 120.081 58.8685 119.822 61.7376 119.334V124.053C43.3252 125.937 28.9607 141.519 28.9607 160.467C28.9607 180.683 45.318 197.072 65.4956 197.072C82.1211 197.072 96.1487 185.948 100.574 170.722H180.442C181.353 181.964 190.743 190.807 202.198 190.807C204.684 190.807 207.066 190.385 209.293 189.619C210.852 195.594 216.276 200.002 222.728 200.002C230.397 200.002 236.615 193.772 236.615 186.089C236.615 178.405 230.961 172.762 223.788 172.218Z" fill="#DEFC32"/>
<path d="M98.8089 159.267H69.4531V154.411L80.5992 143.728C86.5526 137.97 91.1932 133.114 91.1932 126.665C91.1932 120.216 86.5558 116.885 80.3247 116.885C76.0335 116.885 72.8462 118.41 70.4948 120.075L69.5935 116.397C72.5718 113.276 77.1406 111.264 82.3331 111.264C91.8886 111.264 98.1883 117.091 98.1883 125.415C98.1883 132.908 92.7182 138.804 85.5173 145.531L77.9015 152.677V153.024H98.8089V159.267Z" fill="#330000"/>
<path d="M122.417 159.267V146.434H99.4326V141.716L123.318 112.098H128.72V140.401H139.173V146.434H128.72V159.267H122.417ZM106.216 140.051V140.397H122.417V120.212H122.071L106.216 140.051Z" fill="#330000"/>
<path d="M161.603 108.283L142.495 161.973H137.234L156.342 108.283H161.603Z" fill="#330000"/>
<path d="M189.505 118.41H163.957V112.098H195.25V116.953L173.51 159.267H165.616V159.129L189.502 118.759V118.413L189.505 118.41Z" fill="#330000"/>
<path d="M43.2503 82.7452C43.2503 67.8315 53.913 57.7733 67.6911 57.7733C81.4693 57.7733 92.2005 67.8315 92.2005 82.7452C92.2005 97.659 81.5379 107.717 67.6911 107.717C53.8444 107.717 43.2503 97.659 43.2503 82.7452ZM83.4059 82.7452C83.4059 72.6184 77.3121 65.5411 67.6911 65.5411C58.0701 65.5411 51.9763 72.6152 51.9763 82.7452C51.9763 92.8752 58.1387 99.9493 67.6911 99.9493C77.2435 99.9493 83.4059 92.8752 83.4059 82.7452Z" fill="#330000"/>
<path d="M96.4886 72.3403H104.382V76.8491C106.942 74.1432 111.168 71.6466 116.22 71.6466C123.767 71.6466 127.921 76.3648 127.921 83.1608V107.023H120.028V85.173C120.028 80.9423 117.814 78.5832 113.66 78.5832C109.921 78.5832 106.528 81.2204 104.382 84.4106V107.023H96.4886V72.3403Z" fill="#330000"/>
<path d="M158.868 58.467H167.038L184.971 107.023H175.902L172.786 98.2152H153.054L150.076 107.023H140.939L158.871 58.467H158.868ZM170.154 90.6536L163.854 72.3403L163.093 67.0691H162.884L162.055 72.3403L155.687 90.6536H170.157H170.154Z" fill="#330000"/>
<path d="M186.078 62.9071C186.078 60.2012 188.292 57.9827 190.993 57.9827C193.693 57.9827 195.908 60.2012 195.908 62.9071C195.908 65.613 193.693 67.8315 190.993 67.8315C188.292 67.8315 186.078 65.613 186.078 62.9071ZM187.045 72.3403H194.938V107.023H187.045V72.3403Z" fill="#330000"/>
<path d="M200.199 72.3403H208.092V76.6397C210.447 73.9338 213.768 71.6466 218.063 71.6466C219.31 71.6466 220.348 71.856 221.041 72.2028L220.002 78.5832L219.725 78.7926C219.17 78.6551 218.549 78.5832 217.439 78.5832C213.631 78.5832 210.238 80.8017 208.092 85.0356V107.023H200.199V72.3403Z" fill="#330000"/>
<path d="M205.71 52.9333C205.376 52.9333 205.039 52.799 204.796 52.5334C201.387 48.8526 196.753 46.7216 191.744 46.5341C186.733 46.3529 181.955 48.1245 178.281 51.5397C177.776 52.0084 176.987 51.9803 176.519 51.4741C176.051 50.9679 176.079 50.1774 176.585 49.7087C180.748 45.8405 186.165 43.822 191.841 44.0376C197.517 44.25 202.769 46.6654 206.63 50.8367C207.097 51.3429 207.069 52.1334 206.564 52.6021C206.324 52.824 206.018 52.9364 205.716 52.9364L205.71 52.9333Z" fill="#330000"/>
<path d="M213.21 46.3591C212.876 46.3591 212.539 46.2248 212.296 45.9592C207.026 40.2662 199.859 36.9728 192.112 36.6822C184.372 36.3854 176.974 39.1382 171.292 44.4219C170.787 44.8906 169.998 44.8625 169.53 44.3563C169.062 43.8501 169.091 43.0596 169.596 42.5909C175.764 36.8572 183.792 33.8763 192.206 34.1857C200.617 34.5013 208.401 38.0789 214.124 44.2625C214.591 44.7687 214.563 45.5592 214.058 46.0279C213.818 46.2498 213.512 46.3623 213.21 46.3623V46.3591Z" fill="#330000"/>
<path d="M221.484 38.6695C221.15 38.6695 220.813 38.5351 220.57 38.2695C213.247 30.3643 203.293 25.7867 192.536 25.3805C181.78 24.9837 171.511 28.7926 163.617 36.1292C163.112 36.5979 162.323 36.5697 161.855 36.0636C161.388 35.5574 161.416 34.7668 161.921 34.2982C179.22 18.2189 206.349 19.2375 222.401 36.5697C222.868 37.0759 222.84 37.8665 222.335 38.3351C222.095 38.557 221.789 38.6695 221.487 38.6695H221.484Z" fill="#330000"/>
<path d="M36.5609 72.3746C36.5141 72.3746 36.4642 72.3746 36.4143 72.3653C35.7313 72.2872 35.2386 71.6654 35.3196 70.9811C36.4891 60.8855 45.5269 51.0398 55.4692 49.0276C56.1459 48.8901 56.8039 49.3275 56.938 50.0056C57.0753 50.6836 56.6387 51.3429 55.9619 51.4773C46.9989 53.2895 38.8499 62.1665 37.799 71.2685C37.7241 71.906 37.1846 72.3746 36.5609 72.3746Z" fill="#330000"/>
<path d="M27.9971 74.3525C27.9503 74.3525 27.9004 74.3525 27.8505 74.3431C27.1675 74.265 26.6748 73.6432 26.7559 72.959C28.4929 57.9483 41.9312 43.3064 56.7166 40.3162C57.3902 40.1787 58.0514 40.6161 58.1855 41.2942C58.3227 41.9722 57.8861 42.6315 57.2094 42.7658C43.4063 45.5561 30.8537 59.2294 29.2352 73.2464C29.1603 73.8838 28.6208 74.3525 27.9971 74.3525Z" fill="#330000"/>
<path d="M18.3293 76.3054C18.2825 76.3054 18.2326 76.3054 18.1827 76.296C17.4997 76.2179 17.007 75.5961 17.0881 74.9118C18.2357 65.0006 23.1008 54.9268 30.7883 46.5497C38.4757 38.1727 48.0873 32.4734 57.8518 30.4986C58.5285 30.3611 59.1866 30.7986 59.3207 31.4766C59.4579 32.1547 59.0213 32.814 58.3445 32.9483C39.2086 36.8166 21.8128 55.7705 19.5643 75.1993C19.4894 75.8367 18.9499 76.3054 18.3262 76.3054H18.3293Z" fill="#330000"/>
<path d="M73.866 171.581C70.1486 171.581 66.478 170.594 63.1816 168.666C58.2791 165.797 54.7831 161.185 53.3391 155.683C53.1645 155.014 53.5637 154.333 54.2279 154.155C54.8922 153.98 55.5752 154.38 55.753 155.046C57.0254 159.901 60.1097 163.973 64.4384 166.503C68.767 169.034 73.8192 169.728 78.6656 168.45C79.3299 168.275 80.0129 168.672 80.1906 169.341C80.3653 170.009 79.9661 170.69 79.3018 170.869C77.5023 171.344 75.6779 171.578 73.8629 171.578L73.866 171.581Z" fill="#330000"/>
<path d="M74.1155 181.489C60.144 181.489 47.3482 172.097 43.6339 157.939C43.4593 157.27 43.8585 156.589 44.5227 156.411C45.187 156.236 45.87 156.633 46.0478 157.302C50.1113 172.806 66.007 182.105 81.4817 178.03C82.146 177.855 82.829 178.255 83.0068 178.921C83.1814 179.589 82.7822 180.271 82.1179 180.449C79.4453 181.152 76.7601 181.489 74.1186 181.489H74.1155Z" fill="#330000"/>
</svg>
