<svg width="658" height="200" viewBox="0 0 658 200" fill="none" xmlns="http://www.w3.org/2000/svg">
<path d="M641.87 79.8533V67.3982C641.87 66.2511 640.942 65.3212 639.797 65.3212C638.652 65.3212 637.724 64.3912 637.724 63.2441V46.9542C637.724 46.1388 638.384 45.4778 639.198 45.4778C640.011 45.4778 640.671 44.8168 640.671 44.0015V24.2625C640.671 11.3144 630.195 0.817885 617.271 0.817885H389.544C388.399 0.817885 387.471 1.74782 387.471 2.89496V4.9958C387.471 7.10776 384.691 7.87201 383.615 6.05574L381.115 1.83502C380.742 1.20446 380.064 0.817885 379.332 0.817885H279.664C278.815 0.817885 278.051 1.33688 277.738 2.12759L275.933 6.6744C275.244 8.41125 272.795 8.42358 272.088 6.69375L270.215 2.10824C269.896 1.32777 269.138 0.817885 268.297 0.817885H128.71C127.565 0.817885 126.637 1.74782 126.637 2.89496V4.9958C126.637 7.10776 123.857 7.87201 122.781 6.05574L120.281 1.83502C119.908 1.20446 119.23 0.817885 118.498 0.817885H31.3735C18.4857 0.817885 8.03813 11.2855 8.03813 24.198V65.13C8.03813 75.4442 10.7782 84.5674 15.6585 91.9118C18.5496 96.2626 18.0924 101.921 14.6269 105.828C5.96061 115.598 0.814473 128.702 0.814473 143.512C0.814473 175.251 24.4226 199.186 55.7282 199.186C68.1216 199.186 79.0865 195.64 87.7355 189.242C91.8725 186.182 97.4007 186.113 101.585 189.108C110.517 195.501 121.588 199.186 133.843 199.186C144.361 199.186 154.006 196.479 162.182 191.686C163.568 190.873 165.305 191.854 165.305 193.463V196.016C165.305 197.163 166.233 198.093 167.378 198.093H357.338C358.483 198.093 359.411 197.163 359.411 196.016V195.865C359.411 194.305 361.051 193.322 362.437 194.033C368.912 197.357 376.485 199.186 384.848 199.186C393.189 199.186 400.745 197.366 407.208 194.059C408.594 193.35 410.231 194.334 410.231 195.893V196.016C410.231 197.163 411.159 198.093 412.304 198.093H454.371C455.516 198.093 456.444 197.163 456.444 196.016V194.02C456.444 191.891 459.26 191.14 460.316 192.988L462.638 197.048C463.007 197.695 463.693 198.093 464.437 198.093H552.502C561.496 198.093 568.788 190.788 568.788 181.776V133.59H570.517L581.736 157.455C581.866 157.732 581.934 158.034 581.934 158.34V181.776C581.934 190.788 589.225 198.093 598.22 198.093H611.859C620.853 198.093 628.145 190.788 628.145 181.776V158.358C628.145 158.051 628.213 157.748 628.344 157.47L656.529 97.7921C658.474 93.6741 655.476 88.9299 650.929 88.9299C645.926 88.9299 641.87 84.8662 641.87 79.8533Z" fill="#AB8DFF"/>
<path d="M384.848 200.002C376.509 200.002 368.844 198.238 362.066 194.759C361.663 194.553 361.196 194.568 360.817 194.801C360.441 195.031 360.225 195.419 360.225 195.865V196.016C360.225 197.612 358.93 198.909 357.338 198.909H167.378C165.785 198.909 164.49 197.612 164.49 196.016V193.464C164.49 193.002 164.263 192.607 163.867 192.379C163.47 192.151 162.994 192.154 162.593 192.39C154.099 197.369 144.158 200.002 133.843 200.002C121.78 200.002 110.462 196.465 101.112 189.772C97.2442 187.004 92.0632 187.054 88.219 189.898C79.2837 196.508 68.0485 200.002 55.7279 200.002C23.9579 200.002 0 175.716 0 143.512C0 129.054 4.97825 115.478 14.0176 105.287C17.284 101.604 17.6706 96.4114 14.9807 92.3642C9.90582 84.7267 7.2234 75.3091 7.2234 65.1297V24.1981C7.2234 10.8565 18.0572 0.00195312 31.3733 0.00195312H118.498C119.513 0.00195312 120.464 0.545017 120.981 1.4192L123.481 5.63912C123.842 6.2499 124.45 6.33522 124.896 6.21198C125.344 6.08942 125.822 5.70548 125.822 4.99584V2.89468C125.822 1.30003 127.118 0.00195314 128.71 0.00195314H268.297C269.474 0.00195314 270.523 0.70753 270.969 1.79975L272.842 6.38465C273.044 6.87828 273.44 7.14778 274.013 7.1681C274.545 7.16539 274.981 6.86813 275.177 6.37314L276.98 1.82616C277.42 0.718365 278.473 0.00195314 279.664 0.00195314H379.333C380.347 0.00195314 381.298 0.545017 381.815 1.4192L384.315 5.63912C384.677 6.2499 385.285 6.33522 385.731 6.21198C386.178 6.08942 386.657 5.7048 386.657 4.99584V2.89468C386.657 1.30003 387.952 0.00195315 389.544 0.00195315H617.271C630.623 0.00195315 641.485 10.8849 641.485 24.2624V44.0017C641.485 45.2652 640.459 46.2938 639.197 46.2938C638.834 46.2938 638.539 46.5897 638.539 46.954V63.2439C638.539 63.9393 639.103 64.5054 639.797 64.5054C641.389 64.5054 642.685 65.8035 642.685 67.3981V79.8534C642.685 84.4085 646.383 88.1138 650.929 88.1138C653.346 88.1138 655.56 89.3353 656.852 91.3803C658.145 93.4259 658.299 95.953 657.265 98.1408L629.08 157.818C629.001 157.986 628.959 158.173 628.959 158.358V181.776C628.959 191.224 621.288 198.909 611.859 198.909H598.22C588.79 198.909 581.12 191.224 581.12 181.776V158.34C581.12 158.154 581.079 157.973 580.999 157.803L570.001 134.406H569.602V181.776C569.602 191.224 561.93 198.909 552.502 198.909H464.437C463.405 198.909 462.445 198.352 461.931 197.454L459.609 193.393C459.256 192.773 458.649 192.68 458.193 192.801C457.741 192.922 457.258 193.305 457.258 194.02V196.016C457.258 197.612 455.962 198.909 454.371 198.909H412.304C410.713 198.909 409.417 197.612 409.417 196.016C409.417 195.447 409.202 195.059 408.826 194.829C408.447 194.596 407.98 194.579 407.578 194.786C400.814 198.247 393.167 200.002 384.848 200.002ZM361.474 192.981C361.928 192.981 362.384 193.09 362.808 193.307C369.354 196.666 376.769 198.37 384.848 198.37C392.907 198.37 400.305 196.675 406.837 193.333C407.748 192.866 408.81 192.905 409.677 193.437C410.534 193.963 411.046 194.881 411.046 195.892C411.046 196.712 411.61 197.277 412.304 197.277H454.371C455.065 197.277 455.629 196.712 455.629 196.016V194.02C455.629 192.69 456.492 191.566 457.774 191.224C459.058 190.882 460.363 191.428 461.022 192.582L463.344 196.643C463.568 197.034 463.987 197.277 464.437 197.277H552.502C561.033 197.277 567.973 190.324 567.973 181.776V132.774H571.033L582.473 157.108C582.653 157.491 582.748 157.917 582.748 158.34V181.776C582.748 190.324 589.689 197.277 598.22 197.277H611.859C620.39 197.277 627.33 190.324 627.33 181.776V158.358C627.33 157.934 627.426 157.506 627.607 157.122L655.793 97.4434C656.587 95.7634 656.468 93.8234 655.476 92.2531C654.484 90.6828 652.784 89.7457 650.929 89.7457C645.485 89.7457 641.056 85.3077 641.056 79.8534V67.3981C641.056 66.7027 640.491 66.1373 639.797 66.1373C638.205 66.1373 636.91 64.8392 636.91 63.2439V46.954C636.91 45.6904 637.936 44.6619 639.197 44.6619C639.561 44.6619 639.856 44.366 639.856 44.0017V24.2624C639.856 11.7848 629.725 1.63385 617.271 1.63385H389.544C388.85 1.63385 388.286 2.19926 388.286 2.89468V4.99584C388.286 6.31558 387.432 7.43692 386.162 7.78565C384.892 8.13573 383.586 7.60756 382.915 6.472L380.415 2.2514C380.189 1.87018 379.775 1.63385 379.333 1.63385H279.664C279.145 1.63385 278.686 1.94601 278.494 2.42881L276.691 6.97579C276.246 8.0951 275.223 8.79391 274.022 8.8H274.006C272.81 8.8 271.788 8.11271 271.334 7.00288L269.462 2.4173C269.267 1.94127 268.81 1.63385 268.297 1.63385H128.71C128.016 1.63385 127.451 2.19926 127.451 2.89468V4.99584C127.451 6.31558 126.597 7.43692 125.327 7.78565C124.059 8.13573 122.753 7.60688 122.081 6.472L119.581 2.2514C119.355 1.87018 118.941 1.63385 118.498 1.63385H31.3733C18.9553 1.63385 8.85218 11.7564 8.85218 24.1981V65.1297C8.85218 74.9868 11.44 84.0916 16.3365 91.4595C19.394 96.0607 18.9412 102.192 15.2355 106.37C6.46105 116.262 1.62878 129.453 1.62878 143.512C1.62878 174.787 24.8865 198.37 55.7279 198.37C67.6978 198.37 78.5984 194.987 87.2512 188.586C91.6658 185.321 97.616 185.265 102.058 188.445C111.131 194.938 122.121 198.37 133.843 198.37C143.869 198.37 153.526 195.815 161.77 190.981C162.681 190.449 163.767 190.442 164.677 190.964C165.579 191.482 166.119 192.417 166.119 193.464V196.016C166.119 196.712 166.684 197.277 167.378 197.277H357.338C358.032 197.277 358.596 196.712 358.596 196.016V195.865C358.596 194.853 359.109 193.934 359.968 193.409C360.431 193.124 360.951 192.981 361.474 192.981Z" fill="black"/>
<path d="M24.324 65.13V17.1349H37.9649V64.9117C37.9649 76.0627 43.2022 82.513 53.7864 82.513C64.3706 82.513 69.6078 76.0627 69.6078 64.9117V17.1349H83.2488V65.13C83.2488 82.6214 72.4451 94.7572 53.7864 94.7572C35.1276 94.7572 24.324 82.6214 24.324 65.13Z" fill="black"/>
<path d="M95.4552 17.1349H110.405L141.94 70.3772L142.595 73.4383H142.923V17.1349H156.562V93.6641H141.612L110.077 40.4218L109.422 37.3607H109.096V93.6641H95.4552V17.1349Z" fill="black"/>
<path d="M168.955 17.1349H182.596V93.6641H168.955V17.1349Z" fill="black"/>
<path d="M207.8 29.1608H188.486V17.1349H240.754V29.1608H221.44V93.6641H207.8V29.1608Z" fill="black"/>
<path d="M267.158 66.1131L244.133 17.1349H258.756L274.249 55.072L289.307 17.1349H303.93L280.797 66.1131V93.6641H267.158V66.1131Z" fill="black"/>
<path d="M330.442 17.1349H344.083V93.6641H330.442V17.1349Z" fill="black"/>
<path d="M356.289 17.1349H371.239L402.774 70.3772L403.429 73.4383H403.757V17.1349H417.396V93.6641H402.446L370.911 40.4218L370.256 37.3607H369.93V93.6641H356.289V17.1349Z" fill="black"/>
<path d="M465.296 29.1608H445.982V17.1349H498.25V29.1608H478.936V93.6641H465.296V29.1608Z" fill="black"/>
<path d="M504.26 17.1349H517.901V49.3866H550.089V17.1349H563.73V93.6641H550.089V61.4124H517.901V93.6641H504.26V17.1349Z" fill="black"/>
<path d="M576.154 17.1349H624.385V29.1608H589.795V49.3866H621.438V61.4124H589.795V81.6382H625.584V93.6641H576.154V17.1349Z" fill="black"/>
<path d="M17.1003 143.512C17.1003 119.787 34.668 104.154 55.7282 104.154C74.4967 104.154 87.1532 114.758 90.3181 129.847L89.8824 130.72L77.1145 131.705C74.387 122.193 66.5303 116.4 55.5104 116.4C40.3426 116.4 30.8494 127.769 30.8494 143.512C30.8494 159.254 40.4523 170.625 55.7282 170.625C66.5303 170.625 74.2788 164.831 77.1145 155.32L89.7726 156.303L90.3181 157.178C86.2817 173.14 73.5138 182.869 55.7282 182.869C34.668 182.869 17.1003 167.236 17.1003 143.512Z" fill="black"/>
<path d="M95.3248 143.512C95.3248 120.007 112.129 104.154 133.843 104.154C155.667 104.154 172.471 120.007 172.471 143.512C172.471 167.017 155.667 182.869 133.843 182.869C112.129 182.869 95.3248 167.017 95.3248 143.512ZM158.614 143.512C158.614 127.551 149.011 116.4 133.843 116.4C118.785 116.4 109.074 127.551 109.074 143.512C109.074 159.474 118.785 170.625 133.843 170.625C149.011 170.625 158.614 159.474 158.614 143.512Z" fill="black"/>
<path d="M181.59 105.247H195.231L218.8 164.94L242.478 105.247H256.119V181.776H243.025V133.781H242.587L242.042 138.592L225.129 181.776H212.581L195.667 138.592L195.122 133.781H194.686V181.776H181.59V105.247Z" fill="black"/>
<path d="M268.597 105.247H282.238L305.806 164.94L329.484 105.247H343.125V181.776H330.032V133.781H329.594L329.049 138.592L312.136 181.776H299.586L282.674 138.592L282.128 133.781H281.693V181.776H268.597V105.247Z" fill="black"/>
<path d="M355.386 153.242V105.247H369.027V153.024C369.027 164.175 374.264 170.625 384.848 170.625C395.432 170.625 400.67 164.175 400.67 153.024V105.247H414.309V153.242C414.309 170.733 403.507 182.869 384.848 182.869C366.19 182.869 355.386 170.733 355.386 153.242Z" fill="black"/>
<path d="M426.517 105.247H441.467L473.657 161.55H473.985V105.247H487.624V181.776H472.674L440.484 125.473H440.158V181.776H426.517V105.247Z" fill="black"/>
<path d="M500.016 105.247H513.657V181.776H500.016V105.247Z" fill="black"/>
<path d="M538.862 117.273H519.548V105.247H571.816V117.273H552.502V181.776H538.862V117.273Z" fill="black"/>
<path d="M598.22 154.225L575.195 105.247H589.818L604.876 143.184H605.311L620.369 105.247H634.992L611.859 154.225V181.776H598.22V154.225Z" fill="black"/>
</svg>
