<svg width="781" height="200" viewBox="0 0 781 200" fill="none" xmlns="http://www.w3.org/2000/svg">
<path d="M763.221 97.2836V16.716H746.391V0.598007H505.867V54.3623H522.71V70.4803H539.54V145.639H493.833V81.1773H477.003V32.8234H460.16V0.598007H388.017V16.716H371.173V81.1773H354.342V129.521H337.5V199.402H392.813V183.284H409.656V167.178H438.521V199.402H695.874V118.823H707.909V199.402H780.064V97.2836H763.221ZM421.69 113.403H409.656V102.716H421.69V113.403ZM628.527 145.639V129.521H611.697V70.4803H628.527V54.3623H640.561V145.639H628.527Z" fill="#5E6614"/>
<path d="M780.665 200H707.308V119.421H696.475V200H437.921V167.776H410.257V183.882H393.414V200H336.899V128.922H353.741V80.5792H370.572V16.118H387.415V0H460.761V32.2251H477.604V80.5792H494.434V145.04H538.94V71.0784H522.109V54.9604H505.266V0H746.992V16.118H763.823V96.6855H780.665V200ZM708.51 198.804H779.463V97.8818H762.621V17.3144H745.79V1.19632H506.468V53.764H523.311V69.8821H540.142V146.237H493.232V81.7755H476.402V33.4214H459.559V1.19632H388.617V17.3144H371.774V81.7755H354.943V130.119H338.101V198.804H392.212V182.686H409.055V166.579H439.122V198.804H695.273V118.224H708.51V198.804ZM641.162 146.237H627.926V130.119H611.096V69.8821H627.926V53.764H641.162V146.237ZM629.128 145.04H639.96V54.9604H629.128V71.0784H612.298V128.922H629.128V145.04ZM422.291 114.001H409.055V102.118H422.291V114.001ZM410.257 112.804H421.089V103.315H410.257V112.804Z" fill="black"/>
<path d="M236.491 48.9414H224.457V16.716H207.615V0.598007H152.302V48.9414H140.268V32.8234H123.438V0.598007H34.4506V16.716H17.6081V48.9414H0.777402V167.178H17.6081V183.284H34.4506V199.402H123.438V183.284H140.268V151.06H152.302V199.402H207.615V151.06H219.648V183.284H236.491V199.402H308.636V0.598007H236.491V48.9414ZM84.9545 113.403H68.1238V129.521H56.0901V70.4803H68.1238V86.5983H84.9545V113.403Z" fill="#5E6614"/>
<path d="M309.236 200H235.89V183.882H219.047V151.658H208.215V200H151.702V151.658H140.87V183.882H124.039V200H33.8495V183.882H17.0065V167.776H0.176758V48.3431H17.0065V16.118H33.8495V0H124.039V32.2251H140.87V48.3431H151.702V0H208.215V16.118H225.058V48.3431H235.89V0H309.236V200ZM237.092 198.804H308.034V1.19632H237.092V49.5394H223.856V17.3144H207.013V1.19632H152.904V49.5394H139.668V33.4214H122.837V1.19632H35.0514V17.3144H18.2084V49.5394H1.37867V166.579H18.2084V182.686H35.0514V198.804H122.837V182.686H139.668V150.461H152.904V198.804H207.013V150.461H220.249V182.686H237.092V198.804ZM68.7241 130.119H55.4898V69.8821H68.7241V86.0001H85.5553V114.001H68.7241V130.119ZM56.6917 128.922H67.5222V112.804H84.3534V87.1965H67.5222V71.0784H56.6917V128.922Z" fill="black"/>
<path d="M752.401 108.053V91.9471H735.571V75.8288H752.401V27.4859H735.571V11.3676H651.381V188.633H685.054V108.053H718.728V188.633H769.244V108.053H752.401ZM685.054 43.5923H718.728V59.7106H701.897V75.8288H685.054V43.5923Z" fill="#4AC8F4"/>
<path d="M516.687 11.3676V43.5923H533.53V59.7106H550.361V156.408H516.687V188.633H634.55V156.408H617.708V140.29H600.877V59.7106H617.708V43.5923H634.55V11.3676H516.687Z" fill="#4AC8F4"/>
<path d="M483.014 91.9471H466.183V43.5923H449.34V11.3676H398.836V27.4859H381.993V91.9471H365.163V140.29H348.32V188.633H381.993V172.515H398.836V156.408H449.34V188.633H499.856V156.408H483.014V91.9471ZM415.667 91.9471V75.8288H432.509V124.172H398.836V91.9471H415.667Z" fill="#4AC8F4"/>
<path d="M247.311 11.3676V108.053H230.469V59.7106H213.638V27.4859H196.795V11.3676H163.122V188.633H196.795V108.053H213.638V140.29H230.469V172.515H247.311V188.633H297.816V11.3676H247.311Z" fill="#4AC8F4"/>
<path d="M129.448 43.5923H112.617V11.3676H45.2704V27.4859H28.4276V59.7106H11.5969V156.408H28.4276V172.515H45.2704V188.633H112.617V172.515H129.448V140.29H146.291V59.7106H129.448V43.5923ZM78.9438 59.7106V75.8288H95.7746V124.172H78.9438V156.408H62.1011V140.29H45.2704V59.7106H78.9438Z" fill="#4AC8F4"/>
<path d="M729.548 177.863V102.716H741.582V118.823H758.424V177.863H729.548ZM662.201 177.863V22.1369H724.751V32.8234H674.234V86.5983H712.717V70.4803H724.751V97.2836H674.234V177.863H662.201ZM729.548 65.0593V38.2549H741.582V65.0593H729.548Z" fill="#5E6614"/>
<path d="M527.507 177.863V167.178H561.18V48.9414H544.349V32.8234H527.507V22.1369H623.73V32.8234H606.888V48.9414H590.057V151.06H606.888V167.178H623.73V177.863H527.507Z" fill="#5E6614"/>
<path d="M460.16 177.863V145.639H388.017V161.745H371.173V177.863H359.139V151.06H375.982V102.716H388.017V134.942H443.33V65.0593H404.848V81.1773H392.813V38.2549H409.656V22.1369H438.521V54.3623H455.363V102.716H472.194V167.178H489.036V177.863H460.16Z" fill="#5E6614"/>
<path d="M258.13 177.863V161.745H241.288V129.521H224.457V118.823H258.13V22.1369H286.996V177.863H258.13ZM173.942 177.863V22.1369H185.975V38.2549H202.818V70.4803H219.648V97.2836H185.975V177.863H173.942Z" fill="#5E6614"/>
<path d="M56.0901 177.863V167.178H89.7633V134.942H106.594V65.0593H89.7633V48.9414H39.2476V38.2549H56.0901V22.1369H101.798V54.3623H118.629V70.4803H135.471V129.521H118.629V161.745H101.798V177.863H56.0901ZM39.2476 161.745V151.06H51.2813V161.745H39.2476ZM22.4169 145.639V70.4803H34.4506V145.639H22.4169Z" fill="#5E6614"/>
</svg>
