<svg width="117" height="200" viewBox="0 0 117 200" fill="none" xmlns="http://www.w3.org/2000/svg">
<path d="M43.0677 200.002C40.771 200.002 38.4456 199.774 36.1554 199.326C29.9232 198.105 23.7039 194.61 18.6433 189.488C13.5891 184.371 10.1657 178.111 9.00701 171.859C7.24492 162.36 9.3207 152.862 14.8518 145.117C16.6571 142.589 18.7873 140.332 21.1672 138.395V88.1413C21.1672 82.8274 25.4852 78.5056 30.7907 78.5056H54.8502C55.0198 78.496 55.191 78.4927 55.3623 78.4927C64.496 78.4927 72.0789 71.3537 72.6263 62.2388C72.9112 57.4843 71.2531 52.9365 67.9562 49.4319C64.576 45.8375 59.9988 43.8585 55.0678 43.8585H9.93207C4.62499 43.8585 0.308594 39.535 0.308594 34.2228V9.63763C0.308594 4.32543 4.62659 0.00195312 9.93207 0.00195312H55.5191C55.6008 0.00195312 55.6824 0.00195312 55.764 0.00515807C63.9119 0.0564373 71.8181 1.69256 79.2665 4.86546C86.5214 7.95664 93.0352 12.3682 98.6239 17.9801C104.214 23.592 108.603 30.1253 111.669 37.4005C114.846 44.9369 116.458 52.9349 116.458 61.1748C116.458 69.4147 114.841 77.4367 111.655 84.9828C108.579 92.266 104.177 98.8073 98.5711 104.421C92.9663 110.036 86.4365 114.444 79.1625 117.527C74.5852 119.468 69.8367 120.827 64.965 121.596V138.38C66.4854 139.621 67.9066 140.996 69.2109 142.494C74.7069 148.809 77.7349 156.905 77.7349 165.289C77.7349 174.561 74.1291 183.279 67.5817 189.834C61.0343 196.39 52.3279 200 43.0677 200V200.002Z" fill="#FE6301"/>
<path d="M55.3639 112.75C55.3639 112.739 55.3735 112.73 55.3847 112.73C83.8134 112.718 106.855 89.6396 106.855 61.1732C106.855 32.7069 83.8854 9.70173 55.5191 9.6184L9.93207 9.6168C9.92087 9.6168 9.91126 9.62641 9.91126 9.63763V34.2196C9.91126 34.2308 9.92087 34.2404 9.93207 34.2404H55.0694C70.6129 34.2404 83.146 47.2781 82.213 62.8125C81.3663 76.9239 69.6687 88.1044 55.3639 88.1044V88.1172H30.7923C30.7811 88.1172 30.7715 88.1268 30.7715 88.138V140.395C30.7715 140.406 30.7811 140.416 30.7923 140.416H39.3979C39.4235 140.416 39.4267 140.452 39.4011 140.457C25.7845 142.456 15.7257 155.415 18.4496 170.1C20.1285 179.147 28.9806 188.118 38.0007 189.887C54.0643 193.036 68.1322 180.806 68.1322 165.288C68.1322 152.673 58.8369 142.234 46.7327 140.459C46.7071 140.456 46.7087 140.417 46.7359 140.417H55.3431C55.3543 140.417 55.3639 140.408 55.3639 140.396V112.749V112.75Z" fill="black"/>
<path d="M55.3639 112.75C55.3639 112.739 55.3735 112.73 55.3847 112.73C83.8134 112.718 106.855 89.6396 106.855 61.1732C106.855 32.7069 83.8854 9.70173 55.5191 9.6184L9.93207 9.6168C9.92087 9.6168 9.91126 9.62641 9.91126 9.63763V34.2196C9.91126 34.2308 9.92087 34.2404 9.93207 34.2404H55.0694C70.6129 34.2404 83.146 47.2781 82.213 62.8125C81.3663 76.9239 69.6687 88.1044 55.3639 88.1044V88.1172H30.7923C30.7811 88.1172 30.7715 88.1268 30.7715 88.138V140.395C30.7715 140.406 30.7811 140.416 30.7923 140.416H39.3979C39.4235 140.416 39.4267 140.452 39.4011 140.457C25.7845 142.456 15.7257 155.415 18.4496 170.1C20.1285 179.147 28.9806 188.118 38.0007 189.887C54.0643 193.036 68.1322 180.806 68.1322 165.288C68.1322 152.673 58.8369 142.234 46.7327 140.459C46.7071 140.456 46.7087 140.417 46.7359 140.417H55.3431C55.3543 140.417 55.3639 140.408 55.3639 140.396V112.749V112.75Z" fill="#FFA2B5"/>
<path d="M51.1339 96.8395L38.5496 101.823L51.1339 106.831V109.715H35.0014V106.946H45.1194V106.853L44.1048 106.738L35.0014 103.161V100.508L44.1048 96.9308L45.1194 96.8154V96.7225H35.0014V93.9534H51.1339V96.8395Z" fill="#FE6301"/>
<path d="M51.1339 112.853V115.737H35.0014V112.853H51.1339Z" fill="#FE6301"/>
<path d="M43.0677 118.414C48.0691 118.414 51.3644 122.128 51.3644 126.583C51.3644 130.552 49.1286 133.228 45.9485 133.898L45.7644 133.805L45.5564 131.105C47.5617 130.528 48.7829 128.867 48.7829 126.537C48.7829 123.328 46.3854 121.322 43.0677 121.322C39.75 121.322 37.3525 123.352 37.3525 126.583C37.3525 128.868 38.5736 130.506 40.579 131.105L40.3709 133.781L40.1869 133.897C36.8227 133.043 34.771 130.342 34.771 126.581C34.771 122.128 38.0663 118.412 43.0677 118.412V118.414Z" fill="#FE6301"/>
<path d="M27.132 165.289C27.132 160.328 30.6818 156.982 35.2671 156.982C39.8524 156.982 43.4262 160.328 43.4262 165.289C43.4262 170.25 39.8764 173.596 35.2671 173.596C30.6578 173.596 27.132 170.25 27.132 165.289ZM40.499 165.289C40.499 161.919 38.4712 159.567 35.2671 159.567C32.063 159.567 30.0353 161.921 30.0353 165.289C30.0353 168.658 32.087 171.012 35.2671 171.012C38.4472 171.012 40.499 168.658 40.499 165.289Z" fill="#FE6301"/>
<path d="M46.0989 157.213H49.2566L55.9176 168.451L56.0553 169.097H56.1241V157.213H59.0049V173.366H55.8472L49.1862 162.127L49.0485 161.482H48.9797V173.366H46.0989V157.213Z" fill="#FE6301"/>
<path d="M14.13 13.6246H17.0108V29.7775H14.13V13.6246Z" fill="#FE6301"/>
<path d="M19.5219 24.8179L19.6148 24.7025L22.3115 24.4493C22.4956 26.4572 23.9936 27.518 25.8373 27.518C27.5434 27.518 28.8797 26.6415 28.8797 24.9108C28.8797 23.0648 27.4969 22.4414 24.9394 21.8645C22.1739 21.2187 20.1221 20.0874 20.1221 17.5266C20.1221 14.9659 22.4043 13.3954 25.4004 13.3954C28.7421 13.3954 30.7234 15.195 31.0243 17.9176L30.9091 18.0554L28.374 18.1932C28.1659 16.5779 27.1288 15.7014 25.378 15.7014C23.9023 15.7014 22.8893 16.3712 22.8893 17.3632C22.8893 18.7012 24.2496 19.1868 26.7607 19.7861C29.6191 20.4559 31.7381 21.77 31.7381 24.7474C31.7381 28.0004 29.1102 30.0083 25.7461 30.0083C22.3819 30.0083 19.7764 27.978 19.5235 24.8163L19.5219 24.8179Z" fill="#FE6301"/>
<path d="M97.6012 45.243V41.1583H100.136V52.2122H97.6012V48.1275H84.0039V45.243H97.6012Z" fill="#FE6301"/>
<path d="M100.136 54.5662V57.4507H93.3376V64.258H100.136V67.1424H84.0039V64.258H90.8025V57.4507H84.0039V54.5662H100.136Z" fill="#FE6301"/>
<path d="M100.136 70.2801V80.4798H97.6012V73.1645H93.3376V79.8565H90.8025V73.1645H86.539V80.733H84.0039V70.2801H100.136Z" fill="#FE6301"/>
</svg>
