<svg width="515" height="200" viewBox="0 0 515 200" fill="none" xmlns="http://www.w3.org/2000/svg">
<path d="M472.161 0H43.426C19.7626 0 0.57959 19.1671 0.57959 42.8108V157.189C0.57959 180.833 19.7626 200 43.426 200H472.161C495.824 200 515.007 180.833 515.007 157.189V42.8108C515.007 19.1671 495.824 0 472.161 0Z" fill="#071907"/>
<path d="M22.1651 89.1171H35.6718V92.955H22.2192C19.0815 92.955 17.2601 94.4324 17.2601 97.4054C17.2601 100.378 19.0815 101.856 22.2192 101.856H35.6718V105.694H22.1651C17.2421 105.694 13.8339 102.649 13.8339 97.3874C13.8339 92.1261 17.2421 89.0811 22.1651 89.0811V89.1171Z" fill="#FFD9F0"/>
<path d="M22.1651 107.297H35.6718V111.135H22.2192C19.0815 111.135 17.2601 112.613 17.2601 115.586C17.2601 118.559 19.0815 120.036 22.2192 120.036H35.6718V123.874H22.1651C17.2421 123.874 13.8339 120.829 13.8339 115.568C13.8339 110.306 17.2421 107.261 22.1651 107.261V107.297Z" fill="#FFD9F0"/>
<path d="M31.6505 131.658L39.6571 120.793L42.7588 123.081L34.7882 133.892C32.9308 136.414 33.039 138.757 35.4374 140.523C37.8358 142.288 40.108 141.712 41.9654 139.189L49.936 128.378L53.0376 130.667L45.031 141.532C42.1096 145.495 37.6374 146.432 33.3997 143.315C29.1619 140.198 28.7472 135.64 31.6685 131.676L31.6505 131.658Z" fill="#FFD9F0"/>
<path d="M55.7065 143.892V130.396H59.5476V143.838C59.5476 146.973 61.0263 148.793 64.0017 148.793C66.9771 148.793 68.4559 146.973 68.4559 143.838V130.396H72.2969V143.892C72.2969 148.811 69.2493 152.216 63.9837 152.216C58.718 152.216 55.6705 148.811 55.6705 143.892H55.7065Z" fill="#FFD9F0"/>
<path d="M22.1651 70.9369H35.6718V74.7748H22.2192C19.0815 74.7748 17.2601 76.2523 17.2601 79.2252C17.2601 82.1982 19.0815 83.6757 22.2192 83.6757H35.6718V87.5135H22.1651C17.2421 87.5135 13.8339 84.4685 13.8339 79.2072C13.8339 73.9459 17.2421 70.9009 22.1651 70.9009V70.9369Z" fill="#FFD9F0"/>
<path d="M22.1651 52.7748H35.6718V56.6126H22.2192C19.0815 56.6126 17.2601 58.0901 17.2601 61.0631C17.2601 64.036 19.0815 65.5135 22.2192 65.5135H35.6718V69.3514H22.1651C17.2421 69.3514 13.8339 66.3063 13.8339 61.045C13.8339 55.7838 17.2421 52.7387 22.1651 52.7387V52.7748Z" fill="#FFD9F0"/>
<path d="M22.1651 34.5946H35.6718V38.4324H22.2192C19.0815 38.4324 17.2601 39.9099 17.2601 42.8829C17.2601 45.8559 19.0815 47.3333 22.2192 47.3333H35.6718V51.1712H22.1651C17.2421 51.1712 13.8339 48.1261 13.8339 42.8649C13.8339 37.6036 17.2421 34.5586 22.1651 34.5586V34.5946Z" fill="#FFD9F0"/>
<path d="M22.1651 16.4144H35.6718V20.2523H22.2192C19.0815 20.2523 17.2601 21.7297 17.2601 24.7027C17.2601 27.6757 19.0815 29.1532 22.2192 29.1532H35.6718V32.991H22.1651C17.2421 32.991 13.8339 29.9459 13.8339 24.6847C13.8339 19.4234 17.2421 16.3784 22.1651 16.3784V16.4144Z" fill="#FFD9F0"/>
<path d="M106.704 33.027H93.1972V29.1892H106.65C109.788 29.1892 111.609 27.7117 111.609 24.7387C111.609 21.7658 109.788 20.2883 106.65 20.2883H93.1972V16.4505H106.704C111.627 16.4505 115.035 19.4955 115.035 24.7568C115.035 30.018 111.627 33.0631 106.704 33.0631V33.027Z" fill="#FFD9F0"/>
<path d="M106.704 51.1892H93.1972V47.3514H106.65C109.788 47.3514 111.609 45.8739 111.609 42.9009C111.609 39.9279 109.788 38.4505 106.65 38.4505H93.1972V34.6126H106.704C111.627 34.6126 115.035 37.6577 115.035 42.9189C115.035 48.1802 111.627 51.2252 106.704 51.2252V51.1892Z" fill="#FFD9F0"/>
<path d="M106.704 69.3694H93.1972V65.5315H106.65C109.788 65.5315 111.609 64.0541 111.609 61.0811C111.609 58.1081 109.788 56.6306 106.65 56.6306H93.1972V52.7928H106.704C111.627 52.7928 115.035 55.8378 115.035 61.0991C115.035 66.3604 111.627 69.4054 106.704 69.4054V69.3694Z" fill="#FFD9F0"/>
<path d="M106.704 87.5496H93.1972V83.7117H106.65C109.788 83.7117 111.609 82.2342 111.609 79.2613C111.609 76.2883 109.788 74.8108 106.65 74.8108H93.1972V70.973H106.704C111.627 70.973 115.035 74.018 115.035 79.2793C115.035 84.5405 111.627 87.5856 106.704 87.5856V87.5496Z" fill="#FFD9F0"/>
<path d="M106.704 105.712H93.1972V101.874H106.65C109.788 101.874 111.609 100.396 111.609 97.4234C111.609 94.4505 109.788 92.973 106.65 92.973H93.1972V89.1351H106.704C111.627 89.1351 115.035 92.1802 115.035 97.4414C115.035 102.703 111.627 105.748 106.704 105.748V105.712Z" fill="#FFD9F0"/>
<path d="M106.704 123.892H93.1972V120.054H106.65C109.788 120.054 111.609 118.577 111.609 115.604C111.609 112.631 109.788 111.153 106.65 111.153H93.1972V107.315H106.704C111.627 107.315 115.035 110.36 115.035 115.622C115.035 120.883 111.627 123.928 106.704 123.928V123.892Z" fill="#FFD9F0"/>
<path d="M81.8364 140.703L75.2002 128.937L78.5544 127.045L85.1544 138.757C86.6872 141.495 88.8692 142.342 91.466 140.883C94.0628 139.423 94.4595 137.117 92.9267 134.378L86.3266 122.667L89.6807 120.775L96.3169 132.541C98.7333 136.829 97.7595 141.297 93.1791 143.874C88.5987 146.45 84.2708 144.973 81.8544 140.685L81.8364 140.703Z" fill="#FFD9F0"/>
<path d="M133.862 152.216V148.018L149.37 139.171L150.254 138.991V138.901H133.844V135.081H156.132V139.279L140.624 148.126L139.74 148.306V148.396H156.15V152.216H133.862Z" fill="#FFD9F0"/>
<path d="M133.862 132.432V128.234L149.37 119.387L150.254 119.207V119.117H133.844V115.297H156.132V119.495L140.624 128.342L139.74 128.523V128.613H156.15V132.432H133.862Z" fill="#FFD9F0"/>
<path d="M133.862 112.667V108.468L149.37 99.6216L150.254 99.4414V99.3513H133.844V95.5315H156.132V99.7297L140.624 108.577L139.74 108.757V108.847H156.15V112.667H133.862Z" fill="#FFD9F0"/>
<path d="M133.862 92.8829V88.6847L149.37 79.8378L150.254 79.6577V79.5676H133.844V75.7477H156.132V79.9459L140.624 88.7928L139.74 88.973V89.0631H156.15V92.8829H133.862Z" fill="#FFD9F0"/>
<path d="M133.862 73.0991V68.9009L149.37 60.0541L150.254 59.8739V59.7838H133.844V55.964H156.132V60.1622L140.624 69.009L139.74 69.1892V69.2793H156.15V73.0991H133.862Z" fill="#FFD9F0"/>
<path d="M133.862 53.3333V49.1351L149.37 40.2883L150.254 40.1081V40.018H133.844V36.1982H156.132V40.3964L140.624 49.2432L139.74 49.4234V49.5135H156.15V53.3333H133.862Z" fill="#FFD9F0"/>
<path d="M133.862 33.5496V29.3514L149.37 20.5045L150.254 20.3243V20.2342H133.844V16.4144H156.132V20.6126L140.624 29.4595L139.74 29.6396V29.7297H156.15V33.5496H133.862Z" fill="#FFD9F0"/>
<path d="M218.743 152.216V148.018L234.251 139.171L235.135 138.991V138.901H218.725V135.081H241.014V139.279L225.505 148.126L224.622 148.306V148.396H241.032V152.216H218.743Z" fill="#FFD9F0"/>
<path d="M218.743 132.432V128.234L234.251 119.387L235.135 119.207V119.117H218.725V115.297H241.014V119.495L225.505 128.342L224.622 128.523V128.613H241.032V132.432H218.743Z" fill="#FFD9F0"/>
<path d="M218.743 112.667V108.468L234.251 99.6216L235.135 99.4414V99.3513H218.725V95.5315H241.014V99.7297L225.505 108.577L224.622 108.757V108.847H241.032V112.667H218.743Z" fill="#FFD9F0"/>
<path d="M218.743 92.8829V88.6847L234.251 79.8378L235.135 79.6577V79.5676H218.725V75.7477H241.014V79.9459L225.505 88.7928L224.622 88.973V89.0631H241.032V92.8829H218.743Z" fill="#FFD9F0"/>
<path d="M218.743 73.0991V68.9009L234.251 60.0541L235.135 59.8739V59.7838H218.725V55.964H241.014V60.1622L225.505 69.009L224.622 69.1892V69.2793H241.032V73.0991H218.743Z" fill="#FFD9F0"/>
<path d="M218.743 53.3333V49.1351L234.251 40.2883L235.135 40.1081V40.018H218.725V36.1982H241.014V40.3964L225.505 49.2432L224.622 49.4234V49.5135H241.032V53.3333H218.743Z" fill="#FFD9F0"/>
<path d="M218.743 33.5496V29.3514L234.251 20.5045L235.135 20.3243V20.2342H218.725V16.4144H241.014V20.6126L225.505 29.4595L224.622 29.6396V29.7297H241.032V33.5496H218.743Z" fill="#FFD9F0"/>
<path d="M171.406 34.3243L173.66 38.1622L165.059 54.1261L164.392 54.7387L164.446 54.8288L178.583 46.5225L180.639 50.036L161.416 61.3333L159.162 57.4955L167.764 41.5315L168.431 40.9189L168.377 40.8288L154.239 49.1351L152.183 45.6216L171.406 34.3243Z" fill="#FFD9F0"/>
<path d="M182.082 52.4505L184.336 56.2883L175.734 72.2523L175.067 72.8649L175.121 72.955L189.259 64.6487L191.315 68.1622L172.092 79.4595L169.837 75.6216L178.439 59.6577L179.106 59.045L179.052 58.955L164.914 67.2613L162.859 63.7477L182.082 52.4505Z" fill="#FFD9F0"/>
<path d="M192.757 70.5766L195.012 74.4144L186.41 90.3784L185.743 90.991L185.797 91.0811L199.935 82.7748L201.99 86.2883L182.767 97.5856L180.513 93.7477L189.115 77.7838L189.782 77.1712L189.728 77.0811L175.59 85.3874L173.534 81.8739L192.757 70.5766Z" fill="#FFD9F0"/>
<path d="M203.433 88.7027L205.687 92.5405L197.085 108.505L196.418 109.117L196.472 109.207L210.61 100.901L212.666 104.414L193.443 115.712L191.189 111.874L199.79 95.9099L200.458 95.2973L200.403 95.2072L186.266 103.514L184.21 100L203.433 88.7027Z" fill="#FFD9F0"/>
<path d="M214.091 106.829L216.345 110.667L207.743 126.631L207.076 127.243L207.13 127.333L221.268 119.027L223.323 122.541L204.1 133.838L201.846 130L210.448 114.036L211.115 113.423L211.061 113.333L196.923 121.64L194.867 118.126L214.091 106.829Z" fill="#FFD9F0"/>
<path d="M260.976 152.216V148.342H283.265V152.216H260.976Z" fill="#FFD9F0"/>
<path d="M260.976 144.45V140.577H283.265V144.45H260.976Z" fill="#FFD9F0"/>
<path d="M260.976 136.703V132.829H283.265V136.703H260.976Z" fill="#FFD9F0"/>
<path d="M260.976 128.937V125.063H283.265V128.937H260.976Z" fill="#FFD9F0"/>
<path d="M260.976 121.171V117.297H283.265V121.171H260.976Z" fill="#FFD9F0"/>
<path d="M260.976 113.423V109.55H283.265V113.423H260.976Z" fill="#FFD9F0"/>
<path d="M260.976 105.658V101.784H283.265V105.658H260.976Z" fill="#FFD9F0"/>
<path d="M260.976 97.8919V94.018H283.265V97.8919H260.976Z" fill="#FFD9F0"/>
<path d="M260.976 90.1441V86.2703H283.265V90.1441H260.976Z" fill="#FFD9F0"/>
<path d="M260.976 82.3784V78.5045H283.265V82.3784H260.976Z" fill="#FFD9F0"/>
<path d="M260.976 74.6126V70.7387H283.265V74.6126H260.976Z" fill="#FFD9F0"/>
<path d="M260.976 66.8649V62.991H283.265V66.8649H260.976Z" fill="#FFD9F0"/>
<path d="M260.976 59.0991V55.2252H283.265V59.0991H260.976Z" fill="#FFD9F0"/>
<path d="M260.976 51.3333V47.4595H283.265V51.3333H260.976Z" fill="#FFD9F0"/>
<path d="M260.976 43.5856V39.7117H283.265V43.5856H260.976Z" fill="#FFD9F0"/>
<path d="M260.976 35.8198V31.9459H283.265V35.8198H260.976Z" fill="#FFD9F0"/>
<path d="M260.976 28.0541V24.1802H283.265V28.0541H260.976Z" fill="#FFD9F0"/>
<path d="M260.976 20.3063V16.4324H283.265V20.3063H260.976Z" fill="#FFD9F0"/>
<path d="M334.966 146.649V152.216H331.503V137.153H334.966V142.721H353.522V146.649H334.966Z" fill="#FFD9F0"/>
<path d="M334.966 129.405V134.973H331.503V119.91H334.966V125.477H353.522V129.405H334.966Z" fill="#FFD9F0"/>
<path d="M334.966 112.162V117.73H331.503V102.667H334.966V108.234H353.522V112.162H334.966Z" fill="#FFD9F0"/>
<path d="M334.966 94.9009V100.468H331.503V85.4054H334.966V90.973H353.522V94.9009H334.966Z" fill="#FFD9F0"/>
<path d="M334.966 77.6577V83.2252H331.503V68.1622H334.966V73.7297H353.522V77.6577H334.966Z" fill="#FFD9F0"/>
<path d="M334.966 60.4144V65.982H331.503V50.9189H334.966V56.4865H353.522V60.4144H334.966Z" fill="#FFD9F0"/>
<path d="M334.966 43.1532V48.7207H331.503V33.6577H334.966V39.2252H353.522V43.1532H334.966Z" fill="#FFD9F0"/>
<path d="M334.966 25.9099V31.4775H331.503V16.4144H334.966V21.982H353.522V25.9099H334.966Z" fill="#FFD9F0"/>
<path d="M361.745 20.2342H356.173V16.7748H371.248V20.2342H365.676V38.7748H361.745V20.2342Z" fill="#FFD9F0"/>
<path d="M379.453 20.2342H373.881V16.7748H388.957V20.2342H383.384V38.7748H379.453V20.2342Z" fill="#FFD9F0"/>
<path d="M301.46 20.2342H295.888V16.7748H310.964V20.2342H305.392V38.7748H301.46V20.2342Z" fill="#FFD9F0"/>
<path d="M319.169 20.2342H313.597V16.7748H328.672V20.2342H323.1V38.7748H319.169V20.2342Z" fill="#FFD9F0"/>
<path d="M450.612 145.622L436.582 152.234V148.036L445.075 144.126L447.456 143.712V143.586L445.075 143.171L436.582 139.261V135.063L450.612 141.694H458.51V145.604H450.612V145.622Z" fill="#FFD9F0"/>
<path d="M450.612 127.315L436.582 133.928V129.73L445.075 125.82L447.456 125.405V125.279L445.075 124.865L436.582 120.955V116.757L450.612 123.387H458.51V127.297H450.612V127.315Z" fill="#FFD9F0"/>
<path d="M450.612 109.027L436.582 115.64V111.441L445.075 107.532L447.456 107.117V106.991L445.075 106.577L436.582 102.667V98.4685L450.612 105.099H458.51V109.009H450.612V109.027Z" fill="#FFD9F0"/>
<path d="M450.612 90.7387L436.582 97.3513V93.1532L445.075 89.2432L447.456 88.8288V88.7027L445.075 88.2883L436.582 84.3784V80.1802L450.612 86.8108H458.51V90.7207H450.612V90.7387Z" fill="#FFD9F0"/>
<path d="M462.91 78.9189L447.546 76.8108L449.836 73.2973L459.087 74.6306L461.305 75.5856L461.377 75.4775L459.61 73.8378L454.633 65.9279L456.923 62.4144L465.074 75.6216L471.692 79.9279L469.564 83.2072L462.946 78.9009L462.91 78.9189Z" fill="#FFD9F0"/>
<path d="M472.882 63.5856L457.518 61.4775L459.808 57.964L469.059 59.2973L471.277 60.2523L471.35 60.1441L469.582 58.5045L464.605 50.5946L466.895 47.0811L475.046 60.2883L481.664 64.5946L479.537 67.8739L472.918 63.5676L472.882 63.5856Z" fill="#FFD9F0"/>
<path d="M482.855 48.2523L467.49 46.1441L469.781 42.6306L479.032 43.964L481.25 44.9189L481.322 44.8108L479.555 43.1712L474.577 35.2613L476.868 31.7477L485.019 44.955L491.637 49.2613L489.509 52.5405L482.891 48.2342L482.855 48.2523Z" fill="#FFD9F0"/>
<path d="M492.827 32.9009L477.463 30.7928L479.753 27.2793L489.004 28.6126L491.222 29.5676L491.294 29.4595L489.527 27.8198L484.55 19.9099L486.84 16.3964L494.991 29.6036L501.609 33.9099L499.481 37.1892L492.863 32.8829L492.827 32.9009Z" fill="#FFD9F0"/>
<path d="M425.546 83.2252L423.418 79.9459L430.036 75.6396L438.187 62.4324L440.477 65.9459L435.5 73.8559L433.733 75.4955L433.805 75.6036L436.023 74.6487L445.274 73.3153L447.564 76.8288L432.2 78.9369L425.582 83.2432L425.546 83.2252Z" fill="#FFD9F0"/>
<path d="M415.573 67.8739L413.445 64.5946L420.064 60.2883L428.215 47.0811L430.505 50.5946L425.528 58.5045L423.76 60.1441L423.833 60.2523L426.051 59.2973L435.302 57.964L437.592 61.4775L422.228 63.5856L415.609 67.8919L415.573 67.8739Z" fill="#FFD9F0"/>
<path d="M405.601 52.5405L403.473 49.2613L410.091 44.955L418.242 31.7477L420.533 35.2613L415.555 43.1712L413.788 44.8108L413.86 44.9189L416.078 43.964L425.329 42.6306L427.619 46.1441L412.255 48.2523L405.637 52.5586L405.601 52.5405Z" fill="#FFD9F0"/>
<path d="M395.629 37.2072L393.501 33.9279L400.119 29.6216L408.27 16.4144L410.56 19.9279L405.583 27.8378L403.816 29.4775L403.888 29.5856L406.106 28.6306L415.357 27.2973L417.647 30.8108L402.283 32.9189L395.665 37.2252L395.629 37.2072Z" fill="#FFD9F0"/>
<path d="M134.367 183.189C135.16 182.072 135.394 180.739 135.394 178.414V166.072C135.394 163.748 135.178 162.378 134.367 161.297V161.171H139.542V161.297C138.749 162.378 138.514 163.748 138.514 166.072V178.414C138.514 180.739 138.731 182.072 139.542 183.189V183.315H134.367V183.189Z" fill="#FFD9F0"/>
<path d="M142.752 172.198C142.752 170.378 142.554 169.514 141.958 168.685V168.486L145.619 168.108H145.709V170.432H145.836C146.954 168.739 148.486 167.82 150.308 167.82C153.139 167.82 155.321 169.766 155.321 173.586V179.586C155.321 181.405 155.411 182.27 156.024 183.189V183.315H151.714V183.189C152.291 182.27 152.382 181.405 152.382 179.586V173.658C152.382 171.333 151.209 170.144 149.514 170.144C147.603 170.144 145.709 171.802 145.709 174.505V179.568C145.709 181.387 145.836 182.27 146.377 183.171V183.297H142.067V183.171C142.68 182.27 142.734 181.387 142.734 179.568V172.18L142.752 172.198Z" fill="#FFD9F0"/>
<path d="M165.473 179.243V170.324H162.372V168.468C165.437 168.396 165.906 167.856 166.033 164.486H168.395V168.216H172.669V170.324H168.395V179.153C168.395 180.775 169.062 181.514 170.505 181.514C171.208 181.514 171.875 181.387 172.542 181.027L172.867 182.613C171.965 183.279 170.865 183.694 169.639 183.694C167.187 183.694 165.455 182.288 165.455 179.225L165.473 179.243Z" fill="#FFD9F0"/>
<path d="M174.526 164.793C174.526 163.009 174.328 161.982 173.733 161.135V160.973L177.375 160.595H177.465V170.45H177.628C178.71 168.793 180.206 167.838 182.154 167.838C184.931 167.838 187.095 169.784 187.095 173.604V179.568C187.095 181.387 187.185 182.306 187.798 183.207V183.333H183.488V183.207C184.029 182.306 184.12 181.387 184.12 179.568V173.676C184.12 171.387 183.038 170.162 181.252 170.162C179.305 170.162 177.447 171.91 177.447 174.523V179.568C177.447 181.387 177.574 182.306 178.151 183.207V183.333H173.841V183.207C174.454 182.306 174.508 181.387 174.508 179.568V164.811L174.526 164.793Z" fill="#FFD9F0"/>
<path d="M202.477 181.333C200.981 182.865 199.159 183.694 196.923 183.694C192.559 183.694 189.205 180.577 189.205 175.658C189.205 171.171 192.198 167.82 196.256 167.82C199.736 167.82 202.279 170.018 202.279 174.126V175.333H192.126C192.253 179.153 194.453 181.207 197.68 181.207C199.376 181.207 200.71 180.721 202.117 179.766L202.459 181.333H202.477ZM192.271 173.459H199.321C199.249 171.135 197.987 169.766 196.076 169.766C193.966 169.766 192.667 171.135 192.271 173.459Z" fill="#FFD9F0"/>
<path d="M209.907 172.288C209.907 164.955 215.587 160.775 221.556 160.775C224.171 160.775 226.209 161.387 228.03 162.396V166.162H227.868C226.407 164.126 224.171 163.009 221.737 163.009C217.084 163.009 213.351 166.523 213.351 172C213.351 177.892 217.21 181.027 222.097 181.027C224.496 181.027 226.605 180.234 228.697 178.739L229.076 180.486C227.002 182.559 224.55 183.712 221.394 183.712C215.335 183.712 209.907 179.658 209.907 172.306V172.288Z" fill="#FFD9F0"/>
<path d="M229.617 175.73C229.617 171.099 232.863 167.82 237.245 167.82C241.627 167.82 244.801 171.063 244.801 175.73C244.801 180.396 241.573 183.694 237.245 183.694C232.917 183.694 229.617 180.378 229.617 175.73ZM241.627 175.73C241.627 172.126 239.878 169.964 237.263 169.964C234.648 169.964 232.827 172.198 232.827 175.73C232.827 179.261 234.522 181.568 237.263 181.568C240.004 181.568 241.627 179.369 241.627 175.73Z" fill="#FFD9F0"/>
<path d="M247.235 172.198C247.235 170.378 247.037 169.55 246.442 168.685V168.486L250.084 168.108H250.175V170.468H250.337C251.383 168.721 252.988 167.82 254.863 167.82C256.739 167.82 258.344 168.847 259.083 170.847H259.209C260.327 168.865 261.986 167.82 263.934 167.82C266.621 167.82 268.694 169.802 268.694 173.369V179.55C268.694 181.369 268.785 182.288 269.398 183.189V183.315H265.088V183.189C265.665 182.288 265.755 181.369 265.755 179.55V173.55C265.755 171.225 264.709 170.144 263.068 170.144C261.211 170.144 259.498 171.874 259.498 174.486V179.622C259.498 181.441 259.588 182.306 260.201 183.189V183.315H255.855V183.189C256.396 182.288 256.522 181.441 256.522 179.622V173.532C256.522 171.333 255.621 170.144 253.835 170.144C251.96 170.144 250.175 171.874 250.175 174.45V179.586C250.175 181.369 250.265 182.27 250.842 183.189V183.315H246.532V183.189C247.163 182.27 247.235 181.369 247.235 179.586V172.198Z" fill="#FFD9F0"/>
<path d="M272.211 172.198C272.211 170.378 272.013 169.55 271.417 168.685V168.486L275.06 168.108H275.15V170.468H275.313C276.359 168.721 277.963 167.82 279.839 167.82C281.714 167.82 283.319 168.847 284.059 170.847H284.185C285.303 168.865 286.962 167.82 288.909 167.82C291.596 167.82 293.67 169.802 293.67 173.369V179.55C293.67 181.369 293.76 182.288 294.374 183.189V183.315H290.064V183.189C290.641 182.288 290.731 181.369 290.731 179.55V173.55C290.731 171.225 289.685 170.144 288.044 170.144C286.187 170.144 284.473 171.874 284.473 174.486V179.622C284.473 181.441 284.564 182.306 285.177 183.189V183.315H280.831V183.189C281.372 182.288 281.498 181.441 281.498 179.622V173.532C281.498 171.333 280.596 170.144 278.811 170.144C276.936 170.144 275.15 171.874 275.15 174.45V179.586C275.15 181.369 275.24 182.27 275.818 183.189V183.315H271.508V183.189C272.139 182.27 272.211 181.369 272.211 179.586V172.198Z" fill="#FFD9F0"/>
<path d="M296.934 178.18V172.036C296.934 170.288 296.772 169.261 296.195 168.342V168.216H299.856V178.162C299.856 180.36 300.938 181.387 302.506 181.387C304.364 181.387 306.167 179.73 306.167 177.081V172.036C306.167 170.252 305.969 169.225 305.41 168.342V168.216H309.106V179.207C309.106 180.991 309.197 181.946 309.774 182.811V182.973L306.239 183.423H306.167V181.135H306.005C305.049 182.703 303.516 183.712 301.641 183.712C299.026 183.712 296.916 181.856 296.916 178.198L296.934 178.18Z" fill="#FFD9F0"/>
<path d="M312.821 172.198C312.821 170.378 312.623 169.514 312.028 168.685V168.486L315.689 168.108H315.779V170.432H315.905C317.023 168.739 318.556 167.82 320.377 167.82C323.208 167.82 325.39 169.766 325.39 173.586V179.586C325.39 181.405 325.48 182.27 326.094 183.189V183.315H321.784V183.189C322.361 182.27 322.451 181.405 322.451 179.586V173.658C322.451 171.333 321.279 170.144 319.584 170.144C317.672 170.144 315.779 171.802 315.779 174.505V179.568C315.779 181.387 315.905 182.27 316.446 183.171V183.297H312.136V183.171C312.749 182.27 312.803 181.387 312.803 179.568V172.18L312.821 172.198Z" fill="#FFD9F0"/>
<path d="M331.81 179.586C331.81 181.405 331.9 182.288 332.513 183.189V183.315H328.203V183.189C328.817 182.288 328.871 181.405 328.871 179.586V172.036C328.871 170.378 328.672 169.514 328.077 168.685V168.486L331.72 168.108H331.81V179.586ZM328.221 163.333C328.221 162.216 329.123 161.261 330.331 161.261C331.413 161.261 332.351 162.216 332.351 163.333C332.351 164.505 331.449 165.441 330.331 165.441C329.123 165.441 328.221 164.523 328.221 163.333Z" fill="#FFD9F0"/>
<path d="M336.336 179.243V170.324H333.235V168.468C336.3 168.396 336.769 167.856 336.895 164.486H339.258V168.216H343.531V170.324H339.258V179.153C339.258 180.775 339.925 181.514 341.368 181.514C342.071 181.514 342.738 181.387 343.405 181.027L343.73 182.613C342.828 183.279 341.728 183.694 340.502 183.694C338.049 183.694 336.318 182.288 336.318 179.225L336.336 179.243Z" fill="#FFD9F0"/>
<path d="M354.676 168.198H358.535V168.324C357.579 169.369 357.128 170.523 356.461 172.216L351.358 185.315C349.861 189.207 347.751 190.126 345.641 190.126C344.848 190.126 344.072 189.964 343.477 189.622V187.099C344.109 187.351 344.812 187.477 345.551 187.477C347.246 187.477 348.617 186.811 349.536 184.324L349.879 183.423L345.281 172.198C344.577 170.541 344.073 169.369 343.135 168.306V168.18H347.896V168.306C347.391 169.333 347.805 170.468 348.436 172.126L351.214 179.423H351.376L354.189 172.126C354.802 170.559 355.181 169.315 354.676 168.306V168.18V168.198Z" fill="#FFD9F0"/>
</svg>
