<svg width="699" height="200" viewBox="0 0 699 200" fill="none" xmlns="http://www.w3.org/2000/svg">
<path d="M631.808 107.933L698.039 45.0293L577.081 17.938L578.147 1.37575L507.128 18.1567L510.017 6.58034L428.83 8.73841V12.5834L299.765 11.7862L297.418 83.2347L277.317 57.0793L267.043 63.416L271.514 0.00244141L227.861 16.8958L226.763 8.35978L160.213 19.1176L163.76 39.4674L120.356 11.3588L104.592 30.8251L35.0858 37.8191L10.2244 100.464L43.9498 97.1077L0 178.703L161.685 179.988L161.702 180.036H167.862L190.226 180.214L190.153 180.036H425.093L541.045 200.002V182.306H659.269L631.807 107.932L631.808 107.933ZM177.863 120.419L166.4 119.772L175.247 105.4L177.864 120.419H177.863ZM308.449 97.5888L297.574 83.4383L334.268 74.4587L335.588 97.5888H308.449ZM394.197 74.1526L407.394 76.5143V95.5007L395.595 95.8094L394.197 74.1526Z" fill="#FFEDD9"/>
<path d="M161.069 99.8719L180.562 68.2032L123.51 31.2562L111.777 45.7454L112.043 45.1456L45.6269 51.8284L33.2143 83.1059L70.4921 79.3959L24.9737 163.905L167.92 165.041L133.062 79.1147L161.07 99.8719H161.069ZM76.896 124.541L97.8398 77.2303L115.444 124.77L76.896 124.541Z" fill="#990054"/>
<path d="M273.685 76.9279L250.063 91.4958L254.929 22.494L215.462 37.7667L213.899 25.6268L177.559 31.5012L195.844 136.451L161.152 134.493L172.195 165.04H291.095L305.725 118.618L273.683 76.9267L273.685 76.9279ZM217.026 54.6063L225.232 53.0393L223.442 104.343L217.026 54.6063ZM247.114 133.32L248.651 111.544L265.089 131.362L247.114 133.32Z" fill="#990054"/>
<path d="M381.592 111.176L378.034 56.0283L412.384 62.1751L415.247 27.4962L314.241 26.8714L313.014 64.2232L348.182 55.6172L351.43 112.583H314.65L298.701 165.04H424.652L421.789 110.124L381.592 111.174V111.176ZM343.095 140.861L351.994 122.461L353.09 141.681L343.096 140.861H343.095ZM383.349 138.402L382.24 121.199L395.617 138.812L383.349 138.402Z" fill="#990054"/>
<path d="M490.386 132.428L464.117 128.714L472.442 95.3533L506.55 93.9862V66.9848H479.521L490.723 22.0954L443.794 23.3425V54.0565L454.19 53.6278L450.608 66.9848H422.356V97.3614L442.681 96.5467L428.081 165.336L526.084 182.212V111.839H490.386V132.428Z" fill="#990054"/>
<path d="M621.829 96.7516L667.347 53.5191L561.326 29.7742L561.915 20.6184L514.063 31.926L517.564 68.7568L538.184 53.5204L529.625 122.772L547.338 115.258L528.214 167.31H637.78L609.272 90.1025L621.83 96.7516H621.829ZM611.324 56.0996L601.128 68.0533L595.762 53.5204L611.324 56.0996ZM575.92 72.8655L558.024 81.0529L560.233 46.7363L575.92 72.8642V72.8655ZM572.803 134.686L583.702 104.837H571.905L583.504 99.9168L595.587 134.686H572.803Z" fill="#990054"/>
<path d="M575.156 45.4729C579.042 43.866 582.794 45.6979 584.22 49.1618C585.49 52.2495 584.61 55.0499 582.352 56.5932L582.178 56.5807L581.152 54.5463C582.526 53.4529 582.943 51.7684 582.197 49.9553C581.17 47.4598 578.665 46.6688 576.085 47.7347C573.505 48.8006 572.293 51.1511 573.327 53.6641C574.059 55.441 575.533 56.3232 577.283 56.1458L577.979 58.2951L577.873 58.4438C574.984 58.8612 572.525 57.4191 571.322 54.4938C569.895 51.0287 571.268 47.0799 575.155 45.4729H575.156Z" fill="#FFEDD9"/>
<path d="M580.454 58.3438C584.306 56.7519 588.04 58.4426 589.51 62.0152C590.988 65.6053 589.529 69.4441 585.677 71.036C581.826 72.628 578.091 70.9373 576.614 67.3472C575.144 63.7746 576.602 59.9371 580.454 58.3451V58.3438ZM584.738 68.7555C587.353 67.6746 588.53 65.3391 587.504 62.8437C586.484 60.3657 584 59.5235 581.384 60.6044C578.769 61.6853 577.6 64.0383 578.619 66.5162C579.637 68.9942 582.122 69.8364 584.738 68.7543V68.7555Z" fill="#FFEDD9"/>
<path d="M592.434 69.629L593.358 71.8733L585.173 79.7933L596.557 79.6458L597.481 81.8901L584.943 87.0734L584.056 84.9191L591.92 81.6689L591.89 81.5977L591.065 81.8339L582.844 81.9763L581.995 79.912L587.925 74.205L588.676 73.7889L588.646 73.7177L580.782 76.9679L579.895 74.8136L592.434 69.6302V69.629Z" fill="#FFEDD9"/>
<path d="M598.116 83.4333L599.04 85.6776L590.855 93.5976L602.239 93.4502L603.163 95.6944L590.625 100.878L589.738 98.7235L597.602 95.4733L597.572 95.402L596.747 95.6382L588.526 95.7807L587.677 93.7163L593.607 88.0094L594.358 87.5933L594.328 87.522L586.464 90.7723L585.577 88.618L598.116 83.4346V83.4333Z" fill="#FFEDD9"/>
<path d="M595.934 100.488L603.798 97.2377L604.722 99.482L596.894 102.718C595.067 103.473 594.365 104.773 595.081 106.513C595.797 108.254 597.209 108.679 599.036 107.924L606.864 104.688L607.788 106.932L599.924 110.182C597.057 111.367 594.338 110.412 593.075 107.342C591.812 104.272 593.069 101.673 595.934 100.488Z" fill="#FFEDD9"/>
<path d="M608.423 108.475L609.435 110.935L602.847 119.729L602.389 120.044L602.411 120.098L611.636 116.284L612.56 118.528L600.021 123.712L599.009 121.253L605.597 112.458L606.055 112.143L606.032 112.089L596.808 115.903L595.884 113.659L608.423 108.475Z" fill="#FFEDD9"/>
<path d="M613.196 120.072L614.12 122.316L601.581 127.499L600.657 125.255L613.196 120.072Z" fill="#FFEDD9"/>
<path d="M613.84 127.241L612.532 124.063L614.502 123.248L618.041 131.847L616.071 132.661L614.763 129.484L604.194 133.852L603.271 131.608L613.839 127.239L613.84 127.241Z" fill="#FFEDD9"/>
<path d="M611.57 138.936L618.036 131.83L619.026 134.236L615.096 138.487L613.83 139.283L613.86 139.354L615.318 139.024L621.096 139.262L622.086 141.667L612.495 141.179L607.981 143.044L607.057 140.8L611.571 138.934L611.57 138.936Z" fill="#FFEDD9"/>
<path d="M88.7014 138.812H91.1229V152.405H88.7014V138.812Z" fill="#FFEDD9"/>
<path d="M92.7899 138.812H95.4445L101.044 148.269L101.16 148.812H101.219V138.812H103.641V152.405H100.987L95.3872 142.948L95.2712 142.405H95.2126V152.405H92.7899V138.812Z" fill="#FFEDD9"/>
<path d="M349.459 36.9419H346.029V34.8063H355.311V36.9419H351.881V48.3995H349.459V36.9419Z" fill="#FFEDD9"/>
<path d="M356.318 34.8063H358.741V40.5345H364.457V34.8063H366.878V48.3995H364.457V42.6713H358.741V48.3995H356.318V34.8063Z" fill="#FFEDD9"/>
<path d="M368.545 34.8063H377.11V36.9419H370.968V40.5345H376.587V42.6701H370.968V46.2627H377.323V48.3983H368.545V34.8051V34.8063Z" fill="#FFEDD9"/>
</svg>
