<svg width="191" height="200" viewBox="0 0 191 200" fill="none" xmlns="http://www.w3.org/2000/svg">
<path d="M181.583 66.8741V50.3069H172.962V42.0233H164.348V33.7458H155.727V25.4622H138.492V17.1785H121.256V8.89492H86.7857V0.617439H60.9358V8.89492H43.7005V17.1785H26.4652V25.4622H17.8507V33.7458H9.22994V42.0233H0.615369V58.5905H17.8507V50.3069H26.4652V42.0233H35.086V33.7458H60.9358V25.4622H121.256V33.7458H129.877V42.0233H138.492V50.3069H147.112V58.5905H155.727V75.1516H164.348V141.414H155.727V149.692H147.112V157.975H129.877V166.259H121.256V174.543H69.5504V166.259H60.9358V157.975H52.3213V149.692H43.7005V141.414H35.086V124.847H26.4652V100.002H35.086V83.4352H43.7005V75.1516H52.3213V66.8741H69.5504V58.5905H104.021V66.8741H121.256V75.1516H129.877V91.7188H138.492V108.286H129.877V133.131H121.256V141.414H78.1711V133.131H69.5504V100.002H78.1711V91.7188H95.4064V100.002H104.021V116.564H86.7857V133.131H112.642V124.847H121.256V91.7188H112.642V75.1516H69.5504V83.4352H60.9358V91.7188H52.3213V108.286H43.7005V133.131H52.3213V149.692H60.9358V157.975H86.7857V166.259H112.642V157.975H129.877V149.692H138.492V141.414H147.112V124.847H155.727V75.1516H147.112V66.8741H138.492V50.3069H121.256V42.0233H86.7857V33.7458H69.5504V42.0233H60.9358V50.3069H43.7005V58.5905H35.086V66.8741H26.4652V75.1516H17.8507V83.4352H9.22994V116.564H0.615369V133.131H9.22994V157.975H17.8507V166.259H26.4652V174.543H35.086V182.82H43.7005V191.104H78.1711V199.387H104.021V191.104H129.877V182.82H155.727V174.543H164.348V166.259H172.962V149.692H181.583V133.131H190.197V66.8741H181.583Z" fill="#4AC8F4"/>
<path d="M86.7857 0.617439V8.89492H121.256V17.1785H138.492V25.4622H155.727V33.7458H164.348V42.0233H172.962V50.3069H181.583V66.8741H190.197V133.131H181.583V149.692H172.962V166.259H164.348V174.543H155.727V182.82H129.877V191.104H104.021V199.387H78.1711V191.104H43.7005V182.82H35.086V174.543H26.4652V166.259H17.8507V157.975H9.22994V133.131H0.615369V116.564H9.22994V83.4352H17.8507V75.1516H26.4652V66.8741H35.086V58.5905H43.7005V50.3069H60.9358V42.0233H69.5504V33.7458H86.7857V42.0233H121.256V50.3069H138.492V66.8741H147.112V75.1516H155.727V124.847H147.112V141.414H138.492V149.692H129.877V157.975H112.642V166.259H86.7857V157.975H60.9358V149.692H52.3213V133.131H43.7005V108.286H52.3213V91.7188H60.9358V83.4352H69.5504V75.1516H112.642V91.7188H121.256V124.847H112.642V133.131H86.7857V116.564H104.021V100.002H95.4064V91.7188H78.1711V100.002H69.5504V133.131H78.1711V141.414H121.256V133.131H129.877V108.286H138.492V91.7188H129.877V75.1516H121.256V66.8741H104.021V58.5905H69.5504V66.8741H52.3213V75.1516H43.7005V83.4352H35.086V100.002H26.4652V124.847H35.086V141.414H43.7005V149.692H52.3213V157.975H60.9358V166.259H69.5504V174.543H121.256V166.259H129.877V157.975H147.112V149.692H155.727V141.414H164.348V75.1516H155.727V58.5905H147.112V50.3069H138.492V42.0233H129.877V33.7458H121.256V25.4622H60.9358V33.7458H35.086V42.0233H26.4652V50.3069H17.8507V58.5905H0.615369V42.0233H9.22994V33.7458H17.8507V25.4622H26.4652V17.1785H43.7005V8.89492H60.9358V0.617439H86.7857ZM87.401 0.00244141H60.3205V8.27993H43.0852V16.5635H25.8499V24.8472H17.2353V33.1308H8.61459V41.4083H0V59.2055H18.466V50.9218H27.0806V42.6382H35.7013V34.3607H61.5512V26.0771H120.641V34.3607H129.262V42.6382H137.876V49.6919H121.872V41.4083H87.401V33.1308H68.9351V41.4083H60.3205V49.6919H43.0852V57.9755H34.4706V66.2591H25.8499V74.5366H17.2353V82.8202H8.61459V115.949H0V133.746H8.61459V158.59H17.2353V166.874H25.8499V175.158H34.4706V183.435H43.0852V191.719H77.5558V200.002H104.636V191.719H130.492V183.435H156.342V175.158H164.963V166.874H173.578V150.307H182.198V133.746H190.813V66.2591H182.198V49.6919H173.578V41.4083H164.963V33.1308H156.342V24.8472H139.107V16.5635H121.872V8.27993H87.401V0.00244141ZM139.107 50.9218H146.497V59.2055H155.111V74.5366H147.728V66.2591H139.107V50.9218ZM70.1657 59.2055H103.406V67.4891H120.641V75.7666H129.262V92.3338H137.876V107.671H129.262V132.516H120.641V140.799H78.7864V132.516H70.1657V100.617H78.7864V92.3338H94.7911V100.617H103.406V115.949H86.1704V133.746H113.257V125.462H121.872V91.1038H113.257V74.5366H68.9351V82.8202H60.3205V91.1038H51.7059V107.671H43.0852V133.746H51.7059V149.077H44.3159V140.799H35.7013V124.232H27.0806V100.617H35.7013V84.0502H44.3159V75.7666H52.9366V67.4891H70.1657V59.2055ZM156.342 75.7666H163.732V140.799H155.111V149.077H146.497V157.361H130.492V150.307H139.107V142.029H147.728V125.462H156.342V75.7666ZM52.9366 150.307H60.3205V157.361H52.9366V150.307ZM113.257 158.59H129.262V165.644H120.641V173.928H70.1657V165.644H61.5512V158.59H86.1704V166.874H113.257V158.59Z" fill="black"/>
<path d="M6.27115 47.9131L9.84405 43.6931L10.4937 44.2425L7.52391 47.7503L10.3211 50.116L13.0605 46.8803L13.7101 47.4298L10.9707 50.6655L14.2085 53.4033L13.6054 54.1153L6.27115 47.9131Z" fill="#002899"/>
<path d="M12.9098 44.4645L13.4992 43.851L14.2417 44.5633C14.0635 43.9169 14.1508 42.9741 14.7494 42.3504C14.9491 42.1427 15.1023 42.0426 15.2376 42.001L15.6579 42.6133C15.5619 42.6735 15.4572 42.7628 15.2953 42.9313C14.7821 43.4657 14.6667 44.4576 15.0538 45.3422L18.4505 48.6001L17.8611 49.2136L12.9098 44.4645Z" fill="#002899"/>
<path d="M18.0251 44.0475C16.6385 42.5444 16.6252 40.4851 18.1395 39.0904C19.6537 37.6955 21.7062 37.8762 23.0923 39.3793C24.4788 40.8825 24.4921 42.9415 22.9779 44.3364C21.4636 45.7314 19.4116 45.5507 18.0251 44.0475ZM22.4667 39.9558C21.22 38.604 19.6884 38.7457 18.6793 39.6756C17.6696 40.6053 17.404 42.1189 18.6507 43.471C19.8978 44.8228 21.4289 44.6812 22.4381 43.7512C23.4477 42.8213 23.7133 41.3077 22.4667 39.9558Z" fill="#002899"/>
<path d="M22.1434 35.6531L22.8185 35.1358L23.4447 35.9522C23.4018 35.2422 23.7159 34.2763 24.4237 33.734C25.1862 33.15 25.8695 33.162 26.5155 33.5313C26.5314 32.6726 26.8853 31.8488 27.6258 31.2814C28.6064 30.5306 29.6211 30.7039 30.3806 31.6946L33.4188 35.6572L32.7436 36.1742L29.8305 32.375C29.2376 31.6022 28.6002 31.5374 27.9465 32.0379C27.3587 32.4883 27.0932 33.3825 27.1922 34.1882L30.2054 38.1181L29.5302 38.6352L26.6504 34.8796C26.0661 34.1175 25.3654 34.0149 24.7771 34.4654C24.0693 35.0077 23.9809 36.0428 24.079 36.7796L26.992 40.5788L26.3062 41.1045L22.1434 35.6531Z" fill="#002899"/>
<path d="M32.1869 24.9873L33.1052 24.4381L41.4088 28.9042L37.2511 21.9593L38.0524 21.4803L42.9843 29.7204L42.066 30.2696L33.7625 25.8032L37.9201 32.7484L37.1188 33.2271L32.1869 24.9873Z" fill="#002899"/>
<path d="M42.6962 25.9785C41.7351 24.0663 42.3944 22.139 44.0011 21.3323C45.5955 20.532 47.3401 21.038 48.2762 22.9013L48.4611 23.269L43.6043 25.707C44.331 27.092 45.6456 27.5988 46.8718 26.9833C48.0495 26.3922 48.1644 25.4901 48.028 24.699L48.7885 24.3174C49.1041 25.7093 48.6766 26.9677 47.217 27.7004C45.4878 28.5684 43.6574 27.8908 42.6962 25.9785ZM47.3804 23.0133C46.8074 21.9346 45.5485 21.4461 44.3586 22.0433C43.1692 22.6405 42.8275 23.8558 43.2841 25.0695L47.3804 23.0133Z" fill="#002899"/>
<path d="M50.1612 23.7698L48.3278 19.3933L49.1122 19.0651L50.9299 23.4035C51.2797 24.2383 52.0263 24.565 52.9502 24.1783C53.7857 23.829 54.3179 22.863 54.395 21.8049L52.631 17.5928L53.4155 17.2646L56.0645 23.5888L55.28 23.917L54.8352 22.8546C54.7009 23.5648 54.1054 24.5573 53.0804 24.9863C51.8149 25.5159 50.7281 25.1231 50.1612 23.7698Z" fill="#002899"/>
<path d="M54.3342 13.5544L55.1401 13.2798L57.0885 18.9926L58.8478 15.3498L59.8871 14.9958L57.9996 18.8997L62.3743 21.3946L61.3217 21.7531L57.2478 19.4601L58.3729 22.7579L57.5675 23.0322L54.3342 13.5544Z" fill="#002899"/>
<path d="M61.5449 18.0371C61.0301 16.0585 61.9887 14.2358 63.9815 13.7178C65.9742 13.2 67.6999 14.3251 68.2147 16.3035C68.7295 18.2821 67.7714 20.1048 65.7781 20.6228C63.7853 21.1406 62.0597 20.0157 61.5449 18.0371ZM61.7793 12.504C61.6894 12.1587 61.9054 11.7907 62.2379 11.7045C62.5831 11.6146 62.9514 11.8308 63.0412 12.1761C63.1311 12.5214 62.9146 12.8894 62.5694 12.9792C62.2374 13.0655 61.8687 12.8493 61.7793 12.504ZM67.3909 16.5176C66.9282 14.7383 65.5105 14.1427 64.1817 14.488C62.8533 14.8333 61.9059 16.0437 62.3686 17.823C62.8319 19.6023 64.2491 20.1979 65.5779 19.8526C66.9063 19.5073 67.8541 18.2969 67.3909 16.5176ZM64.0509 11.9135C63.961 11.5684 64.1776 11.2002 64.5228 11.1103C64.8553 11.0241 65.2235 11.2402 65.3134 11.5855C65.4033 11.9308 65.1867 12.2988 64.8548 12.3851C64.509 12.4749 64.1408 12.2588 64.0509 11.9135Z" fill="#002899"/>
<path d="M68.4818 9.60387L69.3178 9.44666L71.1702 19.2856L70.3341 19.4428L68.4818 9.60387Z" fill="#002899"/>
<path d="M71.2978 9.10954L72.139 8.98347L73.6246 18.8864L72.783 19.0125L71.2978 9.10954Z" fill="#002899"/>
<path d="M74.6864 11.78L75.5357 11.7208L75.6159 12.8702C75.9708 12.2404 76.8543 11.4911 77.9631 11.4135C79.3328 11.3178 80.2362 12.0385 80.3327 13.4207L80.6698 18.2379L79.821 18.2974L79.4926 13.6032C79.4293 12.7 78.8267 12.1508 77.8272 12.2205C76.9646 12.281 76.1623 13.0108 75.6955 14.0061L76.0142 18.5633L75.1654 18.6225L74.6864 11.78Z" fill="#002899"/>
<path d="M85.8397 16.7437L85.9592 12.0689L84.6702 12.036L84.688 11.3232L85.9776 11.3561L86.0302 9.29966L86.8728 9.63679L86.8279 11.3778L88.4055 11.4181L88.3876 12.1312L86.81 12.0908L86.6931 16.6422C86.6747 17.3687 86.9964 17.665 87.5863 17.6801C87.8468 17.687 87.9852 17.6492 88.2482 17.5736L88.2303 18.2729C87.8846 18.3737 87.6093 18.3941 87.3074 18.3865C86.2651 18.3597 85.8167 17.6487 85.8397 16.7437Z" fill="#002899"/>
<path d="M88.9361 14.8271C89.1205 12.7916 90.6383 11.4 92.6888 11.5855C94.7393 11.7708 95.9823 13.412 95.7979 15.4478C95.6141 17.4833 94.0958 18.8747 92.0458 18.6894C89.9953 18.5039 88.7517 16.8626 88.9361 14.8271ZM94.9507 15.371C95.1161 13.5404 93.9839 12.5015 92.6168 12.3777C91.2501 12.2542 89.9493 13.0731 89.7839 14.9037C89.6179 16.7343 90.7501 17.7735 92.1173 17.897C93.4844 18.0205 94.7847 17.2016 94.9507 15.371Z" fill="#002899"/>
<path d="M100.515 18.2372L101.405 13.644L100.138 13.3988L100.274 12.6985L101.541 12.9435L101.932 10.923L102.708 11.3946L102.376 13.1053L103.926 13.4051L103.79 14.1057L102.241 13.8056L101.374 18.2778C101.236 18.9916 101.505 19.3371 102.084 19.4491C102.341 19.4987 102.483 19.4844 102.755 19.4532L102.621 20.1402C102.264 20.1826 101.989 20.1573 101.693 20.1002C100.668 19.9019 100.343 19.1263 100.515 18.2372Z" fill="#002899"/>
<path d="M106.158 10.6502L106.981 10.8643L105.903 15.0048C106.54 14.5186 107.549 14.1292 108.744 14.44C110.085 14.7889 110.664 15.8885 110.325 17.1891L109.133 21.7674L108.31 21.5533L109.516 16.9219C109.744 16.046 109.247 15.3927 108.318 15.151C107.415 14.9162 106.376 15.312 105.651 15.9735L104.459 20.5519L103.636 20.3378L106.158 10.6502Z" fill="#002899"/>
<path d="M111.387 18.8594C112.089 16.8376 113.931 15.9666 115.63 16.5559C117.316 17.1406 118.168 18.7432 117.485 20.7132L117.349 21.1018L112.215 19.3208C111.727 20.8071 112.28 22.1022 113.577 22.5522C114.821 22.984 115.549 22.4376 116.021 21.7883L116.825 22.0673C116.046 23.2637 114.846 23.8346 113.302 23.2994C111.474 22.665 110.685 20.8811 111.387 18.8594ZM116.779 20.1492C117.154 18.9867 116.627 17.7439 115.369 17.3075C114.111 16.8711 113.001 17.4736 112.448 18.6468L116.779 20.1492Z" fill="#002899"/>
<path d="M123.728 16.7276L124.608 17.1773L123.022 25.0118L122.743 26.0097L123.389 25.1992L128.85 19.344L129.682 19.7687L128.132 27.6221L127.853 28.6199L128.499 27.8094L133.924 21.9356L134.804 22.3853L127.961 29.6765L126.958 29.1643L128.66 20.7415L122.826 27.0537L121.824 26.5415L123.728 16.7276Z" fill="#002899"/>
<path d="M132.277 28.2175C133.391 26.5038 135.383 25.9821 137.109 27.103C138.835 28.2238 139.168 30.2553 138.053 31.9687C136.939 33.6821 134.947 34.204 133.221 33.0829C131.495 31.9621 131.163 29.9309 132.277 28.2175ZM137.34 31.5053C138.342 29.9643 137.826 28.5173 136.675 27.7701C135.525 27.0226 133.992 27.1397 132.99 28.6807C131.988 30.2216 132.504 31.6688 133.655 32.4161C134.805 33.1633 136.338 33.0464 137.34 31.5053Z" fill="#002899"/>
<path d="M141.289 30.1223L141.971 30.6307L141.357 31.4555C141.976 31.1985 142.923 31.1684 143.616 31.6849C143.847 31.8572 143.966 31.9965 144.024 32.1254L143.468 32.6182C143.396 32.5304 143.295 32.4375 143.107 32.2982C142.513 31.8554 141.514 31.8638 140.683 32.3574L137.87 36.1296L137.188 35.6212L141.289 30.1223Z" fill="#002899"/>
<path d="M146.966 30.4832L147.63 31.0155L141.355 38.8227L140.692 38.2901L146.966 30.4832Z" fill="#002899"/>
<path d="M144.68 37.0485C146.206 35.3397 148.09 35.3104 149.339 36.4246C150.025 37.0363 150.383 37.8706 150.361 38.678L153.038 35.6801L153.673 36.2462L147.003 43.7158L146.368 43.1495L147.007 42.4334C146.295 42.5515 145.386 42.4574 144.618 41.7726C143.318 40.613 143.154 38.7571 144.68 37.0485ZM148.232 41.0621L149.064 40.1312C149.858 39.241 149.874 37.9675 148.88 37.082C147.857 36.1686 146.512 36.2743 145.314 37.6146C144.118 38.9552 144.093 40.2386 145.189 41.2155C146.284 42.1927 147.51 41.8706 148.232 41.0621Z" fill="#002899"/>
<path d="M151.727 46.4202L155.145 43.2248L154.264 42.283L154.785 41.7959L155.666 42.7373L157.169 41.3316L157.52 42.1682L156.247 43.3585L157.326 44.5102L156.804 44.9977L155.726 43.8457L152.398 46.9569C151.867 47.4535 151.882 47.8907 152.285 48.3214C152.463 48.5116 152.587 48.5838 152.825 48.7178L152.314 49.1958C152 49.0202 151.792 48.8387 151.586 48.6182C150.873 47.857 151.066 47.0385 151.727 46.4202Z" fill="#002899"/>
<path d="M155.255 47.2761C156.827 45.969 158.884 46.0601 160.201 47.6416C161.518 49.2231 161.233 51.2616 159.662 52.5688C158.09 53.876 156.032 53.7849 154.716 52.2034C153.399 50.6218 153.683 48.5833 155.255 47.2761ZM159.117 51.915C160.531 50.7395 160.467 49.2047 159.589 48.1502C158.711 47.0959 157.213 46.7542 155.799 47.9297C154.386 49.1052 154.449 50.6402 155.327 51.6945C156.205 52.7487 157.704 53.0904 159.117 51.915Z" fill="#002899"/>
<path d="M167.53 52.8207L168.118 53.7157L163.991 62.1926L170.766 57.7553L171.278 58.5357L163.24 63.8004L162.653 62.9051L166.779 54.4282L160.004 58.8655L159.492 58.085L167.53 52.8207Z" fill="#002899"/>
<path d="M166.961 63.3831C168.853 62.3817 170.795 62.9988 171.637 64.5869C172.472 66.1625 172.003 67.9163 170.159 68.8922L169.796 69.0846L167.252 64.2842C165.882 65.0406 165.403 66.3652 166.046 67.5769C166.663 68.7406 167.567 68.836 168.355 68.6829L168.754 69.4342C167.368 69.7798 166.1 69.3801 165.336 67.9372C164.43 66.2284 165.069 64.3848 166.961 63.3831ZM170.028 67.9995C171.095 67.4038 171.556 66.135 170.933 64.959C170.31 63.7835 169.087 63.4683 167.883 63.9504L170.028 67.9995Z" fill="#002899"/>
<path d="M169.318 70.8042L173.691 68.9524L174.023 69.7359L169.688 71.5713C168.853 71.9245 168.53 72.6728 168.92 73.5946C169.274 74.4286 170.243 74.9569 171.303 75.0299L175.512 73.2475L175.844 74.031L169.524 76.7065L169.192 75.9231L170.254 75.4739C169.542 75.3427 168.546 74.7517 168.112 73.7283C167.577 72.465 167.965 71.3769 169.318 70.8042Z" fill="#002899"/>
<path d="M179.572 75.0324L179.839 75.8399L174.106 77.7345L177.734 79.526L178.078 80.5678L174.19 78.6456L171.654 82.9948L171.304 81.9398L173.636 77.8897L170.326 78.9835L170.059 78.176L179.572 75.0324Z" fill="#002899"/>
<path d="M175.021 82.2016C177.009 81.7203 178.816 82.7084 179.301 84.7087C179.786 86.709 178.631 88.4143 176.643 88.8956C174.655 89.3769 172.848 88.3883 172.363 86.3885C171.878 84.3882 173.033 82.6829 175.021 82.2016ZM176.443 88.0688C178.231 87.6359 178.851 86.2298 178.527 84.8961C178.204 83.5629 177.009 82.5956 175.221 83.0285C173.433 83.4613 172.814 84.8675 173.137 86.2012C173.46 87.5344 174.655 88.5016 176.443 88.0688ZM180.552 82.5283C180.899 82.4446 181.264 82.6666 181.345 82.9999C181.429 83.3465 181.206 83.7109 180.86 83.7951C180.512 83.8788 180.148 83.6568 180.064 83.3102C179.983 82.9769 180.205 82.6125 180.552 82.5283ZM181.105 84.8083C181.452 84.7246 181.817 84.9466 181.9 85.2937C181.981 85.627 181.759 85.9914 181.412 86.0751C181.065 86.1593 180.7 85.9368 180.62 85.6035C180.536 85.2569 180.758 84.8925 181.105 84.8083Z" fill="#002899"/>
<path d="M183.364 89.3718L183.498 90.212L173.601 91.7896L173.467 90.9495L183.364 89.3718Z" fill="#002899"/>
<path d="M183.783 92.0755L183.897 92.9182L173.971 94.2687L173.856 93.426L183.783 92.0755Z" fill="#002899"/>
<path d="M181.049 95.3421L181.11 96.1899L179.961 96.2731C180.592 96.6263 181.343 97.5067 181.423 98.6148C181.523 99.9822 180.804 100.887 179.421 100.987L174.604 101.335L174.543 100.487L179.237 100.148C180.141 100.082 180.688 99.4789 180.616 98.4806C180.554 97.619 179.822 96.8192 178.825 96.3552L174.268 96.6845L174.207 95.8367L181.049 95.3421Z" fill="#002899"/>
<path d="M176.047 106.491L180.724 106.659L180.771 105.371L181.484 105.397L181.437 106.685L183.495 106.759L183.149 107.598L181.407 107.535L181.35 109.112L180.636 109.086L180.694 107.51L176.139 107.345C175.412 107.319 175.112 107.638 175.091 108.227C175.081 108.488 175.118 108.626 175.191 108.89L174.491 108.865C174.394 108.518 174.376 108.243 174.387 107.941C174.425 106.899 175.141 106.458 176.047 106.491Z" fill="#002899"/>
<path d="M177.931 109.611C179.964 109.824 181.334 111.361 181.119 113.407C180.903 115.452 179.243 116.671 177.21 116.457C175.177 116.243 173.808 114.706 174.023 112.66C174.238 110.615 175.898 109.397 177.931 109.611ZM177.299 115.611C179.128 115.803 180.183 114.687 180.327 113.323C180.471 111.96 179.671 110.648 177.842 110.456C176.014 110.264 174.958 111.38 174.814 112.743C174.671 114.107 175.471 115.418 177.299 115.611Z" fill="#002899"/>
<path d="M174.323 121.135L178.897 122.122L179.169 120.861L179.867 121.012L179.595 122.272L181.606 122.707L181.119 123.471L179.415 123.104L179.082 124.645L178.384 124.495L178.717 122.953L174.264 121.992C173.553 121.838 173.202 122.099 173.077 122.676C173.022 122.931 173.034 123.074 173.059 123.346L172.375 123.198C172.34 122.839 172.371 122.566 172.435 122.271C172.655 121.252 173.438 120.944 174.323 121.135Z" fill="#002899"/>
<path d="M181.789 126.963L181.554 127.78L177.438 126.598C177.909 127.247 178.273 128.265 177.932 129.452C177.549 130.783 176.434 131.333 175.141 130.962L170.59 129.655L170.826 128.838L175.429 130.16C176.3 130.41 176.966 129.93 177.231 129.008C177.489 128.111 177.119 127.063 176.476 126.322L171.925 125.015L172.16 124.198L181.789 126.963Z" fill="#002899"/>
<path d="M173.44 131.987C175.439 132.753 176.251 134.622 175.607 136.3C174.968 137.965 173.337 138.765 171.39 138.018L171.005 137.871L172.952 132.799C171.481 132.265 170.168 132.775 169.676 134.056C169.204 135.285 169.727 136.029 170.362 136.522L170.057 137.316C168.885 136.5 168.353 135.282 168.938 133.758C169.631 131.952 171.441 131.221 173.44 131.987ZM171.976 137.332C173.127 137.744 174.387 137.257 174.863 136.015C175.34 134.772 174.774 133.644 173.618 133.054L171.976 137.332Z" fill="#002899"/>
<path d="M175.104 144.52L174.609 145.375L166.868 143.381L165.886 143.05L166.661 143.738L172.222 149.493L171.754 150.3L163.993 148.342L163.01 148.011L163.786 148.698L169.368 154.418L168.872 155.272L161.95 148.063L162.514 147.089L170.837 149.23L164.839 143.079L165.403 142.106L175.104 144.52Z" fill="#002899"/>
<path d="M163.132 152.459C164.754 153.705 165.118 155.731 163.863 157.363C162.609 158.995 160.555 159.166 158.934 157.92C157.312 156.675 156.948 154.649 158.203 153.017C159.457 151.385 161.51 151.214 163.132 152.459ZM159.452 157.246C160.911 158.366 162.396 157.966 163.232 156.878C164.068 155.79 164.072 154.254 162.614 153.134C161.155 152.014 159.67 152.414 158.834 153.502C157.998 154.589 157.994 156.126 159.452 157.246Z" fill="#002899"/>
<path d="M160.425 161.335L159.849 161.961L159.091 161.265C159.284 161.908 159.217 162.852 158.633 163.489C158.438 163.701 158.287 163.804 158.153 163.849L157.719 163.246C157.814 163.184 157.916 163.092 158.074 162.92C158.575 162.375 158.668 161.381 158.262 160.505L154.794 157.324L155.37 156.697L160.425 161.335Z" fill="#002899"/>
<path d="M159.395 167.01L158.788 167.607L151.758 160.475L152.364 159.878L159.395 167.01Z" fill="#002899"/>
<path d="M153.133 164.008C154.614 165.757 154.381 167.626 153.102 168.706C152.4 169.3 151.523 169.539 150.726 169.404L153.324 172.472L152.674 173.021L146.202 165.377L146.852 164.828L147.472 165.561C147.455 164.839 147.675 163.952 148.46 163.288C149.791 162.163 151.653 162.259 153.133 164.008ZM148.661 166.964L149.467 167.917C150.239 168.828 151.498 169.021 152.514 168.161C153.562 167.275 153.645 165.929 152.484 164.558C151.322 163.186 150.054 162.982 148.933 163.931C147.812 164.879 147.96 166.137 148.661 166.964Z" fill="#002899"/>
<path d="M142.779 169.504L145.272 173.464L146.363 172.777L146.743 173.381L145.652 174.068L146.748 175.809L145.859 175.995L144.931 174.52L143.595 175.36L143.215 174.757L144.551 173.916L142.124 170.061C141.737 169.446 141.304 169.377 140.805 169.692C140.584 169.831 140.49 169.938 140.313 170.147L139.94 169.554C140.172 169.279 140.39 169.11 140.646 168.949C141.529 168.394 142.296 168.738 142.779 169.504Z" fill="#002899"/>
<path d="M141.237 172.82C142.176 174.636 141.645 176.625 139.816 177.569C137.986 178.515 136.055 177.798 135.116 175.983C134.176 174.167 134.709 172.178 136.537 171.233C138.366 170.288 140.298 171.004 141.237 172.82ZM135.872 175.592C136.717 177.225 138.23 177.493 139.45 176.863C140.669 176.233 141.326 174.843 140.481 173.211C139.636 171.578 138.122 171.31 136.903 171.94C135.684 172.569 135.027 173.959 135.872 175.592Z" fill="#002899"/>
<path d="M133.212 183.587L132.213 183.971L124.79 178.157L127.704 185.709L126.834 186.045L123.376 177.085L124.375 176.7L131.798 182.514L128.883 174.962L129.754 174.626L133.212 183.587Z" fill="#002899"/>
<path d="M123.026 180.817C123.645 182.866 122.664 184.652 120.943 185.172C119.234 185.687 117.602 184.889 116.999 182.893L116.88 182.499L122.085 180.929C121.606 179.44 120.398 178.715 119.084 179.111C117.822 179.492 117.554 180.361 117.553 181.164L116.738 181.41C116.666 179.984 117.303 178.817 118.867 178.346C120.72 177.787 122.408 178.768 123.026 180.817ZM117.901 182.936C118.281 184.097 119.438 184.794 120.713 184.41C121.987 184.026 122.532 182.886 122.291 181.612L117.901 182.936Z" fill="#002899"/>
<path d="M115.292 181.713L116.355 186.338L115.526 186.528L114.472 181.943C114.269 181.061 113.589 180.613 112.612 180.837C111.73 181.039 111.041 181.901 110.785 182.931L111.808 187.382L110.979 187.572L109.442 180.889L110.272 180.698L110.53 181.821C110.783 181.144 111.538 180.267 112.622 180.018C113.959 179.711 114.963 180.283 115.292 181.713Z" fill="#002899"/>
<path d="M109.472 191.065L108.632 191.202L107.657 185.248L105.319 188.548L104.236 188.725L106.743 185.188L102.842 182.005L103.939 181.826L107.576 184.76L107.013 181.322L107.853 181.185L109.472 191.065Z" fill="#002899"/>
<path d="M103.125 185.445C103.326 187.479 102.095 189.131 100.046 189.333C97.997 189.535 96.4675 188.155 96.2668 186.121C96.0656 184.087 97.2958 182.435 99.3448 182.233C101.394 182.031 102.924 183.41 103.125 185.445ZM97.1135 186.038C97.2943 187.867 98.6017 188.675 99.9679 188.541C101.334 188.406 102.458 187.358 102.278 185.528C102.097 183.698 100.789 182.89 99.4234 183.025C98.0568 183.159 96.9327 184.208 97.1135 186.038ZM99.6972 191.104C99.7319 191.459 99.4612 191.789 99.1058 191.825C98.7646 191.858 98.4342 191.587 98.399 191.233C98.3642 190.877 98.6349 190.548 98.9766 190.514C99.3315 190.479 99.6619 190.749 99.6972 191.104ZM102.033 190.874C102.068 191.229 101.797 191.559 101.456 191.592C101.101 191.628 100.77 191.357 100.735 191.002C100.7 190.647 100.971 190.317 101.326 190.282C101.668 190.248 101.998 190.519 102.033 190.874Z" fill="#002899"/>
<path d="M95.083 192.718L94.2326 192.756L93.796 182.754L94.6458 182.716L95.083 192.718Z" fill="#002899"/>
<path d="M92.2858 192.817L91.4345 192.831L91.2716 182.817L92.1224 182.804L92.2858 192.817Z" fill="#002899"/>
<path d="M89.4024 189.718L88.5515 189.686L88.596 188.534C88.1751 189.122 87.216 189.771 86.1047 189.729C84.733 189.676 83.9128 188.862 83.9659 187.477L84.1513 182.652L85.0016 182.684L84.8208 187.387C84.7861 188.292 85.3259 188.903 86.3274 188.941C87.1915 188.974 88.0679 188.335 88.6399 187.396L88.8151 182.831L89.6654 182.863L89.4024 189.718Z" fill="#002899"/>
<path d="M78.8599 183.537L78.1903 188.165L79.4671 188.35L79.365 189.056L78.0882 188.871L77.794 190.907L76.9968 190.473L77.246 188.749L75.6843 188.524L75.7864 187.818L77.3482 188.044L77.9998 183.537C78.104 182.818 77.819 182.486 77.2353 182.401C76.9774 182.364 76.8354 182.385 76.5658 182.429L76.6659 181.737C77.0208 181.677 77.2966 181.689 77.5954 181.733C78.6275 181.882 78.9891 182.641 78.8599 183.537Z" fill="#002899"/>
<path d="M75.5367 185.081C75.0944 187.076 73.4122 188.263 71.402 187.817C69.3924 187.372 68.3689 185.586 68.8112 183.591C69.2535 181.596 70.9363 180.409 72.9459 180.854C74.9555 181.3 75.9795 183.085 75.5367 185.081ZM69.6416 183.775C69.2438 185.57 70.2345 186.744 71.5746 187.041C72.9142 187.338 74.3084 186.691 74.7063 184.897C75.1041 183.102 74.1134 181.928 72.7738 181.631C71.4337 181.335 70.0395 181.981 69.6416 183.775Z" fill="#002899"/>
<path d="M64.53 180.138L62.9437 184.539L64.1571 184.975L63.9156 185.647L62.7016 185.21L62.004 187.145L61.3105 186.56L61.9014 184.921L60.4162 184.386L60.6583 183.716L62.1429 184.25L63.6878 179.966C63.934 179.282 63.722 178.9 63.1669 178.7C62.9217 178.612 62.7782 178.604 62.505 178.593L62.7425 177.935C63.1025 177.948 63.3701 178.015 63.6541 178.117C64.6352 178.471 64.8369 179.287 64.53 180.138Z" fill="#002899"/>
<path d="M57.6303 186.701L56.8576 186.346L58.6476 182.459C57.9352 182.826 56.8735 183.032 55.7514 182.516C54.4925 181.937 54.1167 180.752 54.6789 179.531L56.6584 175.233L57.4311 175.589L55.4287 179.937C55.0502 180.759 55.4236 181.489 56.2964 181.891C57.1436 182.281 58.236 182.073 59.0664 181.55L61.0459 177.252L61.8186 177.608L57.6303 186.701Z" fill="#002899"/>
<path d="M53.9088 177.673C52.7985 179.502 50.8139 179.968 49.2762 179.036C47.7502 178.111 47.2523 176.366 48.3344 174.583L48.5479 174.231L53.1964 177.048C53.9839 175.696 53.7152 174.314 52.5411 173.603C51.4145 172.92 50.5887 173.301 49.9907 173.837L49.2629 173.396C50.2751 172.389 51.5693 172.083 52.966 172.929C54.6212 173.932 55.0196 175.842 53.9088 177.673ZM48.9054 175.282C48.2956 176.34 48.5505 177.666 49.6893 178.356C50.8277 179.046 52.0396 178.689 52.8261 177.658L48.9054 175.282Z" fill="#002899"/>
<path d="M41.0114 176.817L40.2888 176.144L43.9638 169.047L44.5057 168.164L43.6625 168.766L36.8053 172.898L36.1224 172.261L39.7673 165.136L40.3097 164.253L39.4665 164.856L32.6394 169.015L31.9163 168.342L40.4961 163.209L41.3194 163.976L37.3716 171.606L44.7125 167.138L45.5358 167.904L41.0114 176.817Z" fill="#002899"/>
<path d="M35.9657 163.328C34.3631 164.597 32.308 164.457 31.0297 162.844C29.7514 161.232 30.0844 159.2 31.6875 157.931C33.2901 156.663 35.3446 156.803 36.6234 158.415C37.9017 160.028 37.5682 162.059 35.9657 163.328ZM32.2155 158.598C30.7743 159.739 30.8014 161.275 31.6538 162.351C32.5056 163.426 33.9959 163.803 35.4371 162.662C36.8788 161.52 36.8517 159.984 35.9994 158.909C35.147 157.834 33.6573 157.457 32.2155 158.598Z" fill="#002899"/>
<path d="M28.0175 158.538L27.5502 157.828L28.4103 157.263C27.7407 157.293 26.8409 156.998 26.3659 156.276C26.2081 156.035 26.1443 155.863 26.134 155.723L26.8245 155.45C26.8618 155.557 26.9256 155.679 27.0538 155.874C27.4604 156.492 28.4021 156.826 29.351 156.646L33.2839 154.064L33.7507 154.774L28.0175 158.538Z" fill="#002899"/>
<path d="M22.7695 156.177L22.3364 155.445L30.9577 150.345L31.3913 151.077L22.7695 156.177Z" fill="#002899"/>
<path d="M27.159 150.798C25.1055 151.817 23.3456 151.143 22.6005 149.644C22.1919 148.82 22.1699 147.912 22.4912 147.171L18.8881 148.958L18.5097 148.196L27.4864 143.743L27.8648 144.505L27.0043 144.931C27.7096 145.087 28.519 145.513 28.9766 146.435C29.7519 147.995 29.2126 149.779 27.159 150.798ZM25.3562 145.749L24.2373 146.304C23.1674 146.835 22.6791 148.012 23.271 149.204C23.8818 150.433 25.1698 150.835 26.7806 150.036C28.3914 149.237 28.8924 148.054 28.2392 146.739C27.586 145.424 26.3276 145.267 25.3562 145.749Z" fill="#002899"/>
<path d="M24.2843 139.493L19.8437 140.97L20.2507 142.194L19.5735 142.419L19.1665 141.195L17.213 141.845L17.2437 140.938L18.8979 140.388L18.3994 138.892L19.0766 138.667L19.575 140.163L23.8987 138.725C24.5886 138.496 24.7582 138.092 24.5718 137.533C24.4896 137.285 24.4073 137.169 24.247 136.947L24.9109 136.726C25.1234 137.017 25.2362 137.269 25.3317 137.555C25.6606 138.544 25.1438 139.208 24.2843 139.493Z" fill="#002899"/>
<path d="M21.4054 137.203C19.4137 137.668 17.615 136.665 17.1472 134.661C16.6788 132.657 17.8473 130.961 19.8391 130.497C21.8303 130.033 23.629 131.035 24.0974 133.039C24.5652 135.043 23.3967 136.738 21.4054 137.203ZM20.0326 131.325C18.2416 131.743 17.6104 133.144 17.9219 134.48C18.2339 135.816 19.4208 136.792 21.2119 136.375C23.0029 135.957 23.6341 134.556 23.3221 133.22C23.0101 131.884 21.8237 130.907 20.0326 131.325Z" fill="#002899"/>
<path d="M13.0232 126.296L12.9624 125.228L20.7706 119.947L12.6872 120.408L12.634 119.477L22.2246 118.93L22.2859 119.998L14.4772 125.279L22.5611 124.818L22.6143 125.749L13.0232 126.296Z" fill="#002899"/>
<path d="M18.8233 117.396C16.687 117.259 15.3561 115.717 15.471 113.924C15.5849 112.145 16.9025 110.897 18.9842 111.03L19.3948 111.056L19.047 116.476C20.6097 116.549 21.7113 115.671 21.7992 114.302C21.8834 112.988 21.1623 112.434 20.4106 112.152L20.4652 111.304C21.8262 111.734 22.6965 112.738 22.5923 114.367C22.4687 116.296 20.9591 117.533 18.8233 117.396ZM18.6282 111.859C17.4076 111.808 16.3504 112.647 16.2652 113.975C16.1799 115.303 17.0568 116.211 18.3351 116.43L18.6282 111.859Z" fill="#002899"/>
<path d="M20.7236 109.844L16.0461 109.027L16.1926 108.189L20.8293 108.999C21.7215 109.155 22.3998 108.703 22.5719 107.716C22.7276 106.824 22.2006 105.855 21.3508 105.22L16.8494 104.433L16.996 103.596L23.7547 104.776L23.6081 105.614L22.4728 105.416C22.9988 105.911 23.5141 106.948 23.3231 108.042C23.0867 109.393 22.1699 110.096 20.7236 109.844Z" fill="#002899"/>
<path d="M14.468 100.593L14.6973 99.7734L20.5117 101.402L18.5031 97.8911L18.7993 96.8345L20.9509 100.599L25.4844 98.4076L25.1846 99.4769L20.9877 101.535L24.344 102.475L24.1147 103.294L14.468 100.593Z" fill="#002899"/>
<path d="M17.9056 93.742C17.5731 93.6123 17.4015 93.2218 17.5266 92.9023C17.6558 92.5701 18.047 92.3986 18.3795 92.5282C18.712 92.6578 18.883 93.0488 18.7538 93.3806C18.6287 93.7001 18.238 93.8716 17.9056 93.742ZM18.7584 91.5574C18.426 91.4278 18.2544 91.0368 18.3841 90.705C18.5087 90.3855 18.8999 90.214 19.2324 90.3436C19.5648 90.4733 19.7359 90.8638 19.6113 91.1833C19.4816 91.5155 19.0909 91.687 18.7584 91.5574ZM22.2517 97.1734C20.3467 96.4308 19.4315 94.5872 20.1797 92.6706C20.9279 90.7545 22.8502 90.0175 24.7551 90.7601C26.6601 91.5028 27.5753 93.3464 26.8271 95.263C26.0789 97.179 24.1561 97.9161 22.2517 97.1734ZM24.4462 91.5523C22.7327 90.8842 21.4197 91.6824 20.9213 92.96C20.4223 94.2376 20.8477 95.7137 22.5606 96.3813C24.2735 97.0494 25.5871 96.2511 26.0855 94.9736C26.5845 93.696 26.1591 92.2199 24.4462 91.5523Z" fill="#002899"/>
<path d="M19.5638 86.5207L19.9376 85.7566L28.9378 90.1579L28.564 90.9219L19.5638 86.5207Z" fill="#002899"/>
<path d="M20.8728 83.9411L21.2772 83.1933L30.091 87.9554L29.6865 88.7037L20.8728 83.9411Z" fill="#002899"/>
<path d="M25.0294 82.8713L25.4885 82.1552L26.4594 82.7779C26.1657 82.1169 26.0922 80.9608 26.6928 80.0257C27.4343 78.8707 28.5522 78.5772 29.7192 79.3255L33.7865 81.9336L33.3268 82.6492L29.3638 80.1079C28.6013 79.6189 27.8005 79.7741 27.2591 80.6168C26.7923 81.3446 26.8986 82.4236 27.4185 83.3924L31.2661 85.8597L30.8065 86.5758L25.0294 82.8713Z" fill="#002899"/>
<path d="M35.7808 77.0092L32.2053 73.9932L31.3734 74.9783L30.8279 74.5184L31.6599 73.5333L30.0869 72.2068L30.877 71.7607L32.2084 72.8836L33.2262 71.6785L33.7717 72.1384L32.7538 73.3435L36.2348 76.2798C36.791 76.7489 37.2235 76.6831 37.604 76.2324C37.772 76.0333 37.8292 75.9021 37.9344 75.65L38.4691 76.1007C38.3318 76.4335 38.1755 76.6606 37.9809 76.8913C37.3083 77.6881 36.4728 77.5931 35.7808 77.0092Z" fill="#002899"/>
<path d="M36.2307 73.3715C34.7823 71.9286 34.6822 69.8732 36.1352 68.416C37.5882 66.9588 39.6458 67.0527 41.0937 68.4951C42.542 69.9375 42.6426 71.9934 41.1892 73.4506C39.7362 74.9074 37.6791 74.8139 36.2307 73.3715ZM40.4931 69.0974C39.1908 67.7999 37.6678 68.0061 36.699 68.9774C35.7302 69.9487 35.529 71.4718 36.8313 72.7692C38.1336 74.0662 39.657 73.8605 40.6253 72.8887C41.5941 71.9174 41.7954 70.3948 40.4931 69.0974Z" fill="#002899"/>
<path d="M46.3141 66.7464L43.449 63.0478L42.4286 63.8371L41.9915 63.2731L43.0119 62.4837L41.7514 60.8568L42.6176 60.5855L43.6845 61.9631L44.9326 60.9974L45.3698 61.5614L44.1216 62.5271L46.9111 66.1278C47.3564 66.703 47.7936 66.7291 48.2604 66.3682C48.4662 66.2085 48.55 66.0921 48.7057 65.8675L49.1342 66.4203C48.9299 66.7173 48.7297 66.9067 48.4912 67.0915C47.6664 67.73 46.8687 67.462 46.3141 66.7464Z" fill="#002899"/>
<path d="M44.4434 57.4256L45.1558 56.9604L47.4984 60.5434C47.5669 59.7449 47.9565 58.7363 48.9907 58.0611C50.1515 57.3031 51.3558 57.6147 52.0912 58.7402L54.682 62.7022L53.9696 63.1674L51.3491 59.1595C50.8532 58.4015 50.0356 58.3293 49.2312 58.8547C48.4499 59.3649 48.0444 60.4 48.0464 61.3818L50.6372 65.3438L49.9248 65.8093L44.4434 57.4256Z" fill="#002899"/>
<path d="M54.0707 59.077C53.0871 57.176 53.7239 55.2408 55.3214 54.4155C56.9066 53.5965 58.6568 54.0822 59.6149 55.9344L59.8039 56.2999L54.9757 58.7948C55.7187 60.1713 57.0389 60.6629 58.2585 60.0328C59.429 59.4279 59.5332 58.5248 59.3877 57.7352L60.1435 57.3444C60.4755 58.7328 60.0628 59.9963 58.6119 60.7458C56.8923 61.6342 55.0543 60.978 54.0707 59.077ZM58.7202 56.0569C58.1349 54.9848 56.8699 54.5112 55.6871 55.1224C54.5043 55.7333 54.1769 56.9527 54.6478 58.1611L58.7202 56.0569Z" fill="#002899"/>
<path d="M61.3355 48.5639L62.2803 48.2763L66.584 55.0088L67.0769 55.9196L66.9778 54.8889L66.8353 46.8897L67.728 46.6182L72.071 53.3385L72.5639 54.2496L72.4648 53.2188L72.283 45.2317L73.2283 44.9441L73.3749 54.9345L72.2988 55.262L67.6693 48.0264L67.8618 56.6125L66.7852 56.9402L61.3355 48.5639Z" fill="#002899"/>
<path d="M75.5275 50.9365C75.2196 48.9163 76.36 47.2029 78.3951 46.8931C80.4298 46.5832 82.0293 47.8794 82.3373 49.8996C82.6452 51.9198 81.5048 53.6333 79.4696 53.9431C77.435 54.2529 75.8355 52.9567 75.5275 50.9365ZM81.4961 50.0277C81.2193 48.2109 79.8716 47.4729 78.5151 47.6793C77.1582 47.8861 76.0913 48.9916 76.3686 50.8084C76.6454 52.6252 77.9932 53.3633 79.3496 53.1568C80.7066 52.9501 81.7734 51.8445 81.4961 50.0277Z" fill="#002899"/>
<path d="M83.6523 46.4061L84.5016 46.3553L84.5634 47.3823C84.8714 46.7866 85.5762 46.1535 86.4393 46.1017C86.7268 46.0846 86.9076 46.1149 87.0347 46.1759L86.9275 46.9107C86.8167 46.89 86.6788 46.8844 86.4459 46.8984C85.7059 46.9428 84.9475 47.5928 84.6308 48.5052L84.9128 53.202L84.0634 53.253L83.6523 46.4061Z" fill="#002899"/>
<path d="M88.3442 43.0418L89.195 43.0344L89.2824 53.0478L88.4315 53.0552L88.3442 43.0418Z" fill="#002899"/>
<path d="M90.7639 49.5543C90.9156 47.269 92.3834 46.0881 94.0539 46.1989C94.9716 46.2599 95.7673 46.6976 96.2468 47.3481L96.5134 43.3381L97.3622 43.3945L96.6983 53.3849L95.8495 53.3285L95.9128 52.3705C95.4241 52.9016 94.6488 53.3862 93.6218 53.3181C91.8829 53.2025 90.6117 51.8399 90.7639 49.5543ZM96.0349 50.5366L96.1176 49.2912C96.1968 48.1007 95.4251 47.0873 94.0968 46.999C92.7276 46.9081 91.7322 47.8179 91.6127 49.6107C91.4937 51.4035 92.2644 52.4307 93.7296 52.528C95.1948 52.6252 95.9629 51.6179 96.0349 50.5366Z" fill="#002899"/>
<path d="M102.014 52.7778L102.958 48.1956L101.694 47.9353L101.838 47.2366L103.102 47.4966L103.517 45.481L104.287 45.9616L103.936 47.6684L105.482 47.9866L105.338 48.6854L103.792 48.3671L102.872 52.8286C102.726 53.5409 102.99 53.8895 103.568 54.0084C103.824 54.061 103.967 54.0482 104.238 54.0201L104.097 54.7056C103.739 54.7439 103.465 54.7156 103.169 54.6546C102.147 54.4443 101.831 53.6649 102.014 52.7778Z" fill="#002899"/>
<path d="M105.446 51.4308C106.04 49.4747 107.81 48.4205 109.78 49.0187C111.75 49.6166 112.634 51.4765 112.039 53.4324C111.445 55.3886 109.675 56.4428 107.705 55.8446C105.735 55.2464 104.851 53.3867 105.446 51.4308ZM111.225 53.1854C111.76 51.4263 110.862 50.1788 109.548 49.7799C108.235 49.3813 106.794 49.919 106.26 51.6779C105.726 53.437 106.623 54.6844 107.936 55.0833C109.25 55.482 110.69 54.9442 111.225 53.1854Z" fill="#002899"/>
<path d="M119.204 49.7271L120.15 50.227L120.635 59.6364L124.42 52.4841L125.245 52.9202L120.754 61.4058L119.808 60.9056L119.323 51.4964L115.538 58.6485L114.713 58.2126L119.204 49.7271Z" fill="#002899"/>
<path d="M123.848 59.3236C125.122 57.603 127.14 57.3207 128.586 58.3895C130.021 59.4501 130.357 61.234 129.116 62.9107L128.871 63.2415L124.501 60.0108C123.592 61.2843 123.733 62.6856 124.837 63.5015C125.896 64.2847 126.753 63.98 127.398 63.501L128.083 64.0066C126.982 64.9166 125.666 65.1039 124.353 64.1331C122.796 62.9827 122.575 61.0441 123.848 59.3236ZM128.611 62.1622C129.316 61.1641 129.183 59.8204 128.113 59.029C127.042 58.2379 125.803 58.4819 124.925 59.4371L128.611 62.1622Z" fill="#002899"/>
<path d="M129.148 65.0355L132.483 61.6582L133.089 62.2553L129.782 65.6036C129.146 66.2478 129.132 67.0624 129.845 67.7657C130.49 68.4017 131.587 68.5206 132.594 68.1842L135.804 64.9335L136.41 65.5311L131.59 70.4117L130.984 69.8145L131.794 68.9943C131.087 69.1443 129.94 68.9774 129.149 68.197C128.173 67.2339 128.116 66.0798 129.148 65.0355Z" fill="#002899"/>
<path d="M140.422 65.3402L140.947 66.0094L136.197 69.7359L140.218 70.1907L140.896 71.0538L136.585 70.5643L135.676 75.5153L134.99 74.6414L135.808 70.0406L133.066 72.192L132.54 71.5228L140.422 65.3402Z" fill="#002899"/>
<path d="M138.612 73.6747C140.363 72.6187 142.383 73.0173 143.447 74.7782C144.511 76.5391 143.924 78.5119 142.174 79.5679C140.423 80.6244 138.403 80.2258 137.339 78.4649C136.275 76.704 136.862 74.7313 138.612 73.6747ZM141.733 78.84C143.307 77.8902 143.475 76.363 142.766 75.1891C142.056 74.0152 140.626 73.4527 139.052 74.4026C137.478 75.3529 137.311 76.8796 138.02 78.0535C138.729 79.2275 140.159 79.7904 141.733 78.84ZM143.984 72.3237C144.289 72.1389 144.703 72.2415 144.881 72.535C145.065 72.8402 144.963 73.2541 144.657 73.4389C144.352 73.6232 143.938 73.5206 143.753 73.2153C143.576 72.9219 143.678 72.5079 143.984 72.3237ZM145.197 74.3311C145.502 74.1463 145.917 74.2489 146.101 74.5542C146.278 74.8476 146.176 75.2616 145.871 75.4463C145.565 75.6306 145.151 75.528 144.973 75.2345C144.789 74.9293 144.891 74.5154 145.197 74.3311Z" fill="#002899"/>
<path d="M148.722 78.1719L149.086 78.9406L140.028 83.2255L139.664 82.4568L148.722 78.1719Z" fill="#002899"/>
<path d="M149.94 80.8699L150.266 81.656L141.004 85.481L140.679 84.695L149.94 80.8699Z" fill="#002899"/>
<path d="M148.186 84.8777L148.432 85.6913L147.329 86.0251C148.022 86.2308 148.949 86.9249 149.271 87.9881C149.669 89.3009 149.166 90.3411 147.84 90.7423L143.216 92.1403L142.97 91.3267L147.475 89.9644C148.342 89.7021 148.744 88.9931 148.454 88.0351C148.204 87.2077 147.313 86.5886 146.239 86.3548L141.865 87.6773L141.619 86.8632L148.186 84.8777Z" fill="#002899"/>
<path d="M145.477 96.8519L150.13 96.3486L149.992 95.0665L150.701 94.9899L150.84 96.272L152.887 96.0505L152.665 96.93L150.932 97.1173L151.101 98.6858L150.392 98.7623L150.222 97.1938L145.692 97.6838C144.969 97.7619 144.717 98.1202 144.781 98.7067C144.809 98.966 144.865 99.0977 144.974 99.3483L144.279 99.4233C144.133 99.0941 144.076 98.8246 144.043 98.5245C143.931 97.4878 144.577 96.9488 145.477 96.8519Z" fill="#002899"/>
<path d="M147.832 99.7403C149.877 99.7842 151.371 101.202 151.327 103.26C151.282 105.318 149.729 106.67 147.684 106.626C145.639 106.582 144.145 105.164 144.189 103.106C144.234 101.049 145.787 99.6959 147.832 99.7403ZM147.702 105.776C149.541 105.815 150.501 104.614 150.53 103.243C150.56 101.871 149.653 100.63 147.814 100.591C145.975 100.551 145.015 101.752 144.986 103.123C144.956 104.495 145.863 105.736 147.702 105.776Z" fill="#002899"/>
<path d="M144.807 111.397L149.365 112.463L149.659 111.207L150.354 111.37L150.06 112.626L152.065 113.095L151.563 113.851L149.866 113.453L149.506 114.99L148.811 114.827L149.171 113.291L144.733 112.253C144.025 112.088 143.669 112.342 143.535 112.917C143.475 113.171 143.484 113.314 143.505 113.586L142.823 113.427C142.795 113.068 142.83 112.794 142.899 112.5C143.137 111.485 143.925 111.19 144.807 111.397Z" fill="#002899"/>
<path d="M152.029 117.746L151.736 118.545L147.717 117.069C148.139 117.75 148.429 118.791 148.003 119.95C147.525 121.25 146.373 121.718 145.111 121.255L140.668 119.623L140.961 118.825L145.456 120.476C146.306 120.788 147.005 120.358 147.336 119.457C147.658 118.582 147.365 117.51 146.777 116.724L142.333 115.092L142.627 114.294L152.029 117.746Z" fill="#002899"/>
<path d="M143.271 122.204C145.151 123.229 145.707 125.189 144.846 126.767C143.991 128.332 142.269 128.909 140.437 127.91L140.076 127.713L142.68 122.944C141.293 122.219 139.923 122.55 139.266 123.755C138.634 124.911 139.054 125.718 139.617 126.291L139.21 127.037C138.157 126.072 137.791 124.795 138.574 123.361C139.501 121.664 141.392 121.179 143.271 122.204ZM141.11 127.308C142.196 127.869 143.509 127.554 144.147 126.386C144.785 125.217 144.373 124.024 143.306 123.286L141.11 127.308Z" fill="#002899"/>
<path d="M142.789 135.325L142.12 136.052L134.994 132.429L134.107 131.893L134.715 132.732L138.896 139.555L138.265 140.242L131.111 136.649L130.225 136.114L130.833 136.952L135.042 143.745L134.373 144.473L129.178 135.935L129.939 135.106L137.601 138.998L133.079 131.694L133.84 130.866L142.789 135.325Z" fill="#002899"/>
<path d="M129.272 140.464C130.5 142.098 130.306 144.147 128.661 145.383C127.015 146.618 124.992 146.233 123.764 144.599C122.535 142.965 122.729 140.916 124.375 139.68C126.02 138.445 128.043 138.83 129.272 140.464ZM124.444 144.089C125.548 145.558 127.085 145.57 128.183 144.747C129.28 143.923 129.696 142.444 128.591 140.974C127.487 139.505 125.95 139.492 124.853 140.316C123.755 141.14 123.339 142.619 124.444 144.089Z" fill="#002899"/>
<path d="M124.152 148.312L123.417 148.741L122.898 147.852C122.892 148.523 122.55 149.405 121.804 149.84C121.555 149.986 121.38 150.04 121.239 150.043L121.002 149.339C121.111 149.308 121.237 149.25 121.438 149.133C122.078 148.759 122.461 147.838 122.331 146.881L119.958 142.819L120.693 142.39L124.152 148.312Z" fill="#002899"/>
<path d="M121.365 153.472L120.604 153.852L116.13 144.892L116.892 144.512L121.365 153.472Z" fill="#002899"/>
<path d="M116.319 148.704C117.137 150.844 116.297 152.531 114.733 153.129C113.874 153.457 112.967 153.391 112.26 153.001L113.695 156.756L112.9 157.06L109.323 147.704L110.118 147.4L110.461 148.298C110.683 147.61 111.185 146.846 112.147 146.479C113.775 145.857 115.5 146.564 116.319 148.704ZM111.118 150.015L111.563 151.181C111.99 152.296 113.115 152.894 114.359 152.42C115.641 151.93 116.165 150.687 115.523 149.008C114.882 147.329 113.752 146.718 112.38 147.242C111.007 147.766 110.73 149.002 111.118 150.015Z" fill="#002899"/>
<path d="M104.741 150.306L105.592 154.905L106.861 154.67L106.991 155.372L105.722 155.607L106.097 157.629L105.203 157.474L104.885 155.761L103.334 156.049L103.204 155.347L104.756 155.06L103.926 150.583C103.794 149.868 103.418 149.644 102.838 149.752C102.581 149.8 102.454 149.865 102.212 149.993L102.085 149.306C102.402 149.135 102.667 149.058 102.964 149.003C103.99 148.814 104.576 149.416 104.741 150.306Z" fill="#002899"/>
<path d="M102.031 152.868C102.147 154.908 100.848 156.506 98.7932 156.622C96.7382 156.739 95.2683 155.297 95.1529 153.256C95.0375 151.216 96.3357 149.618 98.3908 149.502C100.446 149.386 101.916 150.828 102.031 152.868ZM96.0022 153.209C96.1059 155.044 97.3781 155.906 98.7483 155.828C100.119 155.751 101.285 154.751 101.181 152.916C101.078 151.081 99.806 150.219 98.4357 150.296C97.0655 150.373 95.8986 151.374 96.0022 153.209Z" fill="#002899"/>
<path d="M89.0919 158.947L88.0459 158.716L85.069 149.773L83.327 157.678L82.4154 157.477L84.4822 148.098L85.5282 148.329L88.5051 157.273L90.2471 149.367L91.1582 149.568L89.0919 158.947Z" fill="#002899"/>
<path d="M82.0288 150.846C81.1514 152.799 79.2393 153.504 77.5989 152.768C75.9713 152.037 75.2635 150.365 76.1184 148.463L76.2869 148.088L81.2454 150.314C81.8613 148.876 81.4251 147.538 80.1729 146.975C78.9712 146.436 78.1985 146.916 77.6704 147.521L76.8942 147.172C77.7756 146.049 79.0218 145.586 80.512 146.255C82.2775 147.048 82.9067 148.895 82.0288 150.846ZM76.7711 149.087C76.2951 150.212 76.7108 151.496 77.9253 152.042C79.1397 152.587 80.2985 152.085 80.9527 150.965L76.7711 149.087Z" fill="#002899"/>
<path d="M75.6394 146.356L72.9336 150.255L72.2345 149.77L74.9167 145.905C75.433 145.161 75.3069 144.356 74.4836 143.785C73.7395 143.27 72.6384 143.341 71.7038 143.845L69.0998 147.597L68.4011 147.113L72.3111 141.478L73.0102 141.963L72.353 142.91C73.024 142.641 74.1818 142.608 75.0954 143.241C76.2226 144.023 76.4759 145.15 75.6394 146.356Z" fill="#002899"/>
<path d="M64.2394 147.693L63.6347 147.094L67.8833 142.807L63.8369 142.856L63.0571 142.084L67.3945 142.033L67.68 137.008L68.4701 137.79L68.231 142.456L70.6835 139.98L71.2881 140.579L64.2394 147.693Z" fill="#002899"/>
<path d="M58.3325 138.952C58.0404 139.157 57.6196 139.082 57.4148 138.79C57.2182 138.508 57.2927 138.088 57.5854 137.884C57.878 137.679 58.2983 137.753 58.4949 138.035C58.6997 138.327 58.6252 138.748 58.3325 138.952ZM59.6782 140.875C59.3856 141.079 58.9653 141.005 58.7682 140.724C58.5639 140.432 58.6385 140.011 58.9306 139.806C59.2232 139.602 59.644 139.677 59.8483 139.969C60.0449 140.25 59.9709 140.67 59.6782 140.875ZM64.9498 139.166C63.2731 140.338 61.2298 140.075 60.0495 138.388C58.8693 136.702 59.3233 134.693 61 133.522C62.6766 132.35 64.7199 132.613 65.9002 134.3C67.0804 135.986 66.6264 137.995 64.9498 139.166ZM61.4877 134.219C59.9801 135.272 59.9152 136.808 60.7022 137.933C61.4887 139.057 62.9544 139.523 64.462 138.469C65.9696 137.416 66.0345 135.88 65.2475 134.755C64.461 133.631 62.9953 133.165 61.4877 134.219Z" fill="#002899"/>
<path d="M54.4619 134.895L54.0901 134.13L63.1015 129.752L63.4738 130.517L54.4619 134.895Z" fill="#002899"/>
<path d="M53.1509 131.995L52.8404 131.202L62.1725 127.552L62.4825 128.344L53.1509 131.995Z" fill="#002899"/>
<path d="M54.8567 127.678L54.6886 126.844L55.8188 126.617C55.1483 126.346 54.2918 125.567 54.0727 124.478C53.8021 123.133 54.4011 122.146 55.7601 121.873L60.4959 120.921L60.6634 121.754L56.0492 122.682C55.1611 122.86 54.6932 123.528 54.8909 124.509C55.0615 125.356 55.8883 126.057 56.9358 126.393L61.4157 125.492L61.5832 126.326L54.8567 127.678Z" fill="#002899"/>
<path d="M59.2334 116.11L54.5886 115.534L54.4292 116.813L53.7214 116.726L53.8802 115.446L51.8369 115.192L52.2551 114.387L53.9849 114.602L54.1795 113.036L54.8878 113.124L54.6932 114.69L59.2155 115.251C59.9377 115.34 60.2645 115.049 60.3371 114.464C60.3692 114.205 60.3452 114.064 60.2957 113.795L60.9903 113.882C61.0572 114.235 61.0505 114.511 61.0132 114.811C60.8845 115.845 60.1323 116.222 59.2334 116.11Z" fill="#002899"/>
<path d="M57.6078 112.674C55.6605 112.049 54.6335 110.264 55.2632 108.304C55.8929 106.345 57.7677 105.491 59.715 106.116C61.6629 106.741 62.6894 108.526 62.0602 110.485C61.4305 112.445 59.5557 113.299 57.6078 112.674ZM59.4551 106.926C57.7034 106.364 56.4409 107.241 56.0211 108.547C55.6013 109.854 56.1166 111.302 57.8683 111.864C59.6195 112.426 60.882 111.549 61.3018 110.242C61.7216 108.936 61.2063 107.488 59.4551 106.926Z" fill="#002899"/>
<path d="M63.9947 102.502L60.049 99.9868L59.3555 101.073L58.7539 100.69L59.4474 99.603L57.712 98.4964L58.4357 97.9492L59.905 98.8858L60.7543 97.5562L61.3559 97.9396L60.5071 99.2697L64.3481 101.719C64.9615 102.11 65.3818 101.987 65.699 101.49C65.8394 101.27 65.8787 101.132 65.9492 100.868L66.5396 101.244C66.4477 101.593 66.323 101.839 66.1606 102.093C65.5994 102.972 64.7588 102.989 63.9947 102.502Z" fill="#002899"/>
<path d="M59.4198 93.9573L59.9775 93.3152L63.2118 96.122C63.0591 95.3349 63.1582 94.2585 63.9682 93.326C64.8772 92.2796 66.1208 92.2505 67.1371 93.132L70.7131 96.2353L70.1549 96.8779L66.5375 93.7384C65.8532 93.1448 65.0468 93.2984 64.4166 94.0237C63.8042 94.7281 63.6975 95.8346 63.9687 96.7784L67.5447 99.8822L66.9865 100.524L59.4198 93.9573Z" fill="#002899"/>
<path d="M69.2376 92.8799C67.9103 91.2006 68.1677 89.1794 69.5788 88.0657C70.9792 86.9607 72.7901 87.1051 74.0827 88.7415L74.3381 89.0646L70.0721 92.4312C71.0634 93.6414 72.4531 93.8731 73.5306 93.0228C74.5648 92.2066 74.4954 91.3002 74.2022 90.5529L74.8702 90.0257C75.4601 91.3257 75.2951 92.6441 74.0133 93.6557C72.4939 94.8546 70.5645 94.5596 69.2376 92.8799ZM73.2278 89.0319C72.4495 88.0907 71.117 87.8656 70.0721 88.6904C69.0272 89.5153 68.9379 90.7744 69.6299 91.8713L73.2278 89.0319Z" fill="#002899"/>
<path d="M75.9238 80.4616L76.8758 80.1972L81.0155 87.0331L81.4859 87.956L81.4124 86.9229L81.464 78.9212L82.3633 78.6711L86.5424 85.4968L87.0133 86.4191L86.9392 85.386L86.9515 77.3956L87.9035 77.1307L87.8074 87.124L86.7232 87.4251L82.2704 80.0783L82.254 88.668L81.1698 88.9696L75.9238 80.4616Z" fill="#002899"/>
<path d="M90.5111 83.5108C90.8451 81.4942 92.462 80.2182 94.4931 80.5545C96.5247 80.8904 97.6431 82.6191 97.3091 84.6357C96.9751 86.6524 95.3582 87.9279 93.3271 87.592C91.2961 87.2557 90.1771 85.5274 90.5111 83.5108ZM96.4695 84.4969C96.7698 82.6829 95.7172 81.5636 94.3634 81.3395C93.009 81.1155 91.6515 81.8362 91.3507 83.6496C91.0504 85.4631 92.103 86.583 93.4574 86.807C94.8113 87.0311 96.1692 86.3104 96.4695 84.4969Z" fill="#002899"/>
<path d="M100.524 82.4874L101.275 82.8866L100.792 83.7951C101.366 83.447 102.297 83.274 103.061 83.6792C103.315 83.8145 103.453 83.9344 103.531 84.0529L103.056 84.624C102.972 84.5485 102.857 84.4719 102.651 84.3627C101.996 84.0151 101.01 84.1748 100.264 84.7884L98.0553 88.9436L97.3035 88.5445L100.524 82.4874Z" fill="#002899"/>
<path d="M106.991 82.7523L107.661 83.277L101.481 91.1598L100.811 90.6351L106.991 82.7523Z" fill="#002899"/>
<path d="M105.002 89.4188C106.784 87.9779 108.648 88.252 109.702 89.553C110.28 90.2676 110.5 91.1491 110.347 91.9422L113.473 89.4142L114.009 90.0752L106.22 96.3741L105.685 95.7132L106.432 95.1093C105.71 95.1114 104.827 94.872 104.18 94.0722C103.083 92.7181 103.221 90.8597 105.002 89.4188ZM107.862 93.9527L108.833 93.1677C109.761 92.4169 109.981 91.1623 109.143 90.1283C108.28 89.062 106.935 88.9497 105.538 90.0798C104.14 91.2103 103.909 92.4736 104.833 93.6143C105.757 94.7551 107.019 94.6347 107.862 93.9527Z" fill="#002899"/>
<path d="M109.592 100.083L114.022 98.5765L113.607 97.3562L114.282 97.126L114.698 98.3463L116.646 97.6838L116.621 98.5903L114.972 99.1518L115.48 100.645L114.805 100.874L114.296 99.3815L109.983 100.848C109.295 101.082 109.128 101.487 109.318 102.045C109.402 102.292 109.485 102.408 109.647 102.629L108.985 102.854C108.77 102.564 108.656 102.314 108.558 102.028C108.222 101.041 108.735 100.375 109.592 100.083Z" fill="#002899"/>
<path d="M112.661 102.643C114.706 102.638 116.234 104.019 116.24 106.076C116.246 108.134 114.726 109.524 112.681 109.53C110.637 109.536 109.109 108.155 109.103 106.097C109.097 104.039 110.616 102.65 112.661 102.643ZM112.679 108.679C114.518 108.674 115.448 107.451 115.444 106.079C115.44 104.707 114.503 103.489 112.664 103.494C110.824 103.499 109.895 104.723 109.899 106.095C109.903 107.466 110.84 108.685 112.679 108.679Z" fill="#002899"/>
<path d="M109.534 110.04C109.93 110.157 110.162 110.583 110.045 110.977C109.929 111.372 109.502 111.604 109.107 111.488C108.712 111.371 108.48 110.945 108.597 110.55C108.713 110.156 109.14 109.923 109.534 110.04Z" fill="#002899"/>
<path d="M108.734 112.471C109.106 112.645 109.271 113.101 109.096 113.474C108.922 113.846 108.465 114.011 108.093 113.837C107.72 113.662 107.555 113.206 107.73 112.833C107.905 112.461 108.361 112.296 108.734 112.471Z" fill="#002899"/>
<path d="M107.58 114.748C107.923 114.975 108.019 115.451 107.791 115.794C107.564 116.136 107.088 116.233 106.745 116.005C106.402 115.777 106.306 115.302 106.533 114.959C106.761 114.616 107.237 114.52 107.58 114.748Z" fill="#002899"/>
</svg>
