<svg width="326" height="200" viewBox="0 0 326 200" fill="none" xmlns="http://www.w3.org/2000/svg">
<path d="M216.56 110.524H108.813L162.678 200.002L216.56 110.524Z" fill="#CD46FD"/>
<path d="M130.796 127.335H194.577V0.00195312H130.796V127.335Z" fill="#CD46FD"/>
<path d="M74.3302 22.9389C74.3302 43.2272 66.256 62.6686 51.8776 77.011L40.8952 87.9659L25.3608 72.4704L0 173.732L101.515 148.452L85.981 132.957L97.0177 121.948C123.336 95.6956 138.112 60.092 138.112 22.9749V0.00195312H74.3302V22.9389Z" fill="#CD46FD"/>
<path d="M228.355 121.948L239.392 132.957L223.858 148.452L325.373 173.732L300.03 72.4704L284.496 87.9659L273.514 77.011C259.135 62.6686 251.061 43.2092 251.061 22.9389V0.00195312H187.28V22.9749C187.28 60.092 202.055 95.6956 228.374 121.948H228.355Z" fill="#CD46FD"/>
<path d="M118.459 4.74069H132.909V8.23619H122.433V14.3983H132.078V17.8578H122.433V26.9749H118.459V4.74069Z" fill="#FE6301"/>
<path d="M135.619 4.74069H143.35C148.48 4.74069 151.749 7.53348 151.749 11.9839C151.749 14.9389 150.286 16.8668 147.902 18.2722V18.4344L152.905 26.9749H148.444L143.964 19.1371H139.611V26.9749H135.637V4.74069H135.619ZM143.639 15.6416C146.15 15.6416 147.775 14.3083 147.775 11.9299C147.775 9.5515 146.222 8.25421 143.639 8.25421H139.593V15.6596H143.639V15.6416Z" fill="#FE6301"/>
<path d="M153.827 15.8578C153.827 9.02898 158.722 4.43439 165.062 4.43439C171.402 4.43439 176.333 9.02898 176.333 15.8578C176.333 22.6866 171.438 27.2812 165.062 27.2812C158.686 27.2812 153.827 22.6866 153.827 15.8578ZM172.269 15.8578C172.269 11.2272 169.469 7.98393 165.044 7.98393C160.618 7.98393 157.819 11.2272 157.819 15.8578C157.819 20.4884 160.654 23.7317 165.044 23.7317C169.433 23.7317 172.269 20.4884 172.269 15.8578Z" fill="#FE6301"/>
<path d="M183.179 4.74069L190.043 22.074L196.943 4.74069H200.917V26.9569H197.106V13.029H196.98L196.817 14.4344L191.886 26.9749H188.219L183.288 14.4344L183.125 13.029H182.999V26.9569H179.187V4.74069H183.179Z" fill="#FE6301"/>
<path d="M87.5525 32.056H91.9058L101.1 47.5155L101.299 48.3983H101.389V32.056H105.363V54.2722H101.01L91.8154 38.8128L91.6168 37.9299H91.5264V54.2722H87.5525V32.056Z" fill="#FE6301"/>
<path d="M108.903 32.056H122.975V35.5515H112.895V41.4254H122.126V44.9209H112.895V50.7947H123.336V54.2902H108.921V32.074L108.903 32.056Z" fill="#FE6301"/>
<path d="M126.443 46.002V32.074H130.417V45.9479C130.417 49.1911 131.952 51.065 135.023 51.065C138.093 51.065 139.629 49.1911 139.629 45.9479V32.074H143.603V46.002C143.603 51.083 140.46 54.5965 135.005 54.5965C129.55 54.5965 126.407 51.065 126.407 46.002H126.443Z" fill="#FE6301"/>
<path d="M151.135 32.056V41.2632H151.225L159.155 32.056H163.761L154.73 42.4704L164.141 54.2722H159.137L151.207 44.1821H151.117V54.2722H147.143V32.056H151.135Z" fill="#FE6301"/>
<path d="M163.364 43.1731C163.364 36.3443 168.259 31.7497 174.599 31.7497C180.939 31.7497 185.871 36.3443 185.871 43.1731C185.871 50.002 180.976 54.5965 174.599 54.5965C168.223 54.5965 163.364 50.002 163.364 43.1731ZM181.825 43.1731C181.825 38.5425 179.025 35.2993 174.599 35.2993C170.174 35.2993 167.374 38.5425 167.374 43.1731C167.374 47.8038 170.21 51.047 174.599 51.047C178.989 51.047 181.825 47.8038 181.825 43.1731ZM169.542 29.3533C169.542 28.2362 170.499 27.2812 171.637 27.2812C172.775 27.2812 173.732 28.2362 173.732 29.3533C173.732 30.4704 172.739 31.4254 171.637 31.4254C170.535 31.4254 169.542 30.4704 169.542 29.3533ZM175.52 29.3533C175.52 28.2362 176.478 27.2812 177.616 27.2812C178.754 27.2812 179.711 28.2362 179.711 29.3533C179.711 30.4704 178.718 31.4254 177.616 31.4254C176.514 31.4254 175.52 30.4704 175.52 29.3533Z" fill="#FE6301"/>
<path d="M188.761 32.056H192.735V50.7767H203.645V54.2722H188.761V32.056Z" fill="#FE6301"/>
<path d="M206.734 32.056H210.708V50.7767H221.618V54.2722H206.734V32.056Z" fill="#FE6301"/>
<path d="M224.725 32.056H229.078L238.272 47.5155L238.471 48.3983H238.561V32.056H242.535V54.2722H238.182L228.988 38.8128L228.789 37.9299H228.699V54.2722H224.725V32.056Z" fill="#FE6301"/>
<path d="M40.3352 110.885H34.6995V107.389H49.9449V110.885H44.3091V129.606H40.3352V110.885Z" fill="#FE6301"/>
<path d="M49.8545 118.506C49.8545 111.678 54.7497 107.083 61.0899 107.083C67.4301 107.083 72.3613 111.678 72.3613 118.506C72.3613 125.335 67.4662 129.93 61.0899 129.93C54.7136 129.93 49.8545 125.335 49.8545 118.506ZM68.3152 118.506C68.3152 113.876 65.5154 110.633 61.0899 110.633C56.6644 110.633 53.8646 113.876 53.8646 118.506C53.8646 123.137 56.7005 126.38 61.0899 126.38C65.4792 126.38 68.3152 123.137 68.3152 118.506Z" fill="#FE6301"/>
<path d="M139.9 124.452H134.264V120.957H149.509V124.452H143.874V143.173H139.9V124.452Z" fill="#FE6301"/>
<path d="M151.966 120.957H155.94V130.326H165.333V120.957H169.307V143.173H165.333V133.804H155.94V143.173H151.966V120.957Z" fill="#FE6301"/>
<path d="M172.847 120.957H186.918V124.452H176.839V130.326H186.069V133.822H176.839V139.696H187.28V143.191H172.865V120.975L172.847 120.957Z" fill="#FE6301"/>
<path d="M232.655 65.1011L235.653 68.092L227.958 81.2452L226.296 83.6236L226.369 83.6956L228.717 81.9839L242.084 74.4884L244.865 77.2632L237.333 90.5785L235.653 92.9389L235.725 93.011L238.092 91.3353L251.296 83.6776L254.294 86.6686L233.973 97.8218L230.975 94.8308L239.681 79.6776L224.49 88.3623L221.491 85.3713L232.673 65.1011H232.655Z" fill="#FE6301"/>
<path d="M246.455 94.5785C251.296 89.7497 258.015 89.9479 262.495 94.4164C266.975 98.8848 267.191 105.624 262.369 110.434C257.546 115.245 250.808 115.065 246.31 110.561C241.813 106.056 241.632 99.3893 246.473 94.5605L246.455 94.5785ZM259.496 107.606C262.784 104.326 263.091 100.056 259.966 96.9389C256.841 93.8218 252.56 94.1281 249.273 97.4074C245.985 100.687 245.696 104.975 248.803 108.074C251.91 111.173 256.209 110.885 259.496 107.606Z" fill="#FE6301"/>
<path d="M272.285 104.633L277.758 110.092C281.389 113.714 281.714 117.984 278.571 121.137C276.476 123.227 274.074 123.57 271.4 122.867L271.292 122.975L268.763 132.542L265.62 129.407L268.004 120.705L264.915 117.624L259.352 123.173L256.534 120.362L272.285 104.651V104.633ZM270.226 117.984C271.996 119.75 274.092 119.966 275.79 118.272C277.487 116.579 277.289 114.561 275.482 112.759L272.628 109.912L267.39 115.137L270.244 117.984H270.226Z" fill="#FE6301"/>
<path d="M286.194 118.506L289.012 121.317L275.735 134.561L283.448 142.254L280.974 144.723L270.443 134.218L286.194 118.506Z" fill="#FE6301"/>
<path d="M298.91 131.191L304.004 136.272C309.152 141.407 309.297 147.606 304.456 152.434C299.615 157.263 293.401 157.119 288.253 151.984L283.159 146.903L298.91 131.191ZM290.619 149.425C294.07 152.867 297.953 153.281 301.62 149.624C305.287 145.966 304.853 142.074 301.421 138.651L299.236 136.47L288.434 147.245L290.619 149.425Z" fill="#FE6301"/>
</svg>
