<svg width="187" height="200" viewBox="0 0 187 200" fill="none" xmlns="http://www.w3.org/2000/svg">
<path d="M119.381 94.7837C124.989 106.607 137.037 114.786 151.001 114.786C170.318 114.786 185.977 99.1388 185.977 79.8369C185.977 60.5351 170.318 44.8878 151.001 44.8878C131.684 44.8878 116.025 60.5351 116.025 79.8369C116.025 80.1128 116.039 80.3851 116.046 80.6595L100.318 88.3921L98.5091 68.6988C112.815 64.3153 123.219 51.0144 123.219 35.2828C123.219 15.981 107.559 0.333702 88.2425 0.333702C68.9259 0.333702 53.2666 15.981 53.2666 35.2828C53.2666 53.1957 66.756 67.9519 84.1365 69.9842L86.0078 90.0168L71.0028 86.3391C69.7535 68.1713 54.6191 53.8181 36.1201 53.8181C16.8035 53.8181 1.14421 69.4654 1.14421 88.7672C1.14421 108.069 16.8035 123.716 36.1201 123.716C51.2933 123.716 64.2053 114.06 69.0484 100.563L83.0265 104.119L65.6554 129.801C65.2751 129.789 64.8957 129.772 64.5123 129.772C45.1956 129.772 29.5363 145.419 29.5363 164.721C29.5363 184.023 45.1956 199.67 64.5123 199.67C83.829 199.67 99.4883 184.023 99.4883 164.721C99.4883 151.05 91.6275 139.219 80.1802 133.476L95.9933 110.415L111.6 129.039C106.586 135.088 103.571 142.851 103.571 151.319C103.571 170.621 119.23 186.268 138.547 186.268C157.864 186.268 173.523 170.621 173.523 151.319C173.523 132.017 157.864 116.37 138.547 116.37C132.903 116.37 127.575 117.714 122.855 120.087L107.002 101.185L119.381 94.7837Z" fill="#FFFE49"/>
<path d="M64.5126 200.002C45.0432 200.002 29.2045 184.175 29.2045 164.721C29.2045 145.267 45.0432 129.44 64.5126 129.44C64.8228 129.44 65.1314 129.451 65.4395 129.462L65.483 129.463L82.4868 104.325L69.258 100.959C64.1632 114.782 50.8848 124.048 36.12 124.048C16.6513 124.048 0.8125 108.221 0.8125 88.7672C0.8125 69.3131 16.6513 53.4862 36.12 53.4862C54.5192 53.4862 69.9319 67.7809 71.3163 86.0744L85.634 89.5838L83.8309 70.2817C66.1978 68.0854 52.9348 53.0867 52.9348 35.2829C52.9348 15.8288 68.7736 0.00195312 88.2423 0.00195312C107.712 0.00195312 123.55 15.8288 123.55 35.2829C123.55 50.7976 113.641 64.2875 98.864 68.9359L100.604 87.8817L115.707 80.456L115.705 80.3833C115.699 80.2016 115.693 80.0199 115.693 79.8368C115.693 60.383 131.532 44.5561 151.001 44.5561C170.47 44.5561 186.309 60.383 186.309 79.8368C186.309 99.2909 170.47 115.118 151.001 115.118C137.543 115.118 125.11 107.326 119.23 95.2355L107.523 101.289L122.941 119.673C127.828 117.261 133.077 116.038 138.547 116.038C158.016 116.038 173.855 131.865 173.855 151.319C173.855 170.773 158.016 186.6 138.547 186.6C119.078 186.6 103.239 170.773 103.239 151.319C103.239 143.212 106.053 135.313 111.169 129.041L96.0198 110.964L80.6677 133.352C92.4923 139.439 99.8201 151.424 99.8201 164.721C99.8201 184.175 83.9813 200.002 64.5126 200.002ZM64.5126 130.104C45.4097 130.104 29.868 145.633 29.868 164.721C29.868 183.809 45.4097 199.338 64.5126 199.338C83.6154 199.338 99.1566 183.809 99.1566 164.721C99.1566 151.55 91.8277 139.691 80.0312 133.773L79.6911 133.602L95.9669 109.867L112.032 129.038L111.856 129.251C106.727 135.437 103.903 143.275 103.903 151.319C103.903 170.407 119.444 185.936 138.547 185.936C157.65 185.936 173.191 170.407 173.191 151.319C173.191 132.231 157.65 116.702 138.547 116.702C133.094 116.702 127.864 117.94 123.004 120.383L122.77 120.501L106.482 101.08L119.534 94.3311L119.681 94.6417C125.389 106.677 137.683 114.454 151.001 114.454C170.103 114.454 185.645 98.925 185.645 79.8368C185.645 60.7489 170.103 45.2197 151.001 45.2197C131.898 45.2197 116.357 60.7489 116.357 79.8368C116.357 80.0125 116.363 80.1865 116.369 80.3608L116.383 80.8635L100.031 88.9026L98.1536 68.4607L98.4115 68.3816C113.051 63.8962 122.887 50.5947 122.887 35.2829C122.887 16.1947 107.345 0.665502 88.2423 0.665502C69.1395 0.665502 53.5983 16.1947 53.5983 35.2829C53.5983 52.8397 66.7439 67.6165 84.1753 69.6548L84.442 69.6862L84.4674 69.9535L86.3813 90.45L70.688 86.6034L70.6715 86.3619C69.4294 68.299 54.2524 54.1497 36.12 54.1497C17.0172 54.1497 1.47601 69.679 1.47601 88.7672C1.47601 107.855 17.0172 123.385 36.12 123.385C50.7062 123.385 63.8132 114.168 68.7361 100.451L68.838 100.168L83.5658 103.914L65.828 130.139L65.4163 130.125C65.116 130.114 64.8151 130.104 64.5126 130.104Z" fill="black"/>
<path d="M71.3463 42.7656V15.3147H79.1688V42.6406C79.1688 49.0185 82.1726 52.7078 88.2428 52.7078C94.3125 52.7078 97.3162 49.0185 97.3162 42.6406V15.3147H105.139V42.7656C105.139 52.7705 98.9437 59.7112 88.2428 59.7112C77.5418 59.7112 71.3463 52.7705 71.3463 42.7656Z" fill="black"/>
<path d="M133.502 57.9513H142.076L160.161 88.4037L160.536 90.1544H160.724V57.9513H168.546V101.723H159.973L141.888 71.2704L141.512 69.5195H141.325V101.723H133.502V57.9513Z" fill="black"/>
<path d="M134.636 129.433H142.458V173.205H134.636V129.433Z" fill="black"/>
<path d="M60.6008 152.355H49.5249V145.476H79.4998V152.355H68.4233V189.247H60.6008V152.355Z" fill="black"/>
<path d="M32.178 95.7312L18.9738 67.7177H27.3593L35.1818 84.6635L35.9951 89.4157H36.2453L37.059 84.6635L44.8815 67.7177H53.2666L40.0001 95.7312V111.489H32.178V95.7312Z" fill="black"/>
</svg>
