<svg width="658" height="200" viewBox="0 0 658 200" fill="none" xmlns="http://www.w3.org/2000/svg">
<path d="M641.87 79.8538V67.3987C641.87 66.2516 640.942 65.3217 639.797 65.3217C638.652 65.3217 637.724 64.3917 637.724 63.2446V46.9546C637.724 46.1393 638.384 45.4783 639.198 45.4783C640.011 45.4783 640.671 44.8173 640.671 44.002V24.263C640.671 11.3149 630.195 0.818373 617.271 0.818373H389.544C388.399 0.818373 387.471 1.74831 387.471 2.89545V4.99629C387.471 7.10825 384.691 7.8725 383.615 6.05623L381.115 1.83551C380.742 1.20495 380.064 0.818373 379.332 0.818373H279.664C278.815 0.818373 278.051 1.33737 277.738 2.12808L275.933 6.67489C275.244 8.41174 272.795 8.42407 272.088 6.69424L270.215 2.10873C269.896 1.32826 269.138 0.818373 268.297 0.818373H128.71C127.565 0.818373 126.637 1.74831 126.637 2.89545V4.99629C126.637 7.10825 123.857 7.8725 122.781 6.05623L120.281 1.83551C119.908 1.20495 119.23 0.818373 118.498 0.818373H31.3735C18.4857 0.818373 8.03813 11.286 8.03813 24.1984V65.1304C8.03813 75.4447 10.7782 84.5679 15.6585 91.9123C18.5496 96.2631 18.0924 101.922 14.6269 105.829C5.96061 115.599 0.814473 128.702 0.814473 143.513C0.814473 175.251 24.4226 199.187 55.7282 199.187C68.1216 199.187 79.0865 195.641 87.7355 189.243C91.8725 186.183 97.4007 186.114 101.585 189.109C110.517 195.502 121.588 199.187 133.843 199.187C144.361 199.187 154.006 196.479 162.182 191.686C163.568 190.873 165.305 191.855 165.305 193.464V196.017C165.305 197.164 166.233 198.094 167.378 198.094H357.338C358.483 198.094 359.411 197.164 359.411 196.017V195.866C359.411 194.306 361.051 193.322 362.437 194.034C368.912 197.357 376.485 199.187 384.848 199.187C393.189 199.187 400.745 197.367 407.208 194.06C408.594 193.351 410.231 194.334 410.231 195.893V196.017C410.231 197.164 411.159 198.094 412.304 198.094H454.371C455.516 198.094 456.444 197.164 456.444 196.017V194.02C456.444 191.892 459.26 191.141 460.316 192.988L462.638 197.049C463.007 197.695 463.693 198.094 464.437 198.094H552.502C561.496 198.094 568.788 190.788 568.788 181.777V133.59H570.517L581.736 157.456C581.866 157.733 581.934 158.035 581.934 158.341V181.777C581.934 190.788 589.225 198.094 598.22 198.094H611.859C620.853 198.094 628.145 190.788 628.145 181.777V158.359C628.145 158.052 628.213 157.748 628.344 157.47L656.529 97.7926C658.474 93.6746 655.476 88.9304 650.929 88.9304C645.926 88.9304 641.87 84.8667 641.87 79.8538Z" fill="#AB8DFF"/>
<path d="M384.848 200.002C376.509 200.002 368.844 198.238 362.066 194.759C361.663 194.554 361.196 194.568 360.817 194.801C360.441 195.032 360.225 195.42 360.225 195.866V196.017C360.225 197.612 358.93 198.91 357.338 198.91H167.378C165.785 198.91 164.49 197.612 164.49 196.017V193.464C164.49 193.002 164.263 192.607 163.867 192.38C163.47 192.151 162.994 192.154 162.593 192.39C154.099 197.37 144.158 200.002 133.843 200.002C121.78 200.002 110.462 196.465 101.112 189.772C97.2442 187.005 92.0632 187.055 88.219 189.899C79.2837 196.508 68.0485 200.002 55.7279 200.002C23.9579 200.002 0 175.717 0 143.513C0 129.054 4.97825 115.478 14.0176 105.287C17.284 101.605 17.6706 96.4119 14.9807 92.3647C9.90582 84.7272 7.2234 75.3096 7.2234 65.1302V24.1986C7.2234 10.857 18.0572 0.00244141 31.3733 0.00244141H118.498C119.513 0.00244141 120.464 0.545506 120.981 1.41969L123.481 5.63961C123.842 6.25039 124.45 6.33571 124.896 6.21247C125.344 6.08991 125.822 5.70597 125.822 4.99633V2.89517C125.822 1.30051 127.118 0.00244142 128.71 0.00244142H268.297C269.474 0.00244142 270.523 0.708019 270.969 1.80024L272.842 6.38514C273.044 6.87877 273.44 7.14827 274.013 7.16859C274.545 7.16588 274.981 6.86862 275.177 6.37363L276.98 1.82665C277.42 0.718853 278.473 0.00244142 279.664 0.00244142H379.333C380.347 0.00244142 381.298 0.545506 381.815 1.41969L384.315 5.63961C384.677 6.25039 385.285 6.33571 385.731 6.21247C386.178 6.08991 386.657 5.70529 386.657 4.99633V2.89517C386.657 1.30051 387.952 0.00244143 389.544 0.00244143H617.271C630.623 0.00244143 641.485 10.8854 641.485 24.2629V44.0022C641.485 45.2657 640.459 46.2943 639.197 46.2943C638.834 46.2943 638.539 46.5902 638.539 46.9545V63.2444C638.539 63.9398 639.103 64.5059 639.797 64.5059C641.389 64.5059 642.685 65.804 642.685 67.3986V79.8539C642.685 84.409 646.383 88.1143 650.929 88.1143C653.346 88.1143 655.56 89.3358 656.852 91.3808C658.145 93.4264 658.299 95.9535 657.265 98.1413L629.08 157.819C629.001 157.987 628.959 158.174 628.959 158.358V181.777C628.959 191.224 621.288 198.91 611.859 198.91H598.22C588.79 198.91 581.12 191.224 581.12 181.777V158.341C581.12 158.154 581.079 157.973 580.999 157.804L570.001 134.406H569.602V181.777C569.602 191.224 561.93 198.91 552.502 198.91H464.437C463.405 198.91 462.445 198.352 461.931 197.454L459.609 193.394C459.256 192.773 458.649 192.681 458.193 192.802C457.741 192.922 457.258 193.306 457.258 194.021V196.017C457.258 197.612 455.962 198.91 454.371 198.91H412.304C410.713 198.91 409.417 197.612 409.417 196.017C409.417 195.447 409.202 195.059 408.826 194.829C408.447 194.596 407.98 194.58 407.578 194.786C400.814 198.247 393.167 200.002 384.848 200.002ZM361.474 192.982C361.928 192.982 362.384 193.09 362.808 193.308C369.354 196.667 376.769 198.371 384.848 198.371C392.907 198.371 400.305 196.676 406.837 193.333C407.748 192.866 408.81 192.905 409.677 193.438C410.534 193.964 411.046 194.881 411.046 195.893C411.046 196.712 411.61 197.278 412.304 197.278H454.371C455.065 197.278 455.629 196.712 455.629 196.017V194.021C455.629 192.691 456.492 191.567 457.774 191.225C459.058 190.882 460.363 191.429 461.022 192.582L463.344 196.643C463.568 197.035 463.987 197.278 464.437 197.278H552.502C561.033 197.278 567.973 190.324 567.973 181.777V132.774H571.033L582.473 157.108C582.653 157.491 582.748 157.918 582.748 158.341V181.777C582.748 190.324 589.689 197.278 598.22 197.278H611.859C620.39 197.278 627.33 190.324 627.33 181.777V158.358C627.33 157.935 627.426 157.507 627.607 157.122L655.793 97.4439C656.587 95.7639 656.468 93.8239 655.476 92.2536C654.484 90.6833 652.784 89.7462 650.929 89.7462C645.485 89.7462 641.056 85.3082 641.056 79.8539V67.3986C641.056 66.7032 640.491 66.1378 639.797 66.1378C638.205 66.1378 636.91 64.8397 636.91 63.2444V46.9545C636.91 45.6909 637.936 44.6624 639.197 44.6624C639.561 44.6624 639.856 44.3665 639.856 44.0022V24.2629C639.856 11.7853 629.725 1.63434 617.271 1.63434H389.544C388.85 1.63434 388.286 2.19975 388.286 2.89517V4.99633C388.286 6.31607 387.432 7.43741 386.162 7.78614C384.892 8.13622 383.586 7.60805 382.915 6.47249L380.415 2.25189C380.189 1.87066 379.775 1.63434 379.333 1.63434H279.664C279.145 1.63434 278.686 1.9465 278.494 2.4293L276.691 6.97628C276.246 8.09559 275.223 8.79439 274.022 8.80049H274.006C272.81 8.80049 271.788 8.11319 271.334 7.00337L269.462 2.41779C269.267 1.94176 268.81 1.63434 268.297 1.63434H128.71C128.016 1.63434 127.451 2.19975 127.451 2.89517V4.99633C127.451 6.31607 126.597 7.43741 125.327 7.78614C124.059 8.13622 122.753 7.60737 122.081 6.47249L119.581 2.25189C119.355 1.87066 118.941 1.63434 118.498 1.63434H31.3733C18.9553 1.63434 8.85218 11.7569 8.85218 24.1986V65.1302C8.85218 74.9873 11.44 84.0921 16.3365 91.46C19.394 96.0612 18.9412 102.193 15.2355 106.371C6.46105 116.263 1.62878 129.454 1.62878 143.513C1.62878 174.787 24.8865 198.371 55.7279 198.371C67.6978 198.371 78.5984 194.988 87.2512 188.587C91.6658 185.321 97.616 185.265 102.058 188.445C111.131 194.938 122.121 198.371 133.843 198.371C143.869 198.371 153.526 195.816 161.77 190.982C162.681 190.449 163.767 190.443 164.677 190.964C165.579 191.483 166.119 192.417 166.119 193.464V196.017C166.119 196.712 166.684 197.278 167.378 197.278H357.338C358.032 197.278 358.596 196.712 358.596 196.017V195.866C358.596 194.853 359.109 193.935 359.968 193.409C360.431 193.125 360.951 192.982 361.474 192.982Z" fill="black"/>
<path d="M24.324 65.1304V17.1354H37.9649V64.9121C37.9649 76.0632 43.2022 82.5135 53.7864 82.5135C64.3706 82.5135 69.6078 76.0632 69.6078 64.9121V17.1354H83.2488V65.1304C83.2488 82.6219 72.4451 94.7577 53.7864 94.7577C35.1276 94.7577 24.324 82.6219 24.324 65.1304Z" fill="black"/>
<path d="M95.4552 17.1354H110.405L141.94 70.3777L142.595 73.4388H142.923V17.1354H156.562V93.6646H141.612L110.077 40.4222L109.422 37.3612H109.096V93.6646H95.4552V17.1354Z" fill="black"/>
<path d="M168.955 17.1354H182.596V93.6646H168.955V17.1354Z" fill="black"/>
<path d="M207.8 29.1613H188.486V17.1354H240.754V29.1613H221.44V93.6646H207.8V29.1613Z" fill="black"/>
<path d="M267.158 66.1136L244.133 17.1354H258.756L274.249 55.0725L289.307 17.1354H303.93L280.797 66.1136V93.6646H267.158V66.1136Z" fill="black"/>
<path d="M330.442 17.1354H344.083V93.6646H330.442V17.1354Z" fill="black"/>
<path d="M356.289 17.1354H371.239L402.774 70.3777L403.429 73.4388H403.757V17.1354H417.396V93.6646H402.446L370.911 40.4222L370.256 37.3612H369.93V93.6646H356.289V17.1354Z" fill="black"/>
<path d="M465.296 29.1613H445.982V17.1354H498.25V29.1613H478.936V93.6646H465.296V29.1613Z" fill="black"/>
<path d="M504.26 17.1354H517.901V49.3871H550.089V17.1354H563.73V93.6646H550.089V61.4129H517.901V93.6646H504.26V17.1354Z" fill="black"/>
<path d="M576.154 17.1354H624.385V29.1613H589.795V49.3871H621.438V61.4129H589.795V81.6387H625.584V93.6646H576.154V17.1354Z" fill="black"/>
<path d="M17.1003 143.513C17.1003 119.788 34.668 104.154 55.7282 104.154C74.4967 104.154 87.1532 114.759 90.3181 129.847L89.8824 130.72L77.1145 131.705C74.387 122.194 66.5303 116.4 55.5104 116.4C40.3426 116.4 30.8494 127.769 30.8494 143.513C30.8494 159.255 40.4523 170.626 55.7282 170.626C66.5303 170.626 74.2788 164.832 77.1145 155.32L89.7726 156.303L90.3181 157.178C86.2817 173.14 73.5138 182.87 55.7282 182.87C34.668 182.87 17.1003 167.236 17.1003 143.513Z" fill="black"/>
<path d="M95.3248 143.513C95.3248 120.008 112.129 104.154 133.843 104.154C155.667 104.154 172.471 120.008 172.471 143.513C172.471 167.018 155.667 182.87 133.843 182.87C112.129 182.87 95.3248 167.018 95.3248 143.513ZM158.614 143.513C158.614 127.551 149.011 116.4 133.843 116.4C118.785 116.4 109.074 127.551 109.074 143.513C109.074 159.474 118.785 170.626 133.843 170.626C149.011 170.626 158.614 159.474 158.614 143.513Z" fill="black"/>
<path d="M181.59 105.247H195.231L218.8 164.94L242.478 105.247H256.119V181.777H243.025V133.782H242.587L242.042 138.592L225.129 181.777H212.581L195.667 138.592L195.122 133.782H194.686V181.777H181.59V105.247Z" fill="black"/>
<path d="M268.597 105.247H282.238L305.806 164.94L329.484 105.247H343.125V181.777H330.032V133.782H329.594L329.049 138.592L312.136 181.777H299.586L282.674 138.592L282.128 133.782H281.693V181.777H268.597V105.247Z" fill="black"/>
<path d="M355.386 153.242V105.247H369.027V153.024C369.027 164.175 374.264 170.626 384.848 170.626C395.432 170.626 400.67 164.175 400.67 153.024V105.247H414.309V153.242C414.309 170.734 403.507 182.87 384.848 182.87C366.19 182.87 355.386 170.734 355.386 153.242Z" fill="black"/>
<path d="M426.517 105.247H441.467L473.657 161.551H473.985V105.247H487.624V181.777H472.674L440.484 125.473H440.158V181.777H426.517V105.247Z" fill="black"/>
<path d="M500.016 105.247H513.657V181.777H500.016V105.247Z" fill="black"/>
<path d="M538.862 117.273H519.548V105.247H571.816V117.273H552.502V181.777H538.862V117.273Z" fill="black"/>
<path d="M598.22 154.226L575.195 105.247H589.818L604.876 143.185H605.311L620.369 105.247H634.992L611.859 154.226V181.777H598.22V154.226Z" fill="black"/>
</svg>
