<svg width="697" height="200" viewBox="0 0 697 200" fill="none" xmlns="http://www.w3.org/2000/svg">
<path d="M688.149 156.576V134.641H694.76V93.9832H585.455V112.964L588.283 116.684C588.421 116.943 588.825 118.051 588.944 122.334L571.112 93.9832H560.332V66.4722H556.145V40.9921H559.12V1.11027H482.87V10.296C474.459 3.7229 463.505 0.00244141 451.136 0.00244141C437.326 0.00244141 425.086 4.87689 415.877 13.1025V1.11027H208.725V9.31743C201.48 4.09218 192.04 1.11027 181.178 1.11027H140.629V95.3588C137.305 96.4574 134.137 97.8883 131.153 99.6239V93.9832H0.0390625V112.835L2.72947 116.5C4.7312 119.223 5.9249 122.187 7.68789 128.778L26.7778 198.673H57.8598L65.5178 173.202L72.5239 198.673H103.441L111.172 171.254C113.495 176.12 116.516 180.569 120.198 184.447C129.748 194.482 143.035 200.002 157.598 200.002C170.554 200.002 182.463 195.654 191.646 187.678V198.673H236.932V182.369L249.935 198.673H361.885C384.418 198.673 402.213 188.223 410.955 171.476L418.383 198.673H449.465L457.123 173.202L464.129 198.673H575.868V179.942L573.307 176.332C572.866 175.713 572.342 173.71 572.342 167.654V167.414L592.103 198.673H696.193V156.576H688.149Z" fill="#330000"/>
<path d="M154.411 14.9581H181.187C198.927 14.9581 210.276 24.707 210.276 40.2166C210.276 50.5194 205.208 57.2772 196.944 62.1516V62.7055L214.243 92.5061H198.817L183.28 65.1428H168.185V92.5061H154.411V14.9581ZM182.179 52.9566C190.883 52.9566 196.503 48.3038 196.503 39.9951C196.503 31.6863 191.104 27.1442 182.179 27.1442H168.185V52.9566H182.179Z" fill="#FFFE49"/>
<path d="M222.507 14.9581H271.21V27.1442H236.281V47.6391H268.235V59.8252H236.281V80.32H272.422V92.5061H222.507V14.9581Z" fill="#FFFE49"/>
<path d="M283.22 14.9581H333.245V27.1442H296.994V48.6361H330.38V60.7115H296.994V92.5061H283.22V14.9581Z" fill="#FFFE49"/>
<path d="M342.611 63.5918V14.9581H356.385V63.3702C356.385 74.6701 361.674 81.2063 372.362 81.2063C383.05 81.2063 388.339 74.6701 388.339 63.3702V14.9581H402.112V63.5918C402.112 81.3171 391.204 93.614 372.362 93.614C353.52 93.614 342.611 81.3171 342.611 63.5918Z" fill="#FFFE49"/>
<path d="M412.139 53.7321C412.139 30.1354 429.218 13.8503 451.146 13.8503C468.776 13.8503 481.998 23.4884 485.524 38.998L485.083 39.7735L472.302 40.7705C469.327 31.4648 462.275 26.0364 451.035 26.0364C435.94 26.0364 426.023 37.5578 426.023 53.7321C426.023 69.9064 435.83 81.3171 451.256 81.3171C464.258 81.3171 471.751 73.8946 473.183 61.7085H444.424V50.4086H486.626V56.7233C486.626 78.2151 472.963 93.614 451.256 93.614C429.549 93.614 412.139 77.3289 412.139 53.7321Z" fill="#FFFE49"/>
<path d="M496.653 14.9581H545.356V27.1442H510.426V47.6391H542.381V59.8252H510.426V80.32H546.568V92.5061H496.653V14.9581Z" fill="#FFFE49"/>
<path d="M20.9746 125.113C18.9913 117.691 17.2283 112.927 13.8125 108.274V107.831H31.773V108.274C29.5692 113.149 30.2304 117.58 32.1035 124.781L44.114 169.87H44.5547L61.0828 113.813L59.0994 107.831H71.9913L88.9602 169.205H89.5111L101.742 124.559C103.725 117.248 104.386 112.595 102.403 108.274V107.831H117.388V108.274C113.752 112.816 111.989 117.58 110.006 124.67L93.0371 184.825H83.0101L66.3718 124.338H65.8208L47.64 184.825H37.2824L20.9746 125.113Z" fill="#FFFE49"/>
<path d="M119.482 146.384C119.482 123.451 135.239 106.502 157.607 106.502C179.975 106.502 195.732 123.451 195.732 146.384C195.732 169.316 180.085 186.155 157.607 186.155C135.129 186.155 119.482 169.316 119.482 146.384ZM183.721 146.384C183.721 127.44 173.253 114.367 157.607 114.367C141.96 114.367 131.382 127.44 131.382 146.384C131.382 165.327 141.96 178.178 157.607 178.178C173.253 178.178 183.721 165.327 183.721 146.384Z" fill="#FFFE49"/>
<path d="M270.549 184.604V184.825H256.555L227.576 148.488H219.642V167.543C219.642 175.963 220.414 180.505 223.168 184.382V184.825H205.428V184.382C208.183 180.505 208.954 175.963 208.954 167.543V124.781C208.954 116.915 208.293 112.041 205.428 108.274V107.831H232.204C249.062 107.831 258.979 115.918 258.979 127.883C258.979 137.632 251.927 145.165 239.807 147.381L270.549 184.604ZM219.642 140.955H230.22C241.68 140.955 247.52 135.97 247.52 127.994C247.52 119.574 241.57 115.254 230.33 115.254H219.642V140.955Z" fill="#FFFE49"/>
<path d="M274.846 184.382C277.38 180.837 278.372 176.073 278.372 168.319V124.892C278.372 116.915 277.711 112.152 274.846 108.274V107.831H292.696V108.274C289.832 112.152 289.17 116.915 289.17 124.892V177.181H308.674C317.489 177.181 322.998 175.852 325.753 169.205H326.304V184.825H274.846V184.382Z" fill="#FFFE49"/>
<path d="M337.432 125.002C337.432 116.472 336.441 112.152 333.906 108.274V107.831H361.894C386.796 107.831 403.104 123.341 403.104 146.273C403.104 169.205 386.796 184.825 361.894 184.825H333.906V184.382C337.102 180.505 337.432 175.409 337.432 167.211V125.002ZM348.231 177.403H359.47C378.532 177.403 391.204 167.1 391.204 146.273C391.204 125.446 378.532 115.254 359.47 115.254H348.231V177.403Z" fill="#FFFE49"/>
<path d="M412.58 125.113C410.597 117.691 408.834 112.927 405.418 108.274V107.831H423.378V108.274C421.175 113.149 421.836 117.58 423.709 124.781L435.719 169.87H436.16L452.688 113.813L450.705 107.831H463.597L480.566 169.205H481.117L493.347 124.559C495.331 117.248 495.992 112.595 494.009 108.274V107.831H508.994V108.274C505.358 112.816 503.595 117.58 501.611 124.67L484.643 184.825H474.616L457.977 124.338H457.426L439.245 184.825H428.888L412.58 125.113Z" fill="#FFFE49"/>
<path d="M515.826 184.382C518.58 180.505 519.352 175.852 519.352 167.765V124.892C519.352 116.805 518.58 112.041 515.826 108.274V107.831H533.676V108.274C530.921 112.041 530.15 116.805 530.15 124.892V167.765C530.15 175.852 530.921 180.505 533.676 184.382V184.825H515.826V184.382Z" fill="#FFFE49"/>
<path d="M546.678 184.382C549.433 180.505 550.094 175.741 550.094 167.654V112.152L547.56 108.053V107.831H563.537L602.212 169.316H602.763V124.892C602.763 116.805 602.102 112.041 599.237 108.274V107.831H614.664V108.274C611.909 112.041 611.138 116.805 611.138 124.892V184.825H599.678L559.129 120.682H558.578V167.654C558.578 175.741 559.35 180.505 562.104 184.382V184.825H546.678V184.382Z" fill="#FFFE49"/>
<path d="M682.42 170.423V184.825H627.436V184.382C630.191 180.505 630.962 175.963 630.962 167.654V124.892C630.962 116.805 630.301 112.041 627.436 108.274V107.831H680.987V120.793H680.436C677.571 116.805 673.164 115.475 663.578 115.475H641.76V142.063H658.509C667.214 142.063 671.18 140.734 673.825 137.964H674.376V153.695H673.825C671.18 150.815 667.214 149.596 658.509 149.596H641.76V177.181H665.12C673.715 177.181 678.893 175.741 681.869 170.423H682.42Z" fill="#FFFE49"/>
</svg>
