<svg width="475" height="200" viewBox="0 0 475 200" fill="none" xmlns="http://www.w3.org/2000/svg">
<path d="M470.188 87.4407C466.167 76.9983 458.406 68.4317 448.977 63.2074C452.839 53.0398 451.087 41.1806 444.435 32.8072C438.195 24.9522 428.487 20.6264 417.098 20.6264C411.257 20.6264 405.252 21.7949 399.733 24.0052C395.038 25.8853 390.578 28.3848 386.412 31.4437C385.348 28.6427 383.878 25.9746 382.014 23.5155C375.536 14.9679 365.071 9.86502 354.02 9.86502L353.801 9.86589C338.11 9.96037 322.119 17.0036 308.209 29.831C307.11 26.6078 305.591 23.5177 303.645 20.6594C296.305 9.87239 283.375 3.17111 269.901 3.17111C265.951 3.17111 262.08 3.74927 258.397 4.88955C253.256 6.48101 248.768 8.95834 244.791 11.9172C242.471 9.3562 239.702 7.17749 236.523 5.42914C230.53 2.13311 223.256 0.461903 214.903 0.461903C210.276 0.461903 205.443 0.972018 200.537 1.97838C181.086 5.96786 163.711 17.564 151.615 34.6292C151.068 35.402 150.53 36.1852 150.004 36.9792C143.895 27.4742 135.032 20.782 125.03 18.2839C122.358 17.6164 119.576 17.278 116.763 17.278C106.527 17.278 97.0172 21.6978 91.0196 28.9157C88.2325 27.5158 85.2855 26.5636 82.2592 26.115C80.9195 25.9165 79.5545 25.816 78.2017 25.816C68.0297 25.816 58.273 31.6604 52.1442 40.5712C50.2437 39.2814 48.1668 38.1186 45.9004 37.1382C41.6624 35.3045 36.9592 34.335 32.2987 34.335C24.1479 34.335 16.6258 37.2132 11.1178 42.44C2.17318 50.9291 0.785953 62.7641 0.52062 70.9281C0.0104318 86.6333 2.81059 102.866 8.61872 117.869C14.4268 132.874 23.2939 146.781 34.2614 158.09C43.9489 168.078 53.5763 173.643 63.6938 175.102C65.4008 175.348 67.1492 175.473 68.8906 175.473C81.7168 175.473 94.3247 168.773 101.794 157.988C103.917 154.922 105.46 151.823 106.57 148.734C107.673 149.134 108.819 149.494 110.01 149.804C113.237 150.644 116.58 151.07 119.944 151.07C126.544 151.07 132.86 149.453 138.304 146.431C141.408 152.507 145.392 157.835 150.143 162.21C159.521 170.844 172.188 175.797 184.897 175.797C185.153 175.797 185.405 175.794 185.66 175.79C186.434 175.779 187.206 175.747 187.976 175.699C187.496 177.045 187.231 178.493 187.231 180.003V184.466C187.231 188.611 189.238 192.503 192.624 194.921C196.737 197.858 202.093 199.543 207.318 199.543C211.543 199.543 215.448 198.466 218.744 196.588C221.744 198.476 225.367 199.543 229.388 199.543C231.347 199.543 233.267 199.276 235.114 198.76C235.839 198.886 236.583 198.955 237.343 198.955H244.196C246.619 198.955 248.886 198.29 250.824 197.137C253.626 198.67 256.881 199.543 260.385 199.543C262.482 199.543 264.515 199.241 266.445 198.661C268.147 199.203 269.971 199.494 271.872 199.494C274.056 199.494 276.138 199.16 278.103 198.502C280.438 199.179 282.88 199.543 285.295 199.543C288.677 199.543 291.854 198.853 294.677 197.616C297.748 198.862 301.116 199.543 304.432 199.543C308.678 199.543 312.601 198.454 315.907 196.558C319.449 198.472 323.557 199.543 328.01 199.543C334.844 199.543 341.007 196.951 345.834 192.047C346.227 191.647 346.59 191.225 346.923 190.785C348.811 195.567 353.49 198.955 358.967 198.955H363.601C366.17 198.955 368.563 198.207 370.576 196.922C373.925 198.62 377.696 199.543 381.688 199.543C386.812 199.543 391.517 198.04 395.393 195.444C399.319 198.081 403.999 199.543 409.029 199.543C422.642 199.543 433.306 188.935 433.306 175.393C433.306 171.345 432.381 167.603 430.723 164.358C430.88 164.118 431.026 163.871 431.166 163.622C434.744 163.078 438.275 162.023 441.589 160.486C449.519 156.807 456.505 150.523 462.35 141.806C473.794 124.742 476.724 104.419 470.188 87.4407Z" fill="#B27524"/>
<path d="M409.028 200.002C404.112 200.002 399.405 198.618 395.392 195.995C391.366 198.618 386.635 200.002 381.689 200.002C377.76 200.002 374.032 199.144 370.6 197.449C368.494 198.735 366.08 199.414 363.601 199.414H358.967C353.681 199.414 348.988 196.4 346.801 191.672C346.595 191.914 346.383 192.146 346.163 192.368C341.247 197.363 334.97 200.002 328.01 200.002C323.657 200.002 319.589 199.02 315.913 197.083C312.488 198.994 308.524 200.002 304.431 200.002C301.161 200.002 297.795 199.35 294.684 198.114C291.758 199.367 288.6 200.002 285.295 200.002C282.908 200.002 280.492 199.659 278.112 198.982C274.438 200.182 270.204 200.307 266.441 199.141C264.494 199.713 262.457 200.002 260.386 200.002C257.02 200.002 253.723 199.195 250.833 197.664C248.817 198.81 246.528 199.414 244.196 199.414H237.344C236.617 199.414 235.875 199.352 235.139 199.23C233.27 199.742 231.335 200.002 229.388 200.002C225.507 200.002 221.829 199.007 218.732 197.121C215.325 199.007 211.384 200.002 207.318 200.002C201.998 200.002 196.544 198.286 192.354 195.294C188.857 192.796 186.769 188.748 186.769 184.466V180.003C186.769 178.709 186.957 177.431 187.328 176.195C186.764 176.223 186.208 176.241 185.668 176.25C172.586 176.441 159.483 171.435 149.829 162.547C145.164 158.251 141.223 153.043 138.11 147.061C132.669 149.985 126.4 151.529 119.944 151.529C116.54 151.529 113.158 151.098 109.894 150.248C108.871 149.982 107.848 149.671 106.847 149.32C105.679 152.454 104.109 155.455 102.174 158.248C94.6204 169.156 81.8668 175.932 68.8903 175.932C67.1259 175.932 65.3554 175.806 63.6271 175.556C53.4051 174.082 43.6905 168.473 33.9292 158.409C22.9193 147.057 14.0186 133.096 8.18831 118.034C2.35801 102.975 -0.453287 86.6808 0.0594608 70.9131C0.326948 62.6691 1.73183 50.7135 10.7988 42.1076C16.393 36.7993 24.0291 33.8758 32.2989 33.8758C37.0217 33.8758 41.789 34.8581 46.0841 36.7169C48.142 37.6071 50.1378 38.6893 52.024 39.937C58.469 30.7986 68.2227 25.3568 78.2017 25.3568C79.579 25.3568 80.967 25.459 82.3275 25.6607C85.2583 26.0952 88.1401 26.9972 90.8993 28.3432C97.0531 21.12 106.692 16.8184 116.764 16.8184C119.614 16.8184 122.434 17.1615 125.143 17.8382C135.006 20.302 143.812 26.7913 150.008 36.1432C150.413 35.5443 150.822 34.9515 151.238 34.3649C163.401 17.2035 180.877 5.54183 200.443 1.52843C205.379 0.515933 210.245 0.00244141 214.903 0.00244141C223.335 0.00244141 230.684 1.69311 236.746 5.02719C239.824 6.71977 242.548 8.82901 244.852 11.3012C249.147 8.1558 253.537 5.91313 258.26 4.45118C261.987 3.29687 265.904 2.71171 269.901 2.71171C283.526 2.71171 296.602 9.49042 304.028 20.4022C305.832 23.0535 307.306 25.9492 308.413 29.0199C322.242 16.4601 338.336 9.49995 353.799 9.40655L354.019 9.40579C365.215 9.40579 375.818 14.5773 382.382 23.2392C384.132 25.5474 385.557 28.0619 386.624 30.7201C390.701 27.7863 395.05 25.385 399.56 23.5789C405.134 21.3469 411.199 20.167 417.098 20.167C428.631 20.167 438.468 24.5551 444.798 32.5225C451.428 40.8683 453.274 52.7881 449.547 62.9992C459.212 68.4585 466.687 77.0655 470.619 87.2763C477.208 104.393 474.26 124.874 462.734 142.061C456.841 150.848 449.793 157.187 441.784 160.902C438.508 162.421 435.035 163.477 431.458 164.041C431.391 164.156 431.323 164.271 431.253 164.384C432.922 167.741 433.767 171.443 433.767 175.393C433.767 189.193 422.901 200.002 409.028 200.002ZM395.394 194.89L395.651 195.063C399.566 197.693 404.192 199.084 409.028 199.084C422.383 199.084 432.844 188.677 432.844 175.393C432.844 171.497 431.992 167.854 430.312 164.566L430.192 164.33L430.337 164.108C430.487 163.877 430.627 163.639 430.763 163.398L430.873 163.201L431.096 163.167C434.665 162.626 438.13 161.583 441.393 160.069C449.246 156.427 456.168 150.196 461.966 141.551C473.327 124.611 476.239 104.444 469.756 87.6049C465.856 77.4742 458.396 68.9522 448.752 63.6087L448.404 63.4158L448.544 63.0449C452.342 53.0484 450.587 41.2911 444.073 33.092C437.922 25.3496 428.342 21.0857 417.098 21.0857C411.315 21.0857 405.37 22.2423 399.905 24.4312C395.287 26.2805 390.839 28.7641 386.686 31.8134L386.194 32.1733L385.979 31.606C384.923 28.8217 383.464 26.1928 381.645 23.792C375.254 15.3592 364.927 10.3245 354.02 10.3245L353.803 10.3253C338.379 10.4183 322.297 17.465 308.523 30.1681L308 30.6499L307.771 29.9786C306.667 26.7395 305.15 23.6905 303.263 20.9172C296.008 10.2544 283.224 3.63043 269.901 3.63043C265.997 3.63043 262.172 4.20149 258.534 5.32797C253.79 6.79716 249.385 9.07261 245.068 12.2851L244.731 12.5359L244.449 12.2248C242.156 9.69513 239.414 7.54395 236.3 5.83079C230.376 2.57295 223.177 0.921161 214.903 0.921161C210.307 0.921161 205.505 1.42817 200.63 2.42809C181.294 6.39422 164.021 17.9243 151.992 34.894C151.448 35.6629 150.913 36.4421 150.389 37.2323L149.997 37.8221L149.614 37.2266C143.528 27.7562 134.757 21.1871 124.918 18.7295C122.282 18.0707 119.538 17.7372 116.764 17.7372C106.835 17.7372 97.3443 22.0254 91.3753 29.2086L91.1407 29.4911L90.8112 29.3256C88.0405 27.9342 85.1403 27.0067 82.191 26.5695C80.8758 26.3743 79.5338 26.2755 78.2017 26.2755C68.3921 26.2755 58.794 31.7166 52.5253 40.8306L52.2647 41.2091L51.8838 40.9507C49.9347 39.6275 47.8592 38.4865 45.7162 37.5594C41.5353 35.7506 36.896 34.7945 32.2989 34.7945C24.2674 34.7945 16.8583 37.6276 11.4365 42.7725C2.614 51.1454 1.24514 62.86 0.982253 70.9429C0.474104 86.5886 3.26394 102.758 9.04979 117.704C14.8364 132.652 23.6688 146.507 34.5944 157.771C44.2079 167.683 53.7477 173.204 63.7597 174.648C65.4444 174.891 67.1704 175.014 68.8903 175.014C81.5672 175.014 94.0294 168.39 101.413 157.727C103.392 154.872 104.98 151.794 106.136 148.579L106.292 148.144L106.729 148.303C107.841 148.706 108.984 149.062 110.127 149.359C113.316 150.189 116.619 150.61 119.944 150.61C126.409 150.61 132.68 149.026 138.078 146.03L138.497 145.798L138.715 146.223C141.812 152.285 145.762 157.55 150.456 161.873C159.939 170.603 172.848 175.536 185.653 175.331C186.395 175.32 187.166 175.289 187.947 175.24L188.646 175.197L188.412 175.852C187.934 177.189 187.692 178.586 187.692 180.003V184.466C187.692 188.453 189.637 192.222 192.892 194.548C196.929 197.43 202.187 199.084 207.318 199.084C211.319 199.084 215.191 198.083 218.514 196.189L218.755 196.052L218.99 196.199C221.988 198.086 225.583 199.084 229.388 199.084C231.286 199.084 233.17 198.826 234.989 198.318L235.09 198.29L235.193 198.308C235.912 198.432 236.635 198.495 237.344 198.495H244.196C246.45 198.495 248.66 197.889 250.588 196.743L250.815 196.608L251.047 196.735C253.856 198.272 257.085 199.084 260.386 199.084C262.415 199.084 264.41 198.794 266.312 198.221L266.449 198.18L266.586 198.224C268.276 198.762 270.054 199.035 271.872 199.035C273.989 199.035 276.036 198.709 277.956 198.066L278.093 198.02L278.232 198.061C280.572 198.739 282.949 199.084 285.295 199.084C288.539 199.084 291.633 198.448 294.491 197.195L294.67 197.117L294.852 197.19C297.903 198.429 301.215 199.084 304.431 199.084C308.452 199.084 312.34 198.073 315.677 196.161L315.9 196.033L316.128 196.155C319.725 198.098 323.723 199.084 328.01 199.084C334.717 199.084 340.765 196.54 345.504 191.726C345.874 191.35 346.227 190.94 346.554 190.508L347.051 189.852L347.353 190.617C349.242 195.403 353.801 198.495 358.967 198.495H363.601C365.992 198.495 368.317 197.818 370.326 196.536L370.549 196.394L370.785 196.513C374.15 198.219 377.818 199.084 381.689 199.084C386.557 199.084 391.207 197.693 395.136 195.063L395.394 194.89Z" fill="black"/>
<path d="M458.105 92.0438C452.736 78.0995 437.193 67.8927 422.537 71.12C428.798 69.5331 434.305 64.9897 436.727 59.0304C439.149 53.0713 438.29 45.8301 434.284 40.7869C427.604 32.3791 414.558 31.9423 404.564 35.9443C389.752 41.8762 379.042 55.3715 372.962 70.059C369.464 78.5107 363.336 97.6887 362.943 114.177C359.352 107.085 353.127 101.237 345.672 98.3044C355.587 100.62 366.646 92.9146 367.846 82.8537C368.89 74.1028 362.263 65.3511 353.818 63.1815C362.957 63.4232 372.176 57.1725 374.72 48.3356C378.757 34.3074 367.328 22.6545 353.88 22.7358C338.038 22.8316 323.525 32.1304 312.967 43.2537C303.781 52.9315 296.527 64.6763 292.522 77.3234C288.972 73.4077 284.421 70.3159 279.485 68.4552C284.151 66.8258 288.39 64.0164 291.514 60.1917C298.837 51.2258 299.442 37.4405 292.931 27.8741C286.421 18.3077 273.33 13.7454 262.242 17.1785C253.064 20.0199 246.13 27.3826 240.171 34.9285C240.234 33.0236 240.057 31.1103 239.607 29.2258C235.616 12.479 216.742 11.7958 203.15 14.5836C186.465 18.0058 171.958 28.2635 162.189 42.0463C154.837 52.4175 150.108 64.3146 147.217 76.7201C147.166 75.6553 147.114 74.5904 147.044 73.5267C146.461 64.6937 145.176 55.7295 141.276 47.7725C137.377 39.8156 130.51 32.9225 121.879 30.7667C113.249 28.611 103.002 32.1769 99.0329 40.0995C96.0535 46.0462 96.9286 52.9054 98.6549 59.4909C97.479 55.7174 96.0723 52.0274 93.9729 48.6897C90.9006 43.8058 86.0811 39.6938 80.3527 38.8449C70.4514 37.3776 61.4468 46.3177 59.2065 56.0232C57.8325 61.9759 58.3205 68.0702 59.5227 74.1062C58.5335 70.7867 57.3558 67.5345 55.8193 64.4276C52.563 57.8427 47.5045 51.8673 40.7397 48.94C33.9749 46.0128 25.3867 46.6865 20.0491 51.7521C14.9069 56.6323 13.6819 64.2777 13.4523 71.3438C12.525 99.877 23.647 128.609 43.5727 149.154C49.6275 155.397 56.9198 161.12 65.5502 162.365C75.334 163.776 85.531 158.785 91.1394 150.686C96.4454 143.024 96.5846 134.852 96.0982 126.016C101.24 130.98 106.115 135.486 113.285 137.352C120.983 139.356 129.738 137.818 135.713 132.589C139.796 129.017 142.257 124.186 143.826 118.954C144.12 121.922 144.579 124.869 145.246 127.782C147.395 137.169 151.829 146.224 158.932 152.764C166.056 159.325 175.752 163.072 185.459 162.922C195.167 162.772 204.773 158.702 211.54 151.778C218.984 144.162 222.82 132.806 220.169 122.517C218.182 114.807 212.239 108.13 204.892 105.261C210.024 104.93 215.102 102.247 218.093 98.0191C222.638 91.5963 222.465 82.4877 218.431 75.7359C214.397 68.9841 206.964 64.5962 199.169 63.3445C208.669 63.9651 218.604 62.3673 226.596 57.3137C225.298 60.8314 224.417 64.4737 224.117 68.2458C223.152 80.3824 230.17 93.91 242.131 96.489L242.304 96.3928C235.206 101.93 230.226 110.207 229.054 119.124C227.425 131.51 233.215 144.582 243.503 151.745C253.791 158.909 268.119 159.846 279.261 154.083C288.234 149.443 294.531 141.165 298.351 131.728C303.663 140.376 311.095 147.62 320.235 152.13C328.021 155.972 337.131 157.785 345.507 155.475C356.086 152.557 364.113 142.824 365.89 132.077C368.651 137.954 373.576 141.903 381.643 142.363C387.912 142.721 394.204 139.713 398.106 134.82C401.156 130.997 402.745 126.124 402.803 121.237C403.186 125.806 403.767 130.359 405.189 134.707C407.035 140.35 410.474 145.7 415.645 148.659C421.795 152.178 429.691 151.804 436.121 148.821C442.551 145.839 447.65 140.534 451.587 134.663C459.918 122.242 463.473 105.988 458.105 92.0438Z" fill="white"/>
<path d="M211.459 173.382L207.81 171.862C205.592 170.93 204.704 170.047 204.704 168.527C204.704 166.516 206.775 165.388 209.24 165.388C211.606 165.388 213.776 166.369 215.156 168.184H215.403V163.77C213.726 162.838 211.41 162.25 209.141 162.25C204.261 162.25 200.612 165.339 200.612 169.459C200.612 172.156 202.092 174.265 205.198 175.638L208.649 177.109C210.867 178.09 211.853 178.777 211.853 180.346C211.853 182.553 209.585 183.534 207.268 183.534C204.754 183.534 202.289 182.406 200.415 180.003H200.169V184.466C202.091 185.839 204.754 186.673 207.318 186.673C212.149 186.673 215.994 183.779 215.994 179.415C215.994 176.521 214.466 174.608 211.459 173.382Z" fill="white"/>
<path d="M230.719 183.289C228.5 183.289 227.465 182.161 227.465 179.66V166.075H234.071V162.838H227.465V157.1H223.817C223.619 162.299 222.88 163.132 218.147 163.23V166.075H222.929V179.807C222.929 184.515 225.592 186.673 229.388 186.673C231.261 186.673 232.986 186.035 234.367 185.005L233.874 182.553C232.839 183.092 231.803 183.289 230.719 183.289Z" fill="white"/>
<path d="M243.21 168.576H242.964V162.691H242.815L237.195 163.279V163.574C238.132 164.849 238.428 166.173 238.428 168.968V180.395C238.428 183.191 238.28 184.515 237.343 185.888V186.084H244.196V185.888C243.111 184.515 242.964 183.191 242.964 180.395V175.933C242.964 169.655 246.365 166.712 249.915 166.712C250.605 166.712 251.197 166.761 251.838 166.958V162.446C251.295 162.348 250.753 162.25 250.013 162.25C246.711 162.25 244.492 164.26 243.21 168.576Z" fill="white"/>
<path d="M273.746 183.534C272.661 183.534 272.02 182.945 272.02 181.474V171.028C272.02 164.898 268.224 162.25 263.343 162.25C260.04 162.25 256.984 163.623 254.716 165.536L255.209 168.036C257.477 166.614 259.794 165.781 262.16 165.781C265.167 165.781 267.534 167.203 267.534 170.881V172.401L262.604 173.676C257.526 175.001 254.075 176.815 254.075 180.788C254.075 184.27 256.885 186.673 260.385 186.673C263.097 186.673 265.562 185.447 267.386 182.602H267.583V182.7C267.731 185.103 269.605 186.624 271.872 186.624C273.351 186.624 274.535 186.231 275.619 185.447L275.274 183.191C274.781 183.387 274.288 183.534 273.746 183.534ZM267.534 176.962C267.534 180.935 264.428 183.24 261.963 183.24C260.237 183.24 258.808 182.161 258.808 180.248C258.808 178.139 260.632 177.208 263.836 176.177L267.534 175.001V176.962Z" fill="white"/>
<path d="M289.436 173.382L285.788 171.862C283.569 170.93 282.682 170.047 282.682 168.527C282.682 166.516 284.752 165.388 287.218 165.388C289.584 165.388 291.753 166.369 293.134 168.184H293.38V163.77C291.704 162.838 289.387 162.25 287.119 162.25C282.238 162.25 278.59 165.339 278.59 169.459C278.59 172.156 280.069 174.265 283.175 175.638L286.626 177.109C288.844 178.09 289.83 178.777 289.83 180.346C289.83 182.553 287.563 183.534 285.246 183.534C282.731 183.534 280.266 182.406 278.393 180.003H278.146V184.466C280.069 185.839 282.731 186.673 285.295 186.673C290.126 186.673 293.972 183.779 293.972 179.415C293.972 176.521 292.443 174.608 289.436 173.382Z" fill="white"/>
<path d="M308.573 173.382L304.924 171.862C302.706 170.93 301.818 170.047 301.818 168.527C301.818 166.516 303.889 165.388 306.354 165.388C308.72 165.388 310.89 166.369 312.27 168.184H312.517V163.77C310.84 162.838 308.523 162.25 306.255 162.25C301.375 162.25 297.726 165.339 297.726 169.459C297.726 172.156 299.205 174.265 302.311 175.638L305.763 177.109C307.981 178.09 308.967 178.777 308.967 180.346C308.967 182.553 306.699 183.534 304.382 183.534C301.868 183.534 299.403 182.406 297.529 180.003H297.283V184.466C299.205 185.839 301.868 186.673 304.431 186.673C309.263 186.673 313.108 183.779 313.108 179.415C313.108 176.521 311.58 174.608 308.573 173.382Z" fill="white"/>
<path d="M329.193 182.848C324.214 182.848 320.812 179.709 320.615 173.824H336.292V171.96C336.292 165.634 332.349 162.25 326.975 162.25C320.714 162.25 316.079 167.399 316.079 174.314C316.079 181.867 321.256 186.673 328.01 186.673C331.461 186.673 334.271 185.398 336.588 183.043L336.046 180.641C333.877 182.112 331.806 182.848 329.193 182.848ZM326.679 165.241C329.637 165.241 331.609 167.35 331.708 170.93H320.812C321.404 167.35 323.425 165.241 326.679 165.241Z" fill="white"/>
<path d="M351.917 158.964V161.759H358.967V186.084H363.601V152.736H360.101C359.707 157.296 357.587 158.719 351.917 158.964Z" fill="white"/>
<path d="M383.068 165.094C379.075 165.094 376.019 167.203 374.539 170.047H374.293C374.343 161.367 378.73 155.923 386.421 155.923C388.788 155.923 390.809 156.413 392.534 157.345L392.929 154.403C390.809 153.079 388.344 152.392 385.682 152.392C379.766 152.392 374.934 155.678 372.173 160.19C368.92 165.585 368.525 173.431 370.743 178.973C372.617 183.632 376.413 186.673 381.688 186.673C387.949 186.673 393.027 182.112 393.027 175.393C393.027 168.919 388.492 165.094 383.068 165.094ZM381.392 183.338C377.35 183.338 374.835 179.954 374.835 175.785V175.589C374.835 171.519 377.941 168.674 381.54 168.674C385.386 168.674 387.999 171.519 387.999 175.982C387.999 180.395 385.435 183.338 381.392 183.338Z" fill="white"/>
<path d="M410.409 165.094C406.416 165.094 403.359 167.203 401.88 170.047H401.633C401.683 161.367 406.07 155.923 413.761 155.923C416.128 155.923 418.149 156.413 419.874 157.345L420.269 154.403C418.149 153.079 415.684 152.392 413.022 152.392C407.106 152.392 402.274 155.678 399.513 160.19C396.26 165.585 395.865 173.431 398.084 178.973C399.957 183.632 403.753 186.673 409.028 186.673C415.29 186.673 420.368 182.112 420.368 175.393C420.368 168.919 415.832 165.094 410.409 165.094ZM408.733 183.338C404.69 183.338 402.175 179.954 402.175 175.785V175.589C402.175 171.519 405.281 168.674 408.881 168.674C412.726 168.674 415.339 171.519 415.339 175.982C415.339 180.395 412.775 183.338 408.733 183.338Z" fill="white"/>
</svg>
