<svg width="187" height="200" viewBox="0 0 187 200" fill="none" xmlns="http://www.w3.org/2000/svg">
<path d="M119.381 94.7842C124.989 106.607 137.037 114.787 151.001 114.787C170.318 114.787 185.977 99.1393 185.977 79.8374C185.977 60.5356 170.318 44.8883 151.001 44.8883C131.684 44.8883 116.025 60.5356 116.025 79.8374C116.025 80.1133 116.039 80.3856 116.046 80.66L100.318 88.3926L98.5091 68.6993C112.815 64.3158 123.219 51.0149 123.219 35.2833C123.219 15.9814 107.559 0.334191 88.2425 0.334191C68.9259 0.334191 53.2666 15.9814 53.2666 35.2833C53.2666 53.1962 66.756 67.9524 84.1365 69.9847L86.0078 90.0173L71.0028 86.3395C69.7535 68.1718 54.6191 53.8186 36.1201 53.8186C16.8035 53.8186 1.14421 69.4658 1.14421 88.7677C1.14421 108.07 16.8035 123.717 36.1201 123.717C51.2933 123.717 64.2053 114.06 69.0484 100.564L83.0265 104.12L65.6554 129.801C65.2751 129.789 64.8957 129.773 64.5123 129.773C45.1956 129.773 29.5363 145.42 29.5363 164.722C29.5363 184.023 45.1956 199.671 64.5123 199.671C83.829 199.671 99.4883 184.023 99.4883 164.722C99.4883 151.05 91.6275 139.22 80.1802 133.477L95.9933 110.416L111.6 129.04C106.586 135.088 103.571 142.852 103.571 151.32C103.571 170.621 119.23 186.269 138.547 186.269C157.864 186.269 173.523 170.621 173.523 151.32C173.523 132.018 157.864 116.37 138.547 116.37C132.903 116.37 127.575 117.714 122.855 120.087L107.002 101.185L119.381 94.7842Z" fill="#FFFE49"/>
<path d="M64.5126 200.002C45.0432 200.002 29.2045 184.176 29.2045 164.722C29.2045 145.268 45.0432 129.441 64.5126 129.441C64.8228 129.441 65.1314 129.451 65.4395 129.462L65.483 129.464L82.4868 104.325L69.258 100.96C64.1632 114.783 50.8848 124.049 36.12 124.049C16.6513 124.049 0.8125 108.222 0.8125 88.7677C0.8125 69.3136 16.6513 53.4867 36.12 53.4867C54.5192 53.4867 69.9319 67.7813 71.3163 86.0749L85.634 89.5843L83.8309 70.2822C66.1978 68.0859 52.9348 53.0872 52.9348 35.2834C52.9348 15.8293 68.7736 0.00244141 88.2423 0.00244141C107.712 0.00244141 123.55 15.8293 123.55 35.2834C123.55 50.7981 113.641 64.2879 98.864 68.9364L100.604 87.8822L115.707 80.4565L115.705 80.3838C115.699 80.2021 115.693 80.0204 115.693 79.8373C115.693 60.3835 131.532 44.5566 151.001 44.5566C170.47 44.5566 186.309 60.3835 186.309 79.8373C186.309 99.2914 170.47 115.118 151.001 115.118C137.543 115.118 125.11 107.326 119.23 95.236L107.523 101.289L122.941 119.674C127.828 117.261 133.077 116.039 138.547 116.039C158.016 116.039 173.855 131.866 173.855 151.319C173.855 170.774 158.016 186.6 138.547 186.6C119.078 186.6 103.239 170.774 103.239 151.319C103.239 143.213 106.053 135.313 111.169 129.042L96.0198 110.964L80.6677 133.353C92.4923 139.44 99.8201 151.424 99.8201 164.722C99.8201 184.176 83.9813 200.002 64.5126 200.002ZM64.5126 130.104C45.4097 130.104 29.868 145.634 29.868 164.722C29.868 183.81 45.4097 199.339 64.5126 199.339C83.6154 199.339 99.1566 183.81 99.1566 164.722C99.1566 151.55 91.8277 139.692 80.0312 133.773L79.6911 133.603L95.9669 109.868L112.032 129.039L111.856 129.252C106.727 135.438 103.903 143.275 103.903 151.319C103.903 170.408 119.444 185.937 138.547 185.937C157.65 185.937 173.191 170.408 173.191 151.319C173.191 132.232 157.65 116.702 138.547 116.702C133.094 116.702 127.864 117.941 123.004 120.383L122.77 120.502L106.482 101.081L119.534 94.3316L119.681 94.6421C125.389 106.678 137.683 114.455 151.001 114.455C170.103 114.455 185.645 98.9255 185.645 79.8373C185.645 60.7494 170.103 45.2201 151.001 45.2201C131.898 45.2201 116.357 60.7494 116.357 79.8373C116.357 80.013 116.363 80.187 116.369 80.3613L116.383 80.864L100.031 88.9031L98.1536 68.4611L98.4115 68.3821C113.051 63.8967 122.887 50.5952 122.887 35.2834C122.887 16.1952 107.345 0.66599 88.2423 0.66599C69.1395 0.66599 53.5983 16.1952 53.5983 35.2834C53.5983 52.8402 66.7439 67.617 84.1753 69.6553L84.442 69.6866L84.4674 69.954L86.3813 90.4505L70.688 86.6038L70.6715 86.3624C69.4294 68.2995 54.2524 54.1502 36.12 54.1502C17.0172 54.1502 1.47601 69.6795 1.47601 88.7677C1.47601 107.856 17.0172 123.385 36.12 123.385C50.7062 123.385 63.8132 114.169 68.7361 100.452L68.838 100.168L83.5658 103.915L65.828 130.139L65.4163 130.125C65.116 130.115 64.8151 130.104 64.5126 130.104Z" fill="black"/>
<path d="M71.3463 42.7661V15.3152H79.1688V42.6411C79.1688 49.019 82.1726 52.7083 88.2428 52.7083C94.3125 52.7083 97.3162 49.019 97.3162 42.6411V15.3152H105.139V42.7661C105.139 52.771 98.9437 59.7117 88.2428 59.7117C77.5418 59.7117 71.3463 52.771 71.3463 42.7661Z" fill="black"/>
<path d="M133.502 57.9518H142.076L160.161 88.4042L160.536 90.1549H160.724V57.9518H168.546V101.723H159.973L141.888 71.2709L141.512 69.52H141.325V101.723H133.502V57.9518Z" fill="black"/>
<path d="M134.636 129.434H142.458V173.205H134.636V129.434Z" fill="black"/>
<path d="M60.6008 152.355H49.5249V145.477H79.4998V152.355H68.4233V189.248H60.6008V152.355Z" fill="black"/>
<path d="M32.178 95.7317L18.9738 67.7181H27.3593L35.1818 84.664L35.9951 89.4162H36.2453L37.059 84.664L44.8815 67.7181H53.2666L40.0001 95.7317V111.489H32.178V95.7317Z" fill="black"/>
</svg>
