<svg width="111" height="200" viewBox="0 0 111 200" fill="none" xmlns="http://www.w3.org/2000/svg">
<path d="M103.244 161.08V130.511H82.5989V68.9479H91.0146V38.9245H99.7046V0.34437H61.0302V7.80977H47.8906V0.34437H9.21619V38.9245H20.1376V68.9479H28.5534V130.511H7.90839V161.08H0.800502V199.66H39.4748V191.649H71.6774V199.66H110.352V161.08H103.244Z" fill="#32FE95"/>
<path d="M110.694 200.002H71.3348V191.991H39.8175V200.002H0.458008V160.738H7.56565V130.169H28.2109V69.2899H19.7952V39.2666H8.87373V0.00244141H48.2332V7.46767H60.6875V0.00244141H100.047V39.2666H91.357V69.2899H82.9413V130.169H103.587V160.738H110.694V200.002ZM72.0198 199.318H110.009V161.422H102.902V130.853H82.2562V68.6059H90.672V38.5827H99.3619V0.686387H61.3726V8.15162H47.5482V0.686387H9.55878V38.5827H20.4803V68.6059H28.896V130.853H8.2507V161.422H1.14305V199.318H39.1324V191.308H72.0198V199.318Z" fill="black"/>
<path d="M33.5026 23.9422C31.0899 26.0485 28.2996 26.6502 23.2471 26.6502V19.0523H24.3028C29.8079 19.0523 32.8995 17.0965 33.5026 12.2821H42.4762V64.9399H33.5026V23.9422Z" fill="black"/>
<path d="M50.1449 57.3419L71.5611 38.1597C75.1053 35.0002 77.5187 31.9912 77.5187 27.4025C77.5187 22.5881 74.0495 19.5037 69.0727 19.5037C63.2664 19.5037 59.496 23.1898 59.1941 29.1326L50.6731 28.4557L50.4468 27.9291C51.2006 18.7514 58.3646 11.5298 68.9971 11.5298C79.027 11.5298 86.3416 17.548 86.3416 26.9511C86.3416 33.8719 82.948 38.6112 77.5937 43.275L62.3613 56.6647H87.246V64.9399H50.1449V57.3419Z" fill="black"/>
<path d="M34.0195 100.159C34.0195 84.2857 42.4648 73.0775 56.1895 73.0775C69.8386 73.0775 78.3595 84.2857 78.3595 100.159C78.3595 116.031 69.8386 127.24 56.1895 127.24C42.4648 127.24 34.0195 116.031 34.0195 100.159ZM69.2354 100.159C69.2354 88.6494 64.7861 81.352 56.1895 81.352C47.5929 81.352 43.1436 88.6494 43.1436 100.159C43.1436 111.668 47.5929 118.965 56.1895 118.965C64.7861 118.965 69.2354 111.668 69.2354 100.159Z" fill="black"/>
<path d="M38.0343 177.729H13.4508V169.455L38.4868 135.378H47.0078V169.455H53.3423V177.729H47.0078V188.035H38.0343V177.729ZM38.0343 169.455V149.144L23.1788 169.455H38.0343Z" fill="black"/>
<path d="M58.3566 172.163L58.6585 171.561L67.2551 170.734C67.8583 175.924 71.3275 180.813 78.0389 180.813C84.9009 180.813 89.0482 176.601 89.0482 169.455C89.0482 162.083 84.2977 158.246 78.1895 158.246C72.3832 158.246 68.3865 160.653 66.1237 162.384L59.7142 159.224L63.1078 135.378H94.1763V143.051H69.9698L68.0089 154.109C70.7993 152.303 75.0979 150.799 79.7728 150.799C91.0091 150.799 98.173 157.794 98.173 169.154C98.173 179.761 90.7072 188.787 78.0389 188.787C67.3307 188.787 59.3373 182.017 58.3566 172.163Z" fill="black"/>
</svg>
