<svg width="325" height="200" viewBox="0 0 325 200" fill="none" xmlns="http://www.w3.org/2000/svg">
<path d="M108.788 89.4828H216.205L162.497 0.00244141L108.788 89.4828Z" fill="#FFD9F0"/>
<path d="M194.292 72.6657H130.701V200.002H194.292V72.6657Z" fill="#FFD9F0"/>
<path d="M250.598 177.068C250.598 156.787 258.659 137.336 272.979 122.991L283.927 112.038L299.419 127.538L324.686 26.2745L223.473 51.5542L238.965 67.054L227.964 78.0609C201.741 104.315 187.006 139.916 187.006 177.032V200.002H250.598V177.068Z" fill="#FFD9F0"/>
<path d="M97.0295 78.0609L86.0281 67.054L101.52 51.5542L0.307617 26.2745L25.5747 127.538L41.0668 112.038L52.0141 122.991C66.3519 137.336 74.3955 156.787 74.3955 177.068V200.002H137.987V177.032C137.987 139.916 123.252 104.315 97.0295 78.0609Z" fill="#FFD9F0"/>
<path d="M81.5194 162.669H91.0058V164.961H84.1345V169.021H90.4648V171.294H84.1345V177.285H81.5194V162.651V162.669Z" fill="#5A60FE"/>
<path d="M92.7732 162.669H97.8411C101.214 162.669 103.36 164.51 103.36 167.433C103.36 169.382 102.404 170.645 100.835 171.565V171.673L104.117 177.303H101.196L98.2559 172.142H95.3883V177.303H92.7732V162.669ZM98.0395 169.851C99.6987 169.851 100.763 168.967 100.763 167.415C100.763 165.863 99.7348 164.997 98.0395 164.997H95.3883V169.869H98.0395V169.851Z" fill="#5A60FE"/>
<path d="M104.712 169.995C104.712 165.502 107.923 162.471 112.089 162.471C116.255 162.471 119.483 165.502 119.483 169.995C119.483 174.488 116.273 177.52 112.089 177.52C107.905 177.52 104.712 174.488 104.712 169.995ZM116.832 169.995C116.832 166.946 114.992 164.817 112.089 164.817C109.185 164.817 107.346 166.946 107.346 169.995C107.346 173.045 109.203 175.174 112.089 175.174C114.974 175.174 116.832 173.045 116.832 169.995Z" fill="#5A60FE"/>
<path d="M123.992 162.669L128.501 174.073L133.027 162.669H135.643V177.303H133.136V168.137H133.045L132.937 169.057L129.691 177.303H127.292L124.046 169.057L123.938 168.137H123.848V177.303H121.341V162.669H123.992Z" fill="#5A60FE"/>
<path d="M141.81 162.669H144.678L150.72 172.846L150.846 173.424H150.9V162.669H153.515V177.303H150.648L144.606 167.126L144.48 166.549H144.426V177.303H141.81V162.669Z" fill="#5A60FE"/>
<path d="M155.824 162.669H165.058V164.961H158.439V168.822H164.499V171.114H158.439V174.975H165.292V177.267H155.824V162.633V162.669Z" fill="#5A60FE"/>
<path d="M167.312 171.854V162.687H169.927V171.818C169.927 173.947 170.937 175.174 172.957 175.174C174.977 175.174 175.987 173.947 175.987 171.818V162.687H178.602V171.854C178.602 175.192 176.528 177.52 172.957 177.52C169.386 177.52 167.312 175.192 167.312 171.854Z" fill="#5A60FE"/>
<path d="M180.91 162.669H183.526V168.732H183.58L188.774 162.669H191.804L185.87 169.526L192.056 177.303H188.774L183.58 170.663H183.526V177.303H180.91V162.669Z" fill="#5A60FE"/>
<path d="M191.533 169.995C191.533 165.502 194.743 162.471 198.909 162.471C203.076 162.471 206.304 165.502 206.304 169.995C206.304 174.488 203.094 177.52 198.909 177.52C194.725 177.52 191.533 174.488 191.533 169.995ZM203.653 169.995C203.653 166.946 201.813 164.817 198.909 164.817C196.006 164.817 194.166 166.946 194.166 169.995C194.166 173.045 196.024 175.174 198.909 175.174C201.795 175.174 203.653 173.045 203.653 169.995ZM195.591 159.836C195.591 159.097 196.222 158.483 196.962 158.483C197.701 158.483 198.332 159.115 198.332 159.836C198.332 160.558 197.683 161.19 196.962 161.19C196.24 161.19 195.591 160.558 195.591 159.836ZM199.523 159.836C199.523 159.097 200.154 158.483 200.893 158.483C201.633 158.483 202.264 159.115 202.264 159.836C202.264 160.558 201.615 161.19 200.893 161.19C200.172 161.19 199.523 160.558 199.523 159.836Z" fill="#5A60FE"/>
<path d="M208.197 162.669H210.813V174.993H217.972V177.285H208.197V162.651V162.669Z" fill="#5A60FE"/>
<path d="M219.992 162.669H222.607V174.993H229.767V177.285H219.992V162.651V162.669Z" fill="#5A60FE"/>
<path d="M231.787 162.669H234.655L240.697 172.846L240.823 173.424H240.877V162.669H243.492V177.303H240.624L234.583 167.126L234.456 166.549H234.402V177.303H231.787V162.669Z" fill="#5A60FE"/>
<path d="M94.4505 181.381H90.7533V179.089H100.763V181.381H97.0656V193.705H94.4505V181.381Z" fill="#5A60FE"/>
<path d="M100.691 186.397C100.691 181.904 103.901 178.873 108.067 178.873C112.233 178.873 115.461 181.904 115.461 186.397C115.461 190.89 112.251 193.922 108.067 193.922C103.883 193.922 100.691 190.89 100.691 186.397ZM112.81 186.397C112.81 183.348 110.971 181.219 108.067 181.219C105.163 181.219 103.324 183.348 103.324 186.397C103.324 189.447 105.181 191.576 108.067 191.576C110.953 191.576 112.81 189.447 112.81 186.397Z" fill="#5A60FE"/>
<path d="M124.208 181.381H120.511V179.089H130.521V181.381H126.823V193.705H124.208V181.381Z" fill="#5A60FE"/>
<path d="M132.108 179.089H134.723V185.26H140.891V179.089H143.506V193.723H140.891V187.552H134.723V193.723H132.108V179.089Z" fill="#5A60FE"/>
<path d="M145.814 179.089H155.048V181.381H148.429V185.242H154.489V187.534H148.429V191.395H155.283V193.687H145.814V179.053V179.089Z" fill="#5A60FE"/>
<path d="M162.821 179.089L165.364 188.779L165.707 190.656H165.779L166.068 188.779L168.773 179.089H171.37L174.057 188.779L174.364 190.656H174.418L174.724 188.779L177.285 179.089H180.063L175.825 193.723H173.047L170.035 182.626L167.023 193.723H164.246L160.008 179.089H162.821Z" fill="#5A60FE"/>
<path d="M180.153 186.397C180.153 181.904 183.363 178.873 187.529 178.873C191.695 178.873 194.924 181.904 194.924 186.397C194.924 190.89 191.713 193.922 187.529 193.922C183.345 193.922 180.153 190.89 180.153 186.397ZM192.254 186.397C192.254 183.348 190.415 181.219 187.511 181.219C184.608 181.219 182.768 183.348 182.768 186.397C182.768 189.447 184.626 191.576 187.511 191.576C190.397 191.576 192.254 189.447 192.254 186.397Z" fill="#5A60FE"/>
<path d="M196.799 179.089H201.867C205.24 179.089 207.386 180.93 207.386 183.853C207.386 185.802 206.43 187.065 204.861 187.985V188.093L208.143 193.723H205.222L202.282 188.563H199.414V193.723H196.799V179.089ZM202.066 186.253C203.725 186.253 204.789 185.369 204.789 183.817C204.789 182.265 203.761 181.399 202.066 181.399H199.414V186.271H202.066V186.253Z" fill="#5A60FE"/>
<path d="M209.694 179.089H212.309V191.413H219.469V193.705H209.694V179.071V179.089Z" fill="#5A60FE"/>
<path d="M221.489 179.089H226.214C230.994 179.089 233.951 181.904 233.951 186.397C233.951 190.89 231.012 193.705 226.214 193.705H221.489V179.071V179.089ZM226.142 191.413C229.335 191.413 231.336 189.808 231.336 186.397C231.336 182.987 229.335 181.381 226.142 181.381H224.122V191.413H226.142Z" fill="#5A60FE"/>
</svg>
