<svg width="206" height="200" viewBox="0 0 206 200" fill="none" xmlns="http://www.w3.org/2000/svg">
<path d="M203.097 161.713L132.636 99.1042C130.248 96.9832 130.038 93.335 132.166 90.9558L189.054 27.3514C191.182 24.9722 190.972 21.324 188.585 19.203L168.965 1.77002C166.578 -0.350987 162.918 -0.14165 160.79 2.23758L103.902 65.842C101.774 68.2212 98.1143 68.4305 95.7273 66.3095L27.8372 5.98592C25.4502 3.86491 21.79 4.07425 19.6621 6.45349L2.17182 26.0089C0.0438447 28.3881 0.253866 32.0363 2.64092 34.1573L70.5309 94.4809C72.918 96.6019 73.128 100.25 71 102.629L8.37572 172.648C6.24775 175.027 6.45777 178.676 8.84482 180.797L28.4645 198.23C30.8516 200.351 34.5117 200.141 36.6397 197.762L99.264 127.743C101.392 125.364 105.052 125.155 107.439 127.276L177.901 189.884C180.288 192.005 183.948 191.796 186.076 189.416L203.566 169.861C205.694 167.482 205.484 163.834 203.097 161.713Z" fill="#F94646"/>
<path d="M32.3101 200C30.8129 200 29.3862 199.46 28.2596 198.459L8.64007 181.025C7.42401 179.945 6.70327 178.458 6.60972 176.837C6.51669 175.216 7.06211 173.656 8.14578 172.444L70.7701 102.425C71.7449 101.336 72.2351 99.933 72.1513 98.4759C72.0675 97.0187 71.4193 95.6813 70.3259 94.71L2.43606 34.3864C1.22 33.306 0.499257 31.8185 0.405714 30.1976C0.312682 28.5766 0.858095 27.0166 1.94177 25.8045L19.4318 6.24919C20.516 5.03736 22.0086 4.31872 23.6346 4.22574C25.2616 4.1297 26.8263 4.67639 28.0424 5.75702L95.9322 66.0806C98.1885 68.0849 101.661 67.8872 103.672 65.6376L160.56 2.0334C161.644 0.821571 163.137 0.102933 164.763 0.00969593C166.386 -0.0804841 167.954 0.460596 169.17 1.54097L188.789 18.974C190.006 20.0544 190.726 21.5418 190.82 23.1628C190.913 24.7837 190.367 26.3438 189.284 27.5556L132.396 91.1601C130.384 93.4092 130.584 96.8702 132.84 98.8753L203.302 161.484C204.518 162.564 205.239 164.052 205.332 165.672C205.425 167.293 204.88 168.853 203.796 170.065L186.306 189.621C184.067 192.122 180.206 192.343 177.696 190.113L107.234 127.505C104.978 125.5 101.505 125.698 99.494 127.948L36.8697 197.966C35.7855 199.178 34.2929 199.897 32.6669 199.99C32.5478 199.997 32.4282 200 32.3101 200ZM23.9909 4.82949C23.8845 4.82949 23.7772 4.83254 23.6699 4.83866C22.2079 4.92222 20.8661 5.56825 19.8918 6.6578L2.40181 26.2131C1.42702 27.3027 0.936815 28.705 1.02065 30.1624C1.10448 31.6196 1.75263 32.957 2.84602 33.9283L70.7359 94.2519C71.952 95.3323 72.6727 96.8198 72.7662 98.4407C72.8593 100.062 72.3139 101.622 71.2302 102.834L8.60582 172.852C7.63103 173.942 7.14083 175.344 7.22466 176.802C7.30849 178.259 7.95664 179.596 9.05003 180.567L28.6696 198C29.7624 198.972 31.1692 199.461 32.6316 199.377C34.0935 199.293 35.4353 198.647 36.4096 197.558L99.034 127.539C101.272 125.038 105.133 124.816 107.644 127.047L178.106 189.655C180.362 191.66 183.835 191.461 185.846 189.212L203.336 169.657C204.311 168.567 204.801 167.165 204.717 165.708C204.634 164.25 203.985 162.913 202.892 161.942L132.43 99.3333C129.921 97.1033 129.699 93.2533 131.936 90.7515L188.824 27.147C189.799 26.0577 190.289 24.6551 190.205 23.1979C190.121 21.7408 189.473 20.4034 188.38 19.432L168.76 1.99901C167.667 1.02792 166.259 0.538294 164.798 0.622615C163.336 0.706171 161.994 1.35246 161.02 2.44201L104.132 66.0462C101.893 68.5473 98.0331 68.7687 95.5223 66.5386L27.6324 6.21505C26.6198 5.31529 25.3373 4.82949 23.9909 4.82949Z" fill="black"/>
<path d="M7.7812 29.1621C9.26136 28.8462 10.4366 27.8738 12.1675 25.9813L24.0479 12.9955L24.3275 11.4926L24.3751 11.4404L28.1455 14.8676L24.1128 37.55L24.2427 37.6681L33.7516 27.2738C35.4831 25.3812 36.3468 24.1247 36.4767 22.629L36.5718 22.5253L40.2123 25.8344L40.1173 25.9381C38.6612 26.2283 37.4595 27.1773 35.7279 29.0698L22.8991 43.0927L20.1944 40.6349L24.3552 16.9292L24.2247 16.8111L14.1697 27.8013C12.4388 29.6939 11.6016 30.9737 11.4217 32.4712L11.3267 32.5749L7.68617 29.2658L7.7812 29.1621Z" fill="#00CB0D"/>
<path d="M24.3751 11.4404L28.1455 14.8676L24.1128 37.55L24.2427 37.6681L33.7516 27.2738C35.4831 25.3812 36.3468 24.1247 36.4767 22.629L36.5718 22.5253L40.2123 25.8344L40.1173 25.9381C38.6612 26.2283 37.4595 27.1773 35.7279 29.0698L22.8991 43.0927L20.1944 40.6349L24.3552 16.9292L24.2247 16.8111L14.1697 27.8013C12.4388 29.6939 11.6016 30.9737 11.4217 32.4712L11.3267 32.5749L7.68617 29.2658L7.7812 29.1621C9.26136 28.8462 10.4366 27.8738 12.1675 25.9813L24.0479 12.9955L24.3275 11.4926L24.3751 11.4404ZM24.3341 10.5724L23.7539 11.209L23.4743 12.7113L11.7125 25.5676C9.90469 27.5442 8.88013 28.2997 7.65225 28.5619L7.45941 28.603L6.81579 29.3054L11.3664 33.4418L12.0098 32.7398L12.0333 32.5441C12.1859 31.2729 12.8641 30.14 14.6249 28.2149L23.4403 18.5795L19.5295 40.8613L22.9392 43.96L36.183 29.4834C37.9471 27.5554 39.0082 26.7851 40.2381 26.5401L40.4359 26.5007L41.0828 25.7948L36.532 21.6584L35.8811 22.3687L35.8631 22.5761C35.7571 23.7977 35.1093 24.8788 33.2965 26.8601L25.0329 35.8933L28.8111 14.6419L24.3341 10.5724Z" fill="#F94646"/>
<path d="M27.0461 35.5627C30.4839 31.8046 35.5794 31.5456 39.1423 34.7834C42.6788 37.9978 42.8863 43.0286 39.4244 46.8131C35.9619 50.5976 30.8695 50.9063 27.333 47.6919C23.77 44.4541 23.5836 39.3472 27.0461 35.5627ZM36.8238 44.4499C39.5032 41.5209 39.6854 38.4582 37.5533 36.5201C35.3424 34.5112 32.2786 35.0496 29.6467 37.9265C26.9907 40.8297 26.6846 43.9224 28.9214 45.9552C31.0535 47.8933 34.1203 47.4048 36.8238 44.4499Z" fill="#00CB0D"/>
<path d="M33.5258 32.5351C35.5157 32.535 37.4929 33.2845 39.1423 34.7834C42.6788 37.9978 42.8863 43.0286 39.4244 46.8131C37.5465 48.8656 35.1885 49.8959 32.86 49.8959C30.8951 49.8959 28.9514 49.163 27.333 47.6919C23.77 44.4541 23.5836 39.3472 27.0461 35.5627C28.8923 33.5444 31.2175 32.5354 33.5258 32.5351ZM31.8298 47.1137C33.4374 47.1137 35.1963 46.2288 36.8238 44.4499C39.5032 41.5209 39.6854 38.4582 37.5533 36.5201C36.667 35.7148 35.6434 35.3187 34.5657 35.3187C32.9552 35.3187 31.2235 36.2028 29.6467 37.9265C26.9907 40.8297 26.6846 43.9224 28.9214 45.9552C29.77 46.7266 30.7669 47.1137 31.8298 47.1137ZM33.5265 31.9213H33.5258C30.9577 31.9215 28.4949 33.0679 26.591 35.1492C24.8157 37.0895 23.8739 39.4689 23.9393 41.8492C24.0045 44.2231 25.0624 46.4592 26.9181 48.1455C28.6198 49.6923 30.6745 50.5098 32.86 50.5098C35.4495 50.5098 37.9425 49.3438 39.8795 47.2267C43.5273 43.239 43.3918 37.8151 39.5573 34.3298C37.8234 32.7542 35.738 31.9213 33.5265 31.9213ZM31.8298 46.4998C30.9039 46.4998 30.065 46.164 29.3364 45.5016C28.3764 44.6293 27.9479 43.5601 28.0626 42.3238C28.181 41.0465 28.8862 39.6689 30.1018 38.34C31.5221 36.7876 33.1074 35.9326 34.5657 35.9326C35.5125 35.9326 36.3781 36.2829 37.1384 36.9737C39.055 38.7159 38.7601 41.4221 36.3686 44.0363C34.9152 45.6249 33.3033 46.4998 31.8298 46.4998Z" fill="#F94646"/>
<path d="M49.5239 41.6558C51.3499 39.6601 52.0409 38.4366 52.2725 36.9859L52.3675 36.8822L58.9732 42.8853C64.8505 48.2272 65.3792 55.3544 60.4702 60.7197C55.5383 66.1114 48.3697 66.2421 42.4924 60.9002L35.8867 54.897L35.9817 54.7933C37.5659 54.5715 38.7352 53.4499 40.4896 51.5316L49.5239 41.6558ZM40.8565 56.2327L43.5094 58.6437C48.0082 62.7328 53.2041 63.0403 57.662 58.1672C62.1199 53.294 61.311 48.1913 56.8122 44.1023L54.1592 41.6912L40.8565 56.2327Z" fill="#00CB0D"/>
<path d="M52.3675 36.8822L58.9732 42.8853C64.8505 48.2272 65.3792 55.3544 60.4702 60.7197C57.9687 63.4544 54.8911 64.8359 51.6991 64.8359C48.5978 64.8359 45.3887 63.5326 42.4924 60.9002L35.8867 54.897L35.9817 54.7933C37.5659 54.5715 38.7352 53.4499 40.4896 51.5316L49.5239 41.6558C51.3499 39.6601 52.0409 38.4366 52.2725 36.9859L52.3675 36.8822ZM50.5326 61.7666C52.9743 61.7666 55.4118 60.6269 57.662 58.1672C62.1199 53.294 61.311 48.1913 56.8122 44.1023L54.1592 41.6912L40.8565 56.2327L43.5094 58.6437C45.7374 60.6688 48.137 61.7666 50.5326 61.7666ZM52.3278 36.0154L51.6933 36.7078L51.6643 36.8895C51.4478 38.2453 50.7686 39.3843 49.0688 41.2422L40.0344 51.118C38.2299 53.0911 37.2042 54.0023 35.896 54.1854L35.6765 54.2162L35.0163 54.9367L42.0774 61.3538C45.0256 64.0334 48.3527 65.4498 51.6991 65.4498C55.1519 65.4498 58.3423 63.9572 60.9253 61.1333C63.4593 58.3637 64.6541 55.117 64.3804 51.7443C64.1067 48.3716 62.3804 45.1514 59.3882 42.4318L52.3278 36.0154ZM41.7265 56.1926L54.1993 42.5584L56.3973 44.5559C60.9333 48.6788 61.2208 53.3658 57.2069 57.7536C55.1436 60.0091 52.898 61.1527 50.5326 61.1527C48.3418 61.1527 46.0568 60.1283 43.9245 58.1902L41.7265 56.1926Z" fill="#F94646"/>
<path d="M58.8354 59.1863C60.1869 57.7086 60.6716 56.8675 60.7943 55.7435L60.9363 55.5882L64.1859 57.9717L64.2635 58.0425L61.4174 61.1531L61.548 61.2718C64.311 59.6053 66.4539 59.6059 68.1963 61.1891C68.5861 61.544 68.8248 61.8557 69.063 62.1675L66.8816 64.5522C66.638 64.1415 66.3499 63.8322 65.986 63.5013C64.1137 61.7994 60.896 61.7232 57.8611 65.0407L55.7031 67.3997C54.3511 68.8774 53.7893 69.6483 53.6973 70.894L53.6023 70.9977L49.9876 67.7126L50.0826 67.6089C51.241 67.3319 51.9585 66.7031 53.3106 65.2254L58.8354 59.1863Z" fill="#00CB0D"/>
<path d="M60.9363 55.5882L64.1859 57.9717L64.2635 58.0425L61.4174 61.1531L61.548 61.2718C62.9468 60.4281 64.187 60.0117 65.2965 60.0117C66.3784 60.0117 67.3361 60.4075 68.1963 61.1891C68.5861 61.544 68.8248 61.8557 69.063 62.1675L66.8816 64.5522C66.638 64.1415 66.3499 63.8322 65.986 63.5013C65.1901 62.7778 64.1507 62.3481 62.9859 62.3481C61.4106 62.3479 59.6058 63.1335 57.8611 65.0407L55.7031 67.3997C54.3511 68.8774 53.7893 69.6483 53.6973 70.894L53.6023 70.9977L49.9876 67.7126L50.0826 67.6089C51.241 67.3319 51.9585 66.7031 53.3106 65.2254L58.8354 59.1863C60.1869 57.7086 60.6716 56.8675 60.7943 55.7435L60.9363 55.5882ZM60.8546 54.7662L60.2038 55.4779L60.1821 55.677C60.0764 56.6446 59.6386 57.3969 58.3803 58.7728L52.8555 64.8118C51.5565 66.2315 50.9206 66.7773 49.939 67.0119L49.7552 67.0559L49.1173 67.7524L53.6422 71.8647L54.2959 71.1509L54.3115 70.9391C54.3876 69.9085 54.8394 69.2547 56.1582 67.8133L58.3162 65.4543C60.2008 63.3942 61.8958 62.9618 62.9859 62.9619C63.9625 62.9619 64.8564 63.3053 65.571 63.9549C65.8848 64.2402 66.1376 64.5042 66.3514 64.8646L66.7754 65.5794L69.8641 62.2028L69.5529 61.7955C69.3145 61.4835 69.0443 61.1299 68.6117 60.7359C67.6343 59.8479 66.5191 59.3978 65.2965 59.3978C64.7603 59.3978 64.2054 59.4813 63.6257 59.6505L65.1328 58.0033L64.5774 57.4967L60.8546 54.7662Z" fill="#F94646"/>
<path d="M69.7974 55.9515C70.6274 55.0439 72.0672 54.9282 73.0554 55.8262C73.9395 56.6301 73.9822 58.0928 73.1522 59.0004C72.2747 59.959 70.8583 60.0489 69.9483 59.2216C68.9602 58.3236 68.9199 56.9101 69.7974 55.9515ZM60.6163 71.8178C59.2649 73.2955 58.6785 74.0916 58.5089 75.2666L58.4138 75.3703L54.9032 72.1799L54.9982 72.0762C56.156 71.7992 56.8723 71.1212 58.2238 69.6435L63.8443 63.5001C65.0766 62.1525 65.5608 61.3108 65.6835 60.1874L65.826 60.0321L69.075 62.4156L69.1532 62.4864L60.6163 71.8178Z" fill="#00CB0D"/>
<path d="M71.4844 55.2087C72.0345 55.2087 72.5941 55.407 73.0554 55.8262C73.9395 56.6301 73.9822 58.0928 73.1522 59.0004C72.6753 59.5214 72.0391 59.7858 71.4117 59.7858C70.8846 59.7858 70.3638 59.5994 69.9483 59.2216C68.9602 58.3236 68.9199 56.9101 69.7974 55.9515C70.2399 55.4675 70.856 55.2088 71.4844 55.2087ZM65.826 60.0321L69.075 62.4156L69.1532 62.4864L60.6163 71.8178C59.2649 73.2955 58.6785 74.0916 58.5089 75.2666L58.4138 75.3703L54.9032 72.1799L54.9982 72.0762C56.156 71.7992 56.8723 71.1212 58.2238 69.6435L63.8443 63.5001C65.0766 62.1525 65.5608 61.3108 65.6835 60.1874L65.826 60.0321ZM71.4846 54.5949C70.6712 54.5949 69.8902 54.9387 69.3422 55.538C68.8052 56.1245 68.5266 56.8691 68.5579 57.6342C68.5894 58.4074 68.9359 59.1323 69.5334 59.6753C70.0472 60.1423 70.7143 60.3996 71.4117 60.3996C72.2336 60.3996 73.0338 60.0405 73.6072 59.4142C74.6675 58.2548 74.6048 56.4041 73.4704 55.3727C72.9185 54.8711 72.2132 54.5949 71.4846 54.5949ZM65.7454 59.2108L65.093 59.9211L65.0712 60.1209C64.9655 61.0891 64.5567 61.8097 63.389 63.0866L57.7687 69.2299C56.383 70.7451 55.8002 71.2531 54.8545 71.4793L54.6709 71.5232L54.0327 72.2196L58.4537 76.2373L59.0914 75.541L59.1185 75.354C59.2621 74.3588 59.755 73.6707 61.0714 72.2314L70.024 62.4456L69.4657 61.94L65.7454 59.2108Z" fill="#F94646"/>
<path d="M66.9656 65.8586C68.3176 64.3809 68.8018 63.5399 68.9245 62.4164L69.067 62.2612L72.3419 64.6681L72.4201 64.7388L70.6885 66.6314L70.7926 66.7261C72.9596 66.1794 74.8962 66.5618 76.3782 67.9094C78.6925 70.013 79.0143 73.2016 76.1689 76.3117L71.711 81.1848C70.3595 82.6625 69.7966 83.4329 69.6035 84.6336L69.5085 84.7373L65.9978 81.5463L66.0929 81.4426C67.2483 81.1165 67.967 80.4876 69.3184 79.0099L73.7288 74.1889C75.4604 72.2964 75.375 70.4626 73.9965 69.2103C72.4363 67.7919 69.6691 67.7458 67.6536 69.9489L63.8832 74.0703C62.5317 75.548 61.9718 76.368 61.7498 77.4957L61.6548 77.5994L58.1436 74.4084L58.2386 74.3047C59.397 74.0283 60.1127 73.3497 61.4648 71.872L66.9656 65.8586Z" fill="#00CB0D"/>
<path d="M69.067 62.2612L72.3419 64.6681L72.4201 64.7388L70.6885 66.6314L70.7926 66.7261C71.4264 66.5662 72.0408 66.4857 72.6296 66.4857C74.0539 66.4857 75.3297 66.9559 76.3782 67.9094C78.6925 70.013 79.0143 73.2016 76.1689 76.3117L71.711 81.1848C70.3595 82.6625 69.7966 83.4329 69.6035 84.6336L69.5085 84.7373L65.9978 81.5463L66.0929 81.4426C67.2483 81.1165 67.967 80.4876 69.3184 79.0099L73.7288 74.1889C75.4604 72.2964 75.375 70.4626 73.9965 69.2103C73.2919 68.5697 72.3409 68.2091 71.3244 68.2091C70.09 68.209 68.7589 68.7407 67.6536 69.9489L63.8832 74.0703C62.5317 75.548 61.9718 76.368 61.7498 77.4957L61.6548 77.5994L58.1436 74.4084L58.2386 74.3047C59.397 74.0283 60.1127 73.3497 61.4648 71.872L66.9656 65.8586C68.3176 64.3809 68.8018 63.5399 68.9245 62.4164L69.067 62.2612ZM68.9866 61.4394L68.334 62.1503L68.3122 62.35C68.2065 63.3178 67.7687 64.0699 66.5105 65.445L61.0096 71.4584C59.6227 72.9743 59.0397 73.4823 58.0952 73.7077L57.9114 73.7516L57.2731 74.448L61.6944 78.4661L62.321 77.7828L62.3543 77.6138C62.5411 76.6644 62.9861 75.9623 64.3383 74.4838L68.1087 70.3625C69.017 69.3696 70.159 68.8229 71.3244 68.8229C72.1834 68.823 72.985 69.1216 73.5815 69.6639C74.1512 70.1815 74.431 70.7801 74.4133 71.4432C74.3937 72.1755 73.9996 72.982 73.2738 73.7753L68.8634 78.5964C67.5657 80.0153 66.9266 80.5693 65.9251 80.852L65.7562 80.8996L65.1276 81.5861L69.548 85.6041L70.1825 84.9122L70.2116 84.7308C70.3777 83.6978 70.8453 83.0427 72.1661 81.5984L76.624 76.7253C78.0797 75.1342 78.8406 73.4059 78.8243 71.7272C78.8088 70.1265 78.1064 68.6495 76.7932 67.4559C75.6374 66.4048 74.2365 65.8718 72.6296 65.8718C72.4896 65.8718 72.3482 65.876 72.2054 65.8844L73.291 64.698L72.7328 64.1926L72.7074 64.174L68.9866 61.4394Z" fill="#F94646"/>
<path d="M80.207 80.8839L79.4564 93.7301L79.4323 93.7564L76.2597 90.873L76.9941 80.9073L74.305 80.9313L73.0245 82.331C71.649 83.8345 71.0632 84.6312 70.8671 85.7822L70.7721 85.8859L67.2615 82.6955L67.3565 82.5918C68.5149 82.3148 69.2565 81.6602 70.632 80.1567L81.8483 67.8962C83.2232 66.3928 83.5179 65.7585 83.6641 64.6093L83.806 64.4541L87.0562 66.8376L87.1338 66.9083L76.3204 78.7276L76.4245 78.8223L83.0181 78.6437C84.9097 78.6065 85.6964 78.3715 86.3128 77.6977L86.4073 77.594L90.2559 81.0925L90.1615 81.1962C88.3505 80.8323 87.0304 80.818 84.3148 80.8186L80.207 80.8839Z" fill="#00CB0D"/>
<path d="M83.806 64.4541L87.0562 66.8376L87.1338 66.9083L76.3204 78.7276L76.4245 78.8223L83.0181 78.6437C84.9097 78.6065 85.6964 78.3715 86.3128 77.6977L86.4073 77.594L90.2559 81.0925L90.1615 81.1962C88.3799 80.8382 87.0733 80.8185 84.446 80.8185L84.3148 80.8186L80.207 80.8839L79.4564 93.7301L79.4323 93.7564L76.2597 90.873L76.9941 80.9073L74.305 80.9313L73.0245 82.331C71.649 83.8345 71.0632 84.6312 70.8671 85.7822L70.7721 85.8859L67.2615 82.6955L67.3565 82.5918C68.5149 82.3148 69.2565 81.6602 70.632 80.1567L81.8483 67.8962C83.2232 66.3928 83.5179 65.7585 83.6641 64.6093L83.806 64.4541ZM83.7242 63.632L83.0776 64.3395L83.0531 64.5321C82.934 65.4693 82.7504 65.9985 81.3931 67.4827L70.1769 79.7432C68.8433 81.2007 68.195 81.76 67.2129 81.9949L67.0292 82.0388L66.3911 82.7352L70.8119 86.7529L71.444 86.0629L71.4743 85.885C71.6429 84.8956 72.1463 84.2021 73.4796 82.7447L74.5791 81.5427L76.3308 81.5271L75.6235 91.1255L79.4734 94.6245L80.0586 93.9822L80.7885 81.4886L84.3247 81.4323L84.446 81.4324C86.995 81.4324 88.2975 81.4479 90.0398 81.798L90.3827 81.8669L91.1249 81.0516L86.366 76.7257L85.8567 77.2852C85.4315 77.75 84.8734 77.9932 83.006 78.0299L77.6598 78.1747L88.0031 66.8692L87.4477 66.3625L83.7242 63.632Z" fill="#F94646"/>
<path d="M76.8575 89.8503L79.0155 87.4913L79.1454 87.6094C78.9716 89.7777 79.7264 91.5558 81.0526 92.7613C82.2753 93.8721 83.9462 94.441 85.0131 93.2745C85.7721 92.4448 85.5839 91.6091 84.8874 90.0277L83.7784 87.595C82.804 85.3806 83.0434 83.5576 84.3479 82.1314C86.3399 79.9541 89.7585 80.0698 92.3333 82.4096C93.529 83.497 94.4666 84.919 94.9009 86.215L92.7663 88.5482L92.6364 88.4301C92.7856 86.8091 92.1156 85.2505 90.8676 84.1157C89.5673 82.9341 87.9295 82.5379 86.957 83.6001C86.222 84.404 86.2629 85.2966 86.9828 86.8517L88.1725 89.4049C89.1655 91.4946 89.0476 93.2379 87.6481 94.7678C85.5376 97.0745 82.11 96.7604 79.5616 94.444C78.209 93.2145 77.2082 91.4976 76.8575 89.8503Z" fill="#00CB0D"/>
<path d="M87.9361 80.5734C89.4167 80.5734 90.9896 81.1886 92.3333 82.4096C93.529 83.497 94.4666 84.919 94.9009 86.215L92.7663 88.5482L92.6364 88.4301C92.7856 86.8091 92.1156 85.2505 90.8676 84.1157C90.0891 83.4083 89.1897 82.9825 88.3845 82.9824C87.8447 82.9823 87.3473 83.1738 86.957 83.6001C86.222 84.404 86.2629 85.2966 86.9828 86.8517L88.1725 89.4049C89.1655 91.4946 89.0476 93.2379 87.6481 94.7678C86.6653 95.8419 85.3968 96.3478 84.0647 96.3478C82.5359 96.3478 80.9234 95.6818 79.5616 94.444C78.209 93.2145 77.2082 91.4976 76.8575 89.8503L79.0155 87.4913L79.1454 87.6094C78.9716 89.7777 79.7264 91.5558 81.0526 92.7613C81.8011 93.4414 82.7176 93.9183 83.5606 93.9183C84.0947 93.9183 84.5993 93.7269 85.0131 93.2745C85.7721 92.4448 85.5839 91.6091 84.8874 90.0277L83.7784 87.595C82.804 85.3806 83.0434 83.5576 84.3479 82.1314C85.3004 81.0903 86.5795 80.5734 87.9361 80.5734ZM87.9361 79.9595C86.3661 79.9595 84.9302 80.584 83.8928 81.7178C82.4029 83.3467 82.1683 85.4642 83.2143 87.8416L84.3268 90.2816C85.0465 91.9161 85.0162 92.36 84.5581 92.8608C84.285 93.1593 83.9588 93.3044 83.5606 93.3044C82.937 93.3044 82.1545 92.9318 81.4675 92.3076C80.2168 91.1707 79.6102 89.5195 79.7594 87.6583L79.7835 87.3585L78.9753 86.6241L76.1895 89.6695L76.2551 89.9777C76.6338 91.7568 77.7148 93.596 79.1466 94.8976C80.6109 96.2287 82.3575 96.9617 84.0647 96.9617C85.6411 96.9617 87.0375 96.3461 88.1031 95.1814C89.6512 93.4891 89.856 91.5137 88.7291 89.1421L87.5414 86.5931C86.8386 85.075 86.9537 84.5151 87.4122 84.0136C87.6693 83.7329 87.9873 83.5962 88.3844 83.5963C89.0183 83.5963 89.7722 83.951 90.4527 84.5693C91.5789 85.5934 92.1513 86.9803 92.0231 88.3741L91.9952 88.678L92.8064 89.4154L95.5996 86.3624L95.485 86.0206C95.0095 84.6015 93.9865 83.0821 92.7485 81.9561C91.3315 80.6685 89.6226 79.9595 87.9361 79.9595Z" fill="#F94646"/>
<path d="M110.86 115.834L117.499 108.576L114.977 106.283L116.352 104.779C118.896 106.997 119.689 106.911 122.307 104.257L124.232 106.007L121.456 109.039L124.941 112.206L123.376 113.917L119.892 110.75L113.323 117.93C112.114 119.252 112.114 120.345 113.285 121.408C113.857 121.928 114.498 122.321 115.305 122.532L114.379 124.065C113.154 123.946 111.934 123.457 110.946 122.559C108.944 120.739 108.583 118.322 110.86 115.834Z" fill="#00CB0D"/>
<path d="M122.307 104.257L124.232 106.007L121.456 109.039L124.941 112.206L123.376 113.917L119.892 110.75L113.323 117.93C112.114 119.252 112.114 120.345 113.285 121.408C113.857 121.928 114.498 122.321 115.305 122.532L114.379 124.065C113.154 123.946 111.934 123.457 110.946 122.559C108.944 120.739 108.583 118.322 110.86 115.834L117.499 108.576L114.977 106.283L116.352 104.779C117.544 105.819 118.352 106.352 119.143 106.352C120.04 106.352 120.916 105.667 122.307 104.257ZM122.284 103.405L121.868 103.827C120.475 105.238 119.762 105.738 119.143 105.738C118.599 105.738 117.931 105.34 116.757 104.317L116.303 103.922L114.107 106.323L116.629 108.616L110.404 115.42C109.195 116.742 108.616 118.106 108.683 119.477C108.745 120.747 109.385 121.97 110.531 123.012C111.577 123.962 112.887 124.537 114.319 124.676L114.706 124.713L116.257 122.146L115.461 121.938C114.81 121.768 114.251 121.455 113.7 120.955C112.921 120.247 112.662 119.563 113.778 118.343L119.932 111.617L123.417 114.785L125.811 112.166L122.327 108.999L125.102 105.967L122.284 103.405Z" fill="#F94646"/>
<path d="M125.341 107.49C126.669 106.038 127.272 105.067 127.418 103.919L127.536 103.789L130.786 106.173L130.864 106.243L123.536 114.253L123.666 114.371C125.784 113.826 127.718 114.16 129.304 115.602C131.567 117.658 131.888 120.847 129.043 123.957L124.609 128.804C123.257 130.282 122.647 131.104 122.477 132.279L122.382 132.382L118.871 129.191L118.966 129.088C120.073 128.764 120.838 128.083 122.19 126.606L126.577 121.811C128.284 119.944 128.301 118.156 126.844 116.832C125.258 115.39 122.446 115.445 120.501 117.57L116.755 121.666C115.403 123.144 114.82 123.989 114.623 125.141L114.528 125.244L111.018 122.054L111.113 121.95C112.271 121.673 113.01 120.969 114.362 119.492L125.341 107.49Z" fill="#00CB0D"/>
<path d="M127.536 103.789L130.786 106.173L130.864 106.243L123.536 114.253L123.666 114.371C124.298 114.208 124.914 114.124 125.509 114.124C126.907 114.124 128.191 114.59 129.304 115.602C131.567 117.658 131.888 120.847 129.043 123.957L124.609 128.804C123.257 130.282 122.647 131.104 122.477 132.279L122.382 132.382L118.871 129.191L118.966 129.088C120.073 128.764 120.838 128.083 122.19 126.606L126.577 121.811C128.284 119.944 128.301 118.156 126.844 116.832C126.14 116.192 125.194 115.847 124.19 115.847C122.932 115.847 121.583 116.388 120.501 117.57L116.755 121.666C115.403 123.144 114.82 123.989 114.623 125.141L114.528 125.244L111.018 122.054L111.113 121.95C112.271 121.673 113.01 120.969 114.362 119.492L125.341 107.49C126.669 106.038 127.272 105.067 127.418 103.919L127.536 103.789ZM127.455 102.967L126.832 103.649L126.807 103.841C126.683 104.815 126.18 105.661 124.886 107.077L113.907 119.078C112.626 120.478 111.961 121.116 110.969 121.353L110.785 121.397L110.147 122.094L114.568 126.111L115.2 125.421L115.231 125.243C115.393 124.29 115.837 123.58 117.21 122.08L120.957 117.984C121.855 117.002 123.004 116.461 124.19 116.461C125.049 116.461 125.844 116.754 126.429 117.285C127.023 117.825 127.309 118.432 127.282 119.092C127.252 119.803 126.851 120.6 126.122 121.397L121.735 126.192C120.462 127.584 119.771 128.212 118.793 128.499L118.629 128.547L118 129.23L122.422 133.249L123.06 132.553L123.087 132.366C123.233 131.356 123.789 130.61 125.064 129.218L129.498 124.37C130.95 122.783 131.713 121.057 131.705 119.381C131.696 117.785 131.01 116.321 129.719 115.148C128.523 114.061 127.106 113.51 125.509 113.51C125.353 113.51 125.195 113.516 125.035 113.526L131.735 106.202L131.2 105.718L131.177 105.697L127.455 102.967Z" fill="#F94646"/>
<path d="M131.977 138.159C129.616 138.293 127.518 137.619 125.697 135.965C122.134 132.727 121.728 127.705 125.38 123.713C128.723 120.058 133.658 119.558 136.961 122.56C139.795 125.136 140.239 128.816 137.18 132.159L136.279 133.144L128.009 125.628C125.268 128.833 125.544 132.123 128.171 134.51C129.549 135.763 130.997 136.367 132.853 136.63L131.977 138.159ZM129.512 124.194L135.26 129.417C136.938 127.477 136.918 125.418 135.357 124C133.641 122.44 131.555 122.585 129.512 124.194Z" fill="#00CB0D"/>
<path d="M131.951 120.602C133.753 120.602 135.514 121.245 136.961 122.56C139.795 125.136 140.239 128.816 137.18 132.159L136.279 133.144L128.009 125.628C125.268 128.833 125.544 132.123 128.171 134.51C129.549 135.763 130.997 136.367 132.853 136.63L131.977 138.159C131.784 138.17 131.593 138.176 131.403 138.176C129.275 138.176 127.369 137.484 125.697 135.965C122.134 132.727 121.728 127.705 125.38 123.713C127.258 121.66 129.639 120.602 131.951 120.602ZM135.26 129.417C136.938 127.477 136.918 125.418 135.357 124C134.545 123.262 133.65 122.905 132.716 122.905C131.676 122.905 130.588 123.347 129.512 124.194L135.26 129.417ZM131.951 119.988C129.373 119.988 126.878 121.164 124.925 123.3C123.052 125.347 122.116 127.715 122.218 130.147C122.316 132.484 123.404 134.711 125.282 136.418C127.014 137.992 129.073 138.79 131.403 138.79C131.604 138.79 131.807 138.784 132.012 138.772L132.346 138.753L133.837 136.149L132.939 136.022C131.12 135.764 129.818 135.177 128.586 134.056C126.237 131.922 126.065 129.201 128.079 126.522L136.319 134.011L137.635 132.573C139.209 130.853 139.99 128.94 139.896 127.042C139.805 125.229 138.934 123.522 137.376 122.106C135.851 120.721 133.975 119.988 131.951 119.988ZM130.49 124.252C131.255 123.765 132.002 123.519 132.716 123.519C133.511 123.519 134.26 123.833 134.942 124.453C136.14 125.541 136.216 127.03 135.183 128.517L130.49 124.252Z" fill="#F94646"/>
<path d="M132.682 141.553C134.162 141.237 135.34 140.314 137.094 138.396L146.223 128.416C147.979 126.498 148.793 125.244 148.973 123.746L149.068 123.642L155.751 129.716C159.912 133.498 160.383 137.201 158.035 139.767C156.138 141.841 153.105 141.98 150.186 140.276L150.091 140.38C152.91 143.703 153.042 147.098 151.027 149.301C148.56 151.997 144.159 152.175 139.894 148.298L132.587 141.657L132.682 141.553ZM148.195 137.091C150.77 139.431 153.148 139.693 155.069 137.594C156.776 135.728 156.268 133.367 153.746 131.075L150.859 128.451L145.334 134.491L148.195 137.091ZM143.745 136.227L137.557 142.992L140.651 145.805C143.486 148.382 146.351 148.945 148.485 146.612C150.525 144.383 149.753 141.687 146.684 138.899L143.745 136.227Z" fill="#00CB0D"/>
<path d="M149.068 123.642L155.751 129.716C159.912 133.498 160.383 137.201 158.035 139.767C157.005 140.893 155.64 141.449 154.14 141.449C152.878 141.449 151.52 141.055 150.186 140.276L150.091 140.38C152.91 143.703 153.042 147.098 151.027 149.301C149.871 150.564 148.292 151.274 146.501 151.274C144.467 151.274 142.162 150.359 139.894 148.298L132.587 141.657L132.682 141.553C134.162 141.237 135.34 140.314 137.094 138.396L146.223 128.416C147.979 126.498 148.793 125.244 148.973 123.746L149.068 123.642ZM152.174 139.02C153.218 139.02 154.191 138.554 155.069 137.594C156.776 135.728 156.268 133.367 153.746 131.075L150.859 128.451L145.334 134.491L148.195 137.091C149.593 138.361 150.934 139.02 152.174 139.02ZM145.379 148.085C146.51 148.085 147.566 147.618 148.485 146.612C150.525 144.383 149.753 141.687 146.684 138.899L143.745 136.227L137.557 142.992L140.651 145.805C142.264 147.271 143.886 148.085 145.379 148.085ZM149.028 122.775L148.385 123.477L148.361 123.673C148.208 124.945 147.53 126.078 145.768 128.002L136.639 137.982C134.878 139.907 133.809 140.685 132.553 140.953L132.36 140.994L131.716 141.696L139.479 148.752C141.737 150.804 144.165 151.888 146.501 151.888C148.431 151.888 150.2 151.116 151.482 149.715C153.45 147.564 153.52 144.595 151.774 141.667C152.573 141.928 153.371 142.063 154.14 142.063C155.86 142.063 157.364 141.412 158.49 140.181C159.815 138.732 160.316 136.967 159.937 135.077C159.55 133.141 158.281 131.185 156.166 129.263L149.028 122.775ZM146.204 134.451L150.899 129.318L153.331 131.528C154.476 132.569 155.188 133.637 155.39 134.618C155.582 135.546 155.32 136.408 154.614 137.18C153.86 138.005 153.062 138.406 152.174 138.406C151.1 138.406 149.901 137.811 148.61 136.637L146.204 134.451ZM138.427 142.952L143.785 137.095L146.269 139.352C147.727 140.677 148.613 141.942 148.902 143.112C149.182 144.242 148.896 145.252 148.03 146.198C147.258 147.043 146.366 147.471 145.379 147.471C144.083 147.471 142.592 146.738 141.066 145.352L138.427 142.952Z" fill="#F94646"/>
<path d="M149.408 145.646C152.846 141.888 157.941 141.629 161.504 144.867C165.041 148.081 165.249 153.112 161.787 156.897C158.324 160.681 153.232 160.99 149.695 157.775C146.132 154.538 145.946 149.431 149.408 145.646ZM159.186 154.534C161.866 151.604 162.048 148.542 159.915 146.604C157.705 144.595 154.641 145.133 152.009 148.01C149.353 150.913 149.047 154.006 151.283 156.039C153.416 157.977 156.483 157.488 159.186 154.534Z" fill="#00CB0D"/>
<path d="M155.888 142.619C157.878 142.619 159.855 143.368 161.504 144.867C165.041 148.081 165.249 153.112 161.787 156.897C159.909 158.949 157.551 159.98 155.222 159.98C153.257 159.98 151.314 159.247 149.695 157.775C146.132 154.538 145.946 149.431 149.408 145.646C151.254 143.628 153.579 142.619 155.888 142.619ZM154.192 157.197C155.8 157.197 157.559 156.312 159.186 154.534C161.866 151.604 162.048 148.542 159.915 146.604C159.029 145.798 158.006 145.402 156.928 145.402C155.317 145.402 153.585 146.286 152.009 148.01C149.353 150.913 149.047 154.006 151.283 156.039C152.132 156.81 153.129 157.197 154.192 157.197ZM155.888 142.005H155.888C153.32 142.005 150.857 143.151 148.953 145.233C147.178 147.173 146.236 149.553 146.301 151.933C146.366 154.307 147.424 156.543 149.28 158.229C150.982 159.776 153.037 160.593 155.222 160.593C157.812 160.593 160.305 159.427 162.242 157.31C165.89 153.322 165.754 147.898 161.919 144.413C160.185 142.838 158.1 142.005 155.888 142.005ZM154.192 156.583C153.266 156.583 152.427 156.247 151.698 155.585C149.75 153.814 150.043 151.07 152.464 148.424C153.884 146.871 155.469 146.016 156.928 146.016C157.875 146.016 158.74 146.366 159.5 147.057C160.411 147.885 160.84 148.953 160.742 150.146C160.636 151.424 159.941 152.798 158.731 154.12C157.278 155.708 155.665 156.583 154.192 156.583Z" fill="#F94646"/>
<path d="M159.017 154.38C162.455 150.622 167.551 150.362 171.114 153.601C174.651 156.815 174.858 161.846 171.396 165.63C167.934 169.415 162.841 169.724 159.304 166.509C155.742 163.271 155.555 158.165 159.017 154.38ZM168.796 163.267C171.475 160.338 171.657 157.276 169.525 155.337C167.314 153.329 164.25 153.867 161.618 156.743C158.962 159.647 158.656 162.74 160.893 164.773C163.025 166.711 166.092 166.221 168.796 163.267Z" fill="#00CB0D"/>
<path d="M165.497 151.352C167.487 151.352 169.465 152.102 171.114 153.601C174.651 156.815 174.858 161.846 171.396 165.63C169.518 167.683 167.16 168.713 164.832 168.713C162.867 168.713 160.923 167.98 159.304 166.509C155.742 163.271 155.555 158.165 159.017 154.38C160.864 152.362 163.189 151.352 165.497 151.352ZM163.801 165.931C165.409 165.931 167.168 165.046 168.796 163.267C171.475 160.338 171.657 157.276 169.525 155.337C168.638 154.532 167.615 154.136 166.537 154.136C164.926 154.136 163.195 155.02 161.618 156.743C158.962 159.647 158.656 162.74 160.893 164.773C161.741 165.544 162.738 165.931 163.801 165.931ZM165.498 150.738C162.929 150.738 160.466 151.885 158.562 153.966C154.887 157.984 155.024 163.449 158.889 166.963C160.591 168.51 162.646 169.327 164.832 169.327C167.421 169.327 169.914 168.161 171.851 166.044C173.624 164.106 174.563 161.741 174.495 159.384C174.428 157.039 173.374 154.824 171.529 153.147C169.795 151.571 167.71 150.738 165.498 150.738ZM163.801 165.317C162.875 165.317 162.036 164.981 161.308 164.319C159.359 162.548 159.652 159.803 162.073 157.157C163.493 155.605 165.079 154.75 166.537 154.75C167.484 154.75 168.349 155.1 169.11 155.791C170.021 156.619 170.45 157.687 170.351 158.88C170.245 160.157 169.55 161.531 168.34 162.853C166.887 164.442 165.275 165.317 163.801 165.317Z" fill="#F94646"/>
<path d="M167.49 167.303L174.13 160.045L171.607 157.753L172.983 156.249C175.527 158.467 176.32 158.38 178.938 155.727L180.862 157.476L178.087 160.509L181.572 163.676L180.007 165.387L176.522 162.22L169.954 169.399C168.744 170.722 168.745 171.814 169.915 172.878C170.487 173.398 171.129 173.79 171.936 174.001L171.01 175.534C169.784 175.416 168.565 174.926 167.577 174.028C165.575 172.208 165.214 169.791 167.49 167.303Z" fill="#00CB0D"/>
<path d="M178.938 155.727L180.862 157.476L178.087 160.509L181.572 163.676L180.007 165.387L176.522 162.22L169.954 169.399C168.744 170.722 168.745 171.814 169.915 172.878C170.487 173.398 171.129 173.79 171.936 174.001L171.01 175.534C169.784 175.416 168.565 174.926 167.577 174.028C165.575 172.208 165.214 169.791 167.49 167.303L174.13 160.045L171.607 157.753L172.983 156.249C174.175 157.288 174.983 157.822 175.774 157.822C176.671 157.822 177.547 157.137 178.938 155.727ZM178.915 154.875L178.499 155.297C177.106 156.708 176.393 157.208 175.774 157.208C175.23 157.208 174.561 156.809 173.388 155.787L172.934 155.391L170.737 157.793L173.26 160.085L167.035 166.889C165.826 168.211 165.247 169.576 165.314 170.946C165.376 172.216 166.015 173.439 167.162 174.481C168.207 175.432 169.517 176.007 170.95 176.145L171.337 176.182L172.888 173.616L172.092 173.408C171.441 173.238 170.881 172.925 170.33 172.424C169.552 171.717 169.293 171.033 170.409 169.813L176.562 163.087L180.047 166.254L182.442 163.636L178.957 160.469L181.733 157.436L178.915 154.875Z" fill="#F94646"/>
<path d="M181.972 158.959C183.3 157.508 183.903 156.537 184.049 155.388L184.167 155.258L187.417 157.642L187.495 157.713L180.167 165.722L180.297 165.841C182.415 165.296 184.348 165.629 185.935 167.071C188.198 169.127 188.519 172.316 185.673 175.426L181.239 180.273C179.887 181.751 179.278 182.573 179.108 183.748L179.013 183.852L175.502 180.661L175.597 180.557C176.703 180.233 177.469 179.553 178.821 178.076L183.207 173.28C184.915 171.414 184.932 169.625 183.475 168.301C181.889 166.859 179.077 166.914 177.132 169.04L173.386 173.135C172.034 174.613 171.45 175.459 171.254 176.61L171.159 176.714L167.649 173.523L167.744 173.419C168.902 173.142 169.641 172.439 170.993 170.961L181.972 158.959Z" fill="#00CB0D"/>
<path d="M184.167 155.258L187.417 157.642L187.495 157.713L180.167 165.722L180.297 165.841C180.929 165.678 181.545 165.594 182.14 165.594C183.538 165.594 184.822 166.06 185.935 167.071C188.198 169.127 188.519 172.316 185.673 175.426L181.239 180.273C179.887 181.751 179.278 182.573 179.108 183.748L179.013 183.852L175.502 180.661L175.597 180.557C176.703 180.233 177.469 179.553 178.821 178.076L183.207 173.28C184.915 171.414 184.932 169.625 183.475 168.301C182.771 167.661 181.825 167.316 180.821 167.316C179.563 167.316 178.214 167.858 177.132 169.04L173.386 173.135C172.034 174.613 171.45 175.459 171.254 176.61L171.159 176.714L167.649 173.523L167.744 173.419C168.902 173.142 169.641 172.439 170.993 170.961L181.972 158.959C183.3 157.508 183.903 156.537 184.049 155.388L184.167 155.258ZM184.086 154.436L183.462 155.118L183.438 155.311C183.315 156.284 182.812 157.131 181.517 158.546L170.538 170.547C169.258 171.947 168.593 172.585 167.6 172.822L167.416 172.866L166.778 173.563L171.199 177.581L171.831 176.891L171.862 176.713C172.024 175.759 172.468 175.05 173.841 173.549L177.587 169.453C178.486 168.471 179.634 167.93 180.821 167.93C181.68 167.93 182.475 168.223 183.06 168.755C183.653 169.294 183.94 169.902 183.912 170.562C183.883 171.273 183.481 172.07 182.752 172.867L178.366 177.662C177.093 179.053 176.403 179.681 175.424 179.968L175.258 180.017L174.632 180.701L179.053 184.719L179.69 184.023L179.717 183.836C179.864 182.825 180.42 182.08 181.695 180.687L186.128 175.839C187.581 174.252 188.344 172.527 188.336 170.85C188.327 169.254 187.641 167.79 186.35 166.617C185.154 165.531 183.738 164.98 182.14 164.98C181.984 164.98 181.825 164.985 181.665 164.996L188.366 157.672L187.831 157.187L187.807 157.166L184.086 154.436Z" fill="#F94646"/>
<path d="M32.0236 191.239C31.7066 189.764 30.7311 188.592 28.8323 186.867L15.8038 175.026L14.296 174.747L14.2437 174.7L17.6821 170.941L40.439 174.961L40.5575 174.831L30.129 165.354C28.2303 163.628 26.9696 162.767 25.469 162.637L25.365 162.543L28.685 158.914L28.789 159.009C29.0801 160.46 30.0322 161.658 31.931 163.384L46 176.171L43.534 178.866L19.7505 174.719L19.632 174.849L30.6583 184.871C32.5571 186.597 33.8412 187.431 35.3436 187.61L35.4476 187.705L32.1276 191.334L32.0236 191.239Z" fill="#00CB0D"/>
<path d="M28.685 158.914L28.789 159.009C29.0801 160.46 30.0322 161.658 31.931 163.384L46 176.171L43.534 178.866L19.7505 174.719L19.632 174.849L30.6583 184.871C32.5571 186.597 33.8412 187.431 35.3436 187.61L35.4476 187.705L32.1276 191.334L32.0236 191.239C31.7066 189.764 30.7311 188.592 28.8323 186.867L15.8038 175.026L14.296 174.747L14.2437 174.7L17.6821 170.941L40.439 174.961L40.5575 174.831L30.129 165.354C28.2303 163.628 26.9696 162.767 25.469 162.637L25.365 162.543L28.685 158.914ZM28.6453 158.046L24.4953 162.582L25.2078 163.231L25.4159 163.249C26.6416 163.355 27.7261 164 29.714 165.807L38.7769 174.044L17.4556 170.278L13.3726 174.741L14.0116 175.319L15.5187 175.597L28.4173 187.321C30.4004 189.123 31.1584 190.144 31.4214 191.368L31.4626 191.56L32.1675 192.201L36.3174 187.666L35.613 187.024L35.4168 187.001C34.1413 186.849 33.0047 186.173 31.0733 184.418L21.4062 175.631L43.7612 179.529L46.87 176.131L32.346 162.93C30.4116 161.172 29.6388 160.114 29.3929 158.888L29.3534 158.691L28.6453 158.046Z" fill="#F94646"/>
<path d="M38.4452 172.037C34.6748 168.611 34.4149 163.532 37.6633 159.981C40.8883 156.456 45.9356 156.249 49.7325 159.699C53.5294 163.151 53.8392 168.226 50.6142 171.751C47.3658 175.303 42.2421 175.488 38.4452 172.037ZM47.3616 162.292C44.423 159.621 41.3502 159.439 39.4057 161.564C37.3903 163.768 37.9304 166.822 40.8167 169.445C43.7295 172.092 46.8324 172.398 48.8719 170.168C50.8163 168.043 50.3261 164.986 47.3616 162.292Z" fill="#00CB0D"/>
<path d="M43.708 157.221C45.7772 157.221 47.9004 158.034 49.7325 159.699C53.5294 163.151 53.8392 168.226 50.6142 171.751C48.9355 173.587 46.7554 174.523 44.5169 174.523C42.4239 174.523 40.28 173.705 38.4452 172.037C34.6748 168.611 34.4149 163.532 37.6633 159.981C39.3321 158.157 41.4891 157.221 43.708 157.221ZM45.6081 171.656C46.8341 171.656 47.9593 171.166 48.8719 170.168C50.8163 168.043 50.3261 164.986 47.3616 162.292C45.7529 160.83 44.1037 160.113 42.6218 160.113C41.3966 160.113 40.2858 160.603 39.4057 161.564C37.3903 163.768 37.9304 166.822 40.8167 169.445C42.4262 170.908 44.094 171.656 45.6081 171.656ZM43.7082 156.607C41.2628 156.607 38.9544 157.658 37.2083 159.567C33.684 163.42 34.0296 168.855 38.0303 172.491C39.9076 174.197 42.2113 175.137 44.5169 175.137C46.9891 175.137 49.3162 174.081 51.0694 172.165C54.5661 168.343 54.1784 162.91 50.1475 159.246C48.248 157.52 46.0213 156.607 43.7082 156.607ZM45.6081 171.042C44.2209 171.042 42.7075 170.333 41.2316 168.992C38.6094 166.608 38.0841 163.921 39.8608 161.978C40.6095 161.16 41.5642 160.727 42.6218 160.727C43.9986 160.727 45.4941 161.425 46.9467 162.745C48.2872 163.964 49.1188 165.281 49.3517 166.553C49.5691 167.742 49.2457 168.848 48.4168 169.754C47.6353 170.609 46.6904 171.042 45.6081 171.042Z" fill="#F94646"/>
<path d="M44.5583 149.633C42.5561 147.813 41.3285 147.124 39.873 146.893L39.769 146.799L45.7919 140.215C51.1513 134.357 58.3019 133.83 63.6848 138.723C69.0942 143.638 69.2253 150.783 63.8659 156.641L57.843 163.226L57.739 163.131C57.5164 161.552 56.3911 160.386 54.4665 158.638L44.5583 149.633ZM59.183 158.272L61.602 155.628C65.7045 151.144 66.013 145.965 61.1239 141.522C56.2347 137.078 51.1152 137.884 47.0128 142.369L44.5938 145.013L59.183 158.272Z" fill="#00CB0D"/>
<path d="M55.6108 135.401C58.4447 135.401 61.2457 136.505 63.6848 138.723C69.0942 143.638 69.2253 150.783 63.8659 156.641L57.843 163.226L57.739 163.131C57.5164 161.552 56.3911 160.386 54.4665 158.638L44.5583 149.633C42.5561 147.813 41.3285 147.124 39.873 146.893L39.769 146.799L45.7919 140.215C48.7228 137.011 52.1905 135.402 55.6108 135.401ZM59.183 158.272L61.602 155.628C65.7045 151.144 66.013 145.965 61.1239 141.522C58.904 139.504 56.6362 138.569 54.4381 138.569C51.7951 138.569 49.2526 139.92 47.0128 142.369L44.5938 145.013L59.183 158.272ZM55.6119 134.788H55.6107C51.9429 134.788 48.2942 136.568 45.3368 139.801L38.8994 146.838L39.5939 147.471L39.7763 147.5C41.1366 147.715 42.2794 148.392 44.1433 150.087L54.0515 159.091C56.0311 160.89 56.9453 161.912 57.1291 163.216L57.1599 163.435L57.8828 164.093L64.321 157.055C67.051 154.071 68.4717 150.705 68.4295 147.321C68.3873 143.935 66.8901 140.805 64.0998 138.269C61.5942 135.991 58.6591 134.788 55.6119 134.788ZM45.4638 144.973L47.4679 142.782C49.6223 140.427 52.0326 139.183 54.4381 139.183C56.5602 139.183 58.67 140.122 60.7089 141.975C62.9511 144.013 64.0984 146.23 64.119 148.565C64.1384 150.768 63.1107 153.068 61.1469 155.214L59.1429 157.405L45.4638 144.973Z" fill="#F94646"/>
<path d="M62.1463 140.352C60.6638 139.005 59.82 138.522 58.6922 138.399L58.5365 138.258L60.9278 135.019L60.9988 134.942L64.1197 137.778L64.2388 137.648C62.5667 134.894 62.5674 132.758 64.1558 131.022C64.5118 130.633 64.8246 130.395 65.1373 130.158L67.5299 132.332C67.1179 132.575 66.8075 132.862 66.4755 133.225C64.768 135.091 64.6917 138.298 68.0201 141.323L70.3867 143.474C71.8693 144.822 72.6428 145.382 73.8926 145.473L73.9966 145.568L70.7007 149.171L70.5966 149.076C70.3188 147.922 69.6879 147.206 68.2053 145.859L62.1463 140.352Z" fill="#00CB0D"/>
<path d="M65.1373 130.158L67.5299 132.332C67.1179 132.575 66.8075 132.862 66.4755 133.225C64.768 135.091 64.6917 138.298 68.0201 141.323L70.3867 143.474C71.8693 144.822 72.6428 145.382 73.8926 145.473L73.9966 145.568L70.7007 149.171L70.5966 149.076C70.3188 147.922 69.6879 147.206 68.2053 145.859L62.1463 140.352C60.6638 139.005 59.82 138.522 58.6922 138.399L58.5365 138.258L60.9278 135.019L60.9988 134.942L64.1197 137.778L64.2388 137.648C62.5667 134.894 62.5674 132.758 64.1558 131.022C64.5118 130.633 64.8246 130.395 65.1373 130.158ZM65.1728 129.359L64.7642 129.669C64.4512 129.907 64.0964 130.176 63.7011 130.608C62.4072 132.022 62.044 133.662 62.6112 135.577L60.9595 134.075L60.4734 134.605L60.4513 134.629L57.7117 138.339L58.426 138.988L58.6256 139.01C59.5963 139.115 60.351 139.551 61.7315 140.806L67.7903 146.312C69.2147 147.607 69.7623 148.241 69.9978 149.219L70.0418 149.402L70.7404 150.038L74.8664 145.528L74.1504 144.877L73.9378 144.861C72.9037 144.785 72.2479 144.335 70.8018 143.02L68.435 140.869C67.0025 139.568 66.1502 138.147 65.9701 136.761C65.8182 135.59 66.1592 134.481 66.9306 133.638C67.2169 133.326 67.4817 133.074 67.8433 132.861L68.5604 132.438L65.1728 129.359Z" fill="#F94646"/>
<path d="M58.9009 129.426C57.9904 128.599 57.8743 127.163 58.7752 126.179C59.5818 125.297 61.0493 125.255 61.9599 126.082C62.9216 126.957 63.0118 128.368 62.1818 129.275C61.2809 130.26 59.8627 130.301 58.9009 129.426ZM74.8194 138.577C76.3019 139.924 77.1007 140.508 78.2795 140.677L78.3835 140.772L75.1827 144.271L75.0786 144.177C74.8007 143.023 74.1205 142.309 72.6379 140.962L66.4743 135.36C65.1223 134.131 64.2779 133.649 63.1508 133.526L62.995 133.384L65.3863 130.146L65.4573 130.068L74.8194 138.577Z" fill="#00CB0D"/>
<path d="M60.3996 125.489C60.9582 125.489 61.5231 125.685 61.9599 126.082C62.9216 126.957 63.0118 128.368 62.1818 129.275C61.7083 129.793 61.0917 130.05 60.4737 130.05C59.9161 130.05 59.3572 129.841 58.9009 129.426C57.9904 128.599 57.8743 127.163 58.7752 126.179C59.1949 125.72 59.7936 125.489 60.3996 125.489ZM65.4573 130.068L74.8194 138.577C76.3019 139.924 77.1007 140.508 78.2795 140.677L78.3835 140.772L75.1827 144.271L75.0786 144.177C74.8007 143.023 74.1205 142.309 72.6379 140.962L66.4743 135.36C65.1223 134.131 64.2779 133.649 63.1508 133.526L62.995 133.384L65.3863 130.146L65.4573 130.068ZM60.3996 124.875C59.5959 124.875 58.838 125.199 58.3203 125.765C57.7791 126.356 57.5034 127.112 57.5437 127.893C57.5832 128.658 57.9179 129.363 58.4861 129.88C59.042 130.385 59.748 130.664 60.4737 130.664C61.2938 130.664 62.062 130.318 62.6369 129.689C63.7073 128.519 63.5924 126.736 62.375 125.629C61.8398 125.142 61.1384 124.875 60.3996 124.875ZM65.4162 129.2L64.9091 129.757L62.1709 133.465L62.8837 134.115L63.0841 134.137C64.0554 134.242 64.7784 134.649 66.0594 135.813L72.2229 141.415C73.7431 142.796 74.2528 143.377 74.4797 144.32L74.5238 144.503L75.2225 145.139L79.2533 140.732L78.5548 140.097L78.3672 140.07C77.3688 139.927 76.6784 139.435 75.2343 138.123L65.4162 129.2Z" fill="#F94646"/>
<path d="M68.8406 132.248C67.3581 130.901 66.5142 130.418 65.3871 130.296L65.2314 130.154L67.6462 126.89L67.7171 126.812L69.6159 128.538L69.7109 128.434C69.1624 126.274 69.5461 124.344 70.8982 122.867C73.0086 120.56 76.2077 120.239 79.328 123.075L84.2172 127.519C85.6997 128.866 86.4726 129.427 87.6773 129.619L87.7813 129.714L84.5798 133.213L84.4758 133.118C84.1486 131.967 83.5177 131.25 82.0351 129.903L77.1983 125.507C75.2995 123.781 73.4597 123.867 72.2033 125.241C70.7803 126.796 70.734 129.554 72.9443 131.563L77.0792 135.321C78.5618 136.668 79.3846 137.226 80.5159 137.447L80.6199 137.542L77.4184 141.042L77.3144 140.947C77.0371 139.792 76.3563 139.079 74.8737 137.731L68.8406 132.248Z" fill="#00CB0D"/>
<path d="M74.782 121.042C76.2225 121.042 77.7848 121.673 79.328 123.075L84.2172 127.519C85.6997 128.866 86.4726 129.427 87.6773 129.619L87.7813 129.714L84.5798 133.213L84.4758 133.118C84.1486 131.967 83.5177 131.25 82.0351 129.903L77.1983 125.507C76.2211 124.619 75.2593 124.211 74.3848 124.21C73.5601 124.21 72.8131 124.574 72.2033 125.241C70.7803 126.796 70.734 129.554 72.9443 131.563L77.0792 135.321C78.5618 136.668 79.3846 137.226 80.5159 137.447L80.6199 137.542L77.4184 141.042L77.3144 140.947C77.0371 139.792 76.3563 139.079 74.8737 137.731L68.8406 132.248C67.3581 130.901 66.5142 130.418 65.3871 130.296L65.2314 130.154L67.6462 126.89L67.7171 126.812L69.6159 128.538L69.7109 128.434C69.1624 126.274 69.5461 124.344 70.8982 122.867C71.9648 121.701 73.3098 121.042 74.782 121.042ZM74.782 120.428C73.1553 120.428 71.655 121.128 70.4431 122.453C69.2946 123.708 68.7609 125.267 68.8655 127.025L67.6761 125.944L67.1691 126.5L64.4068 130.234L65.1201 130.884L65.3205 130.906C66.2914 131.012 67.0459 131.448 68.4256 132.702L74.4588 138.185C75.9796 139.567 76.4893 140.148 76.7154 141.09L76.7595 141.273L77.4581 141.909L81.4896 137.502L80.8038 136.878L80.6345 136.845C79.6819 136.658 78.9775 136.215 77.4941 134.867L73.3593 131.109C72.1955 130.051 71.8828 128.935 71.8254 128.185C71.7527 127.234 72.0563 126.312 72.6583 125.654C73.162 125.103 73.7428 124.824 74.3848 124.824C75.1359 124.824 75.9653 125.217 76.7833 125.961L81.6202 130.357C83.0437 131.65 83.5996 132.287 83.8832 133.285L83.931 133.454L84.6197 134.08L88.6511 129.674L87.9565 129.042L87.7747 129.013C86.7383 128.847 86.081 128.381 84.632 127.065L79.7429 122.622C78.1643 121.187 76.4488 120.428 74.782 120.428Z" fill="#F94646"/>
<path d="M83.9152 119.05L96.8036 119.799L96.8301 119.822L93.9371 122.985L83.9387 122.253L83.9628 124.933L85.3671 126.209C86.8755 127.58 87.6749 128.164 88.8296 128.36L88.9337 128.454L85.7328 131.953L85.6288 131.859C85.3509 130.704 84.6941 129.965 83.1857 128.594L70.8849 117.414C69.3765 116.044 68.7402 115.75 67.5872 115.605L67.4314 115.463L69.8228 112.224L69.8938 112.146L81.7518 122.924L81.8469 122.82L81.6676 116.248C81.6303 114.363 81.3946 113.579 80.7186 112.964L80.6145 112.87L84.1245 109.034L84.2286 109.128C83.8635 110.933 83.8491 112.249 83.8497 114.956L83.9152 119.05Z" fill="#00CB0D"/>
<path d="M84.1245 109.034L84.2286 109.128C83.8635 110.933 83.8491 112.249 83.8497 114.956L83.9152 119.05L96.8036 119.799L96.8301 119.822L93.9371 122.985L83.9387 122.253L83.9628 124.933L85.3671 126.209C86.8755 127.58 87.6749 128.164 88.8296 128.36L88.9337 128.454L85.7328 131.953L85.6288 131.859C85.3509 130.704 84.6941 129.965 83.1857 128.594L70.8849 117.414C69.3765 116.044 68.7402 115.75 67.5872 115.605L67.4314 115.463L69.8228 112.224L69.8938 112.146L81.7518 122.924L81.8469 122.82L81.6676 116.248C81.6303 114.363 81.3946 113.579 80.7186 112.964L80.6145 112.87L84.1245 109.034ZM84.0834 108.168L79.7433 112.912L80.3048 113.419C80.771 113.843 81.0151 114.399 81.0518 116.26L81.1972 121.589L69.8544 111.28L69.3462 111.833L66.6067 115.545L67.3165 116.189L67.5098 116.214C68.45 116.332 68.981 116.515 70.4701 117.868L82.7707 129.048C84.2331 130.377 84.7943 131.023 85.0299 132.002L85.0739 132.185L85.7725 132.821L89.8034 128.415L89.1113 127.785L88.9327 127.754C87.9401 127.586 87.2444 127.085 85.7821 125.756L84.5762 124.66L84.5605 122.914L94.1905 123.619L97.7007 119.782L97.0568 119.198L84.5219 118.471L84.4655 114.946C84.465 112.26 84.4795 110.994 84.8324 109.25L84.9014 108.908L84.0834 108.168Z" fill="#F94646"/>
<path d="M92.911 122.389L90.5444 120.238L90.6628 120.108C92.8383 120.282 94.6222 119.529 95.8317 118.207C96.9461 116.989 97.5169 115.323 96.3465 114.26C95.5141 113.503 94.6757 113.691 93.0891 114.385L90.6484 115.491C88.4267 116.462 86.5977 116.223 85.1668 114.923C82.9824 112.938 83.0985 109.53 85.4459 106.964C86.5369 105.772 87.9636 104.837 89.2639 104.405L91.6047 106.532L91.4862 106.662C89.8599 106.513 88.2962 107.181 87.1576 108.425C85.9722 109.721 85.5746 111.353 86.6404 112.322C87.4469 113.055 88.3425 113.014 89.9026 112.297L92.4642 111.111C94.5608 110.121 96.3098 110.239 97.8447 111.634C100.159 113.737 99.8439 117.154 97.5199 119.694C96.2864 121.042 94.5638 122.039 92.911 122.389Z" fill="#00CB0D"/>
<path d="M89.2639 104.405L91.6047 106.532L91.4862 106.662C91.3361 106.648 91.1866 106.641 91.0378 106.641C89.5749 106.641 88.1911 107.296 87.1576 108.425C85.9722 109.721 85.5746 111.353 86.6404 112.322C87.0344 112.68 87.4497 112.854 87.9533 112.854C88.4805 112.854 89.1046 112.664 89.9026 112.297L92.4642 111.111C93.371 110.683 94.2129 110.462 95.0006 110.462C96.0338 110.462 96.9737 110.842 97.8447 111.634C100.159 113.737 99.8439 117.154 97.5199 119.694C96.2864 121.042 94.5638 122.039 92.911 122.389L90.5444 120.238L90.6628 120.108C90.8702 120.125 91.0741 120.133 91.2742 120.133C93.1732 120.133 94.7374 119.403 95.8317 118.207C96.9461 116.989 97.5169 115.323 96.3465 114.26C95.9745 113.922 95.6012 113.772 95.1606 113.772C94.6152 113.772 93.9666 114.001 93.0891 114.385L90.6484 115.491C89.7336 115.891 88.8852 116.085 88.1041 116.085C86.9879 116.085 86.0085 115.688 85.1668 114.923C82.9824 112.938 83.0985 109.53 85.4459 106.964C86.5369 105.772 87.9636 104.837 89.2639 104.405ZM89.4118 103.708L89.0688 103.822C87.6453 104.296 86.1208 105.316 84.9909 106.55C82.4158 109.365 82.313 113.16 84.7518 115.377C85.7176 116.254 86.8454 116.699 88.1041 116.699C88.9753 116.699 89.9145 116.482 90.8957 116.053L93.3438 114.944C94.0028 114.656 94.6848 114.386 95.1606 114.386C95.4523 114.386 95.6757 114.481 95.9315 114.714C96.8434 115.542 96.2024 116.891 95.3765 117.794C94.3438 118.923 92.9252 119.519 91.2742 119.519C91.09 119.519 90.9008 119.512 90.7119 119.497L90.4111 119.473L89.6742 120.278L92.7297 123.055L93.0388 122.989C94.8238 122.612 96.6691 121.534 97.975 120.107C99.2156 118.751 99.9478 117.127 100.037 115.534C100.13 113.853 99.4993 112.307 98.2597 111.18C97.2871 110.296 96.1906 109.848 95.0006 109.848C94.1258 109.848 93.21 110.08 92.2005 110.556L89.6432 111.74C88.9021 112.081 88.3648 112.24 87.9533 112.24C87.6101 112.24 87.3416 112.129 87.0552 111.869C86.2248 111.113 86.7621 109.768 87.6128 108.838C88.5472 107.817 89.7636 107.255 91.0378 107.255C91.1679 107.255 91.2999 107.261 91.43 107.273L91.7348 107.301L92.4749 106.492L89.4118 103.708Z" fill="#F94646"/>
<path d="M86.8773 98.0591C85.9668 97.2318 85.8507 95.7967 86.7523 94.8117C87.5582 93.9305 89.0257 93.888 89.9363 94.7152C90.898 95.5899 90.9882 97.0016 90.1588 97.9086C89.2573 98.8936 87.8391 98.9337 86.8773 98.0591ZM102.796 107.21C104.278 108.557 105.078 109.142 106.257 109.311L106.361 109.405L103.159 112.905L103.055 112.81C102.777 111.656 102.097 110.942 100.614 109.595L94.4507 103.993C93.0987 102.764 92.2543 102.282 91.1272 102.16L90.9714 102.017L93.3627 98.7791L93.4337 98.7011L102.796 107.21Z" fill="#00CB0D"/>
<path d="M88.3761 94.1217C88.9346 94.1217 89.4995 94.3184 89.9363 94.7152C90.898 95.5899 90.9882 97.0016 90.1588 97.9086C89.6849 98.4264 89.0683 98.683 88.4502 98.683C87.8924 98.683 87.3336 98.474 86.8773 98.0591C85.9668 97.2318 85.8507 95.7967 86.7523 94.8117C87.1716 94.3532 87.7701 94.1218 88.3761 94.1217ZM93.4337 98.7011L102.796 107.21C104.278 108.557 105.078 109.142 106.257 109.311L106.361 109.405L103.159 112.905L103.055 112.81C102.777 111.656 102.097 110.942 100.614 109.595L94.4507 103.993C93.0987 102.764 92.2543 102.282 91.1272 102.16L90.9714 102.017L93.3627 98.7791L93.4337 98.7011ZM88.3761 93.5079C87.5723 93.5079 86.8145 93.8324 86.2971 94.3982C85.7559 94.9894 85.4799 95.7452 85.5202 96.526C85.5596 97.2909 85.8942 97.9965 86.4625 98.5128C87.0184 99.0183 87.7244 99.2969 88.4502 99.2969C89.2702 99.2969 90.0386 98.9508 90.6138 98.3224C91.6839 97.1522 91.5686 95.3687 90.3514 94.2618C89.8162 93.7755 89.1148 93.5079 88.3761 93.5079ZM93.3926 97.8331L92.8855 98.3898L90.1473 102.098L90.8601 102.748L91.0605 102.77C92.0319 102.875 92.7548 103.283 94.0359 104.446L100.199 110.048C101.72 111.43 102.229 112.01 102.456 112.953L102.5 113.136L103.199 113.772L107.23 109.366L106.532 108.73L106.344 108.703C105.345 108.56 104.655 108.068 103.211 106.756L93.3926 97.8331Z" fill="#F94646"/>
<path d="M95.9447 102.622C94.4622 101.275 93.6177 100.792 92.4906 100.669L92.3349 100.528L94.7497 97.263L94.8206 97.1851L96.7194 98.911L96.8144 98.8073C96.2659 96.6473 96.6496 94.7176 98.0017 93.2399C100.112 90.9331 103.311 90.6124 106.432 93.4491L111.321 97.8925C112.803 99.2389 113.576 99.8 114.781 99.9924L114.885 100.087L111.684 103.586L111.58 103.492C111.252 102.34 110.622 101.624 109.139 100.277L104.302 95.8806C102.404 94.1547 100.564 94.2398 99.3068 95.6138C97.8844 97.1689 97.8375 99.9271 100.048 101.936L104.183 105.694C105.665 107.041 106.488 107.599 107.619 107.82L107.723 107.915L104.523 111.415L104.418 111.32C104.141 110.166 103.46 109.452 101.978 108.105L95.9447 102.622Z" fill="#00CB0D"/>
<path d="M101.885 91.4155C103.326 91.4155 104.888 92.046 106.432 93.4491L111.321 97.8925C112.803 99.2389 113.576 99.8 114.781 99.9924L114.885 100.087L111.684 103.586L111.58 103.492C111.252 102.34 110.622 101.624 109.139 100.277L104.302 95.8806C103.325 94.9924 102.363 94.5838 101.489 94.5838C100.664 94.5837 99.9169 94.947 99.3068 95.6138C97.8844 97.1689 97.8375 99.9271 100.048 101.936L104.183 105.694C105.665 107.041 106.488 107.599 107.619 107.82L107.723 107.915L104.523 111.415L104.418 111.32C104.141 110.166 103.46 109.452 101.978 108.105L95.9447 102.622C94.4622 101.275 93.6177 100.792 92.4906 100.669L92.3349 100.528L94.7497 97.263L94.8206 97.1851L96.7194 98.911L96.8144 98.8073C96.2659 96.6473 96.6496 94.7176 98.0017 93.2399C99.0682 92.0741 100.413 91.4155 101.885 91.4155ZM101.885 90.8016C100.259 90.8016 98.7585 91.5017 97.5466 92.8263C96.3983 94.0813 95.8647 95.6411 95.9691 97.3982L94.7795 96.3169L94.2726 96.8736L91.5097 100.609L92.2243 101.258L92.424 101.279C93.3948 101.385 94.1495 101.821 95.5298 103.075L101.563 108.559C103.083 109.94 103.593 110.521 103.82 111.463L103.864 111.646L104.562 112.282L108.593 107.875L107.907 107.251L107.738 107.218C106.785 107.032 106.081 106.588 104.598 105.24L100.463 101.482C98.9353 100.094 98.2556 97.6742 99.762 96.0274C100.266 95.4768 100.847 95.1976 101.489 95.1976C102.24 95.1977 103.069 95.5907 103.887 96.3342L108.724 100.73C110.147 102.023 110.703 102.66 110.987 103.659L111.035 103.827L111.724 104.454L115.755 100.047L115.06 99.4153L114.878 99.3863C113.842 99.2208 113.185 98.7548 111.735 97.4387L106.846 92.9955C105.268 91.5603 103.552 90.8016 101.885 90.8016Z" fill="#F94646"/>
<path d="M114.615 93.7183L107.334 87.1007L105.033 89.6149L103.525 88.2439C105.749 85.7081 105.663 84.918 103.001 82.3085L104.756 80.3902L107.799 83.1561L110.976 79.6828L112.693 81.2426L109.515 84.716L116.718 91.2628C118.045 92.4684 119.141 92.4678 120.208 91.3012C120.73 90.7311 121.124 90.0921 121.335 89.2876L122.873 90.2108C122.755 91.4319 122.263 92.647 121.362 93.632C119.536 95.6276 117.111 95.9873 114.615 93.7183Z" fill="#00CB0D"/>
<path d="M110.976 79.6828L112.693 81.2426L109.515 84.716L116.718 91.2628C117.387 91.8704 117.997 92.1716 118.574 92.1716C119.143 92.1716 119.679 91.8799 120.208 91.3012C120.73 90.7311 121.124 90.0921 121.335 89.2876L122.873 90.2108C122.755 91.4319 122.263 92.647 121.362 93.632C120.402 94.6816 119.276 95.2787 118.061 95.2787C116.966 95.2787 115.799 94.7939 114.615 93.7183L107.334 87.1007L105.033 89.6149L103.525 88.2439C105.749 85.7081 105.663 84.918 103.001 82.3085L104.756 80.3902L107.799 83.1561L110.976 79.6828ZM110.936 78.8155L107.759 82.2889L104.716 79.5229L102.146 82.3317L102.569 82.7461C105.012 85.1408 105.053 85.5692 103.061 87.8398L102.664 88.2924L105.073 90.4821L107.374 87.9678L114.2 94.1719C115.456 95.3137 116.755 95.8926 118.061 95.8926C119.413 95.8926 120.712 95.2539 121.817 94.0456C122.771 93.0036 123.348 91.698 123.486 90.2699L123.524 89.8846L120.948 88.3387L120.74 89.1318C120.569 89.7806 120.255 90.3385 119.753 90.8877C119.341 91.3386 118.955 91.5578 118.574 91.5578C118.165 91.5578 117.68 91.3059 117.133 90.8092L110.385 84.676L113.563 81.2026L110.936 78.8155Z" fill="#F94646"/>
<path d="M106.244 79.2841C104.788 77.9605 103.813 77.3598 102.661 77.2141L102.531 77.096L104.922 73.8571L104.993 73.7791L113.029 81.0831L113.148 80.9537C112.601 78.8429 112.936 76.9156 114.383 75.3342C116.446 73.0789 119.645 72.7588 122.765 75.5949L127.628 80.0143C129.111 81.3619 129.935 81.9692 131.114 82.1388L131.218 82.2335L128.017 85.7327L127.913 85.638C127.588 84.5355 126.905 83.7724 125.423 82.4248L120.612 78.0528C118.739 76.3509 116.945 76.3341 115.617 77.786C114.17 79.3668 114.225 82.17 116.358 84.1081L120.467 87.8422C121.949 89.1899 122.797 89.7714 123.953 89.9668L124.057 90.0615L120.856 93.5606L120.752 93.4659C120.474 92.3119 119.767 91.5746 118.285 90.227L106.244 79.2841Z" fill="#00CB0D"/>
<path d="M118.203 73.5553C119.643 73.5553 121.214 74.185 122.765 75.5949L127.628 80.0143C129.111 81.3619 129.935 81.9692 131.114 82.1388L131.218 82.2335L128.017 85.7327L127.913 85.638C127.588 84.5355 126.905 83.7724 125.423 82.4248L120.612 78.0528C119.634 77.1636 118.676 76.7344 117.796 76.7343C116.991 76.7343 116.251 77.0927 115.617 77.786C114.17 79.3668 114.225 82.17 116.358 84.1081L120.467 87.8422C121.949 89.1899 122.797 89.7714 123.953 89.9668L124.057 90.0615L120.856 93.5606L120.752 93.4659C120.474 92.3119 119.767 91.5746 118.285 90.227L106.244 79.2841C104.788 77.9605 103.813 77.3598 102.661 77.2141L102.531 77.096L104.922 73.8571L104.993 73.7791L113.029 81.0831L113.148 80.9537C112.601 78.8429 112.936 76.9156 114.383 75.3342C115.42 74.2001 116.745 73.5553 118.203 73.5553ZM104.952 72.911L104.466 73.4445L104.445 73.4678L104.426 73.4932L101.706 77.1774L102.39 77.7986L102.584 77.8231C103.56 77.9466 104.41 78.4476 105.83 79.7378L117.87 90.6806C119.275 91.9575 119.915 92.6204 120.153 93.6092L120.197 93.7922L120.896 94.4282L124.927 90.0218L124.234 89.3917L124.056 89.3616C123.099 89.1998 122.387 88.7573 120.882 87.3887L116.773 83.6545C115.889 82.8515 115.351 81.8235 115.259 80.7599C115.174 79.7901 115.47 78.8569 116.072 78.1997C116.589 77.6346 117.169 77.3481 117.796 77.3482C118.533 77.3483 119.363 77.7488 120.197 78.5064L125.008 82.8784C126.404 84.1478 127.035 84.8359 127.323 85.8112L127.371 85.9748L128.055 86.6015L132.088 82.1938L131.39 81.5583L131.202 81.5312C130.188 81.3853 129.441 80.8308 128.043 79.5607L123.18 75.1413C121.596 73.7021 119.875 72.9414 118.203 72.9414C116.59 72.9414 115.112 73.6258 113.927 74.9206C112.72 76.2409 112.175 77.8059 112.298 79.5873L104.952 72.911Z" fill="#F94646"/>
<path d="M137.014 72.6701C137.148 75.023 136.472 77.1146 134.812 78.9292C131.564 82.4805 126.526 82.8858 122.521 79.2458C118.854 75.9139 118.352 70.9946 121.364 67.7029C123.949 64.8775 127.64 64.4351 130.995 67.484L131.983 68.3821L124.442 76.6248C127.658 79.3573 130.958 79.0821 133.353 76.4636C134.61 75.0902 135.216 73.6467 135.48 71.7973L137.014 72.6701ZM123.003 75.1268L128.244 69.3982C126.297 67.725 124.231 67.7454 122.808 69.3011C121.243 71.0114 121.389 73.0903 123.003 75.1268Z" fill="#00CB0D"/>
<path d="M126.171 65.3837C127.753 65.3837 129.411 66.0448 130.995 67.484L131.983 68.3821L124.442 76.6248C125.984 77.9353 127.546 78.5542 129.018 78.5542C130.615 78.5542 132.107 77.8262 133.353 76.4636C134.61 75.0902 135.216 73.6467 135.48 71.7973L137.014 72.6701C137.148 75.023 136.472 77.1146 134.812 78.9292C133.107 80.7936 130.908 81.791 128.625 81.791C126.558 81.791 124.423 80.9749 122.521 79.2458C118.854 75.9139 118.352 70.9946 121.364 67.7029C122.728 66.2112 124.402 65.3837 126.171 65.3837ZM123.003 75.1268L128.244 69.3982C127.259 68.5517 126.243 68.1386 125.296 68.1386C124.371 68.1386 123.511 68.5325 122.808 69.3011C121.243 71.0114 121.389 73.0903 123.003 75.1268ZM126.171 64.7698C124.236 64.7698 122.417 65.641 120.909 67.2892C119.334 69.0109 118.594 71.2238 118.825 73.5206C119.054 75.7905 120.219 77.9849 122.106 79.6994C124.053 81.4693 126.307 82.4049 128.625 82.4049C131.102 82.4049 133.461 81.3174 135.268 79.3428C136.981 77.4699 137.776 75.2132 137.629 72.6355L137.61 72.3022L134.997 70.8163L134.87 71.711C134.611 73.5243 134.022 74.8219 132.898 76.0499C131.767 77.2867 130.425 77.9403 129.018 77.9403C127.803 77.9403 126.568 77.4748 125.339 76.5552L132.853 68.342L131.409 67.0304C129.782 65.5515 127.971 64.7698 126.171 64.7698ZM123.061 74.152C122.267 72.9058 121.836 71.2746 123.263 69.7147C123.839 69.0852 124.542 68.7525 125.296 68.7525C125.955 68.7525 126.653 69.0004 127.34 69.4748L123.061 74.152Z" fill="#F94646"/>
<path d="M140.419 71.9675C140.102 70.4922 139.176 69.3184 137.251 67.5698L127.239 58.4703C125.314 56.7205 124.057 55.9094 122.553 55.7301L122.449 55.6354L128.544 48.974C132.338 44.8269 136.053 44.3575 138.627 46.6978C140.708 48.5886 140.848 51.6117 139.138 54.5204L139.242 54.6151C142.576 51.8054 145.983 51.6741 148.193 53.6829C150.898 56.1414 151.076 60.5277 147.187 64.7786L140.523 72.0622L140.419 71.9675ZM135.942 56.5052C138.29 53.9389 138.553 51.568 136.447 49.6538C134.575 47.9519 132.206 48.4585 129.907 50.9727L127.274 53.8496L133.334 59.3563L135.942 56.5052ZM135.076 60.9402L141.863 67.1088L144.685 64.0245C147.27 61.1991 147.836 58.3426 145.495 56.2157C143.259 54.1829 140.554 54.9526 137.756 58.0111L135.076 60.9402Z" fill="#00CB0D"/>
<path d="M135.131 45.2931C136.43 45.293 137.616 45.7788 138.627 46.6978C140.708 48.5886 140.848 51.6117 139.138 54.5204L139.242 54.6151C141.094 53.0543 142.969 52.3199 144.648 52.3199C145.992 52.3199 147.21 52.79 148.193 53.6829C150.898 56.1414 151.076 60.5277 147.187 64.7786L140.523 72.0622L140.419 71.9675C140.102 70.4922 139.176 69.3184 137.251 67.5698L127.239 58.4703C125.314 56.7205 124.057 55.9094 122.553 55.7301L122.449 55.6354L128.544 48.974C130.848 46.4554 133.123 45.2933 135.131 45.2931ZM133.334 59.3563L135.942 56.5052C138.29 53.9389 138.553 51.568 136.447 49.6538C135.713 48.9862 134.902 48.6584 134.049 48.6584C132.727 48.6584 131.304 49.4447 129.907 50.9727L127.274 53.8496L133.334 59.3563ZM141.863 67.1088L144.685 64.0245C147.27 61.1991 147.836 58.3426 145.495 56.2157C144.655 55.4523 143.749 55.084 142.797 55.084C141.214 55.084 139.503 56.1012 137.756 58.0111L135.076 60.9402L141.863 67.1088ZM135.132 44.6793C132.847 44.6795 130.411 46.0215 128.089 48.5604L121.58 55.6749L122.284 56.3162L122.48 56.3397C123.756 56.4918 124.893 57.168 126.824 58.9238L136.836 68.0233C138.768 69.7784 139.548 70.8441 139.817 72.096L139.858 72.2882L140.563 72.9298L147.642 65.1922C152.072 60.3491 151.32 55.6942 148.608 53.2294C147.511 52.2328 146.142 51.706 144.648 51.706C143.305 51.706 141.91 52.1267 140.539 52.9358C141.391 50.3634 140.876 47.9106 139.042 46.2442C137.916 45.2204 136.564 44.6793 135.132 44.6793ZM128.144 53.8096L130.362 51.3863C131.627 50.0033 132.902 49.2723 134.049 49.2723C134.755 49.2723 135.423 49.5532 136.032 50.1074C136.934 50.9272 137.333 51.8027 137.251 52.7841C137.167 53.791 136.574 54.9038 135.487 56.0916L133.293 58.4892L128.144 53.8096ZM135.946 60.9002L138.211 58.4248C139.843 56.6408 141.429 55.6978 142.797 55.6978C143.603 55.6978 144.371 56.0247 145.08 56.6693C146.058 57.5585 146.478 58.6051 146.326 59.78C146.175 60.9526 145.45 62.2772 144.23 63.6108L141.823 66.2415L135.946 60.9002Z" fill="#F94646"/>
<path d="M144.526 55.2961C140.755 51.8695 140.496 46.7907 143.744 43.2394C146.969 39.7139 152.016 39.5071 155.813 42.9577C159.61 46.4089 159.92 51.4846 156.695 55.0102C153.446 58.5614 148.323 58.7473 144.526 55.2961ZM153.442 45.5498C150.504 42.8792 147.431 42.6975 145.486 44.8233C143.471 47.0263 144.011 50.0807 146.897 52.704C149.81 55.3512 152.913 55.6558 154.952 53.4269C156.897 51.3012 156.406 48.2445 153.442 45.5498Z" fill="#00CB0D"/>
<path d="M149.789 40.4793C151.858 40.4792 153.981 41.2926 155.813 42.9577C159.61 46.4089 159.92 51.4846 156.695 55.0102C155.016 56.8454 152.836 57.7821 150.598 57.7821C148.504 57.7821 146.361 56.9637 144.526 55.2961C140.755 51.8695 140.496 46.7907 143.744 43.2394C145.413 41.4151 147.57 40.4795 149.789 40.4793ZM151.689 54.9143C152.915 54.9143 154.04 54.4243 154.952 53.4269C156.897 51.3012 156.406 48.2445 153.442 45.5498C151.834 44.088 150.185 43.3718 148.703 43.3718C147.477 43.3718 146.366 43.8611 145.486 44.8233C143.471 47.0263 144.011 50.0807 146.897 52.704C148.507 54.1667 150.174 54.9143 151.689 54.9143ZM149.789 39.8655C147.344 39.8656 145.035 40.917 143.289 42.8259C139.765 46.6787 140.11 52.114 144.111 55.7498C145.988 57.4561 148.292 58.3959 150.598 58.3959C153.07 58.3959 155.397 57.3404 157.15 55.4237C160.647 51.6013 160.259 46.1678 156.228 42.5041C154.329 40.7779 152.102 39.8655 149.789 39.8655ZM151.689 54.3004C150.301 54.3004 148.788 53.5915 147.312 52.2504C144.69 49.8667 144.164 47.1793 145.941 45.2368C146.701 44.4066 147.63 43.9856 148.703 43.9856C150.079 43.9856 151.575 44.6833 153.027 46.0034C155.682 48.4167 156.245 51.1028 154.497 53.0133C153.716 53.8674 152.771 54.3004 151.689 54.3004Z" fill="#F94646"/>
<path d="M153.288 45.7183C149.518 42.2917 149.257 37.2123 152.506 33.6616C155.731 30.1361 160.779 29.9293 164.576 33.3799C168.373 36.831 168.682 41.9068 165.457 45.4323C162.208 48.983 157.085 49.1695 153.288 45.7183ZM162.204 35.972C159.265 33.3013 156.193 33.1197 154.249 35.2454C152.233 37.4485 152.773 40.5028 155.659 43.1261C158.573 45.7734 161.675 46.078 163.715 43.8491C165.659 41.7234 165.169 38.6666 162.204 35.972Z" fill="#00CB0D"/>
<path d="M158.551 30.9015C160.62 30.9014 162.743 31.7148 164.576 33.3799C168.373 36.831 168.682 41.9068 165.457 45.4323C163.778 47.2674 161.598 48.204 159.359 48.204C157.267 48.204 155.123 47.3858 153.288 45.7183C149.518 42.2917 149.257 37.2123 152.506 33.6616C154.175 31.8373 156.332 30.9016 158.551 30.9015ZM160.451 45.3364C161.677 45.3364 162.802 44.8464 163.715 43.8491C165.659 41.7234 165.169 38.6666 162.204 35.972C160.596 34.5102 158.947 33.7939 157.465 33.7939C156.24 33.7939 155.129 34.2832 154.249 35.2454C152.233 37.4485 152.773 40.5028 155.659 43.1261C157.269 44.5889 158.937 45.3364 160.451 45.3364ZM158.552 30.2876C156.106 30.2878 153.797 31.3391 152.051 33.248C150.359 35.0969 149.507 37.4145 149.65 39.7736C149.794 42.1416 150.939 44.4139 152.873 46.1719C154.751 47.8782 157.054 48.8179 159.359 48.8179C161.832 48.8179 164.159 47.7625 165.912 45.846C169.409 42.0235 169.021 36.5899 164.991 32.9263C163.091 31.2 160.865 30.2876 158.552 30.2876ZM160.451 44.7226C159.064 44.7226 157.55 44.0137 156.074 42.6725C153.452 40.2888 152.927 37.6015 154.704 35.659C155.463 34.8287 156.392 34.4078 157.465 34.4078C158.841 34.4078 160.337 35.1055 161.789 36.4256C164.444 38.8388 165.008 41.5249 163.26 43.4355C162.478 44.2895 161.533 44.7226 160.451 44.7226Z" fill="#F94646"/>
<path d="M166.254 37.2729L158.972 30.6552L156.672 33.1694L155.164 31.7984C157.388 29.2627 157.301 28.4726 154.64 25.863L156.394 23.9447L159.437 26.7107L162.615 23.2373L164.331 24.7972L161.154 28.2705L168.357 34.8174C169.684 36.0229 170.779 36.0224 171.847 34.8558C172.369 34.2857 172.762 33.6466 172.974 32.8421L174.511 33.7653C174.393 34.9865 173.902 36.2016 173.001 37.1865C171.175 39.1822 168.75 39.5419 166.254 37.2729Z" fill="#00CB0D"/>
<path d="M162.615 23.2373L164.331 24.7972L161.154 28.2705L168.357 34.8174C169.026 35.425 169.636 35.7262 170.213 35.7262C170.781 35.7262 171.317 35.4344 171.847 34.8558C172.369 34.2857 172.762 33.6466 172.974 32.8421L174.511 33.7653C174.393 34.9865 173.902 36.2016 173.001 37.1865C172.04 38.2361 170.914 38.8333 169.699 38.8333C168.604 38.8333 167.437 38.3485 166.254 37.2729L158.972 30.6552L156.672 33.1694L155.164 31.7984C157.388 29.2627 157.301 28.4726 154.64 25.863L156.394 23.9447L159.437 26.7107L162.615 23.2373ZM162.575 22.3701L159.397 25.8435L156.354 23.0774L153.785 25.8862L154.208 26.3006C156.65 28.6956 156.692 29.1241 154.7 31.3943L154.303 31.8469L156.712 34.0367L159.012 31.5225L165.839 37.7265C167.095 38.8682 168.393 39.4472 169.699 39.4472C171.051 39.4472 172.35 38.8085 173.456 37.6002C174.409 36.5582 174.986 35.2526 175.124 33.8244L175.162 33.4392L172.587 31.8931L172.378 32.6864C172.208 33.3351 171.894 33.893 171.392 34.4422C170.979 34.8931 170.594 35.1123 170.213 35.1123C169.803 35.1123 169.318 34.8605 168.772 34.3638L162.024 28.2305L165.201 24.7572L162.575 22.3701Z" fill="#F94646"/>
<path d="M157.883 22.8387C156.427 21.515 155.452 20.9138 154.299 20.7687L154.169 20.6506L156.561 17.4116L156.632 17.3337L164.668 24.6377L164.787 24.5082C164.24 22.3975 164.574 20.4701 166.021 18.8887C168.084 16.6335 171.283 16.3134 174.403 19.1495L179.266 23.5688C180.749 24.9165 181.574 25.5237 182.753 25.6934L182.857 25.7881L179.656 29.2872L179.552 29.1925C179.226 28.0901 178.544 27.327 177.062 25.9793L172.251 21.6074C170.378 19.9054 168.583 19.8887 167.255 21.3406C165.809 22.9214 165.863 25.7246 167.996 27.6627L172.105 31.3968C173.588 32.7444 174.436 33.3259 175.592 33.5213L175.696 33.6161L172.494 37.1152L172.39 37.0205C172.112 35.8659 171.406 35.1291 169.924 33.7815L157.883 22.8387Z" fill="#00CB0D"/>
<path d="M169.841 17.1098C171.282 17.1098 172.852 17.7395 174.403 19.1495L179.266 23.5688C180.749 24.9165 181.574 25.5237 182.753 25.6934L182.857 25.7881L179.656 29.2872L179.552 29.1925C179.226 28.0901 178.544 27.327 177.062 25.9793L172.251 21.6074C171.272 20.7182 170.315 20.2889 169.434 20.2889C168.63 20.2888 167.889 20.6472 167.255 21.3406C165.809 22.9214 165.863 25.7246 167.996 27.6627L172.105 31.3968C173.588 32.7444 174.436 33.3259 175.592 33.5213L175.696 33.6161L172.494 37.1152L172.39 37.0205C172.112 35.8659 171.406 35.1291 169.924 33.7815L157.883 22.8387C156.427 21.515 155.452 20.9138 154.299 20.7687L154.169 20.6506L156.561 17.4116L156.632 17.3337L164.668 24.6377L164.787 24.5082C164.24 22.3975 164.574 20.4701 166.021 18.8887C167.058 17.7547 168.383 17.1098 169.841 17.1098ZM156.59 16.4653L156.083 17.0225L153.345 20.7318L154.029 21.3533L154.222 21.3777C155.199 21.5006 156.048 22.0016 157.468 23.2923L169.509 34.2351C170.913 35.5115 171.553 36.1743 171.791 37.1636L171.835 37.3467L172.534 37.9828L176.566 33.5763L175.873 32.9463L175.695 32.9161C174.738 32.7543 174.026 32.3117 172.52 30.9432L168.411 27.209C167.527 26.4061 166.99 25.3781 166.897 24.3145C166.812 23.3447 167.109 22.4115 167.71 21.7542C168.227 21.1891 168.807 20.9027 169.434 20.9027C170.172 20.9028 171.002 21.3033 171.836 22.0609L176.647 26.433C178.043 27.7018 178.673 28.3899 178.961 29.3657L179.009 29.53L179.695 30.155L183.727 25.7485L183.029 25.1128L182.841 25.0858C181.827 24.9398 181.079 24.3853 179.681 23.1153L174.818 18.6959C173.235 17.2567 171.514 16.496 169.841 16.496C168.228 16.496 166.75 17.1803 165.566 18.4751C164.358 19.7954 163.813 21.3605 163.936 23.1424L156.59 16.4653Z" fill="#F94646"/>
</svg>
