<svg width="218" height="200" viewBox="0 0 218 200" fill="none" xmlns="http://www.w3.org/2000/svg">
<path d="M193.949 55.8223H175.401V38.3628C175.401 17.1736 158.173 0.00244141 136.913 0.00244141H81.6857C60.4262 0.00244141 43.1981 17.1736 43.1981 38.3628V55.8223H24.6502C11.5077 55.8223 0.841797 66.4529 0.841797 79.552V120.453C0.841797 133.552 11.5077 144.183 24.6502 144.183H43.1981V161.642C43.1981 182.831 60.4262 200.002 81.6857 200.002H136.913C158.173 200.002 175.401 182.831 175.401 161.642V144.183H193.949C207.091 144.183 217.757 133.552 217.757 120.453V79.552C217.757 66.4529 207.091 55.8223 193.949 55.8223Z" fill="#DEFC32"/>
<path d="M56.8649 61.1015L58.2388 23.0295L74.0207 36.2006C81.1795 26.7051 91.4477 19.606 103.18 16.8493C123.283 12.1286 153.039 20.597 161.535 54.6511L158.842 55.2817C150.797 23.1196 122.74 15.2277 103.849 19.6781C92.6589 22.3087 82.9873 28.9934 76.2804 37.9484L94.0328 52.7952L56.8468 61.1196L56.8649 61.1015Z" fill="#0A0A0A"/>
<path d="M146.368 163.93C139.209 173.426 128.905 180.381 117.172 183.138C97.0699 187.858 67.3319 179.534 58.8534 145.48L61.547 144.849C69.5916 177.011 97.6303 184.759 116.504 180.327C127.694 177.696 137.401 171.156 144.072 162.057L126.356 147.354L163.542 139.029L162.15 177.102L146.368 163.93Z" fill="#0A0A0A"/>
<path d="M43.5958 73.7682C42.0772 75.1015 40.3237 75.4799 37.142 75.4799V70.7051H37.8109C41.2818 70.7051 43.2161 69.4799 43.6139 66.4529H49.2722V99.588H43.6139V73.7862L43.5958 73.7682Z" fill="#0A0A0A"/>
<path d="M52.0562 94.7772L65.5422 82.7051C67.7658 80.7232 69.3024 78.8313 69.3024 75.9304C69.3024 72.9033 67.115 70.9574 63.9875 70.9574C60.3358 70.9574 57.9495 73.2817 57.7688 77.0115L52.3997 76.579L52.255 76.2547C52.7251 70.4889 57.2445 65.9304 63.9333 65.9304C70.2424 65.9304 74.8523 69.7141 74.8523 75.6421C74.8523 80.0024 72.7191 82.9754 69.3385 85.9124L59.7392 94.3448H75.4127V99.552H52.0381V94.7772H52.0562Z" fill="#0A0A0A"/>
<path d="M16.3887 118.507C16.3887 108.525 21.7036 101.462 30.3448 101.462C38.9859 101.462 44.3008 108.507 44.3008 118.507C44.3008 128.507 38.9317 135.552 30.3448 135.552C21.7578 135.552 16.3887 128.507 16.3887 118.507ZM38.5701 118.507C38.5701 111.264 35.7681 106.669 30.3628 106.669C24.9576 106.669 22.1555 111.264 22.1555 118.507C22.1555 125.75 24.9576 130.345 30.3628 130.345C35.7681 130.345 38.5701 125.75 38.5701 118.507Z" fill="#0A0A0A"/>
<path d="M61.5109 128.579H46.0363V123.372L61.8001 101.93H67.1692V123.372H71.1644V128.579H67.1692V135.066H61.5109V128.579ZM61.5109 123.372V110.597L52.1466 123.372H61.5109Z" fill="#0A0A0A"/>
<path d="M72.2852 125.084L72.4841 124.705L77.8893 124.183C78.269 127.444 80.4564 130.525 84.6866 130.525C88.9168 130.525 91.6285 127.876 91.6285 123.372C91.6285 118.867 88.6456 116.327 84.7951 116.327C80.9445 116.327 78.6125 117.84 77.2024 118.921L73.171 116.939L75.3042 101.93H94.8644V106.759H79.6248L78.3955 113.714C80.1491 112.579 82.8607 111.624 85.8074 111.624C92.8758 111.624 97.3953 116.02 97.3953 123.174C97.3953 129.84 92.6951 135.534 84.7228 135.534C77.9797 135.534 72.936 131.282 72.3214 125.066L72.2852 125.084Z" fill="#0A0A0A"/>
<path d="M129.538 100.741C129.538 80.6691 145.79 64.579 165.82 64.579C185.85 64.579 202.21 80.6691 202.21 100.741C202.21 120.813 185.958 136.903 165.82 136.903C145.681 136.903 129.538 120.813 129.538 100.741ZM144.506 98.3628C144.705 93.8943 145.5 89.6241 146.892 85.7502H138.125C136.028 89.534 134.744 93.8042 134.437 98.3628H144.506ZM138.323 116.057H147.001C145.609 112.075 144.705 107.804 144.506 103.138H134.437C134.744 107.804 136.136 112.183 138.323 116.057ZM148.989 80.9754C150.978 77.1015 153.671 73.6241 156.871 70.6511C150.689 72.4349 145.211 76.1105 141.324 80.9754H149.007H148.989ZM156.763 130.849C153.671 127.966 151.177 124.597 149.188 120.813H141.505C145.5 125.48 150.671 129.066 156.763 130.849ZM163.542 98.3628V85.7502H151.972C150.472 89.534 149.477 93.8042 149.279 98.3628H163.542ZM152.171 116.057H163.542V103.138H149.279C149.477 107.804 150.472 112.183 152.171 116.057ZM163.542 80.9754V71.1376C159.854 73.8223 156.763 77.1015 154.467 80.9754H163.542ZM163.542 130.453V120.813H154.575C156.962 124.597 159.963 127.768 163.542 130.453ZM177.588 80.9754C175.202 76.9934 172.111 73.7142 168.314 71.0475V80.9754H177.588ZM182.777 98.3628C182.578 93.7862 181.584 89.516 180.083 85.7502H168.314V98.3628H182.777ZM179.884 116.057C181.584 112.183 182.578 107.804 182.777 103.138H168.314V116.057H179.884ZM177.498 120.813H168.333V130.543C172.02 127.966 175.112 124.579 177.498 120.813ZM183.084 80.9754H190.46C186.573 76.2006 181.385 72.6331 175.401 70.7412C178.492 73.7141 181.077 77.1015 183.084 80.9754ZM190.261 120.813H182.885C180.987 124.489 178.492 127.858 175.509 130.651C181.294 128.867 186.374 125.39 190.261 120.813ZM193.443 116.057C195.63 112.183 197.022 107.804 197.329 103.138H187.567C187.368 107.804 186.465 112.075 185.073 116.057H193.443ZM197.329 98.3628C197.022 93.7862 195.738 89.516 193.641 85.7502H185.163C186.555 89.6241 187.35 93.8943 187.549 98.3628H197.329Z" fill="#0A0A0A"/>
</svg>
